<svg xmlns="http://www.w3.org/2000/svg" viewBox="0 0 16 16">
  <defs>
    <style>.canvas{fill: none; opacity: 0;}.light-defaultgrey{fill: #212121; opacity: 1;}</style>
  </defs>
  <title>IconLightAbbreviation</title>
  <g id="canvas" class="canvas">
    <path class="canvas" d="M16,0V16H0V0Z" />
  </g>
  <g id="level-1">
    <path class="light-defaultgrey" d="M7,12H9v1H7ZM2,10H1v2.5l.5.5H3V12H2Zm2,3H6V12H4Zm10-3v2H13v1h1.5l.5-.5V10Zm-4,3h2V12H10Z" />
    <path class="light-defaultgrey" d="M4.984,4.4,2.887,10H3.9l.485-1.426h2.2L7.094,10H8.113L6.031,4.4ZM4.629,7.816,5.4,5.582a2.29,2.29,0,0,0,.079-.352h.015a2.714,2.714,0,0,0,.074.352l.778,2.234Zm7.818-.365a1.463,1.463,0,0,0-.924-.428V7.008a1.459,1.459,0,0,0,.747-.5,1.326,1.326,0,0,0,.269-.828,1.1,1.1,0,0,0-.475-.926A2.1,2.1,0,0,0,10.777,4.4H9V10h1.8a2.242,2.242,0,0,0,1.43-.445,1.412,1.412,0,0,0,.566-1.164A1.3,1.3,0,0,0,12.447,7.451ZM9.926,5.145H10.6q.96,0,.961.718a.794.794,0,0,1-.276.647,1.156,1.156,0,0,1-.76.228h-.6Zm1.6,3.873a1.2,1.2,0,0,1-.8.24H9.926V7.484H10.6q1.206,0,1.207.871A.824.824,0,0,1,11.521,9.018Z" />
  </g>
</svg>
