<svg xmlns="http://www.w3.org/2000/svg" viewBox="0 0 16 16">
  <defs>
    <style>.canvas{fill: none; opacity: 0;}.light-lightblue-10{fill: #0077a0; opacity: 0.1;}.light-lightblue{fill: #0077a0; opacity: 1;}.light-defaultgrey-10{fill: #212121; opacity: 0.1;}.light-defaultgrey{fill: #212121; opacity: 1;}.cls-1{opacity:0.75;}</style>
  </defs>
  <title>IconLightCloudServer</title>
  <g id="canvas">
    <path class="canvas" d="M16,16H0V0H16Z" />
  </g>
  <g id="level-1">
    <path class="light-lightblue-10" d="M11.235,12.647A1.843,1.843,0,0,1,9.407,14.5H3.036a2.574,2.574,0,0,1,0-5.147,2.437,2.437,0,0,1,.656.09A2.876,2.876,0,0,1,9.11,10.794h.3A1.844,1.844,0,0,1,11.235,12.647Z" />
    <path class="light-lightblue" d="M9.406,15H3.035a3.074,3.074,0,0,1,0-6.147,2.989,2.989,0,0,1,.414.029,3.371,3.371,0,0,1,2.772-1.47A3.422,3.422,0,0,1,9.567,10.3,2.354,2.354,0,0,1,9.406,15ZM3.035,9.853a2.074,2.074,0,0,0,0,4.147H9.406a1.353,1.353,0,0,0,0-2.706H8.618L8.61,10.8A2.421,2.421,0,0,0,6.221,8.412,2.38,2.38,0,0,0,4.132,9.681l-.19.352-.386-.108A1.9,1.9,0,0,0,3.035,9.853Z" />
    <path class="light-defaultgrey-10" d="M13,5H10V4h3Zm.5-3h-4a.5.5,0,0,0-.5.5V6.954H9v.489a4.464,4.464,0,0,1,1.386,2A3.363,3.363,0,0,1,12.665,12H14V2.5A.5.5,0,0,0,13.5,2Z" />
    <g class="cls-1">
      <path class="light-defaultgrey" d="M11.431,10H13v1h-.7A3.387,3.387,0,0,0,11.431,10Z" />
      <path class="light-defaultgrey" d="M10,8h3V9H10.2c-.06-.128-.124-.253-.2-.374Z" />
      <path class="light-defaultgrey" d="M13,4V5H10V4Z" />
    </g>
    <path class="light-defaultgrey" d="M13.5,1h-4A1.5,1.5,0,0,0,8,2.5V6.814a4.434,4.434,0,0,1,1,.632V2.5A.5.5,0,0,1,9.5,2h4a.5.5,0,0,1,.5.5V12H12.665a3.381,3.381,0,0,1,.069.647A3.4,3.4,0,0,1,12.7,13h1.8l.5-.5V2.5A1.5,1.5,0,0,0,13.5,1Z" />
  </g>
</svg>
