<svg xmlns="http://www.w3.org/2000/svg" viewBox="0 0 16 16">
  <defs>
    <style>.canvas{fill: none; opacity: 0;}.light-defaultgrey-10{fill: #212121; opacity: 0.1;}.light-defaultgrey{fill: #212121; opacity: 1;}.light-lightblue-10{fill: #0077a0; opacity: 0.1;}.light-lightblue{fill: #0077a0; opacity: 1;}.cls-1{opacity:0.75;}</style>
  </defs>
  <title>IconLightCloudConfigurationFile</title>
  <g id="canvas">
    <path class="canvas" d="M16,16H0V0H16Z" />
  </g>
  <g id="level-1">
    <g class="cls-1">
      <path class="light-defaultgrey-10" d="M13.5.5l2,2v7h-2v-4l-2-2h-3V.5Z" />
      <path class="light-defaultgrey" d="M16,2.5v7l-.5.5H14V9h1V3H13V1H9V3H8V.5L8.5,0h4.9l.344.138,2.1,2Z" />
    </g>
    <path class="light-defaultgrey-10" d="M13,6v6h-.333a3.36,3.36,0,0,0-2.283-2.558A4.458,4.458,0,0,0,7,6.49V4h4V6Z" />
    <path class="light-defaultgrey" d="M14,5.5v7l-.5.5h-.8a3.4,3.4,0,0,0,.035-.353A3.381,3.381,0,0,0,12.667,12H13V6H11V4H7V6.49a4.178,4.178,0,0,0-.777-.078c-.076,0-.148.02-.223.024V3.5L6.5,3h4.9l.344.138,2.1,2Z" />
    <path class="light-lightblue-10" d="M11.235,12.647A1.843,1.843,0,0,1,9.407,14.5H3.036a2.574,2.574,0,0,1,0-5.147,2.431,2.431,0,0,1,.656.09A2.876,2.876,0,0,1,9.11,10.794h.3A1.843,1.843,0,0,1,11.235,12.647Z" />
    <path class="light-lightblue" d="M9.408,15H3.037a3.074,3.074,0,0,1,0-6.147,3.011,3.011,0,0,1,.414.029,3.371,3.371,0,0,1,2.772-1.47A3.422,3.422,0,0,1,9.569,10.3,2.354,2.354,0,0,1,9.408,15ZM3.037,9.853a2.074,2.074,0,0,0,0,4.147H9.408a1.353,1.353,0,0,0,0-2.706H8.62L8.611,10.8A2.42,2.42,0,0,0,6.223,8.412a2.381,2.381,0,0,0-2.09,1.269l-.19.352-.385-.108A1.9,1.9,0,0,0,3.037,9.853Z" />
  </g>
</svg>
