<svg xmlns="http://www.w3.org/2000/svg" viewBox="0 0 16 16">
  <defs>
    <style>.canvas{fill: none; opacity: 0;}.light-lightblue-10{fill: #0077a0; opacity: 0.1;}.light-defaultgrey-10{fill: #212121; opacity: 0.1;}.light-defaultgrey{fill: #212121; opacity: 1;}.light-lightblue{fill: #0077a0; opacity: 1;}</style>
  </defs>
  <title>CloudPackage</title>
  <g id="canvas">
    <path class="canvas" d="M16,0V16H0V0Z" />
    <path class="canvas" d="M16,16H0V0H16Z" />
  </g>
  <g id="level-1">
    <path class="light-lightblue-10" d="M9.5,14A1.5,1.5,0,0,1,8,15.5H2.5a2,2,0,0,1,0-4,2.008,2.008,0,0,1,.567.091,2.382,2.382,0,0,1,4.471.989A1.479,1.479,0,0,1,8,12.5,1.5,1.5,0,0,1,9.5,14Z" />
    <path class="light-defaultgrey-10" d="M13.5,5.5v9H10.949A2.942,2.942,0,0,0,11,14a3.005,3.005,0,0,0-2.324-2.912A3.859,3.859,0,0,0,2.5,9.918V5.5Z" />
    <path class="light-defaultgrey" d="M13.5,5H11.9a1.816,1.816,0,0,0,.432-.878,1.913,1.913,0,0,0-1.563-2.2C9.588,1.722,9,2.575,8.612,3.342c-.076.151-.295.641-.526,1.16L8,4.685l-.1-.217Q7.657,3.9,7.4,3.342c-.386-.767-.971-1.62-2.157-1.423a1.91,1.91,0,0,0-1.564,2.2A1.816,1.816,0,0,0,4.106,5H2.5L2,5.5v4.543A3.592,3.592,0,0,1,2.4,10,3.928,3.928,0,0,1,3,9.506V6H7.5V9.646a3.875,3.875,0,0,1,1,1.127V6H13v8H11a2.966,2.966,0,0,1-.184,1H13.5l.5-.5v-9ZM5.819,5a7.287,7.287,0,0,1-.643-.366,1.07,1.07,0,0,1-.515-.679A.908.908,0,0,1,5.4,2.906h0c.33-.057.638-.026,1.095.886.072.143.274.6.492,1.085L7.048,5Zm5.011-.365A7.276,7.276,0,0,1,10.187,5H8.958L9,4.91c.223-.5.433-.973.507-1.119.458-.913.764-.942,1.1-.885a.91.91,0,0,1,.744,1.049A1.071,1.071,0,0,1,10.83,4.635Z" />
    <path class="light-lightblue" d="M8,16H2.5A2.5,2.5,0,0,1,0,13.5a2.463,2.463,0,0,1,2.836-2.474A2.878,2.878,0,0,1,7.947,12,2.025,2.025,0,0,1,10,14,2,2,0,0,1,8,16ZM2.5,12a1.5,1.5,0,0,0,0,3H8a1,1,0,0,0,0-2H7.082l-.043-.386A1.882,1.882,0,0,0,3.5,11.833l-.194.352-.386-.114A1.448,1.448,0,0,0,2.5,12Z" />
  </g>
</svg>
