<svg xmlns="http://www.w3.org/2000/svg" viewBox="0 0 16 16">
  <defs>
    <style>.canvas{fill: none; opacity: 0;}.light-defaultgrey-10{fill: #212121; opacity: 0.1;}.light-defaultgrey{fill: #212121; opacity: 1;}.light-green{fill: #1f801f; opacity: 1;}.cls-1{opacity:0.75;}</style>
  </defs>
  <title>IconLightCloudBusinessApplication</title>
  <g id="canvas">
    <path class="canvas" d="M16,16H0V0H16Z" />
  </g>
  <g id="level-1">
    <g class="cls-1">
      <path class="light-defaultgrey-10" d="M15.5,1.5v7H13v-5L12.5,3h-4V1.5Z" />
      <path class="light-defaultgrey" d="M16,1.5v7l-.5.5H13V8h2V3.414l-2,2V4l2-2H9V3H8V1.5L8.5,1h7Z" />
    </g>
    <path class="light-defaultgrey-10" d="M12.5,13.5H.5V3.5h12Z" />
    <path class="light-defaultgrey" d="M12.5,14H.5L0,13.5V3.5L.5,3h12l.5.5v10ZM1,13H12V4H1Z" />
    <path class="light-green" d="M12,9.707l-2.5-2.5L5.854,10.853H5.146L3.5,9.207,1,11.707V10.292L3.146,8.146h.708L5.5,9.792,9.146,6.146h.708L12,8.292Z" />
  </g>
</svg>
