<svg xmlns="http://www.w3.org/2000/svg" viewBox="0 0 16 16">
  <defs>
    <style>.canvas{fill: none; opacity: 0;}.light-defaultgrey{fill: #212121; opacity: 1;}.light-defaultgrey-10{fill: #212121; opacity: 0.1;}.cls-1{opacity:0.75;}</style>
  </defs>
  <title>IconLightClusteredIndex</title>
  <g id="canvas">
    <path class="canvas" d="M16,16H0V0H16Z" />
  </g>
  <g id="level-1">
    <g class="cls-1">
      <path class="light-defaultgrey" d="M11,7.5V10H10V8H5v2H4V7.5L4.5,7H7V4H8V7h2.5Z" />
    </g>
    <path class="light-defaultgrey" d="M2.27,14.875H1.262A4.9,4.9,0,0,1,0,11.457,5.209,5.209,0,0,1,1.262,8h1a5.615,5.615,0,0,0-1.184,3.457A5.426,5.426,0,0,0,2.27,14.875Zm11.652-3.418A5.615,5.615,0,0,0,12.738,8h1A5.209,5.209,0,0,1,15,11.457a4.9,4.9,0,0,1-1.262,3.418H12.73A5.426,5.426,0,0,0,13.922,11.457Z" />
    <path class="light-defaultgrey-10" d="M11.5,12.5h-2v-2h2Zm-6,0h-2v-2h2Zm5-9h-6v-2h6Z" />
    <path class="light-defaultgrey" d="M11.5,10h-2l-.5.5v2l.5.5h2l.5-.5v-2ZM11,12H10V11h1Z" />
    <path class="light-defaultgrey" d="M5.5,10h-2l-.5.5v2l.5.5h2l.5-.5v-2ZM5,12H4V11H5Z" />
    <path class="light-defaultgrey" d="M10.5,1h-6L4,1.5v2l.5.5h6l.5-.5v-2ZM10,3H5V2h5Z" />
  </g>
</svg>
