<svg xmlns="http://www.w3.org/2000/svg" viewBox="0 0 16 16">
  <defs>
    <style>.canvas{fill: none; opacity: 0;}.light-defaultgrey{fill: #212121; opacity: 1;}.light-blue{fill: #005dba; opacity: 1;}</style>
  </defs>
  <title>IconLightCodeActivity</title>
  <g id="canvas">
    <path class="canvas" d="M16,16H0V0H16Z" />
  </g>
  <g id="level-1">
    <path class="light-defaultgrey" d="M8,4H3V3H8Zm0,6h5V9H8Zm2-4H5V7h5ZM9,3V4h6V3Zm2,4h4V6H11ZM8,13h2V12H8Z" />
    <path class="light-blue" d="M.051,12h1A2.5,2.5,0,0,1,3,10.055V9.046A3.494,3.494,0,0,0,.051,12ZM5.5,11H4v1H6.5l.5-.5V9H6v1.06A3.5,3.5,0,0,0,4,9.052V10.06A2.5,2.5,0,0,1,5.5,11Zm1.45,2h-1A2.5,2.5,0,0,1,4,14.945v1.009A3.494,3.494,0,0,0,6.949,13ZM1.5,14H3V13H.5l-.5.5V16H1V14.94a3.5,3.5,0,0,0,2,1.008V14.94A2.5,2.5,0,0,1,1.5,14Z" />
  </g>
</svg>
