<svg xmlns="http://www.w3.org/2000/svg" viewBox="0 0 16 16">
  <defs>
    <style>.canvas{fill: none; opacity: 0;}.light-defaultgrey-10{fill: #212121; opacity: 0.1;}.light-defaultgrey{fill: #212121; opacity: 1;}.light-teal-10{fill: #006758; opacity: 0.1;}.light-teal{fill: #006758; opacity: 1;}</style>
  </defs>
  <title>IconLightCodeTest</title>
  <g id="canvas">
    <path class="canvas" d="M16,16H0V0H16Z" />
  </g>
  <g id="level-1">
    <path class="light-defaultgrey-10" d="M2.562,13,3.5,11.5v-3h2v3L6.437,13Z" />
    <path class="light-defaultgrey" d="M3,9H2V8H7V9H6v2.356l1.174,1.879L6.75,13h-.9l-.772-1.235L5,11.5V9H4v2.5l-.076.265L3.152,13h-.9l-.424.235L3,11.356Z" />
    <path class="light-teal-10" d="M7.522,14.735A.5.5,0,0,1,7.1,15.5H1.9a.5.5,0,0,1-.424-.765L2.25,13.5h4.5Z" />
    <path class="light-teal" d="M7.1,16H1.9a1,1,0,0,1-.848-1.53l.772-1.235L2.25,13h4.5l.424.235.772,1.235A1,1,0,0,1,7.1,16ZM2.527,14,1.9,15H7.1l-.625-1Z" />
    <path class="light-defaultgrey" d="M8,9h4v1H8ZM9,6h3V5H9Zm1-3H7V4h3Zm1,0V4h4V3Zm2,3h2V5H13ZM9,8h5V7H9Z" />
  </g>
</svg>
