<svg xmlns="http://www.w3.org/2000/svg" viewBox="0 0 16 16">
  <defs>
    <style>.canvas{fill: none; opacity: 0;}.light-defaultgrey-10{fill: #212121; opacity: 0.1;}.light-defaultgrey{fill: #212121; opacity: 1;}.light-yellow{fill: #996f00; opacity: 1;}.white{fill: #ffffff; opacity: 1;}</style>
  </defs>
  <title>IconLightCodeWarningRule</title>
  <g id="canvas">
    <path class="canvas" d="M16,16H0V0H16Z" />
  </g>
  <g id="level-1">
    <path class="light-defaultgrey-10" d="M6.5,6.721V12.5l-2-2-2,2V6.721a3,3,0,1,1,4,0Z" />
    <path class="light-defaultgrey" d="M8,4.5A3.5,3.5,0,1,0,2,6.942H2V12.5l.854.354L4.5,11.207l1.646,1.647L7,12.5V6.942H7A3.485,3.485,0,0,0,8,4.5ZM6,7.649v3.644L4.854,10.146H4.146L3,11.293V7.649H3a3.381,3.381,0,0,0,3,0ZM4.5,7A2.5,2.5,0,1,1,7,4.5,2.5,2.5,0,0,1,4.5,7Z" />
    <path class="light-yellow" d="M15.5,16h-8l-.439-.739,4-7.261h.878l4,7.261Z" />
    <path class="white" d="M12,13H11V10h1Zm.25,1.5a.75.75,0,1,1-.75-.75A.75.75,0,0,1,12.25,14.5Z" />
  </g>
</svg>
