<svg xmlns="http://www.w3.org/2000/svg" viewBox="0 0 16 16">
  <defs>
    <style>.canvas{fill: none; opacity: 0;}.light-defaultgrey-10{fill: #212121; opacity: 0.1;}.light-defaultgrey{fill: #212121; opacity: 1;}</style>
  </defs>
  <title>IconLightCodeHiddenRule</title>
  <g id="canvas">
    <path class="canvas" d="M16,16H0V0H16Z" />
  </g>
  <g id="level-1">
    <path class="light-defaultgrey-10" d="M15.5,12a4,4,0,1,1-4-4A4,4,0,0,1,15.5,12Z" />
    <path class="light-defaultgrey" d="M11,12.019h1v2H11Zm0-1h1v-1H11Zm-.057,4.962a3.975,3.975,0,0,1-1.092-.316l.412-.912a2.972,2.972,0,0,0,.819.238Zm1.136,0-.145-.99a3.006,3.006,0,0,0,.817-.242l.418.909A4.04,4.04,0,0,1,12.078,15.978Zm-3.186-.925a4,4,0,0,1-.747-.855l.838-.545a3.038,3.038,0,0,0,.561.642Zm5.231-.016-.657-.754a3.017,3.017,0,0,0,.558-.646l.842.541A4.036,4.036,0,0,1,14.123,15.037ZM7.667,13.165A4.023,4.023,0,0,1,7.5,12.042l1-.006a3.041,3.041,0,0,0,.125.844Zm7.67-.02-.959-.283a2.978,2.978,0,0,0,.121-.843l1-.04,0,.077A3.847,3.847,0,0,1,15.337,13.145ZM8.614,11.191l-.961-.275a3.987,3.987,0,0,1,.465-1.037l.845.535A2.978,2.978,0,0,0,8.614,11.191Zm5.753-.05a2.938,2.938,0,0,0-.362-.769l.834-.551a3.976,3.976,0,0,1,.485,1.03ZM9.517,9.766l-.66-.751a4,4,0,0,1,.95-.622l.424.906A3.011,3.011,0,0,0,9.517,9.766Zm3.924-.034a3.023,3.023,0,0,0-.721-.454l.406-.913a3.969,3.969,0,0,1,.963.606Zm-2.4-.679-.148-.99a4.893,4.893,0,0,1,.6-.044,3.907,3.907,0,0,1,.532.036l-.133.991a3.014,3.014,0,0,0-.854.007Z" />
    <path class="light-defaultgrey-10" d="M6.521,6.721V12.5l-2-2-2,2V6.721a3,3,0,1,1,4,0Z" />
    <path class="light-defaultgrey" d="M8,4.5A3.5,3.5,0,1,0,2,6.942H2V12.5l.854.354L4.5,11.207l1.646,1.647L7,12.5V6.942H7A3.485,3.485,0,0,0,8,4.5ZM6,7.649v3.644L4.854,10.146H4.146L3,11.293V7.649H3a3.381,3.381,0,0,0,3,0ZM4.5,7A2.5,2.5,0,1,1,7,4.5,2.5,2.5,0,0,1,4.5,7Z" />
  </g>
</svg>
