<svg xmlns="http://www.w3.org/2000/svg" viewBox="0 0 16 16">
  <defs>
    <style>.canvas{fill: none; opacity: 0;}.light-orange{fill: #b73d18; opacity: 1;}.light-yellow{fill: #996f00; opacity: 1;}.light-green{fill: #1f801f; opacity: 1;}.light-teal{fill: #006758; opacity: 1;}.light-blue{fill: #005dba; opacity: 1;}.light-darkblue{fill: #313c9e; opacity: 1;}.light-purple{fill: #6936aa; opacity: 1;}.light-red{fill: #c50b17; opacity: 1;}.light-defaultgrey{fill: #212121; opacity: 1;}.cls-1{opacity:0.75;}</style>
  </defs>
  <title>IconLightColorWheel</title>
  <g id="Canvas">
    <path class="canvas" d="M16,16H0V0H16Z" />
  </g>
  <g id="level-1">
    <g class="cls-1">
      <path class="light-orange" d="M7.5,4.269V1.5a5.984,5.984,0,0,1,4.243,1.757L9.784,5.216A3.218,3.218,0,0,0,7.5,4.269Z" />
      <path class="light-yellow" d="M5.216,5.216,3.257,3.257A5.985,5.985,0,0,1,7.5,1.5V4.269A3.218,3.218,0,0,0,5.216,5.216Z" />
      <path class="light-green" d="M4.269,7.5H1.5A5.984,5.984,0,0,1,3.257,3.257L5.216,5.216A3.218,3.218,0,0,0,4.269,7.5Z" />
      <path class="light-teal" d="M5.216,9.784,3.257,11.743A5.985,5.985,0,0,1,1.5,7.5H4.269A3.218,3.218,0,0,0,5.216,9.784Z" />
      <path class="light-blue" d="M7.5,10.731V13.5a5.984,5.984,0,0,1-4.243-1.757L5.216,9.784A3.218,3.218,0,0,0,7.5,10.731Z" />
      <path class="light-darkblue" d="M9.784,9.784l1.959,1.959A5.985,5.985,0,0,1,7.5,13.5V10.731A3.218,3.218,0,0,0,9.784,9.784Z" />
      <path class="light-purple" d="M10.731,7.5H13.5a5.984,5.984,0,0,1-1.757,4.243L9.784,9.784A3.218,3.218,0,0,0,10.731,7.5Z" />
      <path class="light-red" d="M9.784,5.216l1.959-1.959A5.985,5.985,0,0,1,13.5,7.5H10.731A3.218,3.218,0,0,0,9.784,5.216Z" />
    </g>
    <path class="light-defaultgrey" d="M7.5,1A6.5,6.5,0,1,0,14,7.5,6.508,6.508,0,0,0,7.5,1Zm0,9A2.5,2.5,0,1,1,10,7.5,2.5,2.5,0,0,1,7.5,10ZM9.586,4.707A3.449,3.449,0,0,0,8,4.051V2.025a5.482,5.482,0,0,1,3.017,1.251ZM7,4.051a3.449,3.449,0,0,0-1.586.656L3.983,3.276A5.482,5.482,0,0,1,7,2.025ZM4.707,5.414A3.449,3.449,0,0,0,4.051,7H2.025A5.482,5.482,0,0,1,3.276,3.983ZM4.051,8a3.449,3.449,0,0,0,.656,1.586L3.276,11.017A5.482,5.482,0,0,1,2.025,8Zm1.363,2.293A3.449,3.449,0,0,0,7,10.949v2.026a5.482,5.482,0,0,1-3.017-1.251ZM8,10.949a3.449,3.449,0,0,0,1.586-.656l1.431,1.431A5.482,5.482,0,0,1,8,12.975Zm2.293-1.363A3.449,3.449,0,0,0,10.949,8h2.026a5.482,5.482,0,0,1-1.251,3.017ZM10.949,7a3.449,3.449,0,0,0-.656-1.586l1.431-1.431A5.482,5.482,0,0,1,12.975,7Z" />
  </g>
</svg>
