<svg xmlns="http://www.w3.org/2000/svg" viewBox="0 0 16 16">
  <defs>
    <style>.canvas{fill: none; opacity: 0;}.light-defaultgrey-10{fill: #212121; opacity: 0.1;}.light-defaultgrey{fill: #212121; opacity: 1;}.cls-1{opacity:0.75;}</style>
  </defs>
  <title>IconLightColumnPredictChecked</title>
  <g id="canvas">
    <path class="canvas" d="M16,16H0V0H16Z" />
  </g>
  <g id="level-1">
    <path class="light-defaultgrey-10" d="M.5,8.5h7v7H.5Z" />
    <path class="light-defaultgrey" d="M2.763,13.944,1.348,12.53l.707-.707,1.061,1.061,2.829-2.828.707.707L3.47,13.944ZM7.5,8H.5L0,8.5v7l.5.5h7l.5-.5v-7ZM7,15H1V9H7Z" />
    <g class="cls-1">
      <path class="light-defaultgrey-10" d="M10.5,5.621V14.5H9V8.086L7.914,7H5.5V2.5H7.379Z" />
      <path class="light-defaultgrey" d="M11,5.854V14.5l-.5.5H9V14h1V11H9V10h1V7H5V1.5L5.5,1H7.146V2.268L7.879,3H6V6h4V5.121l.732.733Z" />
    </g>
    <path class="light-defaultgrey" d="M11.854,4.854h-.708l-3-3V1.146l1-1L9.5,0h4l.354.146,1,1v.708ZM9.207,1.5,11.5,3.793,13.793,1.5l-.5-.5H9.707Z" />
    <path class="light-defaultgrey-10" d="M8.5,1.427l1-1h4l1,1-3,3Z" />
  </g>
</svg>
