<svg xmlns="http://www.w3.org/2000/svg" viewBox="0 0 16 16">
  <defs>
    <style>.canvas{fill: none; opacity: 0;}.light-defaultgrey{fill: #212121; opacity: 1;}.light-defaultgrey-10{fill: #212121; opacity: 0.1;}</style>
  </defs>
  <title>ColumnSettings</title>
  <g id="canvas">
    <path class="canvas" d="M16,16H0V0H16Z" />
  </g>
  <g id="level-1">
    <path class="light-defaultgrey" d="M7,13V12H5.949a2.473,2.473,0,0,0-.365-.876l.745-.745-.707-.707-.745.745A2.469,2.469,0,0,0,4,10.051V9H3v1.051a2.469,2.469,0,0,0-.877.366l-.745-.745-.707.707.745.745A2.473,2.473,0,0,0,1.051,12H0v1H1.051a2.473,2.473,0,0,0,.365.876l-.745.745.707.707.745-.745A2.469,2.469,0,0,0,3,14.949V16H4V14.949a2.469,2.469,0,0,0,.877-.366l.745.745.707-.707-.745-.745A2.473,2.473,0,0,0,5.949,13ZM3.5,14A1.5,1.5,0,1,1,5,12.5,1.5,1.5,0,0,1,3.5,14Z" />
    <path class="light-defaultgrey-10" d="M10.5,2.5v12H7.512A4.434,4.434,0,0,0,5.5,8.488V2.5Z" />
    <path class="light-defaultgrey" d="M10.5,1h-5L5,1.5V8.276A4.466,4.466,0,0,1,6,8.76V7h4v3H7.24a4.466,4.466,0,0,1,.484,1H10v3H7.724a4.466,4.466,0,0,1-.484,1H10.5l.5-.5V1.5ZM10,6H6V3h4Z" />
  </g>
</svg>
