<svg xmlns="http://www.w3.org/2000/svg" viewBox="0 0 16 16">
  <defs>
    <style>.canvas{fill: none; opacity: 0;}.light-defaultgrey-10{fill: #212121; opacity: 0.1;}.light-defaultgrey{fill: #212121; opacity: 1;}.light-blue{fill: #005dba; opacity: 1;}</style>
  </defs>
  <title>IconLightColumnLabels</title>
  <g id="canvas">
    <path class="canvas" d="M16,16H0V0H16Z" />
  </g>
  <g id="level-1">
    <path class="light-defaultgrey-10" d="M6.5,14.5h-4v-9h4Z" />
    <path class="light-defaultgrey-10" d="M13.5,14.5h-4v-9h4Z" />
    <path class="light-defaultgrey" d="M2,5v9.5l.5.5h4l.5-.5V5H2Zm1,7H6v2H3ZM3,9H6v2H3ZM3,6H6V8H3Z" />
    <path class="light-defaultgrey" d="M9,5v9.5l.5.5h4l.5-.5V5H9Zm1,7h3v2H10Zm0-3h3v2H10Zm0-3h3V8H10Z" />
    <path class="light-blue" d="M7,4H2V2H7Z" />
    <path class="light-blue" d="M14,4H9V2h5Z" />
  </g>
</svg>
