<svg xmlns="http://www.w3.org/2000/svg" viewBox="0 0 16 16">
  <defs>
    <style>.canvas{fill: none; opacity: 0;}.light-defaultgrey-10{fill: #212121; opacity: 0.1;}.light-defaultgrey{fill: #212121; opacity: 1;}</style>
  </defs>
  <title>IconLightColumnPredict</title>
  <g id="canvas">
    <path class="canvas" d="M16,16H0V0H16Z" />
  </g>
  <g id="level-1">
    <path class="light-defaultgrey-10" d="M10.5,5.621V14.5h-5V2.5H7.379Z" />
    <path class="light-defaultgrey" d="M10.732,5.854,10,5.121V6H6V3H7.879l-.733-.732V1H5.5L5,1.5v13l.5.5h5l.5-.5V5.854ZM10,14H6V11h4Zm0-4H6V7h4Z" />
    <path class="light-defaultgrey-10" d="M8.5,1.427l1-1h4l1,1-3,3Z" />
    <path class="light-defaultgrey" d="M11.854,4.854h-.708l-3-3V1.146l1-1L9.5,0h4l.354.146,1,1v.708ZM9.207,1.5,11.5,3.793,13.793,1.5l-.5-.5H9.707Z" />
  </g>
</svg>
