<svg xmlns="http://www.w3.org/2000/svg" viewBox="0 0 16 16">
  <defs>
    <style>.canvas{fill: none; opacity: 0;}.light-defaultgrey-10{fill: #212121; opacity: 0.1;}.light-defaultgrey{fill: #212121; opacity: 1;}</style>
  </defs>
  <title>IconLightColumnButton</title>
  <g id="canvas">
    <path class="canvas" d="M16,16H0V0H16Z" />
  </g>
  <g id="level-1">
    <path class="light-defaultgrey-10" d="M7.51,15.5H1.49a.992.992,0,0,1-.99-.99V11.49a.992.992,0,0,1,.99-.99H7.51a.992.992,0,0,1,.99.99v3.02A.992.992,0,0,1,7.51,15.5Z" />
    <path class="light-defaultgrey" d="M7.51,16H1.49A1.491,1.491,0,0,1,0,14.511V11.489A1.491,1.491,0,0,1,1.49,10H7.51A1.491,1.491,0,0,1,9,11.489v3.022A1.491,1.491,0,0,1,7.51,16ZM1.49,11a.491.491,0,0,0-.49.489v3.022A.491.491,0,0,0,1.49,15H7.51A.491.491,0,0,0,8,14.511V11.489A.491.491,0,0,0,7.51,11Z" />
    <path class="light-defaultgrey-10" d="M12.5,2.5v12H10V11.489A2.492,2.492,0,0,0,7.51,9H7.5V2.5Z" />
    <path class="light-defaultgrey" d="M12.5,1h-5L7,1.5V9h.51A2.552,2.552,0,0,1,8,9.049V7h4v3H9.493a2.473,2.473,0,0,1,.458,1H12v3H10v.511A2.542,2.542,0,0,1,9.951,15H12.5l.5-.5V1.5ZM12,6H8V3h4Z" />
  </g>
</svg>
