<svg xmlns="http://www.w3.org/2000/svg" viewBox="0 0 16 16">
  <defs>
    <style>.canvas{fill: none; opacity: 0;}.light-defaultgrey-10{fill: #212121; opacity: 0.1;}.light-defaultgrey{fill: #212121; opacity: 1;}</style>
  </defs>
  <title>IconLightColumnKeyUnchecked</title>
  <g id="canvas">
    <path class="canvas" d="M16,16H0V0H16Z" />
  </g>
  <g id="level-1">
    <path class="light-defaultgrey-10" d="M7,15.5a2.492,2.492,0,0,1-2.393-1.816L3.475,14l-.5-.5-1,.5-1.5-1.5,1-1H5.011A2.5,2.5,0,1,1,7,15.5ZM15,2v8H13V4.086l-1-1V2ZM11.5,4.5v6H10.1A3.978,3.978,0,0,0,7,9a3.925,3.925,0,0,0-1.5.321V4.5Z" />
    <path class="light-defaultgrey" d="M10,13a2.992,2.992,0,0,1-5.7,1.288l-.693.193-.488-.127-.245-.246-.678.339-.577-.093-1.5-1.5v-.708l1-1L1.476,11h3.3A2.962,2.962,0,0,1,7,10,3,3,0,0,1,10,13Zm-8.817-.5.891.892.678-.339.577.093.293.294.85-.237.615.343A2,2,0,1,0,7,11a1.979,1.979,0,0,0-1.589.8l-.4.2H1.683Z" />
    <path class="light-defaultgrey" d="M8,13a.5.5,0,1,1-.5-.5A.5.5,0,0,1,8,13Zm2,0a2.992,2.992,0,0,1-5.7,1.288l-.693.193-.488-.127-.245-.246-.678.339-.577-.093-1.5-1.5v-.708l1-1L1.476,11h3.3A2.962,2.962,0,0,1,7,10,3,3,0,0,1,10,13Zm-8.817-.5.891.892.678-.339.577.093.293.294.85-.237.615.343A2,2,0,1,0,7,11a1.979,1.979,0,0,0-1.589.8l-.4.2H1.683ZM16,.5v10l-.5.5H13V10h2V8H13V7h2V5H13V4.086L12.914,4H15V2H12V3.086L11.914,3H11V.5l.5-.5h4Zm-4,4v6l-.5.5H10.444a4,4,0,0,0-.826-1H11V5H6V9.14a3.979,3.979,0,0,0-1,.431V4.5L5.5,4h6Z" />
  </g>
</svg>
