<svg xmlns="http://www.w3.org/2000/svg" viewBox="0 0 16 16">
  <defs>
    <style>.canvas{fill: none; opacity: 0;}.light-blue-10{fill: #005dba; opacity: 0.1;}.light-blue{fill: #005dba; opacity: 1;}.light-defaultgrey-10{fill: #212121; opacity: 0.1;}.light-defaultgrey{fill: #212121; opacity: 1;}</style>
  </defs>
  <title>IconLightColumnDetails</title>
  <g id="canvas">
    <path class="canvas" d="M16,16H0V0H16Z" />
  </g>
  <g id="level-1">
    <path class="light-blue-10" d="M7.5,10.5a2,2,0,1,1-2-2A2,2,0,0,1,7.5,10.5Z" />
    <path class="light-blue" d="M5.5,8A2.5,2.5,0,0,0,3,10.5a2.473,2.473,0,0,0,.417,1.376L.146,15.146l.708.708,3.27-3.271A2.473,2.473,0,0,0,5.5,13a2.5,2.5,0,0,0,0-5Zm0,4A1.5,1.5,0,1,1,7,10.5,1.5,1.5,0,0,1,5.5,12Z" />
    <path class="light-defaultgrey-10" d="M10.5,2.5v12h-5V14a3.5,3.5,0,0,0,0-7V2.5Z" />
    <path class="light-defaultgrey" d="M10.5,1h-5L5,1.5V7.05A3.588,3.588,0,0,1,5.5,7a3.588,3.588,0,0,1,.5.05V7h4v3H8.95a3.588,3.588,0,0,1,.05.5,3.588,3.588,0,0,1-.05.5H10v3H6v-.05a3.588,3.588,0,0,1-.5.05,3.588,3.588,0,0,1-.5-.05v.55l.5.5h5l.5-.5V1.5ZM10,6H6V3h4Z" />
  </g>
</svg>
