<svg xmlns="http://www.w3.org/2000/svg" viewBox="0 0 16 16">
  <defs>
    <style>.canvas{fill: none; opacity: 0;}.light-defaultgrey-10{fill: #212121; opacity: 0.1;}.light-blue{fill: #005dba; opacity: 1;}.light-defaultgrey{fill: #212121; opacity: 1;}.white{fill: #ffffff; opacity: 1;}.cls-1{opacity:0.75;}</style>
  </defs>
  <title>IconLightComboBoxItem</title>
  <g id="canvas" class="canvas">
    <path class="canvas" d="M16,16H0V0H16Z" />
  </g>
  <g id="level-1">
    <path class="light-defaultgrey-10" d="M14.5,5.5H1.5v-4h13Z" />
    <path class="light-blue" d="M5,9v3h9V9Zm7,2H6V10h6Z" />
    <path class="light-defaultgrey" d="M14.5,1H1.5L1,1.5v4l.5.5h13l.5-.5v-4ZM10,5H2V2h8Zm4,0H11V2h3Zm-1.5-.875L11.75,3h1.5Z" />
    <g class="cls-1">
      <path class="light-defaultgrey-10" d="M4.5,6h10v7.5H4.5Z" />
      <path class="light-defaultgrey" d="M9,8H6V7H9Z" />
      <path class="light-defaultgrey" d="M14.5,6H14v7H5V6H4v7.5l.5.5h10l.5-.5v-8Z" />
    </g>
    <path class="white" d="M12,11H6V10h6Z" />
  </g>
</svg>
