<svg xmlns="http://www.w3.org/2000/svg" viewBox="0 0 16 16">
  <defs>
    <style>.canvas{fill: none; opacity: 0;}.light-defaultgrey-10{fill: #212121; opacity: 0.1;}.light-defaultgrey{fill: #212121; opacity: 1;}.cls-1{opacity:0.75;}</style>
  </defs>
  <title>IconLightCOMContractFile</title>
  <g id="canvas">
    <path class="canvas" d="M16,16H0V0H16Z" />
  </g>
  <g id="level-1">
    <path class="light-defaultgrey-10" d="M5.5,12.5h2v2h-2Zm-5,2h2v-2H.5Z" />
    <path class="light-defaultgrey" d="M7.5,12h-2l-.5.5V13H3v-.5L2.5,12H.5l-.5.5v2l.5.5h2l.5-.5V14H5v.5l.5.5h2l.5-.5v-2ZM2,14H1V13H2Zm5,0H6V13H7Z" />
    <g class="cls-1">
      <path class="light-defaultgrey-10" d="M13.5,4.5v9H9V12.086L7.914,11H3.5V1.5h7Z" />
      <path class="light-defaultgrey" d="M14,4.5v9l-.5.5H9V13h4V5H10V2H4v9H3V1.5L3.5,1h7l.354.146,3,3Z" />
    </g>
  </g>
</svg>
