<svg xmlns="http://www.w3.org/2000/svg" viewBox="0 0 16 16">
  <defs>
    <style>.canvas{fill: none; opacity: 0;}.light-defaultgrey-10{fill: #212121; opacity: 0.1;}.light-defaultgrey{fill: #212121; opacity: 1;}.light-red{fill: #c50b17; opacity: 1;}.white{fill: #ffffff; opacity: 1;}</style>
  </defs>
  <title>IconLightCOMError</title>
  <g id="canvas">
    <path class="canvas" d="M16,16H0V0H16Z" />
  </g>
  <g id="level-1">
    <path class="light-defaultgrey-10" d="M7.255,13.5H1.5v-6h6v-6h6V7.255A4.942,4.942,0,0,0,12,7a5.006,5.006,0,0,0-5,5A4.942,4.942,0,0,0,7.255,13.5Z" />
    <path class="light-defaultgrey" d="M7.424,14H1.5L1,13.5v-6L1.5,7H7V1.5L7.5,1h6l.5.5V7.424A4.95,4.95,0,0,0,12,7h1V2H8V7h4A4.952,4.952,0,0,0,9.031,8H8V9.031A4.952,4.952,0,0,0,7,12V8H2v5H7V12A4.95,4.95,0,0,0,7.424,14Z" />
    <path class="light-red" d="M12,8a4,4,0,1,0,4,4A4,4,0,0,0,12,8Z" />
    <path class="white" d="M12.707,12l1.147,1.146-.708.708L12,12.707l-1.146,1.147-.708-.708L11.293,12l-1.147-1.146.708-.708L12,11.293l1.146-1.147.708.708Z" />
  </g>
</svg>
