<svg xmlns="http://www.w3.org/2000/svg" viewBox="0 0 16 16">
  <defs>
    <style>.canvas{fill: none; opacity: 0;}.light-defaultgrey-10{fill: #212121; opacity: 0.1;}.light-defaultgrey{fill: #212121; opacity: 1;}</style>
  </defs>
  <title>IconLightComma</title>
  <g id="canvas">
    <path class="canvas" d="M16,16H0V0H16Z" />
  </g>
  <g id="level-1">
    <path class="light-defaultgrey-10" d="M10.5,3.5v4a6.387,6.387,0,0,1-6,6v-2a3,3,0,0,0,3-3h-3v-5Z" />
    <path class="light-defaultgrey" d="M4.5,14,4,13.5v-2l.5-.5A2.5,2.5,0,0,0,6.95,9H4.5L4,8.5v-5L4.5,3h6l.5.5v4A6.852,6.852,0,0,1,4.5,14ZM5,11.964v1.009A5.941,5.941,0,0,0,10,7.5V4H5V8H7.5l.5.5A3.5,3.5,0,0,1,5,11.964Z" />
  </g>
</svg>
