<svg xmlns="http://www.w3.org/2000/svg" viewBox="0 0 16 16">
  <defs>
    <style>.canvas{fill: none; opacity: 0;}.light-defaultgrey{fill: #212121; opacity: 1;}.light-defaultgrey-10{fill: #212121; opacity: 0.1;}</style>
  </defs>
  <title>IconLightCommentLink</title>
  <g id="canvas">
    <path class="canvas" d="M16,16H0V0H16Z" />
  </g>
  <g id="level-1">
    <path class="light-defaultgrey" d="M5.354,10.354l-.708-.708,2-2,.708.708Zm-3.5,3.5-.708-.708,2-2,.708.708Z" />
    <path class="light-defaultgrey-10" d="M13.5,4.5a3,3,0,1,1-3-3A3,3,0,0,1,13.5,4.5Z" />
    <path class="light-defaultgrey" d="M10.5,8A3.5,3.5,0,1,1,14,4.5,3.5,3.5,0,0,1,10.5,8Zm0-6A2.5,2.5,0,1,0,13,4.5,2.5,2.5,0,0,0,10.5,2Z" />
  </g>
</svg>
