<svg xmlns="http://www.w3.org/2000/svg" viewBox="0 0 16 16">
  <defs>
    <style>.canvas{fill: none; opacity: 0;}.light-defaultgrey-10{fill: #212121; opacity: 0.1;}.light-defaultgrey{fill: #212121; opacity: 1;}.cls-1{opacity:0.75;}</style>
  </defs>
  <title>IconLightCommandUIOption</title>
  <g id="canvas" class="canvas">
    <path class="canvas" d="M16,16H0V0H16Z" />
  </g>
  <g id="level-1">
    <path class="light-defaultgrey-10" d="M14.5,8.5v5H1.5v-5h2v-2h4v2Z" />
    <path class="light-defaultgrey" d="M4.5,10l.5.5v1l-.5.5h-1L3,11.5v-1l.5-.5Zm3,0-.5.5v1l.5.5h1l.5-.5v-1L8.5,10Zm5,0h-1l-.5.5v1l.5.5h1l.5-.5v-1Z" />
    <path class="light-defaultgrey" d="M14.5,8H8V6.5L7.5,6h-4L3,6.5V8H1.5L1,8.5v5l.5.5h13l.5-.5v-5ZM14,13H2V9H3.5L4,8.5V7H7V8.5l.5.5H14Z" />
    <g class="cls-1">
      <path class="light-defaultgrey-10" d="M6.5,5V3.5h2v-2h4v2h2V7H9V6.086L7.914,5Z" />
      <path class="light-defaultgrey" d="M10,6H9V5h1V4h1V5h1V6H11V7H10Z" />
      <path class="light-defaultgrey" d="M6,5V3.5L6.5,3H8V1.5L8.5,1h4l.5.5V3h1.5l.5.5V7.086L14.914,7H14V4H12.5L12,3.5V2H9V3.5L8.5,4H7V5Z" />
    </g>
  </g>
</svg>
