<svg xmlns="http://www.w3.org/2000/svg" viewBox="0 0 16 16">
  <defs>
    <style>.canvas{fill: none; opacity: 0;}.light-defaultgrey{fill: #212121; opacity: 1;}.light-defaultgrey-10{fill: #212121; opacity: 0.1;}.cls-1{opacity:0.75;}</style>
  </defs>
  <title>IconLightCommit</title>
  <g id="canvas" class="canvas">
    <path class="canvas" d="M16,16H0V0H16Z" />
  </g>
  <g id="level-1">
    <g class="cls-1">
      <path class="light-defaultgrey" d="M8,11.5V16H7V11.5ZM8,1V5.5H7V1Z" />
    </g>
    <path class="light-defaultgrey-10" d="M10.5,8.5a3,3,0,1,1-3-3A3,3,0,0,1,10.5,8.5Z" />
    <path class="light-defaultgrey" d="M7.5,5A3.5,3.5,0,1,0,11,8.5,3.5,3.5,0,0,0,7.5,5Zm0,6A2.5,2.5,0,1,1,10,8.5,2.5,2.5,0,0,1,7.5,11Z" />
  </g>
</svg>
