<svg xmlns="http://www.w3.org/2000/svg" viewBox="0 0 16 16">
  <defs>
    <style>.canvas{fill: none; opacity: 0;}.light-defaultgrey-10{fill: #212121; opacity: 0.1;}.light-defaultgrey{fill: #212121; opacity: 1;}.light-blue{fill: #005dba; opacity: 1;}.cls-1{opacity:0.75;}</style>
  </defs>
  <title>IconLightCompareSchemas</title>
  <g id="canvas">
    <path class="canvas" d="M16,16H0V0H16Z" />
  </g>
  <g id="level-1">
    <path class="light-defaultgrey-10" d="M3.5,15.5h-2v-2h2Zm2-6h-2v-2h2Zm2,6h-2v-2h2Z" />
    <path class="light-defaultgrey" d="M3.5,13h-2l-.5.5v2l.5.5h2l.5-.5v-2ZM3,15H2V14H3Z" />
    <path class="light-defaultgrey" d="M5.5,7h-2L3,7.5v2l.5.5h2L6,9.5v-2ZM5,9H4V8H5Z" />
    <path class="light-defaultgrey" d="M7.5,13h-2l-.5.5v2l.5.5h2l.5-.5v-2ZM7,15H6V14H7Z" />
    <g class="cls-1">
      <path class="light-defaultgrey" d="M6.5,11H5V10H4v1H2.5l-.5.5V13H3V12H6v1H7V11.5Z" />
    </g>
    <path class="light-defaultgrey-10" d="M10.5,8.5h-2v-2h2Zm2-6h-2V.5h2Zm2,6h-2v-2h2Z" />
    <path class="light-defaultgrey" d="M10.5,6h-2L8,6.5v2l.5.5h2l.5-.5v-2ZM10,8H9V7h1Z" />
    <path class="light-defaultgrey" d="M12.5,0h-2L10,.5v2l.5.5h2l.5-.5V.5ZM12,2H11V1h1Z" />
    <path class="light-defaultgrey" d="M14.5,6h-2l-.5.5v2l.5.5h2l.5-.5v-2ZM14,8H13V7h1Z" />
    <g class="cls-1">
      <path class="light-defaultgrey" d="M13.5,4H12V3H11V4H9.5L9,4.5V6h1V5h3V6h1V4.5Z" />
    </g>
    <path class="light-blue" d="M15,10v2.5l-.5.5H11.707l1.147,1.146-.708.708-2-2v-.708l2-2,.708.708L11.707,12H14V10Z" />
    <path class="light-blue" d="M1,6V3.5L1.5,3H4.293L3.146,1.854l.708-.708,2,2v.708l-2,2-.708-.708L4.293,4H2V6Z" />
  </g>
</svg>
