<svg xmlns="http://www.w3.org/2000/svg" viewBox="0 0 16 16">
  <defs>
    <style>.canvas{fill: none; opacity: 0;}.light-defaultgrey-10{fill: #212121; opacity: 0.1;}.light-defaultgrey{fill: #212121; opacity: 1;}</style>
  </defs>
  <title>IconLightComputedColumn</title>
  <g id="canvas" class="canvas">
    <path class="canvas" d="M16,16H0V0H16Z" />
  </g>
  <g id="level-1">
    <path class="light-defaultgrey-10" d="M6.5,15.532H.5v-8h6Z" />
    <path class="light-defaultgrey-10" d="M11.5,2.5v12H8V7.086L6.914,6H6.5V2.5Z" />
    <path class="light-defaultgrey" d="M12,1.5v13l-.5.5H7.914L8,14.914V14h3V11H8V10h3V7H8L7,6h4V3H7V6.086L6.914,6H6V1.5L6.5,1h5Z" />
    <path class="light-defaultgrey" d="M6.5,7H.5L0,7.5v8l.5.5h6l.5-.5v-8ZM6,15H1V8H6ZM4,11H5v1H4Zm0,2H5v1H4Zm1-3H2V9H5ZM3,14H2V13H3Zm0-2H2V11H3Z" />
  </g>
</svg>
