<svg xmlns="http://www.w3.org/2000/svg" viewBox="0 0 16 16">
  <defs>
    <style>.canvas{fill: none; opacity: 0;}.light-defaultgrey-10{fill: #212121; opacity: 0.1;}.light-defaultgrey{fill: #212121; opacity: 1;}</style>
  </defs>
  <title>IconLightComponent</title>
  <g id="canvas" class="canvas">
    <path class="canvas" d="M16,16H0V0H16Z" />
  </g>
  <g id="level-1">
    <path class="light-defaultgrey-10" d="M14.5,1.5v13h-9v-2H.5v-3h5v-3H.5v-3h5v-2Z" />
    <path class="light-defaultgrey" d="M14.5,1h-9L5,1.5V3H.5L0,3.5v3L.5,7H5V9H.5L0,9.5v3l.5.5H5v1.5l.5.5h9l.5-.5V1.5ZM1,6V4H6V6Zm0,6V10H6v2Zm13,2H6V13h.5l.5-.5v-3L6.5,9H6V7h.5L7,6.5v-3L6.5,3H6V2h8Z" />
  </g>
</svg>
