<svg xmlns="http://www.w3.org/2000/svg" viewBox="0 0 16 16">
  <defs>
    <style>.canvas{fill: none; opacity: 0;}.light-defaultgrey-10{fill: #212121; opacity: 0.1;}.light-defaultgrey{fill: #212121; opacity: 1;}</style>
  </defs>
  <title>IconLightCOMPrivate</title>
  <g id="canvas">
    <path class="canvas" d="M16,16H0V0H16Z" />
  </g>
  <g id="level-1">
    <path class="light-defaultgrey-10" d="M9,13.5H1.5v-6h6v-6h6V7.051A2.942,2.942,0,0,0,13,7a3,3,0,0,0-3,3v.086l-1,1Z" />
    <path class="light-defaultgrey" d="M9,13H8V8h2.78A2.985,2.985,0,0,1,13,7H8V2h5V7a2.966,2.966,0,0,1,1,.184V1.5L13.5,1h-6L7,1.5V7H1.5L1,7.5v6l.5.5H9ZM7,13H2V8H7Z" />
    <path class="light-defaultgrey-10" d="M15.5,11.5v4h-5v-4Z" />
    <path class="light-defaultgrey" d="M15.5,11H15V10a2,2,0,0,0-4,0v1h-.5l-.5.5v4l.5.5h5l.5-.5v-4ZM12,10a1,1,0,0,1,2,0v1H12Zm3,5H11V12h4Z" />
  </g>
</svg>
