<svg xmlns="http://www.w3.org/2000/svg" viewBox="0 0 16 16">
  <defs>
    <style>.canvas{fill: none; opacity: 0;}.light-defaultgrey-10{fill: #212121; opacity: 0.1;}.light-defaultgrey{fill: #212121; opacity: 1;}.cls-1{opacity:0.75;}</style>
  </defs>
  <title>CompositeTask</title>
  <g id="canvas">
    <path class="canvas" d="M16,16H0V0H16Z" />
  </g>
  <g id="level-1">
    <g class="cls-1">
      <path class="light-defaultgrey-10" d="M14.5,3.5v9H10V5.086L8.914,4,9,3.5Z" />
      <path class="light-defaultgrey" d="M14.5,3h-1V2h-1a2,2,0,0,0-4,0h-1V3h1V4H14v8H10v1h4.5l.5-.5v-9Zm-4,0a1,1,0,1,1,1-1A1,1,0,0,1,10.5,3Z" />
    </g>
    <path class="light-defaultgrey-10" d="M8.5,5.5v9H.5v-9Z" />
    <path class="light-defaultgrey" d="M8.5,5h-1V4h-1a2,2,0,0,0-4,0h-1V5H.5L0,5.5v9l.5.5h8l.5-.5v-9Zm-5-1a1,1,0,1,1,1,1A1,1,0,0,1,3.5,4ZM8,14H1V6H8Z" />
  </g>
</svg>
