<svg xmlns="http://www.w3.org/2000/svg" viewBox="0 0 16 16">
  <defs>
    <style>.canvas{fill: none; opacity: 0;}.light-blue{fill: #005dba; opacity: 1;}.light-defaultgrey-10{fill: #212121; opacity: 0.1;}.light-green{fill: #1f801f; opacity: 1;}.light-defaultgrey{fill: #212121; opacity: 1;}</style>
  </defs>
  <title>IconLightComparePerformanceReports</title>
  <g id="canvas">
    <path class="canvas" d="M16,16H0V0H16Z" />
  </g>
  <g id="level-1">
    <path class="light-blue" d="M15,10v2.5l-.5.5H11.707l1.147,1.146-.708.708-2-2v-.708l2-2,.708.708L11.707,12H14V10Z" />
    <path class="light-blue" d="M1,6V3.5L1.5,3H4.293L3.146,1.854l.708-.708,2,2v.708l-2,2-.708-.708L4.293,4H2V6Z" />
    <path class="light-defaultgrey-10" d="M.5,7.5h8v7H.5Z" />
    <path class="light-green" d="M8.146,12.854,5.5,10.207,3.854,11.854H3.146L2.5,11.207.854,12.854l-.708-.708,2-2h.708l.646.647L5.146,9.146h.708l3,3Z" />
    <path class="light-defaultgrey" d="M8.5,15H.5L0,14.5v-7L.5,7h8l.5.5v7ZM1,14H8V8H1Z" />
    <path class="light-green" d="M15.854,6.146l-.708.708L12.5,4.207,10.854,5.854h-.708L9.5,5.207,8.707,6H7.293L9.146,4.146h.708l.646.647,1.646-1.647h.708Z" />
    <path class="light-defaultgrey-10" d="M15.5,1.5v7H10V7.086L8.914,6H7.5V1.5Z" />
    <path class="light-defaultgrey" d="M16,1.5v7l-.5.5H10V8h5V2H8V6H7V1.5L7.5,1h8Z" />
  </g>
</svg>
