<svg xmlns="http://www.w3.org/2000/svg" viewBox="0 0 16 16">
  <defs>
    <style>.canvas{fill: none; opacity: 0;}.light-defaultgrey{fill: #212121; opacity: 1;}.light-defaultgrey-10{fill: #212121; opacity: 0.1;}.cls-1{opacity:0.75;}</style>
  </defs>
  <title>IconLightComponentDiagram</title>
  <g id="canvas">
    <path class="canvas" d="M16,16H0V0H16Z" />
  </g>
  <g id="level-1">
    <g class="cls-1">
      <path class="light-defaultgrey" d="M8.5,12H8v1H7.5L7,12.5V12H3.5L3,11.5V8H2.5L2,7.5V7H3V6.5H4V7H5v.5L4.5,8H4v3H7v-.5l.5-.5H8v1h.5Z" />
    </g>
    <path class="light-defaultgrey-10" d="M6.5.5v6H.5v-3h3V.5Z" />
    <path class="light-defaultgrey-10" d="M14.5,8.5v3h-3v3h-3v-6Z" />
    <path class="light-defaultgrey" d="M6.5,0h-3L3,.5V3H.5L0,3.5v3L.5,7h6L7,6.5V.5ZM6,1V3H4V1ZM1,4H3V6H1ZM4,6V4H6V6Z" />
    <path class="light-defaultgrey" d="M14.5,8h-6L8,8.5v6l.5.5h3l.5-.5V12h2.5l.5-.5v-3ZM11,9v2H9V9ZM9,14V12h2v2Zm5-3H12V9h2Z" />
  </g>
</svg>
