<svg xmlns="http://www.w3.org/2000/svg" viewBox="0 0 16 16">
  <defs>
    <style>.canvas{fill: none; opacity: 0;}.light-defaultgrey{fill: #212121; opacity: 1;}.light-yellow-10{fill: #996f00; opacity: 0.1;}.light-yellow{fill: #996f00; opacity: 1;}</style>
  </defs>
  <title>ComplexProperty</title>
  <g id="canvas">
    <path class="canvas" d="M16,16H0V0H16Z" />
  </g>
  <g id="level-1">
    <path class="light-defaultgrey" d="M.042,10.5A2.994,2.994,0,0,1,.3,8.705L2.286,10.7,3.7,9.282l-2-1.991a2.983,2.983,0,0,1,3.988,3.983L9,14.586v.707L8.3,16H7.59L4.278,12.688A2.98,2.98,0,0,1,.042,10.5Z" />
    <path class="light-yellow-10" d="M13,8,11.5,6.5l2-2L15,6Zm-1.5,3.5L13,13l2-2L13.5,9.5Zm-8-6,.672.672a3.954,3.954,0,0,1,1.649.984l.011.012L9.5,3.5l-2-2Z" />
    <path class="light-yellow" d="M11.146,6.854l1.5,1.5h.708l2-2V5.646l-1.5-1.5h-.708L12.293,5H8.707L9.854,3.854V3.146l-2-2H7.146l-4,4v.708l.164.163c.119.009.238.01.356.029a3.967,3.967,0,0,1,2.155,1.11,3.918,3.918,0,0,1,.338.393L7.707,6H9v4.5l.5.5h1.793l-.147.146v.708l1.5,1.5h.708l2-2v-.708l-1.5-1.5h-.708L12.293,10H10V6h1.293l-.147.146ZM5.5,6.793,4.207,5.5,7.5,2.207,8.793,3.5Zm8,3.414.793.793L13,12.293l-.793-.793Zm0-5L14.293,6,13,7.293,12.207,6.5Z" />
  </g>
</svg>
