<svg xmlns="http://www.w3.org/2000/svg" viewBox="0 0 16 16">
  <defs>
    <style>.canvas{fill: none; opacity: 0;}.light-defaultgrey-10{fill: #212121; opacity: 0.1;}.light-defaultgrey{fill: #212121; opacity: 1;}.cls-1{opacity:0.75;}</style>
  </defs>
  <title>IconLightConfigurationEditor</title>
  <g id="canvas">
    <path class="canvas" d="M16,16H0V0H16Z" />
  </g>
  <g id="level-1">
    <g class="cls-1">
      <path class="light-defaultgrey-10" d="M14.5,1.5v13H10v-.328L6.851,11.02A3.985,3.985,0,0,0,3.666,6.046c-.055-.009-.111-.007-.166-.013V1.5Z" />
      <path class="light-defaultgrey" d="M15,1.5v13l-.5.5H10v-.828L9.832,14H14V2H4V6.129c-.111-.028-.22-.063-.334-.083a4.05,4.05,0,0,0-.659-.054H3V1.5L3.5,1h11Z" />
    </g>
    <path class="light-defaultgrey" d="M12,10v1H6.854a3.957,3.957,0,0,0,.121-1Zm0-6V5H6V4ZM6,7.347V7H9V8H6.467A3.968,3.968,0,0,0,6,7.347Z" />
    <path class="light-defaultgrey" d="M.042,10.5A2.994,2.994,0,0,1,.3,8.705L2.286,10.7,3.7,9.282l-2-1.991a2.983,2.983,0,0,1,3.988,3.983L9,14.586v.707L8.3,16H7.59L4.278,12.688A2.98,2.98,0,0,1,.042,10.5Z" />
  </g>
</svg>
