<svg xmlns="http://www.w3.org/2000/svg" viewBox="0 0 16 16">
  <defs>
    <style>.canvas{fill: none; opacity: 0;}.light-defaultgrey-10{fill: #212121; opacity: 0.1;}.light-defaultgrey{fill: #212121; opacity: 1;}.cls-1{opacity:0.75;}</style>
  </defs>
  <title>IconLightConnectionBuilder</title>
  <g id="canvas">
    <path class="canvas" d="M16,16H0V0H16Z" />
  </g>
  <g id="level-1">
    <g class="cls-1">
      <path class="light-defaultgrey-10" d="M14.5,3.5v11H1.5V9.106A5.489,5.489,0,0,0,9.9,3.5Z" />
      <path class="light-defaultgrey" d="M15,3.5v11l-.5.5H1.5L1,14.5V8.743A5.508,5.508,0,0,0,2,9.4V14H14V4H9.975a5.5,5.5,0,0,0-.187-1H14.5Z" />
    </g>
    <path class="light-defaultgrey" d="M12.854,10.146v.708l-2,2-.708-.708L11.293,11H7V10h4.293L10.146,8.854l.708-.708Z" />
    <path class="light-defaultgrey-10" d="M8.5,4.5a4,4,0,1,1-4-4A4,4,0,0,1,8.5,4.5Z" />
    <path class="light-defaultgrey" d="M4.5,0A4.5,4.5,0,1,0,9,4.5,4.505,4.505,0,0,0,4.5,0Zm0,8A3.5,3.5,0,1,1,7.949,4H4.384L5.475,2.909,4.768,2.2,2.823,4.146v.708L4.768,6.8l.707-.707L4.384,5H7.949A3.494,3.494,0,0,1,4.5,8Z" />
  </g>
</svg>
