<svg xmlns="http://www.w3.org/2000/svg" viewBox="0 0 16 16">
  <defs>
    <style>.canvas{fill: none; opacity: 0;}.light-defaultgrey-10{fill: #212121; opacity: 0.1;}.light-defaultgrey{fill: #212121; opacity: 1;}.cls-1{opacity:0.75;}</style>
  </defs>
  <title>IconLightConnectionZone</title>
  <g id="canvas">
    <path class="canvas" d="M16,16H0V0H16Z" />
  </g>
  <g id="level-1">
    <g class="cls-1">
      <path class="light-defaultgrey-10" d="M15,1.5v12l-.5.5H.5L0,13.5V1.5L.5,1h14Z" />
      <path class="light-defaultgrey" d="M14.5,14H14V13h1v.5ZM15,1.5,14.5,1H14V2h1ZM15,11H14v1h1Zm0-2H14v1h1Zm0-2H14V8h1Zm0-2H14V6h1Zm0-2H14V4h1ZM13,13H12v1h1Zm-2,0H10v1h1ZM9,13H8v1H9ZM7,13H6v1H7ZM5,13H4v1H5ZM3,13H2v1H3ZM1,13H0v.5l.5.5H1Zm0-2H0v1H1ZM1,9H0v1H1ZM1,7H0V8H1ZM1,5H0V6H1ZM1,3H0V4H1ZM1,1H.5L0,1.5V2H1ZM13,1H12V2h1ZM11,1H10V2h1ZM9,1H8V2H9ZM7,1H6V2H7ZM5,1H4V2H5ZM3,1H2V2H3Z" />
    </g>
    <path class="light-defaultgrey" d="M13,11.5v-8L12.5,3H8V4h4v7H8v1h4.5ZM7,12H2.5L2,11.5v-8L2.5,3H7V4H3v7H7Z" />
    <path class="light-defaultgrey" d="M9,9.5V8H6V9.5l-2.5-2L6,5.5V7H9V5.5l2.5,2Z" />
  </g>
</svg>
