<svg xmlns="http://www.w3.org/2000/svg" viewBox="0 0 16 16">
  <defs>
    <style>.canvas{fill: none; opacity: 0;}.light-defaultgrey-10{fill: #212121; opacity: 0.1;}.light-defaultgrey{fill: #212121; opacity: 1;}.light-yellow{fill: #996f00; opacity: 1;}.white{fill: #ffffff; opacity: 1;}.cls-1{opacity:0.75;}</style>
  </defs>
  <title>IconLightConnectionWarning</title>
  <g id="canvas">
    <path class="canvas" d="M16,16H0V0H16Z" />
  </g>
  <g id="level-1">
    <g class="cls-1">
      <path class="light-defaultgrey-10" d="M8.5,5h-2V1.5h2ZM.5,8.5v-2H5v2ZM10,7.853V6.5h4.5v2H13.357L12.53,7H10.47Z" />
      <path class="light-defaultgrey" d="M6,5V1.5L6.5,1h2l.5.5V5H8V2H7V5ZM5,9H.5L0,8.5v-2L.5,6H5V7H1V8H5Zm5.47-2H10V6h4.5l.5.5v2l-.5.5h-.868l-.551-1H14V7H10.47Z" />
    </g>
    <path class="light-defaultgrey-10" d="M9.093,9.5H5.5v-4h4V8.76Z" />
    <path class="light-defaultgrey" d="M10,7.853V5.5L9.5,5h-4L5,5.5v4l.5.5H8.817ZM6,6H9V9H6Z" />
    <path class="light-yellow" d="M15.5,16h-8l-.439-.739,4-7.261h.878l4,7.261Z" />
    <path class="white" d="M12,13H11V10h1Zm.25,1.5a.75.75,0,1,1-.75-.75A.75.75,0,0,1,12.25,14.5Z" />
  </g>
</svg>
