<svg xmlns="http://www.w3.org/2000/svg" viewBox="0 0 16 16">
  <defs>
    <style>.canvas{fill: none; opacity: 0;}.light-teal-10{fill: #006758; opacity: 0.1;}.light-teal{fill: #006758; opacity: 1;}.light-defaultgrey-10{fill: #212121; opacity: 0.1;}.light-defaultgrey{fill: #212121; opacity: 1;}.light-green{fill: #1f801f; opacity: 1;}</style>
  </defs>
  <title>ConnectToRemoteServer</title>
  <g id="canvas" class="canvas">
    <path class="canvas" d="M16,0V16H0V0Z" />
  </g>
  <g id="level-1">
    <path class="light-teal-10" d="M3,8.474H3a2.5,2.5,0,0,1-2.5-2.5V3.5h5V5.974A2.5,2.5,0,0,1,3,8.474Z" />
    <path class="light-teal" d="M5,3V1A.5.5,0,0,0,4,1V3H2V1A.5.5,0,0,0,1,1V3H0V5.974A3,3,0,0,0,2.5,8.931V12h1V8.931A3,3,0,0,0,6,5.974V3ZM5,5.974a2,2,0,0,1-4,0V4H5Z" />
    <path class="light-defaultgrey-10" d="M7,2.5V6a4.153,4.153,0,0,1-.13,1A3.976,3.976,0,0,1,4.5,9.68V13h-1v1.5h12V2.5Z" />
    <path class="light-defaultgrey" d="M16,2.5,15.5,2H7V3h8V6H7a4.153,4.153,0,0,1-.13,1H15v3H4.5v1H15v3H4V13H3v1.5l.5.5h12l.5-.5V11l-.5-.5L16,10V7l-.5-.5L16,6Z" />
    <path class="light-green" d="M12,12v1h2V12Zm0-4V9h2V8Zm0-4V5h2V4Z" />
  </g>
</svg>
