<svg xmlns="http://www.w3.org/2000/svg" viewBox="0 0 16 16">
  <defs>
    <style>.canvas{fill: none; opacity: 0;}.light-teal-10{fill: #006758; opacity: 0.1;}.light-blue-10{fill: #005dba; opacity: 0.1;}.light-blue{fill: #005dba; opacity: 1;}.light-teal{fill: #006758; opacity: 1;}</style>
  </defs>
  <title>ConnectToWebSite</title>
  <g id="canvas">
    <path class="canvas" d="M16,16H0V0H16Z" />
  </g>
  <g id="level-1">
    <path class="light-teal-10" d="M3,8.474H3a2.5,2.5,0,0,1-2.5-2.5V3.5h5V5.974A2.5,2.5,0,0,1,3,8.474Z" />
    <path class="light-blue-10" d="M14.5,8A6.477,6.477,0,0,1,3.872,13H4.5V9.684A3.99,3.99,0,0,0,7,5.974V2H6V1.823A6.492,6.492,0,0,1,14.5,8Z" />
    <path class="light-blue" d="M12.947,3.053A6.977,6.977,0,0,0,6,1.294V2H7v.907a9.428,9.428,0,0,1,.628-.888C7.752,2.011,7.874,2,8,2s.249.011.373.019A9.478,9.478,0,0,1,10.005,5H7v.974L7,6h3.28a9.12,9.12,0,0,1,0,4H5.722a9.4,9.4,0,0,1-.158-.957,4.009,4.009,0,0,1-.922.571c.021.128.032.258.058.386H4.5v1h.447a10.489,10.489,0,0,0,1.264,2.727A6.006,6.006,0,0,1,4.5,12.843V13H3.109a7,7,0,0,0,9.838-9.947Zm-3.158-.78A6.02,6.02,0,0,1,13.188,5H11.053A10.489,10.489,0,0,0,9.789,2.273ZM8,14c-.126,0-.249-.011-.373-.019A9.487,9.487,0,0,1,6,11h4.01a9.478,9.478,0,0,1-1.632,2.981C8.249,13.989,8.126,14,8,14Zm1.789-.273A10.489,10.489,0,0,0,11.053,11h2.135A6.024,6.024,0,0,1,9.789,13.727ZM13.65,10H11.3a10.2,10.2,0,0,0,0-4h2.35A5.885,5.885,0,0,1,13.65,10Z" />
    <path class="light-teal" d="M5,3V1A.5.5,0,0,0,4,1V3H2V1A.5.5,0,0,0,1,1V3H0V5.974A3,3,0,0,0,2.5,8.931V12h1V8.931A3,3,0,0,0,6,5.974V3ZM5,5.974a2,2,0,0,1-4,0V4H5Z" />
  </g>
</svg>
