<svg xmlns="http://www.w3.org/2000/svg" viewBox="0 0 16 16">
  <defs>
    <style>.canvas{fill: none; opacity: 0;}.light-defaultgrey-10{fill: #212121; opacity: 0.1;}.light-defaultgrey{fill: #212121; opacity: 1;}.light-blue{fill: #005dba; opacity: 1;}</style>
  </defs>
  <title>IconLightConstantShortcut</title>
  <g id="canvas" class="canvas">
    <path class="canvas" d="M16,16H0V0H16Z" />
  </g>
  <g id="level-1">
    <path class="light-defaultgrey-10" d="M7,11.5H2.5v-8h9V7H8.086L7,8.086Z" />
    <path class="light-defaultgrey" d="M7,12H2.5L2,11.5v-8L2.5,3h9l.5.5V7H11V4H3v7H7Z" />
    <path class="light-blue" d="M9,7H5V6H9ZM7.086,8H5V9H7V8.086Z" />
    <path class="light-defaultgrey-10" d="M15.5,8.5v7h-7v-7Z" />
    <path class="light-defaultgrey" d="M15.5,8h-7L8,8.5v7l.5.5h7l.5-.5v-7ZM15,15H9V9h6Zm-1-4.5V14H13V11.707l-2.646,2.647-.708-.708L12.293,11H10V10h3.5Z" />
  </g>
</svg>
