<svg xmlns="http://www.w3.org/2000/svg" viewBox="0 0 16 16">
  <defs>
    <style>.canvas{fill: none; opacity: 0;}.light-defaultgrey-10{fill: #212121; opacity: 0.1;}.light-defaultgrey{fill: #212121; opacity: 1;}.light-teal-10{fill: #006758; opacity: 0.1;}.light-teal{fill: #006758; opacity: 1;}.cls-1{opacity:0.75;}</style>
  </defs>
  <title>IconLightConsoleTest</title>
  <g id="canvas">
    <path class="canvas" d="M16,16H0V0H16Z" />
  </g>
  <g id="level-1">
    <g class="cls-1">
      <path class="light-defaultgrey-10" d="M15.5,5v6.5H7.269L7,11.069V10H8V7H5.5V5Z" />
      <path class="light-defaultgrey" d="M5,7V4.5l.5.5H6V7ZM16,4.5v7l-.5.5H7.582L7,11.069V11h8V5h.5Z" />
    </g>
    <path class="light-defaultgrey" d="M10,9v1h2V9Zm0-.646L8.409,9.945,7.7,9.237,8.939,8,7.7,6.763l.707-.708L10,7.646Z" />
    <path class="light-defaultgrey-10" d="M15.5,2.5v2H5.5v-2Z" />
    <path class="light-defaultgrey" d="M15.5,2H5.5L5,2.5v2l.5.5h10l.5-.5v-2ZM15,4H6V3h9Z" />
    <path class="light-teal-10" d="M7.522,14.735A.5.5,0,0,1,7.1,15.5H1.9a.5.5,0,0,1-.424-.765L2.25,13.5h4.5Z" />
    <path class="light-teal" d="M7.1,16H1.9a1,1,0,0,1-.848-1.53l.772-1.235L2.25,13h4.5l.424.235.772,1.235A1,1,0,0,1,7.1,16ZM2.527,14,1.9,15H7.1l-.625-1Z" />
    <path class="light-defaultgrey-10" d="M2.5,13l.938-1.5v-3h2v3L6.375,13Z" />
    <path class="light-defaultgrey" d="M3,9H2V8H7V9H6v2.356l1.174,1.879L6.75,13h-.9l-.772-1.235L5,11.5V9H4v2.5l-.076.265L3.152,13h-.9l-.424.235L3,11.356Z" />
  </g>
</svg>
