<svg xmlns="http://www.w3.org/2000/svg" viewBox="0 0 16 16">
  <defs>
    <style>.canvas{fill: none; opacity: 0;}.light-defaultgrey-10{fill: #212121; opacity: 0.1;}.light-defaultgrey{fill: #212121; opacity: 1;}.cls-1{opacity:0.75;}</style>
  </defs>
  <title>IconLightContentInstaller</title>
  <g id="canvas">
    <path class="canvas" d="M16,16H0V0H16Z" />
  </g>
  <g id="level-1">
    <g class="cls-1">
      <path class="light-defaultgrey-10" d="M13.5,4.5v10H11.622l.227-.226v-1.54L9.105,10H2.5V1.5h8Z" />
      <path class="light-defaultgrey" d="M14,4.5v10l-.5.5H11.118l.731-.726V14H13V5H10V2H3v8H2V1.5L2.5,1h8l.354.146,3,3Z" />
    </g>
    <path class="light-defaultgrey" d="M1.212,13.469l1.816,1.82L2.321,16,.152,13.823v-.706L2.32,10.938l.709.705Zm9.637-.351v.709L8.661,16l-.7-.709,1.831-1.819L7.956,11.647l.7-.709ZM5.5,11.969a1.5,1.5,0,1,0,1.5,1.5A1.5,1.5,0,0,0,5.5,11.969Zm0,2a.5.5,0,1,1,.5-.5A.5.5,0,0,1,5.5,13.969Z" />
  </g>
</svg>
