<svg xmlns="http://www.w3.org/2000/svg" viewBox="0 0 16 16">
  <defs>
    <style>.canvas{fill: none; opacity: 0;}.light-defaultgrey-10{fill: #212121; opacity: 0.1;}.light-defaultgrey{fill: #212121; opacity: 1;}.light-green{fill: #1f801f; opacity: 1;}.light-red{fill: #c50b17; opacity: 1;}</style>
  </defs>
  <title>IconLightContentControlElement</title>
  <g id="canvas" class="canvas">
    <path class="canvas" d="M16,16H0V0H16Z" />
  </g>
  <g id="level-1">
    <path class="light-defaultgrey-10" d="M14.5,1.5v11H10.81A6,6,0,0,0,3.5,8.19V1.5Z" />
    <path class="light-defaultgrey-10" d="M.5,14.5V14a4.5,4.5,0,0,1,9,0v.5Z" />
    <path class="light-defaultgrey" d="M15,1.5v11l-.5.5H10.916a5.966,5.966,0,0,0-.259-1H14V2H4V8.084a5.966,5.966,0,0,0-1,.259V1.5L3.5,1h11Z" />
    <path class="light-defaultgrey" d="M0,15V14a5,5,0,0,1,10,0v1Zm1-1H9a4,4,0,0,0-8,0Z" />
    <path class="light-defaultgrey" d="M7.475,12.232,5.951,13.756A.989.989,0,1,1,5,13a1,1,0,0,1,.244.049l1.524-1.524Z" />
    <path class="light-green" d="M7.9,13.223A3.015,3.015,0,0,1,8,14H7.121Z" />
    <path class="light-red" d="M3,14H2a3,3,0,0,1,3.777-2.9l-.9.9A2.013,2.013,0,0,0,3,14Z" />
  </g>
</svg>
