<svg xmlns="http://www.w3.org/2000/svg" viewBox="0 0 16 16">
  <defs>
    <style>.canvas{fill: none; opacity: 0;}.light-defaultgrey{fill: #212121; opacity: 1;}.light-defaultgrey-10{fill: #212121; opacity: 0.1;}.light-yellow{fill: #996f00; opacity: 1;}.white{fill: #ffffff; opacity: 1;}.cls-1{opacity:0.75;}</style>
  </defs>
  <title>IconLightContractWarning</title>
  <g id="canvas">
    <path class="canvas" d="M16,16H0V0H16Z" />
  </g>
  <g id="level-1">
    <path class="light-defaultgrey" d="M6.452,12,5,10.548,3.548,12l-.68-.68L4.322,9.867,2.868,8.414l.68-.68L5,9.187,6.452,7.734l.68.68L5.678,9.867,7.132,11.32Z" />
    <g class="cls-1">
      <path class="light-defaultgrey-10" d="M6.339,14.5H1.5V1.5h8l3,3V7H10.47Z" />
      <path class="light-defaultgrey" d="M6.063,15H1.5L1,14.5V1.5L1.5,1h8l.354.146,3,3L13,4.5V7.853L12.53,7H12V5H9V2H2V14H6.614Z" />
    </g>
    <path class="light-yellow" d="M15.5,16h-8l-.439-.739,4-7.261h.878l4,7.261Z" />
    <path class="white" d="M12,13H11V10h1Zm.25,1.5a.75.75,0,1,1-.75-.75A.75.75,0,0,1,12.25,14.5Z" />
  </g>
</svg>
