<svg xmlns="http://www.w3.org/2000/svg" viewBox="0 0 16 16">
  <defs>
    <style>.canvas{fill: none; opacity: 0;}.light-defaultgrey-10{fill: #212121; opacity: 0.1;}.light-defaultgrey{fill: #212121; opacity: 1;}.cls-1{opacity:0.75;}</style>
  </defs>
  <title>IconLightControlAltDel</title>
  <g id="canvas">
    <path class="canvas" d="M16,16H0V0H16Z" />
  </g>
  <g id="level-1">
    <g class="cls-1">
      <path class="light-defaultgrey-10" d="M14.5,13.5H1.5V2.5h13Z" />
      <path class="light-defaultgrey" d="M14.5,14H1.5L1,13.5V2.5L1.5,2h13l.5.5v11ZM2,13H14V3H2Z" />
    </g>
    <path class="light-defaultgrey-10" d="M11.769,9.766a2.5,2.5,0,0,1-3.535,0A2.457,2.457,0,0,1,7.716,9H4.637l-1-1,1-1H7.716a2.462,2.462,0,0,1,.518-.768,2.5,2.5,0,0,1,3.535,3.535Z" />
    <path class="light-defaultgrey" d="M4.284,9.352l-1-1V7.645l1-1L4.637,6.5H7.408a2.948,2.948,0,0,1,.472-.622,3,3,0,1,1,0,4.243A2.9,2.9,0,0,1,7.408,9.5H4.637ZM4.345,8l.5.5H7.716l.458.3a2,2,0,1,0,.413-2.215,1.979,1.979,0,0,0-.413.615l-.458.3H4.844Zm6.717.353a.5.5,0,1,1,0-.707A.5.5,0,0,1,11.062,8.352Z" />
  </g>
</svg>
