<svg xmlns="http://www.w3.org/2000/svg" viewBox="0 0 16 16">
  <defs>
    <style>.canvas{fill: none; opacity: 0;}.light-defaultgrey{fill: #212121; opacity: 1;}.light-defaultgrey-10{fill: #212121; opacity: 0.1;}.cls-1{opacity:0.75;}</style>
  </defs>
  <title>IconLightContractSettings</title>
  <g id="canvas">
    <path class="canvas" d="M16,16H0V0H16Z" />
  </g>
  <g id="level-1">
    <path class="light-defaultgrey" d="M16,13V12H14.949a2.473,2.473,0,0,0-.365-.876l.745-.745-.707-.707-.745.745A2.469,2.469,0,0,0,13,10.051V9H12v1.051a2.469,2.469,0,0,0-.877.366l-.745-.745-.707.707.745.745a2.473,2.473,0,0,0-.365.876H9v1h1.051a2.473,2.473,0,0,0,.365.876l-.745.745.707.707.745-.745a2.469,2.469,0,0,0,.877.366V16h1V14.949a2.469,2.469,0,0,0,.877-.366l.745.745.707-.707-.745-.745A2.473,2.473,0,0,0,14.949,13Zm-3.5,1A1.5,1.5,0,1,1,14,12.5,1.5,1.5,0,0,1,12.5,14Z" />
    <path class="light-defaultgrey" d="M7.132,8.414,5.678,9.867,7.132,11.32l-.68.68L5,10.548,3.548,12l-.68-.68L4.322,9.867,2.868,8.414l.68-.68L5,9.187,6.452,7.734Z" />
    <g class="cls-1">
      <path class="light-defaultgrey-10" d="M8.488,14.5H1.5V1.5h8l3,3V8a4.469,4.469,0,0,0-4.012,6.5Z" />
      <path class="light-defaultgrey" d="M8.76,15H1.5L1,14.5V1.5L1.5,1h8l.354.146,3,3L13,4.5V8.05A4.576,4.576,0,0,0,12.5,8a4.576,4.576,0,0,0-.5.05V5H9V2H2V14H8.276A4.466,4.466,0,0,0,8.76,15Z" />
    </g>
  </g>
</svg>
