<svg xmlns="http://www.w3.org/2000/svg" viewBox="0 0 16 16">
  <defs>
    <style>.canvas{fill: none; opacity: 0;}.light-defaultgrey{fill: #212121; opacity: 1;}.light-defaultgrey-10{fill: #212121; opacity: 0.1;}.cls-1{opacity:0.75;}</style>
  </defs>
  <title>IconLightContract</title>
  <g id="canvas">
    <path class="canvas" d="M16,16H0V0H16Z" />
  </g>
  <g id="level-1">
    <path class="light-defaultgrey" d="M6,10.548,4.548,12l-.68-.68L5.322,9.867,3.868,8.414l.68-.679L6,9.187,7.452,7.735l.68.679L6.678,9.867,8.132,11.32l-.68.68ZM9,12h4V11H9Z" />
    <g class="cls-1">
      <path class="light-defaultgrey-10" d="M13.5,4.5v10H2.5V1.5h8Z" />
      <path class="light-defaultgrey" d="M13.854,4.146l-3-3L10.5,1h-8L2,1.5v13l.5.5h11l.5-.5V4.5ZM3,14V2h7V5h3v9Z" />
    </g>
  </g>
</svg>
