<svg xmlns="http://www.w3.org/2000/svg" viewBox="0 0 16 16">
  <defs>
    <style>.canvas{fill: none; opacity: 0;}.light-defaultgrey-10{fill: #212121; opacity: 0.1;}.light-defaultgrey{fill: #212121; opacity: 1;}.cls-1{opacity:0.75;}</style>
  </defs>
  <title>IconLightContentPlaceholder</title>
  <g id="canvas" class="canvas">
    <path class="canvas" d="M16,16H0V0H16Z" />
  </g>
  <g id="level-1">
    <g class="cls-1">
      <path class="light-defaultgrey-10" d="M13.5,4.5v10H2.5V1.5h8Z" />
      <path class="light-defaultgrey" d="M13.854,4.146l-3-3L10.5,1h-8L2,1.5v13l.5.5h11l.5-.5V4.5ZM3,14V2h7V5h3v9Z" />
    </g>
    <path class="light-defaultgrey-10" d="M11,13H4V6h7Z" />
    <path class="light-defaultgrey" d="M5,13H4V12H5Zm2,0H6V12H7ZM5,11H4V10H5Zm4,2H8V12H9Zm2,0H10V12h1Zm0-2H10V10h1ZM5,9H4V8H5Zm6,0H10V8h1Zm0-2H10V6h1ZM5,7H4V6H5ZM7,7H6V6H7ZM9,7H8V6H9Z" />
  </g>
</svg>
