<svg xmlns="http://www.w3.org/2000/svg" viewBox="0 0 16 16">
  <defs>
    <style>.canvas{fill: none; opacity: 0;}.light-defaultgrey-10{fill: #212121; opacity: 0.1;}.light-defaultgrey{fill: #212121; opacity: 1;}.light-blue{fill: #005dba; opacity: 1;}.cls-1{opacity:0.75;}</style>
  </defs>
  <title>IconLightContextMenu</title>
  <g id="canvas" class="canvas">
    <path class="canvas" d="M16,16H0V0H16Z" />
  </g>
  <g id="level-1">
    <path class="light-defaultgrey-10" d="M14.5,4.5v8H1.5V7.881l-.5.4V4H4.8l.416.5Z" />
    <path class="light-defaultgrey" d="M15,4.5v8l-.5.5H1.5L1,12.5V8.281l.843-.675L2,8.039V12H14V5H5.635L4.8,4h9.7Z" />
    <path class="light-blue" d="M3.278,5.7l.789,2.167-.94.342L2.306,5.955,1,7V1L5,5.8Z" />
    <g class="cls-1">
      <path class="light-defaultgrey" d="M13,7V8H5.179L4.815,7ZM3,10h8V9H3Z" />
    </g>
  </g>
</svg>
