<svg xmlns="http://www.w3.org/2000/svg" viewBox="0 0 16 16">
  <defs>
    <style>.canvas{fill: none; opacity: 0;}.light-red{fill: #c50b17; opacity: 1;}.white{fill: #ffffff; opacity: 1;}.light-defaultgrey{fill: #212121; opacity: 1;}.light-defaultgrey-10{fill: #212121; opacity: 0.1;}.cls-1{opacity:0.75;}</style>
  </defs>
  <title>IconLightContractError</title>
  <g id="canvas">
    <path class="canvas" d="M16,16H0V0H16Z" />
  </g>
  <g id="level-1">
    <path class="light-red" d="M12,8a4,4,0,1,0,4,4A4,4,0,0,0,12,8Z" />
    <path class="white" d="M12.707,12l1.147,1.146-.708.708L12,12.707l-1.146,1.147-.708-.708L11.293,12l-1.147-1.146.708-.708L12,11.293l1.146-1.147.708.708Z" />
    <path class="light-defaultgrey" d="M7.061,11.391,6.452,12,5,10.548,3.548,12l-.68-.68L4.322,9.867,2.868,8.414l.68-.68L5,9.187,6.452,7.734l.68.68L5.678,9.867l1.4,1.4C7.068,11.305,7.067,11.348,7.061,11.391Z" />
    <g class="cls-1">
      <path class="light-defaultgrey-10" d="M7.694,14.5H1.5V1.5h8l3,3V7.05C12.333,7.034,12.171,7,12,7a5,5,0,0,0-5,5A4.946,4.946,0,0,0,7.694,14.5Z" />
      <path class="light-defaultgrey" d="M8.023,15H1.5L1,14.5V1.5L1.5,1h8l.354.146,3,3L13,4.5V7.1A4.988,4.988,0,0,0,12,7V5H9V2H2V14H7.422A4.935,4.935,0,0,0,8.023,15Z" />
    </g>
  </g>
</svg>
