<svg xmlns="http://www.w3.org/2000/svg" viewBox="0 0 16 16">
  <defs>
    <style>.canvas{fill: none; opacity: 0;}.light-defaultgrey-10{fill: #212121; opacity: 0.1;}.light-defaultgrey{fill: #212121; opacity: 1;}</style>
  </defs>
  <title>IconLightCookieCutter</title>
  <g id="canvas" class="canvas">
    <path class="canvas" d="M16,16H0V0H16Z" />
  </g>
  <g id="level-1">
    <path class="light-defaultgrey-10" d="M9.4,14.347A6.5,6.5,0,1,1,14.347,9.4,3.5,3.5,0,0,0,9.4,14.347Z" />
    <path class="light-defaultgrey" d="M11,6a1,1,0,1,1-1-1A1,1,0,0,1,11,6Z" />
    <path class="light-defaultgrey" d="M7,10A1,1,0,1,1,6,9,1,1,0,0,1,7,10Z" />
    <path class="light-defaultgrey" d="M6,6A1,1,0,1,1,5,5,1,1,0,0,1,6,6Z" />
    <path class="light-defaultgrey" d="M8,15a6.994,6.994,0,1,1,6.836-5.488l-.824.262a3,3,0,0,0-4.237,4.238l-.263.824A7.109,7.109,0,0,1,8,15ZM8,2A6,6,0,0,0,8,14c.174,0,.349-.008.522-.022a4,4,0,0,1,5.456-5.456C13.993,8.349,14,8.175,14,8A6.006,6.006,0,0,0,8,2Z" />
  </g>
</svg>
