<svg xmlns="http://www.w3.org/2000/svg" viewBox="0 0 16 16">
  <defs>
    <style>.canvas{fill: none; opacity: 0;}.light-blue-10{fill: #005dba; opacity: 0.1;}.light-blue{fill: #005dba; opacity: 1;}.cls-1{opacity:0.75;}</style>
  </defs>
  <title>CopyWebsite</title>
  <g id="canvas">
    <path class="canvas" d="M16,16H0V0H16Z" />
  </g>
  <g id="level-1">
    <path class="light-blue-10" d="M9.5,11A4.5,4.5,0,1,1,5,6.5,4.5,4.5,0,0,1,9.5,11Z" />
    <path class="light-blue" d="M5,6a5,5,0,1,0,5,5A5.006,5.006,0,0,0,5,6ZM8.444,9H7.225a7.486,7.486,0,0,0-.712-1.7A4.011,4.011,0,0,1,8.444,9ZM9,11a3.939,3.939,0,0,1-.142,1H7.426A7.583,7.583,0,0,0,7.5,11a7.583,7.583,0,0,0-.074-1H8.858A3.939,3.939,0,0,1,9,11ZM5,15c-.037,0-.072-.01-.109-.011A6.5,6.5,0,0,1,3.832,13H6.168a6.5,6.5,0,0,1-1.061,1.989C5.071,14.99,5.037,15,5,15Zm1.412-3H3.588A6.419,6.419,0,0,1,3.5,11a6.419,6.419,0,0,1,.088-1H6.412A6.419,6.419,0,0,1,6.5,11,6.419,6.419,0,0,1,6.412,12ZM6.168,9H3.832A6.5,6.5,0,0,1,4.891,7.011C4.928,7.01,4.963,7,5,7s.072.01.11.011A6.54,6.54,0,0,1,6.168,9ZM3.487,7.3A7.486,7.486,0,0,0,2.775,9H1.556A4.011,4.011,0,0,1,3.487,7.3ZM2.574,12H1.142a3.592,3.592,0,0,1,0-2H2.574A7.583,7.583,0,0,0,2.5,11,7.583,7.583,0,0,0,2.574,12ZM1.556,13H2.775a7.486,7.486,0,0,0,.712,1.7A4.011,4.011,0,0,1,1.556,13Zm4.957,1.7A7.534,7.534,0,0,0,7.226,13H8.444A4.011,4.011,0,0,1,6.513,14.7Z" />
    <g class="cls-1">
      <path class="light-blue-10" d="M14.5,6a4.5,4.5,0,0,1-3.531,4.389A6,6,0,0,0,5.611,5.031,4.5,4.5,0,0,1,14.5,6Z" />
      <path class="light-blue" d="M10,1A5.007,5.007,0,0,0,5.1,5.005a6.087,6.087,0,0,1,1.018.1c.009-.036.014-.073.023-.108H7.574c-.025.187-.029.377-.042.566a6.053,6.053,0,0,1,.981.577C8.511,6.1,8.5,6.048,8.5,6a6.419,6.419,0,0,1,.088-1h2.824A6.419,6.419,0,0,1,11.5,6a6.419,6.419,0,0,1-.088,1H9.463a6.032,6.032,0,0,1,.728,1h.977a6.493,6.493,0,0,1-.481,1.1A5.989,5.989,0,0,1,11,10.9,5,5,0,0,0,10,1ZM7.775,4H6.556A4.011,4.011,0,0,1,8.487,2.3,7.486,7.486,0,0,0,7.775,4ZM8.832,4A6.5,6.5,0,0,1,9.891,2.011C9.928,2.01,9.963,2,10,2s.072.01.11.011A6.54,6.54,0,0,1,11.168,4Zm4.612,0H12.225a7.486,7.486,0,0,0-.712-1.7A4.011,4.011,0,0,1,13.444,4ZM11.513,9.7A7.534,7.534,0,0,0,12.226,8h1.218A4.011,4.011,0,0,1,11.513,9.7ZM12.426,7A7.583,7.583,0,0,0,12.5,6a7.583,7.583,0,0,0-.074-1h1.432A3.939,3.939,0,0,1,14,6a3.939,3.939,0,0,1-.142,1Z" />
    </g>
  </g>
</svg>
