<svg xmlns="http://www.w3.org/2000/svg" viewBox="0 0 16 16">
  <defs>
    <style>.canvas{fill: none; opacity: 0;}.light-defaultgrey-10{fill: #212121; opacity: 0.1;}.light-defaultgrey{fill: #212121; opacity: 1;}.cls-1{opacity:0.75;}</style>
  </defs>
  <title>CopyItem</title>
  <g id="canvas">
    <path class="canvas" d="M16,16H0V0H16Z" />
  </g>
  <g id="level-1">
    <g class="cls-1">
      <path class="light-defaultgrey-10" d="M15.5,2.5v6H12V7.086L10.914,6H5.5V2.5Z" />
      <path class="light-defaultgrey" d="M8,5h5V6H8Z" />
      <path class="light-defaultgrey" d="M16,2.5v6l-.5.5H12V8h3V3H6V6H5V2.5L5.5,2h10Z" />
    </g>
    <path class="light-defaultgrey-10" d="M10.5,7.5v6H.5v-6Z" />
    <path class="light-defaultgrey" d="M10.5,7H.5L0,7.5v6l.5.5h10l.5-.5v-6ZM10,13H1V8h9ZM8,11H3V10H8Z" />
  </g>
</svg>
