<svg xmlns="http://www.w3.org/2000/svg" viewBox="0 0 16 16">
  <defs>
    <style>.canvas{fill: none; opacity: 0;}.light-blue{fill: #005dba; opacity: 1;}.light-defaultgrey-10{fill: #212121; opacity: 0.1;}.light-defaultgrey{fill: #212121; opacity: 1;}.cls-1{opacity:0.75;}</style>
  </defs>
  <title>CopyDynamicValue</title>
  <g id="canvas">
    <path class="canvas" d="M16,16H0V0H16Z" />
  </g>
  <g id="level-1">
    <g class="cls-1">
      <path class="light-blue" d="M10,12V11h3v1H12v1H11V12ZM13,1V2H10V1h1V0h1V1Z" />
      <path class="light-defaultgrey-10" d="M15.5,3.5v6H10V5.086L8.914,4H7.5V3.5Z" />
      <path class="light-defaultgrey" d="M16,3.5v6l-.5.5H10V9h5V4H7V3.5L7.5,3h8Z" />
    </g>
    <path class="light-defaultgrey" d="M8.5,12H.5L0,11.5v-6L.5,5h8l.5.5v6ZM1,11H8V6H1Z" />
    <path class="light-blue" d="M3,14V13H6v1H5v1H4V14ZM6,3V4H3V3H4V2H5V3Z" />
    <path class="light-defaultgrey-10" d="M8.5,11.5H.5v-6h8Z" />
  </g>
</svg>
