<svg xmlns="http://www.w3.org/2000/svg" viewBox="0 0 16 16">
  <defs>
    <style>.canvas{fill: none; opacity: 0;}.light-defaultgrey-10{fill: #212121; opacity: 0.1;}.light-defaultgrey{fill: #212121; opacity: 1;}.cls-1{opacity:0.5;}</style>
  </defs>
  <title>IconLightCordovaMultiDevice</title>
  <g id="canvas">
    <path class="canvas" d="M0,0H16V16H0Z" />
  </g>
  <g id="level-1">
    <g class="cls-1">
      <path class="light-defaultgrey-10" d="M11,5.878V9.7L8,11.06,5,9.7V5.878L8,4.242Z" />
      <path class="light-defaultgrey" d="M11.239,5.439l-3-1.636H7.761l-3,1.636L4.5,5.878V9.7l.293.455,3,1.364h.414l3-1.364L11.5,9.7V5.878ZM8,4.812,9.881,5.838,8,6.693,6.119,5.838ZM5.5,6.655l2,.909v2.72l-2-.909Zm3,3.629V7.564l2-.909v2.72Z" />
    </g>
    <path class="light-defaultgrey-10" d="M13.5,4.742v7L8,14.242l-5.5-2.5v-7l5.5-3Z" />
    <path class="light-defaultgrey" d="M13.739,4.3l-5.5-3H7.761l-5.5,3L2,4.742v7l.293.455,5.5,2.5h.414l5.5-2.5L14,11.742v-7ZM13,11.42,8.5,13.466l0-6.225h-1l0,6.223L3,11.42V5.039L8,2.311l5,2.728Z" />
    <path class="light-defaultgrey" d="M8.239,1.3H7.761l-5.5,3,.032.894,5.5,2.5h.414l5.5-2.5.032-.894ZM8,6.693,3.619,4.7,8,2.311,12.381,4.7Z" />
  </g>
</svg>
