<svg xmlns="http://www.w3.org/2000/svg" viewBox="0 0 16 16">
  <defs>
    <style>.canvas{fill: none; opacity: 0;}.light-defaultgrey{fill: #212121; opacity: 1;}.light-defaultgrey-10{fill: #212121; opacity: 0.1;}.light-defaultgrey-25{fill: #212121; opacity: 0.25;}.cls-1{opacity:0.75;}</style>
  </defs>
  <title>CountCollection</title>
  <g id="canvas">
    <path class="canvas" d="M0,0H16V16H0Z" />
  </g>
  <g id="level-1">
    <path class="light-defaultgrey" d="M4.164,15H6v1H3a2.146,2.146,0,0,1,.367-1.578c.684-.808,1.609-1.3,1.633-1.922a.5.5,0,0,0-.992-.1l-.977-.2a1.505,1.505,0,0,1,2.852-.281A1.474,1.474,0,0,1,6,12.5C6,13.61,5.1,13.98,4.164,15ZM0,11.5v1a2.441,2.441,0,0,0,1.1-.352V16H2V11H1.008A1.676,1.676,0,0,1,0,11.5Zm9.344,1.867a1.2,1.2,0,0,0,.633-1.14c.031-1.235-1.755-1.554-2.711-.907v1.016a1.436,1.436,0,0,1,.992-.477,1.014,1.014,0,0,1,.5.11c.268.15.24.687.054.883-.3.319-.813.247-1.257.257v.758a2.723,2.723,0,0,1,1.359.149c.328.177.247.888-.352,1.007a1.59,1.59,0,0,1-1.468-.414V15.6c1.474.941,3.031.057,3.031-1.157A1.147,1.147,0,0,0,9.344,13.367Z" />
    <g class="cls-1">
      <path class="light-defaultgrey-10" d="M7.5,1.5V5h4l.5.5v5h2.5v-9Z" />
      <path class="light-defaultgrey-10" d="M1.5,3.5V10H4V5.5L4.5,5H7V3.5Z" />
      <path class="light-defaultgrey" d="M14.5,1h-7L7,1.5V3H1.5L1,3.5V10H2V4H7V5H8V2h6v8H12v1h2.5l.5-.5v-9Z" />
    </g>
    <path class="light-defaultgrey-10" d="M4.5,5.5V10H11v4.5h.5v-9Z" />
    <path class="light-defaultgrey" d="M11.5,5h-7L4,5.5V10H5V6h6v9h.5l.5-.5v-9Z" />
    <path class="light-defaultgrey-25" d="M7,6v4H8V6Z" />
  </g>
</svg>
