<svg xmlns="http://www.w3.org/2000/svg" viewBox="0 0 16 16">
  <defs>
    <style>.canvas{fill: none; opacity: 0;}.light-defaultgrey-10{fill: #212121; opacity: 0.1;}.light-defaultgrey{fill: #212121; opacity: 1;}</style>
  </defs>
  <title>IconLightCountAttributes</title>
  <g id="canvas">
    <path class="canvas" d="M0,0H16V16H0Z" />
  </g>
  <g id="level-1">
    <path class="light-defaultgrey-10" d="M13.5,3.5h-4v-2h4Z" />
    <path class="light-defaultgrey-10" d="M13.5,8.5h-4v-2h4Z" />
    <path class="light-defaultgrey-10" d="M13.5,13.5h-4v-2h4Z" />
    <path class="light-defaultgrey" d="M13.5,4h-4L9,3.5v-2L9.5,1h4l.5.5v2ZM10,3h3V2H10Z" />
    <path class="light-defaultgrey" d="M13.5,9h-4L9,8.5v-2L9.5,6h4l.5.5v2ZM10,8h3V7H10Z" />
    <path class="light-defaultgrey" d="M13.5,14h-4L9,13.5v-2l.5-.5h4l.5.5v2ZM10,13h3V12H10Z" />
    <path class="light-defaultgrey" d="M7,4H5V6H4V4H2V3H4V1H5V3H7Z" />
    <path class="light-defaultgrey" d="M7,12H5v2H4V12H2V11H4V9H5v2H7Z" />
  </g>
</svg>
