<svg xmlns="http://www.w3.org/2000/svg" viewBox="0 0 16 16">
  <defs>
    <style>.canvas{fill: none; opacity: 0;}.light-defaultgrey-10{fill: #212121; opacity: 0.1;}.light-red-10{fill: #c50b17; opacity: 0.1;}.light-red{fill: #c50b17; opacity: 1;}.light-defaultgrey{fill: #212121; opacity: 1;}</style>
  </defs>
  <title>IconLightCPPATLDatabase</title>
  <g id="canvas" class="canvas">
    <path class="canvas" d="M16,16H0V0H16Z" />
  </g>
  <g id="level-1">
    <path class="light-defaultgrey-10" d="M14.5,3v8c0,.828-1.791,1.5-4,1.5A8.788,8.788,0,0,1,8,12.162V6.5A2.5,2.5,0,0,0,6.5,4.212V3c0-.828,1.791-1.5,4-1.5S14.5,2.172,14.5,3Z" />
    <path class="light-red-10" d="M6.5,6.5v9H.5v-9a1,1,0,0,1,1-1h4A1,1,0,0,1,6.5,6.5Z" />
    <path class="light-red" d="M5,7V8H2V7ZM2,12H5V11H2Zm0,2H5V13H2Zm4.5,2H.5L0,15.5v-9A1.5,1.5,0,0,1,1.5,5h4A1.5,1.5,0,0,1,7,6.5v9ZM1,15H6V6.5A.5.5,0,0,0,5.5,6h-4a.5.5,0,0,0-.5.5Z" />
    <path class="light-defaultgrey" d="M6,2.969V4.051a2.466,2.466,0,0,1,1,.462V4.3A7.9,7.9,0,0,0,10.5,5,7.913,7.913,0,0,0,14,4.3V11c0,.29-1.227,1-3.5,1A7.876,7.876,0,0,1,8,11.64v1.043A9.538,9.538,0,0,0,10.5,13c2.236,0,4.5-.687,4.5-2V2.969C15,.344,6,.344,6,2.969Zm8,.046C14,3.3,12.773,4,10.5,4S7,3.3,7,3.015v-.03C7,2.7,8.227,2,10.5,2s3.5.7,3.5.985Z" />
  </g>
</svg>
