<svg xmlns="http://www.w3.org/2000/svg" viewBox="0 0 16 16">
  <defs>
    <style>.canvas{fill: none; opacity: 0;}.light-red-10{fill: #c50b17; opacity: 0.1;}.light-defaultgrey-10{fill: #212121; opacity: 0.1;}.light-defaultgrey{fill: #212121; opacity: 1;}.light-red{fill: #c50b17; opacity: 1;}.cls-1{opacity:0.75;}</style>
  </defs>
  <title>IconLightCPPATLASPComponent</title>
  <g id="canvas" class="canvas">
    <path class="canvas" d="M16,16H0V0H16Z" />
  </g>
  <g id="level-1">
    <path class="light-red-10" d="M2.62,10A4.5,4.5,0,1,1,11.5,9a4.452,4.452,0,0,1-.5,2.021V10Z" />
    <g class="cls-1">
      <path class="light-defaultgrey-10" d="M15.5,3.5v9H11.867A5.985,5.985,0,0,0,5.5,3.2V.5h7Z" />
      <path class="light-defaultgrey" d="M16,3.5v9l-.5.5H11.46a6.032,6.032,0,0,0,.728-1H15V4H12V1H6V3.09a5.969,5.969,0,0,0-1,.26V.5L5.5,0h7l.354.146,3,3Z" />
    </g>
    <path class="light-red" d="M7,4A5.006,5.006,0,0,0,2,9a5.554,5.554,0,0,0,.148,1h.994A3.939,3.939,0,0,1,3,9a3.939,3.939,0,0,1,.142-1H4.574A7.583,7.583,0,0,0,4.5,9a7.583,7.583,0,0,0,.074,1H5.588A6.419,6.419,0,0,1,5.5,9a6.419,6.419,0,0,1,.088-1H8.412A6.419,6.419,0,0,1,8.5,9a6.419,6.419,0,0,1-.088,1H9.426A7.583,7.583,0,0,0,9.5,9a7.583,7.583,0,0,0-.074-1h1.432A3.939,3.939,0,0,1,11,9a3.939,3.939,0,0,1-.142,1H11v1.96a5.055,5.055,0,0,0,.414-.661c.008-.016.018-.032.026-.048A5.03,5.03,0,0,0,11.949,9.5,4.876,4.876,0,0,0,12,9,5.006,5.006,0,0,0,7,4ZM4.775,7H3.556A4.011,4.011,0,0,1,5.487,5.3,7.486,7.486,0,0,0,4.775,7ZM5.832,7A6.5,6.5,0,0,1,6.891,5.011C6.928,5.01,6.963,5,7,5s.072.01.11.011A6.54,6.54,0,0,1,8.168,7ZM9.225,7a7.486,7.486,0,0,0-.712-1.7A4.011,4.011,0,0,1,10.444,7Z" />
    <path class="light-defaultgrey" d="M4.787,16H3.9l-.441-1.248H1.526L1.1,16H.213l1.836-4.9h.916ZM3.238,14.09l-.68-1.955a2.492,2.492,0,0,1-.065-.309H2.479a1.97,1.97,0,0,1-.068.309L1.738,14.09Z" />
    <path class="light-defaultgrey" d="M8.313,11.789H6.905V16H6.092V11.789h-1.4V11.1H8.313Z" />
    <path class="light-defaultgrey" d="M11.714,16H9V11.1h.813v4.214h1.9Z" />
  </g>
</svg>
