<svg xmlns="http://www.w3.org/2000/svg" viewBox="0 0 16 16">
  <defs>
    <style>.canvas{fill: none; opacity: 0;}.light-red-10{fill: #c50b17; opacity: 0.1;}.light-red{fill: #c50b17; opacity: 1;}.light-defaultgrey{fill: #212121; opacity: 1;}</style>
  </defs>
  <title>IconLightCPPATLServer</title>
  <g id="canvas" class="canvas">
    <path class="canvas" d="M16,16H0V0H16Z" />
  </g>
  <g id="level-1">
    <path class="light-red-10" d="M14.5,1.5v12H11.007V10H2.5V1.5Z" />
    <path class="light-red" d="M15,1.5,14.5,1H2.5L2,1.5V5l.5.5L2,6V9l.5.5-.464.464H11V10h3v3H11.007v1H14.5l.5-.5V10l-.5-.5L15,9V6l-.5-.5L15,5ZM14,9H3V6H14Zm0-4H3V2H14Z" />
    <path class="light-red" d="M13,4H11V3h2Zm0,3H11V8h2Zm0,4H11v1h2Z" />
    <path class="light-defaultgrey" d="M4.787,16H3.9l-.441-1.248H1.526L1.1,16H.213l1.836-4.9h.916ZM3.238,14.09l-.68-1.955a2.492,2.492,0,0,1-.065-.309H2.479a1.97,1.97,0,0,1-.068.309L1.738,14.09Z" />
    <path class="light-defaultgrey" d="M8.313,11.789H6.905V16H6.092V11.789h-1.4V11.1H8.313Z" />
    <path class="light-defaultgrey" d="M11.714,16H9V11.1h.813v4.214h1.9Z" />
  </g>
</svg>
