<svg xmlns="http://www.w3.org/2000/svg" viewBox="0 0 16 16">
  <defs>
    <style>.canvas{fill: none; opacity: 0;}.light-defaultgrey-10{fill: #212121; opacity: 0.1;}.light-defaultgrey{fill: #212121; opacity: 1;}.light-red{fill: #c50b17; opacity: 1;}.cls-1{opacity:0.75;}</style>
  </defs>
  <title>IconLightCPPCustomWizardProject</title>
  <g id="canvas" class="canvas">
    <path class="canvas" d="M16,16H0V0H16Z" />
  </g>
  <g id="level-1">
    <g class="cls-1">
      <path class="light-defaultgrey-10" d="M14.5,5.5v8H1.5V5.648l.029.146A1.5,1.5,0,0,0,4.1,6.523a1.5,1.5,0,0,0,1.112.948l.269.053.053.27a1.5,1.5,0,0,0,2.942,0l.053-.268.27-.054A1.5,1.5,0,0,0,10,6a1.489,1.489,0,0,0-.088-.5Z" />
      <path class="light-defaultgrey" d="M15,5.5v8l-.5.5H1.5L1,13.5v-8l.392-.392.137.686A1.493,1.493,0,0,0,2,6.6V13H14V6H10a1.486,1.486,0,0,0-.4-1h4.9Z" />
    </g>
    <path class="light-defaultgrey-10" d="M14.5,2.5v3H9.912a1.5,1.5,0,0,0-1.119-.971l-.269-.053-.053-.27A1.5,1.5,0,0,0,7,3a1.489,1.489,0,0,0-.088-.5Z" />
    <path class="light-defaultgrey" d="M1.61,6H1.5L1,5.5V4.63l.309.061.22,1.1A1.4,1.4,0,0,0,1.61,6ZM14.5,2H6.6A1.486,1.486,0,0,1,7,3h7V5H9.6A1.486,1.486,0,0,1,10,6h4.5l.5-.5v-3Z" />
    <path class="light-red" d="M.4,2.51l1.313-.263a.678.678,0,0,0,.532-.532L2.51.4a.5.5,0,0,1,.98,0l.263,1.313a.678.678,0,0,0,.532.532L5.6,2.51a.5.5,0,0,1,0,.98l-1.313.263a.678.678,0,0,0-.532.532L3.49,5.6a.5.5,0,0,1-.98,0L2.247,4.285a.678.678,0,0,0-.532-.532L.4,3.49a.5.5,0,0,1,0-.98Zm5,3,.786-.157a.212.212,0,0,0,.165-.163L6.51,4.4a.5.5,0,0,1,.98,0l.157.786a.212.212,0,0,0,.163.165L8.6,5.51a.5.5,0,0,1,0,.98l-.786.157a.212.212,0,0,0-.165.163L7.49,7.6a.5.5,0,0,1-.98,0l-.157-.786a.212.212,0,0,0-.163-.165L5.4,6.49a.5.5,0,0,1,0-.98Z" />
  </g>
</svg>
