<svg xmlns="http://www.w3.org/2000/svg" viewBox="0 0 16 16">
  <defs>
    <style>.canvas{fill: none; opacity: 0;}.light-red-10{fill: #c50b17; opacity: 0.1;}.light-red{fill: #c50b17; opacity: 1;}</style>
  </defs>
  <title>IconLightCPPSQLDatabase</title>
  <g id="canvas" class="canvas">
    <path class="canvas" d="M16,16H0V0H16Z" />
    <path class="canvas" d="M16,16H0V0H16Z" />
  </g>
  <g id="level-1">
    <path class="light-red-10" d="M8.043,2.5c-2.165,0-4.5.574-4.5,1.5v9c0,.827,2.018,1.5,4.5,1.5s4.5-.673,4.5-1.5V4C12.543,3.074,10.207,2.5,8.043,2.5Z" />
    <path class="light-red" d="M8,2C5.592,2,3,2.626,3,4v9c0,1.374,2.592,2,5,2s5-.626,5-2V4C13,2.626,10.408,2,8,2Zm4,11c0,.233-1.247,1-4,1s-4-.767-4-1V5.264A9.519,9.519,0,0,0,8,6a9.519,9.519,0,0,0,4-.736ZM8,5C5.375,5,4,4.257,4,4S5.375,3,8,3s4,.743,4,1S10.625,5,8,5Z" />
  </g>
</svg>
