<svg xmlns="http://www.w3.org/2000/svg" viewBox="0 0 16 16">
  <defs>
    <style>.canvas{fill: none; opacity: 0;}.light-red-10{fill: #c50b17; opacity: 0.1;}.light-defaultgrey-10{fill: #212121; opacity: 0.1;}.light-red{fill: #c50b17; opacity: 1;}.light-defaultgrey{fill: #212121; opacity: 1;}.cls-1{opacity:0.75;}</style>
  </defs>
  <title>IconLightCPPTestLibrary</title>
  <g id="canvas" class="canvas">
    <path class="canvas" d="M16,16H0V0H16Z" />
  </g>
  <g id="level-1">
    <path class="light-red-10" d="M1.5,13.5h4l1,1.5-.5.5H1L.5,15Z" />
    <path class="light-defaultgrey-10" d="M14.389,12l-1.931.517L9.611,1.9l1.931-.517ZM7,7v3H6v1.069L6.894,12.5H7.5V1.5h-2V7ZM3.5,7V1.5h-2V7Z" />
    <g class="cls-1">
      <path class="light-red-10" d="M2.5,8.5h2v3l1.25,2H1.25l1.25-2Z" />
      <path class="light-red" d="M2,9H1V8H6V9H5v2.356L6.028,13H4.849L4,11.644V9H3v2.644L2.153,13H.974L2,11.356Z" />
    </g>
    <path class="light-red" d="M5.883,16H1.12a1.12,1.12,0,0,1-.95-1.714L.974,13H6.028l.8,1.287A1.12,1.12,0,0,1,5.883,16ZM1.529,14l-.511.816a.114.114,0,0,0,0,.122A.116.116,0,0,0,1.12,15H5.883a.12.12,0,0,0,.1-.183L5.474,14Z" />
    <path class="light-defaultgrey" d="M12.025,1.249,11.412.9,9.48,1.413l-.353.613,2.848,10.625.613.354,1.932-.518.353-.613Zm.787,10.66L10.223,2.25l.965-.259,2.589,9.659ZM5,7V1.5L5.5,1h2l.5.5v11l-.5.5H7.206l-.625-1H7V2H6V7ZM1,7V1.5L1.5,1h2l.5.5V7H3V2H2V7Z" />
  </g>
</svg>
