<svg xmlns="http://www.w3.org/2000/svg" viewBox="0 0 16 16">
  <defs>
    <style>.canvas{fill: none; opacity: 0;}.light-defaultgrey-10{fill: #212121; opacity: 0.1;}.light-defaultgrey{fill: #212121; opacity: 1;}.light-red-10{fill: #c50b17; opacity: 0.1;}.light-red{fill: #c50b17; opacity: 1;}.cls-1{opacity:0.75;}</style>
  </defs>
  <title>CPPTestApplication</title>
  <g id="canvas" class="canvas">
    <path class="canvas" d="M16,16H0V0H16Z" />
  </g>
  <g id="level-1">
    <g class="cls-1">
      <path class="light-defaultgrey-10" d="M14.5,4.5v8H7.894L7,11.069V10H8V7H1.5V4.5Z" />
      <path class="light-defaultgrey" d="M15,4.5v8l-.5.5H8.207l-.625-1H14V5H2V7H1V4.5L1.5,4h13Z" />
    </g>
    <path class="light-defaultgrey-10" d="M14.5,1.5v3H1.5v-3Z" />
    <path class="light-defaultgrey" d="M14.5,5H1.5L1,4.5v-3L1.5,1h13l.5.5v3ZM2,4H14V2H2Z" />
    <path class="light-red-10" d="M2.5,13.5h4l1,1.5-.5.5H2L1.5,15Z" />
    <g class="cls-1">
      <path class="light-red-10" d="M3.5,8.5h2v3l1.25,2h-4.5l1.25-2Z" />
      <path class="light-red" d="M3,9H2V8H7V9H6v2.356L7.027,13H5.848L5,11.644V9H4v2.644L3.152,13H1.973L3,11.356Z" />
    </g>
    <path class="light-red" d="M6.881,16H2.119a1.12,1.12,0,0,1-.95-1.714L1.973,13H7.027l.8,1.287A1.12,1.12,0,0,1,6.881,16ZM2.527,14l-.51.816a.12.12,0,0,0,.1.184H6.881a.115.115,0,0,0,.1-.062.112.112,0,0,0,0-.121L6.473,14Z" />
  </g>
</svg>
