<svg xmlns="http://www.w3.org/2000/svg" viewBox="0 0 16 16">
  <defs>
    <style>.canvas{fill: none; opacity: 0;}.light-defaultgrey{fill: #212121; opacity: 1;}.light-defaultgrey-10{fill: #212121; opacity: 0.1;}.light-yellow{fill: #996f00; opacity: 1;}.cls-1{opacity:0.75;}</style>
  </defs>
  <title>IconLightCreateNewPullRequest</title>
  <g id="canvas" class="canvas">
    <path class="canvas" d="M16,16H0V0H16Z" />
  </g>
  <g id="level-1">
    <g class="cls-1">
      <path class="light-defaultgrey" d="M14,9.5v3H13v-3A1.5,1.5,0,0,0,11.5,8h-.793l1.147,1.146-.708.708-2-2V7.146l2-2,.708.708L10.707,7H11.5A2.5,2.5,0,0,1,14,9.5Z" />
      <path class="light-defaultgrey" d="M7,9v3.5H6V9Z" />
    </g>
    <path class="light-defaultgrey-10" d="M15,14a1.5,1.5,0,1,1-1.5-1.5A1.5,1.5,0,0,1,15,14Z" />
    <path class="light-defaultgrey-10" d="M8,14a1.5,1.5,0,1,1-1.5-1.5A1.5,1.5,0,0,1,8,14Z" />
    <path class="light-defaultgrey-10" d="M8,7.5a1.5,1.5,0,0,1-2.978.218A4.5,4.5,0,0,0,7.128,6.142,1.5,1.5,0,0,1,8,7.5Z" />
    <path class="light-defaultgrey" d="M13.5,16a2,2,0,1,1,2-2A2,2,0,0,1,13.5,16Zm0-3a1,1,0,1,0,1,1A1,1,0,0,0,13.5,13Z" />
    <path class="light-defaultgrey" d="M6.5,16a2,2,0,1,1,2-2A2,2,0,0,1,6.5,16Zm0-3a1,1,0,1,0,1,1A1,1,0,0,0,6.5,13Z" />
    <path class="light-defaultgrey" d="M8.5,7.5a2,2,0,0,1-3.963.368A4.4,4.4,0,0,0,5.5,7.51a1,1,0,0,0,2-.01.988.988,0,0,0-.715-.942,4.489,4.489,0,0,0,.607-.838A1.994,1.994,0,0,1,8.5,7.5Z" />
    <path class="light-yellow" d="M4,5,4,7H3L3,5l.5-.5ZM2.792,4.206v.706L1.38,6.329.672,5.622,2.084,4.206ZM5,3,7,3V4L5,4l-.5-.5Zm-.791-.207V2.087L5.62.671l.707.706L4.915,2.794Zm0,2.121V4.208h.706L6.329,5.62l-.707.707ZM2,4,0,4V3L2,3l.5.5Zm.793-1.914v.708H2.088L.671,1.38,1.378.672ZM3,2,3,0H4L4,2l-.5.5Z" />
  </g>
</svg>
