<svg xmlns="http://www.w3.org/2000/svg" viewBox="0 0 16 16">
  <defs>
    <style>.canvas{fill: none; opacity: 0;}.light-defaultgrey{fill: #212121; opacity: 1;}.light-defaultgrey-10{fill: #212121; opacity: 0.1;}.cls-1{opacity:0.75;}</style>
  </defs>
  <title>IconLightCrossGroupLink</title>
  <g id="canvas">
    <path class="canvas" d="M0,0H16V16H0Z" />
  </g>
  <g id="level-1">
    <g class="cls-1">
      <path class="light-defaultgrey" d="M13,3V7h2V8H13v4h2v1H12.5l-.5-.5V8H11V7h1V2.5l.5-.5H15V3ZM1,12v1H3.5l.5-.5V8H5V7H4V2.5L3.5,2H1V3H3V7H1V8H3v4Z" />
    </g>
    <path class="light-defaultgrey-10" d="M10.5,9.5h-5v-4h5Z" />
    <path class="light-defaultgrey" d="M10.5,10h-5L5,9.5v-4L5.5,5h5l.5.5v4ZM6,9h4V6H6Z" />
  </g>
</svg>
