<svg xmlns="http://www.w3.org/2000/svg" viewBox="0 0 16 16">
  <defs>
    <style>.canvas{fill: none; opacity: 0;}.light-defaultgrey-10{fill: #212121; opacity: 0.1;}.light-defaultgrey{fill: #212121; opacity: 1;}.light-green{fill: #1f801f; opacity: 1;}.cls-1{opacity:0;fill:none;}.cls-2{opacity:0.75;}</style>
  </defs>
  <title>IconLightCSBlankApplication</title>
  <g id="canvas" class="canvas">
    <path class="canvas" d="M0,0H16V16H0Z" />
  </g>
  <g id="level-1">
    <path class="cls-1" d="M16,16H0V0H16Z" />
    <path class="cls-1" d="M16,16H0V0H16Z" />
    <g class="cls-2">
      <path class="light-defaultgrey-10" d="M14.5,13h-6l1,1H2L1,13V5.5l.5.5V5h13Z" />
      <path class="light-defaultgrey-10" d="M14,3V5H2V3Z" />
      <path class="light-defaultgrey" d="M14.5,2H1.5L1,2.5V5.586l1,1V6H14v7H8.414l1,1H14.5l.5-.5V2.5ZM2,5V3H14V5Zm.586,8,1,1H1.5L1,13.5V11.414l1,1V13Z" />
    </g>
    <path class="light-green" d="M5,14,1,10V7l7,7Z" />
  </g>
</svg>
