<svg xmlns="http://www.w3.org/2000/svg" viewBox="0 0 16 16">
  <defs>
    <style>.canvas{fill: none; opacity: 0;}.light-defaultgrey-10{fill: #212121; opacity: 0.1;}.light-defaultgrey{fill: #212121; opacity: 1;}.light-green{fill: #1f801f; opacity: 1;}.cls-1{opacity:0.75;}</style>
  </defs>
  <title>IconLightCSBlankFile</title>
  <g id="canvas" class="canvas">
    <path class="canvas" d="M0,0H16V16H0Z" />
  </g>
  <g id="level-1">
    <g class="cls-1">
      <path class="light-defaultgrey-10" d="M13,5v9H10l1,1H4L2,13V6L3,7V2h7Z" />
      <path class="light-defaultgrey" d="M3.586,14l1,1H2.5L2,14.5V12.414l1,1V14ZM13.854,4.146l-3-3L10.5,1h-8L2,1.5V6.586l1,1V2h7V5h3v9H9.414l1,1H13.5l.5-.5V4.5Z" />
    </g>
    <path class="light-green" d="M6,15,2,11V8l7,7Z" />
  </g>
</svg>
