<svg xmlns="http://www.w3.org/2000/svg" viewBox="0 0 16 16">
  <defs>
    <style>.canvas{fill: none; opacity: 0;}.light-green-10{fill: #1f801f; opacity: 0.1;}.light-green{fill: #1f801f; opacity: 1;}.cls-1{opacity:0.75;}</style>
  </defs>
  <title>IconLightCSCloudBusinessApplication</title>
  <g id="canvas" class="canvas">
    <path class="canvas" d="M0,0H16V16H0Z" />
  </g>
  <g id="level-1">
    <g class="cls-1">
      <path class="light-green-10" d="M15.5,1.5v7H13v-5L12.5,3h-4V1.5Z" />
      <path class="light-green" d="M16,1.5v7l-.5.5H13V8h2V3.414l-2,2V4l2-2H9V3H8V1.5L8.5,1h7Z" />
    </g>
    <path class="light-green-10" d="M12.5,13.5H.5V3.5h12Z" />
    <path class="light-green" d="M12.5,14H.5L0,13.5V3.5L.5,3h12l.5.5v10ZM1,13H12V4H1Z" />
    <path class="light-green" d="M12,7.429l-3.295,3.3H8L4.629,7.356,1,10.985V9.571L4.275,6.3h.707L8.351,9.664,12,6.015Z" />
  </g>
</svg>
