<svg xmlns="http://www.w3.org/2000/svg" viewBox="0 0 16 16">
  <defs>
    <style>.canvas{fill: none; opacity: 0;}.light-defaultgrey{fill: #212121; opacity: 1;}.light-green-10{fill: #1f801f; opacity: 0.1;}.light-green{fill: #1f801f; opacity: 1;}.cls-1{opacity:0.75;}</style>
  </defs>
  <title>IconLightCSCodeTest</title>
  <g id="canvas" class="canvas">
    <path class="canvas" d="M0,0H16V16H0Z" />
  </g>
  <g id="level-1">
    <path class="light-defaultgrey" d="M7.972,8h4V9h-4Zm1-1h4V6h-4Zm-1-5h-4V3h4Zm-2,3h4V4h-4Zm5,0h3V4h-3Zm-2-3V3h5V2Z" />
    <path class="light-green-10" d="M1.5,13.5h4l1,1.5-.5.5H1L.5,15Z" />
    <path class="light-green" d="M5.883,16H1.12a1.12,1.12,0,0,1-.95-1.714L.974,13H6.028l.8,1.287A1.12,1.12,0,0,1,5.883,16ZM1.529,14l-.511.816a.114.114,0,0,0,0,.122A.116.116,0,0,0,1.12,15H5.883a.12.12,0,0,0,.1-.183L5.474,14Z" />
    <g class="cls-1">
      <path class="light-green-10" d="M2.5,8.5h2v3l1.25,2H1.25l1.25-2Z" />
      <path class="light-green" d="M2,9H1V8H6V9H5v2.356L6.028,13H4.849L4,11.644V9H3v2.644L2.153,13H.974L2,11.356Z" />
    </g>
  </g>
</svg>
