<svg xmlns="http://www.w3.org/2000/svg" viewBox="0 0 16 16">
  <defs>
    <style>.canvas{fill: none; opacity: 0;}.light-defaultgrey-10{fill: #212121; opacity: 0.1;}.light-defaultgrey{fill: #212121; opacity: 1;}.light-green{fill: #1f801f; opacity: 1;}</style>
  </defs>
  <title>IconLightCSDynamicWebSite</title>
  <g id="canvas" class="canvas">
    <path class="canvas" d="M0,0H16V16H0Z" />
  </g>
  <g id="level-1">
    <path class="canvas" d="M0,0H16V16H0Z" />
    <path class="light-defaultgrey-10" d="M15,8a7,7,0,0,1-7,7c-.235,0-.468-.013-.7-.035l1.7-1.7V11.732L6.056,8.788,4.844,10H3.156L1.944,8.788l-.765.766A7,7,0,1,1,15,8Z" />
    <path class="light-defaultgrey" d="M8,1A6.978,6.978,0,0,0,1.18,9.553l.764-.765.138.138A5.882,5.882,0,0,1,2,8a5.976,5.976,0,0,1,.35-2H4.7a10.2,10.2,0,0,0,0,4h.146L5.6,9.246A9.073,9.073,0,0,1,5.5,8a9.487,9.487,0,0,1,.222-2h4.556A9.487,9.487,0,0,1,10.5,8a9.487,9.487,0,0,1-.222,2H7.268l1,1h1.737A9.56,9.56,0,0,1,9,13.1v.171l-1.7,1.7c.229.023.462.035.7.035A7,7,0,0,0,8,1ZM4.946,5H2.812a6.023,6.023,0,0,1,3.4-2.727A10.517,10.517,0,0,0,4.946,5ZM6,5A9.481,9.481,0,0,1,7.628,2.019C7.752,2.011,7.874,2,8,2s.249.011.373.019A9.479,9.479,0,0,1,10.005,5ZM9.789,2.273A6.021,6.021,0,0,1,13.188,5H11.053A10.484,10.484,0,0,0,9.789,2.273Zm0,11.454A10.484,10.484,0,0,0,11.053,11h2.135A6.021,6.021,0,0,1,9.789,13.727ZM11.3,10a10.2,10.2,0,0,0,0-4H13.65a5.889,5.889,0,0,1,0,4Z" />
    <path class="light-green" d="M6.056,10.2,8,12.146v.708L6.056,14.8l-.707-.707L6.44,13H1.561l1.09,1.091-.707.707L0,12.854v-.708L1.944,10.2l.707.707L1.561,12H6.44L5.349,10.909Z" />
  </g>
</svg>
