<svg xmlns="http://www.w3.org/2000/svg" viewBox="0 0 16 16">
  <defs>
    <style>.canvas{fill: none; opacity: 0;}.light-green{fill: #1f801f; opacity: 1;}.light-green-10{fill: #1f801f; opacity: 0.1;}.cls-1{opacity:0.75;}</style>
  </defs>
  <title>IconLightCSInterface</title>
  <g id="canvas" class="canvas">
    <path class="canvas" d="M0,0H16V16H0Z" />
  </g>
  <g id="level-1">
    <g class="cls-1">
      <path class="light-green" d="M4.949,8a2.476,2.476,0,0,0,0-1h3.1A3.443,3.443,0,0,0,8,7.5a3.443,3.443,0,0,0,.051.5Z" />
    </g>
    <path class="light-green-10" d="M4.5,7.5a2,2,0,1,1-2-2A2,2,0,0,1,4.5,7.5Z" />
    <path class="light-green-10" d="M14.5,7.5a3,3,0,1,1-3-3A3,3,0,0,1,14.5,7.5Z" />
    <path class="light-green" d="M2.5,5A2.5,2.5,0,1,0,5,7.5,2.5,2.5,0,0,0,2.5,5Zm0,4A1.5,1.5,0,1,1,4,7.5,1.5,1.5,0,0,1,2.5,9Z" />
    <path class="light-green" d="M11.5,4A3.5,3.5,0,1,0,15,7.5,3.5,3.5,0,0,0,11.5,4Zm0,6A2.5,2.5,0,1,1,14,7.5,2.5,2.5,0,0,1,11.5,10Z" />
  </g>
</svg>
