<svg xmlns="http://www.w3.org/2000/svg" viewBox="0 0 16 16">
  <defs>
    <style>.canvas{fill: none; opacity: 0;}.light-defaultgrey{fill: #212121; opacity: 1;}.light-green-10{fill: #1f801f; opacity: 0.1;}.light-defaultgrey-10{fill: #212121; opacity: 0.1;}.light-green{fill: #1f801f; opacity: 1;}</style>
  </defs>
  <title>IconLightCSPhoneWebApplication</title>
  <g id="canvas" class="canvas">
    <path class="canvas" d="M0,0H16V16H0Z" />
  </g>
  <g id="level-1">
    <path class="light-defaultgrey" d="M8,1A7,7,0,0,0,1.307,6h8.971A9.487,9.487,0,0,1,10.5,8a9.487,9.487,0,0,1-.222,2H7v1h3.005a9.479,9.479,0,0,1-1.632,2.981C8.249,13.989,8.126,14,8,14s-.249-.011-.373-.019A9.31,9.31,0,0,1,7,13.1v1.817l0,.005A7,7,0,1,0,8,1ZM4.946,5H2.812a6.023,6.023,0,0,1,3.4-2.727A10.517,10.517,0,0,0,4.946,5ZM6,5A9.481,9.481,0,0,1,7.628,2.019C7.752,2.011,7.874,2,8,2s.249.011.373.019A9.479,9.479,0,0,1,10.005,5ZM9.789,2.273A6.021,6.021,0,0,1,13.188,5H11.053A10.484,10.484,0,0,0,9.789,2.273Zm0,11.454A10.484,10.484,0,0,0,11.053,11h2.135A6.021,6.021,0,0,1,9.789,13.727ZM11.3,10a10.2,10.2,0,0,0,0-4H13.65a5.889,5.889,0,0,1,0,4Z" />
    <path class="light-green-10" d="M5.5,15.5H.5v-8h5Z" />
    <path class="light-defaultgrey-10" d="M14.5,8A6.484,6.484,0,0,1,7,14.42V7.086L5.914,6H1.833A6.49,6.49,0,0,1,14.5,8Z" />
    <path class="light-green" d="M5.5,7H.5L0,7.5v8l.5.5h5l.5-.5v-8ZM5,15H1V8H5ZM4,14H2V13H4Z" />
  </g>
</svg>
