<svg xmlns="http://www.w3.org/2000/svg" viewBox="0 0 16 16">
  <defs>
    <style>.canvas{fill: none; opacity: 0;}.light-defaultgrey-10{fill: #212121; opacity: 0.1;}.light-defaultgrey{fill: #212121; opacity: 1;}.light-green-10{fill: #1f801f; opacity: 0.1;}.light-green{fill: #1f801f; opacity: 1;}</style>
  </defs>
  <title>IconLightCSRibbonCustomAction</title>
  <g id="canvas" class="canvas">
    <path class="canvas" d="M0,0H16V16H0Z" />
  </g>
  <g id="level-1">
    <path class="light-defaultgrey-10" d="M14.5,4.5v5H10V10H9V9H2V4.5H3.5v-2h4v2Z" />
    <path class="light-defaultgrey" d="M4.5,6l.5.5v1L4.5,8h-1L3,7.5v-1L3.5,6Zm8,2,.5-.5v-1L12.5,6h-1l-.5.5v1l.5.5ZM7,6.5v1l.5.5h1L9,7.5v-1L8.5,6h-1Zm8-2v5l-.5.5H1.5L1,9.5v-5L1.5,4H3V2.5L3.5,2h4l.5.5V4h6.5ZM14,5H7.5L7,4.5V3H4V4.5L3.5,5H2V9H14Z" />
    <path class="light-green-10" d="M5.5,13.5l-3,2v-4Z" />
    <path class="light-green" d="M2,11.5v4l.777.416,3-2v-.832l-3-2Zm1,.935L4.6,13.5,3,14.565ZM0,11H1v5H0Zm8,0v5H7V11Z" />
  </g>
</svg>
