<svg xmlns="http://www.w3.org/2000/svg" viewBox="0 0 16 16">
  <defs>
    <style>.canvas{fill: none; opacity: 0;}.light-defaultgrey-10{fill: #212121; opacity: 0.1;}.light-defaultgrey{fill: #212121; opacity: 1;}</style>
  </defs>
  <title>IconLightCSSClass</title>
  <g id="canvas" class="canvas">
    <path class="canvas" d="M0,0H16V16H0Z" />
  </g>
  <g id="level-1">
    <path class="light-defaultgrey-10" d="M2.5,2.5v11h11V2.5Zm5.5,9A3.5,3.5,0,1,1,11.5,8,3.5,3.5,0,0,1,8,11.5Z" />
    <path class="light-defaultgrey" d="M13.5,14H2.5L2,13.5V2.5L2.5,2h11l.5.5v11ZM3,13H13V3H3Zm5-1a4,4,0,1,1,4-4A4,4,0,0,1,8,12ZM8,5a3,3,0,1,0,3,3A3,3,0,0,0,8,5Z" />
  </g>
</svg>
