<svg xmlns="http://www.w3.org/2000/svg" viewBox="0 0 16 16">
  <defs>
    <style>.canvas{fill: none; opacity: 0;}.light-green-10{fill: #1f801f; opacity: 0.1;}.light-green{fill: #1f801f; opacity: 1;}</style>
  </defs>
  <title>IconLightCSSilverlight</title>
  <g id="canvas" class="canvas">
    <path class="canvas" d="M0,0H16V16H0Z" />
  </g>
  <g id="level-1">
    <path class="light-green-10" d="M6.716,14.023h0c-3.1-.571-5.279-1.893-5.279-3.432C1.437,6.122,4.5,2.5,8.282,2.5a6.92,6.92,0,0,1,6.281,4.87Z" />
    <path class="light-green" d="M15.089,7.18h0c0-.011-.009-.019-.013-.029A7.4,7.4,0,0,0,8.345,2C4.3,2,1,5.854,1,10.59c0,1.775,2.18,3.278,5.689,3.925L7.1,14.4,14.95,7.752,15.1,7.2Zm-1.37-.514a19.669,19.669,0,0,0-3.242-.3,3.02,3.02,0,0,1,1.4-.841C12.565,5.386,13.182,5.776,13.719,6.666ZM8.345,3a5.692,5.692,0,0,1,3.787,1.5,2.431,2.431,0,0,0-.452.044A4.791,4.791,0,0,0,9.118,6.389,12.669,12.669,0,0,0,2.265,8.418C3.047,5.288,5.477,3,8.345,3Zm.018,4.445A14.693,14.693,0,0,0,6.7,11.267a10.083,10.083,0,0,0-2.038-3.01A14.411,14.411,0,0,1,8.363,7.445ZM2,10.59c0-.647.609-1.324,1.671-1.891a8.184,8.184,0,0,1,2.574,4.694C3.721,12.813,2,11.7,2,10.59Zm5.371,2.275A13.113,13.113,0,0,1,9.611,7.37c.2-.006.4-.014.6-.014a18.684,18.684,0,0,1,3.318.289Z" />
  </g>
</svg>
