<svg xmlns="http://www.w3.org/2000/svg" viewBox="0 0 16 16">
  <defs>
    <style>.canvas{fill: none; opacity: 0;}.light-defaultgrey-10{fill: #212121; opacity: 0.1;}.light-defaultgrey{fill: #212121; opacity: 1;}.light-green-10{fill: #1f801f; opacity: 0.1;}.light-green{fill: #1f801f; opacity: 1;}</style>
  </defs>
  <title>IconLightCSSilverlightPhone</title>
  <g id="canvas" class="canvas">
    <path class="canvas" d="M0,0H16V16H0Z" />
  </g>
  <g id="level-1">
    <path class="light-defaultgrey-10" d="M15.5,1.5v13h-8L7,14.375v-.211l2.265-1.921.315-1.212-.161-.353A5.884,5.884,0,0,0,7,7.739V7.5h.5v-6Z" />
    <path class="light-defaultgrey" d="M16,1.5v13l-.5.5h-8L7,14.5v-.336l1-.848V14h7V2H8V8.5a5.415,5.415,0,0,0-1-.763V1.5L7.5,1h8ZM13,13H10V12h3ZM12,4H11V3h1Z" />
    <path class="light-green-10" d="M3.443,15.118c-1.784-.351-2.93-1.113-2.93-1.955,0-2.568,1.767-4.657,3.939-4.657a3.953,3.953,0,0,1,3.559,2.663l-.063.243L3.637,15.066Z" />
    <path class="light-green" d="M8.516,11.113h0l-.011-.023A4.462,4.462,0,0,0,4.439,8C1.992,8,0,10.313,0,13.156c0,1.13,1.321,2.075,3.448,2.468l.414-.11,4.516-3.829.146-.555ZM7.005,10.6c-.224-.028-.45-.054-.681-.069a1.072,1.072,0,0,1,.188-.085A.609.609,0,0,1,7.005,10.6ZM4.439,9a2.985,2.985,0,0,1,1.671.532,3.153,3.153,0,0,0-1.344,1.012,8.35,8.35,0,0,0-3.442.852A3.467,3.467,0,0,1,4.439,9Zm-.4,2.613a8.668,8.668,0,0,0-.6,1.356,6.16,6.16,0,0,0-.755-1.063A8.2,8.2,0,0,1,4.041,11.613ZM1,13.156c0-.261.25-.562.711-.834a4.666,4.666,0,0,1,1.258,2.166C1.677,14.139,1,13.585,1,13.156Zm3.216.746a7.584,7.584,0,0,1,1.055-2.385c.083,0,.158-.01.243-.01a10.774,10.774,0,0,1,1.419.092Z" />
  </g>
</svg>
