<svg xmlns="http://www.w3.org/2000/svg" viewBox="0 0 16 16">
  <defs>
    <style>.canvas{fill: none; opacity: 0;}.light-defaultgrey-10{fill: #212121; opacity: 0.1;}.light-defaultgrey{fill: #212121; opacity: 1;}.light-green-10{fill: #1f801f; opacity: 0.1;}.light-green{fill: #1f801f; opacity: 1;}.cls-1{opacity:0.75;}</style>
  </defs>
  <title>IconLightCSTestLibrary</title>
  <g id="canvas" class="canvas">
    <path class="canvas" d="M0,0H16V16H0Z" />
  </g>
  <g id="level-1">
    <path class="light-defaultgrey-10" d="M3.5,7h-2V1.5h2Zm2,0V1.5h2V7.005H8v5.5l-.291.291H7.7l-.017-.027v0l-.488.171-.214-.344L6.03,11.069V10.005H7V7Z" />
    <path class="light-defaultgrey-10" d="M14.5,11.982l-1.932.518L9.721,1.875l1.932-.518Z" />
    <path class="light-defaultgrey" d="M2.028,7h-1V1.5l.5-.5h2l.5.5V7h-1V2h-1Zm5.5-6,.5.5v11l-.291.292-.534.16-.175-.279V10h0V7h0V2h-1V7h-1V1.5l.5-.5Zm4.526.25L11.441.891l-1.932.518-.354.613L12,12.647l.613.353,1.932-.517.353-.613Zm.786,10.66-2.589-9.66.966-.258,2.589,9.659Z" />
    <g class="cls-1">
      <path class="light-green-10" d="M2.528,8.5h2v3l1.25,2h-4.5l1.25-2Z" />
      <path class="light-green" d="M2.03,9h-1V8h5V9h-1v2.356L6.056,13H4.878L4.03,11.644V9h-1v2.644L2.182,13H1L2.03,11.356Z" />
    </g>
    <path class="light-green-10" d="M1.528,13.5h4l1,1.5-.5.5h-5l-.5-.5Z" />
    <path class="light-green" d="M5.911,16H1.148A1.12,1.12,0,0,1,.2,14.286L1,13H6.056l.8,1.287A1.12,1.12,0,0,1,5.911,16ZM1.557,14l-.511.816a.118.118,0,0,0,0,.122.116.116,0,0,0,.1.062H5.911a.116.116,0,0,0,.105-.062.112.112,0,0,0,0-.121L5.5,14Z" />
  </g>
</svg>
