<svg xmlns="http://www.w3.org/2000/svg" viewBox="0 0 16 16">
  <defs>
    <style>.canvas{fill: none; opacity: 0;}.light-green{fill: #1f801f; opacity: 1;}.light-green-10{fill: #1f801f; opacity: 0.1;}</style>
  </defs>
  <title>IconLightCSWebService</title>
  <g id="canvas" class="canvas">
    <path class="canvas" d="M0,0H16V16H0Z" />
  </g>
  <g id="level-1">
    <path class="light-green" d="M5,5V6H2V5ZM4,8H0V9H4ZM2,12H5V11H2Z" />
    <path class="light-green-10" d="M15.5,8A4.5,4.5,0,1,1,11,3.5,4.5,4.5,0,0,1,15.5,8Z" />
    <path class="light-green" d="M11,3a5,5,0,1,0,5,5A5.006,5.006,0,0,0,11,3Zm3.444,3H13.225a7.486,7.486,0,0,0-.712-1.7A4.011,4.011,0,0,1,14.444,6ZM15,8a3.939,3.939,0,0,1-.142,1H13.426A7.583,7.583,0,0,0,13.5,8a7.583,7.583,0,0,0-.074-1h1.432A3.939,3.939,0,0,1,15,8Zm-4,4c-.037,0-.072-.01-.109-.011A6.5,6.5,0,0,1,9.832,10h2.336a6.5,6.5,0,0,1-1.061,1.989C11.071,11.99,11.037,12,11,12Zm1.412-3H9.588A6.419,6.419,0,0,1,9.5,8a6.419,6.419,0,0,1,.088-1h2.824A6.419,6.419,0,0,1,12.5,8,6.419,6.419,0,0,1,12.412,9Zm-.244-3H9.832a6.5,6.5,0,0,1,1.059-1.989C10.928,4.01,10.963,4,11,4s.072.01.11.011A6.54,6.54,0,0,1,12.168,6ZM9.487,4.3A7.486,7.486,0,0,0,8.775,6H7.556A4.011,4.011,0,0,1,9.487,4.3ZM8.574,9H7.142A3.939,3.939,0,0,1,7,8a3.939,3.939,0,0,1,.142-1H8.574A7.583,7.583,0,0,0,8.5,8,7.583,7.583,0,0,0,8.574,9ZM7.556,10H8.775a7.486,7.486,0,0,0,.712,1.7A4.011,4.011,0,0,1,7.556,10Zm4.957,1.7a7.534,7.534,0,0,0,.713-1.7h1.218A4.011,4.011,0,0,1,12.513,11.7Z" />
  </g>
</svg>
