<svg xmlns="http://www.w3.org/2000/svg" viewBox="0 0 16 16">
  <defs>
    <style>.canvas{fill: none; opacity: 0;}.light-defaultgrey-10{fill: #212121; opacity: 0.1;}.light-defaultgrey{fill: #212121; opacity: 1;}.light-green-10{fill: #1f801f; opacity: 0.1;}.light-green{fill: #1f801f; opacity: 1;}</style>
  </defs>
  <title>IconLightCSWebPart</title>
  <g id="canvas" class="canvas">
    <path class="canvas" d="M0,0H16V16H0Z" />
  </g>
  <g id="level-1">
    <path class="light-defaultgrey-10" d="M15,8a7.016,7.016,0,0,1-6,6.916l0,0V10.088L7.912,9H1C1,5.134,4.134,1,8,1A7,7,0,0,1,15,8Z" />
    <path class="light-defaultgrey" d="M8,1A6.954,6.954,0,0,0,1.079,9h1.01A5.784,5.784,0,0,1,2,8a5.976,5.976,0,0,1,.35-2H4.7a10.514,10.514,0,0,0-.2,2c0,.335.018.669.051,1H5.558A8.757,8.757,0,0,1,5.5,8a9.487,9.487,0,0,1,.222-2h4.556A9.487,9.487,0,0,1,10.5,8a9.487,9.487,0,0,1-.222,2H8.912L9,10.088V11h1.005A9.5,9.5,0,0,1,9,13.089v1.829A6.995,6.995,0,0,0,8,1ZM4.946,5H2.812A6.049,6.049,0,0,1,3.9,3.667c.12-.113.226-.24.355-.344a5.96,5.96,0,0,1,1.8-.984c.054-.019.1-.049.157-.066A10.517,10.517,0,0,0,4.946,5ZM6,5a9.526,9.526,0,0,1,.87-1.875,9.451,9.451,0,0,1,.763-1.106C7.752,2.011,7.874,2,8,2s.248.011.372.019a9.451,9.451,0,0,1,.763,1.106A9.526,9.526,0,0,1,10.005,5ZM9.79,2.273c.055.017.1.047.157.066a5.96,5.96,0,0,1,1.8.984c.129.1.235.231.355.344A6.049,6.049,0,0,1,13.188,5H11.054A10.517,10.517,0,0,0,9.79,2.273Zm0,11.454A10.484,10.484,0,0,0,11.053,11h2.135A6.021,6.021,0,0,1,9.789,13.727ZM11.3,10a10.2,10.2,0,0,0,0-4H13.65a5.889,5.889,0,0,1,0,4Z" />
    <path class="light-green-10" d="M7.485,15.5H.515V10.523h6.97Z" />
    <path class="light-green" d="M4,14H2V12H4Zm2-2H5v2H6Zm2-1.5v5l-.5.5H.5L0,15.5v-5L.5,10h7ZM7,11H1.008l0,4H7Z" />
  </g>
</svg>
