<svg xmlns="http://www.w3.org/2000/svg" viewBox="0 0 16 16">
  <defs>
    <style>.canvas{fill: none; opacity: 0;}.light-defaultgrey-10{fill: #212121; opacity: 0.1;}.light-defaultgrey{fill: #212121; opacity: 1;}.light-green-10{fill: #1f801f; opacity: 0.1;}.light-green{fill: #1f801f; opacity: 1;}</style>
  </defs>
  <title>CSWebLilbrary</title>
  <g id="canvas" class="canvas">
    <path class="canvas" d="M0,0H16V16H0Z" />
  </g>
  <g id="level-1">
    <path class="light-defaultgrey-10" d="M15.39,13l-1.93.52L10.61,2.9l1.93-.52ZM2.5,5.55a3.068,3.068,0,0,1,.5-.2,4.74,4.74,0,0,1,1-.26,4.013,4.013,0,0,1,.5-.07V2.5h-2Zm4-.35a2.213,2.213,0,0,1,.5.15,4.534,4.534,0,0,1,1,.46,3.837,3.837,0,0,1,.5.32V2.5h-2Z" />
    <path class="light-defaultgrey" d="M13.03,2.25l-.62-.35-1.93.51-.35.62,2.84,10.62.62.35,1.93-.51.35-.62Zm.78,10.66L11.22,3.25l.97-.26,2.59,9.66ZM4.5,2l.5.5V5c-.17,0-.34.01-.5.02a4.013,4.013,0,0,0-.5.07V3H3V5.35a3.068,3.068,0,0,0-.5.2,3.4,3.4,0,0,0-.5.26V2.5L2.5,2Zm4,0,.5.5V6.54a4.723,4.723,0,0,0-.5-.41A3.837,3.837,0,0,0,8,5.81V3H7V5.35a2.213,2.213,0,0,0-.5-.15A2.784,2.784,0,0,0,6,5.09V2.5L6.5,2Z" />
    <path class="light-green-10" d="M9.5,11A4.5,4.5,0,1,1,5,6.5,4.5,4.5,0,0,1,9.5,11Z" />
    <path class="light-green" d="M5,6a5,5,0,1,0,5,5A5.006,5.006,0,0,0,5,6ZM8.444,9H7.225a7.486,7.486,0,0,0-.712-1.7A4.011,4.011,0,0,1,8.444,9ZM9,11a3.939,3.939,0,0,1-.142,1H7.426A7.583,7.583,0,0,0,7.5,11a7.583,7.583,0,0,0-.074-1H8.858A3.939,3.939,0,0,1,9,11ZM5,15c-.037,0-.072-.01-.109-.011A6.5,6.5,0,0,1,3.832,13H6.168a6.5,6.5,0,0,1-1.061,1.989C5.071,14.99,5.037,15,5,15Zm1.412-3H3.588A6.419,6.419,0,0,1,3.5,11a6.419,6.419,0,0,1,.088-1H6.412A6.419,6.419,0,0,1,6.5,11,6.419,6.419,0,0,1,6.412,12ZM6.168,9H3.832A6.5,6.5,0,0,1,4.891,7.011C4.928,7.01,4.963,7,5,7s.072.01.11.011A6.54,6.54,0,0,1,6.168,9ZM3.487,7.3A7.486,7.486,0,0,0,2.775,9H1.556A4.011,4.011,0,0,1,3.487,7.3ZM2.574,12H1.142a3.592,3.592,0,0,1,0-2H2.574A7.583,7.583,0,0,0,2.5,11,7.583,7.583,0,0,0,2.574,12ZM1.556,13H2.775a7.486,7.486,0,0,0,.712,1.7A4.011,4.011,0,0,1,1.556,13Zm4.957,1.7A7.534,7.534,0,0,0,7.226,13H8.444A4.011,4.011,0,0,1,6.513,14.7Z" />
  </g>
</svg>
