<svg xmlns="http://www.w3.org/2000/svg" viewBox="0 0 16 16">
  <defs>
    <style>.canvas{fill: none; opacity: 0;}.light-green-10{fill: #1f801f; opacity: 0.1;}.light-green{fill: #1f801f; opacity: 1;}.cls-1{opacity:0.75;}</style>
  </defs>
  <title>IconLightCSWF</title>
  <g id="canvas" class="canvas">
    <path class="canvas" d="M0,0H16V16H0Z" />
  </g>
  <g id="level-1">
    <g class="cls-1">
      <path class="light-green-10" d="M10.5,8.5a3,3,0,1,1-3-3A3,3,0,0,1,10.5,8.5Z" />
      <path class="light-green" d="M4.051,8A3.443,3.443,0,0,0,4,8.5a3.443,3.443,0,0,0,.051.5H3v3H2V8.5L2.5,8Z" />
      <path class="light-green" d="M8,5.051V4H7V5.051a3.5,3.5,0,1,0,1,0ZM7.5,11A2.5,2.5,0,1,1,10,8.5,2.5,2.5,0,0,1,7.5,11Z" />
      <path class="light-green" d="M13,8.5V12H12V9H10.949A3.443,3.443,0,0,0,11,8.5a3.443,3.443,0,0,0-.051-.5H12.5Z" />
    </g>
    <path class="light-green-10" d="M5.5,1.5h4v2h-4Zm-5,13h4v-2H.5Zm10-2v2h4v-2Z" />
    <path class="light-green" d="M10,1.5,9.5,1h-4L5,1.5v2l.5.5h4l.5-.5ZM9,3H6V2H9ZM.5,12l-.5.5v2l.5.5h4l.5-.5v-2L4.5,12ZM4,14H1V13H4Zm10.5-2h-4l-.5.5v2l.5.5h4l.5-.5v-2ZM14,14H11V13h3Z" />
  </g>
</svg>
