<svg xmlns="http://www.w3.org/2000/svg" viewBox="0 0 16 16">
  <defs>
    <style>.canvas{fill: none; opacity: 0;}.light-defaultgrey-10{fill: #212121; opacity: 0.1;}.light-defaultgrey{fill: #212121; opacity: 1;}.light-green{fill: #1f801f; opacity: 1;}</style>
  </defs>
  <title>IconLightCSWPFLibrary</title>
  <g id="canvas" class="canvas">
    <path class="canvas" d="M0,0H16V16H0Z" />
  </g>
  <g id="level-1">
    <path class="light-defaultgrey-10" d="M15.389,13.054l-1.931.517L10.611,2.946l1.931-.518Z" />
    <path class="light-defaultgrey-10" d="M2.5,9.818V2.5h2V11H3.682ZM6,11V9.45h.5V2.5h2V9.818L7.318,11Z" />
    <path class="light-defaultgrey" d="M13.025,2.3l-.613-.354-1.932.518-.353.613L12.975,13.7l.613.354,1.932-.518.353-.613Zm.787,10.66L11.223,3.3l.965-.259L14.777,12.7Z" />
    <path class="light-defaultgrey" d="M2,9.9V2.5L2.5,2h2l.5.5V11H4V3H3v7.318l-.707-.707ZM6,11V2.5L6.5,2h2l.5.5V9.9l-.293-.293L8,10.318V3H7v8Z" />
    <path class="light-green" d="M3,11.732,1.232,13.5,3,15.268l-.707.707L.172,13.854v-.708l2.121-2.121Zm5.707-.707L8,11.732,9.768,13.5,8,15.268l.707.707,2.121-2.121v-.708ZM4,15H7V12H4Z" />
  </g>
</svg>
