<svg xmlns="http://www.w3.org/2000/svg" viewBox="0 0 16 16">
  <defs>
    <style>.canvas{fill: none; opacity: 0;}.light-defaultgrey-10{fill: #212121; opacity: 0.1;}.light-defaultgrey{fill: #212121; opacity: 1;}.light-green{fill: #1f801f; opacity: 1;}</style>
  </defs>
  <title>IconLightCSWPFUserControl</title>
  <g id="canvas" class="canvas">
    <path class="canvas" d="M0,0H16V16H0Z" />
  </g>
  <g id="level-1">
    <path class="light-defaultgrey-10" d="M7.318,11H5.5A4.727,4.727,0,0,1,10,6.5,4.5,4.5,0,0,1,14.5,11H10.1L8.707,9.611Z" />
    <path class="light-defaultgrey-10" d="M10,6.5A2.5,2.5,0,1,1,12.5,4,2.5,2.5,0,0,1,10,6.5Z" />
    <path class="light-defaultgrey" d="M11.832,6.359a2.993,2.993,0,1,0-3.664,0A5,5,0,0,0,5,11H6a4,4,0,0,1,8,0h1A5.064,5.064,0,0,0,11.832,6.359ZM8,4a2,2,0,1,1,2,2A2,2,0,0,1,8,4Z" />
    <path class="light-green" d="M7,12v3H4V12Zm3.828,1.854v-.708L8.707,11.025,8,11.732,9.768,13.5,8,15.268l.707.707ZM.172,13.146v.708l2.121,2.121L3,15.268,1.232,13.5,3,11.732l-.707-.707Z" />
  </g>
</svg>
