<svg xmlns="http://www.w3.org/2000/svg" viewBox="0 0 16 16">
  <defs>
    <style>.canvas{fill: none; opacity: 0;}.light-defaultgrey-10{fill: #212121; opacity: 0.1;}.light-defaultgrey{fill: #212121; opacity: 1;}.cls-1{opacity:0.75;}</style>
  </defs>
  <title>IconLightCubeDimension</title>
  <g id="Canvas">
    <path class="canvas" d="M16,16H0V0H16Z" />
  </g>
  <g id="level-1">
    <path class="light-defaultgrey-10" d="M10.5,6.363v3.818l-3,1.364-3-1.364V6.363l3-1.636Z" />
    <g class="cls-1">
      <path class="light-defaultgrey" d="M12.3,3H10.756V2h2.75l.5.5v2.75h-1V3.706L11.487,5.225l-.028-.047-.866-.473Zm.616,8.2-.707.707L13.3,13H3.712l1.051-1.051-.972-.442L3,12.3V2.7L4.1,3.8,4.8,3.09,2.859,1.146H2.152L.208,3.09.915,3.8,2,2.712V13.5l.5.5H13.3l-1.091,1.091.707.707,1.944-1.944v-.708Z" />
    </g>
    <path class="light-defaultgrey" d="M10.739,5.924l-3-1.636H7.261l-3,1.636L4,6.363v3.819l.293.455,3,1.363h.414l3-1.363L11,10.182V6.363ZM7.5,5.3,9.381,6.323,7.5,7.178,5.619,6.323ZM5,7.14l2,.909v2.719L5,9.86Zm3,3.628V8.049l2-.909V9.86Z" />
  </g>
</svg>
