<svg xmlns="http://www.w3.org/2000/svg" viewBox="0 0 16 16">
  <defs>
    <style>.canvas{fill: none; opacity: 0;}.light-defaultgrey{fill: #212121; opacity: 1;}.light-defaultgrey-10{fill: #212121; opacity: 0.1;}.cls-1{opacity:0.75;}</style>
  </defs>
  <title>IconLightCubeAndDimension</title>
  <g id="canvas">
    <path class="canvas" d="M16,16H0V0H16Z" />
  </g>
  <g id="level-1">
    <g class="cls-1">
      <path class="light-defaultgrey" d="M14.859,13.146v.707L12.915,15.8l-.707-.707L13.3,14H2.5L2,13.5V2.712L.915,3.8.208,3.09,2.152,1.145h.707L4.8,3.09,4.1,3.8,3,2.7V13H13.3l-1.091-1.091.707-.707Z" />
    </g>
    <path class="light-defaultgrey-10" d="M4.5,6.5h2v4h-2Zm8-4h2v8h-2Zm-4,2h2v6h-2Z" />
    <path class="light-defaultgrey" d="M4,6.5v4l.5.5h2l.5-.5v-4L6.5,6h-2ZM6,7v3H5V7Zm6-4.5v8l.5.5h2l.5-.5v-8L14.5,2h-2ZM14,3v7H13V3ZM8,4.5v6l.5.5h2l.5-.5v-6L10.5,4h-2ZM10,5v5H9V5Z" />
  </g>
</svg>
