<svg xmlns="http://www.w3.org/2000/svg" viewBox="0 0 16 16">
  <defs>
    <style>.canvas{fill: none; opacity: 0;}.light-defaultgrey-10{fill: #212121; opacity: 0.1;}.light-defaultgrey{fill: #212121; opacity: 1;}.cls-1{opacity:0.75;}</style>
  </defs>
  <title>IconLightCurrentFile</title>
  <g id="canvas" class="canvas">
    <path class="canvas" d="M16,16H0V0H16Z" />
  </g>
  <g id="level-1">
    <g class="cls-1">
      <path class="light-defaultgrey-10" d="M11.5,5.5v7h-7v-9h5Z" />
      <path class="light-defaultgrey" d="M11.854,5.146l-2-2L9.5,3h-5L4,3.5v9l.5.5h7l.5-.5v-7ZM11,12H5V4H9V6h2Z" />
    </g>
    <path class="light-defaultgrey" d="M1.5,1H5V2H2V5H1V1.5ZM2,11H1v3.5l.5.5H5V14H2Zm12,3H11v1h3.5l.5-.5V11H14Zm.5-13H11V2h3V5h1V1.5Z" />
  </g>
</svg>
