<svg xmlns="http://www.w3.org/2000/svg" viewBox="0 0 16 16"><defs><style>.canvas{fill: none; opacity: 0;}.dark-yellow{fill: #ffc733; opacity: 1;}.white{fill: #ffffff; opacity: 1;}.light-defaultgrey{fill: #212121; opacity: 1;}.light-blue{fill: #005dba; opacity: 1;}.cls-1{opacity:0.5;}</style></defs><title>IconLightCurrentInstructionPointerPaused</title><g id="canvas" class="canvas"><path class="canvas" d="M16,16H0V0H16Z"/></g><g id="level-1"><path class="dark-yellow" d="M6.755,10.5H1.5v-6h6v-3l5.871,5.871A4.953,4.953,0,0,0,6.755,10.5Z"/><g class="cls-1"><path class="white" d="M6.755,10.5H1.5v-6h6v-3l5.871,5.871A4.953,4.953,0,0,0,6.755,10.5Z"/></g><path class="light-defaultgrey" d="M6.6,11H1.5L1,10.5v-6L1.5,4H7V1.5l.854-.354,6,6v.47a4.937,4.937,0,0,0-1.472-.527L8,2.707V4.5L7.5,5H2v5H6.924A4.91,4.91,0,0,0,6.6,11Z"/><path class="light-blue" d="M11.5,8a4,4,0,1,0,4,4A4,4,0,0,0,11.5,8Z"/><path class="white" d="M11,14H10V10h1Zm2,0H12V10h1Z"/></g></svg>