<svg xmlns="http://www.w3.org/2000/svg" viewBox="0 0 16 16"><defs><style>.canvas{fill: none; opacity: 0;}.dark-yellow{fill: #ffc733; opacity: 1;}.white{fill: #ffffff; opacity: 1;}.light-defaultgrey{fill: #212121; opacity: 1;}.light-blue{fill: #005dba; opacity: 1;}.cls-1{opacity:0.5;}</style></defs><title>IconLightCurrentInstructionPointerStopped</title><g id="canvas" class="canvas"><path class="canvas" d="M16,16H0V0H16Z"/></g><g id="level-1"><path class="dark-yellow" d="M6.744,10.5H1.5v-6h6v-3l6,6-.083.083L13.133,7.3,12.412,7H10.588l-.721.3L6.8,10.367Z"/><g class="cls-1"><path class="white" d="M6.744,10.5H1.5v-6h6v-3l6,6-.083.083L13.133,7.3,12.412,7H10.588l-.721.3L6.8,10.367Z"/></g><path class="light-defaultgrey" d="M6.536,11H1.5L1,10.5v-6L1.5,4H7V1.5l.854-.354,6,6v.708l-.083.083L13.133,7.3,12.412,7h-.119L8,2.707V4.5L7.5,5H2v5H7.166l-.367.367Z"/><path class="light-blue" d="M12.213,16H10.787l-.353-.146L7.646,13.066,7.5,12.713V11.287l.146-.353,2.788-2.788L10.787,8h1.426l.353.146,2.788,2.788.146.353v1.426l-.146.353-2.788,2.788Z"/><path class="white" d="M12,12H11V9h1Zm0,1H11v1h1Z"/></g></svg>