<svg xmlns="http://www.w3.org/2000/svg" viewBox="0 0 16 16">
  <defs>
    <style>.canvas{fill: none; opacity: 0;}.light-blue-10{fill: #005dba; opacity: 0.1;}.light-defaultgrey{fill: #212121; opacity: 1;}.light-defaultgrey-10{fill: #212121; opacity: 0.1;}.light-blue{fill: #005dba; opacity: 1;}.cls-1{fill:none;}.cls-2{opacity:0.75;}</style>
  </defs>
  <title>IconLightCustomCSS</title>
  <g id="canvas">
    <path class="canvas" d="M0,0H16V16H0Z" />
  </g>
  <g id="level-1">
    <path class="cls-1" d="M16,16H0V0H16Z" />
    <path class="cls-1" d="M16,16H0V0H16Z" />
    <path class="light-blue-10" d="M15.192,8.681,9.635,14.238,8.153,12.72l5.539-5.539a1.059,1.059,0,0,1,1.5,0A1.062,1.062,0,0,1,15.192,8.681Z" />
    <g class="cls-2">
      <path class="light-defaultgrey" d="M6.043,14H.5L0,13.5V.5L.5,0h8l.354.146,3,3L12,3.5V6.752l-1,1V4H8V1H1V13H6.529Z" />
      <path class="light-defaultgrey-10" d="M6.286,13.5H.5V.5h8l3,3V7.252L7.262,11.49Z" />
    </g>
    <path class="light-defaultgrey" d="M7.67,9.754,7.625,11h.127L9,9.752V5.4H7.5L3.473,11H4.84l.838-1.246ZM7.576,6.887A2.9,2.9,0,0,0,7.847,6.4h.032a2.412,2.412,0,0,0-.086.5L7.725,8.785H6.292Z" />
    <path class="light-blue" d="M15.543,6.83a1.56,1.56,0,0,0-2.2,0l-5.25,5.25L6.511,15.326,7.186,16l2.995-1.629,5.365-5.336A1.562,1.562,0,0,0,15.543,6.83Zm-.7,1.5-5.2,5.2-.783-.8,5.19-5.189a.56.56,0,0,1,.792.793Z" />
  </g>
</svg>
