<svg xmlns="http://www.w3.org/2000/svg" viewBox="0 0 16 16">
  <defs>
    <style>.canvas{fill: none; opacity: 0;}.light-defaultgrey-10{fill: #212121; opacity: 0.1;}.light-defaultgrey{fill: #212121; opacity: 1;}</style>
  </defs>
  <title>IconLightCycling</title>
  <g id="canvas">
    <path class="canvas" d="M16,0V16H0V0Z" />
  </g>
  <g id="level-1">
    <path class="light-defaultgrey-10" d="M5.5,11.5a2,2,0,1,1-2-2A2,2,0,0,1,5.5,11.5Z" />
    <path class="light-defaultgrey" d="M3.5,9A2.5,2.5,0,1,0,6,11.5,2.5,2.5,0,0,0,3.5,9Zm0,4A1.5,1.5,0,1,1,5,11.5,1.5,1.5,0,0,1,3.5,13Z" />
    <path class="light-defaultgrey-10" d="M14.5,11.5a2,2,0,1,1-2-2A2,2,0,0,1,14.5,11.5Z" />
    <path class="light-defaultgrey" d="M12.5,9A2.5,2.5,0,1,0,15,11.5,2.5,2.5,0,0,0,12.5,9Zm0,4A1.5,1.5,0,1,1,14,11.5,1.5,1.5,0,0,1,12.5,13Z" />
    <path class="light-defaultgrey-10" d="M13.5,7a1,1,0,0,1-1,1h-2l-1-1.086L8.5,8l.5.5v4a1,1,0,0,1-2,0v-3s-.557-.521-.768-.732a1,1,0,0,1,0-1.414L9.5,4l2,2.5h1C13.052,6.5,13.5,6.448,13.5,7ZM11,4.5A1.5,1.5,0,1,0,9.5,3,1.5,1.5,0,0,0,11,4.5Z" />
    <path class="light-defaultgrey" d="M13.734,6.287A1.439,1.439,0,0,0,12.629,6H11.74l-.8-1.007c.022,0,.043.007.065.007A2,2,0,1,0,9,3a1.967,1.967,0,0,0,.124.67L5.879,7a1.5,1.5,0,0,0,0,2.121c.142.142.437.422.621.595V12.5a1.5,1.5,0,0,0,3,0v-4l-.146-.354-.161-.161L9.5,7.652l.632.687L10.5,8.5h2A1.5,1.5,0,0,0,14,7,.961.961,0,0,0,13.734,6.287ZM11,2a1,1,0,1,1-1,1A1,1,0,0,1,11,2Zm1.5,5.5H10.719l-.851-.925H9.132l-1,1.086.014.693.354.353V12.5a.5.5,0,0,1-1,0v-3l-.158-.365s-.549-.513-.756-.721a.5.5,0,0,1,0-.712L9.463,4.754l1.646,2.059L11.5,7h1.137a3.249,3.249,0,0,1,.363.01A.5.5,0,0,1,12.5,7.5Z" />
  </g>
</svg>
