<svg xmlns="http://www.w3.org/2000/svg" viewBox="0 0 16 16">
  <defs>
    <style>.canvas{fill: none; opacity: 0;}.light-defaultgrey{fill: #212121; opacity: 1;}.light-defaultgrey-10{fill: #212121; opacity: 0.1;}.cls-1{opacity:0.25;}</style>
  </defs>
  <title>IconLightCylinder</title>
  <g id="Canvas">
    <path class="canvas" d="M16,16H0V0H16Z" />
  </g>
  <g id="level-1">
    <g class="cls-1">
      <path class="light-defaultgrey" d="M12,8a6.956,6.956,0,0,0,.722,3H2.5c-.353,0-1-1.139-1-3s.647-3,1-3H12.722A6.956,6.956,0,0,0,12,8Z" />
    </g>
    <path class="light-defaultgrey" d="M1.5,8c0,1.861.647,3,1,3h11v1H2.5c-1.313,0-2-2.013-2-4s.687-4,2-4h11V5H2.5C2.147,5,1.5,6.139,1.5,8Z" />
    <path class="light-defaultgrey-10" d="M15,8c0,1.933-.672,3.5-1.5,3.5S12,9.933,12,8s.672-3.5,1.5-3.5S15,6.067,15,8Z" />
    <path class="light-defaultgrey" d="M13.5,4c-1.313,0-2,2.013-2,4s.687,4,2,4,2-2.013,2-4S14.813,4,13.5,4Zm0,7c-.353,0-1-1.139-1-3s.647-3,1-3,1,1.139,1,3S13.853,11,13.5,11Z" />
  </g>
</svg>
