<svg xmlns="http://www.w3.org/2000/svg" viewBox="0 0 16 16">
  <defs>
    <style>.canvas{fill: none; opacity: 0;}.light-lightblue-10{fill: #0077a0; opacity: 0.1;}.light-lightblue{fill: #0077a0; opacity: 1;}</style>
  </defs>
  <title>DataSource</title>
  <g id="canvas">
    <path class="canvas" d="M16,0V16H0V0Z" />
  </g>
  <g id="level-1">
    <path class="light-lightblue-10" d="M12.5,4v8c0,.829-1.791,1.5-4,1.5s-4-.671-4-1.5V4c0-.828,1.791-1.5,4-1.5S12.5,3.172,12.5,4Z" />
    <path class="light-lightblue" d="M4,3.97V12c0,1.314,2.264,2,4.5,2s4.5-.686,4.5-2V3.97C13,1.343,4,1.343,4,3.97Zm8,3.884c-.175.21-.941.9-3.5.9s-3.325-.686-3.5-.9V5.261a7.863,7.863,0,0,0,3.5.709A7.863,7.863,0,0,0,12,5.261ZM8.5,2.97c2.273,0,3.5.71,3.5,1s-1.227,1-3.5,1S5,4.26,5,3.97,6.227,2.97,8.5,2.97ZM8.5,13C6.227,13,5,12.29,5,12V9.084a7.412,7.412,0,0,0,3.5.666A7.412,7.412,0,0,0,12,9.084V12C12,12.29,10.773,13,8.5,13Z" />
  </g>
</svg>
