<svg xmlns="http://www.w3.org/2000/svg" viewBox="0 0 16 16">
  <defs>
    <style>.canvas{fill: none; opacity: 0;}.light-lightblue-10{fill: #0077a0; opacity: 0.1;}.light-lightblue{fill: #0077a0; opacity: 1;}.light-blue{fill: #005dba; opacity: 1;}.light-defaultgrey{fill: #212121; opacity: 1;}</style>
  </defs>
  <title>IconLightDatabaseDestination</title>
  <g id="canvas" class="canvas">
    <path class="canvas" d="M16,16H0V0H16Z" />
  </g>
  <g id="level-1">
    <path class="light-lightblue-10" d="M11.5,4.97V13c0,.829-1.791,1.5-4,1.5-.621,0-3,0-3.5-1V12H3V9h.5V4.97c0-.828,1.791-1.5,4-1.5S11.5,4.142,11.5,4.97Z" />
    <path class="light-lightblue" d="M3,4.97V9H4V6.261a7.863,7.863,0,0,0,3.5.709A7.863,7.863,0,0,0,11,6.261V13c0,.29-1.227,1-3.5,1S4,13.29,4,13V12H3v1c0,1.314,2.264,2,4.5,2s4.5-.686,4.5-2V4.97C12,2.343,3,2.343,3,4.97Zm4.5,1c-2.273,0-3.5-.71-3.5-1s1.227-1,3.5-1,3.5.71,3.5,1S9.773,5.97,7.5,5.97Z" />
    <path class="light-blue" d="M1,10H6.293L4.9,8.6,5.6,7.9l2.25,2.25v.708L5.6,13.1,4.9,12.4l1.4-1.4H1Z" />
    <path class="light-defaultgrey" d="M16,5H15a4,4,0,0,0-4-4V0A5.006,5.006,0,0,1,16,5ZM11,2V3a2,2,0,0,1,2,2h1A3,3,0,0,0,11,2Z" />
  </g>
</svg>
