<svg xmlns="http://www.w3.org/2000/svg" viewBox="0 0 16 16">
  <defs>
    <style>.canvas{fill: none; opacity: 0;}.light-defaultgrey-10{fill: #212121; opacity: 0.1;}.light-defaultgrey{fill: #212121; opacity: 1;}.light-blue-10{fill: #005dba; opacity: 0.1;}.light-blue{fill: #005dba; opacity: 1;}.cls-1{opacity:0.75;}</style>
  </defs>
  <title>IconLightDataForm</title>
  <g id="canvas" class="canvas">
    <path class="canvas" d="M16,16H0V0H16Z" />
    <path class="canvas" d="M16,16H0V0H16Z" />
  </g>
  <g id="level-1">
    <g class="cls-1">
      <path class="light-defaultgrey-10" d="M14.5,13.5H4.5v-8h10Z" />
    </g>
    <path class="light-defaultgrey" d="M14.5,5H4.5L4,5.5v8l.5.5h10l.5-.5v-8ZM5,6H9V9H5Zm0,7V10H9v3Zm9,0H10V10h4Zm0-4H10V6h4Z" />
    <path class="light-blue-10" d="M4.5,5.5v-3h10v3Zm-3,0h3v8h-3Z" />
    <path class="light-blue" d="M14.5,6H4.5L4,5.5v-3L4.5,2h10l.5.5v3ZM5,5h9V3H5Zm-.5,9h-3L1,13.5v-8L1.5,5h3l.5.5v8ZM2,13H4V6H2Z" />
  </g>
</svg>
