<svg xmlns="http://www.w3.org/2000/svg" viewBox="0 0 16 16">
  <defs>
    <style>.canvas{fill: none; opacity: 0;}.light-lightblue-10{fill: #0077a0; opacity: 0.1;}.light-lightblue{fill: #0077a0; opacity: 1;}.light-defaultgrey-10{fill: #212121; opacity: 0.1;}.light-defaultgrey{fill: #212121; opacity: 1;}</style>
  </defs>
  <title>IconLightDatabaseSettings</title>
  <g id="canvas" class="canvas">
    <path class="canvas" d="M16,16H0V0H16Z" />
  </g>
  <g id="level-1">
    <path class="light-lightblue-10" d="M5.5,8.488V3c0-.828,1.791-1.5,4-1.5s4,.672,4,1.5v8.03c0,.828-1.791,1.5-4,1.5a10.055,10.055,0,0,1-1.508-.112A4.483,4.483,0,0,0,5.5,8.488Z" />
    <path class="light-lightblue" d="M7.961,12.885A10.5,10.5,0,0,0,9.5,13c2.236,0,4.5-.686,4.5-2V2.97c0-2.627-9-2.627-9,0V8.276A4.466,4.466,0,0,1,6,8.76v-4.5a7.863,7.863,0,0,0,3.5.709A7.863,7.863,0,0,0,13,4.261V11c0,.29-1.227,1-3.5,1a9.221,9.221,0,0,1-1.563-.127A4.469,4.469,0,0,1,8,12.5C8,12.632,7.972,12.756,7.961,12.885ZM13,2.97c0,.29-1.227,1-3.5,1S6,3.26,6,2.97s1.227-1,3.5-1S13,2.68,13,2.97Z" />
    <path class="light-defaultgrey-10" d="M3.5,10.5a2,2,0,1,1-2,2A2,2,0,0,1,3.5,10.5Z" />
    <path class="light-defaultgrey" d="M1.051,13a2.473,2.473,0,0,0,.365.876l-.745.745.707.707.745-.745A2.469,2.469,0,0,0,3,14.949V16H4V14.949a2.469,2.469,0,0,0,.877-.366l.745.745.707-.707-.745-.745A2.473,2.473,0,0,0,5.949,13H7V12H5.949a2.473,2.473,0,0,0-.365-.876l.745-.745-.707-.707-.745.745A2.469,2.469,0,0,0,4,10.051V9H3v1.051a2.469,2.469,0,0,0-.877.366l-.745-.745-.707.707.745.745A2.473,2.473,0,0,0,1.051,12H0v1ZM2,12.5A1.5,1.5,0,1,1,3.5,14,1.5,1.5,0,0,1,2,12.5Z" />
  </g>
</svg>
