<svg xmlns="http://www.w3.org/2000/svg" viewBox="0 0 16 16">
  <defs>
    <style>.canvas{fill: none; opacity: 0;}.light-lightblue-10{fill: #0077a0; opacity: 0.1;}.light-lightblue{fill: #0077a0; opacity: 1;}.light-blue{fill: #005dba; opacity: 1;}</style>
  </defs>
  <title>IconLightDataCompare</title>
  <g id="canvas">
    <path class="canvas" d="M16,16H0V0H16Z" />
  </g>
  <g id="level-1">
    <path class="light-lightblue-10" d="M4,7.424c-1.686,0-3.5.5-3.5,1.586v3.828c0,1.09,1.814,1.586,3.5,1.586s3.5-.5,3.5-1.586V9.01C7.5,7.921,5.686,7.424,4,7.424Z" />
    <path class="light-lightblue" d="M4,6.924c-1.927,0-4,.568-4,1.813v4.375c0,1.245,2.073,1.812,4,1.812s4-.567,4-1.812V8.737C8,7.492,5.927,6.924,4,6.924Zm0,1c1.969,0,3,.6,3,.813s-1.031.812-3,.812-3-.6-3-.812S2.031,7.924,4,7.924Zm0,6c-1.969,0-3-.6-3-.812V9.975a7.185,7.185,0,0,0,3,.574,7.185,7.185,0,0,0,3-.574v3.137C7,13.321,5.969,13.924,4,13.924Z" />
    <path class="light-lightblue-10" d="M12,.5C10.314.5,8.5,1,8.5,2.086V5.914C8.5,7,10.314,7.5,12,7.5s3.5-.5,3.5-1.586V2.086C15.5,1,13.686.5,12,.5Z" />
    <path class="light-lightblue" d="M12,0C10.073,0,8,.567,8,1.813V6.188C8,7.433,10.073,8,12,8s4-.567,4-1.812V1.813C16,.567,13.927,0,12,0Zm0,1c1.969,0,3,.6,3,.813s-1.031.812-3,.812-3-.6-3-.812S10.031,1,12,1Zm0,6c-1.969,0-3-.6-3-.812V3.051a7.2,7.2,0,0,0,3,.574,7.2,7.2,0,0,0,3-.574V6.188C15,6.4,13.969,7,12,7Z" />
    <path class="light-blue" d="M6.854,2.146v.708l-2,2-.708-.708L5.293,3H3V5H2V2.5L2.5,2H5.293L4.146.854,4.854.146Z" />
    <path class="light-blue" d="M14,10v2.5l-.5.5H10.707l1.147,1.146-.708.708-2-2v-.708l2-2,.708.708L10.707,12H13V10Z" />
  </g>
</svg>
