<svg xmlns="http://www.w3.org/2000/svg" viewBox="0 0 16 16">
  <defs>
    <style>.canvas{fill: none; opacity: 0;}.light-lightblue-10{fill: #0077a0; opacity: 0.1;}.light-lightblue{fill: #0077a0; opacity: 1;}.light-defaultgrey{fill: #212121; opacity: 1;}.light-blue{fill: #005dba; opacity: 1;}</style>
  </defs>
  <title>IconLightDataGenerator</title>
  <g id="canvas">
    <path class="canvas" d="M16,16H0V0H16Z" />
  </g>
  <g id="level-1">
    <path class="light-lightblue-10" d="M11.5,8v5c0,.828-1.791,1.5-4,1.5s-4-.672-4-1.5V8c0-.434.5-.822,1.284-1.1L6.732,8.853H8.268L10.216,6.9C11,7.178,11.5,7.566,11.5,8Z" />
    <path class="light-lightblue" d="M10.617,6.5,9.84,7.28c.754.229,1.16.525,1.16.689,0,.29-1.227,1-3.5,1s-3.5-.71-3.5-1c0-.164.406-.46,1.16-.689L4.383,6.5C3.553,6.831,3,7.319,3,7.969V13c0,1.313,2.264,2,4.5,2s4.5-.687,4.5-2V7.969C12,7.319,11.447,6.831,10.617,6.5ZM11,13c0,.29-1.227,1-3.5,1S4,13.29,4,13V9.26a7.877,7.877,0,0,0,3.5.709A7.877,7.877,0,0,0,11,9.26Z" />
    <path class="light-defaultgrey" d="M8,3H7V2H8Zm2-2H9V2h1Zm0,2H9V4h1ZM6,3H5V4H6ZM4,2H3V3H4Zm8,0H11V3h1ZM6,1H5V2H6Z" />
    <path class="light-blue" d="M7.854,7.853H7.146L5.2,5.908,5.909,5.2,7,6.292V4H8V6.292L9.091,5.2l.707.707Z" />
  </g>
</svg>
