<svg xmlns="http://www.w3.org/2000/svg" viewBox="0 0 16 16">
  <defs>
    <style>.canvas{fill: none; opacity: 0;}.light-lightblue-10{fill: #0077a0; opacity: 0.1;}.light-lightblue{fill: #0077a0; opacity: 1;}.light-defaultgrey-10{fill: #212121; opacity: 0.1;}.light-defaultgrey{fill: #212121; opacity: 1;}</style>
  </defs>
  <title>IconLightDatabaseScript</title>
  <g id="canvas" class="canvas">
    <path class="canvas" d="M16,16H0V0H16Z" />
  </g>
  <g id="level-1">
    <path class="light-lightblue-10" d="M13.5,3v8.03c0,.828-1.791,1.5-4,1.5-.351,0-.685-.022-1.009-.054V12h1.914l1.086-1.086V10a3,3,0,0,0-3-3H5.5V3c0-.828,1.791-1.5,4-1.5S13.5,2.172,13.5,3Z" />
    <path class="light-lightblue" d="M5,2.97V7H6V4.261a7.863,7.863,0,0,0,3.5.709A7.863,7.863,0,0,0,13,4.261V11c0,.246-.891.79-2.546.951L10.405,12H8.491v.948c.333.031.67.052,1.009.052,2.236,0,4.5-.686,4.5-2V2.97C14,.343,5,.343,5,2.97Zm4.5,1c-2.273,0-3.5-.71-3.5-1s1.227-1,3.5-1,3.5.71,3.5,1S11.773,3.97,9.5,3.97Z" />
    <path class="light-defaultgrey-10" d="M3.491,14a1.984,1.984,0,0,0,.269,1H2a1,1,0,0,1-1-1Zm0-4v3h.5l.5.5V14a1,1,0,0,0,2,0V10a1.978,1.978,0,0,1,.278-1H4.491A1,1,0,0,0,3.491,10Zm5-1a1,1,0,0,0-1,1h2A1,1,0,0,0,8.491,9Z" />
    <path class="light-defaultgrey" d="M8.491,8h-4a2,2,0,0,0-2,2v3H.5l-.5.5V14a1.978,1.978,0,0,0,.278,1,1.992,1.992,0,0,0,1.715,1h3.5a2,2,0,0,0,2-2V11h2.5l.5-.5V10A2,2,0,0,0,8.491,8ZM2,15a1,1,0,0,1-1-1H3.491a1.984,1.984,0,0,0,.269,1Zm4.491-5v4a1,1,0,0,1-2,0v-.5l-.5-.5h-.5V10a1,1,0,0,1,1-1H6.769A1.978,1.978,0,0,0,6.491,10Zm3,0h-2a1,1,0,0,1,2,0Z" />
  </g>
</svg>
