<svg xmlns="http://www.w3.org/2000/svg" viewBox="0 0 16 16">
  <defs>
    <style>.canvas{fill: none; opacity: 0;}.light-lightblue-10{fill: #0077a0; opacity: 0.1;}.light-lightblue{fill: #0077a0; opacity: 1;}.light-defaultgrey{fill: #212121; opacity: 1;}</style>
  </defs>
  <title>IconLightDatabaseProperty</title>
  <g id="canvas" class="canvas">
    <path class="canvas" d="M16,16H0V0H16Z" />
  </g>
  <g id="level-1">
    <path class="light-lightblue-10" d="M13.5,2.97V11c0,.829-1.791,1.5-4,1.5a9.7,9.7,0,0,1-1.25-.081l-1.4-1.4A4,4,0,0,0,5.82,7.161,3.988,3.988,0,0,0,5.5,6.9V2.97c0-.828,1.791-1.5,4-1.5S13.5,2.142,13.5,2.97Z" />
    <path class="light-lightblue" d="M5,2.97V6.548a3.977,3.977,0,0,1,.82.613c.065.065.12.137.18.206V4.261a7.863,7.863,0,0,0,3.5.709A7.863,7.863,0,0,0,13,4.261V11c0,.29-1.227,1-3.5,1a8.751,8.751,0,0,1-1.857-.188L8.8,12.968c.233.016.466.032.7.032,2.236,0,4.5-.686,4.5-2V2.97C14,.343,5,.343,5,2.97Zm4.5,1c-2.273,0-3.5-.71-3.5-1s1.227-1,3.5-1,3.5.71,3.5,1S11.773,3.97,9.5,3.97Z" />
    <path class="light-defaultgrey" d="M.293,8.705,2.285,10.7,3.7,9.282,1.708,7.291a2.983,2.983,0,0,1,3.983,3.983L9,14.586v.707L8.3,16H7.588L4.276,12.688A2.983,2.983,0,0,1,.293,8.705Z" />
  </g>
</svg>
