<svg xmlns="http://www.w3.org/2000/svg" viewBox="0 0 16 16">
  <defs>
    <style>.canvas{fill: none; opacity: 0;}.light-teal-10{fill: #006758; opacity: 0.1;}.light-teal{fill: #006758; opacity: 1;}.light-defaultgrey-10{fill: #212121; opacity: 0.1;}.light-defaultgrey{fill: #212121; opacity: 1;}</style>
  </defs>
  <title>IconLightDataSourceReference</title>
  <g id="canvas">
    <path class="canvas" d="M16,16H0V0H16Z" />
  </g>
  <g id="level-1">
    <path class="light-teal-10" d="M15.5,3.5V7a3.5,3.5,0,0,1-7,0V3.5Z" />
    <path class="light-teal" d="M15.5,3H14V0H13V3H11V0H10V3H8.5L8,3.5V7a3.991,3.991,0,0,0,3.5,3.949V16h1V10.949A3.991,3.991,0,0,0,16,7V3.5ZM15,7A3,3,0,0,1,9,7V4h6Z" />
    <path class="light-defaultgrey-10" d="M7.5,9.141V15.5H.5v-7H7.239A4.974,4.974,0,0,0,7.5,9.141Z" />
    <path class="light-defaultgrey" d="M7.114,8H.5L0,8.5v7l.5.5h7l.5-.5V9.978A4.965,4.965,0,0,1,7.114,8ZM7,15H1V9H7Z" />
    <path class="light-defaultgrey" d="M1.646,13.646,4.293,11H2V10H5.5l.5.5V14H5V11.707L2.354,14.354Z" />
  </g>
</svg>
