<svg xmlns="http://www.w3.org/2000/svg" viewBox="0 0 16 16">
  <defs>
    <style>.canvas{fill: none; opacity: 0;}.light-teal-10{fill: #006758; opacity: 0.1;}.light-teal{fill: #006758; opacity: 1;}.light-defaultgrey-10{fill: #212121; opacity: 0.1;}.light-defaultgrey{fill: #212121; opacity: 1;}.light-lightblue-10{fill: #0077a0; opacity: 0.1;}.light-lightblue{fill: #0077a0; opacity: 1;}</style>
  </defs>
  <title>IconLightDatabaseTest</title>
  <g id="canvas" class="canvas">
    <path class="canvas" d="M16,16H0V0H16Z" />
  </g>
  <g id="level-1">
    <path class="light-teal-10" d="M7.522,14.735A.5.5,0,0,1,7.1,15.5H1.9a.5.5,0,0,1-.424-.765L2.25,13.5h4.5Z" />
    <path class="light-teal" d="M7.1,16H1.9a1,1,0,0,1-.848-1.53l.772-1.235L2.25,13h4.5l.424.235.772,1.235A1,1,0,0,1,7.1,16ZM2.527,14,1.9,15H7.1l-.625-1Z" />
    <path class="light-defaultgrey-10" d="M2.5,13l.938-1.5v-3h2v3L6.375,13Z" />
    <path class="light-defaultgrey" d="M3,9H2V8H7V9H6v2.356l1.174,1.879L6.75,13h-.9l-.772-1.235L5,11.5V9H4v2.5l-.076.265L3.152,13h-.9l-.424.235L3,11.356Z" />
    <path class="light-lightblue-10" d="M13.5,2.97V11c0,.828-1.791,1.5-4,1.5a9.818,9.818,0,0,1-1.7-.146L7,11.069V10H8V7H5.5V2.97c0-.828,1.791-1.5,4-1.5S13.5,2.142,13.5,2.97Z" />
    <path class="light-lightblue" d="M5,2.97V7H6V4.261a7.863,7.863,0,0,0,3.5.709A7.863,7.863,0,0,0,13,4.261V11c0,.29-1.227,1-3.5,1a8.57,8.57,0,0,1-2.062-.231l.711,1.138A10.544,10.544,0,0,0,9.5,13c2.236,0,4.5-.687,4.5-2V2.97C14,.343,5,.343,5,2.97Zm4.5,1c-2.273,0-3.5-.71-3.5-1s1.227-1,3.5-1,3.5.71,3.5,1S11.773,3.97,9.5,3.97Z" />
  </g>
</svg>
