<svg xmlns="http://www.w3.org/2000/svg" viewBox="0 0 16 16">
  <defs>
    <style>.canvas{fill: none; opacity: 0;}.light-lightblue-10{fill: #0077a0; opacity: 0.1;}.light-lightblue{fill: #0077a0; opacity: 1;}.light-blue-10{fill: #005dba; opacity: 0.1;}.light-blue{fill: #005dba; opacity: 1;}.light-defaultgrey{fill: #212121; opacity: 1;}</style>
  </defs>
  <title>IconLightDatabaseAuditSpecificationOff</title>
  <g id="canvas" class="canvas">
    <path class="canvas" d="M16,16H0V0H16Z" />
  </g>
  <g id="level-1">
    <path class="light-lightblue-10" d="M10.248,12.343A9.641,9.641,0,0,1,8.5,12.5c-.336,0-.658-.02-.97-.049L6.66,11.6A3.916,3.916,0,0,0,7,10,4,4,0,0,0,4.5,6.3V2.97c0-.828,1.791-1.5,4-1.5s4,.672,4,1.5v7.438L11,8.908,8.906,11Z" />
    <path class="light-lightblue" d="M10.668,12.763A9.886,9.886,0,0,1,8.5,13c-.142,0-.283-.011-.425-.016l-1.134-1.11A9.3,9.3,0,0,0,8.5,12a9.468,9.468,0,0,0,1.312-.092ZM12,4.261V9.908l1,1V2.97c0-2.627-9-2.627-9,0V6.142a3.93,3.93,0,0,1,1,.414V4.261a7.863,7.863,0,0,0,3.5.709A7.863,7.863,0,0,0,12,4.261ZM5,2.97c0-.29,1.227-1,3.5-1s3.5.71,3.5,1-1.227,1-3.5,1S5,3.26,5,2.97Z" />
    <path class="light-blue-10" d="M.5,10A2.5,2.5,0,1,1,3,12.5,2.5,2.5,0,0,1,.5,10Z" />
    <path class="light-blue" d="M8.85,15.143,5.408,11.772A2.969,2.969,0,0,0,6,10a3.008,3.008,0,1,0-1.306,2.472L8.15,15.857ZM1,10a2,2,0,1,1,2,2A2,2,0,0,1,1,10Z" />
    <path class="light-defaultgrey" d="M13.841,13.161,16,15.32l-.68.68-2.16-2.161L11,16l-.68-.68,2.159-2.159L10.32,11l.68-.68,2.16,2.161,2.16-2.161L16,11Z" />
  </g>
</svg>
