<svg xmlns="http://www.w3.org/2000/svg" viewBox="0 0 16 16">
  <defs>
    <style>.canvas{fill: none; opacity: 0;}.light-defaultgrey-10{fill: #212121; opacity: 0.1;}.light-defaultgrey{fill: #212121; opacity: 1;}.light-lightblue-10{fill: #0077a0; opacity: 0.1;}.light-lightblue{fill: #0077a0; opacity: 1;}</style>
  </defs>
  <title>IconLightDatabaseReference</title>
  <g id="canvas" class="canvas">
    <path class="canvas" d="M16,16H0V0H16Z" />
  </g>
  <g id="level-1">
    <path class="light-defaultgrey-10" d="M2.5,14.5H.5v-2h2Z" />
    <path class="light-defaultgrey-10" d="M11.5,15.5h-4v-4h4Z" />
    <path class="light-defaultgrey" d="M2.5,15H.5L0,14.5v-2L.5,12h2l.5.5v2ZM1,14H2V13H1Zm6,0H3V13H7Zm4.5,2h-4L7,15.5v-4l.5-.5h4l.5.5v4ZM8,15h3V12H8Z" />
    <path class="light-lightblue-10" d="M14.5,2.97V11c0,.472-.592.888-1.5,1.162V11.086L11.914,10H7.086l-.586.586V2.97c0-.828,1.791-1.5,4-1.5S14.5,2.142,14.5,2.97Z" />
    <path class="light-lightblue" d="M6,2.97V11c0,.025.014.046.015.07L7,10.086V4.261a7.863,7.863,0,0,0,3.5.709A7.863,7.863,0,0,0,14,4.261V11c0,.153-.348.42-1,.64v1.043c1.158-.321,2-.884,2-1.683V2.97C15,.343,6,.343,6,2.97Zm4.5,1c-2.273,0-3.5-.71-3.5-1s1.227-1,3.5-1,3.5.71,3.5,1S12.773,3.97,10.5,3.97Z" />
  </g>
</svg>
