<svg xmlns="http://www.w3.org/2000/svg" viewBox="0 0 16 16">
  <defs>
    <style>.canvas{fill: none; opacity: 0;}.light-lightblue-10{fill: #0077a0; opacity: 0.1;}.light-lightblue{fill: #0077a0; opacity: 1;}.light-defaultgrey{fill: #212121; opacity: 1;}.cls-1{opacity:0.75;}</style>
  </defs>
  <title>DataSourceTarget</title>
  <g id="canvas">
    <path class="canvas" d="M16,16H0V0H16Z" />
  </g>
  <g id="level-1">
    <g class="cls-1">
      <path class="light-lightblue-10" d="M15.5,2.97V11c0,.828-1.791,1.5-4,1.5A8.788,8.788,0,0,1,9,12.162V4.97c0-.679-.608-1.179-1.5-1.507V2.97c0-.828,1.791-1.5,4-1.5S15.5,2.142,15.5,2.97Z" />
      <path class="light-lightblue" d="M7,2.97V3.3A2.6,2.6,0,0,1,8.923,4.619,9.269,9.269,0,0,0,11.5,4.97,7.863,7.863,0,0,0,15,4.261V11c0,.29-1.227,1-3.5,1A7.876,7.876,0,0,1,9,11.64v1.043A9.538,9.538,0,0,0,11.5,13c2.236,0,4.5-.687,4.5-2V2.97C16,.343,7,.343,7,2.97Zm4.5,1c-2.273,0-3.5-.71-3.5-1s1.227-1,3.5-1,3.5.71,3.5,1S13.773,3.97,11.5,3.97Z" />
    </g>
    <path class="light-lightblue-10" d="M8.5,4.97V13c0,.828-1.791,1.5-4,1.5s-4-.672-4-1.5V4.97c0-.828,1.791-1.5,4-1.5S8.5,4.142,8.5,4.97Z" />
    <path class="light-lightblue" d="M9,4.97c0-2.627-9-2.627-9,0H0V13c0,1.313,2.264,2,4.5,2S9,14.313,9,13V4.97Zm-4.5-1c2.273,0,3.5.71,3.5,1s-1.227,1-3.5,1S1,5.26,1,4.97,2.227,3.97,4.5,3.97ZM8,13c0,.29-1.227,1-3.5,1S1,13.29,1,13V6.261H1a7.863,7.863,0,0,0,3.5.709A7.863,7.863,0,0,0,8,6.261H8Z" />
    <path class="light-defaultgrey" d="M11.2,6.909,11.91,6.2l1.944,1.945v.707L11.91,10.8l-.707-.707L12.293,9H8V8h4.294Z" />
    <path class="light-defaultgrey" d="M4.706,10H9v1H4.707L5.8,12.091,5.09,12.8,3.146,10.854v-.707L5.09,8.2l.707.707Z" />
  </g>
</svg>
