<svg xmlns="http://www.w3.org/2000/svg" viewBox="0 0 16 16">
  <defs>
    <style>.canvas{fill: none; opacity: 0;}.light-purple-10{fill: #6936aa; opacity: 0.1;}.light-purple{fill: #6936aa; opacity: 1;}.light-yellow{fill: #996f00; opacity: 1;}.light-defaultgrey{fill: #212121; opacity: 1;}</style>
  </defs>
  <title>IconLightDataMiningMethod</title>
  <g id="canvas">
    <path class="canvas" d="M16,16H0V0H16Z" />
  </g>
  <g id="level-1">
    <path class="light-purple-10" d="M11.5,6.482l4,2.332v4.739l-4,2-4-2V8.814Z" />
    <path class="light-purple" d="M15.752,8.382l-4-2.333h-.5l-4,2.333L7,8.814v4.739L7.276,14l4,2h.448l4-2L16,13.553V8.814ZM11.5,7.06l3.219,1.877L11.5,10.546,8.281,8.937ZM8,9.915l3,1.5v3.329l-3-1.5Zm7,3.329-3,1.5V11.415l3-1.5Z" />
    <path class="light-yellow" d="M.6,9.15l-.6-.6v-.6L5.426,2.518h.6l.6.6v.6L1.206,9.15Z" />
    <path class="light-defaultgrey" d="M8.44,6.738,6.029,4.327l-.56.56L4.263,3.681l.56-.56L2.416.714l.56-.559a8.3,8.3,0,0,1,3.043,1.77l.648-.648h.6l.6.6v.6l-.656.657A8.64,8.64,0,0,1,9,6.179Z" />
  </g>
</svg>
