<svg xmlns="http://www.w3.org/2000/svg" viewBox="0 0 16 16">
  <defs>
    <style>.canvas{fill: none; opacity: 0;}.light-defaultgrey-10{fill: #212121; opacity: 0.1;}.light-defaultgrey{fill: #212121; opacity: 1;}.light-lightblue-10{fill: #0077a0; opacity: 0.1;}.light-lightblue{fill: #0077a0; opacity: 1;}.light-blue{fill: #005dba; opacity: 1;}.cls-1{opacity:0.75;}</style>
  </defs>
  <title>IconLightDataGenerationPlan</title>
  <g id="canvas">
    <path class="canvas" d="M16,16H0V0H16Z" />
  </g>
  <g id="level-1">
    <g class="cls-1">
      <path class="light-defaultgrey-10" d="M15.5,4v7.5H11V7.969c0-.6-.262-1.7-2.015-2.4L9,2.5h5Z" />
      <path class="light-defaultgrey" d="M16,4v7.5l-.5.5H11V11h4V5H13V3H9V2h5l.354.146,1.5,1.5Z" />
      <path class="light-defaultgrey" d="M12,6H10V5h2ZM11,9h3v1H11Zm3-2V8H11V7.969A2.145,2.145,0,0,0,10.754,7Z" />
    </g>
    <path class="light-lightblue-10" d="M9.5,8v5c0,.828-1.791,1.5-4,1.5s-4-.672-4-1.5V8c0-.434.5-.822,1.284-1.1L4.732,8.853H6.268L8.216,6.9C9,7.178,9.5,7.566,9.5,8Z" />
    <path class="light-lightblue" d="M8.617,6.5,7.84,7.28c.754.229,1.16.525,1.16.689,0,.29-1.227,1-3.5,1s-3.5-.71-3.5-1c0-.164.406-.46,1.16-.689L2.383,6.5C1.553,6.831,1,7.319,1,7.969V13c0,1.313,2.264,2,4.5,2s4.5-.687,4.5-2V7.969C10,7.319,9.447,6.831,8.617,6.5ZM9,13c0,.29-1.227,1-3.5,1S2,13.29,2,13V9.26a7.877,7.877,0,0,0,3.5.709A7.877,7.877,0,0,0,9,9.26Z" />
    <path class="light-defaultgrey" d="M6,3H5V2H6ZM2,3H1V2H2ZM8,1H7V2H8ZM8,3H7V4H8ZM4,3H3V4H4ZM4,1H3V2H4Z" />
    <path class="light-blue" d="M5.854,7.853H5.146L3.2,5.908,3.909,5.2,5,6.292V4H6V6.292L7.091,5.2l.707.707Z" />
  </g>
</svg>
