<svg xmlns="http://www.w3.org/2000/svg" viewBox="0 0 16 16">
  <defs>
    <style>.canvas{fill: none; opacity: 0;}.light-lightblue-10{fill: #0077a0; opacity: 0.1;}.light-lightblue{fill: #0077a0; opacity: 1;}.light-defaultgrey-10{fill: #212121; opacity: 0.1;}.light-defaultgrey{fill: #212121; opacity: 1;}</style>
  </defs>
  <title>IconLightDatabaseStoredProcedures</title>
  <g id="canvas" class="canvas">
    <path class="canvas" d="M16,16H0V0H16Z" />
  </g>
  <g id="level-1">
    <path class="light-lightblue-10" d="M13.5,2.97V11c0,.764-1.53,1.388-3.5,1.481V8.086L8.914,7H5.5V2.97c0-.828,1.791-1.5,4-1.5S13.5,2.142,13.5,2.97Z" />
    <path class="light-lightblue" d="M5,2.97V7H6V4.261a7.863,7.863,0,0,0,3.5.709A7.863,7.863,0,0,0,13,4.261V11c0,.267-1.055.885-3,.981v1c2.061-.1,4-.766,4-1.981V2.97C14,.343,5,.343,5,2.97Zm4.5,1c-2.273,0-3.5-.71-3.5-1s1.227-1,3.5-1,3.5.71,3.5,1S11.773,3.97,9.5,3.97Z" />
    <path class="light-defaultgrey-10" d="M.5,8.5h8v7H.5Z" />
    <path class="light-defaultgrey" d="M8.5,8H.5L0,8.5v7l.5.5h8l.5-.5v-7ZM8,15H1V10H8Z" />
    <path class="light-defaultgrey" d="M5,12H2V11H5Zm2,0H5.5V11H7ZM4,14H2V13H4Zm3,0H5V13H7Z" />
  </g>
</svg>
