<svg xmlns="http://www.w3.org/2000/svg" viewBox="0 0 16 16">
  <defs>
    <style>.canvas{fill: none; opacity: 0;}.light-lightblue-10{fill: #0077a0; opacity: 0.1;}.light-lightblue{fill: #0077a0; opacity: 1;}.light-defaultgrey-10{fill: #212121; opacity: 0.1;}.light-defaultgrey{fill: #212121; opacity: 1;}</style>
  </defs>
  <title>IconLightDatabaseColumn</title>
  <g id="canvas" class="canvas">
    <path class="canvas" d="M0,0H16V16H0Z" />
  </g>
  <g id="level-1">
    <path class="light-lightblue-10" d="M12.5,2.97V11c0,.829-1.791,1.5-4,1.5A8.79,8.79,0,0,1,6,12.163V5.086L4.914,4H4.5V2.97c0-.828,1.791-1.5,4-1.5S12.5,2.142,12.5,2.97Z" />
    <path class="light-lightblue" d="M4,2.97V4h.914l.389.389a8.3,8.3,0,0,0,3.2.581A7.863,7.863,0,0,0,12,4.261V11c0,.29-1.227,1-3.5,1A7.876,7.876,0,0,1,6,11.64v1.043A9.538,9.538,0,0,0,8.5,13c2.236,0,4.5-.686,4.5-2V2.97C13,.343,4,.343,4,2.97Zm4.5,1c-2.273,0-3.5-.71-3.5-1s1.227-1,3.5-1,3.5.71,3.5,1S10.773,3.97,8.5,3.97Z" />
    <path class="light-defaultgrey-10" d="M.472,6h4v9.5h-4Z" />
    <path class="light-defaultgrey" d="M0,5.5v10l.5.5h4l.5-.5V5.5L4.5,5H.5ZM1,13H4v2H1Zm0-3H4v2H1ZM1,7H4V9H1Z" />
  </g>
</svg>
