<svg xmlns="http://www.w3.org/2000/svg" viewBox="0 0 16 16">
  <defs>
    <style>.canvas{fill: none; opacity: 0;}.light-defaultgrey-10{fill: #212121; opacity: 0.1;}.light-defaultgrey{fill: #212121; opacity: 1;}.light-lightblue-10{fill: #0077a0; opacity: 0.1;}.light-lightblue{fill: #0077a0; opacity: 1;}.cls-1{opacity:0.75;}</style>
  </defs>
  <title>IconLightDataTable</title>
  <g id="canvas">
    <path class="canvas" d="M16,16H0V0H16Z" />
  </g>
  <g id="level-1">
    <g class="cls-1">
      <path class="light-defaultgrey-10" d="M15.5,2.5v9H9V9.813C9,8.1,7.038,7,4,7c-.175,0-.333.016-.5.023V2.5Z" />
      <path class="light-defaultgrey" d="M3,2V7.047C3.32,7.018,3.651,7,4,7V6H7V7.477A3.022,3.022,0,0,1,8.813,9H11v2H9v1h6.5l.5-.5V2ZM7,5H4V3H7Zm4,3H8V6h3Zm0-3H8V3h3Zm4,6H12V9h3Zm0-3H12V6h3Zm0-3H12V3h3Z" />
    </g>
    <path class="light-defaultgrey-10" d="M15.5.5v2H3.5V.5h12Z" />
    <path class="light-defaultgrey" d="M15.5,0H3.5L3,.5v2l.5.5h12l.5-.5V.5ZM15,2H4V1H15Z" />
    <path class="light-lightblue-10" d="M4,8.5C2.314,8.5.5,9,.5,10.086v3.828C.5,15,2.314,15.5,4,15.5s3.5-.5,3.5-1.586V10.086C7.5,9,5.686,8.5,4,8.5Z" />
    <path class="light-lightblue" d="M4,8C2.073,8,0,8.567,0,9.813v4.375C0,15.433,2.073,16,4,16s4-.567,4-1.812V9.813C8,8.567,5.927,8,4,8ZM4,9c1.969,0,3,.6,3,.813s-1.031.812-3,.812-3-.6-3-.812S2.031,9,4,9Zm0,6c-1.969,0-3-.6-3-.812V11.051a7.2,7.2,0,0,0,3,.574,7.2,7.2,0,0,0,3-.574v3.137C7,14.4,5.969,15,4,15Z" />
  </g>
</svg>
