<svg xmlns="http://www.w3.org/2000/svg" viewBox="0 0 16 16">
  <defs>
    <style>.canvas{fill: none; opacity: 0;}.light-lightblue-10{fill: #0077a0; opacity: 0.1;}.light-lightblue{fill: #0077a0; opacity: 1;}.light-defaultgrey{fill: #212121; opacity: 1;}</style>
  </defs>
  <title>DatabaseMobileConnection</title>
  <g id="canvas">
    <path class="canvas" d="M16,16H0V0H16Z" />
  </g>
  <g id="level-1">
    <path class="light-lightblue-10" d="M11.5,4.97V10c0,.829-1.791,1.5-4,1.5s-4-.671-4-1.5V4.97c0-.828,1.791-1.5,4-1.5S11.5,4.142,11.5,4.97Z" />
    <path class="light-lightblue" d="M12,4.97c0-2.627-9-2.627-9,0H3V10c0,1.314,2.264,2,4.5,2s4.5-.686,4.5-2V4.97Zm-4.5-1c2.273,0,3.5.71,3.5,1s-1.227,1-3.5,1S4,5.26,4,4.97,5.227,3.97,7.5,3.97ZM11,10c0,.29-1.227,1-3.5,1S4,10.29,4,10V6.261H4a7.863,7.863,0,0,0,3.5.709A7.863,7.863,0,0,0,11,6.261h0Z" />
    <path class="light-defaultgrey" d="M16,5H15a4,4,0,0,0-4-4V0A5.006,5.006,0,0,1,16,5ZM11,2V3a2,2,0,0,1,2,2h1A3,3,0,0,0,11,2Z" />
    <path class="light-defaultgrey" d="M12,14v1H3V14H6.5v-.5L7,13V12H8v1l.5.5V14Z" />
  </g>
</svg>
