<svg xmlns="http://www.w3.org/2000/svg" viewBox="0 0 16 16">
  <defs>
    <style>.canvas{fill: none; opacity: 0;}.light-lightblue-10{fill: #0077a0; opacity: 0.1;}.light-lightblue{fill: #0077a0; opacity: 1;}.light-defaultgrey{fill: #212121; opacity: 1;}</style>
  </defs>
  <title>IconLightDatabaseSchema</title>
  <g id="canvas" class="canvas">
    <path class="canvas" d="M16,16H0V0H16Z" />
  </g>
  <g id="level-1">
    <path class="light-lightblue-10" d="M13.5,2.97V11c0,.828-1.791,1.5-4,1.5-.031,0-.059,0-.089,0L9,12.086v-1L7.914,10h-1L7,9.914V7.086L5.914,6H5.5V2.97c0-.828,1.791-1.5,4-1.5S13.5,2.142,13.5,2.97Z" />
    <path class="light-lightblue" d="M5,2.97V6h.914L6,6.086V4.261a7.863,7.863,0,0,0,3.5.709A7.863,7.863,0,0,0,13,4.261V11c0,.29-1.227,1-3.5,1-.177,0-.336-.011-.5-.019v.105l.9.9C12,12.908,14,12.235,14,11V2.97C14,.343,5,.343,5,2.97Zm4.5,1c-2.273,0-3.5-.71-3.5-1s1.227-1,3.5-1,3.5.71,3.5,1S11.773,3.97,9.5,3.97Z" />
    <path class="light-defaultgrey" d="M8.5,13H8V11.5L7.5,11H5V10h.5L6,9.5v-2L5.5,7h-2L3,7.5v2l.5.5H4v1H1.5l-.5.5V13H.5l-.5.5v2l.5.5h2l.5-.5v-2L2.5,13H2V12H7v1H6.5l-.5.5v2l.5.5h2l.5-.5v-2ZM4,8H5V9H4ZM2,15H1V14H2Zm6,0H7V14H8Z" />
  </g>
</svg>
