<svg xmlns="http://www.w3.org/2000/svg" viewBox="0 0 16 16">
  <defs>
    <style>.canvas{fill: none; opacity: 0;}.light-defaultgrey-10{fill: #212121; opacity: 0.1;}.light-defaultgrey{fill: #212121; opacity: 1;}.light-lightblue-10{fill: #0077a0; opacity: 0.1;}.light-lightblue{fill: #0077a0; opacity: 1;}</style>
  </defs>
  <title>IconLightDataGrid</title>
  <g id="canvas">
    <path class="canvas" d="M16,16H0V0H16Z" />
  </g>
  <g id="level-1">
    <path class="light-defaultgrey-10" d="M15.5.5v9H10V5.97c0-1.624-1.626-2.47-3.5-2.8V.5Z" />
    <path class="light-defaultgrey" d="M15.5,0h-9L6,.5V3.094A6.877,6.877,0,0,1,8.821,4L9,4.123A2.238,2.238,0,0,1,10,5.97V4h2V6H10V7h2V9H10v1h5.5l.5-.5V.5ZM9,3H7V1H9Zm3,0H10V1h2Zm3,6H13V7h2Zm0-3H13V4h2Zm0-3H13V1h2Z" />
    <path class="light-lightblue-10" d="M8.5,5.97V14c0,.828-1.791,1.5-4,1.5s-4-.672-4-1.5V5.97c0-.828,1.791-1.5,4-1.5S8.5,5.142,8.5,5.97Z" />
    <path class="light-lightblue" d="M9,5.97c0-2.627-9-2.627-9,0H0V14c0,1.313,2.264,2,4.5,2S9,15.313,9,14V5.97Zm-4.5-1c2.273,0,3.5.71,3.5,1s-1.227,1-3.5,1S1,6.26,1,5.97,2.227,4.97,4.5,4.97ZM8,14c0,.29-1.227,1-3.5,1S1,14.29,1,14V7.261H1a7.863,7.863,0,0,0,3.5.709A7.863,7.863,0,0,0,8,7.261H8Z" />
  </g>
</svg>
