<svg xmlns="http://www.w3.org/2000/svg" viewBox="0 0 16 16">
  <defs>
    <style>.canvas{fill: none; opacity: 0;}.light-yellow{fill: #996f00; opacity: 1;}.light-yellow-10{fill: #996f00; opacity: 0.1;}.light-defaultgrey{fill: #212121; opacity: 1;}.light-defaultgrey-10{fill: #212121; opacity: 0.1;}</style>
  </defs>
  <title>IconLightDataMining</title>
  <g id="canvas">
    <path class="canvas" d="M16,16H0V0H16Z" />
  </g>
  <g id="level-1">
    <path class="light-yellow" d="M2.411,15,1,13.589v-.708L8.071,5.81h.707L10.19,7.222v.707L3.119,15Zm-.35-1.765.7.7L9.129,7.575l-.7-.7Z" />
    <path class="light-yellow-10" d="M9.836,7.575,2.765,14.646,1.354,13.235,8.425,6.164Z" />
    <path class="light-defaultgrey" d="M13.135,4.966l.582-.581V3.678l-.345-.345-.708-.707-.344-.345h-.708l-.581.581A9.516,9.516,0,0,0,5.074.189L4.7,1.042,8.773,5.12l-.7.7v.707l.345.345.707.707.345.345h.707l.7-.7L14.955,11.3l.853-.379A9.518,9.518,0,0,0,13.135,4.966Zm-1.9,1.2h-.708l-.7.7-.689-.69.7-.7V4.767L6.54,1.473a10.283,10.283,0,0,1,4.17,2.446l.692-.013.565-.564.688.689-.563.564-.014.692a10.272,10.272,0,0,1,2.446,4.17Z" />
    <path class="light-defaultgrey-10" d="M15,9.307l-.83.5L11.023,6.664H10.73l-.9.9-.7-.7-.7-.7.9-.9V4.974L6.186,1.827,6.69,1A10.648,10.648,0,0,1,10.9,3.415l.291-.006.776-.774.7.7.7.7-.774.776-.006.292A10.636,10.636,0,0,1,15,9.307Z" />
  </g>
</svg>
