<svg xmlns="http://www.w3.org/2000/svg" viewBox="0 0 16 16">
  <defs>
    <style>.canvas{fill: none; opacity: 0;}.light-lightblue-10{fill: #0077a0; opacity: 0.1;}.light-lightblue{fill: #0077a0; opacity: 1;}.light-defaultgrey-10{fill: #212121; opacity: 0.1;}.light-defaultgrey{fill: #212121; opacity: 1;}</style>
  </defs>
  <title>IconLightDatabaseApplication</title>
  <g id="canvas" class="canvas">
    <path class="canvas" d="M16,16H0V0H16Z" />
  </g>
  <g id="level-1">
    <path class="light-lightblue-10" d="M13.5,2.97V11c0,.629-1.035,1.166-2.5,1.389v-4.3L9.914,7H5.5V2.97c0-.828,1.791-1.5,4-1.5S13.5,2.142,13.5,2.97Z" />
    <path class="light-lightblue" d="M5,2.97V7H6V4.261a7.863,7.863,0,0,0,3.5.709A7.863,7.863,0,0,0,13,4.261V11c0,.218-.692.673-2,.885V12.89c1.646-.239,3-.875,3-1.89V2.97C14,.343,5,.343,5,2.97Zm4.5,1c-2.273,0-3.5-.71-3.5-1s1.227-1,3.5-1,3.5.71,3.5,1S11.773,3.97,9.5,3.97Z" />
    <path class="light-defaultgrey-10" d="M9.5,15.5H.5V9h9Z" />
    <path class="light-defaultgrey" d="M9.5,8H.5L0,8.5v7l.5.5h9l.5-.5v-7ZM9,15H1V10H9Z" />
  </g>
</svg>
