<svg xmlns="http://www.w3.org/2000/svg" viewBox="0 0 16 16">
  <defs>
    <style>.canvas{fill: none; opacity: 0;}.light-defaultgrey-10{fill: #212121; opacity: 0.1;}.light-defaultgrey{fill: #212121; opacity: 1;}.light-lightblue-10{fill: #0077a0; opacity: 0.1;}.light-lightblue{fill: #0077a0; opacity: 1;}.cls-1{opacity:0.75;}</style>
  </defs>
  <title>IconLightDataServer</title>
  <g id="canvas">
    <path class="canvas" d="M16,16H0V0H16Z" />
  </g>
  <g id="level-1">
    <path class="light-defaultgrey-10" d="M15.5,1.5v10H10V5.97a2.109,2.109,0,0,0-.5-1.385V1.5a1,1,0,0,1,1-1h4A1,1,0,0,1,15.5,1.5Z" />
    <path class="light-defaultgrey" d="M16,1.5v10l-.5.5H10V11h5V1.5a.5.5,0,0,0-.5-.5h-4a.5.5,0,0,0-.5.5V5.97A2.238,2.238,0,0,0,9,4.123V1.5A1.5,1.5,0,0,1,10.5,0h4A1.5,1.5,0,0,1,16,1.5Z" />
    <g class="cls-1">
      <path class="light-defaultgrey" d="M14,3V4H11V3ZM11,8h3V7H11Zm0,2h3V9H11Z" />
    </g>
    <path class="light-lightblue-10" d="M8.5,6v8c0,.828-1.791,1.5-4,1.5s-4-.672-4-1.5V6c0-.829,1.791-1.5,4-1.5S8.5,5.171,8.5,6Z" />
    <path class="light-lightblue" d="M0,5.97V14c0,1.313,2.264,2,4.5,2S9,15.313,9,14V5.97C9,3.343,0,3.343,0,5.97ZM8,9.853c-.175.21-.941.9-3.5.9s-3.325-.687-3.5-.9V7.261a7.863,7.863,0,0,0,3.5.709A7.863,7.863,0,0,0,8,7.261ZM4.5,4.97c2.273,0,3.5.71,3.5,1s-1.227,1-3.5,1S1,6.26,1,5.97,2.227,4.97,4.5,4.97ZM4.5,15C2.227,15,1,14.29,1,14V11.084a7.425,7.425,0,0,0,3.5.666A7.425,7.425,0,0,0,8,11.084V14C8,14.29,6.773,15,4.5,15Z" />
  </g>
</svg>
