<svg xmlns="http://www.w3.org/2000/svg" viewBox="0 0 16 16">
  <defs>
    <style>.canvas{fill: none; opacity: 0;}.light-defaultgrey-10{fill: #212121; opacity: 0.1;}.light-defaultgrey{fill: #212121; opacity: 1;}.cls-1{opacity:0.75;}</style>
  </defs>
  <title>IconLightDataCenter</title>
  <g id="canvas">
    <path class="canvas" d="M16,16H0V0H16Z" />
  </g>
  <g id="level-1">
    <path class="light-defaultgrey-10" d="M15.5,3.5v10h-6V3.5a1,1,0,0,1,1-1h4A1,1,0,0,1,15.5,3.5Z" />
    <path class="light-defaultgrey" d="M14.5,2h-4A1.5,1.5,0,0,0,9,3.5v10l.5.5h6l.5-.5V3.5A1.5,1.5,0,0,0,14.5,2ZM15,13H10V3.5a.5.5,0,0,1,.5-.5h4a.5.5,0,0,1,.5.5Z" />
    <g class="cls-1">
      <path class="light-defaultgrey" d="M14,5V6H11V5Zm-3,5h3V9H11Zm0,2h3V11H11Z" />
    </g>
    <path class="light-defaultgrey-10" d="M6.5,3.5v10H.5V3.5a1,1,0,0,1,1-1h4A1,1,0,0,1,6.5,3.5Z" />
    <path class="light-defaultgrey" d="M5.5,2h-4A1.5,1.5,0,0,0,0,3.5v10l.5.5h6l.5-.5V3.5A1.5,1.5,0,0,0,5.5,2ZM6,13H1V3.5A.5.5,0,0,1,1.5,3h4a.5.5,0,0,1,.5.5Z" />
    <g class="cls-1">
      <path class="light-defaultgrey" d="M5,5V6H2V5ZM2,10H5V9H2Zm0,2H5V11H2Z" />
    </g>
    <path class="light-defaultgrey" d="M9.5,7h-3V6h3Zm0,2h-3v1h3Z" />
  </g>
</svg>
