<svg xmlns="http://www.w3.org/2000/svg" viewBox="0 0 16 16">
  <defs>
    <style>.canvas{fill: none; opacity: 0;}.light-defaultgrey-10{fill: #212121; opacity: 0.1;}.light-defaultgrey{fill: #212121; opacity: 1;}.light-lightblue-10{fill: #0077a0; opacity: 0.1;}.light-lightblue{fill: #0077a0; opacity: 1;}</style>
  </defs>
  <title>IconLightDataRepeater</title>
  <g id="canvas">
    <path class="canvas" d="M16,16H0V0H16Z" />
  </g>
  <g id="level-1">
    <path class="light-defaultgrey-10" d="M15.5,11.5v2H10v-2Zm0-4v2H10v-2Z" />
    <path class="light-defaultgrey" d="M16,7.5v2l-.5.5H10V9h5V8H10V7h5.5Zm0,4v2l-.5.5H10V13h5V12H10V11h5.5Z" />
    <path class="light-defaultgrey-10" d="M15.5.5v5H9.946C9.55,3.667,6.845,3,4.5,3c-.329,0-.664.014-1,.041V.5Z" />
    <path class="light-defaultgrey" d="M16,.5v5l-.5.5H10V5.97A2.1,2.1,0,0,0,9.766,5H15V1H4V3.01c-.332.014-.668.042-1,.084V.5L3.5,0h12Z" />
    <path class="light-defaultgrey" d="M6.5,3.169A11.723,11.723,0,0,0,4.5,3l2-1ZM12,2l2,1L12,4Z" />
    <path class="light-lightblue-10" d="M8.5,6v8c0,.828-1.791,1.5-4,1.5s-4-.672-4-1.5V6c0-.829,1.791-1.5,4-1.5S8.5,5.171,8.5,6Z" />
    <path class="light-lightblue" d="M9,5.97c0-2.627-9-2.627-9,0H0V14c0,1.313,2.264,2,4.5,2S9,15.313,9,14V5.97Zm-4.5-1c2.273,0,3.5.71,3.5,1s-1.227,1-3.5,1S1,6.26,1,5.97,2.227,4.97,4.5,4.97ZM8,14c0,.29-1.227,1-3.5,1S1,14.29,1,14V7.261H1a7.863,7.863,0,0,0,3.5.709A7.863,7.863,0,0,0,8,7.261H8Z" />
  </g>
</svg>
