<svg xmlns="http://www.w3.org/2000/svg" viewBox="0 0 16 16">
  <defs>
    <style>.canvas{fill: none; opacity: 0;}.light-defaultgrey-10{fill: #212121; opacity: 0.1;}.light-defaultgrey{fill: #212121; opacity: 1;}.light-yellow-10{fill: #996f00; opacity: 0.1;}.light-yellow{fill: #996f00; opacity: 1;}.cls-1{opacity:0.75;}</style>
  </defs>
  <title>IconLightDataMiningQuery</title>
  <g id="canvas">
    <path class="canvas" d="M16,16H0V0H16Z" />
  </g>
  <g id="level-1">
    <g class="cls-1">
      <path class="light-defaultgrey-10" d="M15.5,1.777v7H14v-3l-.5-.5h-7v-3.5Z" />
      <path class="light-defaultgrey" d="M16,1.777v7l-.5.5H14v-1h1v-5H7v2H6.5l-.5.5v-4l.5-.5h9Z" />
      <path class="light-defaultgrey-10" d="M13.5,4.777v7H9.57a9.288,9.288,0,0,0-1.011-1.716l.314-.314V8.315L7.685,7.127H6.254l-.3.3A8.628,8.628,0,0,0,4.5,6.554V4.777Z" />
      <path class="light-defaultgrey" d="M14,4.777v7l-.5.5H9.782a9.473,9.473,0,0,0-.453-1H13v-5H5v.541a9.526,9.526,0,0,0-1-.491V4.777l.5-.5h9Z" />
    </g>
    <path class="light-yellow-10" d="M13.5,5.777v4H8.843l.03-.03V8.315L7.685,7.127H6.5V5.777Z" />
    <path class="light-yellow" d="M11.978,8.277H8.834L8,7.442V7.277h3.978Zm1.522-3h-7l-.5.5v1.6l.254-.254H7v-.85h6v3H8.873v.47l-.314.314c.053.072.1.144.148.216H13.5l.5-.5v-4Z" />
    <path class="light-yellow" d="M.6,16,0,15.4v-.6L5.426,9.368h.6l.6.6v.6L1.206,16Z" />
    <path class="light-defaultgrey" d="M8.44,13.589,6.029,11.177l-.56.56L4.263,10.531l.56-.56L2.416,7.564l.56-.559a8.3,8.3,0,0,1,3.043,1.77l.648-.648h.6l.6.6v.6l-.656.656A8.64,8.64,0,0,1,9,13.029Z" />
  </g>
</svg>
