<svg xmlns="http://www.w3.org/2000/svg" viewBox="0 0 16 16">
  <defs>
    <style>.canvas{fill: none; opacity: 0;}.light-lightblue-10{fill: #0077a0; opacity: 0.1;}.light-lightblue{fill: #0077a0; opacity: 1;}.light-defaultgrey-10{fill: #212121; opacity: 0.1;}.light-defaultgrey{fill: #212121; opacity: 1;}.cls-1{opacity:0.75;}</style>
  </defs>
  <title>DatasetReference</title>
  <g id="canvas">
    <path class="canvas" d="M16,16H0V0H16Z" />
  </g>
  <g id="level-1">
    <g class="cls-1">
      <path class="light-lightblue-10" d="M11,4.082V3.97c0-1.117-1.63-1.754-3.5-1.921V2c0-.828,1.791-1.5,4-1.5s4,.672,4,1.5v8c0,.829-1.791,1.5-4,1.5-.171,0-.334-.011-.5-.019Z" />
      <path class="light-lightblue" d="M11,10.981c.164.008.323.019.5.019,2.273,0,3.5-.71,3.5-1V3.261a7.863,7.863,0,0,1-3.5.709c-.17,0-.336-.015-.505-.023a1.348,1.348,0,0,0-.66-1.051A9.5,9.5,0,0,0,11.5,2.97c2.273,0,3.5-.71,3.5-1s-1.227-1-3.5-1S8,1.68,8,1.97a.253.253,0,0,0,.077.144A10.668,10.668,0,0,0,7,2.018V1.97c0-2.627,9-2.627,9,0V10c0,1.314-2.264,2-4.5,2-.167,0-.333-.011-.5-.019Z" />
    </g>
    <path class="light-lightblue-10" d="M10.5,4v8c0,.472-.592.887-1.5,1.162V8.086L7.914,7H2.5V4c0-.829,1.791-1.5,4-1.5S10.5,3.171,10.5,4Z" />
    <path class="light-lightblue" d="M2,3.97V7H3V5.261a7.863,7.863,0,0,0,3.5.709A7.863,7.863,0,0,0,10,5.261V12c0,.153-.348.42-1,.64v1.043c1.158-.321,2-.885,2-1.683V3.97C11,1.343,2,1.343,2,3.97Zm4.5,1c-2.273,0-3.5-.71-3.5-1s1.227-1,3.5-1,3.5.71,3.5,1S8.773,4.97,6.5,4.97Z" />
    <path class="light-defaultgrey-10" d="M7.5,8.5v7H.5v-7Z" />
    <path class="light-defaultgrey" d="M7.5,8H.5L0,8.5v7l.5.5h7l.5-.5v-7ZM7,15H1V9H7ZM6,10.5V14H5V11.707L2.354,14.354l-.708-.708L4.293,11H2V10H5.5Z" />
  </g>
</svg>
