<svg xmlns="http://www.w3.org/2000/svg" viewBox="0 0 16 16">
  <defs>
    <style>.canvas{fill: none; opacity: 0;}.light-defaultgrey-10{fill: #212121; opacity: 0.1;}.light-defaultgrey{fill: #212121; opacity: 1;}.cls-1{opacity:0.75;}</style>
  </defs>
  <title>IconLightDateTimePicker</title>
  <g id="canvas">
    <path class="canvas" d="M16,16H0V0H16Z" />
  </g>
  <g id="level-1">
    <g class="cls-1">
      <path class="light-defaultgrey-10" d="M4.5,6h10v7.5H4.5Z" />
      <path class="light-defaultgrey" d="M14.5,6l.5-.5v8l-.5.5H4.5L4,13.5V6H5v7h9V6Z" />
      <path class="light-defaultgrey" d="M7,8H6V7H7ZM9,7H8V8H9Zm2,0H10V8h1Zm2,0H12V8h1ZM7,9H6v1H7ZM9,9H8v1H9ZM7,11H6v1H7Zm2,0H8v1H9Z" />
    </g>
    <path class="light-defaultgrey-10" d="M12.5,11.5h-2v-2h2Z" />
    <path class="light-defaultgrey" d="M12.5,12h-2l-.5-.5v-2l.5-.5h2l.5.5v2ZM11,11h1V10H11Z" />
    <path class="light-defaultgrey-10" d="M14.5,5.5H1.5v-4h13Z" />
    <path class="light-defaultgrey" d="M14.5,1H1.5L1,1.5v4l.5.5h13l.5-.5v-4ZM2,2h8V5H2ZM14,5H11V2h3Z" />
    <path class="light-defaultgrey" d="M12.5,4.125,11.75,3h1.5Z" />
  </g>
</svg>
