<svg xmlns="http://www.w3.org/2000/svg" viewBox="0 0 16 16">
  <defs>
    <style>.canvas{fill: none; opacity: 0;}.light-defaultgrey{fill: #212121; opacity: 1;}.light-defaultgrey-10{fill: #212121; opacity: 0.1;}.cls-1{opacity:0.75;}</style>
  </defs>
  <title>IconLightDateTimeAxis</title>
  <g id="canvas">
    <path class="canvas" d="M16,16H0V0H16Z" />
  </g>
  <g id="level-1">
    <g class="cls-1">
      <path class="light-defaultgrey" d="M13,16H12V15h1Zm-2,0H10V15h1ZM9,16H8V15H9ZM7,16H6V15H7ZM5,16H4V15H5ZM3,16H2V15H3Zm11-3H2V1H1V13.5l.5.5H14Z" />
    </g>
    <path class="light-defaultgrey-10" d="M13.5,11.5H3.5v-8h10Z" />
    <path class="light-defaultgrey" d="M13.5,2H12V1H11V2H6V1H5V2H3.5L3,2.5v9l.5.5h10l.5-.5v-9ZM13,11H4V4h9Z" />
    <path class="light-defaultgrey" d="M11,10H8V9.418a1.517,1.517,0,0,1,.109-.57,1.533,1.533,0,0,1,.258-.422,5.46,5.46,0,0,1,.391-.414q.219-.212.429-.391a4.511,4.511,0,0,0,.4-.383,2.993,2.993,0,0,0,.3-.367A.694.694,0,0,0,10,6.5a.5.5,0,0,0-.813-.391.543.543,0,0,0-.179.289l-.977-.2a1.372,1.372,0,0,1,.18-.476,1.292,1.292,0,0,1,.344-.375A1.962,1.962,0,0,1,9,5.1,1.323,1.323,0,0,1,9.5,5a1.474,1.474,0,0,1,.586.117,1.5,1.5,0,0,1,.8.8A1.474,1.474,0,0,1,11,6.5a1.639,1.639,0,0,1-.086.547,1.738,1.738,0,0,1-.242.453,3.506,3.506,0,0,1-.344.4q-.187.187-.4.36a5.09,5.09,0,0,0-.4.359q-.187.188-.367.383H11Z" />
    <path class="light-defaultgrey" d="M6.1,6.152A3.152,3.152,0,0,1,5.57,6.4,1.688,1.688,0,0,1,5,6.5v-1a.924.924,0,0,0,.242-.047,2.486,2.486,0,0,0,.313-.117,1.5,1.5,0,0,0,.281-.164A.673.673,0,0,0,6.008,5H7v5H6.1Z" />
  </g>
</svg>
