<svg xmlns="http://www.w3.org/2000/svg" viewBox="0 0 16 16">
  <defs>
    <style>.canvas{fill: none; opacity: 0;}.light-defaultgrey-10{fill: #212121; opacity: 0.1;}.light-defaultgrey{fill: #212121; opacity: 1;}</style>
  </defs>
  <title>IconLightDebug</title>
  <g id="canvas" class="canvas">
    <path class="canvas" d="M16,16H0V0H16Z" />
  </g>
  <g id="level-1">
    <path class="light-defaultgrey-10" d="M12.5,10a4.5,4.5,0,0,1-9,0V9a4.5,4.5,0,0,1,9,0Z" />
    <path class="light-defaultgrey-10" d="M6.477,4.783a2,2,0,1,1,3.046,0A4.456,4.456,0,0,0,8,4.5,4.456,4.456,0,0,0,6.477,4.783Z" />
    <path class="light-defaultgrey" d="M14.5,7H12.576a4.935,4.935,0,0,0-.475-.846l1.757-1.8L14,4V2H13V3.8l-1.554,1.6a5,5,0,0,0-1.2-.835A2.415,2.415,0,0,0,10.5,3.5a2.48,2.48,0,0,0-.639-1.654l.993-.992L10.146.146,9.053,1.24a2.43,2.43,0,0,0-2.106,0L5.854.146,5.146.854l.993.992A2.48,2.48,0,0,0,5.5,3.5a2.415,2.415,0,0,0,.251,1.059,5,5,0,0,0-1.2.835L3,3.8V2H2V4l.142.349L3.9,6.154A4.935,4.935,0,0,0,3.424,7H1.5L1,7.5V10H2V8H3.1A5,5,0,0,0,3,9v1a4.937,4.937,0,0,0,.2,1.328L2.11,12.687,2,13v2H3V13.176l.634-.789a4.954,4.954,0,0,0,8.732,0l.634.789V15h1V13l-.11-.313L12.8,11.328A4.937,4.937,0,0,0,13,10V9a5,5,0,0,0-.1-1H14v2h1V7.5ZM6.677,4.192A1.433,1.433,0,0,1,6.5,3.5a1.5,1.5,0,0,1,3,0,1.433,1.433,0,0,1-.177.692c-.028-.008-.056-.01-.084-.018-.139-.036-.278-.068-.422-.091A4.556,4.556,0,0,0,8,4a4.556,4.556,0,0,0-.817.083c-.144.023-.283.055-.422.091C6.733,4.182,6.705,4.184,6.677,4.192ZM8,14a4,4,0,0,1-4-4V9A4,4,0,0,1,6.645,5.252h0a4.635,4.635,0,0,1,.659-.183A3.974,3.974,0,0,1,8,5a3.974,3.974,0,0,1,.7.07,4.635,4.635,0,0,1,.659.183h0A4,4,0,0,1,12,9v1A4,4,0,0,1,8,14Z" />
    <path class="light-defaultgrey" d="M8.707,9.5l1.9,1.9L9.9,12.1,8,10.207,6.1,12.1,5.4,11.4l1.9-1.9L5.4,7.6,6.1,6.9,8,8.793,9.9,6.9,10.6,7.6Z" />
  </g>
</svg>
