<svg xmlns="http://www.w3.org/2000/svg" viewBox="0 0 16 16">
  <defs>
    <style>.canvas{fill: none; opacity: 0;}.light-defaultgrey{fill: #212121; opacity: 1;}.light-defaultgrey-10{fill: #212121; opacity: 0.1;}.cls-1{opacity:0.75;}</style>
  </defs>
  <title>IconLightDecisionTree</title>
  <g id="canvas" class="canvas">
    <path class="canvas" d="M16,16H0V0H16Z" />
  </g>
  <g id="level-1">
    <g class="cls-1">
      <path class="light-defaultgrey" d="M8,7H9v3H8V9H6V8H8Zm5-3V5H11V6h2V7h1V4Z" />
    </g>
    <path class="light-defaultgrey-10" d="M1.5,6.5h4v4h-4Zm6,0h3v-3h-3Zm0,7h3v-3h-3Zm5-12v2h2v-2Zm0,8h2v-2h-2Z" />
    <path class="light-defaultgrey" d="M1.5,6,1,6.5v4l.5.5h4l.5-.5v-4L5.5,6ZM5,10H2V7H5ZM7.5,3,7,3.5v3l.5.5h3l.5-.5v-3L10.5,3ZM10,6H8V4h2ZM7.5,10l-.5.5v3l.5.5h3l.5-.5v-3l-.5-.5ZM10,13H8V11h2ZM14.5,1h-2l-.5.5v2l.5.5h2l.5-.5v-2ZM14,3H13V2h1ZM12.5,7l-.5.5v2l.5.5h2l.5-.5v-2L14.5,7ZM14,9H13V8h1Z" />
  </g>
</svg>
