<svg xmlns="http://www.w3.org/2000/svg" viewBox="0 0 16 16">
  <defs>
    <style>.canvas{fill: none; opacity: 0;}.light-defaultgrey{fill: #212121; opacity: 1;}.light-blue{fill: #005dba; opacity: 1;}</style>
  </defs>
  <title>IconLightDecreaseDecimals</title>
  <g id="canvas" class="canvas">
    <path class="canvas" d="M16,0V16H0V0Z" />
  </g>
  <g id="level-1">
    <path class="light-defaultgrey" d="M5,6A1,1,0,1,1,4,5,1,1,0,0,1,5,6Zm4,6a1,1,0,1,0,1,1A1,1,0,0,0,9,12Zm1.063-7.937a3.759,3.759,0,0,1-.534,2.18A1.754,1.754,0,0,1,8,7Q6,7,6,4.192a3.817,3.817,0,0,1,.541-2.22,1.8,1.8,0,0,1,1.568-.764Q10.064,1.208,10.063,4.063ZM8.805,4.1q0-1.954-.75-1.954-.8,0-.8,2.012,0,1.895.785,1.9Q8.8,6.056,8.805,4.1Zm2.2.089a3.817,3.817,0,0,1,.541-2.22,1.8,1.8,0,0,1,1.568-.764q1.955,0,1.954,2.855a3.759,3.759,0,0,1-.534,2.18A1.754,1.754,0,0,1,13,7Q11,7,11,4.192Zm1.254-.031q0,1.895.785,1.9.765,0,.766-1.953t-.75-1.954Q12.254,2.149,12.254,4.161Zm2.809,6.9a3.758,3.758,0,0,1-.534,2.179A1.754,1.754,0,0,1,13,14q-2,0-2-2.809a3.817,3.817,0,0,1,.541-2.22,1.8,1.8,0,0,1,1.568-.764Q15.064,8.207,15.063,11.063Zm-1.258.039q0-1.955-.75-1.954-.8,0-.8,2.012,0,1.895.785,1.895Q13.8,13.055,13.805,11.1Z" />
    <path class="light-blue" d="M6.854,11.146v.708L4.629,14.079l-.707-.707L5.294,12H0V11H5.294L3.922,9.628l.707-.707Z" />
  </g>
</svg>
