<svg xmlns="http://www.w3.org/2000/svg" viewBox="0 0 16 16">
  <defs>
    <style>.canvas{fill: none; opacity: 0;}.light-defaultgrey{fill: #212121; opacity: 1;}.light-green{fill: #1f801f; opacity: 1;}.light-defaultgrey-10{fill: #212121; opacity: 0.1;}.cls-1{opacity:0.75;}</style>
  </defs>
  <title>IconLightDelayWorkflow</title>
  <g id="canvas">
    <path class="canvas" d="M16,16H0V0H16Z" />
  </g>
  <g id="level-1">
    <g class="cls-1">
      <path class="light-defaultgrey" d="M14.389,12.389l.707.707A6.5,6.5,0,0,1,4.025,9a4.946,4.946,0,0,0,.995-.1,5.5,5.5,0,0,0,9.369,3.5Z" />
      <path class="light-defaultgrey" d="M15.354,2.146v.708L13.409,4.8,12.7,4.091,13.793,3H10.5a5.479,5.479,0,0,0-1.577.233,4.959,4.959,0,0,0-.251-.967A6.5,6.5,0,0,1,10.5,2h3.293L12.7.909,13.409.2Z" />
    </g>
    <path class="light-green" d="M14.354,6.854l-4.5,4.5H9.146l-2.5-2.5.708-.708L9.5,10.293l4.146-4.147Z" />
    <path class="light-defaultgrey-10" d="M7.5,4A3.5,3.5,0,1,1,4,.5,3.5,3.5,0,0,1,7.5,4Z" />
    <path class="light-defaultgrey" d="M4,8A4,4,0,1,1,8,4,4,4,0,0,1,4,8ZM4,1A3,3,0,1,0,7,4,3,3,0,0,0,4,1ZM5.5,5H4l-.5-.5V2h1V4h1Z" />
  </g>
</svg>
