<svg xmlns="http://www.w3.org/2000/svg" viewBox="0 0 16 16">
  <defs>
    <style>.canvas{fill: none; opacity: 0;}.light-yellow-10{fill: #996f00; opacity: 0.1;}.light-yellow{fill: #996f00; opacity: 1;}.light-red{fill: #c50b17; opacity: 1;}</style>
  </defs>
  <title>DeleteEntity</title>
  <g id="canvas">
    <path class="canvas" d="M16,16H0V0H16Z" />
  </g>
  <g id="level-1">
    <path class="light-yellow-10" d="M7.5,3.5l2,2-4,4-2-2,.939-.939.707.707L7.268,5.146l-.707-.707ZM15,8,13.5,6.5l-2,2L13,10Zm-3.5,5.5L13,15l2-2-1.5-1.5Z" />
    <path class="light-yellow" d="M11.146,8.854l1.5,1.5h.708l2-2V7.646l-1.5-1.5h-.708L12.293,7H8.707L9.854,5.854V5.146l-2-2H7.146l-.939.94.707.707L7.5,4.207,8.793,5.5,5.5,8.793,4.207,7.5l.586-.586-.707-.707-.94.939v.708l2,2h.708L7.707,8H9v4.5l.5.5h1.793l-.147.146v.708l1.5,1.5h.708l2-2v-.708l-1.5-1.5h-.708L12.293,12H10V8h1.293l-.147.146ZM13.5,12.207l.793.793L13,14.293l-.793-.793Zm0-5L14.293,8,13,9.293,12.207,8.5Z" />
    <path class="light-red" d="M3.707,3,5.854,5.146l-.708.708L3,3.707.854,5.854.146,5.146,2.293,3,.146.854.854.146,3,2.293,5.146.146l.708.708Z" />
  </g>
</svg>
