<svg xmlns="http://www.w3.org/2000/svg" viewBox="0 0 16 16">
  <defs>
    <style>.canvas{fill: none; opacity: 0;}.light-red{fill: #c50b17; opacity: 1;}.cls-1{opacity:0.75;}</style>
  </defs>
  <title>IconLightDeleteBreakpoint</title>
  <g id="canvas" class="canvas">
    <path class="canvas" d="M16,16H0V0H16Z" />
  </g>
  <g id="level-1">
    <g class="cls-1">
      <path class="light-red" d="M14.5,8A6.5,6.5,0,1,1,1.7,6.419L3,5.121,5.146,7.268,7.268,5.146,5.121,3l1.3-1.3A6.476,6.476,0,0,1,14.5,8Z" />
    </g>
    <path class="light-red" d="M15,8A7,7,0,0,1,1,8a7.107,7.107,0,0,1,.072-.951L2.489,5.632A6.006,6.006,0,1,0,5.632,2.489L7.049,1.072A7.107,7.107,0,0,1,8,1,7.009,7.009,0,0,1,15,8Z" />
    <path class="light-red" d="M3.707,3,5.854,5.146l-.708.708L3,3.707.854,5.854.146,5.146,2.293,3,.146.854.854.146,3,2.293,5.146.146l.708.708Z" />
  </g>
</svg>
