<svg xmlns="http://www.w3.org/2000/svg" viewBox="0 0 16 16">
  <defs>
    <style>.canvas{fill: none; opacity: 0;}.light-defaultgrey-10{fill: #212121; opacity: 0.1;}.light-defaultgrey{fill: #212121; opacity: 1;}.light-red{fill: #c50b17; opacity: 1;}.cls-1{fill:none;}</style>
  </defs>
  <title>IconLightDeleteTableColumn</title>
  <g id="canvas">
    <path class="canvas" d="M16,16H0V0H16Z" />
  </g>
  <g id="level-1">
    <path class="cls-1" d="M16,16H0V0H16Z" />
    <path class="light-defaultgrey-10" d="M14.5,4.5v5h-4v5h-4v-5h-4V5.621l.5-.5L5.146,7.268,7.268,5.146,6.621,4.5Z" />
    <path class="light-defaultgrey" d="M14.5,4H6.121l1,1H10v9H7V5.414l-1,1V9H3V5.121l-1,1V9.5l.5.5H6v4.5l.5.5h4l.5-.5V10h3.5l.5-.5v-5ZM14,9H11V5h3Z" />
    <path class="light-red" d="M3.707,3,5.854,5.146l-.708.708L3,3.707.854,5.854.146,5.146,2.293,3,.146.854.854.146,3,2.293,5.146.146l.708.708Z" />
  </g>
</svg>
