<svg xmlns="http://www.w3.org/2000/svg" viewBox="0 0 16 16">
  <defs>
    <style>.canvas{fill: none; opacity: 0;}.light-defaultgrey{fill: #212121; opacity: 1;}.light-red{fill: #c50b17; opacity: 1;}</style>
  </defs>
  <title>IconLightDeleteVariables</title>
  <g id="canvas">
    <path class="canvas" d="M16,16H0V0H16Z" />
  </g>
  <g id="level-1">
    <path class="light-defaultgrey" d="M16,5.555a.726.726,0,0,1-.078.343.79.79,0,0,1-.2.25.8.8,0,0,1-.3.149,1.666,1.666,0,0,1-.352.055,1.875,1.875,0,0,1-.453-.063c-.166-.042-.315-.086-.445-.133a3.1,3.1,0,0,0-.414.414q-.219.258-.422.539c-.135.188-.266.381-.391.578s-.229.368-.312.508q.078.321.148.633t.156.633q.08.289.172.6a2.119,2.119,0,0,0,.266.571,1.7,1.7,0,0,0,.406.43,1.011,1.011,0,0,0,.61.171c.062,0,.135,0,.218-.007a2.11,2.11,0,0,0,.25-.032l.25-.047a.7.7,0,0,0,.211-.07l-.125.461-.437.188a4.168,4.168,0,0,1-.414.148,3.076,3.076,0,0,1-.422.094,4.073,4.073,0,0,1-.485.039,1.429,1.429,0,0,1-.562-.094.959.959,0,0,1-.367-.273,1.476,1.476,0,0,1-.242-.43c-.063-.167-.125-.349-.188-.547q-.109-.343-.2-.68c-.057-.224-.115-.453-.172-.687q-.3.468-.594.9t-.648.86c-.1.125-.209.244-.313.359a2.293,2.293,0,0,1-.336.3,1.53,1.53,0,0,1-.4.211,1.386,1.386,0,0,1-.469.078.781.781,0,0,1-.539-.188.7.7,0,0,1-.219-.531.749.749,0,0,1,.078-.352.867.867,0,0,1,.211-.257.726.726,0,0,1,.3-.149,2.541,2.541,0,0,1,.359-.054,1.158,1.158,0,0,1,.446.086,3.8,3.8,0,0,0,.445.148,9.523,9.523,0,0,0,.828-.945,8.741,8.741,0,0,0,.688-1.047l-.016-.078c-.021-.1-.052-.232-.094-.4s-.086-.346-.133-.539-.1-.393-.171-.6-.131-.4-.188-.563a2.317,2.317,0,0,0-.2-.445,1.227,1.227,0,0,0-.213-.287c-.126-.11-.287-.2-1.106-.18-.63.017-2.2.029-2.2.029L5.992,11.461A5.033,5.033,0,0,1,5.539,12.7a5.386,5.386,0,0,1-.781,1.141,3.833,3.833,0,0,1-1.063.836A2.759,2.759,0,0,1,2.414,15,2.28,2.28,0,0,1,2,14.961a1.268,1.268,0,0,1-.383-.133.815.815,0,0,1-.281-.25.731.731,0,0,1-.117-.406.787.787,0,0,1,.187-.531.675.675,0,0,1,.524-.227.718.718,0,0,1,.351.086,1.116,1.116,0,0,1,.281.219,1.791,1.791,0,0,1,.227.3l.195.312.055.094a.815.815,0,0,0,.453-.172,1.614,1.614,0,0,0,.36-.391,3.838,3.838,0,0,0,.289-.523,4.237,4.237,0,0,0,.218-.586c.058-.2.11-.385.157-.563s.083-.33.109-.46L5.7,6.711,7.268,5.146l-1-1a5.609,5.609,0,0,1,.315-.861,4.576,4.576,0,0,1,.758-1.14A3.915,3.915,0,0,1,8.375,1.32,2.748,2.748,0,0,1,9.672,1a2.28,2.28,0,0,1,.414.039,1.268,1.268,0,0,1,.383.133.89.89,0,0,1,.289.25.626.626,0,0,1,.109.406.856.856,0,0,1-.172.547.654.654,0,0,1-.531.227.829.829,0,0,1-.414-.094.93.93,0,0,1-.281-.25,2.691,2.691,0,0,1-.211-.328c-.063-.115-.13-.232-.2-.352a.821.821,0,0,0-.516.219,1.911,1.911,0,0,0-.4.516,4.271,4.271,0,0,0-.3.7,6.569,6.569,0,0,0-.211.757q-.078.367-.156.711c-.052.23-.086.409-.1.539,0,0,1.7-.03,2.531-.1.2-.017.868-.056.868-.056a1.307,1.307,0,0,1,.57.11,1.166,1.166,0,0,1,.391.3,1.479,1.479,0,0,1,.257.453c.063.172.125.357.188.555s.109.409.156.617.094.42.141.633l.015.063v.023a.062.062,0,0,0,.008.023q.148-.234.32-.531t.375-.609q.2-.313.43-.61a4.091,4.091,0,0,1,.492-.539,2.263,2.263,0,0,1,.547-.375,1.6,1.6,0,0,1,.61-.148A.72.72,0,0,1,16,5.555Z" />
    <path class="light-red" d="M3.707,3,5.854,5.146l-.708.708L3,3.707.854,5.854.146,5.146,2.293,3,.146.854.854.146,3,2.293,5.146.146l.708.708Z" />
  </g>
</svg>
