<svg xmlns="http://www.w3.org/2000/svg" viewBox="0 0 16 16">
  <defs>
    <style>.canvas{fill: none; opacity: 0;}.light-red{fill: #c50b17; opacity: 1;}.light-defaultgrey{fill: #212121; opacity: 1;}</style>
  </defs>
  <title>IconLightDeleteAttachment</title>
  <g id="canvas">
    <path class="canvas" d="M16,16H0V0H16Z" />
  </g>
  <g id="level-1">
    <path class="light-red" d="M3.707,3,5.854,5.146l-.708.708L3,3.707.854,5.854.146,5.146,2.293,3,.146.854.854.146,3,2.293,5.146.146l.708.708Z" />
    <path class="light-defaultgrey" d="M10.75,15h-.5A3.386,3.386,0,0,1,7,11.5V3.682A2.6,2.6,0,0,1,9.5,1,2.6,2.6,0,0,1,12,3.682v7.167a1.5,1.5,0,1,1-3,.023V7h1v3.849a.507.507,0,1,0,1,0V3.682A1.6,1.6,0,0,0,9.5,2,1.6,1.6,0,0,0,8,3.682V11.5A2.388,2.388,0,0,0,10.25,14h.5A2.388,2.388,0,0,0,13,11.5V5h1v6.5A3.386,3.386,0,0,1,10.75,15Z" />
  </g>
</svg>
