<svg xmlns="http://www.w3.org/2000/svg" viewBox="0 0 16 16">
  <defs>
    <style>.canvas{fill: none; opacity: 0;}.light-red{fill: #c50b17; opacity: 1;}.light-defaultgrey{fill: #212121; opacity: 1;}.light-defaultgrey-10{fill: #212121; opacity: 0.1;}.light-yellow{fill: #996f00; opacity: 1;}.cls-1{opacity:0.75;}</style>
  </defs>
  <title>IconLightDeleteTaskList</title>
  <g id="canvas">
    <path class="canvas" d="M16,16H0V0H16Z" />
  </g>
  <g id="level-1">
    <path class="light-red" d="M3.707,3,5.854,5.146l-.708.708L3,3.707.854,5.854.146,5.146,2.293,3,.146.854.854.146,3,2.293,5.146.146l.708.708Z" />
    <path class="light-defaultgrey" d="M11.5,2a2,2,0,0,0-4,0H6.121L6,2.121V3.879L6.121,4H13V2Zm-2,1a1,1,0,1,1,1-1A1,1,0,0,1,9.5,3Z" />
    <g class="cls-1">
      <path class="light-defaultgrey-10" d="M14.5,3.5v11H4.5V6.621l.414.414.232.233L7.268,5.146,5.621,3.5Z" />
      <path class="light-defaultgrey" d="M15,3.5v11l-.5.5H4.5L4,14.5V6.121l1,1V14h9V4H6.121l-1-1H14.5Z" />
      <path class="light-yellow" d="M6,10h7v1H6Zm.414-4L6,6.414V7h7V6ZM6,9h7V8H6Z" />
    </g>
  </g>
</svg>
