<svg xmlns="http://www.w3.org/2000/svg" viewBox="0 0 16 16">
  <defs>
    <style>.canvas{fill: none; opacity: 0;}.light-defaultgrey-10{fill: #212121; opacity: 0.1;}.light-defaultgrey{fill: #212121; opacity: 1;}</style>
  </defs>
  <title>Delete</title>
  <g id="canvas">
    <path class="canvas" d="M16,16H0V0H16Z" />
  </g>
  <g id="level-1">
    <path class="light-defaultgrey-10" d="M12.5,2.5v13H2.5V2.5Z" />
    <path class="light-defaultgrey" d="M14,2H10V1A1,1,0,0,0,9,0H6A1,1,0,0,0,5,1V2H1V3H2V15.5l.5.5h10l.5-.5V3h1ZM6,1H9V2H6Zm6,14H3V3h9ZM5,13V5H6v8Zm5,0H9V5h1ZM8,13H7V5H8Z" />
  </g>
</svg>
