<svg xmlns="http://www.w3.org/2000/svg" viewBox="0 0 16 16">
  <defs>
    <style>.canvas{fill: none; opacity: 0;}.light-defaultgrey-10{fill: #212121; opacity: 0.1;}.light-defaultgrey{fill: #212121; opacity: 1;}.light-red{fill: #c50b17; opacity: 1;}</style>
  </defs>
  <title>IconLightDeleteColumn</title>
  <g id="canvas">
    <path class="canvas" d="M16,16H0V0H16Z" />
  </g>
  <g id="level-1">
    <path class="light-defaultgrey-10" d="M10.5,2.5v12h-5V6.914L7.268,5.146,5.5,3.379V2.621L5.621,2.5Z" />
    <path class="light-defaultgrey" d="M10.5,1H7.121l-2,2L6,3.879V3h4V6H6.414L5,7.414V14.5l.5.5h5l.5-.5V1.5ZM10,14H6V11h4Zm0-4H6V7h4Z" />
    <path class="light-red" d="M3.707,3,5.854,5.146l-.708.708L3,3.707.854,5.854.146,5.146,2.293,3,.146.854.854.146,3,2.293,5.146.146l.708.708Z" />
  </g>
</svg>
