<svg xmlns="http://www.w3.org/2000/svg" viewBox="0 0 16 16">
  <defs>
    <style>.canvas{fill: none; opacity: 0;}.light-red{fill: #c50b17; opacity: 1;}.light-defaultgrey-10{fill: #212121; opacity: 0.1;}.light-defaultgrey{fill: #212121; opacity: 1;}.cls-1{opacity:0.75;}</style>
  </defs>
  <title>IconLightDeleteProperty</title>
  <g id="canvas">
    <path class="canvas" d="M16,16H0V0H16Z" />
  </g>
  <g id="level-1">
    <path class="light-red" d="M3.707,3,5.854,5.146l-.708.708L3,3.707.854,5.854.146,5.146,2.293,3,.146.854.854.146,3,2.293,5.146.146l.708.708Z" />
    <g class="cls-1">
      <path class="light-defaultgrey-10" d="M9.023,8.472c-1.883,1.9-4.506,4.5-5.92,5.816-.861.75-2.077-.65-1.418-1.4C3.02,11.49,5.666,8.862,7.56,7.014A3.929,3.929,0,0,0,9.023,8.472Z" />
      <path class="light-defaultgrey" d="M9.5,8.7c-1.83,1.842-4.561,4.56-6.057,5.954A1.347,1.347,0,0,1,2.552,15,1.5,1.5,0,0,1,1.5,14.53a1.443,1.443,0,0,1-.187-1.972C2.692,11.109,5.431,8.39,7.331,6.539a3.878,3.878,0,0,0,.507.9c-1.859,1.817-4.467,4.407-5.792,5.794-.134.154.009.442.158.591a.4.4,0,0,0,.57.087C4.2,12.585,6.781,10.018,8.593,8.2A4,4,0,0,0,9.5,8.7Z" />
    </g>
    <path class="light-defaultgrey" d="M15.026,5.021a4,4,0,0,1-8,0,3.962,3.962,0,0,1,4-4,4.19,4.19,0,0,1,1.441.241L9.585,4.222l2.241,2.24,2.959-2.881A4.184,4.184,0,0,1,15.026,5.021Z" />
  </g>
</svg>
