<svg xmlns="http://www.w3.org/2000/svg" viewBox="0 0 16 16">
  <defs>
    <style>.canvas{fill: none; opacity: 0;}.light-blue-10{fill: #005dba; opacity: 0.1;}.light-blue{fill: #005dba; opacity: 1;}.light-red{fill: #c50b17; opacity: 1;}.light-defaultgrey{fill: #212121; opacity: 1;}.cls-1{opacity:0.75;}</style>
  </defs>
  <title>IconLightDeleteDimensionTranslation</title>
  <g id="canvas">
    <path class="canvas" d="M16,16H0V0H16Z" />
  </g>
  <g id="level-1">
    <path class="light-blue-10" d="M11.5,10A4.5,4.5,0,1,1,4.3,6.421l.846.847L6.9,5.51c.033,0,.063-.01.1-.01A4.5,4.5,0,0,1,11.5,10Z" />
    <path class="light-blue" d="M7.371,5.043,5.146,7.268,5.06,7.182A7.13,7.13,0,0,0,4.775,8H3.556a4.087,4.087,0,0,1,1.1-1.218l-.713-.713A5,5,0,1,0,7.371,5.043ZM10.444,8H9.225a7.486,7.486,0,0,0-.712-1.7A4.011,4.011,0,0,1,10.444,8ZM6.891,6.011C6.928,6.01,6.963,6,7,6s.072.01.11.011A6.54,6.54,0,0,1,8.168,8H5.832A6.5,6.5,0,0,1,6.891,6.011ZM3.142,11a3.592,3.592,0,0,1,0-2H4.574A7.583,7.583,0,0,0,4.5,10a7.583,7.583,0,0,0,.074,1Zm.414,1H4.775a7.486,7.486,0,0,0,.712,1.7A4.011,4.011,0,0,1,3.556,12Zm3.551,1.989c-.036,0-.07.011-.107.011s-.072-.01-.109-.011A6.5,6.5,0,0,1,5.832,12H8.168A6.5,6.5,0,0,1,7.107,13.989ZM8.412,11H5.588A6.419,6.419,0,0,1,5.5,10a6.419,6.419,0,0,1,.088-1H8.412A6.419,6.419,0,0,1,8.5,10,6.419,6.419,0,0,1,8.412,11Zm.1,2.7A7.534,7.534,0,0,0,9.226,12h1.218A4.011,4.011,0,0,1,8.513,13.7ZM9.426,11A7.583,7.583,0,0,0,9.5,10a7.583,7.583,0,0,0-.074-1h1.432a3.592,3.592,0,0,1,0,2Z" />
    <path class="light-red" d="M3.707,3,5.854,5.146l-.708.708L3,3.707.854,5.854.146,5.146,2.293,3,.146.854.854.146,3,2.293,5.146.146l.708.708Z" />
    <g class="cls-1">
      <path class="light-defaultgrey" d="M13.3,3H11V2h3.506l.5.5V6h-1V3.706L11.582,6.13a6.052,6.052,0,0,0-.707-.707Zm.616,8.2-.707.707L14.3,13H12.191a6.032,6.032,0,0,1-.728,1H14.3l-1.091,1.091.707.707,1.944-1.944v-.708Z" />
    </g>
  </g>
</svg>
