<svg xmlns="http://www.w3.org/2000/svg" viewBox="0 0 16 16">
  <defs>
    <style>.canvas{fill: none; opacity: 0;}.light-defaultgrey-10{fill: #212121; opacity: 0.1;}.light-defaultgrey{fill: #212121; opacity: 1;}.light-red{fill: #c50b17; opacity: 1;}</style>
  </defs>
  <title>IconLightDeleteTableRow</title>
  <g id="canvas">
    <path class="canvas" d="M16,16H0V0H16Z" />
  </g>
  <g id="level-1">
    <path class="light-defaultgrey-10" d="M14.5,6.5v4h-5v4h-5V6.621l.646.647L7.268,5.146,5.121,3l.5-.5H9.5v4Z" />
    <path class="light-defaultgrey" d="M14.5,6H10V2.5L9.5,2H6.121l-1,1H9V6H6.414l-1,1H14v3H5V7.121l-1-1V14.5l.5.5h5l.5-.5V11h4.5l.5-.5v-4ZM9,14H5V11H9Z" />
    <path class="light-red" d="M3.707,3,5.854,5.146l-.708.708L3,3.707.854,5.854.146,5.146,2.293,3,.146.854.854.146,3,2.293,5.146.146l.708.708Z" />
  </g>
</svg>
