<svg xmlns="http://www.w3.org/2000/svg" viewBox="0 0 16 16">
  <defs>
    <style>.canvas{fill: none; opacity: 0;}.light-defaultgrey-10{fill: #212121; opacity: 0.1;}.light-defaultgrey{fill: #212121; opacity: 1;}.light-yellow-10{fill: #996f00; opacity: 0.1;}.light-yellow{fill: #996f00; opacity: 1;}.light-red{fill: #c50b17; opacity: 1;}.cls-1{opacity:0.75;}</style>
  </defs>
  <title>IconLightDeleteQuery</title>
  <g id="canvas">
    <path class="canvas" d="M16,16H0V0H16Z" />
  </g>
  <g id="level-1">
    <g class="cls-1">
      <path class="light-defaultgrey-10" d="M14.5,11.5h-2v3h-9v-8h.879l.767.768L7.268,5.146,5.621,3.5H14.5Z" />
      <path class="light-defaultgrey" d="M14.5,3h-9l-.189.189L7.121,5H14v6H13V6.5L12.5,6H6.414L5.146,7.268,3.879,6H3.5L3,6.5v8l.5.5h9l.5-.5V12h1.5l.5-.5v-8ZM12,14H4V8h8Z" />
    </g>
    <path class="light-yellow-10" d="M12.5,7.5v4h-7v-4Z" />
    <path class="light-yellow" d="M12.5,7h-7L5,7.5v4l.5.5h7l.5-.5v-4ZM12,11H6V8h6Zm-1-1H7V9h4Z" />
    <path class="light-red" d="M3.707,3,5.854,5.146l-.708.708L3,3.707.854,5.854.146,5.146,2.293,3,.146.854.854.146,3,2.293,5.146.146l.708.708Z" />
  </g>
</svg>
