<svg xmlns="http://www.w3.org/2000/svg" viewBox="0 0 16 16">
  <defs>
    <style>.canvas{fill: none; opacity: 0;}.light-purple-10{fill: #6936aa; opacity: 0.1;}.light-purple{fill: #6936aa; opacity: 1;}.light-defaultgrey{fill: #212121; opacity: 1;}.light-defaultgrey-10{fill: #212121; opacity: 0.1;}</style>
  </defs>
  <title>IconLightDelegateShortcut</title>
  <g id="canvas" class="canvas">
    <path class="canvas" d="M16,16H0V0H16Z" />
  </g>
  <g id="level-1">
    <path class="light-purple-10" d="M14.5,4.5V7H8.086L7,8.086V13.5H1.5v-9Z" />
    <path class="light-purple" d="M7,13H4V5h8V7h1V5h1V7h1V4.5L14.5,4H1.5L1,4.5v9l.5.5H7ZM3,13H2V5H3Z" />
    <path class="light-defaultgrey" d="M11,2.5V4H10V3H6V4H5V2.5L5.5,2h5Z" />
    <path class="light-defaultgrey-10" d="M15.5,8.5v7h-7v-7Z" />
    <path class="light-defaultgrey" d="M15.5,8h-7L8,8.5v7l.5.5h7l.5-.5v-7ZM15,15H9V9h6Zm-1-4.5V14H13V11.707l-2.646,2.647-.708-.708L12.293,11H10V10h3.5Z" />
  </g>
</svg>
