<svg xmlns="http://www.w3.org/2000/svg" viewBox="0 0 16 16">
  <defs>
    <style>.canvas{fill: none; opacity: 0;}.light-red{fill: #c50b17; opacity: 1;}.light-defaultgrey{fill: #212121; opacity: 1;}</style>
  </defs>
  <title>IconLightDeleteGroup</title>
  <g id="canvas">
    <path class="canvas" d="M16,16H0V0H16Z" />
  </g>
  <g id="level-1">
    <path class="light-red" d="M3.707,3,5.854,5.146l-.708.708L3,3.707.854,5.854.146,5.146,2.293,3,.146.854.854.146,3,2.293,5.146.146l.708.708Z" />
    <path class="light-defaultgrey" d="M14.5,16H3.5L3,15.5V10H4v5H14V10h1v5.5ZM8.547,8.068,9.992,10H8.812L8,8.845,7.188,10H6.008L7.453,8.068,6,6H7L8,7.337,9,6h1ZM13,8.134V10H12V8.134L10.5,6h1l1,1.337h0L13.5,6h1Z" />
  </g>
</svg>
