<svg xmlns="http://www.w3.org/2000/svg" viewBox="0 0 16 16">
  <defs>
    <style>.canvas{fill: none; opacity: 0;}.light-defaultgrey-10{fill: #212121; opacity: 0.1;}.light-defaultgrey{fill: #212121; opacity: 1;}.light-red{fill: #c50b17; opacity: 1;}</style>
  </defs>
  <title>IconLightDeleteFilter</title>
  <g id="canvas">
    <path class="canvas" d="M16,16H0V0H16Z" />
  </g>
  <g id="level-1">
    <path class="light-defaultgrey-10" d="M15.5,3.5l-4,5v5h-3v-5L6.367,6.047l.9-.9L5.621,3.5Z" />
    <path class="light-defaultgrey" d="M15.891,3.813,12,8.675V13.5l-.5.5h-3L8,13.5V8.675L6.007,6.407,6.716,5.7l2.175,2.49L9,8.5V13h2V8.5l.109-.312L14.46,4H6.121l-1-1H15.5Z" />
    <path class="light-red" d="M3.707,3,5.854,5.146l-.708.708L3,3.707.854,5.854.146,5.146,2.293,3,.146.854.854.146,3,2.293,5.146.146l.708.708Z" />
  </g>
</svg>
