<svg xmlns="http://www.w3.org/2000/svg" viewBox="0 0 16 16">
  <defs>
    <style>.canvas{fill: none; opacity: 0;}.light-defaultgrey-10{fill: #212121; opacity: 0.1;}.light-defaultgrey{fill: #212121; opacity: 1;}.light-green{fill: #1f801f; opacity: 1;}.light-red{fill: #c50b17; opacity: 1;}.light-yellow{fill: #996f00; opacity: 1;}</style>
  </defs>
  <title>IconLightDerivedDataMining</title>
  <g id="canvas">
    <path class="canvas" d="M16,16H0V0H16Z" />
  </g>
  <g id="level-1">
    <path class="light-defaultgrey-10" d="M6.5,15.5V15a4.5,4.5,0,0,1,9,0v.5Z" />
    <path class="light-defaultgrey" d="M6,16V15a5,5,0,0,1,10,0v1Zm1-1h8a4,4,0,0,0-8,0Z" />
    <path class="light-defaultgrey" d="M13.475,13.232l-1.524,1.524a1.1,1.1,0,1,1-.707-.707l1.524-1.524Z" />
    <path class="light-green" d="M13.9,14.223A3.015,3.015,0,0,1,14,15h-.879Z" />
    <path class="light-red" d="M9,15H8a3,3,0,0,1,3.777-2.9l-.9.9A2.013,2.013,0,0,0,9,15Z" />
    <path class="light-yellow" d="M1.706,11.021,1,10.315V9.609L7.356,3.253h.706l.706.706v.706L2.412,11.021Z" />
    <path class="light-defaultgrey" d="M10.887,8.2,8.062,5.372l-.656.656L5.994,4.615l.656-.656L3.83,1.14,4.486.484A9.729,9.729,0,0,1,8.051,2.558l.525-.525h.706l.707.706v.706l-.53.53a10.079,10.079,0,0,1,2.084,3.566Z" />
  </g>
</svg>
