<svg xmlns="http://www.w3.org/2000/svg" viewBox="0 0 16 16">
  <defs>
    <style>.canvas{fill: none; opacity: 0;}.light-green{fill: #1f801f; opacity: 1;}.light-shadow{fill: #000000; opacity: 0.1;}.light-green-10{fill: #1f801f; opacity: 0.1;}.cls-1{opacity:0.75;}</style>
  </defs>
  <title>IconLightDesktopGreen</title>
  <g id="canvas" class="canvas">
    <path class="canvas" d="M16,16H0V0H16Z" />
  </g>
  <g id="level-2">
    <g class="cls-1">
      <path class="light-green" d="M12,14v1H4V14c2,0,2-.6,2-1h4C10,13.35,10,14,12,14Z" />
    </g>
  </g>
  <g id="level-1">
    <path class="light-shadow" d="M14.5,3H1.5L1,3.5v10l.5.5h13l.5-.5V3.5ZM14,13H2V4H14Z" />
    <path class="light-green-10" d="M14.5,2.5v10H1.5V2.5Z" />
    <path class="light-green" d="M14.5,2H1.5L1,2.5v10l.5.5h13l.5-.5V2.5ZM14,12H2V3H14Z" />
  </g>
</svg>
