<svg xmlns="http://www.w3.org/2000/svg" viewBox="0 0 16 16">
  <defs>
    <style>.canvas{fill: none; opacity: 0;}.light-defaultgrey-10{fill: #212121; opacity: 0.1;}.light-defaultgrey{fill: #212121; opacity: 1;}.light-teal-10{fill: #006758; opacity: 0.1;}.light-teal{fill: #006758; opacity: 1;}</style>
  </defs>
  <title>DeviceTest</title>
  <g id="canvas">
    <path class="canvas" d="M0,0H16V16H0Z" />
  </g>
  <g id="level-1">
    <path class="light-defaultgrey-10" d="M13.5,1.5V15H7.987a2.155,2.155,0,0,0-.2-1h.045l-.15-.24h0l-.73-1.169L6,11.069V10H7V7H5.5V1.5Z" />
    <path class="light-defaultgrey" d="M14,1.5v13l-.5.5H7.984a2.089,2.089,0,0,0-.193-1H13V2H6V7H5V1.5L5.5,1h8ZM11,13H8V12h3ZM10,4H9V3h1Z" />
    <path class="light-teal-10" d="M6.576,14.734a.5.5,0,0,1-.423.765H.959a.5.5,0,0,1-.424-.765L1.306,13.5h4.5Z" />
    <path class="light-teal" d="M5.88,16H1.119A1.119,1.119,0,0,1,.17,14.285L.974,13H6.026l.8,1.286A1.119,1.119,0,0,1,5.88,16ZM1.528,14l-.511.816a.115.115,0,0,0,0,.122.113.113,0,0,0,.1.062H5.88a.115.115,0,0,0,.105-.062.112.112,0,0,0,0-.121L5.472,14Z" />
    <path class="light-defaultgrey-10" d="M1.556,13l.938-1.5v-3h2v3L5.43,13Z" />
    <path class="light-defaultgrey" d="M2,9H1V8H6V9H5v2.357L6.026,13H4.847L4,11.644V9H3v2.643L2.152,13H.974L2,11.357Z" />
  </g>
</svg>
