<svg xmlns="http://www.w3.org/2000/svg" viewBox="0 0 16 16">
  <defs>
    <style>.canvas{fill: none; opacity: 0;}.light-defaultgrey-10{fill: #212121; opacity: 0.1;}.light-defaultgrey{fill: #212121; opacity: 1;}.cls-1{opacity:0.75;}</style>
  </defs>
  <title>IconLightDialog</title>
  <g id="canvas" class="canvas">
    <path class="canvas" d="M16,16H0V0H16Z" />
  </g>
  <g id="level-1">
    <g class="cls-1">
      <path class="light-defaultgrey-10" d="M14.5,4.5v9H1.5v-9Z" />
      <path class="light-defaultgrey" d="M14.5,4H1.5L1,4.5v9l.5.5h13l.5-.5v-9ZM14,13H2V5H14Z" />
    </g>
    <path class="light-defaultgrey" d="M6,11H9v1H6Z" />
    <path class="light-defaultgrey" d="M10,12h3V11H10Z" />
    <path class="light-defaultgrey" d="M7,6H3V7H7Z" />
    <path class="light-defaultgrey" d="M7,8H3V9H7Z" />
    <path class="light-defaultgrey-10" d="M14.5,2.5v2H1.5v-2Z" />
    <path class="light-defaultgrey-10" d="M12.5,8.5h-4v-2h4Z" />
    <path class="light-defaultgrey" d="M14.5,5H1.5L1,4.5v-2L1.5,2h13l.5.5v2ZM2,4H14V3H2Z" />
    <path class="light-defaultgrey" d="M12.5,6h-4L8,6.5v2l.5.5h4l.5-.5v-2ZM12,8H9V7h3Z" />
  </g>
</svg>
