<svg xmlns="http://www.w3.org/2000/svg" viewBox="0 0 16 16">
  <defs>
    <style>.canvas{fill: none; opacity: 0;}.light-defaultgrey-10{fill: #212121; opacity: 0.1;}.light-defaultgrey{fill: #212121; opacity: 1;}</style>
  </defs>
  <title>IconLightDictionary</title>
  <g id="canvas" class="canvas">
    <path class="canvas" d="M16,0V16H0V0Z" />
  </g>
  <g id="level-1">
    <path class="light-defaultgrey-10" d="M7.5,12.987A2.865,2.865,0,0,1,6.05,12.6l-.071-.041L5.9,12.54a2,2,0,0,0-.4-.04H.707L.5,12.293V2.707L.707,2.5H5.5a1.982,1.982,0,0,1,1.6.814l.4.539.4-.539A1.982,1.982,0,0,1,9.5,2.5h4.793l.207.207v9.586l-.207.207H9.5a2,2,0,0,0-.4.04l-.081.017L8.95,12.6a2.875,2.875,0,0,1-1.45.389Z" />
    <path class="light-defaultgrey" d="M14.5,2h-5a2.491,2.491,0,0,0-2,1.015A2.491,2.491,0,0,0,5.5,2H.5L0,2.5v10l.5.5h5a1.547,1.547,0,0,1,.3.03,3.381,3.381,0,0,0,3.4,0A1.547,1.547,0,0,1,9.5,13h5l.5-.5V2.5ZM7,10.5v2H7A2.482,2.482,0,0,0,5.5,12H1V3H5.5A1.5,1.5,0,0,1,7,4.5ZM14,12H9.5a2.482,2.482,0,0,0-1.5.5H8v-8A1.5,1.5,0,0,1,9.5,3H14Z" />
  </g>
</svg>
