<svg xmlns="http://www.w3.org/2000/svg" viewBox="0 0 16 16">
  <defs>
    <style>.canvas{fill: none; opacity: 0;}.light-defaultgrey-10{fill: #212121; opacity: 0.1;}.light-defaultgrey{fill: #212121; opacity: 1;}</style>
  </defs>
  <title>IconLightDictionaryContains</title>
  <g id="canvas">
    <path class="canvas" d="M16,16H0V0H16Z" />
  </g>
  <g id="level-1">
    <path class="light-defaultgrey-10" d="M15.5,1.707v9.586l-.207.207H10.5a2,2,0,0,0-.4.04l-.081.017L9.95,11.6a2.885,2.885,0,0,1-2.9,0l-.071-.041L6.9,11.54a2,2,0,0,0-.4-.04H6V9H1.5V1.707L1.707,1.5H6.5a1.982,1.982,0,0,1,1.6.814l.4.539.4-.539A1.982,1.982,0,0,1,10.5,1.5h4.793Z" />
    <path class="light-defaultgrey" d="M15.5,1h-5a2.491,2.491,0,0,0-2,1.015A2.491,2.491,0,0,0,6.5,1h-5L1,1.5V9H2V2H6.5A1.5,1.5,0,0,1,8,3.5v8H8A2.482,2.482,0,0,0,6.5,11H6v1h.5a1.547,1.547,0,0,1,.3.03,3.381,3.381,0,0,0,3.4,0,1.547,1.547,0,0,1,.3-.03h5l.5-.5V1.5ZM15,11H10.5a2.482,2.482,0,0,0-1.5.5H9v-8A1.5,1.5,0,0,1,10.5,2H15Z" />
    <path class="light-defaultgrey" d="M5,11H0V10H5Zm0,1H0v1H5Zm0,2H0v1H5Z" />
  </g>
</svg>
