<svg xmlns="http://www.w3.org/2000/svg" viewBox="0 0 16 16">
  <defs>
    <style>.canvas{fill: none; opacity: 0;}.light-blue-10{fill: #005dba; opacity: 0.1;}.light-blue{fill: #005dba; opacity: 1;}.light-defaultgrey{fill: #212121; opacity: 1;}.cls-1{opacity:0.75;}</style>
  </defs>
  <title>DimensionBrowserView</title>
  <g id="canvas">
    <path class="canvas" d="M16,0V16H0V0Z" />
  </g>
  <g id="level-1">
    <path class="light-blue-10" d="M2.5,8.646a2,2,0,1,1-2,2A2,2,0,0,1,2.5,8.646Z" />
    <path class="light-blue" d="M0,10.646A2.5,2.5,0,0,0,3.876,12.73L7.146,16l.708-.707-3.271-3.27A2.476,2.476,0,0,0,5,10.646a2.5,2.5,0,0,0-5,0Zm1,0a1.5,1.5,0,1,1,1.5,1.5A1.5,1.5,0,0,1,1,10.646Z" />
    <g class="cls-1">
      <path class="light-defaultgrey" d="M12.3,3H10.5V2h3l.5.5v3H13V3.71L5.994,10.716c0-.023.006-.046.006-.07A3.458,3.458,0,0,0,5.792,9.5Zm.61,8.2-.7.71L13.3,13H6.975l1,1H13.3l-1.09,1.09.7.71,1.95-1.95v-.7ZM2,2.71V7.2a3.443,3.443,0,0,1,.5-.051A3.443,3.443,0,0,1,3,7.2V2.7L4.1,3.8l.7-.71L2.86,1.15H2.15L.21,3.09l.7.71Z" />
    </g>
  </g>
</svg>
