<svg xmlns="http://www.w3.org/2000/svg" viewBox="0 0 16 16">
  <defs>
    <style>.canvas{fill: none; opacity: 0;}.light-defaultgrey{fill: #212121; opacity: 1;}.light-defaultgrey-10{fill: #212121; opacity: 0.1;}.cls-1{opacity:0.75;}</style>
  </defs>
  <title>IconLightDimensionUsageView</title>
  <g id="canvas">
    <path class="canvas" d="M16,16H0V0H16Z" />
  </g>
  <g id="level-1">
    <g class="cls-1">
      <path class="light-defaultgrey" d="M.915,3.8.208,3.09,2.152,1.146h.707L4.8,3.09,4.1,3.8,3,2.7V6.129H2.982L2,6.7V2.712Z" />
      <path class="light-defaultgrey" d="M12.3,3H10.756V2h2.75l.5.5v2.75h-1V3.706L8,8.715,7.25,8.284l-.259.149-.046-.08Z" />
      <path class="light-defaultgrey" d="M14.859,13.146v.708L12.915,15.8l-.707-.707L13.3,14H8.771L9,13.6V13h4.3l-1.091-1.091.707-.707Z" />
    </g>
    <path class="light-defaultgrey-10" d="M5.5,8.655v3.464l-3,1.732L.5,12.7V9.232L3.5,7.5Z" />
    <path class="light-defaultgrey" d="M5.75,8.284l-2-1.155h-.5l-3,1.732L0,9.294v3.464l.25.432,2,1.156h.5l3-1.733L6,12.181V8.717ZM3.5,8.139l1,.578-2,1.154-1-.577ZM1,10.16l1,.577v2.31l-1-.578Zm2,2.887v-2.31L5,9.582v2.31Z" />
    <path class="light-defaultgrey" d="M8,9.871v3.464l-.25.433-3,1.732L4,15.067V11.6l.25-.433,3-1.733Z" />
  </g>
</svg>
