<svg xmlns="http://www.w3.org/2000/svg" viewBox="0 0 16 16">
  <defs>
    <style>.canvas{fill: none; opacity: 0;}.light-defaultgrey{fill: #212121; opacity: 1;}.cls-1{opacity:0.75;}</style>
  </defs>
  <title>IconLightDimensionBuilderView</title>
  <g id="canvas">
    <path class="canvas" d="M16,16H0V0H16Z" />
  </g>
  <g id="level-1">
    <g class="cls-1">
      <path class="light-defaultgrey" d="M12.3,3H10.756V2h2.75l.5.5v2.75h-1V3.706L7,9.712V8.3Z" />
      <path class="light-defaultgrey" d="M.915,3.8.208,3.09,2.152,1.146h.707L4.8,3.09,4.1,3.8,3,2.7V6H2.5a3.443,3.443,0,0,0-.5.051V2.712Z" />
      <path class="light-defaultgrey" d="M14.859,13.146v.708L12.915,15.8l-.707-.707L13.3,14H5V13h8.3l-1.091-1.091.707-.707Z" />
    </g>
    <path class="light-defaultgrey" d="M6,7V9H5l-.5-.5L4,9H3.5v1l.5.5v5l-.5.5h-1L2,15.5v-5l.5-.5V9h-1a.5.5,0,0,0-.5.5.5.5,0,0,1-1,0A2.5,2.5,0,0,1,2.5,7H4l.5.5L5,7Z" />
  </g>
</svg>
