<svg xmlns="http://www.w3.org/2000/svg" viewBox="0 0 16 16">
  <defs>
    <style>.canvas{fill: none; opacity: 0;}.light-defaultgrey-10{fill: #212121; opacity: 0.1;}.light-defaultgrey{fill: #212121; opacity: 1;}.cls-1{opacity:0.75;}</style>
  </defs>
  <title>IconLightDisableAllBreakpoints</title>
  <g id="canvas" class="canvas">
    <path class="canvas" d="M16,16H0V0H16Z" />
  </g>
  <g id="level-1">
    <g class="cls-1">
      <path class="light-defaultgrey-10" d="M11.5,9.5a5,5,0,1,1-5-5A5,5,0,0,1,11.5,9.5Z" />
      <path class="light-defaultgrey-10" d="M14.5,6.5a4.986,4.986,0,0,1-3.313,4.687A4.947,4.947,0,0,0,11.5,9.5a5,5,0,0,0-5-5,4.947,4.947,0,0,0-1.687.313A4.988,4.988,0,0,1,14.5,6.5Z" />
      <path class="light-defaultgrey" d="M15,6.5a5.505,5.505,0,0,1-3.414,5.086,5.406,5.406,0,0,0,.353-1.315,4.493,4.493,0,1,0-6.21-6.21,5.406,5.406,0,0,0-1.315.353A5.5,5.5,0,0,1,15,6.5Z" />
      <path class="light-defaultgrey" d="M6.5,15A5.5,5.5,0,1,1,12,9.5,5.506,5.506,0,0,1,6.5,15Zm0-10A4.5,4.5,0,1,0,11,9.5,4.505,4.505,0,0,0,6.5,5Z" />
    </g>
  </g>
</svg>
