<svg xmlns="http://www.w3.org/2000/svg" viewBox="0 0 16 16">
  <defs>
    <style>.canvas{fill: none; opacity: 0;}.light-defaultgrey-10{fill: #212121; opacity: 0.1;}.light-defaultgrey{fill: #212121; opacity: 1;}</style>
  </defs>
  <title>IconLightDisplayConfiguration</title>
  <g id="canvas">
    <path class="canvas" d="M16,16H0V0H16Z" />
  </g>
  <g id="level-1">
    <path class="light-defaultgrey-10" d="M15.5,1.5v7H6.7A4,4,0,0,0,3.5,6.051V1.5Z" />
    <path class="light-defaultgrey" d="M16,1.5v7l-.5.5H10v1h2v1H7V10H9V9H6.858a3.93,3.93,0,0,0-.414-1H15V2H4V6.142A3.939,3.939,0,0,0,3,6V1.5L3.5,1h12Z" />
    <path class="light-defaultgrey" d="M.038,10.5A2.994,2.994,0,0,1,.291,8.705L2.282,10.7,3.7,9.282l-2-1.991a2.983,2.983,0,0,1,3.988,3.983L9,14.586v.707L8.293,16H7.586L4.274,12.688A2.98,2.98,0,0,1,.038,10.5Z" />
  </g>
</svg>
