<svg xmlns="http://www.w3.org/2000/svg" viewBox="0 0 16 16">
  <defs>
    <style>.canvas{fill: none; opacity: 0;}.light-defaultgrey-10{fill: #212121; opacity: 0.1;}.light-defaultgrey{fill: #212121; opacity: 1;}.light-blue{fill: #005dba; opacity: 1;}</style>
  </defs>
  <title>IconLightDivideMember</title>
  <g id="canvas" class="canvas">
    <path class="canvas" d="M16,0V16H0V0Z" />
  </g>
  <g id="level-1">
    <path class="light-defaultgrey-10" d="M9.5,13A4.5,4.5,0,1,1,14,8.5,4.5,4.5,0,0,1,9.5,13Z" />
    <path class="light-defaultgrey" d="M9.5,13.5a5,5,0,1,1,5-5A5.006,5.006,0,0,1,9.5,13.5Zm0-9a4,4,0,1,0,4,4A4,4,0,0,0,9.5,4.5Z" />
    <path class="light-defaultgrey-10" d="M10,7A1,1,0,1,1,9,6,1,1,0,0,1,10,7Z" />
    <path class="light-defaultgrey" d="M9,8.5A1.5,1.5,0,1,1,10.5,7,1.5,1.5,0,0,1,9,8.5Zm0-2a.5.5,0,1,0,.5.5A.5.5,0,0,0,9,6.5Z" />
    <path class="light-blue" d="M1.318,8.389.611,7.682,7.682.611l.707.707Z" />
  </g>
</svg>
