<svg xmlns="http://www.w3.org/2000/svg" viewBox="0 0 16 16">
  <defs>
    <style>.canvas{fill: none; opacity: 0;}.light-defaultgrey-10{fill: #212121; opacity: 0.1;}.light-defaultgrey{fill: #212121; opacity: 1;}.light-blue{fill: #005dba; opacity: 1;}</style>
  </defs>
  <title>IconLightDivideMemberFormula</title>
  <g id="canvas">
    <path class="canvas" d="M16,16H0V0H16Z" />
    <path class="canvas" d="M16,16H0V0H16Z" />
  </g>
  <g id="level-1">
    <path class="light-defaultgrey-10" d="M8.526,12.953a4.486,4.486,0,1,1,4.485-6.329,1.861,1.861,0,0,0-.306-.085,2.438,2.438,0,0,0-.439-.04A3.057,3.057,0,0,0,9.615,8.378a4.327,4.327,0,0,0-.174.421H8.668l-.579,2.362h.822l-.164.765c-.1.45-.167.779-.221,1.027Z" />
    <path class="light-defaultgrey" d="M8.418,13.441A4.984,4.984,0,1,1,13.74,7.188c-.011-.016-.022-.032-.033-.046a1.584,1.584,0,0,0-1-.6A2.455,2.455,0,0,0,12.39,6.5a3.985,3.985,0,1,0-3.759,5.962C8.525,12.96,8.462,13.251,8.418,13.441Z" />
    <path class="light-defaultgrey" d="M8.452,8.5A1.5,1.5,0,1,1,9.952,7,1.5,1.5,0,0,1,8.452,8.5Zm0-2a.5.5,0,1,0,.5.5A.5.5,0,0,0,8.452,6.5Z" />
    <path class="light-defaultgrey" d="M15.742,10.442a.64.64,0,0,1-.37.116,1.721,1.721,0,0,1-.514-.112,5.052,5.052,0,0,0-.879,1.166c.111.457.118.554.272,1.067a1.093,1.093,0,0,0,.384.571.576.576,0,0,0,.348.1,1.507,1.507,0,0,0,.268-.022.935.935,0,0,0,.263-.067l-.071.263a2.757,2.757,0,0,1-.728.246c-.46.068-.782.006-.946-.433a9.162,9.162,0,0,1-.317-1.094,8.6,8.6,0,0,1-.889,1.21.91.91,0,0,1-.687.339.448.448,0,0,1-.308-.107.441.441,0,0,1-.08-.5.449.449,0,0,1,.294-.233c.357-.081.391.017.715.1a5.233,5.233,0,0,0,.866-1.138c-.031-.156-.047-.2-.139-.581-.05-.207-.122-.422-.205-.665a1.389,1.389,0,0,0-.116-.254c-.2-.338-.2-.265-2.009-.25l-.71,3.317c-.234,1.075-1.208,2.2-2.281,2a.577.577,0,0,1-.38-.219.465.465,0,0,1,.04-.536.417.417,0,0,1,.5-.08.807.807,0,0,1,.291.295c.089.144.1.159.143.232a.458.458,0,0,0,.258-.1,1.81,1.81,0,0,0,.5-.857c.136-.471.049-.105.9-4.053H9.363L9.452,9.8h.772a3.49,3.49,0,0,1,.295-.995,1.983,1.983,0,0,1,2-1.282.6.6,0,0,1,.384.219.356.356,0,0,1,.063.232.5.5,0,0,1-.1.313.462.462,0,0,1-.541.076c-.179-.1-.242-.277-.4-.532-.362.02-.579.477-.7.822a6.756,6.756,0,0,0-.21.839c-.03.131-.049.234-.058.308,1.081-.019,1.318-.053,1.942-.089a.683.683,0,0,1,.7.495,7.682,7.682,0,0,1,.286,1.067v.014l0,.013c.394-.622.838-1.572,1.585-1.607A.419.419,0,0,1,15.742,10.442Z" />
    <path class="light-blue" d="M.77,7.889.063,7.182,7.134.111l.707.707Z" />
  </g>
</svg>
