<svg xmlns="http://www.w3.org/2000/svg" viewBox="0 0 16 16">
  <defs>
    <style>.canvas{fill: none; opacity: 0;}.light-defaultgrey-10{fill: #212121; opacity: 0.1;}.light-defaultgrey{fill: #212121; opacity: 1;}.light-blue{fill: #005dba; opacity: 1;}.cls-1{opacity:0.75;}</style>
  </defs>
  <title>IconLightDockTo</title>
  <g id="canvas">
    <path class="canvas" d="M16,16H0V0H16Z" />
  </g>
  <g id="level-1">
    <g class="cls-1">
      <path class="light-defaultgrey-10" d="M14,6V5h-.88l-1,1L9.85,8.27,7.73,6.15,7.88,6l1-1H1.5v8h13V6Z" />
      <path class="light-defaultgrey" d="M14,6v7H2V6H7.88l1-1H1.5L1,5.5v8l.5.5h13l.5-.5V6Z" />
    </g>
    <path class="light-defaultgrey-10" d="M13.12,5H14V4.12ZM2,5H8.88l2-2H2Z" />
    <path class="light-defaultgrey" d="M1.5,2,1,2.5v3l.5.5H7.88l1-1H2V3h8.88l1-1Z" />
    <path class="light-blue" d="M14.293,1H11V0h4.5l.5.5V5H15V1.707L9.854,6.854l-.708-.708Z" />
  </g>
</svg>
