<svg xmlns="http://www.w3.org/2000/svg" viewBox="0 0 16 16">
  <defs>
    <style>.canvas{fill: none; opacity: 0;}.light-defaultgrey{fill: #212121; opacity: 1;}.light-defaultgrey-10{fill: #212121; opacity: 0.1;}.light-green{fill: #1f801f; opacity: 1;}.white{fill: #ffffff; opacity: 1;}.cls-1{opacity:0.75;}</style>
  </defs>
  <title>DocumentOK</title>
  <g id="canvas">
    <path class="canvas" d="M16,16H0V0H16Z" />
  </g>
  <g id="level-1">
    <g class="cls-1">
      <path class="light-defaultgrey" d="M7.424,14H2.5L2,13.5V1.5L2.5,1h7l.354.146,3,3L13,4.5V7.1A5,5,0,0,0,12,7V5H9V2H3V13H7.1A4.91,4.91,0,0,0,7.424,14Z" />
      <path class="light-defaultgrey-10" d="M7.255,13.5H2.5V1.5h7l3,3V7.05C12.333,7.034,12.171,7,12,7a5.006,5.006,0,0,0-5,5A4.942,4.942,0,0,0,7.255,13.5Z" />
    </g>
    <path class="light-green" d="M16,12a4,4,0,1,1-4-4A4,4,0,0,1,16,12Z" />
    <path class="white" d="M14.208,11.171l-2.365,2.365-.711,0L9.792,12.16l.715-.7.987,1.011L13.5,10.464Z" />
  </g>
</svg>
