<svg xmlns="http://www.w3.org/2000/svg" viewBox="0 0 16 16">
  <defs>
    <style>.canvas{fill: none; opacity: 0;}.light-defaultgrey{fill: #212121; opacity: 1;}.light-defaultgrey-10{fill: #212121; opacity: 0.1;}.light-defaultgrey-25{fill: #212121; opacity: 0.25;}.light-yellow{fill: #996f00; opacity: 1;}.white{fill: #ffffff; opacity: 1;}.cls-1{opacity:0.75;}</style>
  </defs>
  <title>IconLightDocumentGroupWarning</title>
  <g id="canvas">
    <path class="canvas" d="M16,16H0V0H16Z" />
  </g>
  <g id="level-1">
    <g class="cls-1">
      <path class="light-defaultgrey" d="M6,5H5V1.5L5.5,1h5l.354.146,2,2L13,3.5V7.853L12.53,7H12V4H9.993V2H6Z" />
      <path class="light-defaultgrey-10" d="M10,7.853V7.5l-.146-.354-2-2L7.5,5h-2V1.5h5l2,2V7H10.47L5.908,15.28Z" />
    </g>
    <path class="light-defaultgrey-10" d="M6.338,14.5H2.5v-9h5l2,2V8.76Z" />
    <path class="light-defaultgrey" d="M6.063,15H2.5L2,14.5v-9L2.5,5h5l.354.146,2,2L10,7.5v.353L9,9.668V8H6.993V6H3v8H6.613Z" />
    <path class="light-defaultgrey-25" d="M8.266,11H5.525l-.5-.5V6h1v4H8.817Z" />
    <path class="light-yellow" d="M15.5,16h-8l-.439-.739,4-7.261h.878l4,7.261Z" />
    <path class="white" d="M12,13H11V10h1Zm.25,1.5a.75.75,0,1,1-.75-.75A.75.75,0,0,1,12.25,14.5Z" />
  </g>
</svg>
