<svg xmlns="http://www.w3.org/2000/svg" viewBox="0 0 16 16">
  <defs>
    <style>.canvas{fill: none; opacity: 0;}.light-defaultgrey{fill: #212121; opacity: 1;}.light-blue-10{fill: #005dba; opacity: 0.1;}.light-blue{fill: #005dba; opacity: 1;}.cls-1{opacity:0.75;}</style>
  </defs>
  <title>IconLightDocumentOutline</title>
  <g id="canvas" class="canvas">
    <path class="canvas" d="M16,16H0V0H16Z" />
  </g>
  <g id="level-1">
    <g class="cls-1">
      <path class="light-defaultgrey" d="M14,1V2H4V1Z" />
      <path class="light-blue-10" d="M2.5.5v2H.5V.5Z" />
      <path class="light-blue" d="M2.5,0H.5L0,.5v2L.5,3h2L3,2.5V.5ZM2,2H1V1H2Z" />
      <path class="light-defaultgrey" d="M14,13v1H4V13Z" />
      <path class="light-blue-10" d="M2.5,12.5v2H.5v-2Z" />
      <path class="light-blue" d="M2.5,12H.5l-.5.5v2l.5.5h2l.5-.5v-2ZM2,14H1V13H2Z" />
    </g>
    <path class="light-defaultgrey" d="M15,5V6H8V5Z" />
    <path class="light-defaultgrey" d="M15,9v1H8V9Z" />
    <path class="light-blue-10" d="M6.5,4.5v2h-2v-2Z" />
    <path class="light-blue" d="M6.5,7h-2L4,6.5v-2L4.5,4h2l.5.5v2ZM5,6H6V5H5Z" />
    <path class="light-blue-10" d="M6.5,8.5v2h-2v-2Z" />
    <path class="light-blue" d="M6.5,8h-2L4,8.5v2l.5.5h2l.5-.5v-2ZM6,10H5V9H6Z" />
  </g>
</svg>
