<svg xmlns="http://www.w3.org/2000/svg" viewBox="0 0 16 16">
  <defs>
    <style>.canvas{fill: none; opacity: 0;}.light-yellow-10{fill: #996f00; opacity: 0.1;}.light-yellow{fill: #996f00; opacity: 1;}.light-defaultgrey-10{fill: #212121; opacity: 0.1;}.light-defaultgrey{fill: #212121; opacity: 1;}</style>
  </defs>
  <title>IconLightDocumentsFolder</title>
  <g id="canvas" class="canvas">
    <path class="canvas" d="M16,16H0V0H16Z" />
  </g>
  <g id="level-1">
    <path class="light-yellow-10" d="M14.5,3.5v9H8V9.8L7.7,9.08,5.92,7.3,5.2,7H1.5V2.5h6l1,1Z" />
    <path class="light-yellow" d="M14.5,3H8.707l-.853-.854L7.5,2h-6L1,2.5V7H2V5H7.475l.354-.146L8.682,4H14v8H8v1h6.5l.5-.5v-9ZM7.268,4H2V3H7.293l.488.488Z" />
    <path class="light-defaultgrey-10" d="M6.5,15.5H.5v-7H5L6.5,10Z" />
    <path class="light-defaultgrey" d="M6.854,9.646l-1.5-1.5L5,8H.5L0,8.5v7l.5.5h6l.5-.5V10ZM1,15V9H4v2H6v4Z" />
  </g>
</svg>
