<svg xmlns="http://www.w3.org/2000/svg" viewBox="0 0 16 16">
  <defs>
    <style>.canvas{fill: none; opacity: 0;}.light-defaultgrey{fill: #212121; opacity: 1;}.light-defaultgrey-10{fill: #212121; opacity: 0.1;}</style>
  </defs>
  <title>IconLightDotNETPhone</title>
  <g id="canvas">
    <path class="canvas" d="M16,16H0V0H16Z" />
  </g>
  <g id="level-1">
    <path class="light-defaultgrey" d="M10,4H9V3h1Z" />
    <path class="light-defaultgrey-10" d="M7.605,15.5H5.573c-1.092,0-1.684-1.864-2.275-3.047.277-.549.652-.953,1.159-.953C5.478,11.5,6.006,15.5,7.605,15.5Z" />
    <path class="light-defaultgrey-10" d="M5.571,15.5c1.6,0,1.894-4,1.894-4H9.5s-.295,4-1.894,4Z" />
    <path class="light-defaultgrey-10" d="M4.457,11.5c-1.6,0-1.894,4-1.894,4H.53s.294-4,1.893-4Z" />
    <path class="light-defaultgrey" d="M14,1.5v13l-.5.5H10.206a7.322,7.322,0,0,0,.368-1H13V2H6v8.753a2.088,2.088,0,0,0-1-.676V1.5L5.5,1h8Z" />
    <path class="light-defaultgrey-10" d="M13.5,1.5v13H10.41a11.437,11.437,0,0,0,.584-2.89l.032-.433L9.936,10H7.072l-.952.885a2.5,2.5,0,0,0-.62-.574V1.5Z" />
    <path class="light-defaultgrey" d="M9.5,11H7.465l-.5.463a10.5,10.5,0,0,1-.46,2.317c-.14-.275-.271-.561-.387-.819C5.644,11.909,5.234,11,4.457,11H2.423C.459,11,.086,14.718.031,15.463l.5.537H2.563l.5-.463a10.328,10.328,0,0,1,.293-1.769C3.872,14.884,4.489,16,5.573,16H7.605C9.569,16,9.943,12.282,10,11.537Zm-7.39,4H1.084c.183-1.4.685-3,1.339-3H2.97c-.019.033-.031.073-.05.106s-.047.077-.069.122v.026A8.8,8.8,0,0,0,2.109,15Zm3.464,0c-.566,0-1.1-1.178-1.486-2.038-.075-.166-.149-.329-.223-.485.017-.027.033-.059.05-.084s.031-.047.048-.069a1.033,1.033,0,0,1,.2-.2c.019-.015.039-.027.058-.04a.472.472,0,0,1,.224-.076,4.967,4.967,0,0,1,.767,1.368A10.765,10.765,0,0,0,6.054,15Zm2.032,0a.469.469,0,0,1-.2-.049l-.034-.017a.827.827,0,0,1-.144-.1c-.019-.016-.036-.026-.056-.045l0-.005A9.245,9.245,0,0,0,7.915,12H8.944C8.761,13.4,8.259,15,7.605,15Z" />
  </g>
</svg>
