<svg xmlns="http://www.w3.org/2000/svg" viewBox="0 0 16 16">
  <defs>
    <style>.canvas{fill: none; opacity: 0;}.light-defaultgrey-10{fill: #212121; opacity: 0.1;}.light-defaultgrey{fill: #212121; opacity: 1;}.light-lightblue-10{fill: #0077a0; opacity: 0.1;}.light-lightblue{fill: #0077a0; opacity: 1;}</style>
  </defs>
  <title>IconLightDoughnutChart</title>
  <g id="canvas">
    <path class="canvas" d="M16,16H0V0H16Z" />
  </g>
  <g id="level-1">
    <path class="light-defaultgrey-10" d="M14.475,8.5A6.5,6.5,0,1,1,8,1.5c.169,0,.334.013.5.025V4.55A3.588,3.588,0,0,0,8,4.5a3.5,3.5,0,1,0,3.45,4Z" />
    <path class="light-defaultgrey" d="M14.475,8H11.449l-.495.429A2.993,2.993,0,1,1,8,5a2.974,2.974,0,0,1,.427.045L9,4.551V1.525l-.465-.5C8.357,1.013,8.181,1,8,1a7,7,0,1,0,6.974,7.538ZM8,14A6,6,0,0,1,8,2V4a4,4,0,1,0,3.858,5H13.91A6.023,6.023,0,0,1,8,14Z" />
    <path class="light-lightblue-10" d="M14.5,8c0,.169-.013.334-.025.5H11.45A3.588,3.588,0,0,0,11.5,8a3.491,3.491,0,0,0-3-3.45V1.525A6.5,6.5,0,0,1,14.5,8Z" />
    <path class="light-lightblue" d="M8.538,1.026,8,1.525V4.551l.429.5A3.005,3.005,0,0,1,11,8a2.974,2.974,0,0,1-.045.427L11.449,9h3.026l.5-.465C14.987,8.357,15,8.181,15,8A7.027,7.027,0,0,0,8.538,1.026ZM12,8A4.014,4.014,0,0,0,9,4.142V2.09A6.023,6.023,0,0,1,14,8Z" />
  </g>
</svg>
