<svg xmlns="http://www.w3.org/2000/svg" viewBox="0 0 16 16">
  <defs>
    <style>.canvas{fill: none; opacity: 0;}.light-blue-10{fill: #005dba; opacity: 0.1;}.light-blue{fill: #005dba; opacity: 1;}.light-defaultgrey{fill: #212121; opacity: 1;}</style>
  </defs>
  <title>IconLightDownloadWebSettings</title>
  <g id="canvas">
    <path class="canvas" d="M16,16H0V0H16Z" />
  </g>
  <g id="level-1">
    <path class="light-blue-10" d="M13.5,6A4.5,4.5,0,0,1,9,10.5,4.5,4.5,0,0,0,4.5,6a4.5,4.5,0,0,1,9,0Z" />
    <path class="light-blue" d="M9,1A5.006,5.006,0,0,0,4,6c0,.017,0,.033,0,.05A4.485,4.485,0,0,1,4.5,6a4.411,4.411,0,0,1,.5.051C5,6.034,5,6.017,5,6a3.939,3.939,0,0,1,.142-1H6.574A7.583,7.583,0,0,0,6.5,6c0,.171.024.339.038.509A4.506,4.506,0,0,1,8.24,8h1.928A6.5,6.5,0,0,1,9.107,9.989C9.071,9.99,9.037,10,9,10a.44.44,0,0,1-.051-.005A4.429,4.429,0,0,1,9,10.5,4.485,4.485,0,0,1,8.95,11C8.967,11,8.983,11,9,11A5,5,0,0,0,9,1Zm3.444,3H11.225a7.486,7.486,0,0,0-.712-1.7A4.011,4.011,0,0,1,12.444,4ZM8.891,2.011C8.928,2.01,8.963,2,9,2s.072.01.11.011A6.54,6.54,0,0,1,10.168,4H7.832A6.5,6.5,0,0,1,8.891,2.011ZM6.775,4H5.556A4.011,4.011,0,0,1,7.487,2.3,7.486,7.486,0,0,0,6.775,4Zm3.637,3H7.588A6.419,6.419,0,0,1,7.5,6a6.419,6.419,0,0,1,.088-1h2.824A6.419,6.419,0,0,1,10.5,6,6.419,6.419,0,0,1,10.412,7Zm.1,2.7A7.534,7.534,0,0,0,11.226,8h1.218A4.011,4.011,0,0,1,10.513,9.7ZM11.426,7A7.583,7.583,0,0,0,11.5,6a7.583,7.583,0,0,0-.074-1h1.432A3.939,3.939,0,0,1,13,6a3.939,3.939,0,0,1-.142,1Z" />
    <path class="light-defaultgrey" d="M8,11V10H6.949a2.473,2.473,0,0,0-.365-.876l.745-.745-.707-.707-.745.745A2.469,2.469,0,0,0,5,8.051V7H4V8.051a2.469,2.469,0,0,0-.877.366l-.745-.745-.707.707.745.745A2.473,2.473,0,0,0,2.051,10H1v1H2.051a2.473,2.473,0,0,0,.365.876l-.745.745.707.707.745-.745A2.469,2.469,0,0,0,4,12.949V14H5V12.949a2.469,2.469,0,0,0,.877-.366l.745.745.707-.707-.745-.745A2.473,2.473,0,0,0,6.949,11ZM4.5,12A1.5,1.5,0,1,1,6,10.5,1.5,1.5,0,0,1,4.5,12Z" />
    <path class="light-blue" d="M13.146,15.854l-2-2,.708-.708L13,14.293V10h1v4.293l1.146-1.147.708.708-2,2Z" />
  </g>
</svg>
