<svg xmlns="http://www.w3.org/2000/svg" viewBox="0 0 16 16">
  <defs>
    <style>.canvas{fill: none; opacity: 0;}.light-defaultgrey{fill: #212121; opacity: 1;}.light-defaultgrey-10{fill: #212121; opacity: 0.1;}.light-blue{fill: #005dba; opacity: 1;}.cls-1{opacity:0.75;}</style>
  </defs>
  <title>IconLightDragDropControl</title>
  <g id="canvas">
    <path class="canvas" d="M16,16H0V0H16Z" />
  </g>
  <g id="level-1">
    <path class="light-defaultgrey" d="M10,12H6.5L6,11.5v-8L6.5,3h8l.5.5v7.738l-1-1.2V4H7v7h3Z" />
    <path class="light-defaultgrey-10" d="M15,3.5v8l-.5.5h-8L6,11.5V3.762l.5.6V3.5H11V3h3.5Z" />
    <path class="light-blue" d="M13.278,12.7l.789,2.167-.94.342-.821-2.255L11,14V8l4,4.8Z" />
    <g class="cls-1">
      <path class="light-defaultgrey-10" d="M10,12v2H1.5L1,13.5v-8L1.5,5H6v6.5l.5.5Z" />
      <path class="light-defaultgrey" d="M1,7H2V8H1Zm0,3H2V9H1Zm0,2H2V11H1ZM1,5.5V6H2V5H1.5Zm0,8,.5.5H2V13H1ZM9,13v1h1V13ZM3,14H4V13H3ZM5,6H6V5H5Zm2,8H8V13H7ZM5,14H6V13H5ZM3,6H4V5H3Z" />
    </g>
  </g>
</svg>
