<svg xmlns="http://www.w3.org/2000/svg" viewBox="0 0 16 16">
  <defs>
    <style>.canvas{fill: none; opacity: 0;}.light-defaultgrey{fill: #212121; opacity: 1;}.light-defaultgrey-10{fill: #212121; opacity: 0.1;}.light-green{fill: #1f801f; opacity: 1;}.cls-1{opacity:0.75;}</style>
  </defs>
  <title>IconLightDriverVerifier</title>
  <g id="canvas">
    <path class="canvas" d="M16,16H0V0H16Z" />
    <path class="canvas" d="M16,16H0V0H16Z" />
  </g>
  <g id="level-1">
    <g class="cls-1">
      <path class="light-defaultgrey" d="M5.949,3h4.6l.5.5V8.051a2.476,2.476,0,0,0-1,0V4h-4.1a2.476,2.476,0,0,0,0-1Z" />
    </g>
    <path class="light-defaultgrey-10" d="M8.5,10.5a2,2,0,1,1,2,2A2,2,0,0,1,8.5,10.5Z" />
    <path class="light-defaultgrey" d="M10.087,12.965a2.454,2.454,0,0,0,.826,0l2.052-2.052A2.44,2.44,0,0,0,13,10.5a2.5,2.5,0,0,0-5,0,2.449,2.449,0,0,0,.035.413ZM10.5,9A1.5,1.5,0,1,1,9,10.5,1.5,1.5,0,0,1,10.5,9Z" />
    <path class="light-defaultgrey-10" d="M5.5,3.5a2,2,0,1,1-2-2A2,2,0,0,1,5.5,3.5Z" />
    <path class="light-defaultgrey" d="M3.5,6A2.5,2.5,0,1,1,6,3.5,2.5,2.5,0,0,1,3.5,6Zm0-4A1.5,1.5,0,1,0,5,3.5,1.5,1.5,0,0,0,3.5,2Z" />
    <path class="light-green" d="M15.854,10.854l-5,5h-.708l-3-3,.708-.708L10.5,14.793l4.646-4.647Z" />
  </g>
</svg>
