<svg xmlns="http://www.w3.org/2000/svg" viewBox="0 0 16 16">
  <defs>
    <style>.canvas{fill: none; opacity: 0;}.light-defaultgrey{fill: #212121; opacity: 1;}.light-defaultgrey-10{fill: #212121; opacity: 0.1;}.light-blue{fill: #005dba; opacity: 1;}.cls-1{opacity:0.75;}</style>
  </defs>
  <title>IconLightDropPointTarget</title>
  <g id="canvas">
    <path class="canvas" d="M16,16H0V0H16Z" />
  </g>
  <g id="level-1">
    <g class="cls-1">
      <path class="light-defaultgrey" d="M15.5,10H15V9h1v.5ZM8,2H7V1.5L7.5,1H8Zm6,0H13V1h1ZM12,2H11V1h1ZM10,2H9V1h1Zm6,0H15V1h.5l.5.5Zm0,6H15V7h1Zm0-2H15V5h1Zm0-2H15V3h1Z" />
      <path class="light-defaultgrey" d="M9,14H8V13H9ZM7,14H6V13H7ZM5,14H4V13H5ZM3,14H2V13H3ZM1,14H.5L0,13.5V13H1Zm0-2H0V11H1Zm0-2H0V9H1ZM1,8H0V7H1ZM1,6H0V5.5L.5,5H1ZM5,6H4V5H5ZM3,6H2V5H3Z" />
      <path class="light-defaultgrey-10" d="M16,1.5v8l-.5.5H14V3.5L13.5,3H7V1.5L7.5,1h8Z" />
    </g>
    <path class="light-defaultgrey-10" d="M12.278,12.7l.789,2.167-.94.342-.821-2.256L10,14V8l4,4.8Z" />
    <path class="light-defaultgrey-10" d="M9,12v2H.5L0,13.5v-8L.5,5H5v6.5l.5.5Z" />
    <path class="light-defaultgrey" d="M9,12H5.5L5,11.5v-8L5.5,3h8l.5.5v7.737l-1-1.2V4H6v7H9Z" />
    <path class="light-defaultgrey-10" d="M14,3.5v8l-.5.5H6L5,11V3.5L5.5,3h8Z" />
    <path class="light-blue" d="M12.278,12.7l.789,2.167-.94.342-.821-2.255L10,14V8l4,4.8Z" />
  </g>
</svg>
