<svg xmlns="http://www.w3.org/2000/svg" viewBox="0 0 16 16">
  <defs>
    <style>.canvas{fill: none; opacity: 0;}.light-blue-10{fill: #005dba; opacity: 0.1;}.light-blue{fill: #005dba; opacity: 1;}.light-defaultgrey{fill: #212121; opacity: 1;}</style>
  </defs>
  <title>IconLightDTSCustomTask</title>
  <g id="canvas">
    <path class="canvas" d="M16,16H0V0H16Z" />
  </g>
  <g id="level-1">
    <path class="light-blue-10" d="M14.5,8A6.495,6.495,0,0,1,5,13.763V10H7V6H2.5a3.452,3.452,0,0,0-.709.073A6.5,6.5,0,0,1,14.5,8Z" />
    <path class="light-blue" d="M8,1A7.007,7.007,0,0,0,1.234,6.237,3.482,3.482,0,0,1,2.5,6h7.778A9.487,9.487,0,0,1,10.5,8a9.487,9.487,0,0,1-.222,2H5v1.141a10.449,10.449,0,0,0,1.211,2.586A5.871,5.871,0,0,1,5,13.175v1.14A7,7,0,1,0,8,1ZM2.812,5a6.023,6.023,0,0,1,3.4-2.727A10.517,10.517,0,0,0,4.946,5ZM6,5A9.481,9.481,0,0,1,7.628,2.019C7.752,2.011,7.874,2,8,2s.249.011.373.019A9.479,9.479,0,0,1,10.005,5ZM9.789,2.273A6.021,6.021,0,0,1,13.188,5H11.053A10.484,10.484,0,0,0,9.789,2.273ZM8,14c-.126,0-.249-.011-.373-.019A9.479,9.479,0,0,1,6,11h4.01a9.479,9.479,0,0,1-1.632,2.981C8.249,13.989,8.126,14,8,14Zm1.789-.273A10.484,10.484,0,0,0,11.053,11h2.135A6.021,6.021,0,0,1,9.789,13.727ZM11.3,10a10.2,10.2,0,0,0,0-4H13.65a5.889,5.889,0,0,1,0,4Z" />
    <path class="light-defaultgrey" d="M6,7V9H5l-.5-.5L4,9H3.5v1l.5.5v5l-.5.5h-1L2,15.5v-5l.5-.5V9h-1a.5.5,0,0,0-.5.5.5.5,0,0,1-1,0A2.5,2.5,0,0,1,2.5,7H4l.5.5L5,7Z" />
  </g>
</svg>
