<svg xmlns="http://www.w3.org/2000/svg" viewBox="0 0 16 16">
  <defs>
    <style>.canvas{fill: none; opacity: 0;}.light-defaultgrey{fill: #212121; opacity: 1;}.light-defaultgrey-10{fill: #212121; opacity: 0.1;}.cls-1{opacity:0.75;}</style>
  </defs>
  <title>IconLightDTSVisualizer</title>
  <g id="canvas">
    <path class="canvas" d="M16,16H0V0H16Z" />
  </g>
  <g id="level-1">
    <g class="cls-1">
      <path class="light-defaultgrey" d="M2.355,10.792l.707.707L.854,13.707.146,13Zm6.5-5.085L8.146,5,5.938,7.208l.707.708Zm-8.708,0L2.355,7.916l.707-.708L.854,5ZM8,12.146,6.645,10.792l-.707.707L8,13.561Z" />
    </g>
    <path class="light-defaultgrey-10" d="M8,13.5H.5v-8h8V8H8Z" />
    <path class="light-defaultgrey" d="M8,14H.5L0,13.5v-8L.5,5h8l.5.5V8H8V6H1v7H8Z" />
    <path class="light-defaultgrey-10" d="M9,5.5H7.5V.5h5l2,2V8H9Z" />
    <path class="light-defaultgrey" d="M7,5V.5L7.5,0h5l.354.146,2,2L15,2.5V8H14V3H11.993V1H8V5Z" />
    <path class="light-defaultgrey" d="M11,5H10V4h1Zm2-1H12V5h1ZM11,6H10V7h1Z" />
    <path class="light-defaultgrey" d="M12,12H9V9h3Zm0,4H9V13h3Zm4-4H13V9h3Z" />
  </g>
</svg>
