<svg xmlns="http://www.w3.org/2000/svg" viewBox="0 0 16 16">
  <defs>
    <style>.canvas{fill: none; opacity: 0;}.light-defaultgrey{fill: #212121; opacity: 1;}.light-blue{fill: #005dba; opacity: 1;}</style>
  </defs>
  <title>IconLightDynamicHyperlink</title>
  <g id="canvas">
    <path class="canvas" d="M16,16H0V0H16Z" />
  </g>
  <g id="level-1">
    <path class="light-defaultgrey" d="M8.63,2.5H7.355l-3.449,9L4,11.586,5.854,9.732l.323.324H10.2L11.311,13h1.362ZM6.154,8.95,7.787,4.475a3.9,3.9,0,0,0,.169-.7h.029a4.407,4.407,0,0,0,.161.7L9.8,8.95Z" />
    <path class="light-blue" d="M7.854,13.146v.708l-2,2-.708-.708L6.293,14H1.707l1.147,1.146-.708.708-2-2v-.708l2-2,.708.708L1.707,13H6.293L5.146,11.854l.708-.708Z" />
  </g>
</svg>
