<svg xmlns="http://www.w3.org/2000/svg" viewBox="0 0 16 16">
  <defs>
    <style>.canvas{fill: none; opacity: 0;}.light-defaultgrey-10{fill: #212121; opacity: 0.1;}.light-defaultgrey{fill: #212121; opacity: 1;}.light-blue{fill: #005dba; opacity: 1;}</style>
  </defs>
  <title>DynamicValue</title>
  <g id="canvas" class="canvas">
    <path class="canvas" d="M16,0V16H0V0Z" />
  </g>
  <g id="level-1">
    <path class="light-defaultgrey-10" d="M1.5,4.5v5.88l.65-.65L3.41,11H4.59L5.85,9.73,7.62,11.5H15.5v-7Z" />
    <path class="light-defaultgrey" d="M15.5,4H1.5L1,4.5v6.38l1-1V5H15v6H7.12l1,1H15.5l.5-.5v-7Z" />
    <path class="light-blue" d="M9,2V1H8V2H6V3h5V2ZM9,13v1h2V13Z" />
    <path class="light-blue" d="M7.854,13.146v.708l-2,2-.708-.708L6.293,14H1.707l1.147,1.146-.708.708-2-2v-.708l2-2,.708.708L1.707,13H6.293L5.146,11.854l.708-.708Z" />
  </g>
</svg>
