<svg xmlns="http://www.w3.org/2000/svg" viewBox="0 0 16 16">
  <defs>
    <style>.canvas{fill: none; opacity: 0;}.light-defaultgrey-10{fill: #212121; opacity: 0.1;}.light-defaultgrey{fill: #212121; opacity: 1;}.light-blue{fill: #005dba; opacity: 1;}.cls-1{opacity:0.75;}</style>
  </defs>
  <title>IconLightDynamicTable</title>
  <g id="canvas">
    <path class="canvas" d="M16,16H0V0H16Z" />
  </g>
  <g id="level-1">
    <g class="cls-1">
      <path class="light-defaultgrey-10" d="M14.5,5v8.5H8.854v-.768l-3-3L4,11.586l-1.5-1.5V5Z" />
      <path class="light-defaultgrey" d="M14.5,5H14V7H11V5H10V7H7V5H6V7H3V5H2.5L2,4.5V9.879l.146-.147L3.414,11H4.586l1-1H3V8H6V9.879L7.121,11H10v2H8.854v1H14.5l.5-.5v-9ZM10,10H7V8h3Zm4,3H11V11h3Zm0-3H11V8h3Z" />
    </g>
    <path class="light-defaultgrey-10" d="M14.5,4.5H2.5v-2h12Z" />
    <path class="light-defaultgrey" d="M14.5,5H2.5L2,4.5v-2L2.5,2h12l.5.5v2ZM3,4H14V3H3Z" />
    <path class="light-blue" d="M7.854,13.146v.708l-2,2-.708-.708L6.293,14H1.707l1.147,1.146-.708.708-2-2v-.708l2-2,.708.708L1.707,13H6.293L5.146,11.854l.708-.708Z" />
  </g>
</svg>
