<svg xmlns="http://www.w3.org/2000/svg" viewBox="0 0 16 16">
  <defs>
    <style>.canvas{fill: none; opacity: 0;}.light-defaultgrey-10{fill: #212121; opacity: 0.1;}.light-defaultgrey{fill: #212121; opacity: 1;}.light-blue{fill: #005dba; opacity: 1;}.cls-1{opacity:0.75;}</style>
  </defs>
  <title>IconLightDynamicMenu</title>
  <g id="canvas">
    <path class="canvas" d="M16,16H0V0H16Z" />
  </g>
  <g id="level-1">
    <path class="light-defaultgrey-10" d="M8.5,1.5v2h-6v-2Z" />
    <path class="light-defaultgrey" d="M8.5,1h-6L2,1.5v2l.5.5h6L9,3.5v-2ZM8,3H3V2H8Z" />
    <g class="cls-1">
      <path class="light-defaultgrey" d="M10,8H4V7h6ZM8.121,12H10V11H7.121ZM4,9v1h8V9Z" />
    </g>
    <path class="light-defaultgrey" d="M14,5.5v8l-.5.5H8.854V13H13V6H3v4.586l-.854-.854L2,9.879V5.5L2.5,5h11Z" />
    <path class="light-defaultgrey-10" d="M13.5,5.5v8H8.854v-.768l-3-3L4,11.586l-1.5-1.5V5.5Z" />
    <path class="light-blue" d="M7.854,13.146v.708l-2,2-.708-.708L6.293,14H1.707l1.147,1.146-.708.708-2-2v-.708l2-2,.708.708L1.707,13H6.293L5.146,11.854l.708-.708Z" />
  </g>
</svg>
