<svg xmlns="http://www.w3.org/2000/svg" viewBox="0 0 16 16">
  <defs>
    <style>.canvas{fill: none; opacity: 0;}.light-defaultgrey-10{fill: #212121; opacity: 0.1;}.light-defaultgrey{fill: #212121; opacity: 1;}.light-blue{fill: #005dba; opacity: 1;}</style>
  </defs>
  <title>IconLightDynamicProcedure</title>
  <g id="canvas">
    <path class="canvas" d="M16,16H0V0H16Z" />
  </g>
  <g id="level-1">
    <path class="light-defaultgrey-10" d="M14.5,2.5v11H8.854v-.768l-3-3L4,11.586,2.146,9.732l-.646.647V2.5Z" />
    <path class="light-defaultgrey" d="M14.5,2H1.5L1,2.5v8.379l1-1V6H14v7H8.854v1H14.5l.5-.5V2.5ZM14,5H2V3H14Z" />
    <path class="light-defaultgrey" d="M8,8H3V7H8ZM8,9H3v1H8Zm0,2.879L8.121,12H13V11H8ZM9,9v1h4V9Z" />
    <path class="light-blue" d="M7.854,13.146v.708l-2,2-.708-.708L6.293,14H1.707l1.147,1.146-.708.708-2-2v-.708l2-2,.708.708L1.707,13H6.293L5.146,11.854l.708-.708Z" />
  </g>
</svg>
