<svg xmlns="http://www.w3.org/2000/svg" viewBox="0 0 16 16">
  <defs>
    <style>.canvas{fill: none; opacity: 0;}.light-blue{fill: #005dba; opacity: 1;}.light-blue-10{fill: #005dba; opacity: 0.1;}.light-defaultgrey-10{fill: #212121; opacity: 0.1;}.light-defaultgrey{fill: #212121; opacity: 1;}</style>
  </defs>
  <title>IconLightDynamicDiscoveryDocument</title>
  <g id="canvas">
    <path class="canvas" d="M16,16H0V0H16Z" />
  </g>
  <g id="level-1">
    <path class="light-blue" d="M10,1A5.006,5.006,0,0,0,5,6a4.95,4.95,0,0,0,.424,2h5.744a6.5,6.5,0,0,1-1.061,1.989c-.036,0-.07.011-.107.011v1A5,5,0,0,0,10,1Zm3.444,3H12.225a7.486,7.486,0,0,0-.712-1.7A4.011,4.011,0,0,1,13.444,4ZM9.891,2.011C9.928,2.01,9.963,2,10,2s.072.01.11.011A6.54,6.54,0,0,1,11.168,4H8.832A6.5,6.5,0,0,1,9.891,2.011ZM7.574,7H6.142A3.939,3.939,0,0,1,6,6a3.939,3.939,0,0,1,.142-1H7.574A7.583,7.583,0,0,0,7.5,6,7.583,7.583,0,0,0,7.574,7Zm.2-3H6.556A4.011,4.011,0,0,1,8.487,2.3,7.486,7.486,0,0,0,7.775,4Zm3.637,3H8.588A6.419,6.419,0,0,1,8.5,6a6.419,6.419,0,0,1,.088-1h2.824A6.419,6.419,0,0,1,11.5,6,6.419,6.419,0,0,1,11.412,7Zm.1,2.7A7.534,7.534,0,0,0,12.226,8h1.218A4.011,4.011,0,0,1,11.513,9.7ZM12.426,7A7.583,7.583,0,0,0,12.5,6a7.583,7.583,0,0,0-.074-1h1.432A3.939,3.939,0,0,1,14,6a3.939,3.939,0,0,1-.142,1Z" />
    <path class="light-blue-10" d="M14.5,6A4.5,4.5,0,0,1,10,10.5V9.086L8.914,8H5.988A4.493,4.493,0,1,1,14.5,6Z" />
    <path class="light-defaultgrey-10" d="M.5,9.5h8v6H.5Z" />
    <path class="light-defaultgrey" d="M8.5,9H.5L0,9.5v6l.5.5h8l.5-.5v-6ZM8,15H1V11H8Z" />
  </g>
</svg>
