<svg xmlns="http://www.w3.org/2000/svg" viewBox="0 0 16 16">
  <defs>
    <style>.canvas{fill: none; opacity: 0;}.light-defaultgrey-10{fill: #212121; opacity: 0.1;}.light-defaultgrey{fill: #212121; opacity: 1;}.light-yellow{fill: #996f00; opacity: 1;}.white{fill: #ffffff; opacity: 1;}</style>
  </defs>
  <title>IconLightEditorWarning</title>
  <g id="canvas">
    <path class="canvas" d="M16,16H0V0H16Z" />
    <path class="canvas" d="M16,16H0V0H16Z" />
  </g>
  <g id="level-1">
    <path class="light-defaultgrey-10" d="M6.339,14.5H2.5V1.5h11V8.76L12.53,7H10.47Z" />
    <path class="light-defaultgrey" d="M6.063,15H2.5L2,14.5V1.5L2.5,1h11l.5.5V9.668L13,7.853V2H3V14H6.614Z" />
    <path class="light-defaultgrey" d="M12,3V4H4V3ZM11,7h1V6H11ZM4,7h6V6H4Zm0,3H8.817l.551-1H4Zm0,3H7.165l.551-1H4Z" />
    <path class="light-yellow" d="M15.5,16h-8l-.439-.739,4-7.261h.878l4,7.261Z" />
    <path class="white" d="M12,13H11V10h1Zm.25,1.5a.75.75,0,1,1-.75-.75A.75.75,0,0,1,12.25,14.5Z" />
  </g>
</svg>
