<svg xmlns="http://www.w3.org/2000/svg" viewBox="0 0 16 16">
  <defs>
    <style>.canvas{fill: none; opacity: 0;}.light-defaultgrey-10{fill: #212121; opacity: 0.1;}.light-defaultgrey{fill: #212121; opacity: 1;}.light-blue-10{fill: #005dba; opacity: 0.1;}.light-blue{fill: #005dba; opacity: 1;}.cls-1{opacity:0.75;}</style>
  </defs>
  <title>IconLightEditBug</title>
  <g id="canvas" class="canvas">
    <path class="canvas" d="M16,16H0V0H16Z" />
  </g>
  <g id="level-1">
    <g class="cls-1">
      <path class="light-defaultgrey-10" d="M5.8,14.5H2.5V1.5h7l3,3V6.252L7.262,11.489Z" />
      <path class="light-defaultgrey" d="M5.558,15H2.5L2,14.5V1.5L2.5,1h7l.354.146,3,3L13,4.5V5.815a2.54,2.54,0,0,0-.369.306L12,6.752V5H9V2H3V14H6.043Z" />
    </g>
    <path class="light-blue-10" d="M15.192,8.681,9.635,14.238,8.153,12.72l5.539-5.539a1.059,1.059,0,0,1,1.5,0A1.062,1.062,0,0,1,15.192,8.681Z" />
    <path class="light-blue" d="M15.543,6.83a1.56,1.56,0,0,0-2.2,0l-5.25,5.25L6.511,15.326,7.186,16l2.995-1.629,5.365-5.336A1.562,1.562,0,0,0,15.543,6.83Zm-.7,1.5-5.2,5.2-.783-.8,5.19-5.189a.56.56,0,0,1,.792.793Z" />
    <path class="light-defaultgrey" d="M7.25,10.5a.75.75,0,1,1-.75-.75A.75.75,0,0,1,7.25,10.5ZM7,4V9H6V4Z" />
  </g>
</svg>
