<svg xmlns="http://www.w3.org/2000/svg" viewBox="0 0 16 16">
  <defs>
    <style>.canvas{fill: none; opacity: 0;}.light-defaultgrey-10{fill: #212121; opacity: 0.1;}.light-defaultgrey{fill: #212121; opacity: 1;}.light-teal-10{fill: #006758; opacity: 0.1;}.light-teal{fill: #006758; opacity: 1;}.light-blue-10{fill: #005dba; opacity: 0.1;}.light-blue{fill: #005dba; opacity: 1;}.cls-1{opacity:0.75;}</style>
  </defs>
  <title>EditNotebook</title>
  <g id="canvas">
    <path class="canvas" d="M16,0V16H0V0Z" />
  </g>
  <g id="level-1">
    <path class="light-defaultgrey-10" d="M2.5,1.5V3H4V4H2.5V6H4V7H2.5V9H4v1H2.5v2H4v1H2.5v1.5H5.8l.24-.5,1.22-2.51,5.37-5.37a2.114,2.114,0,0,1,.37-.3,2.186,2.186,0,0,1,.5-.27V1.5ZM11,5H6V4h5Zm.97,9-.51.5H13.5V12.47Z" />
    <path class="light-defaultgrey" d="M2,4V6H3V4ZM13.5,1H2.5L2,1.5V3H3V2H13V5.82a2.453,2.453,0,0,1,1-.41V1.5ZM13,12.97V14H11.97l-.51.5-.5.5H13.5l.5-.5V11.98l-.5.49ZM3,13H2v1.5l.5.5H5.56l.48-1H3ZM2,7V9H3V7Zm0,3v2H3V10Z" />
    <g class="cls-1">
      <path class="light-defaultgrey" d="M1,12v1H4V12ZM1,9v1H4V9ZM1,6V7H4V6ZM1,3V4H4V3Z" />
    </g>
    <path class="light-teal-10" d="M6,4V5h5V4Z" />
    <path class="light-teal" d="M11.5,3h-6L5,3.5v2l.5.5h6l.5-.5v-2ZM11,5H6V4h5Z" />
    <path class="light-blue-10" d="M15.192,8.681,9.635,14.238,8.153,12.72l5.539-5.539a1.059,1.059,0,0,1,1.5,0A1.062,1.062,0,0,1,15.192,8.681Z" />
    <path class="light-blue" d="M15.543,6.83a1.56,1.56,0,0,0-2.2,0l-5.25,5.25L6.511,15.326,7.186,16l2.995-1.629,5.365-5.336A1.562,1.562,0,0,0,15.543,6.83Zm-.7,1.5-5.2,5.2-.783-.8,5.19-5.189a.56.56,0,0,1,.792.793Z" />
  </g>
</svg>
