<svg xmlns="http://www.w3.org/2000/svg" viewBox="0 0 16 16">
  <defs>
    <style>.canvas{fill: none; opacity: 0;}.light-lightblue{fill: #0077a0; opacity: 1;}.light-purple{fill: #6936aa; opacity: 1;}.light-blue-10{fill: #005dba; opacity: 0.1;}.light-blue{fill: #005dba; opacity: 1;}</style>
  </defs>
  <title>IconLightEditLink</title>
  <g id="canvas" class="canvas">
    <path class="canvas" d="M16,16H0V0H16Z" />
  </g>
  <g id="level-1">
    <path class="light-lightblue" d="M8,10h.752l1-1H7A2,2,0,0,1,7,5h4a1.993,1.993,0,0,1,1.739,1.032,2.526,2.526,0,0,1,.857-.508A2.991,2.991,0,0,0,11,4H7a3,3,0,0,0,0,6Z" />
    <path class="light-purple" d="M10,4A3,3,0,0,1,7,7H5a1.981,1.981,0,0,1,.278-1H7A2,2,0,0,0,7,2H3A2,2,0,0,0,3,6H4.184A2.966,2.966,0,0,0,4,7H3A3,3,0,0,1,3,1H7A3,3,0,0,1,10,4Z" />
    <path class="light-blue-10" d="M15.192,8.681,9.635,14.238,8.153,12.72l5.539-5.539a1.059,1.059,0,0,1,1.5,0A1.062,1.062,0,0,1,15.192,8.681Z" />
    <path class="light-blue" d="M15.543,6.83a1.56,1.56,0,0,0-2.2,0l-5.25,5.25L6.511,15.326,7.186,16l2.995-1.629,5.365-5.336A1.562,1.562,0,0,0,15.543,6.83Zm-.7,1.5-5.2,5.2-.783-.8,5.19-5.189a.56.56,0,0,1,.792.793Z" />
  </g>
</svg>
