<svg xmlns="http://www.w3.org/2000/svg" viewBox="0 0 16 16">
  <defs>
    <style>.canvas{fill: none; opacity: 0;}.light-defaultgrey-10{fill: #212121; opacity: 0.1;}.light-defaultgrey{fill: #212121; opacity: 1;}.light-blue-10{fill: #005dba; opacity: 0.1;}.light-blue{fill: #005dba; opacity: 1;}</style>
  </defs>
  <title>IconLightEditManifest</title>
  <g id="canvas" class="canvas">
    <path class="canvas" d="M16,16H0V0H16Z" />
  </g>
  <g id="level-1">
    <path class="light-defaultgrey-10" d="M3.5,2V12a1.5,1.5,0,0,0-3,0V2a1.5,1.5,0,0,1,3,0Z" />
    <path class="light-defaultgrey-10" d="M6.286,13.5H2A1.5,1.5,0,0,1,.5,12h0a1.5,1.5,0,0,1,3,0V4H4V3.5h9.5V5.553a2.531,2.531,0,0,0-.869.568L7.262,11.49Z" />
    <path class="light-defaultgrey" d="M9.752,9H8V8h2.752ZM12,6H8V5h4ZM7,12H6V11H7ZM7,6H6V5H7ZM7,9H6V8H7Z" />
    <path class="light-defaultgrey" d="M6.529,13H2a1,1,0,1,1,1-1H4V4h9V5.817h0a2.526,2.526,0,0,1,1-.4h0V3.5L13.5,3H4V2A2,2,0,0,0,0,2V12a2,2,0,0,0,2,2H6.043ZM1,2A1,1,0,0,1,3,2v8.269a1.993,1.993,0,0,0-2,0Z" />
    <path class="light-blue-10" d="M15.192,8.681,9.635,14.238,8.153,12.72l5.539-5.539a1.059,1.059,0,0,1,1.5,0A1.062,1.062,0,0,1,15.192,8.681Z" />
    <path class="light-blue" d="M15.543,6.83a1.56,1.56,0,0,0-2.2,0l-5.25,5.25L6.511,15.326,7.186,16l2.995-1.629,5.365-5.336A1.562,1.562,0,0,0,15.543,6.83Zm-.7,1.5-5.2,5.2-.783-.8,5.19-5.189a.56.56,0,0,1,.792.793Z" />
  </g>
</svg>
