<svg xmlns="http://www.w3.org/2000/svg" viewBox="0 0 16 16">
  <defs>
    <style>.canvas{fill: none; opacity: 0;}.light-defaultgrey-10{fill: #212121; opacity: 0.1;}.light-defaultgrey{fill: #212121; opacity: 1;}.light-yellow-10{fill: #996f00; opacity: 0.1;}.light-yellow{fill: #996f00; opacity: 1;}.light-blue-10{fill: #005dba; opacity: 0.1;}.light-blue{fill: #005dba; opacity: 1;}.cls-1{opacity:0.75;}</style>
  </defs>
  <title>IconLightEditQuery</title>
  <g id="canvas" class="canvas">
    <path class="canvas" d="M16,16H0V0H16Z" />
  </g>
  <g id="level-1">
    <g class="cls-1">
      <path class="light-defaultgrey-10" d="M6.772,12.5H.5v-8h2v-3h9V7.252l-2,2V5.5h-7v4H9.252l-1.99,1.99Z" />
      <path class="light-defaultgrey" d="M6.529,13H.5L0,12.5v-8L.5,4H2V1.5L2.5,1h9l.5.5V6.752l-1,1V3H3V4H9.5l.5.5V8.752l-1,1V6H1v6H7.015Z" />
    </g>
    <path class="light-yellow-10" d="M9.5,5.5v4h-7v-4Z" />
    <path class="light-yellow" d="M10,8.752V5.5L9.5,5h-7L2,5.5v4l.5.5H8.752ZM3,6H9V9H3Z" />
    <path class="light-yellow" d="M8,7V8H4V7Z" />
    <path class="light-blue-10" d="M15.192,8.681,9.635,14.238,8.153,12.72l5.539-5.539a1.059,1.059,0,0,1,1.5,0A1.062,1.062,0,0,1,15.192,8.681Z" />
    <path class="light-blue" d="M15.543,6.83a1.56,1.56,0,0,0-2.2,0l-5.25,5.25L6.511,15.326,7.186,16l2.995-1.629,5.365-5.336A1.562,1.562,0,0,0,15.543,6.83Zm-.7,1.5-5.2,5.2-.783-.8,5.19-5.189a.56.56,0,0,1,.792.793Z" />
  </g>
</svg>
