<svg xmlns="http://www.w3.org/2000/svg" viewBox="0 0 16 16">
  <defs>
    <style>.canvas{fill: none; opacity: 0;}.light-shadow{fill: #000000; opacity: 0.1;}.light-blue-10{fill: #005dba; opacity: 0.1;}.light-blue{fill: #005dba; opacity: 1;}.light-lightblue-10{fill: #0077a0; opacity: 0.1;}.light-lightblue{fill: #0077a0; opacity: 1;}</style>
  </defs>
  <title>IconLightEditDatabase</title>
  <g id="canvas" class="canvas">
    <path class="canvas" d="M16,16H0V0H16Z" />
  </g>
  <g id="level-1">
    <path class="light-shadow" d="M15.543,6.83a1.562,1.562,0,0,0-2.2,0l-5.25,5.25L6.511,15.326,7.186,16l2.995-1.629,5.365-5.336A1.562,1.562,0,0,0,15.543,6.83Zm-.7,1.5-5.2,5.2-.783-.8,5.19-5.189a.56.56,0,0,1,.792.793Z" />
    <path class="light-blue-10" d="M15.192,8.681,9.635,14.238,8.153,12.72l5.539-5.539a1.059,1.059,0,0,1,1.5,0A1.062,1.062,0,0,1,15.192,8.681Z" />
    <path class="light-blue" d="M15.543,6.83a1.56,1.56,0,0,0-2.2,0l-5.25,5.25L6.511,15.326,7.186,16l2.995-1.629,5.365-5.336A1.562,1.562,0,0,0,15.543,6.83Zm-.7,1.5-5.2,5.2-.783-.8,5.19-5.189a.56.56,0,0,1,.792.793Z" />
    <path class="light-lightblue-10" d="M6.761,12.522l.5-1.033L10.5,8.252V3c0-.829-1.791-1.5-4-1.5s-4,.671-4,1.5v8c0,.828,1.787,1.5,3.994,1.5Z" />
    <path class="light-lightblue" d="M6.533,12.991l.491-1.011c-.171.009-.339.02-.524.02C4.227,12,3,11.29,3,11V4.261a7.863,7.863,0,0,0,3.5.709A7.863,7.863,0,0,0,10,4.261V8.752l1-1V2.97c0-2.627-9-2.627-9,0V11c0,1.265,2.1,1.942,4.255,1.991ZM6.5,1.97c2.273,0,3.5.71,3.5,1s-1.227,1-3.5,1S3,3.26,3,2.97,4.227,1.97,6.5,1.97Z" />
  </g>
</svg>
