<svg xmlns="http://www.w3.org/2000/svg" viewBox="0 0 16 16">
  <defs>
    <style>.canvas{fill: none; opacity: 0;}.light-defaultgrey-10{fill: #212121; opacity: 0.1;}.light-defaultgrey{fill: #212121; opacity: 1;}.light-blue-10{fill: #005dba; opacity: 0.1;}.light-blue{fill: #005dba; opacity: 1;}</style>
  </defs>
  <title>IconLightEditTag</title>
  <g id="canvas" class="canvas">
    <path class="canvas" d="M16,16H0V0H16Z" />
  </g>
  <g id="level-1">
    <path class="light-defaultgrey-10" d="M7.258,10.5H.5v-8h13l-.042,3.067a2.518,2.518,0,0,0-.826.554L8.258,10.5Z" />
    <path class="light-defaultgrey" d="M7.753,11H.5L0,10.5v-8L.5,2h13l.5.5V5.416a2.511,2.511,0,0,0-1,.4V3H1v7H8.753Z" />
    <path class="light-defaultgrey" d="M4.4,9.1l-2.25-2.25V6.146L4.4,3.9,5.1,4.6l-1.9,1.9L5.1,8.4Z" />
    <path class="light-defaultgrey" d="M9.146,8.4l1.9-1.9-1.9-1.9L9.854,3.9l2.25,2.25v.5L9.751,9Z" />
    <path class="light-blue-10" d="M15.192,8.681,9.635,14.238,8.153,12.72l5.539-5.539a1.059,1.059,0,0,1,1.5,0A1.062,1.062,0,0,1,15.192,8.681Z" />
    <path class="light-blue" d="M15.543,6.83a1.56,1.56,0,0,0-2.2,0l-5.25,5.25L6.511,15.326,7.186,16l2.995-1.629,5.365-5.336A1.562,1.562,0,0,0,15.543,6.83Zm-.7,1.5-5.2,5.2-.783-.8,5.19-5.189a.56.56,0,0,1,.792.793Z" />
  </g>
</svg>
