<svg xmlns="http://www.w3.org/2000/svg" viewBox="0 0 16 16">
  <defs>
    <style>.canvas{fill: none; opacity: 0;}.light-defaultgrey-10{fill: #212121; opacity: 0.1;}.light-defaultgrey{fill: #212121; opacity: 1;}.light-blue-10{fill: #005dba; opacity: 0.1;}.light-blue{fill: #005dba; opacity: 1;}.cls-1{opacity:0.75;}</style>
  </defs>
  <title>IconLightEditWindow</title>
  <g id="canvas" class="canvas">
    <path class="canvas" d="M16,16H0V0H16Z" />
  </g>
  <g id="level-1">
    <g class="cls-1">
      <path class="light-defaultgrey-10" d="M.5,13.5V6H12.779c-.048.042-.1.075-.147.121L7.263,11.49,6.286,13.5Z" />
      <path class="light-defaultgrey" d="M6.043,14H.5L0,13.5v-8L.5,6H1v7H6.529Z" />
    </g>
    <path class="light-defaultgrey-10" d="M12.379,5.5H.5v-3h13V4.681a2.543,2.543,0,0,0-.869.567Z" />
    <path class="light-defaultgrey-10" d="M13,3V5H1V3Z" />
    <path class="light-defaultgrey" d="M14,5.416V2.5L13.5,2H.5L0,2.5v3L.5,6H12.779A2.514,2.514,0,0,1,14,5.416ZM1,3H13V5H1Z" />
    <path class="light-blue-10" d="M15.192,8.681,9.635,14.238,8.153,12.72l5.539-5.539a1.059,1.059,0,0,1,1.5,0A1.062,1.062,0,0,1,15.192,8.681Z" />
    <path class="light-blue" d="M15.543,6.83a1.56,1.56,0,0,0-2.2,0l-5.25,5.25L6.511,15.326,7.186,16l2.995-1.629,5.365-5.336A1.562,1.562,0,0,0,15.543,6.83Zm-.7,1.5-5.2,5.2-.783-.8,5.19-5.189a.56.56,0,0,1,.792.793Z" />
  </g>
</svg>
