<svg xmlns="http://www.w3.org/2000/svg" viewBox="0 0 16 16">
  <defs>
    <style>.canvas{fill: none; opacity: 0;}.light-defaultgrey-10{fill: #212121; opacity: 0.1;}.light-defaultgrey{fill: #212121; opacity: 1;}.light-blue{fill: #005dba; opacity: 1;}.light-blue-10{fill: #005dba; opacity: 0.1;}</style>
  </defs>
  <title>EditTooltip</title>
  <g id="canvas" class="canvas">
    <path class="canvas" d="M16,16H0V0H16Z" />
  </g>
  <g id="level-1">
    <path class="light-defaultgrey-10" d="M.5,2.5v6H2.45L2.87,8,5.1,5.31a.51.51,0,0,1,.9.33V8.5h4.25L11.5,7.25V2.5Z" />
    <path class="light-defaultgrey" d="M11.5,2H.5L0,2.5v6L.5,9H2.03l.84-1H1V3H11V7.75l1-1V2.5ZM6,8V9H9.75l1-1Z" />
    <path class="light-defaultgrey" d="M9,6H3V5H9Z" />
    <path class="light-blue" d="M1,11.8,5,7v6L3.694,11.955,2.873,14.21l-.94-.342L2.722,11.7Z" />
    <path class="light-blue-10" d="M15.192,8.808,9.635,14.365,8.153,12.847l5.539-5.539a1.059,1.059,0,0,1,1.5,0A1.062,1.062,0,0,1,15.192,8.808Z" />
    <path class="light-blue" d="M15.543,6.83a1.56,1.56,0,0,0-2.2,0l-5.25,5.25L6.511,15.326,7.186,16l2.995-1.629,5.365-5.336A1.562,1.562,0,0,0,15.543,6.83Zm-.7,1.5-5.2,5.2-.783-.8,5.19-5.189a.56.56,0,0,1,.792.793Z" />
  </g>
</svg>
