<svg xmlns="http://www.w3.org/2000/svg" viewBox="0 0 16 16">
  <defs>
    <style>.canvas{fill: none; opacity: 0;}.light-defaultgrey-10{fill: #212121; opacity: 0.1;}.light-defaultgrey{fill: #212121; opacity: 1;}.light-yellow{fill: #996f00; opacity: 1;}.light-blue-10{fill: #005dba; opacity: 0.1;}.light-blue{fill: #005dba; opacity: 1;}.cls-1{opacity:0.75;}</style>
  </defs>
  <title>IconLightEditTaskList</title>
  <g id="canvas" class="canvas">
    <path class="canvas" d="M16,16H0V0H16Z" />
  </g>
  <g id="level-1">
    <g class="cls-1">
      <path class="light-defaultgrey-10" d="M5.8,14.5H1.5V3.5h10V7.253L7.263,11.49Z" />
      <path class="light-defaultgrey" d="M5.557,15H1.5L1,14.5V3.5L1.5,3h10l.5.5V6.753l-1,1V4H2V14H6.043Z" />
    </g>
    <path class="light-yellow" d="M10,7H3V6h7ZM7.753,11H3V10H8.753Zm2-2H3V8h7v.753Z" />
    <path class="light-defaultgrey" d="M8.5,2a2,2,0,0,0-4,0H3V4h7V2Zm-2,1a1,1,0,1,1,1-1A1,1,0,0,1,6.5,3Z" />
    <path class="light-blue-10" d="M15.192,8.681,9.635,14.238,8.153,12.72l5.539-5.539a1.059,1.059,0,0,1,1.5,0A1.062,1.062,0,0,1,15.192,8.681Z" />
    <path class="light-blue" d="M15.543,6.83a1.56,1.56,0,0,0-2.2,0l-5.25,5.25L6.511,15.326,7.186,16l2.995-1.629,5.365-5.336A1.562,1.562,0,0,0,15.543,6.83Zm-.7,1.5-5.2,5.2-.783-.8,5.19-5.189a.56.56,0,0,1,.792.793Z" />
  </g>
</svg>
