<svg xmlns="http://www.w3.org/2000/svg" viewBox="0 0 16 16">
  <defs>
    <style>.canvas{fill: none; opacity: 0;}.light-defaultgrey-10{fill: #212121; opacity: 0.1;}.light-defaultgrey{fill: #212121; opacity: 1;}.light-blue-10{fill: #005dba; opacity: 0.1;}.light-blue{fill: #005dba; opacity: 1;}</style>
  </defs>
  <title>IconLightEditKey</title>
  <g id="canvas">
    <path class="canvas" d="M16,16H0V0H16Z" />
  </g>
  <g id="level-1">
    <path class="light-defaultgrey-10" d="M5.687,6.5l-1,1-1-1-1,1-2-2,1-1H7.87a2.993,2.993,0,0,1,5.816,1,2.519,2.519,0,0,0-1.054.624L10.3,8.454A2.983,2.983,0,0,1,7.87,6.5H7.687l-1,1Z" />
    <path class="light-defaultgrey" d="M11.437,6.25a.75.75,0,1,1,.75-.75A.75.75,0,0,1,11.437,6.25Zm-5.1,1.6H7.04l.623-.623A3.5,3.5,0,0,0,9.877,8.875l.883-.882c-.025,0-.048.007-.073.007A2.5,2.5,0,0,1,8.3,6.218H7.262l-.575.575L6.04,6.146H5.333l-.646.647L4.04,6.146H3.333l-.646.647L1.394,5.5l.5-.5H8.237a2.5,2.5,0,0,1,4.95.5,1.409,1.409,0,0,1-.029.227A2.517,2.517,0,0,1,14.176,5.4,3.486,3.486,0,0,0,7.538,4H1.687l-.354.146-1,1v.708l2,2H3.04l.647-.647.646.647H5.04l.647-.647Z" />
    <path class="light-blue-10" d="M15.192,8.681,9.635,14.238,8.153,12.72l5.539-5.539a1.059,1.059,0,0,1,1.5,0A1.062,1.062,0,0,1,15.192,8.681Z" />
    <path class="light-blue" d="M15.543,6.83a1.56,1.56,0,0,0-2.2,0l-5.25,5.25L6.511,15.326,7.186,16l2.995-1.629,5.365-5.336A1.562,1.562,0,0,0,15.543,6.83Zm-.7,1.5-5.2,5.2-.783-.8,5.19-5.189a.56.56,0,0,1,.792.793Z" />
  </g>
</svg>
