<svg xmlns="http://www.w3.org/2000/svg" viewBox="0 0 16 16">
  <defs>
    <style>.canvas{fill: none; opacity: 0;}.light-defaultgrey{fill: #212121; opacity: 1;}.light-red{fill: #c50b17; opacity: 1;}.white{fill: #ffffff; opacity: 1;}</style>
  </defs>
  <title>IconLightEffectDisabled</title>
  <g id="canvas">
    <path class="canvas" d="M16,16H0V0H16Z" />
  </g>
  <g id="level-1">
    <path class="light-defaultgrey" d="M7.994,6.927a10.7,10.7,0,0,1-1.11,1.512,1.14,1.14,0,0,1-.859.424.534.534,0,0,1-.118-1.055c.446-.1.483.019.893.129A6.536,6.536,0,0,0,7.883,6.514c-.039-.2-.058-.252-.173-.726-.063-.259-.153-.528-.257-.831a1.669,1.669,0,0,0-.145-.318c-.256-.426-.276-.33-2.511-.313L3.91,8.472c-.293,1.344-1.511,2.749-2.852,2.5A.71.71,0,0,1,.584,10.7a.579.579,0,0,1,.05-.67.522.522,0,0,1,.625-.1,1.016,1.016,0,0,1,.363.368c.172.278.106.166.178.29a.58.58,0,0,0,.324-.122,2.259,2.259,0,0,0,.619-1.072c.171-.589.061-.132,1.122-5.067H2.883l.111-.452H3.96A4.432,4.432,0,0,1,4.328,2.63a2.48,2.48,0,0,1,2.506-1.6.75.75,0,0,1,.48.274.455.455,0,0,1,.078.29.61.61,0,0,1-.123.39.462.462,0,0,1-.379.162c-.449,0-.552-.334-.793-.731a.587.587,0,0,0-.368.157,3.835,3.835,0,0,0-.765,1.919c-.037.164-.061.292-.072.385,1.351-.024,1.647-.066,2.427-.111a.856.856,0,0,1,.871.619,9.507,9.507,0,0,1,.357,1.334v.016l0,.017C9.025,5,9.615,3.762,10.533,3.74c.668-.016.778,1.063-.139,1.083a2.042,2.042,0,0,1-.642-.14,6.333,6.333,0,0,0-1.1,1.457c.139.572.148.693.34,1.334a1.522,1.522,0,0,0,.188.4,4.953,4.953,0,0,0-.7.577.934.934,0,0,1-.092-.159A11.5,11.5,0,0,1,7.994,6.927Z" />
    <path class="light-red" d="M12,8a4,4,0,1,0,4,4A4,4,0,0,0,12,8Z" />
    <path class="white" d="M14,12.5H10v-1h4Z" />
  </g>
</svg>
