<svg xmlns="http://www.w3.org/2000/svg" viewBox="0 0 16 16">
  <defs>
    <style>.canvas{fill: none; opacity: 0;}.light-defaultgrey{fill: #212121; opacity: 1;}.light-defaultgrey-10{fill: #212121; opacity: 0.1;}.light-blue-10{fill: #005dba; opacity: 0.1;}.light-blue{fill: #005dba; opacity: 1;}</style>
  </defs>
  <title>IconLightEmailAddressEditor</title>
  <g id="canvas" class="canvas">
    <path class="canvas" d="M16,16H0V0H16Z" />
  </g>
  <g id="level-1">
    <path class="light-defaultgrey" d="M10.752,8l1-1H7.163a3.479,3.479,0,0,1,.359,1Z" />
    <path class="light-defaultgrey-10" d="M7.433,7.677c-.018-.058-.028-.12-.049-.177h3.868L12.5,6.252V1.5h-9V5c-.017,0-.033,0-.051,0a4.333,4.333,0,0,1,2.93,1A3.415,3.415,0,0,1,7.433,7.677Z" />
    <path class="light-defaultgrey" d="M8.277,4.916,12,2.434V6.752l.631-.631a2.66,2.66,0,0,1,.369-.3V1.5L12.5,1h-9L3,1.5V5.039C3.15,5.026,3.293,5,3.449,5A5.425,5.425,0,0,1,4,5.041V2.434L7.723,4.916ZM10.849,2,8,3.9,5.151,2Z" />
    <path class="light-defaultgrey" d="M3.855,10.223H3.832a1,1,0,0,1-.992.746,1.083,1.083,0,0,1-.869-.391A1.621,1.621,0,0,1,1.641,9.5,2.225,2.225,0,0,1,2.1,8.041,1.377,1.377,0,0,1,3.2,7.48a.677.677,0,0,1,.731.458h.015l.039-.387h.879q-.176,1.664-.175,2.176,0,.546.3.546.313,0,.516-.414a2.471,2.471,0,0,0,.2-1.082,2.032,2.032,0,0,0-.582-1.5A2.194,2.194,0,0,0,3.5,6.7a2.451,2.451,0,0,0-1.857.78A2.653,2.653,0,0,0,.9,9.375a2.256,2.256,0,0,0,.655,1.711,2.51,2.51,0,0,0,1.806.625,3.808,3.808,0,0,0,1.61-.336v.746a4.421,4.421,0,0,1-1.719.285A3.342,3.342,0,0,1,.9,11.58,2.86,2.86,0,0,1,0,9.359a3.253,3.253,0,0,1,.965-2.39A3.35,3.35,0,0,1,3.449,6a3.352,3.352,0,0,1,2.276.752,2.494,2.494,0,0,1,.869,1.982,2.389,2.389,0,0,1-.531,1.623,1.676,1.676,0,0,1-1.317.612.94.94,0,0,1-.629-.207A.746.746,0,0,1,3.855,10.223ZM3.336,8.16a.65.65,0,0,0-.572.4,1.888,1.888,0,0,0-.221.927.987.987,0,0,0,.15.584.46.46,0,0,0,.389.209.641.641,0,0,0,.578-.394,2.246,2.246,0,0,0,.211-1.055.757.757,0,0,0-.146-.492A.476.476,0,0,0,3.336,8.16Z" />
    <path class="light-blue-10" d="M15.192,8.681,9.635,14.238,8.153,12.72l5.539-5.539a1.059,1.059,0,0,1,1.5,0A1.062,1.062,0,0,1,15.192,8.681Z" />
    <path class="light-blue" d="M15.543,6.83a1.56,1.56,0,0,0-2.2,0l-5.25,5.25L6.511,15.326,7.186,16l2.995-1.629,5.365-5.336A1.562,1.562,0,0,0,15.543,6.83Zm-.7,1.5-5.2,5.2-.783-.8,5.19-5.189a.56.56,0,0,1,.792.793Z" />
  </g>
</svg>
