<svg xmlns="http://www.w3.org/2000/svg" viewBox="0 0 16 16">
  <defs>
    <style>.canvas{fill: none; opacity: 0;}.light-defaultgrey{fill: #212121; opacity: 1;}.light-defaultgrey-10{fill: #212121; opacity: 0.1;}</style>
  </defs>
  <title>IconLightEmbeddedFont</title>
  <g id="canvas">
    <path class="canvas" d="M16,16H0V0H16Z" />
  </g>
  <g id="level-1">
    <path class="light-defaultgrey" d="M9.63,2.5H8.355L5.836,9.066A2.951,2.951,0,0,1,6,10v.086l.541.541.2-.571H11.2L12.311,13h1.362ZM7.154,8.95,8.787,4.475a3.9,3.9,0,0,0,.169-.7h.029a4.407,4.407,0,0,0,.161.7L10.8,8.95Z" />
    <path class="light-defaultgrey-10" d="M5.5,11.5v4H.5v-4Z" />
    <path class="light-defaultgrey" d="M5.5,11H5V10a2,2,0,0,0-4,0v1H.5l-.5.5v4l.5.5h5l.5-.5v-4ZM2,10a1,1,0,0,1,2,0v1H2Zm3,5H1V12H5Z" />
  </g>
</svg>
