<svg xmlns="http://www.w3.org/2000/svg" viewBox="0 0 16 16">
  <defs>
    <style>.canvas{fill: none; opacity: 0;}.light-defaultgrey-10{fill: #212121; opacity: 0.1;}.light-defaultgrey{fill: #212121; opacity: 1;}.light-blue{fill: #005dba; opacity: 1;}</style>
  </defs>
  <title>IconLightEndCall</title>
  <g id="canvas" class="canvas">
    <path class="canvas" d="M16,0V16H0V0Z" />
  </g>
  <g id="level-1">
    <path class="light-defaultgrey-10" d="M13.5,11.809V13.5h-3v-2h-5v2h-3V11.809A2.312,2.312,0,0,1,4.809,9.5h6.382A2.312,2.312,0,0,1,13.5,11.809Z" />
    <path class="light-defaultgrey" d="M11.191,9H4.809A2.812,2.812,0,0,0,2,11.809V13.5l.5.5h3l.5-.5V12h4v1.5l.5.5h3l.5-.5V11.809A2.812,2.812,0,0,0,11.191,9ZM13,13H11V12a1,1,0,0,0-1-1H6a1,1,0,0,0-1,1v1H3V11.811A1.807,1.807,0,0,1,4.805,10h6.386A1.807,1.807,0,0,1,13,11.807V13Z" />
    <path class="light-blue" d="M8.855,7.854H8.148l-2.5-2.5.707-.708L8,6.291V1H9V6.3l1.648-1.654.707.708Z" />
  </g>
</svg>
