<svg xmlns="http://www.w3.org/2000/svg" viewBox="0 0 16 16">
  <defs>
    <style>.canvas{fill: none; opacity: 0;}.light-lightblue-10{fill: #0077a0; opacity: 0.1;}.light-lightblue{fill: #0077a0; opacity: 1;}.light-yellow{fill: #996f00; opacity: 1;}</style>
  </defs>
  <title>EntityDatabase</title>
  <g id="canvas">
    <path class="canvas" d="M16,16H0V0H16Z" />
  </g>
  <g id="level-1">
    <path class="light-lightblue-10" d="M14.5,2.97V11c0,.828-1.791,1.5-4,1.5a7.788,7.788,0,0,1-3.053-.542l1.18-1.237V9.539L7.416,8.328H6.5V2.97c0-.828,1.791-1.5,4-1.5S14.5,2.142,14.5,2.97Z" />
    <path class="light-lightblue" d="M6,2.97V8.562l.234-.234H7V4.261a7.863,7.863,0,0,0,3.5.709A7.863,7.863,0,0,0,14,4.261V11c0,.29-1.227,1-3.5,1a7.544,7.544,0,0,1-2.686-.427l-.726.761A8.037,8.037,0,0,0,10.5,13c2.236,0,4.5-.687,4.5-2V2.97C15,.343,6,.343,6,2.97Zm4.5,1c-2.273,0-3.5-.71-3.5-1s1.227-1,3.5-1,3.5.71,3.5,1S12.773,3.97,10.5,3.97Z" />
    <path class="light-yellow" d="M5.023,11.307V11H4v3H5.976l.672-.672H7l.625.625v.354L6,15.932H5.648l-.625-.625V15H3.5L3,14.5V11H2.229l-.615.614H1.261l-1-1v-.353l2.25-2.25h.353l1,1v.353L3.229,10H5.976l.672-.672H7l.625.625v.354L6,11.932H5.648Z" />
  </g>
</svg>
