<svg xmlns="http://www.w3.org/2000/svg" viewBox="0 0 16 16">
  <defs>
    <style>.canvas{fill: none; opacity: 0;}.light-yellow-10{fill: #996f00; opacity: 0.1;}.light-yellow{fill: #996f00; opacity: 1;}.cls-1{opacity:0.75;}</style>
  </defs>
  <title>EntitySet</title>
  <g id="canvas">
    <path class="canvas" d="M16,16H0V0H16Z" />
  </g>
  <g id="level-1">
    <g class="cls-1">
      <path class="light-yellow-10" d="M13.061,6.939l-1.5-1.5L13.5,3.5,15,5Zm-7.5-4.5,2,2L9.5,2.5l-2-2Zm7.793,6.207v.122L11.621,10.5l1.44,1.439L15,10,13.5,8.5Z" />
      <path class="light-yellow" d="M13.854,3.146h-.708L12.293,4H8.707L9.854,2.854V2.146l-2-2H7.146l-2,2h.122l.646.647L7.5,1.207,8.793,2.5,7.207,4.086l.647.646V5H9v.879l.732-.733H10V5h1.293l-.147.146h.122l2.086,2.086v.122l2-2V4.646ZM13,6.293,12.207,5.5,13.5,4.207,14.293,5Zm.354,1.853v.622L11.621,10.5l1.733,1.732v.122l2-2V9.646l-1.5-1.5ZM13,11.293l-.793-.793L13.5,9.207l.793.793Z" />
    </g>
    <path class="light-yellow-10" d="M4.5,3.5l2,2-4,4-2-2ZM12,8,10.5,6.5l-2,2L10,10ZM8.5,13.5,10,15l2-2-1.5-1.5Z" />
    <path class="light-yellow" d="M8.146,8.854l1.5,1.5h.708l2-2V7.646l-1.5-1.5h-.708L9.293,7H5.707L6.854,5.854V5.146l-2-2H4.146l-4,4v.708l2,2h.708L4.707,8H6v4.5l.5.5H8.293l-.147.146v.708l1.5,1.5h.708l2-2v-.708l-1.5-1.5h-.708L9.293,12H7V8H8.293l-.147.146ZM2.5,8.793,1.207,7.5,4.5,4.207,5.793,5.5Zm8,3.414.793.793L10,14.293,9.207,13.5Zm0-5L11.293,8,10,9.293,9.207,8.5Z" />
  </g>
</svg>
