<svg xmlns="http://www.w3.org/2000/svg" viewBox="0 0 16 16">
  <defs>
    <style>.canvas{fill: none; opacity: 0;}.light-defaultgrey-10{fill: #212121; opacity: 0.1;}.light-defaultgrey{fill: #212121; opacity: 1;}.light-blue-10{fill: #005dba; opacity: 0.1;}.light-blue{fill: #005dba; opacity: 1;}.white{fill: #ffffff; opacity: 1;}.cls-1{opacity:0.75;}</style>
  </defs>
  <title>IconLightEnumerationItemSnippet</title>
  <g id="canvas" class="canvas">
    <path class="canvas" d="M16,16H0V0H16Z" />
  </g>
  <g id="level-1">
    <g class="cls-1">
      <path class="light-defaultgrey-10" d="M14.5,11H12V5.5L11.5,5h-5V2.5h8Z" />
      <path class="light-defaultgrey" d="M14,12h1v1H14Zm.5-10h-8L6,2.5V5H7V3h7v8h1V2.5ZM12,13h1V12H12Z" />
    </g>
    <g class="cls-1">
      <path class="light-blue-10" d="M11.5,5.5v6H8V9H4.5V5.5Z" />
      <path class="light-blue" d="M10,8H6V7h4Zm0,1H7v1h3Zm1.5-4h-7L4,5.5V9H5V6h6v5H8v1h3.5l.5-.5v-6Z" />
    </g>
    <path class="light-blue" d="M7.5,9H.5L0,9.5v6l.5.5h7l.5-.5v-6Z" />
    <path class="white" d="M6,13H2V12H6Z" />
  </g>
</svg>
