<svg xmlns="http://www.w3.org/2000/svg" viewBox="0 0 16 16">
  <defs>
    <style>.canvas{fill: none; opacity: 0;}.light-darkblue-10{fill: #313c9e; opacity: 0.1;}.light-blue{fill: #005dba; opacity: 1;}.white{fill: #ffffff; opacity: 1;}.light-defaultgrey-10{fill: #212121; opacity: 0.1;}.light-defaultgrey{fill: #212121; opacity: 1;}.cls-1{opacity:0.75;}</style>
  </defs>
  <title>IconLightEnumerationItemSealed</title>
  <g id="canvas" class="canvas">
    <path class="canvas" d="M16,16H0V0H16Z" />
  </g>
  <g id="level-1">
    <g class="cls-1">
      <path class="light-darkblue-10" d="M9,7H6.5V2.5h8V8.49a4.324,4.324,0,0,0-4.018.01H9Z" />
      <path class="light-blue" d="M12.5,5h-4V4h4Zm-4,2h4V6h-4ZM10,8.762A4.474,4.474,0,0,1,12.5,8H10ZM14.5,2h-8L6,2.5V7H7V3h7V8H12.5a4.448,4.448,0,0,1,2.33.67L15,8.5v-6Z" />
    </g>
    <path class="light-blue" d="M8.276,14H1.5L1,13.5v-6L1.5,7h8l.5.5V8.762A4.5,4.5,0,0,0,8,12.5,4.445,4.445,0,0,0,8.276,14Z" />
    <path class="white" d="M8,11H3V10H8Z" />
    <path class="light-defaultgrey-10" d="M12.5,9.5a3,3,0,1,1-3,3A3,3,0,0,1,12.5,9.5Z" />
    <path class="light-defaultgrey" d="M9,12.5A3.5,3.5,0,1,0,12.5,9,3.5,3.5,0,0,0,9,12.5Zm6,0a2.486,2.486,0,0,1-.416,1.377l-3.461-3.461A2.5,2.5,0,0,1,15,12.5Zm-5,0a2.486,2.486,0,0,1,.416-1.377l3.461,3.461A2.5,2.5,0,0,1,10,12.5Z" />
  </g>
</svg>
