<svg xmlns="http://www.w3.org/2000/svg" viewBox="0 0 16 16">
  <defs>
    <style>.canvas{fill: none; opacity: 0;}.light-red-10{fill: #c50b17; opacity: 0.1;}.light-red{fill: #c50b17; opacity: 1;}</style>
  </defs>
  <title>ErrorSquiggleCriticalActive</title>
  <g id="canvas" class="canvas">
    <path class="canvas" d="M16,16H0V0H16Z" />
  </g>
  <g id="level-1">
    <path class="light-red-10" d="M13.5,7.5a5.951,5.951,0,0,1-2.47,4.84,2.181,2.181,0,0,0-.56-.22A2.51,2.51,0,0,0,9.66,12a2.885,2.885,0,0,0-2.1.9c-.02.02-.05.04-.07.06l-.06-.06a2.885,2.885,0,0,0-2.1-.9,2.51,2.51,0,0,0-.81.12,2.181,2.181,0,0,0-.56.22A6,6,0,1,1,13.5,7.5Z" />
    <path class="light-red" d="M7,4V9H8V4Zm1.25,6.5a.75.75,0,1,1-.75-.75A.75.75,0,0,1,8.25,10.5Z" />
    <path class="light-red" d="M14,7.5a6.447,6.447,0,0,1-2.53,5.13,4.811,4.811,0,0,0-.44-.29,2.181,2.181,0,0,0-.56-.22,5.495,5.495,0,1,0-5.95,0,2.181,2.181,0,0,0-.56.22,4,4,0,0,0-.43.29A6.447,6.447,0,0,1,1,7.5a6.5,6.5,0,0,1,13,0Z" />
    <path class="light-red" d="M11.83,15a1.94,1.94,0,0,1-1.424-.633.939.939,0,0,0-1.489,0,1.915,1.915,0,0,1-2.845,0,.937.937,0,0,0-1.487,0,1.913,1.913,0,0,1-2.843,0A.968.968,0,0,0,1,14V13a1.938,1.938,0,0,1,1.421.633A.968.968,0,0,0,3.163,14a.97.97,0,0,0,.743-.367,1.914,1.914,0,0,1,2.844,0,.938.938,0,0,0,1.488,0,1.917,1.917,0,0,1,2.846,0,.941.941,0,0,0,1.492,0A1.94,1.94,0,0,1,14,13v1a.974.974,0,0,0-.746.367A1.94,1.94,0,0,1,11.83,15Z" />
  </g>
</svg>
