<svg xmlns="http://www.w3.org/2000/svg" viewBox="0 0 16 16">
  <defs>
    <style>.canvas{fill: none; opacity: 0;}.light-yellow-10{fill: #996f00; opacity: 0.1;}.light-yellow{fill: #996f00; opacity: 1;}.light-red{fill: #c50b17; opacity: 1;}.white{fill: #ffffff; opacity: 1;}</style>
  </defs>
  <title>EventLogFailureAudit</title>
  <g id="canvas">
    <path class="canvas" d="M16,16H0V0H16Z" />
  </g>
  <g id="level-1">
    <path class="light-yellow-10" d="M10.855,7.145,11.5,6.5H7l4.387-5H6l-4,7H5.5L2,14.5H3.5l3.645-3.645A5,5,0,0,1,10.855,7.145Z" />
    <path class="light-yellow" d="M7.58,9.713,3.293,14H2.871L5.932,8.752,5.5,8H2.862L6.29,2h3.993L6.624,6.17,7,7h3.293l-.58.58a4.934,4.934,0,0,1,1.962-.547l.179-.179L11.5,6H8.1l3.659-4.17L11.387,1H6l-.434.252-4,7L2,9H4.63L1.568,14.248,2,15H3.5l.354-.146,3.179-3.179A4.934,4.934,0,0,1,7.58,9.713Z" />
    <path class="light-red" d="M12,8a4,4,0,1,0,4,4A4,4,0,0,0,12,8Z" />
    <path class="white" d="M12.707,12l1.147,1.146-.708.708L12,12.707l-1.146,1.147-.708-.708L11.293,12l-1.147-1.146.708-.708L12,11.293l1.146-1.147.708.708Z" />
  </g>
</svg>
