<svg xmlns="http://www.w3.org/2000/svg" viewBox="0 0 16 16">
  <defs>
    <style>.canvas{fill: none; opacity: 0;}.light-defaultgrey{fill: #212121; opacity: 1;}.light-yellow-10{fill: #996f00; opacity: 0.1;}.light-yellow{fill: #996f00; opacity: 1;}</style>
  </defs>
  <title>EventTrigger</title>
  <g id="canvas">
    <path class="canvas" d="M16,0V16H0V0Z" />
  </g>
  <g id="level-1">
    <path class="light-defaultgrey" d="M16,13V12H14.949a2.473,2.473,0,0,0-.365-.876l.745-.745-.707-.707-.745.745A2.469,2.469,0,0,0,13,10.051V9H12v1.051a2.469,2.469,0,0,0-.877.366l-.745-.745-.707.707.745.745a2.473,2.473,0,0,0-.365.876H9v1h1.051a2.473,2.473,0,0,0,.365.876l-.745.745.707.707.745-.745a2.469,2.469,0,0,0,.877.366V16h1V14.949a2.469,2.469,0,0,0,.877-.366l.745.745.707-.707-.745-.745A2.473,2.473,0,0,0,14.949,13Zm-3.5,1A1.5,1.5,0,1,1,14,12.5,1.5,1.5,0,0,1,12.5,14Z" />
    <path class="light-yellow-10" d="M11.5,6.5l-8,8H2l3.5-6H2l4-7h5.387L7,6.5Z" />
    <path class="light-yellow" d="M11.5,6H8.1l3.659-4.17L11.387,1H6l-.434.252-4,7L2,9H4.63L1.568,14.248,2,15H3.5l.354-.146,8-8ZM3.293,14H2.871L5.932,8.752,5.5,8H2.862L6.29,2h3.993L6.624,6.17,7,7h3.293Z" />
  </g>
</svg>
