<svg xmlns="http://www.w3.org/2000/svg" viewBox="0 0 16 16">
  <defs>
    <style>.canvas{fill: none; opacity: 0;}.light-yellow-10{fill: #996f00; opacity: 0.1;}.light-yellow{fill: #996f00; opacity: 1;}.light-defaultgrey{fill: #212121; opacity: 1;}</style>
  </defs>
  <title>IconLightEventMissing</title>
  <g id="canvas" class="canvas">
    <path class="canvas" d="M16,16H0V0H16Z" />
  </g>
  <g id="level-1">
    <path class="light-yellow-10" d="M11.5,6.5l-8,8H2l3.5-6H2l4-7h5.387L7,6.5Z" />
    <path class="light-yellow" d="M11.5,6H8.1l3.659-4.17L11.387,1H6l-.434.252-4,7L2,9H4.63L1.568,14.248,2,15H3.5l.354-.146,8-8ZM3.293,14H2.871L5.932,8.752,5.5,8H2.862L6.29,2h3.993L6.624,6.17,7,7h3.293Z" />
    <path class="light-defaultgrey" d="M13.707,13l2.147,2.146-.708.708L13,13.707l-2.146,2.147-.708-.708L12.293,13l-2.147-2.146.708-.708L13,12.293l2.146-2.147.708.708Z" />
  </g>
</svg>
