<svg xmlns="http://www.w3.org/2000/svg" viewBox="0 0 16 16">
  <defs>
    <style>.canvas{fill: none; opacity: 0;}.light-defaultgrey-10{fill: #212121; opacity: 0.1;}.light-defaultgrey{fill: #212121; opacity: 1;}.light-yellow{fill: #996f00; opacity: 1;}.cls-1{opacity:0.75;}</style>
  </defs>
  <title>IconLightEventLog</title>
  <g id="canvas" class="canvas">
    <path class="canvas" d="M16,16H0V0H16Z" />
  </g>
  <g id="level-1">
    <path class="light-defaultgrey-10" d="M13.5,1.5v13H2.5V1.5Z" />
    <path class="light-defaultgrey" d="M13.5,1H2.5L2,1.5v13l.5.5h11l.5-.5V1.5ZM13,14H3V2H13Z" />
    <g class="cls-1">
      <path class="light-defaultgrey" d="M4,3V4H1V3ZM1,7H4V6H1Zm0,3H4V9H1Zm0,3H4V12H1Z" />
    </g>
    <path class="light-yellow" d="M11,8,7.5,12h-1L8,9H6L8,5h3L8.863,8Z" />
  </g>
</svg>
