<svg xmlns="http://www.w3.org/2000/svg" viewBox="0 0 16 16">
  <defs>
    <style>.canvas{fill: none; opacity: 0;}.light-defaultgrey-10{fill: #212121; opacity: 0.1;}.light-defaultgrey{fill: #212121; opacity: 1;}.cls-1{opacity:0.75;}</style>
  </defs>
  <title>IconLightExceptionProtected</title>
  <g id="canvas" class="canvas">
    <path class="canvas" d="M16,16H0V0H16Z" />
  </g>
  <g id="level-1">
    <g class="cls-1">
      <path class="light-defaultgrey-10" d="M7.494,12.5H1.5V2.5h10V7.459h-.533L9.922,9.573l-2.334.34-.659,2.036Z" />
      <path class="light-defaultgrey" d="M8.007,13H1.5L1,12.5V2.5L1.5,2h10l.5.5V7.459H11V3H2v9H6.981Z" />
    </g>
    <path class="light-defaultgrey-10" d="M13.844,13.07l.426,2.488-2.234-1.175L9.8,15.558l.427-2.488L8.42,11.308l2.5-.363,1.118-2.264,1.117,2.264,2.5.363Z" />
    <path class="light-defaultgrey" d="M16,11.666l-.276-.853-2.239-.326-1-2.028h-.9l-1,2.028-2.238.326-.277.853L9.69,13.244l-.382,2.229.725.527,2-1.053,2,1.053.726-.527-.383-2.229Zm-2.394,2.978-1.337-.7H11.8l-1.339.7.256-1.49-.145-.443L9.494,11.656l1.5-.217.376-.273.67-1.356.669,1.356.376.273,1.5.217L13.5,12.711l-.144.443Z" />
    <path class="light-defaultgrey" d="M7,8H6V5H7Zm-.5.75a.75.75,0,1,0,.75.75A.75.75,0,0,0,6.5,8.75Z" />
  </g>
</svg>
