<svg xmlns="http://www.w3.org/2000/svg" viewBox="0 0 16 16">
  <defs>
    <style>.canvas{fill: none; opacity: 0;}.light-defaultgrey-10{fill: #212121; opacity: 0.1;}.light-defaultgrey{fill: #212121; opacity: 1;}.cls-1{opacity:0.75;}</style>
  </defs>
  <title>IconLightExceptionShortcut</title>
  <g id="canvas" class="canvas">
    <path class="canvas" d="M16,16H0V0H16Z" />
  </g>
  <g id="level-1">
    <g class="cls-1">
      <path class="light-defaultgrey-10" d="M7,12.5H1.5V2.5h10V7H8.086L7,8.086Z" />
      <path class="light-defaultgrey" d="M7,13H1.5L1,12.5V2.5L1.5,2h10l.5.5V7H11V3H2v9H7Z" />
    </g>
    <path class="light-defaultgrey-10" d="M15.5,8.5v7h-7v-7Z" />
    <path class="light-defaultgrey" d="M15.5,8h-7L8,8.5v7l.5.5h7l.5-.5v-7ZM15,15H9V9h6Zm-1-4.5V14H13V11.707l-2.646,2.647-.708-.708L12.293,11H10V10h3.5Z" />
    <path class="light-defaultgrey" d="M7,8H6V5H7Zm-.5.75a.75.75,0,1,0,.75.75A.75.75,0,0,0,6.5,8.75Z" />
  </g>
</svg>
