<svg xmlns="http://www.w3.org/2000/svg" viewBox="0 0 16 16">
  <defs>
    <style>.canvas{fill: none; opacity: 0;}.light-defaultgrey-10{fill: #212121; opacity: 0.1;}.light-defaultgrey{fill: #212121; opacity: 1;}.cls-1{opacity:0.75;}</style>
  </defs>
  <title>IconLightExceptionSealed</title>
  <g id="canvas" class="canvas">
    <path class="canvas" d="M16,16H0V0H16Z" />
  </g>
  <g id="level-1">
    <g class="cls-1">
      <path class="light-defaultgrey-10" d="M8,12.5H1.5V2.5h10V8.121A4.5,4.5,0,0,0,8,12.5Z" />
      <path class="light-defaultgrey" d="M8.051,13H1.5L1,12.5V2.5L1.5,2h10l.5.5V8.051a4.485,4.485,0,0,0-1,.225V3H2v9H8.051A4.342,4.342,0,0,0,8,12.5,4.342,4.342,0,0,0,8.051,13Z" />
    </g>
    <path class="light-defaultgrey-10" d="M12.5,9.5a3,3,0,1,1-3,3A3,3,0,0,1,12.5,9.5Z" />
    <path class="light-defaultgrey" d="M9,12.5A3.5,3.5,0,1,0,12.5,9,3.5,3.5,0,0,0,9,12.5Zm6,0a2.486,2.486,0,0,1-.416,1.377l-3.461-3.461A2.5,2.5,0,0,1,15,12.5Zm-5,0a2.486,2.486,0,0,1,.416-1.377l3.461,3.461A2.5,2.5,0,0,1,10,12.5Z" />
    <path class="light-defaultgrey" d="M7,8H6V5H7Zm-.5.75a.75.75,0,1,0,.75.75A.75.75,0,0,0,6.5,8.75Z" />
  </g>
</svg>
