<svg xmlns="http://www.w3.org/2000/svg" viewBox="0 0 16 16">
  <defs>
    <style>.canvas{fill: none; opacity: 0;}.light-defaultgrey-10{fill: #212121; opacity: 0.1;}.light-defaultgrey{fill: #212121; opacity: 1;}.cls-1{opacity:0.75;}</style>
  </defs>
  <title>IconLightExceptionSettings</title>
  <g id="canvas" class="canvas">
    <path class="canvas" d="M16,16H0V0H16Z" />
  </g>
  <g id="level-1">
    <g class="cls-1">
      <path class="light-defaultgrey-10" d="M8,12.5H1.5V2.5h10V8.121A4.5,4.5,0,0,0,8,12.5Z" />
      <path class="light-defaultgrey" d="M8.051,13H1.5L1,12.5V2.5L1.5,2h10l.5.5V8.051a4.485,4.485,0,0,0-1,.225V3H2v9H8.051A4.342,4.342,0,0,0,8,12.5,4.342,4.342,0,0,0,8.051,13Z" />
    </g>
    <path class="light-defaultgrey-10" d="M14.5,12.5a2,2,0,1,1-2-2A2,2,0,0,1,14.5,12.5Z" />
    <path class="light-defaultgrey" d="M16,13V12H14.949a2.473,2.473,0,0,0-.365-.876l.745-.745-.707-.707-.745.745A2.469,2.469,0,0,0,13,10.051V9H12v1.051a2.469,2.469,0,0,0-.877.366l-.745-.745-.707.707.745.745a2.473,2.473,0,0,0-.365.876H9v1h1.051a2.473,2.473,0,0,0,.365.876l-.745.745.707.707.745-.745a2.469,2.469,0,0,0,.877.366V16h1V14.949a2.469,2.469,0,0,0,.877-.366l.745.745.707-.707-.745-.745A2.473,2.473,0,0,0,14.949,13Zm-3.5,1A1.5,1.5,0,1,1,14,12.5,1.5,1.5,0,0,1,12.5,14Z" />
    <path class="light-defaultgrey" d="M7,8H6V5H7Zm-.5.75a.75.75,0,1,0,.75.75A.75.75,0,0,0,6.5,8.75Z" />
  </g>
</svg>
