<svg xmlns="http://www.w3.org/2000/svg" viewBox="0 0 16 16">
  <defs>
    <style>.canvas{fill: none; opacity: 0;}.light-green{fill: #1f801f; opacity: 1;}.light-red{fill: #c50b17; opacity: 1;}.white{fill: #ffffff; opacity: 1;}.cls-1{opacity:0.75;}</style>
  </defs>
  <title>IconLightExcludeRun</title>
  <g id="canvas" class="canvas">
    <path class="canvas" d="M16,16H0V0H16Z" />
  </g>
  <g id="level-1">
    <g class="cls-1">
      <path class="light-green" d="M7.085,11.081,3.5,13.471v-12L11.8,7A5.01,5.01,0,0,0,7.085,11.081Z" />
    </g>
    <path class="light-green" d="M7.006,11.764,3.777,13.916,3,13.5V1.5l.777-.416,8.955,5.97A5.045,5.045,0,0,0,12,7a4.988,4.988,0,0,0-1,.1L4,2.435v10.13l3.267-2.177A4.934,4.934,0,0,0,7.006,11.764Z" />
    <path class="light-red" d="M12,8a4,4,0,1,0,4,4A4,4,0,0,0,12,8Z" />
    <path class="white" d="M14,12.5H10v-1h4Z" />
  </g>
</svg>
