<svg xmlns="http://www.w3.org/2000/svg" viewBox="0 0 16 16">
  <defs>
    <style>.canvas{fill: none; opacity: 0;}.light-defaultgrey-10{fill: #212121; opacity: 0.1;}.light-defaultgrey{fill: #212121; opacity: 1;}.light-blue{fill: #005dba; opacity: 1;}.light-yellow{fill: #996f00; opacity: 1;}.cls-1{opacity:0.75;}</style>
  </defs>
  <title>IconLightExecutableType</title>
  <g id="canvas">
    <path class="canvas" d="M16,16H0V0H16Z" />
  </g>
  <g id="level-1">
    <path class="light-defaultgrey-10" d="M14.5,1.5V11H9V7.5L8.5,7H6V1.5Z" />
    <path class="light-defaultgrey" d="M15,1.5v10l-.5.5H9V11h5V2H6V7H5V1.5L5.5,1h9Z" />
    <g class="cls-1">
      <path class="light-defaultgrey" d="M13,7H7V6h6ZM9,9h4V8H9ZM7,4V5h6V4Z" />
    </g>
    <path class="light-defaultgrey-10" d="M7.5,8.5v7H.5v-7Z" />
    <path class="light-defaultgrey" d="M7.5,8H.5L0,8.5v7l.5.5h7l.5-.5v-7ZM7,15H1V9H7Z" />
    <path class="light-blue" d="M5.3,13,7,14.36V15H6.164l-1.189-.887-.751.334-.478,0L1.986,13.03,1,13.754V12.513L1.7,12l.608.012,1.75,1.4L4.776,13Z" />
    <path class="light-yellow" d="M4.648,11a1,1,0,1,1,1,1A1,1,0,0,1,4.648,11Z" />
  </g>
</svg>
