<svg xmlns="http://www.w3.org/2000/svg" viewBox="0 0 16 16">
  <defs>
    <style>.canvas{fill: none; opacity: 0;}.light-defaultgrey{fill: #212121; opacity: 1;}.light-defaultgrey-10{fill: #212121; opacity: 0.1;}.light-blue{fill: #005dba; opacity: 1;}.cls-1{opacity:0.75;}</style>
  </defs>
  <title>IconLightExtendedProperty</title>
  <g id="canvas">
    <path class="canvas" d="M16,16H0V0H16Z" />
  </g>
  <g id="level-1">
    <path class="light-defaultgrey" d="M15,4.985a4,4,0,0,1-8,0,3.961,3.961,0,0,1,4-4,4.19,4.19,0,0,1,1.441.24L9.559,4.185,11.8,6.425l2.959-2.881A4.19,4.19,0,0,1,15,4.985Z" />
    <g class="cls-1">
      <path class="light-defaultgrey-10" d="M10.279,7.15s-5.418,5.45-7.191,7.1c-.861.75-2.076-.65-1.418-1.4,1.671-1.75,7.14-7.1,7.14-7.1Z" />
      <path class="light-defaultgrey" d="M10.865,5.921A1.51,1.51,0,0,0,9.469,5a1.622,1.622,0,0,0-1,.389C6.75,7.031,2.991,10.743,1.294,12.52a1.443,1.443,0,0,0,.187,1.972,1.5,1.5,0,0,0,1.056.47,1.347,1.347,0,0,0,.892-.346c1.862-1.734,5.659-5.543,7.218-7.127A1.449,1.449,0,0,0,10.865,5.921ZM9.923,6.8C8.381,8.367,4.6,12.161,2.76,13.873a.4.4,0,0,1-.571-.087c-.149-.149-.292-.437-.157-.591,1.673-1.753,5.417-5.448,7.076-7.044A.575.575,0,0,1,9.469,6a.515.515,0,0,1,.48.322A.467.467,0,0,1,9.923,6.8Z" />
    </g>
    <path class="light-blue" d="M4,5.293,5.4,3.9,6.1,4.6l-2.25,2.25H3.146L.9,4.6,1.6,3.9,3,5.293V0H4Z" />
  </g>
</svg>
