<svg xmlns="http://www.w3.org/2000/svg" viewBox="0 0 16 16">
  <defs>
    <style>.canvas{fill: none; opacity: 0;}.light-defaultgrey-10{fill: #212121; opacity: 0.1;}.light-defaultgrey{fill: #212121; opacity: 1;}.cls-1{opacity:0.75;}</style>
  </defs>
  <title>ExtensionManifest</title>
  <g id="canvas">
    <path class="canvas" d="M16,16H0V0H16Z" />
  </g>
  <g id="level-1">
    <g class="cls-1">
      <path class="light-defaultgrey-10" d="M7.5,12.5v3H.5v-7h3v4Z" />
      <path class="light-defaultgrey" d="M7.5,12H4V8.5L3.5,8H.5L0,8.5v7l.5.5h7l.5-.5v-3ZM7,15H1V9H3v3.5l.5.5H7Z" />
    </g>
    <path class="light-defaultgrey-10" d="M9.5,6.5v4h-4v-4Z" />
    <path class="light-defaultgrey" d="M9.5,6h-4L5,6.5v4l.5.5h4l.5-.5v-4ZM9,10H6V7H9Z" />
    <path class="light-defaultgrey-10" d="M8,2.5V5H9.91l.5.5h.09v.09l.5.5V10.5h4.5v-8Z" />
    <path class="light-defaultgrey-10" d="M6.5.5a1,1,0,0,0-1,1V5h2V1.5A1,1,0,0,0,6.5.5Z" />
    <path class="light-defaultgrey" d="M11,6V7h3V6Zm0,2V9h3V8Zm0-4V5h3V4ZM9,4V5h1V4Z" />
    <path class="light-defaultgrey" d="M16,2.5v8l-.5.5H10.91l.09-.09V10h4V3H8V5H7V1.5a.5.5,0,0,0-1,0V5H5.09L5,5.09V1.5a1.5,1.5,0,0,1,3,0V2h7.5Z" />
  </g>
</svg>
