<svg xmlns="http://www.w3.org/2000/svg" viewBox="0 0 16 16">
  <defs>
    <style>.canvas{fill: none; opacity: 0;}.light-defaultgrey-10{fill: #212121; opacity: 0.1;}.light-defaultgrey{fill: #212121; opacity: 1;}.light-yellow{fill: #996f00; opacity: 1;}.white{fill: #ffffff; opacity: 1;}.light-blue{fill: #005dba; opacity: 1;}.cls-1{opacity:0.75;}</style>
  </defs>
  <title>IconLightExtendedPropertyWarning</title>
  <g id="canvas">
    <path class="canvas" d="M16,16H0V0H16Z" />
  </g>
  <g id="level-1">
    <g class="cls-1">
      <path class="light-defaultgrey-10" d="M10.279,7.15s-5.418,5.45-7.191,7.1c-.861.75-2.076-.65-1.418-1.4,1.671-1.75,7.14-7.1,7.14-7.1Z" />
      <path class="light-defaultgrey" d="M9.639,8.508,10.47,7h.446A1.528,1.528,0,0,0,9.469,5a1.622,1.622,0,0,0-1,.389C6.75,7.031,2.991,10.743,1.294,12.52a1.443,1.443,0,0,0,.187,1.972,1.5,1.5,0,0,0,1.056.47,1.347,1.347,0,0,0,.892-.346C4.968,13.183,7.813,10.348,9.639,8.508ZM2.76,13.873a.4.4,0,0,1-.571-.087c-.149-.149-.292-.437-.157-.591,1.673-1.753,5.417-5.448,7.076-7.044A.575.575,0,0,1,9.469,6a.515.515,0,0,1,.48.322.467.467,0,0,1-.026.478C8.381,8.367,4.6,12.161,2.76,13.873Z" />
    </g>
    <path class="light-defaultgrey" d="M7,4.985a3.961,3.961,0,0,1,4-4,4.19,4.19,0,0,1,1.441.24L9.559,4.185,11.8,6.425l2.959-2.881A4.19,4.19,0,0,1,15,4.985a3.969,3.969,0,0,1-1.749,3.324L12.53,7H10.47L9.53,8.705A3.948,3.948,0,0,1,7,4.985Z" />
    <path class="light-yellow" d="M15.5,16h-8l-.439-.739,4-7.261h.878l4,7.261Z" />
    <path class="white" d="M12,13H11V10h1Zm.25,1.5a.75.75,0,1,1-.75-.75A.75.75,0,0,1,12.25,14.5Z" />
    <path class="light-blue" d="M4,5.293,5.4,3.9,6.1,4.6l-2.25,2.25H3.146L.9,4.6,1.6,3.9,3,5.293V0H4Z" />
  </g>
</svg>
