<svg xmlns="http://www.w3.org/2000/svg" viewBox="0 0 16 16">
  <defs>
    <style>.canvas{fill: none; opacity: 0;}.light-defaultgrey-10{fill: #212121; opacity: 0.1;}.light-defaultgrey{fill: #212121; opacity: 1;}.cls-1{opacity:0.75;}</style>
  </defs>
  <title>IconLightExtensionApplication</title>
  <g id="canvas">
    <path class="canvas" d="M16,16H0V0H16Z" />
  </g>
  <g id="level-1">
    <g class="cls-1">
      <path class="light-defaultgrey-10" d="M2.5,4V7H3.91L4,7.09v-1l.5-.5V5.5h.09l.5-.5H9.91l.5.5h.09v.09l.5.5v4.82l-.5.5v.09h-.09l-.5.5H15.5V4Z" />
      <path class="light-defaultgrey" d="M15.5,4H2.5L2,4.5V7H3V5H15v7H8.91l.09.09V13h6.5l.5-.5v-8Z" />
    </g>
    <path class="light-defaultgrey-10" d="M3,2V4H15V2Z" />
    <path class="light-defaultgrey" d="M15.5,1H2.5L2,1.5v3l.5.5h13l.5-.5v-3ZM3,4V2H15V4Z" />
    <g class="cls-1">
      <path class="light-defaultgrey-10" d="M7.5,12.5v3H.5v-7h3v4Z" />
      <path class="light-defaultgrey" d="M7.5,12H4V8.5L3.5,8H.5L0,8.5v7l.5.5h7l.5-.5v-3ZM7,15H1V9H3v3.5l.5.5H7Z" />
    </g>
    <path class="light-defaultgrey-10" d="M9.5,6.5v4h-4v-4Z" />
    <path class="light-defaultgrey" d="M9.5,6h-4L5,6.5v4l.5.5h4l.5-.5v-4ZM9,10H6V7H9Z" />
  </g>
</svg>
