<svg xmlns="http://www.w3.org/2000/svg" viewBox="0 0 16 16">
  <defs>
    <style>.canvas{fill: none; opacity: 0;}.light-purple-10{fill: #6936aa; opacity: 0.1;}.light-purple{fill: #6936aa; opacity: 1;}.light-blue{fill: #005dba; opacity: 1;}.cls-1{opacity:0.75;}</style>
  </defs>
  <title>IconLightExtractMethod</title>
  <g id="canvas">
    <path class="canvas" d="M16,16H0V0H16Z" />
    <path class="canvas" d="M16,16H0V0H16Z" />
  </g>
  <g id="level-1">
    <g class="cls-1">
      <path class="light-purple-10" d="M14.5,7.56v5.409l-4.5,2.6-4.5-2.6V7.56l.436-.239.415.415L7.777,6.31l2.242-1.232Z" />
      <path class="light-purple" d="M15,7.561V12.97l-.25.432L10.25,16h-.5l-4.5-2.6L5,12.97V7.561l.25-.433.312-.18.732.732L6,7.85v4.831L9.5,14.7V10.354h1V14.7L14,12.681V7.85L10,5.539,6.561,7.526,9.294,4.793l.456-.264h.5l4.5,2.6Z" />
    </g>
    <path class="light-purple" d="M14.778,8.015l-4.515,2.633H9.757L5.241,7.991l.008-.866.311-.18.791.791.158-.159,3.5,2.061,3.515-2.051-3.51-2.012L6.546,7.541,9.294,4.792l.456-.263h.5l4.5,2.6Z" />
    <path class="light-blue" d="M0,5.5A2.5,2.5,0,0,1,2.5,3H7.322L5.644,1.322,6.351.615l2.5,2.5v.707l-2.5,2.5-.707-.707L7.258,4H2.5a1.5,1.5,0,0,0,0,3H4V8H2.5A2.5,2.5,0,0,1,0,5.5Z" />
    <path class="light-purple-10" d="M14.527,7.583l-4.516,2.633L5.5,7.56l.434-.246.422.422,1.52-1.52L10.019,5Z" />
  </g>
</svg>
