<svg xmlns="http://www.w3.org/2000/svg" viewBox="0 0 16 16">
  <defs>
    <style>.canvas{fill: none; opacity: 0;}.light-defaultgrey-10{fill: #212121; opacity: 0.1;}.light-defaultgrey{fill: #212121; opacity: 1;}.light-blue{fill: #005dba; opacity: 1;}</style>
  </defs>
  <title>IconLightExtractConstant</title>
  <g id="canvas" class="canvas">
    <path class="canvas" d="M16,16H0V0H16Z" />
  </g>
  <g id="level-1">
    <path class="light-defaultgrey-10" d="M14.5,6.5v8h-9v-8Z" />
    <path class="light-defaultgrey" d="M14.5,6h-9L5,6.5v8l.5.5h9l.5-.5v-8ZM14,14H6V7h8Z" />
    <path class="light-blue" d="M12,10H8V9h4Zm0,1H8v1h4Z" />
    <path class="light-blue" d="M0,4.885a2.5,2.5,0,0,1,2.5-2.5H7.322L5.644.707,6.351,0l2.5,2.5v.707l-2.5,2.5L5.644,5,7.258,3.385H2.5a1.5,1.5,0,0,0,0,3H4v1H2.5A2.5,2.5,0,0,1,0,4.885Z" />
  </g>
</svg>
