<svg xmlns="http://www.w3.org/2000/svg" viewBox="0 0 16 16">
  <defs>
    <style>.canvas{fill: none; opacity: 0;}.light-blue{fill: #005dba; opacity: 1;}.light-blue-10{fill: #005dba; opacity: 0.1;}.cls-1{opacity:0.75;}</style>
  </defs>
  <title>IconLightExtractInterface</title>
  <g id="canvas">
    <path class="canvas" d="M16,16H0V0H16Z" />
  </g>
  <g id="level-1">
    <path class="light-blue" d="M0,5.5A2.5,2.5,0,0,1,2.5,3H7.322L5.644,1.322,6.351.615l2.5,2.5v.707l-2.5,2.5-.707-.707L7.258,4H2.5a1.5,1.5,0,0,0,0,3H4V8H2.5A2.5,2.5,0,0,1,0,5.5Z" />
    <g class="cls-1">
      <path class="light-blue" d="M9.5,11v1h-4V11Z" />
    </g>
    <path class="light-blue-10" d="M5.5,11.5a2,2,0,1,1-2-2A2,2,0,0,1,5.5,11.5Zm10,0a3,3,0,1,1-3-3A3,3,0,0,1,15.5,11.5Z" />
    <path class="light-blue" d="M3.5,9A2.5,2.5,0,1,0,6,11.5,2.5,2.5,0,0,0,3.5,9Zm0,4A1.5,1.5,0,1,1,5,11.5,1.5,1.5,0,0,1,3.5,13Zm9-5A3.5,3.5,0,1,0,16,11.5,3.5,3.5,0,0,0,12.5,8Zm0,6A2.5,2.5,0,1,1,15,11.5,2.5,2.5,0,0,1,12.5,14Z" />
  </g>
</svg>
