<svg xmlns="http://www.w3.org/2000/svg" viewBox="0 0 16 16">
  <defs>
    <style>.canvas{fill: none; opacity: 0;}.light-defaultgrey{fill: #212121; opacity: 1;}.light-defaultgrey-10{fill: #212121; opacity: 0.1;}</style>
  </defs>
  <title>IconLightFactTable</title>
  <g id="canvas">
    <path class="canvas" d="M16,16H0V0H16Z" />
  </g>
  <g id="level-1">
    <path class="light-defaultgrey" d="M3,14H.5L0,13.5V1.5L.5,1H3V2H1V13H3Zm12-.5V1.5L14.5,1H12V2h2V13H12v1h2.5Z" />
    <path class="light-defaultgrey-10" d="M10.5,3.5h2v8h-2Z" />
    <path class="light-defaultgrey" d="M12.5,12h-2l-.5-.5v-8l.5-.5h2l.5.5v8ZM11,11h1V4H11Z" />
    <path class="light-defaultgrey-10" d="M6.5,6.5h2v5h-2Z" />
    <path class="light-defaultgrey" d="M8.5,12h-2L6,11.5v-5L6.5,6h2l.5.5v5ZM7,11H8V7H7Z" />
    <path class="light-defaultgrey-10" d="M2.5,8.5h2v3h-2Z" />
    <path class="light-defaultgrey" d="M4.5,12h-2L2,11.5v-3L2.5,8h2l.5.5v3ZM3,11H4V9H3Z" />
  </g>
</svg>
