<svg xmlns="http://www.w3.org/2000/svg" viewBox="0 0 16 16">
  <defs>
    <style>.canvas{fill: none; opacity: 0;}.light-defaultgrey-10{fill: #212121; opacity: 0.1;}.light-defaultgrey{fill: #212121; opacity: 1;}</style>
  </defs>
  <title>IconLightFeedbackFrown</title>
  <g id="canvas">
    <path class="canvas" d="M16,16H0V0H16Z" />
  </g>
  <g id="level-1">
    <path class="light-defaultgrey-10" d="M13.5,7.5a6,6,0,1,1-6-6A6,6,0,0,1,13.5,7.5Z" />
    <path class="light-defaultgrey" d="M7.5,14A6.5,6.5,0,1,1,14,7.5,6.508,6.508,0,0,1,7.5,14Zm0-12A5.5,5.5,0,1,0,13,7.5,5.506,5.506,0,0,0,7.5,2Z" />
    <path class="light-defaultgrey" d="M7.5,9a4.486,4.486,0,0,1,3.182,1.315l-.707.707a3.505,3.505,0,0,0-4.95,0l-.707-.707A4.486,4.486,0,0,1,7.5,9Z" />
    <path class="light-defaultgrey" d="M5.5,7.5a1,1,0,1,1,1-1A1,1,0,0,1,5.5,7.5Z" />
    <path class="light-defaultgrey" d="M9.5,7.5a1,1,0,1,1,1-1A1,1,0,0,1,9.5,7.5Z" />
  </g>
</svg>
