<svg xmlns="http://www.w3.org/2000/svg" viewBox="0 0 16 16">
  <defs>
    <style>.canvas{fill: none; opacity: 0;}.light-blue-10{fill: #005dba; opacity: 0.1;}.light-blue{fill: #005dba; opacity: 1;}.light-defaultgrey-10{fill: #212121; opacity: 0.1;}.light-defaultgrey{fill: #212121; opacity: 1;}.cls-1{opacity:0.75;}</style>
  </defs>
  <title>IconLightFieldShortcut</title>
  <g id="canvas" class="canvas">
    <path class="canvas" d="M16,16H0V0H16Z" />
  </g>
  <g id="level-1">
    <g class="cls-1">
      <path class="light-blue-10" d="M13.547,5.208V7H8.086L7,8.086v5.025l-1.808.979L1.5,10.4V6.244L9.808,1.629Z" />
      <path class="light-blue" d="M7,12.515v1.144l-1.565.869-.6-.084L1.146,10.752,1,10.4V6.244l.257-.437L9.565,1.191l.6.084,3.692,3.693L14,5.321V7H13V5.528L9.721,2.249,2,6.538v3.653l2.692,2.692V9.608h1v3.633Z" />
    </g>
    <path class="light-blue-10" d="M10.213,7l3.205-1.78L9.783,1.584,1.6,6.129,5.238,9.764,7,8.785m0,0v-.7L8.086,7h2.127" />
    <path class="light-blue" d="M7,9.348l-1.523.846-.586-.082L1.255,6.477,1.364,5.7,9.543,1.154l.587.083,3.636,3.635-.109.778L11.227,7H9.2L12.59,5.118,9.721,2.249,2.455,6.286,5.324,9.154,7,8.223" />
    <path class="light-defaultgrey-10" d="M15.5,8.5v7h-7v-7Z" />
    <path class="light-defaultgrey" d="M15.5,8h-7L8,8.5v7l.5.5h7l.5-.5v-7ZM15,15H9V9h6Zm-1-4.5V14H13V11.707l-2.646,2.647-.708-.708L12.293,11H10V10h3.5Z" />
  </g>
</svg>
