<svg xmlns="http://www.w3.org/2000/svg" viewBox="0 0 16 16">
  <defs>
    <style>.canvas{fill: none; opacity: 0;}.light-blue-10{fill: #005dba; opacity: 0.1;}.light-blue{fill: #005dba; opacity: 1;}.light-defaultgrey-10{fill: #212121; opacity: 0.1;}.light-defaultgrey{fill: #212121; opacity: 1;}.cls-1{opacity:0.75;}</style>
  </defs>
  <title>IconLightFieldSnippet</title>
  <g id="canvas" class="canvas">
    <path class="canvas" d="M16,16H0V0H16Z" />
  </g>
  <g id="level-1">
    <g class="cls-1">
      <path class="light-blue-10" d="M7.494,5.169,10.5,8.176v3.5l-7,3.889L.494,12.556v-3.5Z" />
      <path class="light-blue" d="M11,8.176v3.5l-.256.437L3.744,16l-.6-.084L.14,12.91,0,12.556v-3.5l.251-.437L.14,9.412l.854.853v2.084L3,14.355V12.271l.147.147.6.084L4,12.359v2.354l6-3.333V9.026l.744-.413.11-.791Z" />
    </g>
    <g class="cls-1">
      <path class="light-defaultgrey-10" d="M14.5,1.5V10H12V7.977l-.087-.51-3.6-3.595L7.059,3.7,7,3.727V1.5Z" />
      <path class="light-defaultgrey" d="M12,11h1v1H12v-.053h0ZM14.5,1h-8L6,1.5V4.283l1-.556V2h7v8h1V1.5ZM14,12h1V11H14Z" />
    </g>
    <path class="light-blue-10" d="M10.5,8.176l-7,3.889L.494,9.058l7-3.889Z" />
    <path class="light-blue" d="M3.744,12.5l-.6-.084L.14,9.412l.111-.791,7-3.889.6.084,3.006,3.006-.11.791ZM1.316,9.173l2.271,2.271L9.678,8.061,7.407,5.789Z" />
  </g>
</svg>
