<svg xmlns="http://www.w3.org/2000/svg" viewBox="0 0 16 16">
  <defs>
    <style>.canvas{fill: none; opacity: 0;}.light-blue-10{fill: #005dba; opacity: 0.1;}.light-blue{fill: #005dba; opacity: 1;}.light-defaultgrey{fill: #212121; opacity: 1;}.light-defaultgrey-10{fill: #212121; opacity: 0.1;}.cls-1{opacity:0.75;}</style>
  </defs>
  <title>IconLightFileType</title>
  <g id="canvas">
    <path class="canvas" d="M16,16H0V0H16Z" />
  </g>
  <g id="level-1">
    <path class="light-blue-10" d="M10.5.5a5,5,0,0,0-5,5A4.946,4.946,0,0,0,6.194,8h3.72L11,9.086V10.45A4.987,4.987,0,0,0,10.5.5Zm0,6a1,1,0,1,1,1-1A1,1,0,0,1,10.5,6.5Z" />
    <path class="light-blue" d="M16,5.5a5.506,5.506,0,0,1-5,5.475V9.949A4.478,4.478,0,1,0,6.762,8H5.607A5.5,5.5,0,1,1,16,5.5ZM10.5,7A1.5,1.5,0,1,1,12,5.5,1.5,1.5,0,0,1,10.5,7ZM11,5.5a.5.5,0,1,0-.5.5A.5.5,0,0,0,11,5.5Z" />
    <path class="light-defaultgrey" d="M4,14H5V13H4Zm2,0H8V13H6ZM4,12H5V11H4Zm2,0H8V11H6Z" />
    <path class="light-defaultgrey-10" d="M9.5,9.5v6h-8a1,1,0,0,1-1-1v-6a1,1,0,0,1,2,0v1Z" />
    <path class="light-defaultgrey" d="M9.5,9H3V8.5a1.5,1.5,0,0,0-3,0v6A1.5,1.5,0,0,0,1.5,16h8l.5-.5v-6ZM1,8.5a.5.5,0,0,1,1,0v4.586a1.5,1.5,0,0,0-1,0ZM9,15H1.5a.5.5,0,1,1,.5-.5H3V10H9Z" />
    <g class="cls-1">
      <path class="light-blue-10" d="M12.221,9.655l-1.147-2.77a1.506,1.506,0,0,0,.811-.811l2.77,1.147A4.52,4.52,0,0,1,12.221,9.655ZM6.345,3.779l2.77,1.147a1.506,1.506,0,0,1,.811-.811L8.779,1.345A4.52,4.52,0,0,0,6.345,3.779Z" />
      <path class="light-blue" d="M12.665,9.42a4.438,4.438,0,0,1-.923.384L10.577,6.992a1.485,1.485,0,0,0,.924-.383Zm-.673-3.843a1.485,1.485,0,0,1-.383.924L14.42,7.665a4.438,4.438,0,0,0,.384-.923ZM9.391,4.5,6.58,3.335a4.438,4.438,0,0,0-.384.923L9.008,5.423A1.485,1.485,0,0,1,9.391,4.5ZM9.5,4.391a1.485,1.485,0,0,1,.924-.383L9.258,1.2a4.438,4.438,0,0,0-.923.384Z" />
    </g>
  </g>
</svg>
