<svg xmlns="http://www.w3.org/2000/svg" viewBox="0 0 16 16">
  <defs>
    <style>.canvas{fill: none; opacity: 0;}.light-yellow-10{fill: #996f00; opacity: 0.1;}.light-defaultgrey-10{fill: #212121; opacity: 0.1;}.light-defaultgrey{fill: #212121; opacity: 1;}.light-yellow{fill: #996f00; opacity: 1;}</style>
  </defs>
  <title>IconLightFileDialogReport</title>
  <g id="canvas">
    <path class="canvas" d="M16,16H0V0H16Z" />
  </g>
  <g id="level-1">
    <path class="light-yellow-10" d="M14.5,2.5v6H11V8.3l-.3-.726L7.417,4.29,6.693,4H5.5V1.5h4l1,1Z" />
    <path class="light-defaultgrey-10" d="M9.5,8.5v7H.5V5.5h6Z" />
    <path class="light-defaultgrey" d="M9.854,8.142l-3-3L6.5,5H.5L0,5.5v10l.5.5h9l.5-.5v-7ZM9,15H1V6H6V9H9ZM4.5,11l.5.5v2l-.5.5h-1L3,13.5v-2l.5-.5ZM6,10.5l.5-.5h1l.5.5v3l-.5.5h-1L6,13.5ZM2,7H5V8H2Zm2,3H2V9H4Z" />
    <path class="light-yellow" d="M14.5,2H10.707l-.853-.854L9.5,1h-4L5,1.5V4H9.475l.354-.146L10.682,3H14V8H10.876L11,8.3V9h3.5l.5-.5v-6ZM9.268,3H6V2H9.293l.488.488Z" />
  </g>
</svg>
