<svg xmlns="http://www.w3.org/2000/svg" viewBox="0 0 16 16">
  <defs>
    <style>.canvas{fill: none; opacity: 0;}.light-blue-10{fill: #005dba; opacity: 0.1;}.light-blue{fill: #005dba; opacity: 1;}.light-defaultgrey-10{fill: #212121; opacity: 0.1;}.light-defaultgrey{fill: #212121; opacity: 1;}.cls-1{opacity:0.75;}</style>
  </defs>
  <title>IconLightFileEncodingDialog</title>
  <g id="canvas">
    <path class="canvas" d="M16,16H0V0H16Z" />
  </g>
  <g id="level-1">
    <path class="light-blue-10" d="M10.515,7v8.5h-10V5.5h8.5Z" />
    <path class="light-blue" d="M10.854,6.647l-1.5-1.5L9,5H.5L0,5.5V15.517L.485,16h10L11,15.5V7ZM4,6H7V8H4Zm6,9H1V6H3V9H8V6h.793L10,7.208Z" />
    <g class="cls-1">
      <path class="light-defaultgrey-10" d="M14.5,4.5v9H12V6.8l-.3-.721L9.92,4.3,9.2,4H4.5V1.5h7Z" />
      <path class="light-blue" d="M9,10.5V15H8V11H3v4H2V10.5l.5-.5h6Z" />
      <path class="light-defaultgrey" d="M15,4.5v9l-.5.5H12V13h2V5H11V2H5V4H4V1.5L4.5,1h7l.354.147,3,3Z" />
    </g>
  </g>
</svg>
