<svg xmlns="http://www.w3.org/2000/svg" viewBox="0 0 16 16">
  <defs>
    <style>.canvas{fill: none; opacity: 0;}.light-defaultgrey-10{fill: #212121; opacity: 0.1;}.light-defaultgrey{fill: #212121; opacity: 1;}.cls-1{opacity:0.75;}</style>
  </defs>
  <title>IconLightFileSystemDriverPackageFile</title>
  <g id="canvas">
    <path class="canvas" d="M16,16H0V0H16Z" />
  </g>
  <g id="level-1">
    <path class="light-defaultgrey-10" d="M12.5,9.5a1,1,0,1,1-1-1A1,1,0,0,1,12.5,9.5ZM6.72,6.1a.978.978,0,0,1-.22-.6,1,1,0,0,1,2,0,.99.99,0,0,1-.885.977,3,3,0,0,0-.486-.256A2.821,2.821,0,0,0,6.72,6.1Z" />
    <g class="cls-1">
      <path class="light-defaultgrey-10" d="M14.5,3.5v9H9V10.086l-.15-.15a3,3,0,0,0-.733-3.062,3.012,3.012,0,0,0-.988-.653,2.719,2.719,0,0,0-1.03-.2,2.815,2.815,0,0,0-1.148.246,2.939,2.939,0,0,0-.451.255V.5h7Z" />
      <path class="light-defaultgrey" d="M15,3.5v9l-.5.5H9V12h5V4H11V1H5V6.25c-.016.007-.033.009-.049.016A3.037,3.037,0,0,0,4,6.93V.5L4.5,0h7l.354.146,3,3Z" />
      <path class="light-defaultgrey" d="M8.908,5H11.5l.5.5V8.092a1.4,1.4,0,0,0-1,0V6H8.908a1.4,1.4,0,0,0,0-1Z" />
    </g>
    <path class="light-defaultgrey" d="M11.5,11A1.5,1.5,0,1,1,13,9.5,1.5,1.5,0,0,1,11.5,11Zm0-2a.5.5,0,1,0,.5.5A.5.5,0,0,0,11.5,9Z" />
    <path class="light-defaultgrey" d="M6.1,6.02a2.719,2.719,0,0,1,1.03.2,3,3,0,0,1,.98.647A1.508,1.508,0,1,0,6.1,6.02ZM7.5,5a.5.5,0,1,1-.5.5A.5.5,0,0,1,7.5,5Z" />
    <path class="light-defaultgrey-10" d="M7.5,15.5H.5v-5h7Z" />
    <path class="light-defaultgrey" d="M8,9a1.99,1.99,0,0,0-.586-1.415,2.023,2.023,0,0,0-.662-.438,1.773,1.773,0,0,0-1.4.034,2.082,2.082,0,0,0-1.1,1.183L4,9.049l-.251-.685a2.082,2.082,0,0,0-1.1-1.183,1.773,1.773,0,0,0-1.4-.034,2.01,2.01,0,0,0-.662.439A1.993,1.993,0,0,0,.36,10.14L0,10.5v5l.5.5h7l.5-.5v-5l-.36-.36A1.986,1.986,0,0,0,8,9ZM5.19,8.708A1.091,1.091,0,0,1,5.76,8.1a.774.774,0,0,1,.616-.022,1.009,1.009,0,0,1,.331.22,1,1,0,0,1,0,1.413,1.011,1.011,0,0,1-.332.221A1,1,0,0,1,6,10H4.716Zm-3.9-.414a1,1,0,0,1,.333-.221A.715.715,0,0,1,1.9,8.02.855.855,0,0,1,2.24,8.1a1.091,1.091,0,0,1,.57.613L3.284,10H2a1,1,0,0,1-.376-.073,1.009,1.009,0,0,1-.331-.22,1,1,0,0,1,0-1.413ZM1,11H3.5v4H1Zm6,4H4.5V11H7Z" />
  </g>
</svg>
