<svg xmlns="http://www.w3.org/2000/svg" viewBox="0 0 16 16">
  <defs>
    <style>.canvas{fill: none; opacity: 0;}.light-lightblue{fill: #0077a0; opacity: 1;}.light-defaultgrey{fill: #212121; opacity: 1;}.light-defaultgrey-10{fill: #212121; opacity: 0.1;}.cls-1{opacity:0.75;}</style>
  </defs>
  <title>IconLightFillTransform</title>
  <g id="Canvas">
    <path class="canvas" d="M16,16H0V0H16Z" />
  </g>
  <g id="level-1">
    <g class="cls-1">
      <path class="light-lightblue" d="M6.9,12,4,8.515V6.7L6.707,4l1.586,8Z" />
      <path class="light-defaultgrey" d="M8.5,13H6.667l-.384-.179-3.334-4L3,8.495v-2l.146-.353,3-3L6.5,3h2l.32-.05,4,3.333.18.384V8.495l-.146.354-4,4ZM6.9,12H8.293L12,8.288V6.9L8.509,3.987,8.5,4H6.707L4,6.7,3.991,8.5Z" />
    </g>
    <path class="light-defaultgrey-10" d="M8.5,14.5h-2v-2h2Zm6-6h-2v-2h2Zm-11,0h-2v-2h2Zm5-5h-2v-2h2Z" />
    <path class="light-defaultgrey" d="M12,9V6h3V9Zm1-1h1V7H13ZM1,9V6H4V9ZM2,8H3V7H2ZM6,4V1H9V4ZM7,3H8V2H7ZM6,15V12H9v3ZM7,14H8V13H7Z" />
    <path class="light-defaultgrey-10" d="M6.9,12,4,8.515V6.7L6.707,4H8.519L12,6.9V8.288L8.293,12Z" />
  </g>
</svg>
