<svg xmlns="http://www.w3.org/2000/svg" viewBox="0 0 16 16">
  <defs>
    <style>.canvas{fill: none; opacity: 0;}.light-yellow-10{fill: #996f00; opacity: 0.1;}.light-yellow{fill: #996f00; opacity: 1;}.light-blue-10{fill: #005dba; opacity: 0.1;}.light-blue{fill: #005dba; opacity: 1;}</style>
  </defs>
  <title>IconLightFilterFolderClosed</title>
  <g id="canvas" class="canvas">
    <path class="canvas" d="M16,16H0V0H16Z" />
  </g>
  <g id="level-1">
    <path class="light-yellow-10" d="M8.953,12.5H1.5V2.5h6l1,1h6V7H6.859L5.943,8.989Z" />
    <path class="light-yellow" d="M14.5,3H8.707l-.853-.854L7.5,2h-6L1,2.5v10l.5.5H9v-.445L8.524,12H2V5H7.475l.354-.146L8.682,4H14V7h1V3.5ZM7.268,4H2V3H7.293l.488.488Z" />
    <path class="light-blue-10" d="M15.5,8.5l-3,3.5v3.5h-2V12l-3-3.5Z" />
    <path class="light-blue" d="M15.5,8h-8l-.38.825L10,12.185V15.5l.5.5h2l.5-.5V12.185l2.88-3.36Zm-3.38,3.675L12,12v3H11V12l-.12-.325L8.587,9h5.826Z" />
  </g>
</svg>
