<svg xmlns="http://www.w3.org/2000/svg" viewBox="0 0 16 16">
  <defs>
    <style>.canvas{fill: none; opacity: 0;}.light-blue{fill: #005dba; opacity: 1;}.light-defaultgrey-10{fill: #212121; opacity: 0.1;}.light-defaultgrey{fill: #212121; opacity: 1;}</style>
  </defs>
  <title>IconLightFilterUser</title>
  <g id="canvas">
    <path class="canvas" d="M16,16H0V0H16Z" />
  </g>
  <g id="level-1">
    <path class="light-blue" d="M5,.5,3,2.5V5H2V2.5L0,.5V0H5Z" />
    <path class="light-defaultgrey-10" d="M8,3.5a3,3,0,1,1-3,3A3,3,0,0,1,8,3.5Z" />
    <path class="light-defaultgrey-10" d="M3.5,14a4.5,4.5,0,0,1,9,0Z" />
    <path class="light-defaultgrey" d="M9.957,9.4a3.5,3.5,0,1,0-3.914,0A5.007,5.007,0,0,0,3,14H4a4,4,0,0,1,8,0h1A5.007,5.007,0,0,0,9.957,9.4ZM5.5,6.5A2.5,2.5,0,1,1,8,9,2.5,2.5,0,0,1,5.5,6.5Z" />
  </g>
</svg>
