<svg xmlns="http://www.w3.org/2000/svg" viewBox="0 0 16 16">
  <defs>
    <style>.canvas{fill: none; opacity: 0;}.light-defaultgrey-10{fill: #212121; opacity: 0.1;}.light-defaultgrey{fill: #212121; opacity: 1;}.light-blue{fill: #005dba; opacity: 1;}.cls-1{opacity:0.75;}</style>
  </defs>
  <title>IconLightFilteredTextBox</title>
  <g id="canvas" class="canvas">
    <path class="canvas" d="M16,16H0V0H16Z" />
  </g>
  <g id="level-1">
    <path class="light-defaultgrey-10" d="M15.5,3.5v10H.5V6H4V3.5Z" />
    <path class="light-defaultgrey" d="M16,3.5v10l-.5.5H.5L0,13.5V6H1v7H15V4H4V3H15.5Z" />
    <path class="light-defaultgrey" d="M9,8a1.987,1.987,0,0,0-1,.277V6H7v6H8v-.277A2,2,0,1,0,9,8Zm0,3a1,1,0,1,1,1-1A1,1,0,0,1,9,11ZM5,8v.277a2,2,0,1,0,0,3.446V12H6V8ZM4,11a1,1,0,1,1,1-1A1,1,0,0,1,4,11Z" />
    <g class="cls-1">
      <path class="light-defaultgrey" d="M14,6.506v3.988a.46.46,0,0,0,.5.506v1a1.456,1.456,0,0,1-1-.352,1.456,1.456,0,0,1-1,.352V11a.46.46,0,0,0,.5-.506V6.506A.46.46,0,0,0,12.5,6V5a1.456,1.456,0,0,1,1,.352A1.456,1.456,0,0,1,14.5,5V6A.46.46,0,0,0,14,6.506Z" />
    </g>
    <path class="light-blue" d="M5,.5,3,2.5V5H2V2.5L0,.5V0H5Z" />
  </g>
</svg>
