<svg xmlns="http://www.w3.org/2000/svg" viewBox="0 0 16 16">
  <defs>
    <style>.canvas{fill: none; opacity: 0;}.light-defaultgrey-10{fill: #212121; opacity: 0.1;}.light-defaultgrey{fill: #212121; opacity: 1;}.light-blue{fill: #005dba; opacity: 1;}.cls-1{opacity:0.75;}</style>
  </defs>
  <title>IconLightFilterPendingChanges</title>
  <g id="canvas" class="canvas">
    <path class="canvas" d="M16,16H0V0H16Z" />
  </g>
  <g id="level-1">
    <path class="light-defaultgrey-10" d="M13.5,9.352a5,5,0,1,1-5-5A5,5,0,0,1,13.5,9.352Z" />
    <path class="light-defaultgrey" d="M8.5,3.852a5.5,5.5,0,1,0,5.5,5.5A5.506,5.506,0,0,0,8.5,3.852Zm0,10a4.5,4.5,0,1,1,4.5-4.5A4.505,4.505,0,0,1,8.5,13.852Z" />
    <g class="cls-1">
      <path class="light-defaultgrey" d="M11,8.852v1H8.5l-.5-.5v-3.5H9v3Z" />
    </g>
    <path class="light-blue" d="M5,.5,3,2.5V5H2V2.5L0,.5V0H5Z" />
  </g>
</svg>
