<svg xmlns="http://www.w3.org/2000/svg" viewBox="0 0 16 16">
  <defs>
    <style>.canvas{fill: none; opacity: 0;}.light-yellow-10{fill: #996f00; opacity: 0.1;}.light-yellow-25{fill: #996f00; opacity: 0.25;}.light-yellow{fill: #996f00; opacity: 1;}.light-blue-10{fill: #005dba; opacity: 0.1;}.light-blue{fill: #005dba; opacity: 1;}</style>
  </defs>
  <title>IconLightFilterFolderOpened</title>
  <g id="canvas" class="canvas">
    <path class="canvas" d="M16,16H0V0H16Z" />
  </g>
  <g id="level-1">
    <path class="light-yellow-10" d="M13.5,3.5v2h-5l-1,1h-5l-2,5v-9h5l1,1Z" />
    <path class="light-yellow-25" d="M8.953,12.5H.5l2-6h5l1-1h7L15.071,7H6.859L5.943,8.989Z" />
    <path class="light-yellow" d="M15.408,5H14V3.5L13.5,3H6.707l-.853-.854L5.5,2H.5L0,2.5v10l.409.409L.475,13H9v-.445L8.524,12H1.168L2.835,7h4.64l.353-.146L8.682,6h6.076l-.267,1h1.035l.366-1.371ZM8.475,5l-.354.146L7.268,6H2.475L2,6.342l-1,3V3H5.293l.853.854L6.5,4H13V5Z" />
    <path class="light-blue-10" d="M15.5,8.5l-3,3.5v3.5h-2V12l-3-3.5Z" />
    <path class="light-blue" d="M15.5,8h-8l-.38.825L10,12.185V15.5l.5.5h2l.5-.5V12.185l2.88-3.36Zm-3.38,3.675L12,12v3H11V12l-.12-.325L8.587,9h5.826Z" />
  </g>
</svg>
