<svg xmlns="http://www.w3.org/2000/svg" viewBox="0 0 16 16">
  <defs>
    <style>.canvas{fill: none; opacity: 0;}.light-defaultgrey{fill: #212121; opacity: 1;}.cls-1{opacity:0.5;}.cls-2{opacity:0.75;}</style>
  </defs>
  <title>FlagGroup</title>
  <g id="canvas">
    <path class="canvas" d="M16,16H0V0H16Z" />
  </g>
  <g id="level-1">
    <g class="cls-1">
      <path class="light-defaultgrey" d="M5.5,6.5v5h-4v-5Z" />
      <path class="light-defaultgrey" d="M8.5,8.5v5h-3v-5Z" />
    </g>
    <path class="light-defaultgrey" d="M2,7v9H1V7Z" />
    <path class="light-defaultgrey" d="M5.5,6h-4L1,6.5v5l.5.5h4l.5-.5v-5ZM5,11H2V7H5Z" />
    <path class="light-defaultgrey" d="M8.5,8h-3L5,8.5v5l.5.5h3l.5-.5v-5ZM8,13H6V9H8Z" />
    <g class="cls-2">
      <g class="cls-1">
        <path class="light-defaultgrey" d="M14.5,3.5v5h-3v-5Z" />
        <path class="light-defaultgrey" d="M11.5,1.5v5h-4v-5Z" />
      </g>
      <path class="light-defaultgrey" d="M8,8H7V7H8Z" />
      <path class="light-defaultgrey" d="M11.5,1h-4L7,1.5V7h4.5l.5-.5v-5ZM11,6H8V2h3Z" />
      <path class="light-defaultgrey" d="M14.5,3h-3l-.5.5v5l.5.5h3l.5-.5v-5ZM14,8H12V4h2Z" />
    </g>
  </g>
</svg>
