<svg xmlns="http://www.w3.org/2000/svg" viewBox="0 0 16 16">
  <defs>
    <style>.canvas{fill: none; opacity: 0;}.light-defaultgrey-10{fill: #212121; opacity: 0.1;}.light-defaultgrey{fill: #212121; opacity: 1;}.light-green{fill: #1f801f; opacity: 1;}.light-blue{fill: #005dba; opacity: 1;}.light-blue-10{fill: #005dba; opacity: 0.1;}.cls-1{opacity:0.75;}</style>
  </defs>
  <title>IconLightFloppyDrive</title>
  <g id="canvas">
    <path class="canvas" d="M16,16H0V0H16Z" />
  </g>
  <g id="level-1">
    <path class="light-defaultgrey-10" d="M.5,10.5h10v4H.5Z" />
    <path class="light-defaultgrey" d="M10.5,10H.5l-.5.5v4l.5.5H2v1H3V15H8v1H9V15h1.5l.5-.5v-4ZM10,14H1V11h9Z" />
    <path class="light-green" d="M3,13H2V12H3Z" />
    <g class="cls-1">
      <path class="light-blue" d="M13,6.5V11H12V7H7V9H6V6.5L6.5,6h6Z" />
    </g>
    <path class="light-blue-10" d="M14.515,3v8.5H12V10.086L10.914,9h-6.4V1.5h8.5Z" />
    <path class="light-blue" d="M14.854,2.647l-1.5-1.5L13,1H4.5L4,1.5V9H5V2H7V5h5V2h.793L14,3.208V11H12v1h2.485L15,11.5V3ZM11,4H8V2h3Z" />
  </g>
</svg>
