<svg xmlns="http://www.w3.org/2000/svg" viewBox="0 0 16 16">
  <defs>
    <style>.canvas{fill: none; opacity: 0;}.light-defaultgrey-10{fill: #212121; opacity: 0.1;}.light-defaultgrey{fill: #212121; opacity: 1;}.cls-1{opacity:0.75;}</style>
  </defs>
  <title>IconLightFlowSwitch</title>
  <g id="canvas">
    <path class="canvas" d="M16,16H0V0H16Z" />
  </g>
  <g id="level-1">
    <path class="light-defaultgrey-10" d="M4.747,11.754.992,8,4.747,4.246,8.5,8Z" />
    <path class="light-defaultgrey" d="M5.1,12.107H4.393L.639,8.354V7.646L4.393,3.893H5.1L8.854,7.646v.708ZM1.7,8l3.047,3.047L7.793,8,4.747,4.953Z" />
    <g class="cls-1">
      <path class="light-defaultgrey-10" d="M15.5,8l-3.754,3.754L10,10l-1.75,1.75L6.5,10l2-2-2-2,1.75-1.75L10,6l1.75-1.75Z" />
      <path class="light-defaultgrey" d="M12.1,3.893h-.707L10,5.289l-1.4-1.4H7.893l-1.4,1.4L7.2,6,8.247,4.953,11.293,8,8.247,11.047,7.2,10l-.707.707,1.4,1.4H8.6l1.4-1.4,1.4,1.4H12.1l3.754-3.753V7.646Zm-.353,7.154L10.7,10l1.65-1.65V7.646L10.7,6l1.043-1.043L14.793,8Z" />
    </g>
  </g>
</svg>
