<svg xmlns="http://www.w3.org/2000/svg" viewBox="0 0 16 16">
  <defs>
    <style>.canvas{fill: none; opacity: 0;}.light-defaultgrey-10{fill: #212121; opacity: 0.1;}.light-defaultgrey{fill: #212121; opacity: 1;}.light-blue{fill: #005dba; opacity: 1;}</style>
  </defs>
  <title>FocusUser</title>
  <g id="canvas">
    <path class="canvas" d="M16,0V16H0V0Z" />
  </g>
  <g id="level-1">
    <path class="light-defaultgrey-10" d="M8,9.5a3,3,0,1,1,3-3A3,3,0,0,1,8,9.5Zm0,0A4.486,4.486,0,0,0,3.61,13h8.78A4.486,4.486,0,0,0,8,9.5Z" />
    <path class="light-defaultgrey" d="M9.96,9.4a3.5,3.5,0,1,0-3.92,0A5,5,0,0,0,3.11,13H4.13a4,4,0,0,1,7.74,0h1.02A5,5,0,0,0,9.96,9.4ZM8,4A2.5,2.5,0,1,1,5.5,6.5,2.5,2.5,0,0,1,8,4Z" />
    <path class="light-blue" d="M1.5,1H5V2H2V5H1V1.5Zm13,0H11V2h3V5h1V1.5ZM2,11H1v3.5l.5.5H5V14H2Zm12,3H11v1h3.5l.5-.5V11H14Z" />
  </g>
</svg>
