<svg xmlns="http://www.w3.org/2000/svg" viewBox="0 0 16 16">
  <defs>
    <style>.canvas{fill: none; opacity: 0;}.light-yellow-10{fill: #996f00; opacity: 0.1;}.light-yellow-25{fill: #996f00; opacity: 0.25;}.light-yellow{fill: #996f00; opacity: 1;}.white{fill: #ffffff; opacity: 1;}</style>
  </defs>
  <title>IconLightFolderOpenedWarning</title>
  <g id="canvas" class="canvas">
    <path class="canvas" d="M16,16H0V0H16Z" />
  </g>
  <g id="level-1">
    <path class="light-yellow-10" d="M13.5,3.5v2h-5l-1,1h-5l-2,6V2.5h5l1,1Z" />
    <path class="light-yellow-25" d="M7.44,12.5H.5l2-6h5l1-1h7l-1.3,4.537L12.53,7H10.47Z" />
    <path class="light-yellow-25" d="M13,7.853V6h1V9.668Z" />
    <path class="light-yellow" d="M15.408,5H14V3.5L13.5,3H6.707l-.853-.854L5.5,2H.5L0,2.5v10l.475.5H7.164l.551-1H1.168L2.835,7h4.64l.353-.146L8.682,6h6.076l-.907,3.4.7,1.266,1.343-5.035ZM13,5H8.475l-.354.146L7.268,6H2.475L2,6.342,1,9.421V3H5.293l.853.854L6.5,4H13Z" />
    <path class="light-yellow" d="M15.5,16h-8l-.439-.739,4-7.261h.878l4,7.261Z" />
    <path class="white" d="M12,13H11V10h1Zm.25,1.5a.75.75,0,1,1-.75-.75A.75.75,0,0,1,12.25,14.5Z" />
  </g>
</svg>
