<svg xmlns="http://www.w3.org/2000/svg" viewBox="0 0 16 16">
  <defs>
    <style>.canvas{fill: none; opacity: 0;}.light-defaultgrey-10{fill: #212121; opacity: 0.1;}.light-defaultgrey{fill: #212121; opacity: 1;}.light-yellow-10{fill: #996f00; opacity: 0.1;}.light-yellow{fill: #996f00; opacity: 1;}</style>
  </defs>
  <title>IconLightFolderBrowserDialogControl</title>
  <g id="canvas" class="canvas">
    <path class="canvas" d="M16,16H0V0H16Z" />
  </g>
  <g id="level-1">
    <path class="light-defaultgrey-10" d="M14.5,2.5v9H12V7.086L10.914,6H7.121l-.7-.7L5.7,5H3.5V2.5Z" />
    <path class="light-defaultgrey" d="M14.5,2H3.5L3,2.5V5H14v6H12v1h2.5l.5-.5v-9ZM14,4H4V3H14Z" />
    <path class="light-yellow-10" d="M10.5,7.5v6h-9v-7h4l1,1Z" />
    <path class="light-yellow" d="M10.5,7H6.707l-.853-.854L5.5,6h-4L1,6.5v7l.5.5h9l.5-.5v-6ZM5.293,7l.488.488L5.268,8H2V7ZM10,13H2V9H5.475l.354-.146L6.682,8H10Z" />
  </g>
</svg>
