<svg xmlns="http://www.w3.org/2000/svg" viewBox="0 0 16 16">
  <defs>
    <style>.canvas{fill: none; opacity: 0;}.light-defaultgrey-10{fill: #212121; opacity: 0.1;}.light-defaultgrey{fill: #212121; opacity: 1;}.light-blue{fill: #005dba; opacity: 1;}.cls-1{opacity:0.75;}</style>
  </defs>
  <title>IconLightFontDialogControl</title>
  <g id="canvas" class="canvas">
    <path class="canvas" d="M16,16H0V0H16Z" />
  </g>
  <g id="level-1">
    <g class="cls-1">
      <path class="light-defaultgrey-10" d="M14.5,4.5v9H1.5v-9Z" />
      <path class="light-defaultgrey" d="M14.5,4H1.5L1,4.5v9l.5.5h13l.5-.5v-9ZM14,13H2V5H14ZM13,8H9V7h4Zm0,1H9v1h4Zm0,2H12v1h1Zm-2,0H9v1h2Z" />
    </g>
    <path class="light-blue" d="M8.025,12H7.3l-.594-1.57H4.33L3.771,12h-.73L5.189,6.4h.68ZM6.49,9.84,5.611,7.453a2.388,2.388,0,0,1-.086-.375H5.51a2.156,2.156,0,0,1-.09.375L4.549,9.84Z" />
    <path class="light-defaultgrey" d="M14.5,2H1.5L1,2.5v2l.5.5h13l.5-.5v-2ZM14,4H2V3H14Z" />
  </g>
</svg>
