<svg xmlns="http://www.w3.org/2000/svg" viewBox="0 0 16 16">
  <defs>
    <style>.canvas{fill: none; opacity: 0;}.light-defaultgrey-10{fill: #212121; opacity: 0.1;}.light-defaultgrey{fill: #212121; opacity: 1;}</style>
  </defs>
  <title>IconLightForEachLoop</title>
  <g id="canvas">
    <path class="canvas" d="M16,16H0V0H16Z" />
  </g>
  <g id="level-1">
    <path class="light-defaultgrey-10" d="M5.5,14.5h-4V2.5h4Z" />
    <path class="light-defaultgrey" d="M13.5,4H8.707L9.854,2.854l-.708-.708-2,2v.708l2,2,.708-.708L8.707,5H13v7H6V2.5L5.5,2h-4L1,2.5v12l.5.5h4l.5-.5V13h7.5l.5-.5v-8ZM5,14H2V11H5Zm0-4H2V7H5ZM5,6H2V3H5Z" />
  </g>
</svg>
