<svg xmlns="http://www.w3.org/2000/svg" viewBox="0 0 16 16">
  <defs>
    <style>.canvas{fill: none; opacity: 0;}.light-defaultgrey-10{fill: #212121; opacity: 0.1;}.light-defaultgrey{fill: #212121; opacity: 1;}.light-red{fill: #c50b17; opacity: 1;}.white{fill: #ffffff; opacity: 1;}.cls-1{opacity:0.75;}</style>
  </defs>
  <title>IconLightForeignKeyConstraintError</title>
  <g id="canvas">
    <path class="canvas" d="M16,16H0V0H16Z" />
  </g>
  <g id="level-1">
    <g class="cls-1">
      <path class="light-defaultgrey-10" d="M7.255,13.5H.5V1.5h12v4l.5.6v1A5,5,0,0,0,7,12,4.942,4.942,0,0,0,7.255,13.5Z" />
      <path class="light-defaultgrey" d="M7.1,13H5V10H7.424a4.967,4.967,0,0,1,.6-1H5.066V6H12V7a5,5,0,0,1,1,.1V1.5l-.5.5H12V5H9V2H8V5H5V2H4V5H1V2H.5L0,1.5V14H7.424A4.91,4.91,0,0,1,7.1,13ZM4,13H1V10H4ZM4,9H1V6H4Z" />
    </g>
    <path class="light-defaultgrey" d="M7.424,10H4V5H9s.012,1.617.015,3.013A5.012,5.012,0,0,0,7.424,10ZM.5,2,0,1.5V.5L.5,0h12l.5.5v1l-.5.5Z" />
    <path class="light-red" d="M12,8a4,4,0,1,0,4,4A4,4,0,0,0,12,8Z" />
    <path class="white" d="M12.707,12l1.147,1.146-.708.708L12,12.707l-1.146,1.147-.708-.708L11.293,12l-1.147-1.146.708-.708L12,11.293l1.146-1.147.708.708Z" />
  </g>
</svg>
