<svg xmlns="http://www.w3.org/2000/svg" viewBox="0 0 16 16">
  <defs>
    <style>.canvas{fill: none; opacity: 0;}.light-defaultgrey-10{fill: #212121; opacity: 0.1;}.light-defaultgrey{fill: #212121; opacity: 1;}.cls-1{opacity:0.75;}</style>
  </defs>
  <title>IconLightFormTag</title>
  <g id="canvas">
    <path class="canvas" d="M16,16H0V0H16Z" />
  </g>
  <g id="level-1">
    <path class="light-defaultgrey-10" d="M11.5,6.5h-5v-2h5Z" />
    <g class="cls-1">
      <path class="light-defaultgrey-10" d="M14.5,16H.5L0,15.5V1.5L.5,1h14l.5.5v14Z" />
      <path class="light-defaultgrey" d="M14.5,16H14V15h1v.5ZM13,15H12v1h1Zm-2,0H10v1h1ZM9,15H8v1H9ZM7,15H6v1H7ZM5,15H4v1H5ZM1,15H0v.5l.5.5H1Zm0-4H0v1H1ZM1,9H0v1H1ZM1,7H0V8H1ZM1,5H0V6H1ZM1,3H0V4H1ZM1,1H.5L0,1.5V2H1ZM13,1H12V2h1ZM11,1H10V2h1ZM9,1H8V2H9ZM7,1H6V2H7ZM5,1H4V2H5ZM3,15H2v1H3ZM3,1H2V2H3Zm12,.5L14.5,1H14V2h1ZM15,11H14v1h1ZM1,13H0v1H1Zm14,0H14v1h1Zm0-4H14v1h1Zm0-2H14V8h1Zm0-2H14V6h1Zm0-2H14V4h1Z" />
    </g>
    <path class="light-defaultgrey" d="M11.5,7h-5L6,6.5v-2L6.5,4h5l.5.5v2ZM7,6h4V5H7Z" />
    <path class="light-defaultgrey" d="M12,10H6V9h6Zm0,3H6V12h6Z" />
    <path class="light-defaultgrey" d="M4,10H3V9H4Zm0,3H3V12H4ZM4,6H3V5H4Z" />
  </g>
</svg>
