<svg xmlns="http://www.w3.org/2000/svg" viewBox="0 0 16 16">
  <defs>
    <style>.canvas{fill: none; opacity: 0;}.light-defaultgrey{fill: #212121; opacity: 1;}.light-defaultgrey-10{fill: #212121; opacity: 0.1;}</style>
  </defs>
  <title>IconLightFormattingToolbar</title>
  <g id="canvas">
    <path class="canvas" d="M16,16H0V0H16Z" />
  </g>
  <g id="level-1">
    <path class="light-defaultgrey" d="M5.013,10.2V6H6.346a1.572,1.572,0,0,1,.965.267.826.826,0,0,1,.356.694.991.991,0,0,1-.2.621,1.087,1.087,0,0,1-.56.375v.012A1.092,1.092,0,0,1,7.6,8.29a.974.974,0,0,1,.259.7,1.056,1.056,0,0,1-.424.873A1.683,1.683,0,0,1,6.36,10.2ZM5.707,6.56v1.2h.451a.869.869,0,0,0,.571-.172A.6.6,0,0,0,6.935,7.1q0-.54-.721-.539Zm0,1.754V9.645H6.3a.905.905,0,0,0,.6-.181.617.617,0,0,0,.212-.5q0-.654-.9-.654ZM9.5,6l-1,4H8L9,6Zm6.166,0-1.151,4.2h-.788l-.8-2.938a2.038,2.038,0,0,1-.062-.41h-.011a2.022,2.022,0,0,1-.071.4l-.8,2.944h-.8L10,6h.765l.761,3.076a2.2,2.2,0,0,1,.059.4H11.6a2.219,2.219,0,0,1,.082-.4L12.543,6h.718l.8,3.1a2.489,2.489,0,0,1,.061.375h.012a2.31,2.31,0,0,1,.067-.387L14.945,6Z" />
    <path class="light-defaultgrey" d="M16,3V2H0V14H16V13H4V3ZM3,12H1V10H3ZM3,9.012H1v-2H3ZM3,6H1V4H3Z" />
    <path class="light-defaultgrey-10" d="M16,13.5H.5V2.5H16Z" />
  </g>
</svg>
