<svg xmlns="http://www.w3.org/2000/svg" viewBox="0 0 16 16">
  <defs>
    <style>.canvas{fill: none; opacity: 0;}.light-defaultgrey{fill: #212121; opacity: 1;}.light-defaultgrey-10{fill: #212121; opacity: 0.1;}.cls-1{opacity:0.75;}</style>
  </defs>
  <title>FormInstance</title>
  <g id="canvas">
    <path class="canvas" d="M16,16H0V0H16Z" />
  </g>
  <g id="level-1">
    <path class="light-defaultgrey" d="M3,9H2V8H3Zm7-1H4V9h6Zm0,2H4v1h6ZM3,10H2v1H3Zm2,2H2v1H5Zm5,0H7v1h3Z" />
    <path class="light-defaultgrey-10" d="M11.5,5.5v9H.5v-9Z" />
    <path class="light-defaultgrey" d="M11.5,5H.5L0,5.5v9l.5.5h11l.5-.5v-9ZM11,14H1V7H11Z" />
    <g class="cls-1">
      <path class="light-defaultgrey-10" d="M14.5,1.5v9H13V5.086L11.914,4H3.5V1.5Z" />
      <path class="light-defaultgrey" d="M15,1.5v9l-.5.5H13V10h1V3H4V4H3V1.5L3.5,1h11Z" />
    </g>
  </g>
</svg>
