<svg xmlns="http://www.w3.org/2000/svg" viewBox="0 0 16 16">
  <defs>
    <style>.canvas{fill: none; opacity: 0;}.light-defaultgrey{fill: #212121; opacity: 1;}.light-defaultgrey-10{fill: #212121; opacity: 0.1;}.light-blue-10{fill: #005dba; opacity: 0.1;}.light-blue{fill: #005dba; opacity: 1;}.cls-1{opacity:0.75;}</style>
  </defs>
  <title>IconLightFormatSelection</title>
  <g id="canvas">
    <path class="canvas" d="M16,16H0V0H16Z" />
  </g>
  <g id="level-1">
    <g class="cls-1">
      <path class="light-defaultgrey" d="M13.854,4.146l-3-3L10.5,1h-8L2,1.5v13l.5.5h11l.5-.5V4.5ZM3,14V2h7V5h3v9Z" />
      <path class="light-defaultgrey-10" d="M6.5,10h7v4.5H2.5V1.5h8l3,3V6h-7L6,6.5v3Z" />
    </g>
    <path class="light-blue-10" d="M13.5,9.5h-7v-3h7Z" />
    <path class="light-defaultgrey" d="M5,4H4V3H5ZM5,5H4V6H5ZM5,7H4V8H5ZM5,9H4v1H5Zm0,2H4v1H5Zm0,2H4v1H5Zm2-2H6v1H7Zm2,0H8v1H9Zm2,0H10v1h1Zm2,0H12v1h1Z" />
    <path class="light-blue" d="M13.5,10h-7L6,9.5v-3L6.5,6h7l.5.5v3ZM7,9h6V7H7Z" />
  </g>
</svg>
