<svg xmlns="http://www.w3.org/2000/svg" viewBox="0 0 16 16">
  <defs>
    <style>.canvas{fill: none; opacity: 0;}.light-defaultgrey-10{fill: #212121; opacity: 0.1;}.light-defaultgrey{fill: #212121; opacity: 1;}.cls-1{opacity:0.75;}</style>
  </defs>
  <title>IconLightFormPostBodyStringNode</title>
  <g id="canvas">
    <path class="canvas" d="M16,16H0V0H16Z" />
  </g>
  <g id="level-1">
    <g class="cls-1">
      <path class="light-defaultgrey-10" d="M13.5,1.5v12H12V9.086L10.914,8H3.5V1.5Z" />
      <path class="light-defaultgrey" d="M14,1.5v12l-.5.5H12V13h1V2H4V8H3V1.5L3.5,1h10Z" />
    </g>
    <path class="light-defaultgrey" d="M12,7V8H5V7Z" />
    <path class="light-defaultgrey" d="M12,5H6.561l.646.646L6.5,6.354,5,4.854V4.146l1.5-1.5.707.708L6.561,4H12Z" />
    <path class="light-defaultgrey" d="M10.5,16h-1V15H10V10H9.5V9h1l.5.5v6Z" />
    <path class="light-defaultgrey" d="M1.5,16H.5L0,15.5v-6L.5,9h1v1H1v5h.5Z" />
    <path class="light-defaultgrey" d="M6.059,13.723H6.035a1,1,0,0,1-.992.746,1.084,1.084,0,0,1-.869-.391A1.627,1.627,0,0,1,3.844,13,2.225,2.225,0,0,1,4.3,11.541a1.377,1.377,0,0,1,1.1-.561.676.676,0,0,1,.731.458h.015l.039-.387h.879q-.176,1.664-.175,2.176,0,.546.3.546.313,0,.516-.414a2.471,2.471,0,0,0,.2-1.082,2.032,2.032,0,0,0-.582-1.5A2.193,2.193,0,0,0,5.7,10.2a2.453,2.453,0,0,0-1.857.78,2.652,2.652,0,0,0-.74,1.9,2.255,2.255,0,0,0,.654,1.711,2.51,2.51,0,0,0,1.806.625,3.808,3.808,0,0,0,1.61-.336v.746a4.417,4.417,0,0,1-1.719.285,3.342,3.342,0,0,1-2.346-.826,2.86,2.86,0,0,1-.9-2.221,3.253,3.253,0,0,1,.965-2.39A3.35,3.35,0,0,1,5.652,9.5a3.352,3.352,0,0,1,2.276.752A2.494,2.494,0,0,1,8.8,12.234a2.389,2.389,0,0,1-.531,1.623,1.674,1.674,0,0,1-1.317.612.94.94,0,0,1-.629-.207A.741.741,0,0,1,6.059,13.723Zm-.52-2.063a.65.65,0,0,0-.572.4,1.888,1.888,0,0,0-.221.927.987.987,0,0,0,.15.584.462.462,0,0,0,.389.209.641.641,0,0,0,.578-.394,2.246,2.246,0,0,0,.211-1.055.757.757,0,0,0-.146-.492A.476.476,0,0,0,5.539,11.66Z" />
  </g>
</svg>
