<svg xmlns="http://www.w3.org/2000/svg" viewBox="0 0 16 16">
  <defs>
    <style>.canvas{fill: none; opacity: 0;}.light-defaultgrey-10{fill: #212121; opacity: 0.1;}.light-defaultgrey{fill: #212121; opacity: 1;}.light-blue{fill: #005dba; opacity: 1;}.cls-1{opacity:0.75;}</style>
  </defs>
  <title>FormatPageLeft</title>
  <g id="canvas">
    <path class="canvas" d="M16,16H0V0H16Z" />
  </g>
  <g id="level-1">
    <g class="cls-1">
      <path class="light-defaultgrey-10" d="M14,7V5.5l-3.5-4h-8v13H14V10h-.88l.65.65-2.12,2.12-3.5-3.5V7.73l3.5-3.5,2.12,2.12L13.12,7Z" />
      <path class="light-defaultgrey" d="M14,10v4.5l-.5.5H2.5L2,14.5V1.5L2.5,1h8l.354.146,3,3L14,4.5V7H13V5H10V2H3V14H13V10Z" />
    </g>
    <path class="light-blue" d="M16,8V9H10.707l1.647,1.646-.708.708-2.5-2.5V8.146l2.5-2.5.708.708L10.707,8Z" />
  </g>
</svg>
