<svg xmlns="http://www.w3.org/2000/svg" viewBox="0 0 16 16">
  <defs>
    <style>.canvas{fill: none; opacity: 0;}.light-defaultgrey-10{fill: #212121; opacity: 0.1;}.light-defaultgrey{fill: #212121; opacity: 1;}</style>
  </defs>
  <title>IconLightFrameSet</title>
  <g id="canvas">
    <path class="canvas" d="M16,16H0V0H16Z" />
  </g>
  <g id="level-1">
    <path class="light-defaultgrey-10" d="M14.5,14H.5L0,13.5V1.5L.5,1h14l.5.5v12Z" />
    <path class="light-defaultgrey" d="M14.5,14H14V13h1v.5ZM11,13H10v1h1ZM9,13H8v1H9ZM7,13H6v1H7ZM5,13H4v1H5ZM3,13H2v1H3ZM1,13H0v.5l.5.5H1Zm0-2H0v1H1ZM1,9H0v1H1ZM1,7H0V8H1ZM1,5H0V6H1ZM1,3H0V4H1Zm4,8H4v1H5ZM5,9H4v1H5ZM5,7H4V8H5ZM5,5H4V6H5ZM5,3H4V4H5ZM1,1H.5L0,1.5V2H1ZM11,1H10V2h1Zm2,0H12V2h1Zm0,12H12v1h1ZM9,1H8V2H9ZM7,1H6V2H7ZM5,1H4V2H5ZM3,1H2V2H3Zm8,4H10V6h1Zm2,0H12V6h1ZM9,5H8V6H9ZM7,5H6V6H7ZM3,5H2V6H3ZM15,1.5,14.5,1H14V2h1ZM15,11H14v1h1Zm0-2H14v1h1Zm0-2H14V8h1Zm0-2H14V6h1Zm0-2H14V4h1Z" />
  </g>
</svg>
