<svg xmlns="http://www.w3.org/2000/svg" viewBox="0 0 16 16">
  <defs>
    <style>.canvas{fill: none; opacity: 0;}.light-defaultgrey-10{fill: #212121; opacity: 0.1;}.light-defaultgrey{fill: #212121; opacity: 1;}.light-red{fill: #c50b17; opacity: 1;}.white{fill: #ffffff; opacity: 1;}</style>
  </defs>
  <title>IconLightFrameworkError</title>
  <g id="canvas">
    <path class="canvas" d="M16,16H0V0H16Z" />
  </g>
  <g id="level-1">
    <path class="light-defaultgrey-10" d="M6.808,11H6V4h8V7.583A4.935,4.935,0,0,0,11.707,7H13V5H11V7h.707A4.942,4.942,0,0,0,10,7.32V6H7V9h.733A4.954,4.954,0,0,0,6.808,11Z" />
    <path class="light-defaultgrey" d="M11,5h2V7H11ZM7,9h.733A4.988,4.988,0,0,1,10,7.32V6H7Zm7-6H6L5,4V7H4V6H1V9H4V8H5v3l1,1h.707a5,5,0,0,1,.1-1H6V4h8V7.583a4.985,4.985,0,0,1,1,.684V4Z" />
    <path class="light-red" d="M11.707,8a4,4,0,1,0,4,4A4,4,0,0,0,11.707,8Z" />
    <path class="white" d="M12.414,12l1.147,1.146-.707.708-1.147-1.147-1.146,1.147-.707-.708L11,12,9.854,10.854l.707-.708,1.146,1.147,1.147-1.147.707.708Z" />
  </g>
</svg>
