<svg xmlns="http://www.w3.org/2000/svg" viewBox="0 0 16 16">
  <defs>
    <style>.canvas{fill: none; opacity: 0;}.light-defaultgrey-10{fill: #212121; opacity: 0.1;}.light-defaultgrey{fill: #212121; opacity: 1;}.light-blue-10{fill: #005dba; opacity: 0.1;}.light-blue{fill: #005dba; opacity: 1;}</style>
  </defs>
  <title>IconLightFrameworkDesignStudio</title>
  <g id="canvas">
    <path class="canvas" d="M16,16H0V0H16Z" />
  </g>
  <g id="level-1">
    <path class="light-defaultgrey-10" d="M6.286,13.5H1.5V2.5h13V5.378c-.021,0-.04,0-.061,0a2.536,2.536,0,0,0-1.807.748L7.263,11.489Z" />
    <path class="light-defaultgrey" d="M6.043,14H1.5L1,13.5V2.5L1.5,2h13l.5.5V5.439a2.547,2.547,0,0,0-.561-.066A2.665,2.665,0,0,0,14,5.415V4H2v9H6.529Z" />
    <path class="light-defaultgrey" d="M10.752,8H7V7h4.752ZM7.015,12H3V11H7.752l-.489.489Zm5.763-6H7V5h6v.818A2.521,2.521,0,0,0,12.778,6ZM8.752,10H3V9H9v.752Z" />
    <path class="light-blue-10" d="M15.192,8.681,9.635,14.238,8.153,12.72l5.539-5.539a1.059,1.059,0,0,1,1.5,0A1.062,1.062,0,0,1,15.192,8.681Z" />
    <path class="light-blue" d="M15.543,6.83a1.56,1.56,0,0,0-2.2,0l-5.25,5.25L6.511,15.326,7.186,16l2.995-1.629,5.365-5.336A1.562,1.562,0,0,0,15.543,6.83Zm-.7,1.5-5.2,5.2-.783-.8,5.19-5.189a.56.56,0,0,1,.792.793Z" />
  </g>
</svg>
