<svg xmlns="http://www.w3.org/2000/svg" viewBox="0 0 16 16">
  <defs>
    <style>.canvas{fill: none; opacity: 0;}.light-defaultgrey-10{fill: #212121; opacity: 0.1;}.light-defaultgrey{fill: #212121; opacity: 1;}.light-purple{fill: #6936aa; opacity: 1;}.cls-1{opacity:0.75;}</style>
  </defs>
  <title>IconLightFSBlankApplication</title>
  <g id="canvas" class="canvas">
    <path class="canvas" d="M16,16H0V0H16Z" />
  </g>
  <g id="level-1">
    <g class="cls-1">
      <path class="light-defaultgrey-10" d="M14,3V5H2V3Z" />
      <path class="light-defaultgrey-10" d="M14.5,5v8h-6l1,1H9.414L1,5.586V5.5l.5.5V5ZM1,11.414V13l1,1H3.586Z" />
      <path class="light-defaultgrey" d="M14.5,2H1.5L1,2.5V5.586l1,1V6H14v7H8.414l1,1H14.5l.5-.5V2.5ZM2,5V3H14V5Zm.586,8,1,1H1.5L1,13.5V11.414l1,1V13Z" />
    </g>
    <path class="light-purple" d="M5,14,1,10V7l7,7Z" />
  </g>
</svg>
