<svg xmlns="http://www.w3.org/2000/svg" viewBox="0 0 16 16">
  <defs>
    <style>.canvas{fill: none; opacity: 0;}.light-defaultgrey-10{fill: #212121; opacity: 0.1;}.light-defaultgrey{fill: #212121; opacity: 1;}.light-purple{fill: #6936aa; opacity: 1;}.cls-1{opacity:0.75;}</style>
  </defs>
  <title>FSProjectNode</title>
  <g id="canvas" class="canvas">
    <path class="canvas" d="M16,16H0V0H16Zm0,0H0V0H16Z" />
  </g>
  <g id="level-1">
    <g class="cls-1">
      <path class="light-defaultgrey-10" d="M14.5,2.5v11H1.5V2.5Z" />
      <path class="light-defaultgrey" d="M14.5,2H1.5L1,2.5v11l.5.5h13l.5-.5V2.5ZM14,13H2V3H14Z" />
    </g>
    <path class="light-purple" d="M12,7V8h1V9H12v1H11V9H10v1H9V9H8V8H9V7H8V6H9V5h1V6h1V5h1V6h1V7ZM11,7H10V8h1Z" />
    <path class="light-purple" d="M7.238,5.845H5V8H7.063v.841H5V11H4V5H7.238Z" />
  </g>
</svg>
