<svg xmlns="http://www.w3.org/2000/svg" viewBox="0 0 16 16">
  <defs>
    <style>.canvas{fill: none; opacity: 0;}.light-purple-10{fill: #6936aa; opacity: 0.1;}.light-purple{fill: #6936aa; opacity: 1;}</style>
  </defs>
  <title>IconLightFSWCF</title>
  <g id="canvas" class="canvas">
    <path class="canvas" d="M16,16H0V0H16Z" />
  </g>
  <g id="level-1">
    <path class="light-purple-10" d="M9.5,7.5a4,4,0,1,1-4-4A4.012,4.012,0,0,1,9.5,7.5Z" />
    <path class="light-purple" d="M5.5,3A4.5,4.5,0,1,0,10,7.5,4.481,4.481,0,0,0,5.5,3Zm0,8A3.543,3.543,0,0,1,2,7.5,3.543,3.543,0,0,1,5.5,4,3.543,3.543,0,0,1,9,7.5,3.543,3.543,0,0,1,5.5,11Z" />
    <path class="light-purple" d="M7,7.5A1.538,1.538,0,0,1,5.5,9,1.538,1.538,0,0,1,4,7.5,1.538,1.538,0,0,1,5.5,6,1.538,1.538,0,0,1,7,7.5Z" />
    <path class="light-purple" d="M15.354,7.146v.708l-2,2-.708-.708L13.793,8H9.75V7h4.043L12.646,5.854l.708-.708Z" />
    <path class="light-purple" d="M13,1.5V4.25H12V2.707L9.354,5.354l-.708-.708L11.293,2H9.75V1H12.5Z" />
    <path class="light-purple" d="M13,10.75V13.5l-.5.5H9.75V13h1.543L8.646,10.354l.708-.708L12,12.293V10.75Z" />
  </g>
</svg>
