<svg xmlns="http://www.w3.org/2000/svg" viewBox="0 0 16 16">
  <defs>
    <style>.canvas{fill: none; opacity: 0;}.light-defaultgrey-10{fill: #212121; opacity: 0.1;}.light-defaultgrey{fill: #212121; opacity: 1;}.light-purple-10{fill: #6936aa; opacity: 0.1;}.light-purple{fill: #6936aa; opacity: 1;}</style>
  </defs>
  <title>IconLightFSWorkerTemplateFile</title>
  <g id="canvas" class="canvas">
    <path class="canvas" d="M16,16H0V0H16Z" />
  </g>
  <g id="level-1">
    <path class="light-defaultgrey-10" d="M13.5,4.5v9H8V14H7.724A4.445,4.445,0,0,0,8,12.5,4.5,4.5,0,0,0,3.5,8V1.5h7Z" />
    <path class="light-defaultgrey" d="M14,4.5v9l-.5.5H7.725a4.485,4.485,0,0,0,.225-1H13V5H10V2H4V8.03A4.345,4.345,0,0,0,3.5,8a4.576,4.576,0,0,0-.5.05V1.5L3.5,1h7l.354.146,3,3Z" />
    <path class="light-purple-10" d="M5.5,12.5a2,2,0,1,1-2-2A2,2,0,0,1,5.5,12.5Z" />
    <path class="light-purple" d="M7,13V12H5.949a2.473,2.473,0,0,0-.365-.876l.745-.745-.707-.707-.745.745A2.469,2.469,0,0,0,4,10.051V9H3v1.051a2.469,2.469,0,0,0-.877.366l-.745-.745-.707.707.745.745A2.473,2.473,0,0,0,1.051,12H0v1H1.051a2.473,2.473,0,0,0,.365.876l-.745.745.707.707.745-.745A2.469,2.469,0,0,0,3,14.949V16H4V14.949a2.469,2.469,0,0,0,.877-.366l.745.745.707-.707-.745-.745A2.473,2.473,0,0,0,5.949,13ZM3.5,14A1.5,1.5,0,1,1,5,12.5,1.5,1.5,0,0,1,3.5,14Z" />
  </g>
</svg>
