<svg xmlns="http://www.w3.org/2000/svg" viewBox="0 0 16 16">
  <defs>
    <style>.canvas{fill: none; opacity: 0;}.light-defaultgrey{fill: #212121; opacity: 1;}.light-blue-10{fill: #005dba; opacity: 0.1;}.light-blue{fill: #005dba; opacity: 1;}.cls-1{opacity:0.75;}</style>
  </defs>
  <title>IconLightFTPConnection</title>
  <g id="canvas">
    <path class="canvas" d="M16,16H0V0H16Z" />
  </g>
  <g id="level-1">
    <path class="light-defaultgrey" d="M15,13v1H9V12.5l.5-.5V10.949A4.865,4.865,0,0,0,10,11a4.865,4.865,0,0,0,.5-.051V12l.5.5V13Z" />
    <g class="cls-1">
      <path class="light-blue-10" d="M14.5,6A4.469,4.469,0,0,1,8,10.012V8H5.988A4.493,4.493,0,1,1,14.5,6Z" />
      <path class="light-blue" d="M10,1A5.006,5.006,0,0,0,5,6a4.95,4.95,0,0,0,.424,2H8v.645A7.788,7.788,0,0,0,8.487,9.7,3.789,3.789,0,0,1,8,9.448v1.128A4.95,4.95,0,0,0,10,11,5,5,0,0,0,10,1Zm3.444,3H12.225a7.486,7.486,0,0,0-.712-1.7A4.011,4.011,0,0,1,13.444,4ZM9.891,2.011C9.928,2.01,9.963,2,10,2s.072.01.11.011A6.54,6.54,0,0,1,11.168,4H8.832A6.5,6.5,0,0,1,9.891,2.011ZM7.574,7H6.142A3.939,3.939,0,0,1,6,6a3.939,3.939,0,0,1,.142-1H7.574A7.583,7.583,0,0,0,7.5,6,7.583,7.583,0,0,0,7.574,7Zm.2-3H6.556A4.011,4.011,0,0,1,8.487,2.3,7.486,7.486,0,0,0,7.775,4Zm2.332,5.989c-.036,0-.07.011-.107.011s-.072-.01-.109-.011A6.5,6.5,0,0,1,8.832,8h2.336A6.5,6.5,0,0,1,10.107,9.989ZM11.412,7H8.588A6.419,6.419,0,0,1,8.5,6a6.419,6.419,0,0,1,.088-1h2.824A6.419,6.419,0,0,1,11.5,6,6.419,6.419,0,0,1,11.412,7Zm.1,2.7A7.534,7.534,0,0,0,12.226,8h1.218A4.011,4.011,0,0,1,11.513,9.7ZM12.426,7A7.583,7.583,0,0,0,12.5,6a7.583,7.583,0,0,0-.074-1h1.432A3.939,3.939,0,0,1,14,6a3.939,3.939,0,0,1-.142,1Z" />
    </g>
    <path class="light-blue" d="M2.146,7.146l.708.708L1.707,9H7v1H1.707l1.147,1.146-.708.708-2-2V9.146ZM1,13H6.293L5.146,11.854l.708-.708,2,2v.708l-2,2-.708-.708L6.293,14H1Z" />
  </g>
</svg>
