<svg xmlns="http://www.w3.org/2000/svg" viewBox="0 0 16 16">
  <defs>
    <style>.canvas{fill: none; opacity: 0;}.light-blue-10{fill: #005dba; opacity: 0.1;}.light-blue{fill: #005dba; opacity: 1;}.cls-1{opacity:0.75;}</style>
  </defs>
  <title>IconLightFTPSites</title>
  <g id="canvas">
    <path class="canvas" d="M16,16H0V0H16Z" />
  </g>
  <g id="level-1">
    <g class="cls-1">
      <path class="light-blue-10" d="M14.5,8a6.5,6.5,0,0,1-5.846,6.467l.2-.2V12.732L8,11.879H8V8H4.414L2.146,5.732l-.361.361A6.5,6.5,0,0,1,14.5,8Z" />
      <path class="light-blue" d="M8,1A7.007,7.007,0,0,0,1.116,6.763l1.03-1.031L2.414,6H4.7a10.514,10.514,0,0,0-.2,2h1a9.487,9.487,0,0,1,.222-2h4.556A9.487,9.487,0,0,1,10.5,8a9.487,9.487,0,0,1-.222,2H8v1h2.005a9.524,9.524,0,0,1-1.151,2.33v.938l-.726.726A7,7,0,0,0,8,1ZM4.946,5H2.812a6.023,6.023,0,0,1,3.4-2.727A10.517,10.517,0,0,0,4.946,5ZM6,5A9.481,9.481,0,0,1,7.628,2.019C7.752,2.011,7.874,2,8,2s.249.011.373.019A9.479,9.479,0,0,1,10.005,5ZM9.789,2.273A6.021,6.021,0,0,1,13.188,5H11.053A10.484,10.484,0,0,0,9.789,2.273Zm0,11.454A10.484,10.484,0,0,0,11.053,11h2.135A6.021,6.021,0,0,1,9.789,13.727ZM11.3,10a10.2,10.2,0,0,0,0-4H13.65a5.889,5.889,0,0,1,0,4Z" />
    </g>
    <path class="light-blue" d="M2.146,7.146l.708.708L1.707,9H7v1H1.707l1.147,1.146-.708.708-2-2V9.146ZM1,13H6.293L5.146,11.854l.708-.708,2,2v.708l-2,2-.708-.708L6.293,14H1Z" />
  </g>
</svg>
