<svg xmlns="http://www.w3.org/2000/svg" viewBox="0 0 16 16">
  <defs>
    <style>.canvas{fill: none; opacity: 0;}.light-defaultgrey{fill: #212121; opacity: 1;}</style>
  </defs>
  <title>IconLightFunctionMissing</title>
  <g id="canvas">
    <path class="canvas" d="M16,16H0V0H16Z" />
  </g>
  <g id="level-1">
    <path class="light-defaultgrey" d="M8.494,7.932a10.655,10.655,0,0,1-1.11,1.513c-.454.5-1,.508-1.244.29a.553.553,0,0,1-.1-.631.562.562,0,0,1,.368-.29c.446-.1.489.021.893.129A6.5,6.5,0,0,0,8.383,7.52a6.014,6.014,0,0,0-.727-2.08C7.448,5.258,7.2,5.317,5.3,5.332c-.962,4.5-.895,4.412-1.211,5.028a2.565,2.565,0,0,1-2.528,1.618.718.718,0,0,1-.474-.273.579.579,0,0,1,.05-.67.52.52,0,0,1,.625-.1,1.6,1.6,0,0,1,.541.658.79.79,0,0,0,.581-.4,2.961,2.961,0,0,0,.362-.792c.171-.589.061-.132,1.122-5.067H3.383l.111-.452H4.46a4.432,4.432,0,0,1,.368-1.244C5.641,1.9,7.363,1.707,7.814,2.307a.632.632,0,0,1-.045.681.573.573,0,0,1-.675.1c-.231-.132-.331-.391-.5-.664-.731.04-.98,1.406-1.133,2.076-.037.164-.061.292-.072.385,2.292-.041,2.488-.2,2.835-.034a.944.944,0,0,1,.463.542,9.5,9.5,0,0,1,.357,1.333v.017l0,.017c.5-.786,1.05-1.965,1.982-2.009.656,0,.79,1.042-.14,1.083a2.159,2.159,0,0,1-.642-.14,6.29,6.29,0,0,0-1.1,1.457,6.6,6.6,0,0,0,.53,1.741.845.845,0,0,0,.6.413l-.564.564a1.06,1.06,0,0,1-.4-.062C8.945,9.638,8.815,9.246,8.494,7.932Z" />
    <path class="light-defaultgrey" d="M12.293,13l-2.147-2.146.708-.708L13,12.293l2.146-2.147.708.708L13.707,13l2.147,2.146-.708.708L13,13.707l-2.146,2.147-.708-.708Z" />
  </g>
</svg>
