<svg xmlns="http://www.w3.org/2000/svg" viewBox="0 0 16 16">
  <defs>
    <style>.canvas{fill: none; opacity: 0;}.light-defaultgrey{fill: #212121; opacity: 1;}</style>
  </defs>
  <title>IconLightFuzzyGrouping</title>
  <g id="canvas">
    <path class="canvas" d="M16,16H0V0H16Z" />
  </g>
  <g id="level-1">
    <path class="light-defaultgrey" d="M3.913,10v1H3.079V10ZM3.93,4a1.771,1.771,0,0,1,.236-.928A1.05,1.05,0,0,1,5,2.693V1.969a2,2,0,0,0-1.439.523A2.124,2.124,0,0,0,3.082,4ZM3.8,7H2.908a1.043,1.043,0,0,1-.895.677v.615a1.032,1.032,0,0,1,.8.458,1.42,1.42,0,0,1,.1.25H3.8a1.342,1.342,0,0,0-.9-1V7.971A1.321,1.321,0,0,0,3.8,7ZM3.079,5V6h.834V5Zm1.073,7.906a1.2,1.2,0,0,1-.184-.465A3.151,3.151,0,0,1,3.922,12H3.083a2.089,2.089,0,0,0,.478,1.48A2.013,2.013,0,0,0,5,14v-.718a1.365,1.365,0,0,1-.513-.1A.83.83,0,0,1,4.152,12.906ZM12.087,10v1h.834V10Zm.831-6a2.124,2.124,0,0,0-.479-1.508A2,2,0,0,0,11,1.969v.724a1.05,1.05,0,0,1,.834.379A1.771,1.771,0,0,1,12.07,4ZM13.1,7.971V8a1.342,1.342,0,0,0-.9,1h.885a1.42,1.42,0,0,1,.1-.25,1.032,1.032,0,0,1,.8-.458V7.677A1.043,1.043,0,0,1,13.092,7h-.887A1.321,1.321,0,0,0,13.1,7.971ZM12.087,5V6h.834V5Zm-.574,8.184a1.365,1.365,0,0,1-.513.1V14a2.013,2.013,0,0,0,1.439-.52A2.089,2.089,0,0,0,12.917,12h-.839a3.151,3.151,0,0,1-.046.441,1.2,1.2,0,0,1-.184.465A.83.83,0,0,1,11.513,13.184Z" />
  </g>
</svg>
