<svg xmlns="http://www.w3.org/2000/svg" viewBox="0 0 16 16">
  <defs>
    <style>.canvas{fill: none; opacity: 0;}.light-defaultgrey-10{fill: #212121; opacity: 0.1;}.light-defaultgrey{fill: #212121; opacity: 1;}.cls-1{opacity:0.75;}</style>
  </defs>
  <title>IconLightFXGFile</title>
  <g id="canvas">
    <path class="canvas" d="M16,16H0V0H16Z" />
  </g>
  <g id="level-1">
    <g class="cls-1">
      <path class="light-defaultgrey-10" d="M13.5,3.5V10H2.5V.5h8Z" />
      <path class="light-defaultgrey" d="M14,3.5v10l-.5.5H13V4H10V1H3v9H2V.5L2.5,0h8l.354.146,3,3Z" />
    </g>
    <path class="light-defaultgrey" d="M2.646,11.789H.813v1.473H2.5v.687H.813V16H0V11.1H2.646ZM7.286,16H6.312l-1-1.8a1.859,1.859,0,0,1-.1-.232H5.194c-.02.05-.054.127-.1.232L4.056,16H3.075l1.607-2.464L3.205,11.1h1l.885,1.654c.057.109.108.219.154.328h.01c.066-.144.123-.257.171-.342l.919-1.64h.916l-1.51,2.43Zm4.376-.412A3.456,3.456,0,0,1,9.978,16a2.344,2.344,0,0,1-1.737-.668,2.4,2.4,0,0,1-.665-1.768A2.485,2.485,0,0,1,8.3,11.72,2.517,2.517,0,0,1,10.15,11a3.452,3.452,0,0,1,1.357.236v.827a2.342,2.342,0,0,0-1.326-.371,1.685,1.685,0,0,0-1.267.509A1.813,1.813,0,0,0,8.42,13.52a1.9,1.9,0,0,0,.425,1.311A1.466,1.466,0,0,0,10,15.308a1.83,1.83,0,0,0,.864-.192v-1.15H9.843v-.675h1.819Z" />
  </g>
</svg>
