<svg xmlns="http://www.w3.org/2000/svg" viewBox="0 0 16 16">
  <defs>
    <style>.canvas{fill: none; opacity: 0;}.light-defaultgrey{fill: #212121; opacity: 1;}.light-defaultgrey-10{fill: #212121; opacity: 0.1;}</style>
  </defs>
  <title>IconLightGallery</title>
  <g id="canvas">
    <path class="canvas" d="M16,16H0V0H16Z" />
  </g>
  <g id="level-1">
    <path class="light-defaultgrey" d="M5,9H4V8H5ZM6,8V9h6V8ZM5,12H4V11H5Zm1-1v1h6V11Z" />
    <path class="light-defaultgrey-10" d="M13.5,6.5v7H2.5v-7Z" />
    <path class="light-defaultgrey" d="M13.5,6H2.5L2,6.5v7l.5.5h11l.5-.5v-7ZM13,13H3V7H13Z" />
    <path class="light-defaultgrey-10" d="M8.5,2.5v2h-6v-2Z" />
    <path class="light-defaultgrey" d="M8.5,2h-6L2,2.5v2l.5.5h6L9,4.5v-2ZM8,4H3V3H8Z" />
  </g>
</svg>
