<svg xmlns="http://www.w3.org/2000/svg" viewBox="0 0 16 16">
  <defs>
    <style>.canvas{fill: none; opacity: 0;}.light-defaultgrey{fill: #212121; opacity: 1;}.light-defaultgrey-10{fill: #212121; opacity: 0.1;}.light-lightblue-10{fill: #0077a0; opacity: 0.1;}.light-lightblue{fill: #0077a0; opacity: 1;}.cls-1{opacity:0.75;}</style>
  </defs>
  <title>IconLightGanttChart</title>
  <g id="canvas">
    <path class="canvas" d="M16,16H0V0H16Z" />
  </g>
  <g id="level-1">
    <g class="cls-1">
      <path class="light-defaultgrey" d="M15,14v1H1.5L1,14.5V1H2V14Z" />
    </g>
    <path class="light-defaultgrey-10" d="M8.5,2.5v2h-5v-2Z" />
    <path class="light-defaultgrey" d="M8.5,2h-5L3,2.5v2l.5.5h5L9,4.5v-2ZM8,4H4V3H8Z" />
    <path class="light-defaultgrey-10" d="M14.5,10.5v2h-7v-2Z" />
    <path class="light-defaultgrey" d="M14.5,10h-7l-.5.5v2l.5.5h7l.5-.5v-2ZM14,12H8V11h6Z" />
    <path class="light-lightblue-10" d="M11.5,6.5v2h-6v-2Z" />
    <path class="light-lightblue" d="M11.5,6h-6L5,6.5v2l.5.5h6l.5-.5v-2ZM11,8H6V7h5Z" />
  </g>
</svg>
