<svg xmlns="http://www.w3.org/2000/svg" viewBox="0 0 16 16">
  <defs>
    <style>.canvas{fill: none; opacity: 0;}.light-defaultgrey-10{fill: #212121; opacity: 0.1;}.light-defaultgrey{fill: #212121; opacity: 1;}.cls-1{opacity:0.75;}</style>
  </defs>
  <title>IconLightGenericOnlineTemplate</title>
  <g id="canvas">
    <path class="canvas" d="M16,16H0V0H16Z" />
  </g>
  <g id="level-1">
    <path class="light-defaultgrey-10" d="M7.5,11A3.5,3.5,0,1,1,11,14.5,3.5,3.5,0,0,1,7.5,11Z" />
    <path class="light-defaultgrey" d="M11,7a3.863,3.863,0,0,0-.563.057h-.012A3.9,3.9,0,1,0,11,7Zm0,7a2.993,2.993,0,0,1-1-5.816V11l.146.354.5.5L11,12h2.816A3,3,0,0,1,11,14Z" />
    <path class="light-defaultgrey-10" d="M6.05,11.5H1.5v-7h7V6.694A4.978,4.978,0,0,0,6,11C6,11.171,6.034,11.333,6.05,11.5Z" />
    <path class="light-defaultgrey" d="M6.1,12H1.5L1,11.5v-7L1.5,4h7l.5.5V6.422a4.935,4.935,0,0,0-1,.6V6H2v5H6A4.988,4.988,0,0,0,6.1,12ZM5,9H6.422A4.968,4.968,0,0,0,6.1,10H5ZM3,9H4v1H3ZM5,7V8H7V7ZM4,8H3V7H4Z" />
    <g class="cls-1">
      <path class="light-defaultgrey" d="M6,3V1.5L6.5,1h7l.5.5V7.023a4.935,4.935,0,0,0-1-.6V3Zm4,2h2V4H10Zm2,1H11a4.988,4.988,0,0,1,1,.1Zm-2,.1A4.988,4.988,0,0,1,11,6H10Z" />
      <path class="light-defaultgrey-10" d="M13.5,1.5V6.694A4.853,4.853,0,0,0,10,6.1V4.086L8.914,3H6.5V1.5Z" />
    </g>
  </g>
</svg>
