<svg xmlns="http://www.w3.org/2000/svg" viewBox="0 0 16 16">
  <defs>
    <style>.canvas{fill: none; opacity: 0;}.light-blue-10{fill: #005dba; opacity: 0.1;}.light-defaultgrey-10{fill: #212121; opacity: 0.1;}.light-defaultgrey{fill: #212121; opacity: 1;}.light-blue{fill: #005dba; opacity: 1;}</style>
  </defs>
  <title>IconLightGenerateChangeScript</title>
  <g id="canvas">
    <path class="canvas" d="M16,16H0V0H16Z" />
  </g>
  <g id="level-1">
    <path class="light-blue-10" d="M.5,1.5h5l2,2v5H.5Z" />
    <path class="light-defaultgrey-10" d="M14.5,5V6.5h-3V13A1.5,1.5,0,0,1,10,14.5H3A1.5,1.5,0,0,1,1.5,13v-.5h3V10H7.914L9,8.914V3.5h4A1.5,1.5,0,0,1,14.5,5Z" />
    <path class="light-defaultgrey" d="M13,3H8.875L9,3.3V4h2.278A1.978,1.978,0,0,0,11,5v8a1,1,0,0,1-2,0v-.5L8.5,12H5V10H4v2H1.5l-.5.5V13a2,2,0,0,0,2,2h7a2,2,0,0,0,2-2V7h2.5l.5-.5V5A2,2,0,0,0,13,3ZM3,14a1,1,0,0,1-1-1H8a1.984,1.984,0,0,0,.269,1ZM14,6H12V5a1,1,0,0,1,2,0Z" />
    <path class="light-blue" d="M7.854,3.146l-2-2L5.5,1H.5L0,1.5v7L.5,9h7L8,8.5v-5ZM3,2H4V4H3ZM7,8H1V2H2V4.5l.5.5h2L5,4.5V2h.293L7,3.707Z" />
  </g>
</svg>
