<svg xmlns="http://www.w3.org/2000/svg" viewBox="0 0 16 16">
  <defs>
    <style>.canvas{fill: none; opacity: 0;}.light-defaultgrey-10{fill: #212121; opacity: 0.1;}.light-defaultgrey{fill: #212121; opacity: 1;}.light-blue{fill: #005dba; opacity: 1;}.cls-1{opacity:0.75;}</style>
  </defs>
  <title>IconLightGenerateTable</title>
  <g id="canvas">
    <path class="canvas" d="M16,16H0V0H16Z" />
  </g>
  <g id="level-1">
    <g class="cls-1">
      <path class="light-defaultgrey-10" d="M14.5,6v8.5H2.5V6Z" />
      <path class="light-defaultgrey" d="M14.5,6H14V8H11V6H10V8H7V6H6V8H3V6H2.5L2,5.5v9l.5.5h12l.5-.5v-9ZM6,14H3V12H6Zm0-3H3V9H6Zm4,3H7V12h3Zm0-3H7V9h3Zm4,3H11V12h3Zm0-3H11V9h3Z" />
    </g>
    <path class="light-defaultgrey-10" d="M14.5,3.5v2H4.621l2-2Z" />
    <path class="light-defaultgrey" d="M2,4.414,3.586,6H2.5L2,5.5ZM14.5,3l.5.5v2l-.5.5H4.121l1-1H14V4H6.121l.733-.732V3Z" />
    <path class="light-blue" d="M4.293,2,3.146.854,3.854.146l2,2v.708l-2,2-.708-.708L4.293,3H0V2Z" />
  </g>
</svg>
