<svg xmlns="http://www.w3.org/2000/svg" viewBox="0 0 16 16">
  <defs>
    <style>.canvas{fill: none; opacity: 0;}.light-defaultgrey-10{fill: #212121; opacity: 0.1;}.light-defaultgrey{fill: #212121; opacity: 1;}.light-blue{fill: #005dba; opacity: 1;}</style>
  </defs>
  <title>IconLightGetDictionary</title>
  <g id="canvas">
    <path class="canvas" d="M16,16H0V0H16Z" />
  </g>
  <g id="level-1">
    <path class="light-defaultgrey-10" d="M10.5,14a2.876,2.876,0,0,1-1.45-.39l-.071-.041L8.9,13.553a2,2,0,0,0-.4-.04H5.707L5.5,13.306V5.72l.207-.207H8.5a1.979,1.979,0,0,1,1.6.814l.4.539.4-.539a1.979,1.979,0,0,1,1.6-.814h2.793l.207.207v7.586l-.207.207H12.5a2,2,0,0,0-.4.04l-.081.016-.071.041a2.972,2.972,0,0,1-.507.233A2.906,2.906,0,0,1,10.5,14Z" />
    <path class="light-defaultgrey" d="M15.5,5.013h-3a2.489,2.489,0,0,0-2,1.015,2.489,2.489,0,0,0-2-1.015h-3l-.5.5v8l.5.5h3a1.472,1.472,0,0,1,.3.03,3.35,3.35,0,0,0,.6.272,3.394,3.394,0,0,0,2.212,0,3.35,3.35,0,0,0,.6-.272,1.472,1.472,0,0,1,.3-.03h3l.5-.5v-8Zm-5.5,8.5h0a2.482,2.482,0,0,0-1.5-.5H6v-7H8.5a1.5,1.5,0,0,1,1.5,1.5Zm5-.5H12.5a2.482,2.482,0,0,0-1.5.5h0v-6a1.5,1.5,0,0,1,1.5-1.5H15Z" />
    <path class="light-blue" d="M3.011,4.293,4.157,3.146l.707.708-2,2H2.157l-2-2,.707-.708L2.011,4.293V0h1Z" />
  </g>
</svg>
