<svg xmlns="http://www.w3.org/2000/svg" viewBox="0 0 16 16">
  <defs>
    <style>.canvas{fill: none; opacity: 0;}.light-blue{fill: #005dba; opacity: 1;}.light-defaultgrey-10{fill: #212121; opacity: 0.1;}.light-defaultgrey{fill: #212121; opacity: 1;}.light-defaultgrey-25{fill: #212121; opacity: 0.25;}.cls-1{opacity:0.75;}</style>
  </defs>
  <title>GetFromCollection</title>
  <g id="canvas">
    <path class="canvas" d="M16,16H0V0H16Z" />
  </g>
  <g id="level-1">
    <path class="light-blue" d="M3,4.293,4.146,3.146l.708.708-2,2H2.146l-2-2,.708-.708L2,4.293V0H3Z" />
    <g class="cls-1">
      <path class="light-defaultgrey-10" d="M8.5,1.5V5h4l.5.5v5h2.5v-9Z" />
      <path class="light-defaultgrey-10" d="M5.92,3.5l.35.35-3,3H2.5V12.5H5v-7L5.5,5H8V3.5Z" />
      <path class="light-defaultgrey" d="M15.5,1h-7L8,1.5V3H5.42l.85.85L6.12,4H8V5H9V2h6v8H13v1h2.5l.5-.5v-9ZM3,6.85H2V12.5l.5.5H5V12H3Z" />
    </g>
    <path class="light-defaultgrey-10" d="M5.5,5.5v9h7v-9Z" />
    <path class="light-defaultgrey" d="M12.5,5h-7L5,5.5v9l.5.5h7l.5-.5v-9ZM12,14H6V6h6Z" />
    <path class="light-defaultgrey-25" d="M9,10V6H8v4.5l.5.5H12V10Z" />
  </g>
</svg>
