<svg xmlns="http://www.w3.org/2000/svg" viewBox="0 0 16 16">
  <defs>
    <style>.canvas{fill: none; opacity: 0;}.light-defaultgrey-10{fill: #212121; opacity: 0.1;}.light-defaultgrey{fill: #212121; opacity: 1;}.light-blue{fill: #005dba; opacity: 1;}.light-green{fill: #1f801f; opacity: 1;}</style>
  </defs>
  <title>IconLightGetPerformanceData</title>
  <g id="canvas">
    <path class="canvas" d="M16,16H0V0H16Z" />
  </g>
  <g id="level-1">
    <path class="light-defaultgrey-10" d="M14.5,3.5v10H2.5V6.854h.768l3-3L5.914,3.5H14.5Z" />
    <path class="light-defaultgrey" d="M15,3.5v10l-.5.5H2.5L2,13.5V6.854H3V13H14V4H6.121l.147-.146L5.414,3H14.5Z" />
    <path class="light-blue" d="M3,4.293,4.146,3.146l.708.708-2,2H2.146l-2-2,.708-.708L2,4.293V0H3Z" />
    <path class="light-green" d="M14,9.707l-2.5-2.5L7.854,10.854H7.146L5.5,9.207,3,11.707V10.293L5.146,8.146h.708L7.5,9.793l3.646-3.647h.708L14,8.293Z" />
  </g>
</svg>
