<svg xmlns="http://www.w3.org/2000/svg" viewBox="0 0 16 16">
  <defs>
    <style>.canvas{fill: none; opacity: 0;}.light-blue{fill: #005dba; opacity: 1;}.light-defaultgrey-10{fill: #212121; opacity: 0.1;}.light-red{fill: #c50b17; opacity: 1;}.light-green{fill: #1f801f; opacity: 1;}.light-defaultgrey{fill: #212121; opacity: 1;}</style>
  </defs>
  <title>IconLightGoOutDashboard</title>
  <g id="canvas">
    <path class="canvas" d="M16,16H0V0H16Z" />
  </g>
  <g id="level-1">
    <path class="light-blue" d="M6,.5V4H5V1.707L2.354,4.354l-.708-.708L4.293,1H2V0H5.5ZM6,5H1V0H0V5.5L.5,6H6Z" />
    <path class="light-defaultgrey-10" d="M1.525,15c-.012-.166-.025-.331-.025-.5a7,7,0,0,1,14,0c0,.169-.013.334-.025.5Z" />
    <path class="light-red" d="M3.049,15C3.034,14.833,3,14.67,3,14.5a5.5,5.5,0,0,1,7.9-4.95l-.437.9A4.448,4.448,0,0,0,8.5,10,4.505,4.505,0,0,0,4,14.5a4.6,4.6,0,0,0,.049.5Z" />
    <path class="light-green" d="M13,14.5a4.448,4.448,0,0,0-.45-1.963l.9-.437A5.45,5.45,0,0,1,14,14.5c0,.17-.034.333-.049.5h-1A4.6,4.6,0,0,0,13,14.5Z" />
    <path class="light-defaultgrey" d="M8.5,7A7.508,7.508,0,0,0,1,14.5V16H16V14.5A7.508,7.508,0,0,0,8.5,7Zm6.475,7.984H9.913a1.426,1.426,0,0,0-.063-1.127l3-3-.708-.708-3,3a1.486,1.486,0,0,0-2.056,1.834H2.025C2.012,14.824,2,14.663,2,14.5a6.5,6.5,0,0,1,13,0C15,14.663,14.988,14.824,14.975,14.984Z" />
  </g>
</svg>
