<svg xmlns="http://www.w3.org/2000/svg" viewBox="0 0 16 16">
  <defs>
    <style>.canvas{fill: none; opacity: 0;}.light-blue-10{fill: #005dba; opacity: 0.1;}.light-blue{fill: #005dba; opacity: 1;}.light-defaultgrey-10{fill: #212121; opacity: 0.1;}.light-defaultgrey{fill: #212121; opacity: 1;}.light-teal-10{fill: #006758; opacity: 0.1;}.light-teal{fill: #006758; opacity: 1;}.cls-1{opacity:0.75;}</style>
  </defs>
  <title>IconLightGoToWebTest</title>
  <g id="canvas">
    <path class="canvas" d="M16,16H0V0H16Z" />
  </g>
  <g id="level-1">
    <g class="cls-1">
      <path class="light-blue-10" d="M15.5,7A4.5,4.5,0,0,1,11,11.5a4.425,4.425,0,0,1-2.849-1.035L8,10.229V8H9V5H6.994A4.485,4.485,0,0,1,15.5,7Z" />
      <path class="light-blue" d="M11,2A5,5,0,0,0,6.432,5H7.556A4.011,4.011,0,0,1,9.487,3.3,7.486,7.486,0,0,0,8.775,5H9V8H8V9h.775a7.486,7.486,0,0,0,.712,1.7A3.926,3.926,0,0,1,8,9.611v.618l.8,1.246A4.9,4.9,0,0,0,11,12,5,5,0,0,0,11,2Zm3.444,3H13.225a7.486,7.486,0,0,0-.712-1.7A4.011,4.011,0,0,1,14.444,5ZM10.891,3.011C10.928,3.01,10.963,3,11,3s.072.01.11.011A6.54,6.54,0,0,1,12.168,5H9.832A6.5,6.5,0,0,1,10.891,3.011Zm.216,7.978c-.036,0-.07.011-.107.011s-.072-.01-.109-.011A6.5,6.5,0,0,1,9.832,9h2.336A6.5,6.5,0,0,1,11.107,10.989ZM12.412,8H9.588A6.419,6.419,0,0,1,9.5,7a6.419,6.419,0,0,1,.088-1h2.824A6.419,6.419,0,0,1,12.5,7,6.419,6.419,0,0,1,12.412,8Zm.1,2.7A7.534,7.534,0,0,0,13.226,9h1.218A4.011,4.011,0,0,1,12.513,10.7ZM13.426,8A7.583,7.583,0,0,0,13.5,7a7.583,7.583,0,0,0-.074-1h1.432A3.939,3.939,0,0,1,15,7a3.939,3.939,0,0,1-.142,1Z" />
    </g>
    <path class="light-defaultgrey-10" d="M2.649,12,3.5,10.667V6.5h3v4.167L7.351,12Z" />
    <path class="light-defaultgrey" d="M3,7H2V6H8V7H7v3.521L8.091,12.23,7.67,12H6.757l-.679-1.063L6,10.667V7H4v3.667l-.078.27L3.243,12H2.33l-.421.23L3,10.521Z" />
    <path class="light-teal-10" d="M8.6,13.962A1,1,0,0,1,7.76,15.5H2.24A1,1,0,0,1,1.4,13.962L2.33,12.5H7.67Z" />
    <path class="light-teal" d="M7.761,16H2.239A1.5,1.5,0,0,1,.975,13.693l.933-1.463L2.33,12H7.67l.422.23.933,1.462A1.5,1.5,0,0,1,7.761,16ZM2.6,13l-.786,1.231A.5.5,0,0,0,2.239,15H7.761a.5.5,0,0,0,.421-.77L7.4,13Z" />
    <path class="light-blue" d="M4.293,2,3.146.854,3.854.146l2,2v.708l-2,2-.708-.708L4.293,3H0V2Z" />
  </g>
</svg>
