<svg xmlns="http://www.w3.org/2000/svg" viewBox="0 0 16 16">
  <defs>
    <style>.canvas{fill: none; opacity: 0;}.light-red-10{fill: #c50b17; opacity: 0.1;}.light-red{fill: #c50b17; opacity: 1;}.light-blue{fill: #005dba; opacity: 1;}</style>
  </defs>
  <title>IconLightGoToHotSpot</title>
  <g id="canvas">
    <path class="canvas" d="M16,16H0V0H16Z" />
  </g>
  <g id="level-1">
    <path class="light-red-10" d="M13.159,7.56A5.441,5.441,0,0,1,11.5,3.5a3,3,0,0,0-3,3c0,.073,0,.146.008.217l.02.29-.242.161A4,4,0,1,0,14.5,10.5,4.121,4.121,0,0,0,13.159,7.56Z" />
    <path class="light-red" d="M10.5,15A4.5,4.5,0,0,1,8.009,6.752Q8,6.627,8,6.5A3.5,3.5,0,0,1,11.5,3H12v.5a4.962,4.962,0,0,0,1.539,3.734A4.586,4.586,0,0,1,15,10.5,4.505,4.505,0,0,1,10.5,15ZM8.255,7.815A3.5,3.5,0,1,0,14,10.5a3.626,3.626,0,0,0-1.217-2.61,5.93,5.93,0,0,1-1.764-3.844A2.5,2.5,0,0,0,9.732,8.268l-.707.707A3.5,3.5,0,0,1,8.255,7.815Z" />
    <path class="light-red-10" d="M11,10.5c0,1.172,1,1.672,1,2.5a1.5,1.5,0,0,1-3,0C9,12.172,10.172,10.5,11,10.5Z" />
    <path class="light-red" d="M10.5,15a2,2,0,0,1-2-2c0-1.043,1.324-3,2.5-3h.5v.5a2.083,2.083,0,0,0,.479,1.2A2.319,2.319,0,0,1,12.5,13,2,2,0,0,1,10.5,15Zm.1-3.806A3.251,3.251,0,0,0,9.5,13a1,1,0,0,0,2,0,1.512,1.512,0,0,0-.35-.745A3.783,3.783,0,0,1,10.6,11.194Z" />
    <path class="light-blue" d="M4.293,2,3.146.854,3.854.146l2,2v.708l-2,2-.708-.708L4.293,3H0V2Z" />
  </g>
</svg>
