<svg xmlns="http://www.w3.org/2000/svg" viewBox="0 0 16 16">
  <defs>
    <style>.canvas{fill: none; opacity: 0;}.light-red-10{fill: #c50b17; opacity: 0.1;}.light-blue{fill: #005dba; opacity: 1;}.light-teal-10{fill: #006758; opacity: 0.1;}.light-teal{fill: #006758; opacity: 1;}.light-defaultgrey-10{fill: #212121; opacity: 0.1;}.light-defaultgrey{fill: #212121; opacity: 1;}.light-red{fill: #c50b17; opacity: 1;}</style>
  </defs>
  <title>IconLightGoToRecordedTestSession</title>
  <g id="canvas">
    <path class="canvas" d="M16,16H0V0H16Z" />
  </g>
  <g id="level-1">
    <path class="light-red-10" d="M5.5,15.5H.5v-5h5Z" />
    <path class="light-blue" d="M4.293,2,3.146.854,3.854.146l2,2v.708l-2,2-.708-.708L4.293,3H0V2Z" />
    <path class="light-teal-10" d="M14.6,11.962A1,1,0,0,1,13.76,13.5H8.24A1,1,0,0,1,7.4,11.962L8.33,10.5h5.34Z" />
    <path class="light-teal" d="M13.761,14H8.239a1.5,1.5,0,0,1-1.264-2.307l.933-1.463L8.33,10h5.34l.422.23.933,1.462A1.5,1.5,0,0,1,13.761,14ZM8.6,11l-.786,1.231A.5.5,0,0,0,8.239,13h5.522a.5.5,0,0,0,.421-.77L13.4,11Z" />
    <path class="light-defaultgrey-10" d="M8.649,10,9.5,8.667V4.5h3V8.667L13.351,10Z" />
    <path class="light-defaultgrey" d="M9,5H8V4h6V5H13V8.521l1.091,1.709L13.67,10h-.913l-.679-1.063L12,8.667V5H10V8.667l-.078.27L9.243,10H8.33l-.421.23L9,8.521Z" />
    <path class="light-red" d="M4,13a1,1,0,1,1-1-1A1,1,0,0,1,4,13Zm1.5-3H.5l-.5.5v5l.5.5h5l.5-.5v-5ZM3,15a2,2,0,1,1,2-2A2,2,0,0,1,3,15Z" />
  </g>
</svg>
