<svg xmlns="http://www.w3.org/2000/svg" viewBox="0 0 16 16">
  <defs>
    <style>.canvas{fill: none; opacity: 0;}.light-defaultgrey-10{fill: #212121; opacity: 0.1;}.light-defaultgrey{fill: #212121; opacity: 1;}.cls-1{opacity:0.75;}</style>
  </defs>
  <title>IconLightGraphLeftToRight</title>
  <g id="canvas">
    <path class="canvas" d="M16,16H0V0H16Z" />
  </g>
  <g id="level-1">
    <path class="light-defaultgrey-10" d="M1.474,9.5v-4h4v4Z" />
    <path class="light-defaultgrey" d="M.974,9.5v-4l.5-.5h4l.5.5v4l-.5.5h-4Zm1-3.5V9h3V6Z" />
    <path class="light-defaultgrey-10" d="M10.474,13.5V1.587h4V13.5Z" />
    <path class="light-defaultgrey" d="M14.974,13.5V1.5l-.5-.5h-4l-.5.5v12l.5.5h4Zm-1-11.5V5h-3V2Zm0,4V9h-3V6Zm-3,7V10h3v3Z" />
    <g class="cls-1">
      <path class="light-defaultgrey" d="M5.974,9.383V8.217l4,2.4v1.166Z" />
      <path class="light-defaultgrey" d="M5.974,8V7h4V8Z" />
      <path class="light-defaultgrey" d="M9.974,3.217V4.383l-4,2.4V5.617Z" />
    </g>
  </g>
</svg>
