<svg xmlns="http://www.w3.org/2000/svg" viewBox="0 0 16 16">
  <defs>
    <style>.canvas{fill: none; opacity: 0;}.light-defaultgrey-10{fill: #212121; opacity: 0.1;}.light-defaultgrey{fill: #212121; opacity: 1;}.cls-1{opacity:0.75;}</style>
  </defs>
  <title>IconLightGridDetailView</title>
  <g id="canvas">
    <path class="canvas" d="M16,16H0V0H16Z" />
  </g>
  <g id="level-1">
    <path class="light-defaultgrey-10" d="M10.5,6A4.5,4.5,0,1,1,6,1.5,4.5,4.5,0,0,1,10.5,6Z" />
    <path class="light-defaultgrey" d="M5.5,5h4.88a4.516,4.516,0,0,1,.12,1,4.516,4.516,0,0,1-.12,1H7v3.38a4.516,4.516,0,0,1-1,.12,4.516,4.516,0,0,1-1-.12V5.5Z" />
    <path class="light-defaultgrey" d="M6,11a5,5,0,1,1,5-5A5.006,5.006,0,0,1,6,11ZM6,2a4,4,0,1,0,4,4A4,4,0,0,0,6,2Z" />
    <g class="cls-1">
      <path class="light-defaultgrey-10" d="M14.5,5.5v9h-9V11.975c.165.013.331.025.5.025a6,6,0,0,0,6-6c0-.169-.012-.335-.025-.5Z" />
      <path class="light-defaultgrey" d="M14.5,5H11.91A6,6,0,0,1,12,6h2V8H12V6a5.967,5.967,0,0,1-1,3.314V11H9.314A5.967,5.967,0,0,1,6,12H8v2H6V12a6,6,0,0,1-1-.09V14.5l.5.5h9l.5-.5v-9ZM11,14H9V12h2Zm3,0H12V12h2Zm0-3H12V9h2Z" />
    </g>
  </g>
</svg>
