<svg xmlns="http://www.w3.org/2000/svg" viewBox="0 0 16 16">
  <defs>
    <style>.canvas{fill: none; opacity: 0;}.light-defaultgrey-10{fill: #212121; opacity: 0.1;}.light-defaultgrey{fill: #212121; opacity: 1;}.cls-1{opacity:0.75;}</style>
  </defs>
  <title>IconLightGroupedGridViewMoCo</title>
  <g id="canvas">
    <path class="canvas" d="M16,16H0V0H16Z" />
  </g>
  <g id="level-1">
    <path class="light-defaultgrey-10" d="M3.507,14.493,1.386,12.371,3.257,10.5l2.475,1.768Z" />
    <g class="cls-1">
      <path class="light-defaultgrey-10" d="M5.5,10.5a2,2,0,1,1,2,2A2,2,0,0,1,5.5,10.5Z" />
      <path class="light-defaultgrey" d="M7.5,13A2.5,2.5,0,1,1,10,10.5,2.5,2.5,0,0,1,7.5,13Zm0-4A1.5,1.5,0,1,0,9,10.5,1.5,1.5,0,0,0,7.5,9Z" />
    </g>
    <path class="light-defaultgrey" d="M8,10.5a.5.5,0,0,0-.854-.353L5.678,11.614l-2.13-1.521-.644.053L1.033,12.018v.707l2.121,2.121h.707l3.992-3.992A.5.5,0,0,0,8,10.5ZM3.507,13.785,2.093,12.371l1.219-1.218,1.649,1.178Z" />
    <path class="light-defaultgrey-10" d="M9.5,7.633A3.484,3.484,0,0,0,7.5,7V6.5h2ZM9.5,4.5h-2v-2h2Zm4,0h-2v-2h2Zm0,4h-2v-2h2Zm0,4h-2v-2h2Z" />
    <path class="light-defaultgrey" d="M7,7.05V6.5L7.5,6h2l.5.5V8.056A3.479,3.479,0,0,0,9,7.35V7H8v.05A3.588,3.588,0,0,0,7.5,7,3.588,3.588,0,0,0,7,7.05ZM9.5,5h-2L7,4.5v-2L7.5,2h2l.5.5v2ZM8,4H9V3H8Zm5.5,1h-2L11,4.5v-2l.5-.5h2l.5.5v2ZM12,4h1V3H12Zm1.5,5h-2L11,8.5v-2l.5-.5h2l.5.5v2ZM12,8h1V7H12Zm1.5,5h-2l-.5-.5v-2l.5-.5h2l.5.5v2ZM12,12h1V11H12Z" />
    <path class="light-defaultgrey" d="M3,7.875Q1.334,7.858,1.333,6.688V5.535A.706.706,0,0,0,.6,4.723V4.152c.487-.026.73-.3.73-.828V2.2Q1.333,1.015,3,1v.605a.667.667,0,0,0-.744.747v1.1q0,.789-.932.973v.012q.932.171.932.964v1.09a.86.86,0,0,0,.166.6A.79.79,0,0,0,3,7.273ZM6.383,4.723a.7.7,0,0,0-.726.812V6.688Q5.657,7.86,4,7.875v-.6a.791.791,0,0,0,.578-.187.845.845,0,0,0,.171-.594V5.4q0-.792.922-.964V4.426q-.921-.183-.922-.973v-1.1A.67.67,0,0,0,4,1.605V1q1.658.016,1.657,1.2V3.324c0,.527.242.8.726.828Z" />
  </g>
</svg>
