<svg xmlns="http://www.w3.org/2000/svg" viewBox="0 0 16 16">
  <defs>
    <style>.canvas{fill: none; opacity: 0;}.light-blue-10{fill: #005dba; opacity: 0.1;}.light-blue{fill: #005dba; opacity: 1;}.light-defaultgrey-10{fill: #212121; opacity: 0.1;}.light-defaultgrey{fill: #212121; opacity: 1;}</style>
  </defs>
  <title>IconLightGroup</title>
  <g id="canvas">
    <path class="canvas" d="M16,16H0V0H16Z" />
  </g>
  <g id="level-1">
    <path class="light-blue-10" d="M1.5,1.5h2v2h-2Zm11,0v2h2v-2Zm-11,13h2v-2h-2Zm11,0h2v-2h-2Z" />
    <path class="light-blue" d="M1.5,1,1,1.5v2l.5.5h2L4,3.5v-2L3.5,1ZM3,3H2V2H3ZM14.5,1h-2l-.5.5v2l.5.5h2l.5-.5v-2ZM14,3H13V2h1ZM1.5,12l-.5.5v2l.5.5h2l.5-.5v-2L3.5,12ZM3,14H2V13H3Zm9.5-2-.5.5v2l.5.5h2l.5-.5v-2l-.5-.5ZM14,14H13V13h1Z" />
    <path class="light-defaultgrey-10" d="M13.5,6.5v6h-1v1h-6v-4h-4v-6h1v-1h6v4Z" />
    <path class="light-defaultgrey" d="M13.5,6H10V2.5L9.5,2H4V3H9V6H6.5L6,6.5V9H3V4H2V9.5l.5.5H6v3.5l.5.5H12V13H7V10H9.5l.5-.5V7h3v5h1V6.5ZM9,9H7V7H9Z" />
  </g>
</svg>
