<svg xmlns="http://www.w3.org/2000/svg" viewBox="0 0 16 16">
  <defs>
    <style>.canvas{fill: none; opacity: 0;}.light-defaultgrey{fill: #212121; opacity: 1;}</style>
  </defs>
  <title>IconLightHeadingTwo</title>
  <g id="canvas">
    <path class="canvas" d="M16,16H0V0H16Z" />
  </g>
  <g id="level-1">
    <path class="light-defaultgrey" d="M14,8H2V7H14Zm0,2H6v1h8Zm0,3H6v1h8Z" />
    <path class="light-defaultgrey" d="M14,5H2V2H14Z" />
    <path class="light-defaultgrey" d="M4.758,15H1.242v-.434a1.653,1.653,0,0,1,.074-.5,2.012,2.012,0,0,1,.2-.437,2.4,2.4,0,0,1,.293-.387,4.973,4.973,0,0,1,.359-.351c.127-.114.258-.223.391-.329s.263-.211.39-.318.229-.2.328-.3a1.948,1.948,0,0,0,.254-.3,1.344,1.344,0,0,0,.164-.331,1.171,1.171,0,0,0,.059-.376,1.025,1.025,0,0,0-.068-.389.769.769,0,0,0-.192-.278A.821.821,0,0,0,3.2,10.1a1.108,1.108,0,0,0-.367-.057,1.705,1.705,0,0,0-.7.16,2.376,2.376,0,0,0-.684.481V9.816A2.8,2.8,0,0,1,1.8,9.592a2.342,2.342,0,0,1,.363-.16,2.151,2.151,0,0,1,.4-.1A2.935,2.935,0,0,1,3,9.305a2.251,2.251,0,0,1,.688.1,1.477,1.477,0,0,1,.527.293,1.293,1.293,0,0,1,.338.483,1.736,1.736,0,0,1,.119.664,2.066,2.066,0,0,1-.084.611,1.97,1.97,0,0,1-.238.506,2.607,2.607,0,0,1-.373.445c-.146.141-.309.285-.489.434q-.226.183-.451.357c-.15.116-.285.23-.4.34a1.88,1.88,0,0,0-.291.332.6.6,0,0,0-.112.334v.02H4.758Z" />
  </g>
</svg>
