<svg xmlns="http://www.w3.org/2000/svg" viewBox="0 0 16 16">
  <defs>
    <style>.canvas{fill: none; opacity: 0;}.light-defaultgrey{fill: #212121; opacity: 1;}</style>
  </defs>
  <title>IconLightHeadingOne</title>
  <g id="canvas">
    <path class="canvas" d="M16,16H0V0H16Z" />
  </g>
  <g id="level-1">
    <path class="light-defaultgrey" d="M14,8H2V7H14Zm0,2H6v1h8Zm0,3H6v1h8Z" />
    <path class="light-defaultgrey" d="M14,5H2V2H14Z" />
    <path class="light-defaultgrey" d="M4.041,9.273V15H3.135V10.383a2.894,2.894,0,0,1-.53.3,4.281,4.281,0,0,1-.646.216v-.773c.151-.05.3-.1.437-.156s.28-.116.416-.184.275-.143.415-.226.283-.179.431-.286Z" />
  </g>
</svg>
