<svg xmlns="http://www.w3.org/2000/svg" viewBox="0 0 16 16">
  <defs>
    <style>.canvas{fill: none; opacity: 0;}.light-defaultgrey-10{fill: #212121; opacity: 0.1;}.light-defaultgrey{fill: #212121; opacity: 1;}</style>
  </defs>
  <title>IconLightHideCommentGroup</title>
  <g id="canvas">
    <path class="canvas" d="M16,16H0V0H16Z" />
  </g>
  <g id="level-1">
    <path class="light-defaultgrey-10" d="M8,6.5v5l-.5.5H4.714L2.862,13.944,2,13.6V12H.5L0,11.5v-5L.5,6h7Z" />
    <path class="light-defaultgrey" d="M8,7H7V6h.5l.5.5ZM0,11.5l.5.5H1V11H0Zm3,0L2.5,11H2v1H3ZM2,6H1V7H2ZM1,7H0V8H1ZM1,9H0v1H1ZM8,8H7V9H8Zm0,2H7v1H8ZM6,6H5V7H6ZM4,6H3V7H4Zm3,5H6v1H7ZM4.5,11l-.362.155L4,11.3V12H5V11ZM3,13H2v.6l.862.344L3,13.8Z" />
    <path class="light-defaultgrey" d="M15,3H14V2h.5l.5.5ZM10,7.5,9.5,7H9V8h1ZM9,2H8V3H9ZM8,3H7V4H8Zm7,1H14V5h1Zm0,2H14V7h1ZM13,2H12V3h1ZM11,2H10V3h1Zm3,5H13V8h1ZM11.5,7l-.362.155L11,7.3V8h1V7ZM10,9H9v.6l.862.344L10,9.8Z" />
    <path class="light-defaultgrey-10" d="M15,2.5v5l-.5.5H11.714L9.862,9.944,9,9.6V6.086L7.914,5H7V2.5L7.5,2h7Z" />
  </g>
</svg>
