<svg xmlns="http://www.w3.org/2000/svg" viewBox="0 0 16 16">
  <defs>
    <style>.canvas{fill: none; opacity: 0;}.light-defaultgrey-10{fill: #212121; opacity: 0.1;}.light-defaultgrey{fill: #212121; opacity: 1;}.light-purple{fill: #6936aa; opacity: 1;}.light-blue{fill: #005dba; opacity: 1;}</style>
  </defs>
  <title>IconLightHideSelectedThreads</title>
  <g id="canvas">
    <path class="canvas" d="M16,16H0V0H16Z" />
  </g>
  <g id="level-1">
    <path class="light-defaultgrey-10" d="M15.5.5v8H4.5V6.621L5.854,5.268V3.732L4.5,2.379V.5Z" />
    <path class="light-defaultgrey" d="M16,.5v8l-.5.5H4.5L4,8.5V7.121l1-1V8H15V1H5V2.879l-1-1V.5L4.5,0h11Z" />
    <path class="light-purple" d="M10,12a3,3,0,0,0-3,3H6a3.991,3.991,0,0,1,6.766-2.878,3.488,3.488,0,0,1-.714.7A2.981,2.981,0,0,0,10,12Zm2.847,2.1A2.943,2.943,0,0,1,13,15h1a3.963,3.963,0,0,0-.346-1.612A5.025,5.025,0,0,1,12.847,14.1Z" />
    <path class="light-blue" d="M6.9,12.5A3.961,3.961,0,0,1,6,10H7a2.972,2.972,0,0,0,.625,1.812A4.059,4.059,0,0,0,6.9,12.5ZM13,10a3,3,0,0,1-3,3,1.989,1.989,0,0,0-1.5.688A3.873,3.873,0,0,0,10,14a4,4,0,0,0,4-4Z" />
    <path class="light-purple" d="M10,4A3,3,0,0,0,7,7H6a3.991,3.991,0,0,1,6.766-2.878,3.488,3.488,0,0,1-.714.7A2.981,2.981,0,0,0,10,4Zm3.654,1.388A3.963,3.963,0,0,1,14,7H13a2.943,2.943,0,0,0-.153-.9A5.025,5.025,0,0,0,13.654,5.388Z" />
    <path class="light-blue" d="M6.9,4.5A3.961,3.961,0,0,1,6,2H7a2.972,2.972,0,0,0,.625,1.812A4.059,4.059,0,0,0,6.9,4.5ZM14,2a4,4,0,0,1-4,4,3.873,3.873,0,0,1-1.5-.312A1.989,1.989,0,0,1,10,5a3,3,0,0,0,3-3Z" />
    <path class="light-blue" d="M3.293,4,2.146,2.854l.708-.708,2,2v.708l-2,2-.708-.708L3.293,5H0V4Z" />
  </g>
</svg>
