<svg xmlns="http://www.w3.org/2000/svg" viewBox="0 0 16 16">
  <defs>
    <style>.canvas{fill: none; opacity: 0;}.light-defaultgrey-10{fill: #212121; opacity: 0.1;}.light-defaultgrey{fill: #212121; opacity: 1;}.light-purple{fill: #6936aa; opacity: 1;}.light-blue{fill: #005dba; opacity: 1;}</style>
  </defs>
  <title>IconLightHideUnselectedThreads</title>
  <g id="canvas">
    <path class="canvas" d="M16,16H0V0H16Z" />
  </g>
  <g id="level-1">
    <path class="light-defaultgrey-10" d="M15.5.5v8H4.5V.5Z" />
    <path class="light-defaultgrey" d="M15.5,0H4.5L4,.5v8l.5.5h11l.5-.5V.5ZM15,8H5V1H15Z" />
    <path class="light-purple" d="M10,12a3,3,0,0,0-3,3H6a3.991,3.991,0,0,1,6.766-2.878,3.488,3.488,0,0,1-.714.7A2.981,2.981,0,0,0,10,12Zm2.847,2.1A2.943,2.943,0,0,1,13,15h1a3.963,3.963,0,0,0-.346-1.612A5.025,5.025,0,0,1,12.847,14.1Z" />
    <path class="light-blue" d="M6.9,12.5A3.961,3.961,0,0,1,6,10H7a2.972,2.972,0,0,0,.625,1.812A4.059,4.059,0,0,0,6.9,12.5ZM13,10a3,3,0,0,1-3,3,1.989,1.989,0,0,0-1.5.688A3.873,3.873,0,0,0,10,14a4,4,0,0,0,4-4Z" />
    <path class="light-purple" d="M10,4A3,3,0,0,0,7,7H6a3.991,3.991,0,0,1,6.766-2.878,3.488,3.488,0,0,1-.714.7A2.981,2.981,0,0,0,10,4Zm2.847,2.1A2.943,2.943,0,0,1,13,7h1a3.963,3.963,0,0,0-.346-1.612A5.025,5.025,0,0,1,12.847,6.1Z" />
    <path class="light-blue" d="M6.9,4.5A3.961,3.961,0,0,1,6,2H7a2.972,2.972,0,0,0,.625,1.812A4.059,4.059,0,0,0,6.9,4.5ZM13,2a3,3,0,0,1-3,3,1.989,1.989,0,0,0-1.5.688A3.873,3.873,0,0,0,10,6a4,4,0,0,0,4-4Z" />
    <path class="light-blue" d="M3.293,12,2.146,10.854l.708-.708,2,2v.708l-2,2-.708-.708L3.293,13H0V12Z" />
  </g>
</svg>
