<svg xmlns="http://www.w3.org/2000/svg" viewBox="0 0 16 16">
  <defs>
    <style>.canvas{fill: none; opacity: 0;}.light-defaultgrey{fill: #212121; opacity: 1;}.light-defaultgrey-10{fill: #212121; opacity: 0.1;}.cls-1{opacity:0.75;}</style>
  </defs>
  <title>HierarchyTracking</title>
  <g id="canvas">
    <path class="canvas" d="M16,0V16H0V0Z" />
  </g>
  <g id="level-1">
    <g class="cls-1">
      <path class="light-defaultgrey" d="M12.5,7H8V5H7V7.5l.5.5H12v2h1V7.5ZM2,7.5V10H3V8H5.5V7h-3Z" />
    </g>
    <path class="light-defaultgrey-10" d="M9.5.5v4h-4V.5Z" />
    <path class="light-defaultgrey" d="M9.5,0h-4L5,.5v4l.5.5h4l.5-.5V.5ZM9,4H6V1H9Z" />
    <path class="light-defaultgrey-10" d="M4.5,10.5v4H.5v-4Z" />
    <path class="light-defaultgrey" d="M4.5,10H.5l-.5.5v4l.5.5h4l.5-.5v-4ZM4,14H1V11H4Z" />
    <path class="light-defaultgrey-10" d="M14.5,10.5v4h-4v-4Z" />
    <path class="light-defaultgrey" d="M14.5,10h-4l-.5.5v4l.5.5h4l.5-.5v-4ZM14,14H11V11h3Z" />
  </g>
</svg>
