<svg xmlns="http://www.w3.org/2000/svg" viewBox="0 0 16 16">
  <defs>
    <style>.canvas{fill: none; opacity: 0;}.light-defaultgrey-10{fill: #212121; opacity: 0.1;}.light-defaultgrey{fill: #212121; opacity: 1;}</style>
  </defs>
  <title>IconLightHighlighter</title>
  <g id="canvas">
    <path class="canvas" d="M16,0V16H0V0Z" />
  </g>
  <g id="level-1">
    <path class="light-defaultgrey-10" d="M15,1V4L6.65,12.35h-.3l-.6-.6L4.07,13.43l-.17.07H1.33l-.09-.24,3.01-3.01-.6-.6v-.3L12,1Z" />
    <path class="light-defaultgrey" d="M13,5.29,10.71,3l2-2H11.3L3.15,9.15v.7l.39.4L.65,13.15,1,14H4l.35-.15,1.4-1.39.4.39h.7L15,4.7V3.29ZM3.79,13H2.21l2.04-2.04.79.79ZM6.5,11.79,4.21,9.5,10,3.71,12.29,6Z" />
  </g>
</svg>
