<svg xmlns="http://www.w3.org/2000/svg" viewBox="0 0 16 16">
  <defs>
    <style>.canvas{fill: none; opacity: 0;}.light-defaultgrey-10{fill: #212121; opacity: 0.1;}.light-defaultgrey{fill: #212121; opacity: 1;}</style>
  </defs>
  <title>HistoryListId</title>
  <g id="canvas">
    <path class="canvas" d="M16,16H0V0H16Z" />
  </g>
  <g id="level-1">
    <path class="light-defaultgrey-10" d="M8,1.5A6.507,6.507,0,0,0,1.81,6,6.591,6.591,0,0,0,1.5,8a6.3,6.3,0,0,0,.32,2H4.37A3.97,3.97,0,0,1,7,9a4.023,4.023,0,0,1,3.47,2.03A3.9,3.9,0,0,1,11,13a1.34,1.34,0,0,1-.01.2,3.792,3.792,0,0,1-.07.6A6.5,6.5,0,0,0,8,1.5Z" />
    <path class="light-defaultgrey-10" d="M7,15.5a2.492,2.492,0,0,1-2.393-1.816L3.475,14l-.5-.5-1,.5-1.5-1.5,1-1H5.011A2.5,2.5,0,1,1,7,15.5Z" />
    <path class="light-defaultgrey" d="M15,8a7.017,7.017,0,0,1-4.28,6.45,3.4,3.4,0,0,0,.2-.64V13.8a3.792,3.792,0,0,0,.07-.6A6,6,0,1,0,2.81,5H5V6H1.5L1,5.5V2H2V4.39A7,7,0,0,1,15,8ZM8,7.79V4H7V8l.15.35.76.76a3.921,3.921,0,0,1,2.56,1.92l.38-.38ZM7.5,12.5A.5.5,0,1,0,8,13,.5.5,0,0,0,7.5,12.5ZM10,13a2.992,2.992,0,0,1-5.7,1.288l-.693.193-.488-.127-.245-.246-.678.339-.577-.093-1.5-1.5v-.708l1-1L1.476,11h3.3A2.962,2.962,0,0,1,7,10,3,3,0,0,1,10,13ZM9,13a2,2,0,0,0-2-2,1.979,1.979,0,0,0-1.589.8l-.4.2H1.683l-.5.5.891.892.678-.339.577.093.293.294.85-.237.615.343A1.994,1.994,0,0,0,9,13Z" />
  </g>
</svg>
