<svg xmlns="http://www.w3.org/2000/svg" viewBox="0 0 16 16">
  <defs>
    <style>.canvas{fill: none; opacity: 0;}.light-defaultgrey{fill: #212121; opacity: 1;}.light-defaultgrey-10{fill: #212121; opacity: 0.1;}.cls-1{opacity:0.75;}</style>
  </defs>
  <title>IconLightHome</title>
  <g id="canvas">
    <path class="canvas" d="M16,16H0V0H16Z" />
  </g>
  <g id="level-1">
    <path class="light-defaultgrey" d="M15.354,8.646l-.707.708L7.982,2.71,1.354,9.353.646,8.647l6.981-7h.707Z" />
    <g class="cls-1">
      <path class="light-defaultgrey-10" d="M13.5,8.21V14.5h-4v-4h-3v4h-4V8.205L7.982,2.71Z" />
      <path class="light-defaultgrey" d="M14,8.709V14.5l-.5.5h-4L9,14.5V11H7v3.5l-.5.5h-4L2,14.5V8.706l1-1H3V14H6V10.5l.5-.5h3l.5.5V14h3V7.712Z" />
    </g>
  </g>
</svg>
