<svg xmlns="http://www.w3.org/2000/svg" viewBox="0 0 16 16">
  <defs>
    <style>.canvas{fill: none; opacity: 0;}.light-defaultgrey{fill: #212121; opacity: 1;}.light-blue{fill: #005dba; opacity: 1;}</style>
  </defs>
  <title>IconLightHTMLTagBDO</title>
  <g id="canvas">
    <path class="canvas" d="M16,16H0V0H16Z" />
  </g>
  <g id="level-1">
    <path class="light-defaultgrey" d="M7.354,4a1.984,1.984,0,0,0-1,.277V2h-1V8h1V7.723A2,2,0,1,0,7.354,4Zm0,3a1,1,0,1,1,1-1A1,1,0,0,1,7.354,7ZM13,4v.277a2,2,0,1,0,0,3.446V8h1V4ZM12,7a1,1,0,1,1,1-1A1,1,0,0,1,12,7ZM2,6a1,1,0,0,0,1.707.707l.707.707a2,2,0,1,1,0-2.828l-.707.707A1,1,0,0,0,2,6Z" />
    <path class="light-blue" d="M5.9,14.354l-2.5-2.5v-.707l2.5-2.5.708.707L4.957,11H12v1H4.957L6.6,13.647Z" />
  </g>
</svg>
