<svg xmlns="http://www.w3.org/2000/svg" viewBox="0 0 16 16">
  <defs>
    <style>.canvas{fill: none; opacity: 0;}.light-defaultgrey{fill: #212121; opacity: 1;}.cls-1{opacity:0.75;}</style>
  </defs>
  <title>IconLightHTMLTagBR</title>
  <g id="canvas">
    <path class="canvas" d="M16,16H0V0H16Z" />
  </g>
  <g id="level-1">
    <g class="cls-1">
      <path class="light-defaultgrey" d="M16,4H1V3H16Zm0,8H1v1H16Z" />
    </g>
    <path class="light-defaultgrey" d="M4.079,6.672,2.262,8.5l1.816,1.82-.707.707L1.2,8.853V8.146L3.37,5.967Zm9.551-.7-.709.705L14.738,8.5l-1.816,1.82.707.707L15.8,8.853V8.146ZM9,9a1.988,1.988,0,0,1-3,1.723V11H5V5H6V7.277A1.988,1.988,0,0,1,9,9ZM8,9a1,1,0,1,0-1,1A1,1,0,0,0,8,9Zm2.75-1.723V7h-1v4h1V9a1,1,0,0,1,1-1,.977.977,0,0,1,.5.153V7.071A1.966,1.966,0,0,0,11.75,7,1.987,1.987,0,0,0,10.75,7.277Z" />
  </g>
</svg>
