<svg xmlns="http://www.w3.org/2000/svg" viewBox="0 0 16 16">
  <defs>
    <style>.canvas{fill: none; opacity: 0;}.light-defaultgrey{fill: #212121; opacity: 1;}.light-blue-10{fill: #005dba; opacity: 0.1;}.light-blue{fill: #005dba; opacity: 1;}</style>
  </defs>
  <title>IconLightHTTPConnection</title>
  <g id="canvas">
    <path class="canvas" d="M16,16H0V0H16Z" />
  </g>
  <g id="level-1">
    <path class="light-defaultgrey" d="M13,13v1H3V13H7v-.5l.5-.5V10.5a4.865,4.865,0,0,0,.5.051,4.865,4.865,0,0,0,.5-.051V12l.5.5V13Z" />
    <path class="light-blue-10" d="M12.5,6A4.5,4.5,0,1,1,8,1.5,4.5,4.5,0,0,1,12.5,6Z" />
    <path class="light-blue" d="M8,1a5,5,0,1,0,5,5A5.006,5.006,0,0,0,8,1Zm3.444,3H10.225a7.486,7.486,0,0,0-.712-1.7A4.011,4.011,0,0,1,11.444,4ZM12,6a3.939,3.939,0,0,1-.142,1H10.426A7.583,7.583,0,0,0,10.5,6a7.583,7.583,0,0,0-.074-1h1.432A3.939,3.939,0,0,1,12,6ZM8,10c-.037,0-.072-.01-.109-.011A6.5,6.5,0,0,1,6.832,8H9.168A6.5,6.5,0,0,1,8.107,9.989C8.071,9.99,8.037,10,8,10ZM9.412,7H6.588A6.419,6.419,0,0,1,6.5,6a6.419,6.419,0,0,1,.088-1H9.412A6.419,6.419,0,0,1,9.5,6,6.419,6.419,0,0,1,9.412,7ZM9.168,4H6.832A6.5,6.5,0,0,1,7.891,2.011C7.928,2.01,7.963,2,8,2s.072.01.11.011A6.54,6.54,0,0,1,9.168,4ZM6.487,2.3A7.486,7.486,0,0,0,5.775,4H4.556A4.011,4.011,0,0,1,6.487,2.3ZM5.574,7H4.142A3.939,3.939,0,0,1,4,6a3.939,3.939,0,0,1,.142-1H5.574A7.583,7.583,0,0,0,5.5,6,7.583,7.583,0,0,0,5.574,7ZM4.556,8H5.775a7.486,7.486,0,0,0,.712,1.7A4.011,4.011,0,0,1,4.556,8ZM9.513,9.7A7.534,7.534,0,0,0,10.226,8h1.218A4.011,4.011,0,0,1,9.513,9.7Z" />
  </g>
</svg>
