<svg xmlns="http://www.w3.org/2000/svg" viewBox="0 0 16 16">
  <defs>
    <style>.canvas{fill: none; opacity: 0;}.light-defaultgrey{fill: #212121; opacity: 1;}.light-defaultgrey-10{fill: #212121; opacity: 0.1;}.cls-1{opacity:0.75;}</style>
  </defs>
  <title>Hub</title>
  <g id="canvas">
    <path class="canvas" d="M16,16H0V0H16Z" />
  </g>
  <g id="level-1">
    <g class="cls-1">
      <path class="light-defaultgrey" d="M12.354,11.646l-.708.708-4.5-4.5.708-.708Zm-9.476-.218.97.242.789-3.156-.97-.242Zm8.792-7.58-.242-.97L8.379,3.64l.242.97Z" />
    </g>
    <path class="light-defaultgrey-10" d="M8.5,5A3.5,3.5,0,1,1,5,1.5,3.5,3.5,0,0,1,8.5,5ZM13,4.5A1.5,1.5,0,1,0,11.5,3,1.5,1.5,0,0,0,13,4.5Zm0,7A1.5,1.5,0,1,0,14.5,13,1.5,1.5,0,0,0,13,11.5Zm-10,0A1.5,1.5,0,1,0,4.5,13,1.5,1.5,0,0,0,3,11.5Z" />
    <path class="light-defaultgrey" d="M5,1A4,4,0,1,0,9,5,4,4,0,0,0,5,1ZM5,8A3,3,0,1,1,8,5,3,3,0,0,1,5,8Zm8-3a2,2,0,1,0-2-2A2,2,0,0,0,13,5Zm0-3a1,1,0,1,1-1,1A1,1,0,0,1,13,2Zm0,9a2,2,0,1,0,2,2A2,2,0,0,0,13,11Zm0,3a1,1,0,1,1,1-1A1,1,0,0,1,13,14ZM3,11a2,2,0,1,0,2,2A2,2,0,0,0,3,11Zm0,3a1,1,0,1,1,1-1A1,1,0,0,1,3,14Z" />
  </g>
</svg>
