<svg xmlns="http://www.w3.org/2000/svg" viewBox="0 0 16 16">
  <defs>
    <style>.canvas{fill: none; opacity: 0;}.light-lightblue{fill: #0077a0; opacity: 1;}.light-purple{fill: #6936aa; opacity: 1;}.light-blue-10{fill: #005dba; opacity: 0.1;}.light-blue{fill: #005dba; opacity: 1;}</style>
  </defs>
  <title>IconLightHyperlinkForward</title>
  <g id="canvas" class="canvas">
    <path class="canvas" d="M16,0V16H0V0Z" />
  </g>
  <g id="level-1">
    <path class="light-lightblue" d="M2,14a2,2,0,0,1,2-2H6a2,2,0,0,1,0,4H4A2,2,0,0,1,2,14Zm2-1a1,1,0,0,0,0,2H6a1,1,0,0,0,0-2Z" />
    <path class="light-purple" d="M6,12a2,2,0,0,1-2,2H3a1,1,0,0,1,1-1,1,1,0,0,0,0-2H2a1,1,0,0,0,0,2h.269A1.984,1.984,0,0,0,2,14a2,2,0,0,1,0-4H4A2,2,0,0,1,6,12Z" />
    <path class="light-blue-10" d="M8.5,1.5a6,6,0,0,0-6,6A5.715,5.715,0,0,0,2.7,9H4a3,3,0,0,1,2.87,2.13,3,3,0,0,1,1.95,1.85,2.851,2.851,0,0,1,.14.5A6,6,0,0,0,8.5,1.5Z" />
    <path class="light-blue" d="M8.5,1A6.513,6.513,0,0,0,2,7.5,6.162,6.162,0,0,0,2.18,9H3.21A5.33,5.33,0,0,1,3,7.5a5.5,5.5,0,1,1,5.82,5.48,2.851,2.851,0,0,1,.14.5,4.048,4.048,0,0,1,.04.5A6.5,6.5,0,0,0,8.5,1Z" />
    <path class="light-blue" d="M8.86,4.15l-.71.7L10.3,7H5V8h5.3L8.15,10.15l.71.7,3-3v-.7Z" />
  </g>
</svg>
