<svg xmlns="http://www.w3.org/2000/svg" viewBox="0 0 16 16">
  <defs>
    <style>.canvas{fill: none; opacity: 0;}.light-blue-10{fill: #005dba; opacity: 0.1;}.light-blue{fill: #005dba; opacity: 1;}</style>
  </defs>
  <title>IconLightIce</title>
  <g id="canvas">
    <path class="canvas" d="M16,16H0V0H16Z" />
  </g>
  <g id="level-1">
    <path class="light-blue-10" d="M12.449,2.586,11.414,6.449,7.551,5.414,8.586,1.55Z" />
    <path class="light-blue" d="M12.579,2.1,8.716,1.067,8.1,1.421,7.067,5.284l.354.613,3.863,1.036.613-.354,1.036-3.863ZM11.061,5.837l-2.9-.776.776-2.9,2.9.776Z" />
    <path class="light-blue-10" d="M6.914,9,4.5,11.414,2.086,9,4.5,6.586Z" />
    <path class="light-blue" d="M4.854,6.232H4.146L1.732,8.646v.708l2.414,2.414h.708L7.268,9.354V8.646ZM4.5,10.707,2.793,9,4.5,7.293,6.207,9Z" />
    <path class="light-blue-10" d="M12.837,13.561l-2.9.776-.776-2.9,2.9-.776Z" />
    <path class="light-blue" d="M12.544,10.533l-.613-.353-2.9.776-.353.613.776,2.9.613.353,2.9-.776.353-.613Zm-2.251,3.192-.518-1.932,1.932-.518.518,1.932Z" />
  </g>
</svg>
