<svg xmlns="http://www.w3.org/2000/svg" viewBox="0 0 16 16">
  <defs>
    <style>.canvas{fill: none; opacity: 0;}.light-defaultgrey-10{fill: #212121; opacity: 0.1;}.light-defaultgrey{fill: #212121; opacity: 1;}.cls-1{opacity:0.75;}</style>
  </defs>
  <title>IconLightIconFile</title>
  <g id="canvas">
    <path class="canvas" d="M16,16H0V0H16Z" />
  </g>
  <g id="level-1">
    <g class="cls-1">
      <path class="light-defaultgrey-10" d="M13.5,4.5v10H2.5V1.5h8Z" />
      <path class="light-defaultgrey" d="M13.854,4.146l-3-3L10.5,1h-8L2,1.5v13l.5.5h11l.5-.5V4.5ZM3,14V2h7V5h3v9Z" />
    </g>
    <path class="light-defaultgrey" d="M6.5,7.245,7.273,8.81,9,9.061,7.75,10.28,8.045,12,6.5,11.188,4.955,12l.295-1.72L4,9.061,5.727,8.81Z" />
    <path class="light-defaultgrey" d="M4,5H5V6H4ZM6,6H7V5H6ZM8,6H9V5H8Zm2,1h1V6H10Zm0,2h1V8H10Zm0,2h1V10H10Zm0,2h1V12H10Z" />
  </g>
</svg>
