<svg xmlns="http://www.w3.org/2000/svg" viewBox="0 0 16 16">
  <defs>
    <style>.canvas{fill: none; opacity: 0;}.light-defaultgrey-10{fill: #212121; opacity: 0.1;}.light-blue{fill: #005dba; opacity: 1;}.light-defaultgrey{fill: #212121; opacity: 1;}</style>
  </defs>
  <title>IconLightIf</title>
  <g id="canvas">
    <path class="canvas" d="M16,16H0V0H16Z" />
  </g>
  <g id="level-1">
    <path class="light-defaultgrey-10" d="M5.879,2.5,8,.379,10.121,2.5,8,4.621Z" />
    <path class="light-blue" d="M14.854,5.854l-2,2h-.708l-2-2,.708-.708L12,6.293V3H10V2h2.5l.5.5V6.293l1.146-1.147Z" />
    <path class="light-blue" d="M1.854,5.146,3,6.293V2.5L3.5,2H6V3H4V6.293L5.146,5.146l.708.708-2,2H3.146l-2-2Z" />
    <path class="light-defaultgrey" d="M6,8v3.5l-.5.5h-4L1,11.5V8H2v3H5V8Z" />
    <path class="light-defaultgrey" d="M15,8v3.5l-.5.5h-4l-.5-.5V8h1v3h3V8Z" />
    <path class="light-defaultgrey" d="M7.646.025,5.525,2.146v.708L7.646,4.975h.708l2.121-2.121V2.146L8.354.025ZM9.414,2.5,8,3.914,6.586,2.5,8,1.086Z" />
    <path class="light-blue" d="M5.854,13.854l-2,2H3.146l-2-2,.708-.708L3,14.293V10H4v4.293l1.146-1.147Z" />
    <path class="light-blue" d="M14.854,13.854l-2,2h-.708l-2-2,.708-.708L12,14.293V10h1v4.293l1.146-1.147Z" />
  </g>
</svg>
