<svg xmlns="http://www.w3.org/2000/svg" viewBox="0 0 16 16">
  <defs>
    <style>.canvas{fill: none; opacity: 0;}.light-defaultgrey-10{fill: #212121; opacity: 0.1;}.light-defaultgrey{fill: #212121; opacity: 1;}.light-blue{fill: #005dba; opacity: 1;}.light-yellow{fill: #996f00; opacity: 1;}</style>
  </defs>
  <title>IconLightImageGenerator</title>
  <g id="canvas">
    <path class="canvas" d="M16,0V16H0V0Z" />
  </g>
  <g id="level-1">
    <path class="light-defaultgrey-10" d="M15,1.5v12l-.5.5H9V8.086L7.914,7H2V1.5L2.5,1h12Z" />
    <path class="light-defaultgrey-10" d="M7.5,8.5v7H.5v-7Z" />
    <path class="light-defaultgrey" d="M7.5,8H.5L0,8.5v7l.5.5h7l.5-.5v-7ZM7,15H1V9H7Z" />
    <path class="light-blue" d="M5.3,13,7,14.36V15H6.164l-1.189-.887-.751.334-.478,0L1.986,13.03,1,13.754V12.513L1.7,12l.608.012,1.75,1.4L4.776,13Z" />
    <path class="light-yellow" d="M4.648,11a1,1,0,1,1,1,1A1,1,0,0,1,4.648,11Z" />
    <path class="light-defaultgrey" d="M7,1V2H6V1ZM4,1V2H5V1ZM8,1V2H9V1Zm2,0V2h1V1Zm2,0V2h1V1ZM10,13v1h1V13Zm2,0v1h1V13ZM3,3H2V4H3ZM3,5H2V6H3ZM15,5H14V6h1Zm0-2H14V4h1Zm0,4H14V8h1Zm0,2H14v1h1Zm0,2H14v1h1ZM14,1V2h1V1.5L14.5,1Zm1,12H14v1h.5l.5-.5ZM2,2H3V1H2.5L2,1.5Z" />
    <path class="light-defaultgrey" d="M11,5H6V7H5V4.5L5.5,4h6l.5.5V10H11Z" />
  </g>
</svg>
