<svg xmlns="http://www.w3.org/2000/svg" viewBox="0 0 16 16">
  <defs>
    <style>.canvas{fill: none; opacity: 0;}.light-defaultgrey{fill: #212121; opacity: 1;}</style>
  </defs>
  <title>ImageTest</title>
  <g id="canvas">
    <path class="canvas" d="M16,16H0V0H16Z" />
  </g>
  <g id="level-1">
    <path class="light-defaultgrey" d="M2.975,1.658l-2,6-.95-.316,2-6Z" />
    <path class="light-defaultgrey" d="M15.975,7.658l-2,6-.95-.316,2-6Z" />
    <path class="light-defaultgrey" d="M12,5V6H9V5Z" />
    <path class="light-defaultgrey" d="M7,11v1H4V11Z" />
    <path class="light-defaultgrey" d="M7.708,3.821,6.2,4.5l1.5.68-.514.894-1.34-.965L6.014,6.75H4.986l.16-1.641-1.34.964-.514-.894L4.8,4.5l-1.5-.68.514-.894,1.34.965L4.986,2.25H6.014l-.16,1.641,1.34-.964Z" />
    <path class="light-defaultgrey" d="M12.708,9.821,11.2,10.5l1.5.68-.514.894-1.34-.965.163,1.641H9.986l.16-1.641-1.34.964-.514-.894L9.8,10.5l-1.5-.68.514-.894,1.34.965L9.986,8.25h1.028l-.16,1.641,1.34-.964Z" />
  </g>
</svg>
