<svg xmlns="http://www.w3.org/2000/svg" viewBox="0 0 16 16">
  <defs>
    <style>.canvas{fill: none; opacity: 0;}.light-blue{fill: #005dba; opacity: 1;}.light-defaultgrey-10{fill: #212121; opacity: 0.1;}.light-yellow{fill: #996f00; opacity: 1;}.light-defaultgrey{fill: #212121; opacity: 1;}</style>
  </defs>
  <title>IconLightImageIcon</title>
  <g id="canvas">
    <path class="canvas" d="M16,0V16H0V0Z" />
  </g>
  <g id="level-1">
    <path class="light-blue" d="M10.181,9.684,7.988,11.877H7.281L3.814,8.41l-1.88,1.881a6.474,6.474,0,0,1-.31-1.105L3.461,7.35h.707l3.466,3.466L9.827,8.623h.707l2.921,2.922a6.521,6.521,0,0,1-.617.8Z" />
    <path class="light-defaultgrey-10" d="M14.5,8A6.5,6.5,0,1,1,8,1.5,6.5,6.5,0,0,1,14.5,8Z" />
    <path class="light-yellow" d="M11,5.5A1.5,1.5,0,1,1,9.5,4,1.5,1.5,0,0,1,11,5.5Z" />
    <path class="light-defaultgrey" d="M8,1a7,7,0,1,0,7,7A7,7,0,0,0,8,1ZM8,14a6,6,0,1,1,6-6A6,6,0,0,1,8,14Z" />
  </g>
</svg>
