<svg xmlns="http://www.w3.org/2000/svg" viewBox="0 0 16 16">
  <defs>
    <style>.canvas{fill: none; opacity: 0;}.light-defaultgrey-10{fill: #212121; opacity: 0.1;}.light-blue{fill: #005dba; opacity: 1;}.light-defaultgrey{fill: #212121; opacity: 1;}.light-yellow{fill: #996f00; opacity: 1;}</style>
  </defs>
  <title>IconLightImageButton</title>
  <g id="canvas">
    <path class="canvas" d="M16,0V16H0V0Z" />
  </g>
  <g id="level-1">
    <path class="light-defaultgrey-10" d="M12.5,13.5H2.5a2,2,0,0,1-2-2v-8a2,2,0,0,1,2-2h10a2,2,0,0,1,2,2v8A2,2,0,0,1,12.5,13.5Z" />
    <path class="light-blue" d="M14.291,12.083l-.145,1.271L9.98,9.187l-1.64,1.64H7.633L4.986,8.181.893,12.274A.98.98,0,0,1,.5,11.5v-.247L4.633,7.12H5.34L7.986,9.767l1.641-1.64h.707Z" />
    <path class="light-defaultgrey" d="M12.5,14H2.5A2.5,2.5,0,0,1,0,11.5v-8A2.5,2.5,0,0,1,2.5,1h10A2.5,2.5,0,0,1,15,3.5v8A2.5,2.5,0,0,1,12.5,14ZM2.5,2A1.5,1.5,0,0,0,1,3.5v8A1.5,1.5,0,0,0,2.5,13h10A1.5,1.5,0,0,0,14,11.5v-8A1.5,1.5,0,0,0,12.5,2Z" />
    <path class="light-yellow" d="M11,4.5A1.5,1.5,0,1,1,9.5,3,1.5,1.5,0,0,1,11,4.5Z" />
  </g>
</svg>
