<svg xmlns="http://www.w3.org/2000/svg" viewBox="0 0 16 16">
  <defs>
    <style>.canvas{fill: none; opacity: 0;}.light-lightblue{fill: #0077a0; opacity: 1;}.white{fill: #ffffff; opacity: 1;}.light-defaultgrey{fill: #212121; opacity: 1;}</style>
  </defs>
  <title>ImplementingOverriding</title>
  <g id="canvas">
    <path class="canvas" d="M16,16H0V0H16Z" />
  </g>
  <g id="level-1">
    <path class="light-lightblue" d="M9,8v6H2V8ZM9,1H2V7H9Z" />
    <path class="white" d="M5.5,9a2,2,0,1,0,2,2A2,2,0,0,0,5.5,9Zm0,3a1,1,0,1,1,1-1A1,1,0,0,1,5.5,12ZM7,6H4V5H5V3H4V2H7V3H6V5H7Z" />
    <path class="light-defaultgrey" d="M12,2.707,10.854,3.854l-.708-.708,2-2h.708l2,2-.708.708L13,2.707V14H12Z" />
  </g>
</svg>
