<svg xmlns="http://www.w3.org/2000/svg" viewBox="0 0 16 16">
  <defs>
    <style>.canvas{fill: none; opacity: 0;}.light-defaultgrey-10{fill: #212121; opacity: 0.1;}.light-defaultgrey{fill: #212121; opacity: 1;}.light-blue{fill: #005dba; opacity: 1;}.cls-1{opacity:0.75;}</style>
  </defs>
  <title>IconLightIncreaseHorizontalSpacing</title>
  <g id="canvas" class="canvas">
    <path class="canvas" d="M16,16H0V0H16Z" />
  </g>
  <g id="level-1">
    <path class="light-defaultgrey-10" d="M1.5,8.5V.5h2v8Zm5,0V.5h2v8Zm5,0V.5h2v8Z" />
    <path class="light-defaultgrey" d="M3.5,0h-2L1,.5v8l.5.5h2L4,8.5V.5ZM3,8H2V1H3ZM8.5,0h-2L6,.5v8l.5.5h2L9,8.5V.5ZM8,8H7V1H8Zm5.5-8h-2L11,.5v8l.5.5h2l.5-.5V.5ZM13,8H12V1h1Z" />
    <path class="light-blue" d="M1.146,12.854l2,2,.708-.708L2.707,13H6V12H2.707l1.147-1.146-.708-.708-2,2Zm12.708-.708-2-2-.708.708L12.293,12H9v1h3.293l-1.147,1.146.708.708,2-2Z" />
    <g class="cls-1">
      <path class="light-defaultgrey" d="M6,5H4V4H6Zm5,0H9V4h2Z" />
    </g>
  </g>
</svg>
