<svg xmlns="http://www.w3.org/2000/svg" viewBox="0 0 16 16">
  <defs>
    <style>.canvas{fill: none; opacity: 0;}.light-defaultgrey-10{fill: #212121; opacity: 0.1;}.light-defaultgrey{fill: #212121; opacity: 1;}.cls-1{opacity:0.75;}</style>
  </defs>
  <title>IconLightInheritedUserControl</title>
  <g id="canvas">
    <path class="canvas" d="M16,16H0V0H16Z" />
  </g>
  <g id="level-1">
    <g class="cls-1">
      <path class="light-defaultgrey-10" d="M16,.5v9l-.5.5H14V2.5L13.5,2H6V.5L6.5,0h9Z" />
      <path class="light-defaultgrey" d="M15,9h1v.5l-.5.5H15ZM6.5,0H7V1H6V.5ZM12,0h1V1H12ZM10,0h1V1H10ZM8,0H9V1H8Zm7,1H14V0h1Zm1,1H15V1h1ZM15,5h1V6H15Zm0,2h1V8H15Zm0-4h1V4H15Z" />
    </g>
    <path class="light-defaultgrey-10" d="M13.5,2.5v9H7.524a3.683,3.683,0,0,0,.226-1.25,3.742,3.742,0,0,0-3.25-3.7V2.5Z" />
    <path class="light-defaultgrey" d="M14,2.5v9l-.5.5H7.3a3.689,3.689,0,0,0,.364-1H13V3H5V6.653A3.671,3.671,0,0,0,4,6.5v-4L4.5,2h9Z" />
    <path class="light-defaultgrey-10" d="M6.25,10.25A2.25,2.25,0,1,1,4,8,2.25,2.25,0,0,1,6.25,10.25ZM7.5,16a3.5,3.5,0,0,0-7,0Z" />
    <path class="light-defaultgrey" d="M2.25,10.25A1.75,1.75,0,1,1,4,12,1.752,1.752,0,0,1,2.25,10.25ZM5.7,12.394a2.75,2.75,0,1,0-3.4,0A4,4,0,0,0,0,16H1a3,3,0,0,1,6,0H8A4,4,0,0,0,5.7,12.394Z" />
  </g>
</svg>
