<svg xmlns="http://www.w3.org/2000/svg" viewBox="0 0 16 16">
  <defs>
    <style>.canvas{fill: none; opacity: 0;}.light-defaultgrey-10{fill: #212121; opacity: 0.1;}.light-defaultgrey{fill: #212121; opacity: 1;}</style>
  </defs>
  <title>IconLightInheritedForm</title>
  <g id="canvas">
    <path class="canvas" d="M16,16H0V0H16Z" />
  </g>
  <g id="level-1">
    <path class="light-defaultgrey-10" d="M12.5,15.5H.5V5.5h12Z" />
    <path class="light-defaultgrey" d="M12.5,5H.5L0,5.5v10l.5.5h12l.5-.5V5.5ZM12,15H1V8H12Zm0-8H1V6H12Z" />
    <path class="light-defaultgrey-10" d="M15,1l1,1v9l-.5.5H14V5.086L12.914,4H3V2L4,1Z" />
    <path class="light-defaultgrey" d="M5,1V2H6V1ZM9,1V2h1V1Zm4,0V2h1V1Zm2.5,0H15V2h1V1.5ZM13,3V4h1V3ZM9,3V4h1V3ZM5,3V4H6V3ZM3,4H4V3H3ZM7,3V4H8V3Zm4,0V4h1V3Zm4,0V4h1V3Zm0,4V8h1V7Zm-1,4v1h1.5l.5-.5V11Zm1-2v1h1V9Zm0-4V6h1V5ZM11,1V2h1V1ZM7,1V2H8V1ZM3.5,1,3,1.5V2H4V1Z" />
  </g>
</svg>
