<svg xmlns="http://www.w3.org/2000/svg" viewBox="0 0 16 16">
  <defs>
    <style>.canvas{fill: none; opacity: 0;}.light-defaultgrey-10{fill: #212121; opacity: 0.1;}.light-blue-10{fill: #005dba; opacity: 0.1;}.light-blue{fill: #005dba; opacity: 1;}.light-defaultgrey{fill: #212121; opacity: 1;}</style>
  </defs>
  <title>IconLightInkCanvas</title>
  <g id="canvas">
    <path class="canvas" d="M16,0V16H0V0Z" />
  </g>
  <g id="level-1">
    <path class="light-defaultgrey-10" d="M14.5,4.5v10H1.5V6.11l.5.5,3.21,3.2,2.88,1.56A3.277,3.277,0,0,0,11,13.5c1.68,0,2.41-1.46,2.84-2.33.04-.08.1-.19.16-.31V7.5c-1.68,0-2.41,1.46-2.84,2.33-.06.11-.15.29-.24.46-.07-.13-.15-.27-.19-.35a6.484,6.484,0,0,0-.62-1L8.74,6.12,7.12,4.5Z" />
    <path class="light-blue-10" d="M7.847,7.347,6.365,8.865.808,3.308A1.062,1.062,0,0,1,1.562,1.5a1.049,1.049,0,0,1,.746.309Z" />
    <path class="light-blue" d="M12.053,10.276c-.381.762-.642,1.224-1.053,1.224-.553,0-.788-.4-1.155-1.1a4.846,4.846,0,0,0-.574-.9l-1.36-2.8-5.25-5.25A1.561,1.561,0,0,0,.454,3.662L5.819,9l3,1.629.01-.009q.068.123.135.252c.362.688.857,1.63,2.041,1.63,1.059,0,1.552-.985,1.947-1.776C13.328,9.962,13.589,9.5,14,9.5v-1C12.941,8.5,12.448,9.485,12.053,10.276ZM6.361,8.154l-5.2-5.2a.561.561,0,0,1,.793-.793l5.19,5.189Z" />
    <path class="light-defaultgrey" d="M15,4.5v10l-.5.5H1.5L1,14.5V5.62l.5.49.5.5V14H14V5H7.62l-1-1H14.5Z" />
  </g>
</svg>
