<svg xmlns="http://www.w3.org/2000/svg" viewBox="0 0 16 16">
  <defs>
    <style>.canvas{fill: none; opacity: 0;}.light-defaultgrey-10{fill: #212121; opacity: 0.1;}.light-defaultgrey{fill: #212121; opacity: 1;}.light-blue{fill: #005dba; opacity: 1;}</style>
  </defs>
  <title>IconLightInkPresenter</title>
  <g id="canvas">
    <path class="canvas" d="M16,0V16H0V0Z" />
  </g>
  <g id="level-1">
    <path class="light-defaultgrey-10" d="M14.5,2.5v10H1.5V2.5Z" />
    <path class="light-defaultgrey" d="M16,3V2H0V3H1v9H0v1H5L3,16H4l.667-1h6.666L12,16h1l-2-3h5V12H15V3ZM5.333,14,6,13h4l.667,1ZM14,12H2V3H14Z" />
    <path class="light-blue" d="M12.127,6.659a.5.5,0,0,1-.581.4A14.566,14.566,0,0,0,10,8.91c-1.237,1.621-1.755,2.237-2.288,2.272a.63.63,0,0,1-.5-.186c-.447-.446-.2-1.325.607-3.72.224-.661.524-1.549.678-2.164-.42.465-.982,1.2-1.4,1.745C5.721,8.645,5.105,9.378,4.534,9.415a.644.644,0,0,1-.512-.19.5.5,0,0,1,.466-.841A15.888,15.888,0,0,0,6.3,6.248c1.372-1.79,1.988-2.522,2.559-2.56a.664.664,0,0,1,.512.19c.446.448.2,1.325-.607,3.719-.215.636-.5,1.483-.66,2.093.347-.4.773-.961,1.1-1.387,1.238-1.621,1.755-2.237,2.288-2.273a.646.646,0,0,1,.5.186A.5.5,0,0,1,12.127,6.659Z" />
  </g>
</svg>
