<svg xmlns="http://www.w3.org/2000/svg" viewBox="0 0 16 16">
  <defs>
    <style>.canvas{fill: none; opacity: 0;}.light-defaultgrey{fill: #212121; opacity: 1;}</style>
  </defs>
  <title>IconLightInspectMode</title>
  <g id="canvas">
    <path class="canvas" d="M16,16H0V0H16Z" />
  </g>
  <g id="level-1">
    <path class="light-defaultgrey" d="M11.575,6.875l1.032,2.84L11.824,10,10.769,7.1,9,8.514v-7.5l5,6ZM1.212,12.5l1.816,1.82-.707.707L.152,12.854v-.706L2.32,9.969l.709.705Zm9.637-.351v.709L8.661,15.031l-.7-.709L9.787,12.5,7.956,10.679l.7-.709ZM5.5,11A1.5,1.5,0,1,0,7,12.5,1.5,1.5,0,0,0,5.5,11Zm0,2a.5.5,0,1,1,.5-.5A.5.5,0,0,1,5.5,13Z" />
  </g>
</svg>
