<svg xmlns="http://www.w3.org/2000/svg" viewBox="0 0 12 12">
  <defs>
    <style>.canvas{fill: none; opacity: 0;}.light-yellow-10{fill: #996f00; opacity: 0.1;}.light-yellow{fill: #996f00; opacity: 1;}.light-defaultgrey-10{fill: #212121; opacity: 0.1;}.light-defaultgrey{fill: #212121; opacity: 1;}</style>
  </defs>
  <title>IntellisenseLightBulb</title>
  <g id="canvas" class="canvas">
    <path class="canvas" d="M12,12H0V0H12Z" />
  </g>
  <g id="level-1">
    <path class="light-yellow-10" d="M10,4.5A3.985,3.985,0,0,1,8.221,7.821a1.567,1.567,0,0,0-.721,1.3V9.5h-3V9.118a1.574,1.574,0,0,0-.726-1.3A4,4,0,1,1,10,4.5Z" />
    <path class="light-yellow" d="M10.5,4.5a4.486,4.486,0,0,1-2,3.737,1.076,1.076,0,0,0-.5.88V9.5H7V9.117a2.072,2.072,0,0,1,.942-1.711,3.5,3.5,0,0,0-2.374-6.38A3.528,3.528,0,0,0,2.543,3.942,3.489,3.489,0,0,0,4.052,7.4,2.078,2.078,0,0,1,5,9.118V9.5H4V9.118a1.071,1.071,0,0,0-.5-.885A4.477,4.477,0,0,1,1.555,3.79,4.5,4.5,0,0,1,10.5,4.5Zm-4,1.929V9.5h-1V6.429a2,2,0,1,1,1,0ZM7,4.5a1,1,0,1,0-1,1A1,1,0,0,0,7,4.5Z" />
    <path class="light-defaultgrey-10" d="M7.5,9.5v2h-3v-2Z" />
    <path class="light-defaultgrey" d="M7.5,9h-3L4,9.5v2l.5.5h3l.5-.5v-2ZM7,11H5V10H7Z" />
  </g>
</svg>
