<svg xmlns="http://www.w3.org/2000/svg" viewBox="0 0 16 16">
  <defs>
    <style>.canvas{fill: none; opacity: 0;}.light-defaultgrey-10{fill: #212121; opacity: 0.1;}.light-defaultgrey{fill: #212121; opacity: 1;}.light-blue-10{fill: #005dba; opacity: 0.1;}.light-blue{fill: #005dba; opacity: 1;}.cls-1{opacity:0.75;}</style>
  </defs>
  <title>IconLightInterfaceSnippet</title>
  <g id="canvas" class="canvas">
    <path class="canvas" d="M16,16H0V0H16Z" />
  </g>
  <g id="level-1">
    <g class="cls-1">
      <path class="light-defaultgrey-10" d="M14.5,1.5V10h-8V1.5Z" />
      <path class="light-defaultgrey" d="M15,11v1H14V11Zm0-9.5V10H14V2H7v8H6V1.5L6.5,1h8Z" />
    </g>
    <path class="light-blue-10" d="M3.333,12A1.333,1.333,0,1,1,2,10.667,1.333,1.333,0,0,1,3.333,12ZM12,12a2,2,0,1,1-2-2A2,2,0,0,1,12,12Z" />
    <path class="light-blue" d="M10,9a3,3,0,0,0-2.95,2.5H3.929a2,2,0,1,0,0,1H7.05A3,3,0,1,0,10,9ZM2,13a1,1,0,1,1,1-1A1,1,0,0,1,2,13Zm8,1a2,2,0,1,1,2-2A2,2,0,0,1,10,14Z" />
  </g>
</svg>
