<svg xmlns="http://www.w3.org/2000/svg" viewBox="0 0 16 16">
  <defs>
    <style>.canvas{fill: none; opacity: 0;}.light-defaultgrey-10{fill: #212121; opacity: 0.1;}.light-defaultgrey{fill: #212121; opacity: 1;}</style>
  </defs>
  <title>IconLightIntersectPath</title>
  <g id="canvas">
    <path class="canvas" d="M16,0V16H0V0Z" />
  </g>
  <g id="level-1">
    <path class="light-defaultgrey-10" d="M4,10.5H1.5v-9h9V4H5.086L4,5.086Zm8-5v5.414L10.914,12H5.5v2.5h9v-9Z" />
    <path class="light-defaultgrey" d="M5.5,5H11v5.5l-.5.5H5V5.5ZM2,2h8V4h1V1.5L10.5,1h-9L1,1.5v9l.5.5H4V10H2ZM14.5,5H12V6h2v8H6V12H5v2.5l.5.5h9l.5-.5v-9Z" />
  </g>
</svg>
