<svg xmlns="http://www.w3.org/2000/svg" viewBox="0 0 16 16">
  <defs>
    <style>.canvas{fill: none; opacity: 0;}.light-blue{fill: #005dba; opacity: 1;}.light-blue-10{fill: #005dba; opacity: 0.1;}.light-defaultgrey-10{fill: #212121; opacity: 0.1;}.light-defaultgrey{fill: #212121; opacity: 1;}.cls-1{opacity:0.75;}</style>
  </defs>
  <title>IconLightInterfaceSealed</title>
  <g id="canvas" class="canvas">
    <path class="canvas" d="M16,16H0V0H16Z" />
  </g>
  <g id="level-1">
    <g class="cls-1">
      <path class="light-blue" d="M8.5,6V7h-4V6Z" />
    </g>
    <path class="light-blue-10" d="M4.5,6.5a2,2,0,1,1-2-2A2,2,0,0,1,4.5,6.5Zm4,0a3,3,0,1,1,5.425,1.753,4.316,4.316,0,0,0-4.153.693A2.994,2.994,0,0,1,8.5,6.5Z" />
    <path class="light-blue" d="M2.5,4A2.5,2.5,0,1,0,5,6.5,2.5,2.5,0,0,0,2.5,4Zm0,4A1.5,1.5,0,1,1,4,6.5,1.5,1.5,0,0,1,2.5,8ZM9,6.5a2.5,2.5,0,0,1,5,0,2.474,2.474,0,0,1-.59,1.593,4.427,4.427,0,0,1,1,.348,3.5,3.5,0,1,0-5.027.827,4.531,4.531,0,0,1,.844-.629A2.492,2.492,0,0,1,9,6.5Z" />
    <path class="light-defaultgrey-10" d="M12.5,9.5a3,3,0,1,1-3,3A3,3,0,0,1,12.5,9.5Z" />
    <path class="light-defaultgrey" d="M9,12.5A3.5,3.5,0,1,0,12.5,9,3.5,3.5,0,0,0,9,12.5Zm6,0a2.486,2.486,0,0,1-.416,1.377l-3.461-3.461A2.5,2.5,0,0,1,15,12.5Zm-5,0a2.486,2.486,0,0,1,.416-1.377l3.461,3.461A2.5,2.5,0,0,1,10,12.5Z" />
  </g>
</svg>
