<svg xmlns="http://www.w3.org/2000/svg" viewBox="0 0 16 16">
  <defs>
    <style>.canvas{fill: none; opacity: 0;}.light-defaultgrey-10{fill: #212121; opacity: 0.1;}.light-defaultgrey{fill: #212121; opacity: 1;}</style>
  </defs>
  <title>IconLightInvokeTable</title>
  <g id="canvas" class="canvas">
    <path class="canvas" d="M16,16H0V0H16Z" />
  </g>
  <g id="level-1">
    <path class="light-defaultgrey-10" d="M14.5,2.5v11H1.5V2.5Z" />
    <path class="light-defaultgrey" d="M14.5,2H1.5L1,2.5v11l.5.5h13l.5-.5V2.5ZM14,13H2V3H14Z" />
    <path class="light-defaultgrey-10" d="M12.5,11.5h-9v-7h9Z" />
    <path class="light-defaultgrey" d="M12.5,4h-9L3,4.5v7l.5.5h9l.5-.5v-7ZM12,7H10V6h2Zm0,2H10V8h2ZM4,8H6V9H4ZM4,6H6V7H4ZM9,6V7H7V6ZM7,8H9V9H7ZM4,10H6v1H4Zm3,0H9v1H7Zm5,1H10V10h2Z" />
  </g>
</svg>
