<svg xmlns="http://www.w3.org/2000/svg" viewBox="0 0 16 16">
  <defs>
    <style>.canvas{fill: none; opacity: 0;}.light-defaultgrey{fill: #212121; opacity: 1;}.light-defaultgrey-10{fill: #212121; opacity: 0.1;}.light-blue{fill: #005dba; opacity: 1;}.cls-1{opacity:0.1;}</style>
  </defs>
  <title>IrregularSelection</title>
  <g id="canvas">
    <path class="canvas" d="M16,16H0V0H16ZM16,0H0V16H16Z" />
  </g>
  <g id="level-1">
    <path class="light-defaultgrey" d="M14,10H13V9h1Zm0-3H13V8h1ZM11,3H10V4h1Zm4,8H14v1h1Zm-1,2H13v1h1ZM9,2H8V3H9Zm4,3H12V6h1ZM4,4H5V3H4ZM3,13H4V12H3Zm3,0H5v1H6ZM7,2H6V3H7ZM2,5H3V4H2Zm0,6H3V10H2ZM1,7H2V6H1ZM1,9H2V8H1Z" />
    <g class="cls-1">
      <path class="light-defaultgrey" d="M14.392,11.049c-1.522-.662-.65-2.82-.878-3.935C12.291,3.4,7.734.756,4.239,3.439-.934,4.556,1.657,13.5,6,13.7V4.238l7.764,9.317A4.311,4.311,0,0,0,14.6,11.22Z" />
      <path class="light-defaultgrey-10" d="M14.392,11.049c-1.522-.662-.65-2.82-.878-3.935C12.291,3.4,7.734.756,4.239,3.439-.934,4.556,1.657,13.5,6,13.7V4.238l7.764,9.317A4.311,4.311,0,0,0,14.6,11.22Z" />
    </g>
    <path class="light-blue" d="M9.575,12.861l1.032,2.84-.783.285-1.055-2.9L7,14.5V7l5,6Z" />
  </g>
</svg>
