<svg xmlns="http://www.w3.org/2000/svg" viewBox="0 0 16 16">
  <defs>
    <style>.canvas{fill: none; opacity: 0;}.light-defaultgrey-10{fill: #212121; opacity: 0.1;}.light-defaultgrey{fill: #212121; opacity: 1;}</style>
  </defs>
  <title>IconLightItemID</title>
  <g id="canvas" class="canvas">
    <path class="canvas" d="M16,16H0V0H16Z" />
  </g>
  <g id="level-1">
    <path class="light-defaultgrey-10" d="M1.5,4.5V10H4.37a3.984,3.984,0,0,1,6.5,2,4.021,4.021,0,0,1,.1.5H14.5v-8Z" />
    <path class="light-defaultgrey" d="M4,8V9h8V8ZM4,8V9h8V8ZM14.5,4H1.5L1,4.5v5.62L1.28,10H2V5H14v7H10.87a4.021,4.021,0,0,1,.1.5A4.07,4.07,0,0,1,11,13h3.5l.5-.5v-8ZM12,8H4V9h8Z" />
    <path class="light-defaultgrey-10" d="M7,15.5a2.492,2.492,0,0,1-2.393-1.816L3.475,14l-.5-.5-1,.5-1.5-1.5,1-1H5.011A2.5,2.5,0,1,1,7,15.5Z" />
    <path class="light-defaultgrey" d="M8,13a.5.5,0,1,1-.5-.5A.5.5,0,0,1,8,13Zm2,0a2.992,2.992,0,0,1-5.7,1.288l-.693.193-.488-.127-.245-.246-.678.339-.577-.093-1.5-1.5v-.708l1-1L1.476,11h3.3A2.962,2.962,0,0,1,7,10,3,3,0,0,1,10,13Zm-8.817-.5.891.892.678-.339.577.093.293.294.85-.237.615.343A2,2,0,1,0,7,11a1.979,1.979,0,0,0-1.589.8l-.4.2H1.683Z" />
  </g>
</svg>
