<svg xmlns="http://www.w3.org/2000/svg" viewBox="0 0 16 16">
  <defs>
    <style>.canvas{fill: none; opacity: 0;}.light-defaultgrey{fill: #212121; opacity: 1;}.light-defaultgrey-10{fill: #212121; opacity: 0.1;}.cls-1{opacity:0.75;}</style>
  </defs>
  <title>IconLightJARFile</title>
  <g id="canvas">
    <path class="canvas" d="M16,16H0V0H16Z" />
    <path class="canvas" d="M16,16H0V0H16Z" />
  </g>
  <g id="level-1">
    <path class="light-defaultgrey" d="M1.4,11.1h.814v3.144A1.972,1.972,0,0,1,1.784,15.6a1.463,1.463,0,0,1-1.148.483A1.647,1.647,0,0,1,.085,16v-.766a.881.881,0,0,0,.5.133q.813,0,.813-1.258ZM11.7,16h-.95L9.97,14.688a2.64,2.64,0,0,0-.207-.31,1.244,1.244,0,0,0-.205-.21.66.66,0,0,0-.227-.119.914.914,0,0,0-.277-.038H8.726V16h-.81V11.1H9.529a2.326,2.326,0,0,1,.636.082,1.459,1.459,0,0,1,.506.248,1.146,1.146,0,0,1,.336.413,1.3,1.3,0,0,1,.122.58,1.419,1.419,0,0,1-.077.476,1.233,1.233,0,0,1-.219.386,1.331,1.331,0,0,1-.341.289,1.709,1.709,0,0,1-.45.185v.013a1.221,1.221,0,0,1,.232.167c.066.06.129.122.188.185a2.255,2.255,0,0,1,.176.218c.059.081.123.175.194.282Zm-1.678-2.875a.735.735,0,0,0,.181-.266.9.9,0,0,0,.065-.352.7.7,0,0,0-.222-.55.925.925,0,0,0-.639-.2H8.726v1.594H9.4a1,1,0,0,0,.347-.059A.8.8,0,0,0,10.025,13.125ZM5.421,11.1,7.243,16H6.351L5.91,14.752H3.982L3.558,16H2.669l1.836-4.9Zm.273,2.991-.68-1.955a2.492,2.492,0,0,1-.065-.309H4.936a2.073,2.073,0,0,1-.069.309L4.194,14.09Z" />
    <g class="cls-1">
      <path class="light-defaultgrey-10" d="M13.5,4.5v10H13V10H2.5V1.5h8Z" />
      <path class="light-defaultgrey" d="M14,4.5v10l-.5.5H13V5H10V2H3v8H2V1.5L2.5,1h8l.354.146,3,3Z" />
    </g>
  </g>
</svg>
