<svg xmlns="http://www.w3.org/2000/svg" viewBox="0 0 16 16">
  <defs>
    <style>.canvas{fill: none; opacity: 0;}.light-defaultgrey-10{fill: #212121; opacity: 0.1;}.light-defaultgrey{fill: #212121; opacity: 1;}.cls-1{opacity:0.75;}</style>
  </defs>
  <title>IconLightJavaSource</title>
  <g id="canvas">
    <path class="canvas" d="M16,0V16H0V0Z" />
  </g>
  <g id="level-1">
    <path class="light-defaultgrey-10" d="M7,12.5A4.505,4.505,0,0,1,2.5,8V5.5h9V8A4.505,4.505,0,0,1,7,12.5Z" />
    <g class="cls-1">
      <path class="light-defaultgrey" d="M6,3.687V4H5V3.687a1.061,1.061,0,0,0-.617-.916l-1.237-.66A2.072,2.072,0,0,1,2,.313V0H3V.313a1.061,1.061,0,0,0,.617.916l1.237.66A2.072,2.072,0,0,1,6,3.687Zm3.5,0V4h-1V3.687a1.061,1.061,0,0,0-.617-.916l-1.237-.66A2.072,2.072,0,0,1,5.5.313V0h1V.313a1.061,1.061,0,0,0,.617.916l1.237.66A2.072,2.072,0,0,1,9.5,3.687Z" />
    </g>
    <path class="light-defaultgrey" d="M12.5,5H2.5L2,5.5V8a5,5,0,0,0,9.578,2H12.5a2.5,2.5,0,0,0,0-5ZM7,12A4,4,0,0,1,3,8h8A4,4,0,0,1,7,12Zm4-5H3V6h8Zm1.5,2h-.6A4.988,4.988,0,0,0,12,8V6h.5a1.5,1.5,0,0,1,0,3Z" />
    <path class="light-defaultgrey" d="M12,13a1,1,0,0,1-1,1H3a1,1,0,0,1-1-1H12Z" />
  </g>
</svg>
