<svg xmlns="http://www.w3.org/2000/svg" viewBox="0 0 16 16">
  <defs>
    <style>.canvas{fill: none; opacity: 0;}.light-blue-10{fill: #005dba; opacity: 0.1;}.light-blue{fill: #005dba; opacity: 1;}.light-defaultgrey-10{fill: #212121; opacity: 0.1;}.light-defaultgrey{fill: #212121; opacity: 1;}</style>
  </defs>
  <title>IconLightJournalMessage</title>
  <g id="canvas" class="canvas">
    <path class="canvas" d="M0,16V0H16V16Z" />
  </g>
  <g id="level-1">
    <path class="light-blue-10" d="M15.192,8.681,9.635,14.238,8.153,12.72l5.539-5.539a1.059,1.059,0,0,1,1.5,0A1.062,1.062,0,0,1,15.192,8.681Z" />
    <path class="light-blue" d="M15.543,6.83a1.56,1.56,0,0,0-2.2,0l-5.25,5.25L6.511,15.326,7.186,16l2.995-1.629,5.365-5.336A1.562,1.562,0,0,0,15.543,6.83Zm-.7,1.5-5.2,5.2-.783-.8,5.19-5.189a.56.56,0,0,1,.792.793Z" />
    <path class="light-defaultgrey-10" d="M14.29,2.5H9.5a2.008,2.008,0,0,0-1.6.81l-.4.54-.4-.54A2.008,2.008,0,0,0,5.5,2.5H.71L.5,2.71v9.58l.21.21H5.5a1.752,1.752,0,0,1,.4.04l.08.02.07.04a2.94,2.94,0,0,0,.51.23c.01,0,.03.01.04.01l.22-.45L7,12.03l.26-.54,5.37-5.37A2.526,2.526,0,0,1,14,5.41a2.183,2.183,0,0,1,.44-.04h.06V2.71Z" />
    <path class="light-defaultgrey" d="M14.5,2h-5a2.481,2.481,0,0,0-2,1.02A2.481,2.481,0,0,0,5.5,2H.5L0,2.5v10l.5.5h5a1.526,1.526,0,0,1,.3.03,3.377,3.377,0,0,0,.58.27l.22-.46.22-.45A2.4,2.4,0,0,0,5.5,12H1V3H5.5A1.5,1.5,0,0,1,7,4.5v7.53l.26-.54L8,10.75V4.5A1.5,1.5,0,0,1,9.5,3H14V5.41a2.183,2.183,0,0,1,.44-.04h.06a2.08,2.08,0,0,1,.5.07V2.5Z" />
  </g>
</svg>
