<svg xmlns="http://www.w3.org/2000/svg" viewBox="0 0 16 16">
  <defs>
    <style>.canvas{fill: none; opacity: 0;}.light-orange-10{fill: #b73d18; opacity: 0.1;}.light-defaultgrey{fill: #212121; opacity: 1;}.light-defaultgrey-10{fill: #212121; opacity: 0.1;}.light-orange{fill: #b73d18; opacity: 1;}</style>
  </defs>
  <title>IconLightJSWebScript</title>
  <g id="canvas" class="canvas">
    <path class="canvas" d="M16,16H0V0H16Z" />
  </g>
  <g id="level-1">
    <path class="light-orange-10" d="M3.491,14a1.984,1.984,0,0,0,.269,1H2a1,1,0,0,1-1-1Zm0-4v3h.5l.5.5V14a1,1,0,0,0,2,0V10a1.978,1.978,0,0,1,.278-1H4.491A1,1,0,0,0,3.491,10Zm5-1a1,1,0,0,0-1,1h2A1,1,0,0,0,8.491,9Z" />
    <path class="light-defaultgrey" d="M12.947,3.053A6.979,6.979,0,0,0,1.491,10.544V10a2.978,2.978,0,0,1,.535-1.7C2.021,8.2,2,8.1,2,8a5.98,5.98,0,0,1,.35-2H4.7c-.066.331-.116.665-.149,1H5.557a9.389,9.389,0,0,1,.165-1h4.556a9.394,9.394,0,0,1,.209,1.777A2.981,2.981,0,0,1,11.4,9.309,10.184,10.184,0,0,0,11.3,6h2.35a5.885,5.885,0,0,1,0,4H11.491v.914L11.405,11h1.783a6.024,6.024,0,0,1-3.4,2.727,10.491,10.491,0,0,0,1.049-2.16L10.405,12h-.8a9.466,9.466,0,0,1-1.114,1.828V14a2.976,2.976,0,0,1-.176.975A6.983,6.983,0,0,0,12.947,3.053ZM4.946,5H2.812a6.025,6.025,0,0,1,3.4-2.727A10.522,10.522,0,0,0,4.946,5ZM6,5A9.479,9.479,0,0,1,7.628,2.019C7.752,2.011,7.874,2,8,2s.249.011.373.019A9.478,9.478,0,0,1,10.005,5Zm5.053,0A10.489,10.489,0,0,0,9.789,2.273,6.02,6.02,0,0,1,13.188,5Z" />
    <path class="light-defaultgrey-10" d="M14.5,8a6.457,6.457,0,0,1-6.057,6.473A2.95,2.95,0,0,0,8.491,14V12h1.914l1.086-1.086V10a3,3,0,0,0-3-3h-4A3,3,0,0,0,1.616,9.193,6.5,6.5,0,1,1,14.5,8Z" />
    <path class="light-orange" d="M8.491,8h-4a2,2,0,0,0-2,2v3H.5l-.5.5V14a1.978,1.978,0,0,0,.278,1,1.992,1.992,0,0,0,1.715,1h3.5a2,2,0,0,0,2-2V11h2.5l.5-.5V10A2,2,0,0,0,8.491,8ZM2,15a1,1,0,0,1-1-1H3.491a1.984,1.984,0,0,0,.269,1Zm4.491-5v4a1,1,0,0,1-2,0v-.5l-.5-.5h-.5V10a1,1,0,0,1,1-1H6.769A1.978,1.978,0,0,0,6.491,10Zm3,0h-2a1,1,0,0,1,2,0Z" />
  </g>
</svg>
