<svg xmlns="http://www.w3.org/2000/svg" viewBox="0 0 16 16">
  <defs>
    <style>.canvas{fill: none; opacity: 0;}.light-blue{fill: #005dba; opacity: 1;}.light-defaultgrey-10{fill: #212121; opacity: 0.1;}.light-defaultgrey{fill: #212121; opacity: 1;}</style>
  </defs>
  <title>IconLightKeepTargetVersion</title>
  <g id="canvas" class="canvas">
    <path class="canvas" d="M16,16H0V0H16Z" />
  </g>
  <g id="level-1">
    <path class="light-blue" d="M7.854,13.146v.708l-2,2-.708-.708L6.293,14H2.5L2,13.5V10H3v3H6.293L5.146,11.854l.708-.708Z" />
    <path class="light-defaultgrey-10" d="M7,10H6.121l-.267-.268L5.586,10H4V9H2V1.5L2.5,1H7l.354.146,1.5,1.5L9,3V4H8.086L7,5.086Z" />
    <path class="light-defaultgrey-10" d="M14.5,7v6.5H8.854v-.768L8.5,12.379V5.5H13Z" />
    <path class="light-defaultgrey" d="M4,9H5v1H4ZM5,1H4V2H5ZM3,5H2V6H3ZM3,3H2V4H3ZM9,3H8V4H9ZM3,8V7H2V8ZM7,1H6V2H7ZM2.5,1,2,1.5V2H3V1ZM6,3.5l.5.5H7V3H6ZM6.121,10H7V9H6v.879Z" />
    <path class="light-defaultgrey" d="M14.854,6.646l-1.5-1.5L13,5H8.5L8,5.5v6.379l.854.853V14H14.5l.5-.5V7ZM14,13H9V6h3V8h2Z" />
  </g>
</svg>
