<svg xmlns="http://www.w3.org/2000/svg" viewBox="0 0 16 16">
  <defs>
    <style>.canvas{fill: none; opacity: 0;}.light-defaultgrey-10{fill: #212121; opacity: 0.1;}.light-defaultgrey{fill: #212121; opacity: 1;}</style>
  </defs>
  <title>Keyboard</title>
  <g id="canvas">
    <path class="canvas" d="M16,16H0V0H16Z" />
  </g>
  <g id="level-1">
    <path class="light-defaultgrey-10" d="M14.5,3.5v8H.5v-8Z" />
    <path class="light-defaultgrey" d="M14.5,3H.5L0,3.5v8l.5.5h14l.5-.5v-8ZM14,11H1V4H14ZM9,6H8V5H9ZM7,6H6V5H7Zm6,0H12V5h1ZM11,6H10V5h1ZM9,7h1V8H9ZM7,7H8V8H7ZM5,7H6V8H5ZM5,6H4V5H5ZM5,9h5v1H5ZM4,10H2V9H4ZM4,8H2V7H4Zm7,1h2v1H11Zm0-2h2V8H11ZM3,6H2V5H3Z" />
  </g>
</svg>
