<svg xmlns="http://www.w3.org/2000/svg" viewBox="0 0 16 16">
  <defs>
    <style>.canvas{fill: none; opacity: 0;}.light-defaultgrey-10{fill: #212121; opacity: 0.1;}.light-defaultgrey{fill: #212121; opacity: 1;}.light-blue-10{fill: #005dba; opacity: 0.1;}.light-blue{fill: #005dba; opacity: 1;}.cls-1{opacity:0.75;}</style>
  </defs>
  <title>IconLightKeywordSnippet</title>
  <g id="canvas" class="canvas">
    <path class="canvas" d="M16,16H0V0H16Z" />
  </g>
  <g id="level-1">
    <g class="cls-1">
      <path class="light-defaultgrey-10" d="M15.5,1.5V10H9V5L8,4H7.5V1.5Z" />
      <path class="light-defaultgrey" d="M15.5,1h-8L7,1.5V4H8V2h7v8h1V1.5Z" />
      <path class="light-defaultgrey" d="M13,11h1v1H13Zm2,1h1V11H15Zm-4,0h1V11H11Z" />
    </g>
    <path class="light-defaultgrey" d="M6,14v1H0V14Z" />
    <path class="light-defaultgrey" d="M0,12H7V11H0Z" />
    <path class="light-defaultgrey" d="M9,9h3V8H9Z" />
    <path class="light-defaultgrey" d="M11,14v1H7V14Z" />
    <path class="light-defaultgrey" d="M8,12h2V11H8Z" />
    <path class="light-blue-10" d="M7.5,5.5v3H.5v-3Z" />
    <path class="light-blue" d="M7.5,5H.5L0,5.5v3L.5,9h7L8,8.5v-3ZM7,8H1V6H7Z" />
  </g>
</svg>
