<svg xmlns="http://www.w3.org/2000/svg" viewBox="0 0 16 16">
  <defs>
    <style>.canvas{fill: none; opacity: 0;}.light-defaultgrey-10{fill: #212121; opacity: 0.1;}.light-defaultgrey{fill: #212121; opacity: 1;}.light-yellow{fill: #996f00; opacity: 1;}.white{fill: #ffffff; opacity: 1;}</style>
  </defs>
  <title>IconLightKPIWarning</title>
  <g id="canvas">
    <path class="canvas" d="M16,0V16H0V0Z" />
  </g>
  <g id="level-1">
    <path class="light-defaultgrey-10" d="M6.339,14.5H1.5v-3h6v.891Z" />
    <path class="light-defaultgrey-10" d="M9.093,9.5H1.5v-3h9V7h-.03Z" />
    <path class="light-defaultgrey-10" d="M1.5,4.5h13v-3H1.5Z" />
    <path class="light-defaultgrey" d="M14.5,5H1.5L1,4.5v-3L1.5,1h13l.5.5v3ZM2,4H14V2H2Z" />
    <path class="light-defaultgrey" d="M6.063,15H1.5L1,14.5v-3l.5-.5h6l.494.494L7,13.3V12H2v2H6.614Z" />
    <path class="light-defaultgrey" d="M8.817,10H1.5L1,9.5v-3L1.5,6h9l.5.5V7h-.53L10,7.853V7H2V9H9.368Z" />
    <path class="light-yellow" d="M15.5,16h-8l-.439-.739,4-7.261h.878l4,7.261Z" />
    <path class="white" d="M12,13H11V10h1Zm.25,1.5a.75.75,0,1,1-.75-.75A.75.75,0,0,1,12.25,14.5Z" />
  </g>
</svg>
