<svg xmlns="http://www.w3.org/2000/svg" viewBox="0 0 16 16">
  <defs>
    <style>.canvas{fill: none; opacity: 0;}.light-defaultgrey-10{fill: #212121; opacity: 0.1;}.light-defaultgrey{fill: #212121; opacity: 1;}</style>
  </defs>
  <title>LanguagePackage</title>
  <g id="canvas">
    <path class="canvas" d="M16,16H0V0H16Z" />
  </g>
  <g id="level-1">
    <path class="light-defaultgrey-10" d="M7.5,10.5v5H.5v-5Z" />
    <path class="light-defaultgrey" d="M8,9a1.99,1.99,0,0,0-.586-1.415,2.023,2.023,0,0,0-.662-.438,1.773,1.773,0,0,0-1.4.034,2.082,2.082,0,0,0-1.1,1.183L4,9.049l-.251-.685a2.082,2.082,0,0,0-1.1-1.183,1.773,1.773,0,0,0-1.4-.034,2.01,2.01,0,0,0-.662.439A1.993,1.993,0,0,0,.36,10.14L0,10.5v5l.5.5h7l.5-.5v-5l-.36-.36A1.986,1.986,0,0,0,8,9ZM5.19,8.708A1.091,1.091,0,0,1,5.76,8.1a.774.774,0,0,1,.616-.022,1.009,1.009,0,0,1,.331.22,1,1,0,0,1,0,1.413,1.011,1.011,0,0,1-.332.221A1,1,0,0,1,6,10H4.716Zm-3.9-.414a1,1,0,0,1,.333-.221A.715.715,0,0,1,1.9,8.02.855.855,0,0,1,2.24,8.1a1.091,1.091,0,0,1,.57.613L3.284,10H2a1,1,0,0,1-.376-.073,1.009,1.009,0,0,1-.331-.22,1,1,0,0,1,0-1.413ZM1,11H3.5v4H1Zm6,4H4.5V11H7Z" />
    <path class="light-defaultgrey" d="M12.664,1H11.356L8.734,8H10l.606-1.782h2.753L13.992,8h1.274ZM10.911,5.272l.962-2.792a2.945,2.945,0,0,0,.1-.441h.019a3.491,3.491,0,0,0,.093.441l.971,2.792Z" />
  </g>
</svg>
