<svg xmlns="http://www.w3.org/2000/svg" viewBox="0 0 16 16">
  <defs>
    <style>.canvas{fill: none; opacity: 0;}.light-defaultgrey{fill: #212121; opacity: 1;}.light-defaultgrey-10{fill: #212121; opacity: 0.1;}.light-green{fill: #1f801f; opacity: 1;}.cls-1{opacity:0.75;}</style>
  </defs>
  <title>IconLightLaunchInstrumentationTargetBinary</title>
  <g id="canvas">
    <path class="canvas" d="M16,16H0V0H16Z" />
  </g>
  <g id="level-1">
    <path class="light-defaultgrey" d="M7.041,6.037h.328v4.919H6.59V6.99a2.462,2.462,0,0,1-.454.257,3.83,3.83,0,0,1-.555.186V6.769c.129-.043.255-.088.375-.135s.24-.1.358-.157.236-.124.356-.2S6.912,6.129,7.041,6.037ZM3.9,6.923a2.8,2.8,0,0,1,.351,1.661q0,1.836-.846,1.836T2.546,8.614a5.152,5.152,0,0,1,.079-.962l-.85.486c-.014.162-.024.329-.024.51a3.129,3.129,0,0,0,.421,1.775,1.346,1.346,0,0,0,1.174.614A1.442,1.442,0,0,0,4.6,10.4a3.254,3.254,0,0,0,.447-1.864,3.119,3.119,0,0,0-.5-1.976Zm9.721-.886c-.129.092-.251.174-.371.244s-.239.138-.356.2-.237.11-.358.157-.246.092-.375.135v.664a3.83,3.83,0,0,0,.555-.186,2.462,2.462,0,0,0,.454-.257v3.966h.779V6.037ZM11.627,8.531A3.254,3.254,0,0,1,11.18,10.4a1.442,1.442,0,0,1-1.253.642,1.346,1.346,0,0,1-1.174-.614,3.129,3.129,0,0,1-.421-1.775,3.466,3.466,0,0,1,.44-1.929,1.43,1.43,0,0,1,1.268-.655Q11.627,6.064,11.627,8.531Zm-.795.053q0-1.9-.829-1.9-.876,0-.876,1.93,0,1.8.859,1.806T10.832,8.584Z" />
    <g class="cls-1">
      <path class="light-defaultgrey-10" d="M15.5,4.5v8H.5V8.866L8.141,4.5Z" />
      <path class="light-defaultgrey" d="M16,4.5v8l-.5.5H.5L0,12.5V9.152l1-.571V12H15V5H7.266l1.75-1H15.5Z" />
    </g>
    <path class="light-green" d="M0,0,7,4,0,8Z" />
  </g>
</svg>
