<svg xmlns="http://www.w3.org/2000/svg" viewBox="0 0 16 16">
  <defs>
    <style>.canvas{fill: none; opacity: 0;}.light-green{fill: #1f801f; opacity: 1;}.light-defaultgrey-10{fill: #212121; opacity: 0.1;}.light-defaultgrey{fill: #212121; opacity: 1;}.light-defaultgrey-25{fill: #212121; opacity: 0.25;}.cls-1{opacity:0.75;}</style>
  </defs>
  <title>LaunchSamplingTarget</title>
  <g id="canvas" class="canvas">
    <path class="canvas" d="M16,16H0V0H16Z" />
  </g>
  <g id="level-1">
    <path class="light-green" d="M0,0,7,4,0,8Z" />
    <g class="cls-1">
      <path class="light-defaultgrey-10" d="M8.5,2.5V3.7l.5.29v.02l-.5.29V6h4l.5.5v5h2.5v-9Z" />
      <path class="light-defaultgrey-10" d="M3,7.44l-.5.28V13.5H5v-7l.48-.48ZM7.27,5,5.52,6H8V4.58Z" />
      <path class="light-defaultgrey" d="M3,13V7.44l-.5.28L2,8.01V13.5l.5.5H5V13ZM8.5,4.3,8,4.58,7.27,5H8V6H9V4.01Zm7-2.3h-7L8,2.5v.92l.5.28.5.29V3h6v8H13v1h2.5l.5-.5v-9Z" />
    </g>
    <path class="light-defaultgrey-10" d="M5.5,6.5v9h7v-9Z" />
    <path class="light-defaultgrey" d="M12.5,6H5.52l-.04.02L5,6.5v9l.5.5h7l.5-.5v-9ZM12,15H6V7h6Z" />
    <path class="light-defaultgrey-25" d="M9,11V7H8v4.5l.5.5H12V11Z" />
  </g>
</svg>
