<svg xmlns="http://www.w3.org/2000/svg" viewBox="0 0 16 16">
  <defs>
    <style>.canvas{fill: none; opacity: 0;}.light-defaultgrey{fill: #212121; opacity: 1;}.light-defaultgrey-10{fill: #212121; opacity: 0.1;}</style>
  </defs>
  <title>IconLightLevelSeven</title>
  <g id="canvas">
    <path class="canvas" d="M16,0V16H0V0Z" />
  </g>
  <g id="level-1">
    <path class="light-defaultgrey" d="M5.5,7,6,6.5v-2L5.5,4h-2L3,4.5v2l.5.5ZM4,5H5V6H4ZM9.5,7l.5-.5v-2L9.5,4h-2L7,4.5v2l.5.5ZM8,5H9V6H8Zm5.5,2,.5-.5v-2L13.5,4h-2l-.5.5v2l.5.5ZM12,5h1V6H12ZM1.5,8,1,8.5v2l.5.5h2l.5-.5v-2L3.5,8ZM3,10H2V9H3ZM5.5,8,5,8.5v2l.5.5h2l.5-.5v-2L7.5,8ZM7,10H6V9H7ZM9.5,8,9,8.5v2l.5.5h2l.5-.5v-2L11.5,8ZM11,10H10V9h1Zm4.5-2h-2l-.5.5v2l.5.5h2l.5-.5v-2ZM15,10H14V9h1Z" />
    <path class="light-defaultgrey-10" d="M5.5,6.5h-2v-2h2Zm4-2h-2v2h2Zm4,0h-2v2h2Zm-12,6h2v-2h-2Zm4,0h2v-2h-2Zm4,0h2v-2h-2Zm4-2v2h2v-2Z" />
  </g>
</svg>
