<svg xmlns="http://www.w3.org/2000/svg" viewBox="0 0 16 16">
  <defs>
    <style>.canvas{fill: none; opacity: 0;}.light-defaultgrey{fill: #212121; opacity: 1;}.light-defaultgrey-10{fill: #212121; opacity: 0.1;}</style>
  </defs>
  <title>IconLightLevelFour</title>
  <g id="canvas">
    <path class="canvas" d="M16,0V16H0V0Z" />
  </g>
  <g id="level-1">
    <path class="light-defaultgrey" d="M5.5,4,5,4.5v2l.5.5h2L8,6.5v-2L7.5,4ZM7,6H6V5H7Zm4.5-2h-2L9,4.5v2l.5.5h2l.5-.5v-2ZM11,6H10V5h1ZM5.5,8,5,8.5v2l.5.5h2l.5-.5v-2L7.5,8ZM7,10H6V9H7ZM9.5,8,9,8.5v2l.5.5h2l.5-.5v-2L11.5,8ZM11,10H10V9h1Z" />
    <path class="light-defaultgrey-10" d="M5.5,4.5h2v2h-2Zm4,0v2h2v-2Zm-4,6h2v-2h-2Zm4,0h2v-2h-2Z" />
  </g>
</svg>
