<svg xmlns="http://www.w3.org/2000/svg" viewBox="0 0 16 16">
  <defs>
    <style>.canvas{fill: none; opacity: 0;}.light-defaultgrey{fill: #212121; opacity: 1;}.light-defaultgrey-10{fill: #212121; opacity: 0.1;}</style>
  </defs>
  <title>IconLightLevelSix</title>
  <g id="canvas">
    <path class="canvas" d="M16,0V16H0V0Z" />
  </g>
  <g id="level-1">
    <path class="light-defaultgrey" d="M3.5,4,3,4.5v2l.5.5h2L6,6.5v-2L5.5,4ZM5,6H4V5H5ZM7.5,4,7,4.5v2l.5.5h2l.5-.5v-2L9.5,4ZM9,6H8V5H9Zm4.5-2h-2l-.5.5v2l.5.5h2l.5-.5v-2ZM13,6H12V5h1ZM3.5,8,3,8.5v2l.5.5h2l.5-.5v-2L5.5,8ZM5,10H4V9H5ZM7.5,8,7,8.5v2l.5.5h2l.5-.5v-2L9.5,8ZM9,10H8V9H9Zm2.5-2-.5.5v2l.5.5h2l.5-.5v-2L13.5,8ZM13,10H12V9h1Z" />
    <path class="light-defaultgrey-10" d="M3.5,4.5h2v2h-2Zm4,2h2v-2h-2Zm4-2v2h2v-2Zm-8,6h2v-2h-2Zm4,0h2v-2h-2Zm4,0h2v-2h-2Z" />
  </g>
</svg>
