<svg xmlns="http://www.w3.org/2000/svg" viewBox="0 0 16 16">
  <defs>
    <style>.canvas{fill: none; opacity: 0;}.light-defaultgrey{fill: #212121; opacity: 1;}.light-defaultgrey-10{fill: #212121; opacity: 0.1;}</style>
  </defs>
  <title>IconLightLevelTen</title>
  <g id="canvas">
    <path class="canvas" d="M16,0V16H0V0Z" />
  </g>
  <g id="level-1">
    <path class="light-defaultgrey" d="M1.5,2,1,2.5v2l.5.5h2L4,4.5v-2L3.5,2ZM3,4H2V3H3ZM5.5,2,5,2.5v2l.5.5h2L8,4.5v-2L7.5,2ZM7,4H6V3H7ZM9.5,2,9,2.5v2l.5.5h2l.5-.5v-2L11.5,2ZM11,4H10V3h1Zm4.5-2h-2l-.5.5v2l.5.5h2l.5-.5v-2ZM15,4H14V3h1ZM1.5,6,1,6.5v2l.5.5h2L4,8.5v-2L3.5,6ZM3,8H2V7H3ZM5.5,6,5,6.5v2l.5.5h2L8,8.5v-2L7.5,6ZM7,8H6V7H7ZM9.5,6,9,6.5v2l.5.5h2l.5-.5v-2L11.5,6ZM11,8H10V7h1Zm2.5-2-.5.5v2l.5.5h2l.5-.5v-2L15.5,6ZM15,8H14V7h1ZM1.5,10l-.5.5v2l.5.5h2l.5-.5v-2L3.5,10ZM3,12H2V11H3Zm2.5-2-.5.5v2l.5.5h2l.5-.5v-2L7.5,10ZM7,12H6V11H7Z" />
    <path class="light-defaultgrey-10" d="M1.5,2.5h2v2h-2Zm4,2h2v-2h-2Zm4,0h2v-2h-2Zm4-2v2h2v-2Zm-12,6h2v-2h-2Zm4,0h2v-2h-2Zm4,0h2v-2h-2Zm4,0h2v-2h-2Zm-12,4h2v-2h-2Zm4,0h2v-2h-2Z" />
  </g>
</svg>
