<svg xmlns="http://www.w3.org/2000/svg" viewBox="0 0 16 16">
  <defs>
    <style>.canvas{fill: none; opacity: 0;}.light-defaultgrey-10{fill: #212121; opacity: 0.1;}.light-defaultgrey{fill: #212121; opacity: 1;}.cls-1{opacity:0.75;}</style>
  </defs>
  <title>LibraryEnvironment</title>
  <g id="canvas" class="canvas">
    <path class="canvas" d="M16,0V16H0V0Z" />
  </g>
  <g id="level-1">
    <path class="light-defaultgrey-10" d="M15.39,12l-1.93.52L10.61,1.89l1.93-.52ZM2.5,4.21A2.656,2.656,0,0,1,3,4.05,2.734,2.734,0,0,1,3.5,4h1V1.5h-2ZM6.5,4a2.734,2.734,0,0,1,.5.05A2.527,2.527,0,0,1,8,4.5a2.681,2.681,0,0,1,.5.51V1.5h-2Z" />
    <path class="light-defaultgrey" d="M13.03,1.24,12.41.89l-1.93.52-.35.61,2.84,10.63.62.35,1.93-.52.35-.61Zm.78,10.66L11.22,2.25l.97-.26,2.59,9.66ZM4.5,1l.5.5V4H4V2H3V4.05a2.656,2.656,0,0,0-.5.16A1.921,1.921,0,0,0,2,4.5v-3L2.5,1Zm4,0,.5.5v5a2.41,2.41,0,0,0-.5-1.49A2.681,2.681,0,0,0,8,4.5V2H7V4.05A2.734,2.734,0,0,0,6.5,4H6V1.5L6.5,1Z" />
    <path class="light-defaultgrey-10" d="M9.5,15.5H.5l1-3H2v1l.5.5h5l.5-.5v-1h.5Z" />
    <path class="light-defaultgrey" d="M9.974,15.342,9.5,16H.5l-.474-.658,1-3L1.5,12H2v1H1.86l-.666,2H8.806L8.14,13H8V12h.5l.474.342Z" />
    <path class="light-defaultgrey-10" d="M7.5,6.5v7h-5v-7a1,1,0,0,1,1-1h3A1,1,0,0,1,7.5,6.5Z" />
    <path class="light-defaultgrey" d="M7.5,14h-5L2,13.5v-7A1.5,1.5,0,0,1,3.5,5h3A1.5,1.5,0,0,1,8,6.5v7ZM3,13H7V6.5A.5.5,0,0,0,6.5,6h-3a.5.5,0,0,0-.5.5Z" />
    <g class="cls-1">
      <path class="light-defaultgrey" d="M6,7V8H4V7ZM4,12H6V11H4Z" />
    </g>
  </g>
</svg>
