<svg xmlns="http://www.w3.org/2000/svg" viewBox="0 0 16 16">
  <defs>
    <style>.canvas{fill: none; opacity: 0;}.light-defaultgrey-10{fill: #212121; opacity: 0.1;}.light-defaultgrey{fill: #212121; opacity: 1;}.light-yellow{fill: #996f00; opacity: 1;}.white{fill: #ffffff; opacity: 1;}</style>
  </defs>
  <title>IconLightLibraryWarning</title>
  <g id="canvas">
    <path class="canvas" d="M16,16H0V0H16Z" />
  </g>
  <g id="level-1">
    <path class="light-defaultgrey-10" d="M10.644,7l-1.1-4.1,1.932-.517,1.355,5.057L12.591,7ZM3.561,2.5v11h-2V2.5Zm3.388,11H5.561V2.5h2v9.891Z" />
    <path class="light-defaultgrey" d="M10.258,7.494l-1.2-4.468.353-.613L11.346,1.9l.613.353L13.84,9.268,12.591,7H12.2L11.122,2.991l-.966.259,1,3.75H10.53ZM3.561,14h-2l-.5-.5V2.5l.5-.5h2l.5.5v11Zm-1.5-1h1V3h-1Zm6-1.517V2.5l-.5-.5h-2l-.5.5v11l.5.5H6.674ZM6.061,3h1V13h-1Z" />
    <path class="light-yellow" d="M15.561,16h-8l-.44-.739,4-7.261H12l4,7.261Z" />
    <path class="white" d="M12.061,13h-1V10h1Zm.25,1.5a.75.75,0,1,1-.75-.75A.75.75,0,0,1,12.311,14.5Z" />
  </g>
</svg>
