<svg xmlns="http://www.w3.org/2000/svg" viewBox="0 0 16 16">
  <defs>
    <style>.canvas{fill: none; opacity: 0;}.light-defaultgrey-10{fill: #212121; opacity: 0.1;}.light-defaultgrey{fill: #212121; opacity: 1;}.cls-1{opacity:0.75;}</style>
  </defs>
  <title>IconLightLinearCarousel</title>
  <g id="canvas">
    <path class="canvas" d="M16,16H0V0H16Z" />
  </g>
  <g id="level-1">
    <path class="light-defaultgrey-10" d="M9.5,14.5h-7V2.5h7Z" />
    <path class="light-defaultgrey" d="M9.5,15h-7L2,14.5V2.5L2.5,2h7l.5.5v12ZM3,14H9V3H3Z" />
    <g class="cls-1">
      <path class="light-defaultgrey-10" d="M13.5,4.5h-2v-1H10v10h1.5v-1h2Z" />
      <path class="light-defaultgrey" d="M13.5,4H12V3.5L11.5,3H10V4h1v9H10v1h1.5l.5-.5V13h1.5l.5-.5v-8ZM13,12H12V5h1Z" />
    </g>
  </g>
</svg>
