<svg xmlns="http://www.w3.org/2000/svg" viewBox="0 0 16 16">
  <defs>
    <style>.canvas{fill: none; opacity: 0;}.light-purple{fill: #6936aa; opacity: 1;}.light-blue{fill: #005dba; opacity: 1;}.light-lightblue{fill: #0077a0; opacity: 1;}.white{fill: #ffffff; opacity: 1;}</style>
  </defs>
  <title>IconLightLinkAlert</title>
  <g id="canvas">
    <path class="canvas" d="M16,0V16H0V0Z" />
  </g>
  <g id="level-1">
    <path class="light-purple" d="M11,4.5a3,3,0,0,1-3,3H6a1.978,1.978,0,0,1,.278-1H8a2,2,0,0,0,0-4H4a2,2,0,0,0,0,4H5.184A2.966,2.966,0,0,0,5,7.5H4a3,3,0,0,1,0-6H8A3,3,0,0,1,11,4.5Z" />
    <path class="light-blue" d="M12.213,16H10.787l-.353-.146L7.646,13.066,7.5,12.713V11.287l.146-.353,2.788-2.788L10.787,8h1.426l.353.146,2.788,2.788.146.353v1.426l-.146.353-2.788,2.788Z" />
    <path class="light-lightblue" d="M12,5.5H10.816A2.966,2.966,0,0,0,11,4.5h1a3,3,0,0,1,3,3,2.953,2.953,0,0,1-.329,1.337l-.765-.765A1.969,1.969,0,0,0,14,7.5,2,2,0,0,0,12,5.5ZM6.886,10.28A3,3,0,0,1,8,4.5h2a1.978,1.978,0,0,1-.278,1H8a2,2,0,0,0-.3,3.969Z" />
    <path class="white" d="M12,12H11V9h1Zm-.5.75a.75.75,0,1,0,.75.75A.75.75,0,0,0,11.5,12.75Z" />
  </g>
</svg>
