<svg xmlns="http://www.w3.org/2000/svg" viewBox="0 0 16 16">
  <defs>
    <style>.canvas{fill: none; opacity: 0;}.light-yellow-10{fill: #996f00; opacity: 0.1;}.light-yellow-25{fill: #996f00; opacity: 0.25;}.light-yellow{fill: #996f00; opacity: 1;}.light-blue-10{fill: #005dba; opacity: 0.1;}.light-blue{fill: #005dba; opacity: 1;}</style>
  </defs>
  <title>IconLightLinkedFolderOpened</title>
  <g id="canvas" class="canvas">
    <path class="canvas" d="M16,16H0V0H16Z" />
  </g>
  <g id="level-1">
    <path class="light-yellow-10" d="M6.5,3.5l-1-1H.5V7H2.33l.17-.5h5l1-1h5v-2Z" />
    <path class="light-yellow-25" d="M8.5,5.5l-1,1h-5L2.33,7H7.91L9,8.09V12.5h4.5l2-7Z" />
    <path class="light-yellow" d="M15.41,5H14V3.5L13.5,3H6.71l-.86-.85L5.5,2H.5L0,2.5V7.09L.09,7H1V3H5.29l.86.85L6.5,4H13V5H8.47l-.35.15L7.27,6H2.47L2,6.34,1.79,7H7.47l.36-.15L8.68,6h6.08L14,8.85,13.16,12H9v1h4.54l.48-.37,1.87-7Z" />
    <path class="light-yellow-25" d="M13,6v6.5h1V6Z" />
    <path class="light-blue-10" d="M7.5,8.5v7H.5v-7Z" />
    <path class="light-blue" d="M7.5,8H.5L0,8.5v7l.5.5h7l.5-.5v-7ZM7,15H1V9H7ZM6,10.5v3H5V11.707L2.354,14.354l-.708-.708L4.293,11H2.53V10H5.5Z" />
  </g>
</svg>
