<svg xmlns="http://www.w3.org/2000/svg" viewBox="0 0 16 16">
  <defs>
    <style>.canvas{fill: none; opacity: 0;}.light-purple{fill: #6936aa; opacity: 1;}.light-green{fill: #1f801f; opacity: 1;}.light-lightblue{fill: #0077a0; opacity: 1;}</style>
  </defs>
  <title>IconLightLinkValidator</title>
  <g id="canvas">
    <path class="canvas" d="M16,0V16H0V0Z" />
  </g>
  <g id="level-1">
    <path class="light-purple" d="M11,5A3,3,0,0,1,8,8H6a1.978,1.978,0,0,1,.278-1H8A2,2,0,0,0,8,3H4A2,2,0,0,0,4,7H5.184A2.966,2.966,0,0,0,5,8H4A3,3,0,0,1,4,2H8A3,3,0,0,1,11,5Z" />
    <path class="light-green" d="M15.144,11.6l-4.25,4.25h-.707L7.937,13.6l.707-.707,1.9,1.9,3.9-3.9Z" />
    <path class="light-lightblue" d="M8,11A3,3,0,0,1,8,5h2a1.978,1.978,0,0,1-.278,1H8a2,2,0,0,0,0,4h4a2,2,0,0,0,0-4H10.816A2.966,2.966,0,0,0,11,5h1a3,3,0,0,1,3,3,2.967,2.967,0,0,1-.461,1.58l-.1-.1-1.294,1.293A2.982,2.982,0,0,1,12,11Z" />
  </g>
</svg>
