<svg xmlns="http://www.w3.org/2000/svg" viewBox="0 0 16 16">
  <defs>
    <style>.canvas{fill: none; opacity: 0;}.light-lightblue-10{fill: #0077a0; opacity: 0.1;}.light-lightblue{fill: #0077a0; opacity: 1;}.light-purple{fill: #6936aa; opacity: 1;}</style>
  </defs>
  <title>LinkedDatabase</title>
  <g id="canvas">
    <path class="canvas" d="M16,16H0V0H16Z" />
  </g>
  <g id="level-1">
    <path class="light-lightblue-10" d="M8.04,1.5c-2.16,0-4.5.57-4.5,1.5V9H4a3,3,0,0,1,2.87,2.13,3,3,0,0,1,1.95,1.85,2.72,2.72,0,0,1,.13.49c2.05-.14,3.59-.74,3.59-1.47V3C12.54,2.07,10.21,1.5,8.04,1.5Z" />
    <path class="light-lightblue" d="M8,1C5.59,1,3,1.63,3,3a.789.789,0,0,0,.05.3.523.523,0,0,0,.06.16,1.274,1.274,0,0,0,.31.4.524.524,0,0,0,.11.1l.01.01a1.7,1.7,0,0,0,.14.1c.08.05.17.11.27.16A.219.219,0,0,0,4,4.26,9.495,9.495,0,0,0,8,5a9.495,9.495,0,0,0,4-.74.219.219,0,0,0,.05-.03c.1-.05.19-.11.27-.16a.583.583,0,0,0,.15-.11c.02-.02.05-.04.07-.06a.078.078,0,0,0,.04-.04,1.274,1.274,0,0,0,.31-.4.523.523,0,0,0,.06-.16A.789.789,0,0,0,13,3C13,1.63,10.41,1,8,1ZM8,4C5.38,4,4,3.26,4,3S5.38,2,8,2s4,.74,4,1S10.62,4,8,4Zm4.95-.7a.442.442,0,0,1-.06.16,1.274,1.274,0,0,1-.31.4c-.01.01-.02.03-.04.04v.01c-.02.01-.04.03-.07.05a.583.583,0,0,1-.15.11,1.749,1.749,0,0,1-.27.16.219.219,0,0,1-.05.03V12c0,.21-1,.84-3.18.98a2.72,2.72,0,0,1,.13.49,2.626,2.626,0,0,1,.05.49c2.07-.15,4-.78,4-1.96V3A.789.789,0,0,1,12.95,3.3Zm-9.27.77a1.7,1.7,0,0,1-.14-.1l-.01-.01c-.04-.04-.08-.07-.11-.1a1.274,1.274,0,0,1-.31-.4.442.442,0,0,1-.06-.16A.789.789,0,0,1,3,3V9H4V4.26a.219.219,0,0,1-.05-.03A1.749,1.749,0,0,1,3.68,4.07Z" />
    <path class="light-lightblue" d="M2,14a2,2,0,0,1,2-2H6a2,2,0,0,1,0,4H4A2,2,0,0,1,2,14Zm2-1a1,1,0,0,0,0,2H6a1,1,0,0,0,0-2Z" />
    <path class="light-purple" d="M6,12a2,2,0,0,1-2,2H3a1,1,0,0,1,1-1,1,1,0,0,0,0-2H2a1,1,0,0,0,0,2h.269A1.984,1.984,0,0,0,2,14a2,2,0,0,1,0-4H4A2,2,0,0,1,6,12Z" />
  </g>
</svg>
