<svg xmlns="http://www.w3.org/2000/svg" viewBox="0 0 16 16">
  <defs>
    <style>.canvas{fill: none; opacity: 0;}.light-defaultgrey-10{fill: #212121; opacity: 0.1;}.light-defaultgrey{fill: #212121; opacity: 1;}.light-lightblue{fill: #0077a0; opacity: 1;}.light-purple{fill: #6936aa; opacity: 1;}.cls-1{opacity:0.75;}</style>
  </defs>
  <title>IconLightLinkedObjectWizard</title>
  <g id="canvas">
    <path class="canvas" d="M16,16H0V0H16Z" />
  </g>
  <g id="level-1">
    <path class="light-defaultgrey-10" d="M13.5,4.939,8,7.439l-5.5-2.5,5.5-3Z" />
    <path class="light-defaultgrey" d="M8.239,1.5H7.761l-5.5,3,.032.894,5.5,2.5h.414l5.5-2.5.032-.894ZM8,6.89,3.619,4.9,8,2.508,12.381,4.9Z" />
    <path class="light-lightblue" d="M2,14a2,2,0,0,1,2-2H6a2,2,0,0,1,0,4H4A2,2,0,0,1,2,14Zm2-1a1,1,0,0,0,0,2H6a1,1,0,0,0,0-2Z" />
    <g class="cls-1">
      <path class="light-defaultgrey-10" d="M13.5,4.939v7L9,13.985a2.992,2.992,0,0,0-2.14-2.844A2.993,2.993,0,0,0,4,9H2.5V4.939l5.5-3Z" />
      <path class="light-defaultgrey" d="M7.5,11.427l0-3.668.3.135h.414l.288-.131,0,4.6A3.022,3.022,0,0,0,7.5,11.427ZM13.739,4.5l-.032.894L13,5.715v5.9L8.947,13.459a2.778,2.778,0,0,1,0,1.1l4.764-2.165L14,11.939v-7ZM3,5.715l-.707-.321L2.261,4.5,2,4.939V9H3Z" />
    </g>
    <path class="light-purple" d="M6,12a2,2,0,0,1-2,2H3a1,1,0,0,1,1-1,1,1,0,0,0,0-2H2a1,1,0,0,0,0,2h.269A1.984,1.984,0,0,0,2,14a2,2,0,0,1,0-4H4A2,2,0,0,1,6,12Z" />
  </g>
</svg>
