<svg xmlns="http://www.w3.org/2000/svg" viewBox="0 0 16 16">
  <defs>
    <style>.canvas{fill: none; opacity: 0;}.light-defaultgrey{fill: #212121; opacity: 1;}.light-lightblue{fill: #0077a0; opacity: 1;}.light-purple{fill: #6936aa; opacity: 1;}.cls-1{opacity:0.75;}</style>
  </defs>
  <title>IconLightLinkedDimension</title>
  <g id="canvas">
    <path class="canvas" d="M16,0V16H0V0Z" />
  </g>
  <g id="level-1">
    <g class="cls-1">
      <path class="light-defaultgrey" d="M12.91,11.2l-.7.71L13.3,13H8.83A3,3,0,0,1,9,14h4.3l-1.09,1.09.7.71,1.95-1.95v-.7ZM13,5.5h1v-3L13.5,2h-3V3h1.8L5.73,9.56a3.188,3.188,0,0,1,.71.71L13,3.71ZM2.15,1.15.21,3.09l.7.71L2,2.71V9H3V2.7L4.1,3.8l.7-.71L2.86,1.15Z" />
    </g>
    <path class="light-lightblue" d="M2,14a2,2,0,0,1,2-2H6a2,2,0,0,1,0,4H4A2,2,0,0,1,2,14Zm2-1a1,1,0,0,0,0,2H6a1,1,0,0,0,0-2Z" />
    <path class="light-purple" d="M6,12a2,2,0,0,1-2,2H3a1,1,0,0,1,1-1,1,1,0,0,0,0-2H2a1,1,0,0,0,0,2h.269A1.984,1.984,0,0,0,2,14a2,2,0,0,1,0-4H4A2,2,0,0,1,6,12Z" />
  </g>
</svg>
