<svg xmlns="http://www.w3.org/2000/svg" viewBox="0 0 16 16">
  <defs>
    <style>.canvas{fill: none; opacity: 0;}.light-defaultgrey-10{fill: #212121; opacity: 0.1;}.light-defaultgrey{fill: #212121; opacity: 1;}.light-blue{fill: #005dba; opacity: 1;}</style>
  </defs>
  <title>IconLightLinkButton</title>
  <g id="canvas">
    <path class="canvas" d="M16,16H0V0H16Z" />
  </g>
  <g id="level-1">
    <path class="light-defaultgrey-10" d="M14.5,2.5v11H.5V2.5Z" />
    <path class="light-defaultgrey" d="M14.5,2H.5L0,2.5v11l.5.5h14l.5-.5V2.5ZM14,13H1V3H14Z" />
    <path class="light-blue" d="M9.006,9.723a2,2,0,1,0,0-3.446V4h-1v6h1Zm1-2.723a1,1,0,1,1-1,1A1,1,0,0,1,10.006,7Zm-5,3a1.987,1.987,0,0,0,1-.277V10h1V6h-1v.277a2,2,0,1,0-1,3.723Zm0-3a1,1,0,1,1-1,1A1,1,0,0,1,5.006,7ZM3,11h9v1H3Z" />
  </g>
</svg>
