<svg xmlns="http://www.w3.org/2000/svg" viewBox="0 0 16 16">
  <defs>
    <style>.canvas{fill: none; opacity: 0;}.light-defaultgrey-10{fill: #212121; opacity: 0.1;}.light-defaultgrey{fill: #212121; opacity: 1;}.cls-1{opacity:0.75;}</style>
  </defs>
  <title>IconLightListID</title>
  <g id="canvas" class="canvas">
    <path class="canvas" d="M16,16H0V0H16Z" />
  </g>
  <g id="level-1">
    <g class="cls-1">
      <path class="light-defaultgrey-10" d="M14.5,5.5v8H10.827a3.939,3.939,0,0,0,.051-.5,3.991,3.991,0,0,0-6.634-3H1.5V5.5Z" />
      <path class="light-defaultgrey" d="M14.5,5H1.5L1,5.5v4.564L1.154,10H2V6H5V9.488A3.963,3.963,0,0,1,6,9.11V6h4v4.53A3.822,3.822,0,0,1,10.736,14H14.5l.5-.5v-8ZM14,13H11V6h3Z" />
    </g>
    <path class="light-defaultgrey-10" d="M14,3V5H2V3Z" />
    <path class="light-defaultgrey" d="M14.5,6H1.5L1,5.5v-3L1.5,2h13l.5.5v3ZM2,5H14V3H2Z" />
    <path class="light-defaultgrey-10" d="M7,15.5a2.492,2.492,0,0,1-2.393-1.816L3.475,14l-.5-.5-1,.5-1.5-1.5,1-1H5.011A2.5,2.5,0,1,1,7,15.5Z" />
    <path class="light-defaultgrey" d="M8,13a.5.5,0,1,1-.5-.5A.5.5,0,0,1,8,13Zm2,0a2.992,2.992,0,0,1-5.7,1.288l-.693.193-.488-.127-.245-.246-.678.339-.577-.093-1.5-1.5v-.708l1-1L1.476,11h3.3A2.962,2.962,0,0,1,7,10,3,3,0,0,1,10,13Zm-8.817-.5.891.892.678-.339.577.093.293.294.85-.237.615.343A2,2,0,1,0,7,11a1.979,1.979,0,0,0-1.589.8l-.4.2H1.683Z" />
  </g>
</svg>
