<svg xmlns="http://www.w3.org/2000/svg" viewBox="0 0 16 16">
  <defs>
    <style>.canvas{fill: none; opacity: 0;}.light-defaultgrey-10{fill: #212121; opacity: 0.1;}.light-defaultgrey{fill: #212121; opacity: 1;}.cls-1{opacity:0.75;}</style>
  </defs>
  <title>IconLightListViewTable</title>
  <g id="canvas" class="canvas">
    <path class="canvas" d="M16,16H0V0H16Z" />
  </g>
  <g id="level-1">
    <g class="cls-1">
      <path class="light-defaultgrey-10" d="M15.5,5.5v8H9V7.086L7.914,6H7V5.5Z" />
      <path class="light-defaultgrey" d="M15.5,5H3.5L3,5.5l.5.5H11v7H9v1h6.5l.5-.5v-8ZM15,13H12V6h3Z" />
    </g>
    <path class="light-defaultgrey-10" d="M.5,7.5h7v8H.5Z" />
    <path class="light-defaultgrey-10" d="M15.5,2.5v3H3.5v-3Z" />
    <path class="light-defaultgrey" d="M15.5,6H3.5L3,5.5v-3L3.5,2h12l.5.5v3ZM4,5H15V3H4Z" />
    <path class="light-defaultgrey" d="M7.5,7H.5L0,7.5v8l.5.5h7l.5-.5v-8ZM7,15H1V8H7Z" />
    <path class="light-defaultgrey" d="M6,10H2V9H6Zm0,2H2V11H6Zm0,2H2V13H6Z" />
  </g>
</svg>
