<svg xmlns="http://www.w3.org/2000/svg" viewBox="0 0 16 16">
  <defs>
    <style>.canvas{fill: none; opacity: 0;}.light-defaultgrey-10{fill: #212121; opacity: 0.1;}.light-defaultgrey{fill: #212121; opacity: 1;}.cls-1{opacity:0.75;}</style>
  </defs>
  <title>IconLightListProperty</title>
  <g id="canvas" class="canvas">
    <path class="canvas" d="M16,16H0V0H16Z" />
  </g>
  <g id="level-1">
    <g class="cls-1">
      <path class="light-defaultgrey-10" d="M14.5,5.5v8H9.362l-2.48-2.48A3.985,3.985,0,0,0,3.7,6.046a4.03,4.03,0,0,0-.658-.055,3.871,3.871,0,0,0-.538.038V5.5Z" />
      <path class="light-defaultgrey" d="M14.5,5H2.5L2,5.5v.63a4.012,4.012,0,0,1,1.038-.139c.083,0,.167,0,.25.009H6V7.313a3.964,3.964,0,0,1,.965,2c.015.087.026.175.035.263V6h3v7H8.862l1,1H14.5l.5-.5v-8ZM14,13H11V6h3Z" />
    </g>
    <path class="light-defaultgrey-10" d="M14,3V5H3V3Z" />
    <path class="light-defaultgrey" d="M14.5,6H2.5L2,5.5v-3L2.5,2h12l.5.5v3ZM3,5H14V3H3Z" />
    <path class="light-defaultgrey" d="M.073,10.5A2.994,2.994,0,0,1,.325,8.705L2.316,10.7,3.734,9.282l-2-1.991a2.982,2.982,0,0,1,3.988,3.983l3.312,3.312v.707L8.327,16H7.62L4.308,12.688A2.978,2.978,0,0,1,.073,10.5Z" />
  </g>
</svg>
