<svg xmlns="http://www.w3.org/2000/svg" viewBox="0 0 16 16">
  <defs>
    <style>.canvas{fill: none; opacity: 0;}.light-defaultgrey-10{fill: #212121; opacity: 0.1;}.light-defaultgrey{fill: #212121; opacity: 1;}.cls-1{opacity:0.75;}</style>
  </defs>
  <title>IconLightLiteral</title>
  <g id="canvas">
    <path class="canvas" d="M16,16H0V0H16Z" />
  </g>
  <g id="level-1">
    <g class="cls-1">
      <path class="light-defaultgrey-10" d="M13.5,2.5V14H9V8.086L7.914,7H2.5V2.5Z" />
      <path class="light-defaultgrey" d="M14,2.5v11l-.5.5H9V13h4V3H3V7H2V2.5L2.5,2h11Z" />
    </g>
    <path class="light-defaultgrey-10" d="M.5,15.5v-7h7v7Z" />
    <path class="light-defaultgrey" d="M7.5,16H.5L0,15.5v-7L.5,8h7l.5.5v7ZM1,15H7V9H1Z" />
    <path class="light-defaultgrey" d="M5,10v.277a2,2,0,1,0,0,3.446V14H6V10ZM4,13a1,1,0,1,1,1-1A1,1,0,0,1,4,13Z" />
  </g>
</svg>
