<svg xmlns="http://www.w3.org/2000/svg" viewBox="0 0 16 16">
  <defs>
    <style>.canvas{fill: none; opacity: 0;}.light-defaultgrey{fill: #212121; opacity: 1;}.light-lightblue-10{fill: #0077a0; opacity: 0.1;}.light-lightblue{fill: #0077a0; opacity: 1;}</style>
  </defs>
  <title>LiveDataSource</title>
  <g id="canvas">
    <path class="canvas" d="M16,16H0V0H16Z" />
  </g>
  <g id="level-1">
    <path class="light-defaultgrey" d="M13,14v1H4V14H7.5v-.5L8,13V12H9v1l.5.5V14Z" />
    <path class="light-lightblue-10" d="M12.5,2.97V10c0,.828-1.791,1.5-4,1.5s-4-.672-4-1.5V2.97c0-.828,1.791-1.5,4-1.5S12.5,2.142,12.5,2.97Z" />
    <path class="light-lightblue" d="M13,2.97c0-2.627-9-2.627-9,0H4V10c0,1.313,2.264,2,4.5,2s4.5-.687,4.5-2V2.97Zm-4.5-1c2.273,0,3.5.71,3.5,1s-1.227,1-3.5,1S5,3.26,5,2.97,6.227,1.97,8.5,1.97ZM12,10c0,.29-1.227,1-3.5,1S5,10.29,5,10V4.261H5a7.863,7.863,0,0,0,3.5.709A7.863,7.863,0,0,0,12,4.261h0Z" />
  </g>
</svg>
