<svg xmlns="http://www.w3.org/2000/svg" viewBox="0 0 16 16">
  <defs>
    <style>.canvas{fill: none; opacity: 0;}.light-defaultgrey{fill: #212121; opacity: 1;}.cls-1{opacity:0.75;}</style>
  </defs>
  <title>IconLightLiveSessionHost</title>
  <g id="canvas">
    <path class="canvas" d="M16,16H0V0H16Z" />
  </g>
  <g id="level-1">
    <path class="light-defaultgrey" d="M6.875,6.25A1.125,1.125,0,1,1,8,7.375,1.125,1.125,0,0,1,6.875,6.25ZM9.25,8H6.75a.5.5,0,0,0-.5.5v3a.5.5,0,0,0,.5.5H7v2.5a.5.5,0,0,0,.5.5h1a.5.5,0,0,0,.5-.5V12h.25a.5.5,0,0,0,.5-.5v-3A.5.5,0,0,0,9.25,8Z" />
    <g class="cls-1">
      <path class="light-defaultgrey" d="M5.25,8.78a3.75,3.75,0,1,1,5.5,0V8.5a1.486,1.486,0,0,0-.345-.945,2.71,2.71,0,0,0,.345-1.3,2.75,2.75,0,0,0-5.5,0,2.71,2.71,0,0,0,.345,1.3A1.486,1.486,0,0,0,5.25,8.5Z" />
      <path class="light-defaultgrey" d="M14.25,6.25A6.252,6.252,0,0,1,10.7,11.879a1.487,1.487,0,0,0,.051-.379v-.8a5.25,5.25,0,1,0-5.5,0v.8a1.487,1.487,0,0,0,.051.379A6.247,6.247,0,1,1,14.25,6.25Z" />
    </g>
  </g>
</svg>
