<svg xmlns="http://www.w3.org/2000/svg" viewBox="0 0 16 16">
  <defs>
    <style>.canvas{fill: none; opacity: 0;}.light-defaultgrey{fill: #212121; opacity: 1;}.light-green-10{fill: #1f801f; opacity: 0.1;}.light-green{fill: #1f801f; opacity: 1;}</style>
  </defs>
  <title>LiveShare</title>
  <g id="canvas">
    <path class="canvas" d="M16,16H0V0H16Z" />
  </g>
  <g id="level-1">
    <path class="light-defaultgrey" d="M12,9.889V13.5l-.5.5H1.5L1,13.5v-9L1.5,4H2v9h9V10.806Z" />
    <path class="light-green-10" d="M14,6.022l-3.651,3.35L9.5,9.01V7.961l-.187-.19H9A6.165,6.165,0,0,0,4.544,9.7L3.7,9.249A5.777,5.777,0,0,1,5.3,6.14,6.907,6.907,0,0,1,9.042,4.273l.277-.024L9.5,4.056V3l.821-.381Z" />
    <path class="light-green" d="M9.81,1.458,9,1.851V3.774A7.38,7.38,0,0,0,4.95,5.781a7.056,7.056,0,0,0-1.921,5.283l.982.135A5.915,5.915,0,0,1,9,8.27v1.879l.809.393,4.5-4.127V5.629ZM10.008,9,10,9.01V7.758L9.523,7.27H9A6.679,6.679,0,0,0,4.186,9.345,5.3,5.3,0,0,1,5.646,6.5,6.469,6.469,0,0,1,9.084,4.771l.46-.039h.009L10,4.253V3L13.26,6.02Z" />
  </g>
</svg>
