<svg xmlns="http://www.w3.org/2000/svg" viewBox="0 0 16 16">
  <defs>
    <style>.canvas{fill: none; opacity: 0;}.light-teal-10{fill: #006758; opacity: 0.1;}.light-teal{fill: #006758; opacity: 1;}.light-defaultgrey-10{fill: #212121; opacity: 0.1;}.light-defaultgrey{fill: #212121; opacity: 1;}</style>
  </defs>
  <title>IconLightLoadTestPlugin</title>
  <g id="canvas">
    <path class="canvas" d="M16,16H0V0H16Z" />
  </g>
  <g id="level-1">
    <path class="light-teal-10" d="M10,12.5H6.414L5.4,11.482l-.149.149a.984.984,0,0,1,.15-.669L6.33,9.5h5.34l.33.517V12H10Z" />
    <path class="light-teal" d="M10,13H6.914L5.4,11.482l-.4.4V10.654L5.908,9.23,6.33,9h5.34l.422.23.491.77H12v.946L11.4,10H6.6l-.786,1.231A.5.5,0,0,0,6.239,12H10Z" />
    <path class="light-defaultgrey-10" d="M6.649,9,7.5,7.667V3.5h3V7.667L11.351,9Z" />
    <path class="light-defaultgrey" d="M7,4H6V3h6V4H11V7.521L12.091,9.23,11.67,9h-.913l-.679-1.063L10,7.667V4H8V7.667l-.078.27L7.243,9H6.33l-.421.23L7,7.521Z" />
    <path class="light-defaultgrey" d="M6.1,13.6l-2.25,2.25H3.146L.9,13.6,1.6,12.9l1.4,1.4V9H4v5.293l1.4-1.4Z" />
    <path class="light-defaultgrey" d="M16,14H14v2H13V14H11V13h2V11h1v2h2Z" />
  </g>
</svg>
