<svg xmlns="http://www.w3.org/2000/svg" viewBox="0 0 16 16">
  <defs>
    <style>.canvas{fill: none; opacity: 0;}.light-defaultgrey-10{fill: #212121; opacity: 0.1;}.light-defaultgrey{fill: #212121; opacity: 1;}.light-blue-10{fill: #005dba; opacity: 0.1;}.light-blue{fill: #005dba; opacity: 1;}</style>
  </defs>
  <title>IconLightLocalize</title>
  <g id="canvas">
    <path class="canvas" d="M16,16H0V0H16Z" />
  </g>
  <g id="level-1">
    <path class="light-defaultgrey-10" d="M7.5,8.5v7H.5v-7Z" />
    <path class="light-defaultgrey" d="M7.5,16H.5L0,15.5v-7L.5,8h7l.5.5v7ZM1,15H7V9H1Z" />
    <path class="light-defaultgrey" d="M5,10v.277a2,2,0,1,0,0,3.446V14H6V10ZM4,13a1,1,0,1,1,1-1A1,1,0,0,1,4,13Z" />
    <path class="light-blue-10" d="M10,1.5A4.494,4.494,0,0,0,5.5,6a4.714,4.714,0,0,0,.11,1h2.3l1,1L9,8.09v2.3a4.714,4.714,0,0,0,1,.11,4.5,4.5,0,0,0,0-9Z" />
    <path class="light-blue" d="M10,1A5,5,0,0,0,5,6a4.712,4.712,0,0,0,.1,1H6.14A4.091,4.091,0,0,1,6,6a4.091,4.091,0,0,1,.14-1H7.57A8.258,8.258,0,0,0,7.5,6a8.258,8.258,0,0,0,.07,1h.34l1,1h2.26a6.809,6.809,0,0,1-1.06,1.99c-.04,0-.07.01-.11.01s-.07-.01-.11-.01A6.239,6.239,0,0,1,9,8.45V10.9a4.712,4.712,0,0,0,1,.1A5,5,0,0,0,10,1Zm1.51,8.7A7.683,7.683,0,0,0,12.23,8h1.21A4,4,0,0,1,11.51,9.7ZM9.89,2.01c.04,0,.07-.01.11-.01s.07.01.11.01A6.368,6.368,0,0,1,11.17,4H8.83A6.368,6.368,0,0,1,9.89,2.01ZM12.43,5h1.43A4.091,4.091,0,0,1,14,6a4.091,4.091,0,0,1-.14,1H12.43a8.258,8.258,0,0,0,.07-1A8.258,8.258,0,0,0,12.43,5Zm-.2-1a7.683,7.683,0,0,0-.72-1.7A4,4,0,0,1,13.44,4ZM7.77,4H6.56A4,4,0,0,1,8.49,2.3,7.683,7.683,0,0,0,7.77,4Zm.82,3A6.638,6.638,0,0,1,8.5,6a6.638,6.638,0,0,1,.09-1h2.82a6.638,6.638,0,0,1,.09,1,6.638,6.638,0,0,1-.09,1Z" />
  </g>
</svg>
