<svg xmlns="http://www.w3.org/2000/svg" viewBox="0 0 16 16">
  <defs>
    <style>.canvas{fill: none; opacity: 0;}.light-defaultgrey-10{fill: #212121; opacity: 0.1;}.light-defaultgrey{fill: #212121; opacity: 1;}.light-teal-10{fill: #006758; opacity: 0.1;}.light-teal{fill: #006758; opacity: 1;}.cls-1{opacity:0.75;}</style>
  </defs>
  <title>IconLightLocalTest</title>
  <g id="canvas" class="canvas">
    <path class="canvas" d="M16,0V16H0V0Z" />
  </g>
  <g id="level-1">
    <path class="light-defaultgrey-10" d="M12.5,1.5h-6a1,1,0,0,0-1,1V7H7v3H6v1.07l1.68,2.69a1.414,1.414,0,0,1,.13.24,1.516,1.516,0,0,1,.15.5H13.5V2.5A1,1,0,0,0,12.5,1.5Z" />
    <path class="light-defaultgrey" d="M12.5,1h-6A1.5,1.5,0,0,0,5,2.5V7H6V2.5A.5.5,0,0,1,6.5,2h6a.5.5,0,0,1,.5.5V14H7.81a1.516,1.516,0,0,1,.15.5,1.408,1.408,0,0,1,.03.5H13.5l.5-.5V2.5A1.5,1.5,0,0,0,12.5,1Z" />
    <g class="cls-1">
      <path class="light-defaultgrey" d="M7.5,12v1h4V12Zm0-2v1h4V10Zm0-6V5h4V4Z" />
    </g>
    <path class="light-teal-10" d="M6.579,14.735a.5.5,0,0,1-.424.765H.959a.5.5,0,0,1-.424-.765L1.307,13.5h4.5Z" />
    <path class="light-defaultgrey-10" d="M1.557,13l.937-1.5v-3h2v3L5.432,13Z" />
    <path class="light-defaultgrey" d="M2,9H1V8H6V9H5v2.356L6.028,13H4.849L4,11.644V9H3v2.644L2.153,13H.974L2,11.356Z" />
    <path class="light-teal" d="M5.883,16H1.12a1.12,1.12,0,0,1-.95-1.714L.974,13H6.028l.8,1.287A1.12,1.12,0,0,1,5.883,16ZM1.529,14l-.511.816a.114.114,0,0,0,0,.122A.116.116,0,0,0,1.12,15H5.883a.12.12,0,0,0,.1-.183L5.474,14Z" />
  </g>
</svg>
