<svg xmlns="http://www.w3.org/2000/svg" viewBox="0 0 16 16">
  <defs>
    <style>.canvas{fill: none; opacity: 0;}.light-defaultgrey-10{fill: #212121; opacity: 0.1;}.light-defaultgrey{fill: #212121; opacity: 1;}.light-blue-10{fill: #005dba; opacity: 0.1;}.light-blue{fill: #005dba; opacity: 1;}.cls-1{opacity:0.75;}</style>
  </defs>
  <title>LocalServerAudit</title>
  <g id="canvas">
    <path class="canvas" d="M16,16H0V0H16Z" />
  </g>
  <g id="level-1">
    <path class="light-defaultgrey-10" d="M11.5,1.5h-6a1,1,0,0,0-1,1V6.3a2.879,2.879,0,0,1,.5.24A3.98,3.98,0,0,1,7,10a4.22,4.22,0,0,1-.13,1,3.288,3.288,0,0,1-.21.6l.41.4,1.02,1,1.02,1,.51.5H12.5V2.5A1,1,0,0,0,11.5,1.5Z" />
    <path class="light-defaultgrey" d="M11.5,1h-6A1.5,1.5,0,0,0,4,2.5V6.13a2.946,2.946,0,0,1,.5.17,2.879,2.879,0,0,1,.5.24V2.5A.5.5,0,0,1,5.5,2h6a.5.5,0,0,1,.5.5V14H9.11l1.02,1H12.5l.5-.5V2.5A1.5,1.5,0,0,0,11.5,1Z" />
    <g class="cls-1">
      <path class="light-defaultgrey" d="M7.07,12l1.02,1H10.5V12ZM7,10a4.22,4.22,0,0,1-.13,1H10.5V10ZM6.5,4V5h4V4Z" />
    </g>
    <path class="light-blue-10" d="M.5,10A2.5,2.5,0,1,1,3,12.5,2.5,2.5,0,0,1,.5,10Z" />
    <path class="light-blue" d="M8.85,15.143,5.408,11.771A2.964,2.964,0,0,0,6,10a3.007,3.007,0,1,0-1.3,2.472L8.15,15.857ZM1,10a2,2,0,1,1,2,2A2,2,0,0,1,1,10Z" />
  </g>
</svg>
