<svg xmlns="http://www.w3.org/2000/svg" viewBox="0 0 16 16">
  <defs>
    <style>.canvas{fill: none; opacity: 0;}.light-blue-10{fill: #005dba; opacity: 0.1;}.light-blue{fill: #005dba; opacity: 1;}</style>
  </defs>
  <title>LocateAll</title>
  <g id="canvas">
    <path class="canvas" d="M16,16H0V0H16Z" />
  </g>
  <g id="level-1">
    <path class="light-blue-10" d="M13.5,7.5a3,3,0,1,1-3-3A3,3,0,0,1,13.5,7.5ZM10.11,3.02A3,3,0,1,0,6.02,7.11a3.353,3.353,0,0,1,.08-.54A4.479,4.479,0,0,1,9.57,3.1,3.353,3.353,0,0,1,10.11,3.02Z" />
    <path class="light-blue" d="M10.5,4A3.5,3.5,0,0,0,7.7,9.6L3.646,13.646l.708.708L8.4,10.3A3.5,3.5,0,1,0,10.5,4Zm0,6A2.5,2.5,0,1,1,13,7.5,2.5,2.5,0,0,1,10.5,10ZM5.41,7.3,1.35,11.35l-.7-.7L4.7,6.59A3.458,3.458,0,0,1,4,4.5a3.5,3.5,0,0,1,6.66-1.49A.86.86,0,0,0,10.5,3c-.13,0-.26.01-.39.02a3.353,3.353,0,0,0-.54.08A2.5,2.5,0,1,0,6.1,6.57a3.353,3.353,0,0,0-.08.54c-.01.13-.02.26-.02.39a.86.86,0,0,0,.01.16A3.668,3.668,0,0,1,5.41,7.3Z" />
  </g>
</svg>
