<svg xmlns="http://www.w3.org/2000/svg" viewBox="0 0 16 16">
  <defs>
    <style>.canvas{fill: none; opacity: 0;}.light-lightblue{fill: #0077a0; opacity: 1;}.light-purple{fill: #6936aa; opacity: 1;}.light-defaultgrey-10{fill: #212121; opacity: 0.1;}.light-defaultgrey{fill: #212121; opacity: 1;}</style>
  </defs>
  <title>LockedLink</title>
  <g id="canvas">
    <path class="canvas" d="M16,16H0V0H16Z" />
  </g>
  <g id="level-1">
    <path class="light-lightblue" d="M11,6H10c0,.1-.01.2-.02.3a.78.78,0,0,1-.03.22,1.055,1.055,0,0,1-.06.24,1.546,1.546,0,0,1-.07.23c.01.01,0,.01,0,.01H11a1.962,1.962,0,0,1,.9.22A2.879,2.879,0,0,1,13,7a.974.974,0,0,1,.24.02A2.979,2.979,0,0,0,11,6ZM5,9a2.458,2.458,0,0,1,.02-.28,1.015,1.015,0,0,1,.06-.25.754.754,0,0,1,.08-.24c.01,0,0-.01,0-.01A2.013,2.013,0,0,1,7,7H8.72c.04-.07.08-.15.12-.22.01-.01,0-.01,0-.01a2.25,2.25,0,0,0,.08-.24,1.136,1.136,0,0,0,.06-.25A2.458,2.458,0,0,0,9,6H7A3,3,0,0,0,4.18,8v.01a1.546,1.546,0,0,0-.07.23,1.055,1.055,0,0,0-.06.24,1.919,1.919,0,0,0-.03.22C4.01,8.8,4,8.9,4,9a3.009,3.009,0,0,0,3,3H9v-.91L9.09,11H7A2.006,2.006,0,0,1,5,9Z" />
    <path class="light-purple" d="M7,3H3A3,3,0,0,0,3,9H4c0-.1.01-.2.02-.3a1.919,1.919,0,0,1,.03-.22,1.055,1.055,0,0,1,.06-.24,1.546,1.546,0,0,1,.07-.23V8H3A2,2,0,0,1,3,4H7A2.006,2.006,0,0,1,9,6a2.458,2.458,0,0,1-.02.28,1.015,1.015,0,0,1-.06.25.754.754,0,0,1-.08.24s.01,0,0,.01A2.013,2.013,0,0,1,7,8H5.28c-.04.07-.08.15-.12.22,0,0,.01.01,0,.01a2.25,2.25,0,0,0-.08.24,1.136,1.136,0,0,0-.06.25A2.458,2.458,0,0,0,5,9H7A3,3,0,0,0,9.82,7s.01,0,0-.01a1.546,1.546,0,0,0,.07-.23,1.055,1.055,0,0,0,.06-.24.78.78,0,0,0,.03-.22c.01-.1.02-.2.02-.3A3.009,3.009,0,0,0,7,3Z" />
    <path class="light-defaultgrey-10" d="M15.5,11.5v4h-5v-4Z" />
    <path class="light-defaultgrey" d="M15.5,11H15V10a2,2,0,0,0-4,0v1h-.5l-.5.5v4l.5.5h5l.5-.5v-4ZM12,10a1,1,0,0,1,2,0v1H12Zm3,5H11V12h4Z" />
  </g>
</svg>
