<svg xmlns="http://www.w3.org/2000/svg" viewBox="0 0 16 16">
  <defs>
    <style>.canvas{fill: none; opacity: 0;}.light-blue{fill: #005dba; opacity: 1;}.light-defaultgrey-10{fill: #212121; opacity: 0.1;}.light-defaultgrey{fill: #212121; opacity: 1;}.white{fill: #ffffff; opacity: 1;}</style>
  </defs>
  <title>IconLightLoginStatus</title>
  <g id="canvas">
    <path class="canvas" d="M16,0V16H0V0Z" />
  </g>
  <g id="level-1">
    <path class="light-blue" d="M12.213,16H10.787l-.353-.146L7.646,13.066,7.5,12.713V11.287l.146-.353,2.788-2.788L10.787,8h1.426l.353.146,2.788,2.788.146.353v1.426l-.146.353-2.788,2.788Z" />
    <path class="light-defaultgrey-10" d="M7.666,14.5H1.5v-8h10V7h-.912l-.721.3L6.8,10.367l-.3.721v1.824l.3.721Z" />
    <path class="light-defaultgrey" d="M6.5,12H6V9H7v1.166l-.2.2-.3.721Z" />
    <path class="light-defaultgrey" d="M7.166,14H2V7H12V6.5L11.5,6H10V4.5a3.5,3.5,0,0,0-7,0V6H1.5L1,6.5v8l.5.5H8.166ZM4,4.5a2.5,2.5,0,0,1,5,0V6H4Z" />
    <path class="white" d="M12,12H11V9h1Zm-.5.75a.75.75,0,1,0,.75.75A.75.75,0,0,0,11.5,12.75Z" />
  </g>
</svg>
