<svg xmlns="http://www.w3.org/2000/svg" viewBox="0 0 16 16">
  <defs>
    <style>.canvas{fill: none; opacity: 0;}.light-defaultgrey-10{fill: #212121; opacity: 0.1;}.light-defaultgrey{fill: #212121; opacity: 1;}.cls-1{opacity:0.75;}</style>
  </defs>
  <title>IconLightLoginScreen</title>
  <g id="canvas">
    <path class="canvas" d="M16,16H0V0H16Z" />
  </g>
  <g id="level-1">
    <g class="cls-1">
      <path class="light-defaultgrey-10" d="M.5,4v8H9v-.91l1-1V10a3.009,3.009,0,0,1,3-3,2.772,2.772,0,0,1,1,.18,2.807,2.807,0,0,1,.5.22V4Z" />
      <path class="light-defaultgrey" d="M14.5,4H.5L0,4.5v8l.5.5H9V12H1V5H14V7.18a2.807,2.807,0,0,1,.5.22,3.081,3.081,0,0,1,.5.37V4.5Z" />
    </g>
    <path class="light-defaultgrey-10" d="M1,2V4H14V2Z" />
    <path class="light-defaultgrey" d="M14.5,1H.5L0,1.5v3L.5,5h14l.5-.5v-3ZM1,4V2H14V4Z" />
    <path class="light-defaultgrey-10" d="M15.5,11.5v4h-5v-4Z" />
    <path class="light-defaultgrey" d="M15.5,11H15V10a2,2,0,0,0-4,0v1h-.5l-.5.5v4l.5.5h5l.5-.5v-4ZM12,10a1,1,0,0,1,2,0v1H12Zm3,5H11V12h4Z" />
    <path class="light-defaultgrey" d="M6.954,7.746,5.282,8.5l1.672.754-.574.994L4.891,9.177,5.073,11H3.927l.182-1.823L2.62,10.248l-.574-.994L3.718,8.5,2.046,7.746l.574-.994L4.109,7.823,3.927,6H5.073L4.891,7.823,6.38,6.752ZM11.07,6H9.93l.18,1.82L8.62,6.75l-.57,1,1.67.75-1.67.75.57,1,1.49-1.07-.01.06a3.028,3.028,0,0,1,1.2-1.72l-.41.3Zm1.31.75-1.05.75a3,3,0,0,1,1.22-.46Z" />
  </g>
</svg>
