<svg xmlns="http://www.w3.org/2000/svg" viewBox="0 0 16 16">
  <defs>
    <style>.canvas{fill: none; opacity: 0;}.light-defaultgrey-10{fill: #212121; opacity: 0.1;}.light-teal-10{fill: #006758; opacity: 0.1;}.light-defaultgrey{fill: #212121; opacity: 1;}.light-yellow{fill: #996f00; opacity: 1;}.white{fill: #ffffff; opacity: 1;}.light-blue{fill: #005dba; opacity: 1;}.light-teal{fill: #006758; opacity: 1;}.cls-1{opacity:0.75;}</style>
  </defs>
  <title>IconLightLogPopulationWarning</title>
  <g id="canvas">
    <path class="canvas" d="M16,0V16H0V0Z" />
  </g>
  <g id="level-1">
    <path class="light-defaultgrey-10" d="M8,8v3H7.121l.738.738L10.47,7h2.06l.97,1.76V1.5H2.5V3H4V4H2.5V6H4V7H3.414l.854.854L4.121,8ZM6,4h5V5H6Z" />
    <path class="light-teal-10" d="M11.5,5.5h-6v-2h6Z" />
    <g class="cls-1">
      <path class="light-defaultgrey" d="M2.414,6H4V7H3.414ZM4,3H1V4H4ZM1.879,6H1v.879Z" />
    </g>
    <path class="light-yellow" d="M15.5,16h-8l-.439-.739,4-7.261h.878l4,7.261Z" />
    <path class="white" d="M12,13H11V10h1Zm.25,1.5a.75.75,0,1,1-.75-.75A.75.75,0,0,1,12.25,14.5Z" />
    <path class="light-blue" d="M2.146,11.854l-2-2V9.146l2-2,.708.708L1.707,9H7v1H1.707l1.147,1.146Zm3.762,3.425L7.357,12.65l-1.5-1.5-.708.708L6.293,13H1v1H6.293L5.146,15.146l.708.708.248-.249Z" />
    <path class="light-defaultgrey" d="M13,2H3V3H2V1.5L2.5,1h11l.5.5V9.668L13,7.853ZM2,5.879l.146-.147L2.414,6H3V4H2Z" />
    <path class="light-teal" d="M11.5,3h-6L5,3.5v2l.5.5h6l.5-.5v-2ZM11,5H6V4h5Z" />
  </g>
</svg>
