<svg xmlns="http://www.w3.org/2000/svg" viewBox="0 0 16 16">
  <defs>
    <style>.canvas{fill: none; opacity: 0;}.light-defaultgrey-10{fill: #212121; opacity: 0.1;}.light-defaultgrey{fill: #212121; opacity: 1;}.light-teal-10{fill: #006758; opacity: 0.1;}.light-yellow{fill: #996f00; opacity: 1;}.white{fill: #ffffff; opacity: 1;}.light-teal{fill: #006758; opacity: 1;}.cls-1{opacity:0.75;}</style>
  </defs>
  <title>IconLightLogWarning</title>
  <g id="canvas">
    <path class="canvas" d="M16,0V16H0V0Z" />
  </g>
  <g id="level-1">
    <path class="light-defaultgrey-10" d="M10.47,7h2.06l.97,1.76V1.5H2.5V3H4V4H2.5V6H4V7H2.5V9H4v1H2.5v2H4v1H2.5v1.5H6.339ZM6,4h5V5H6Z" />
    <g class="cls-1">
      <path class="light-defaultgrey" d="M4,3V4H1V3ZM1,7H4V6H1Zm0,3H4V9H1Zm0,3H4V12H1Z" />
    </g>
    <path class="light-teal-10" d="M11.5,5.5h-6v-2h6Z" />
    <path class="light-yellow" d="M15.5,16h-8l-.439-.739,4-7.261h.878l4,7.261Z" />
    <path class="light-defaultgrey" d="M3,6H2V4H3ZM3,2H13V7.853l1,1.815V1.5L13.5,1H2.5L2,1.5V3H3Zm0,8H2v2H3Zm3.614,4H3V13H2v1.5l.5.5H6.063ZM3,7H2V9H3Z" />
    <path class="white" d="M12,13H11V10h1Zm.25,1.5a.75.75,0,1,1-.75-.75A.75.75,0,0,1,12.25,14.5Z" />
    <path class="light-teal" d="M11.5,3h-6L5,3.5v2l.5.5h6l.5-.5v-2ZM11,5H6V4h5Z" />
  </g>
</svg>
