<svg xmlns="http://www.w3.org/2000/svg" viewBox="0 0 16 16">
  <defs>
    <style>.canvas{fill: none; opacity: 0;}.light-defaultgrey-10{fill: #212121; opacity: 0.1;}.light-defaultgrey{fill: #212121; opacity: 1;}.light-blue-10{fill: #005dba; opacity: 0.1;}.light-blue{fill: #005dba; opacity: 1;}</style>
  </defs>
  <title>IconLightLookupUser</title>
  <g id="canvas">
    <path class="canvas" d="M16,16H0V0H16Z" />
  </g>
  <g id="level-1">
    <path class="light-defaultgrey-10" d="M10,9.5a3,3,0,1,1,3-3A3,3,0,0,1,10,9.5Zm0,0A4.5,4.5,0,0,0,5.5,14h9A4.5,4.5,0,0,0,10,9.5Z" />
    <path class="light-defaultgrey" d="M11.957,9.4a3.5,3.5,0,1,0-3.914,0A5.007,5.007,0,0,0,5,14H6a4,4,0,0,1,8,0h1A5.007,5.007,0,0,0,11.957,9.4ZM7.5,6.5A2.5,2.5,0,1,1,10,9,2.5,2.5,0,0,1,7.5,6.5Z" />
    <path class="light-blue-10" d="M6.507,2.5a2,2,0,1,1-2-2A2,2,0,0,1,6.507,2.5Z" />
    <path class="light-blue" d="M4.507,0A2.5,2.5,0,0,0,2.423,3.876L.153,6.146l.707.708L3.13,4.583A2.478,2.478,0,0,0,4.507,5a2.5,2.5,0,0,0,0-5Zm0,4a1.5,1.5,0,1,1,1.5-1.5A1.5,1.5,0,0,1,4.507,4Z" />
  </g>
</svg>
