<svg xmlns="http://www.w3.org/2000/svg" viewBox="0 0 16 16">
  <defs>
    <style>.canvas{fill: none; opacity: 0;}.light-defaultgrey{fill: #212121; opacity: 1;}.light-defaultgrey-10{fill: #212121; opacity: 0.1;}.light-blue-10{fill: #005dba; opacity: 0.1;}.light-blue{fill: #005dba; opacity: 1;}</style>
  </defs>
  <title>IconLightLookupPrincipalId</title>
  <g id="canvas">
    <path class="canvas" d="M16,16H0V0H16Z" />
  </g>
  <g id="level-1">
    <path class="light-defaultgrey" d="M11.7,8.894a2.75,2.75,0,1,0-3.4,0,3.937,3.937,0,0,0-.435.244,3.98,3.98,0,0,1,1.208.524A2.946,2.946,0,0,1,10,9.5a3,3,0,0,1,3,3h1A4,4,0,0,0,11.7,8.894ZM10,8.5a1.75,1.75,0,1,1,1.75-1.75A1.752,1.752,0,0,1,10,8.5Z" />
    <path class="light-defaultgrey-10" d="M6.878,15.5a2.492,2.492,0,0,1-2.393-1.816L3.353,14l-.5-.5-1,.5-1.5-1.5,1-1H4.889a2.5,2.5,0,1,1,1.989,4Z" />
    <path class="light-defaultgrey" d="M6.878,10a2.961,2.961,0,0,0-2.224,1h-3.3L1,11.146l-1,1v.708l1.5,1.5.577.093.678-.339L3,14.354l.488.127.693-.193A3,3,0,1,0,6.878,10Zm0,5a2,2,0,0,1-1.913-1.454L4.35,13.2l-.85.237-.293-.294-.577-.093-.678.339L1.061,12.5l.5-.5H4.89l.4-.2A1.979,1.979,0,0,1,6.878,11a2,2,0,0,1,0,4Zm1-2a.5.5,0,1,1-.5-.5A.5.5,0,0,1,7.878,13Z" />
    <path class="light-defaultgrey-10" d="M15,3V14H10.736a3.939,3.939,0,0,0,.142-1,4,4,0,0,0-4-4A3.953,3.953,0,0,0,5,9.488V5.95A3.486,3.486,0,0,0,7.956,3Z" />
    <path class="light-defaultgrey" d="M4.507,6A3.489,3.489,0,0,0,5,5.95V9.488A3.928,3.928,0,0,0,4.244,10H4V5.956A3.423,3.423,0,0,0,4.507,6ZM15.5,2H7.956a3.443,3.443,0,0,1,.051.5,3.443,3.443,0,0,1-.051.5H15V14H10.736a3.966,3.966,0,0,1-.414,1H15.5l.5-.5V2.5Z" />
    <path class="light-blue-10" d="M6.507,2.5a2,2,0,1,1-2-2A2,2,0,0,1,6.507,2.5Z" />
    <path class="light-blue" d="M4.507,0A2.5,2.5,0,0,0,2.423,3.876L.153,6.146l.707.708L3.13,4.583A2.478,2.478,0,0,0,4.507,5a2.5,2.5,0,0,0,0-5Zm0,4a1.5,1.5,0,1,1,1.5-1.5A1.5,1.5,0,0,1,4.507,4Z" />
  </g>
</svg>
