<svg xmlns="http://www.w3.org/2000/svg" viewBox="0 0 16 16">
  <defs>
    <style>.canvas{fill: none; opacity: 0;}.light-defaultgrey{fill: #212121; opacity: 1;}.light-green{fill: #1f801f; opacity: 1;}</style>
  </defs>
  <title>IconLightLookupWorkflowContextProperty</title>
  <g id="canvas">
    <path class="canvas" d="M16,16H0V0H16Z" />
  </g>
  <g id="level-1">
    <path class="light-defaultgrey" d="M9,14.586v.707L8.293,16H7.586l-3.3-3.3A2.969,2.969,0,0,1,3,13a3,3,0,0,1-3-3A2.969,2.969,0,0,1,.3,8.714l1.993,1.993L3.707,9.293,1.714,7.3A2.969,2.969,0,0,1,3,7a3,3,0,0,1,3,3,2.969,2.969,0,0,1-.3,1.286Z" />
    <path class="light-defaultgrey" d="M13.389,12.389l.707.707a6.471,6.471,0,0,1-4.1,1.88v-.8l-.2-.2A5.484,5.484,0,0,0,13.389,12.389ZM12.854.146l-.708.708L13.293,2H9.5A6.506,6.506,0,0,0,3.478,6.048a4,4,0,0,1,.989.238A5.5,5.5,0,0,1,9.5,3h3.793L12.146,4.146l.708.708,2-2V2.146Z" />
    <path class="light-green" d="M14,6.6l-4.25,4.25H9.043L6.793,8.6,7.5,7.892l1.9,1.9,3.9-3.9Z" />
  </g>
</svg>
