<svg xmlns="http://www.w3.org/2000/svg" viewBox="0 0 16 16">
  <defs>
    <style>.canvas{fill: none; opacity: 0;}.light-blue-10{fill: #005dba; opacity: 0.1;}.light-blue{fill: #005dba; opacity: 1;}.light-defaultgrey-10{fill: #212121; opacity: 0.1;}.light-defaultgrey{fill: #212121; opacity: 1;}</style>
  </defs>
  <title>IconLightLookupUserProperty</title>
  <g id="canvas">
    <path class="canvas" d="M16,16H0V0H16Z" />
  </g>
  <g id="level-1">
    <path class="light-blue-10" d="M6.507,2.5a2,2,0,1,1-2-2A2,2,0,0,1,6.507,2.5Z" />
    <path class="light-blue" d="M4.507,0A2.5,2.5,0,0,0,2.423,3.876L.153,6.146l.707.708L3.13,4.583A2.478,2.478,0,0,0,4.507,5a2.5,2.5,0,0,0,0-5Zm0,4a1.5,1.5,0,1,1,1.5-1.5A1.5,1.5,0,0,1,4.507,4Z" />
    <path class="light-defaultgrey-10" d="M6.85,11a3.961,3.961,0,0,0,.08-1.69c-.008-.048-.025-.092-.034-.139A4.5,4.5,0,0,1,15.5,11ZM13.5,4A2.5,2.5,0,1,0,11,6.5,2.5,2.5,0,0,0,13.5,4Z" />
    <path class="light-defaultgrey" d="M12.832,6.359a3,3,0,1,0-3.664,0A5.026,5.026,0,0,0,6.692,8.5a3.922,3.922,0,0,1,.238.811A3.961,3.961,0,0,1,6.85,11H7a4,4,0,0,1,8,0h1A5,5,0,0,0,12.832,6.359ZM11,6a2,2,0,1,1,2-2A2,2,0,0,1,11,6Z" />
    <path class="light-defaultgrey" d="M.038,10.5A2.994,2.994,0,0,1,.291,8.705L2.282,10.7,3.7,9.282l-2-1.991a2.983,2.983,0,0,1,3.988,3.983L9,14.586v.707L8.293,16H7.586L4.274,12.688A2.98,2.98,0,0,1,.038,10.5Z" />
  </g>
</svg>
