<svg xmlns="http://www.w3.org/2000/svg" viewBox="0 0 16 16">
  <defs>
    <style>.canvas{fill: none; opacity: 0;}.light-defaultgrey{fill: #212121; opacity: 1;}.light-blue-10{fill: #005dba; opacity: 0.1;}.light-blue{fill: #005dba; opacity: 1;}.light-defaultgrey-10{fill: #212121; opacity: 0.1;}.cls-1{opacity:0.75;}</style>
  </defs>
  <title>IconLightMacroInternal</title>
  <g id="canvas" class="canvas">
    <path class="canvas" d="M16,16H0V0H16Z" />
  </g>
  <g id="level-1">
    <g class="cls-1">
      <path class="light-defaultgrey" d="M11,8.1a1.7,1.7,0,0,0-1-.047V1h1Z" />
      <path class="light-defaultgrey" d="M2,9H3V1H2Z" />
    </g>
    <path class="light-blue-10" d="M8.734,5,4.5,7.876V2.124Z" />
    <path class="light-blue" d="M4.765,1.7,4,2.124V7.876l.766.424L9,5.424V4.576ZM5,6.973V3.027L7.789,5Z" />
    <path class="light-defaultgrey-10" d="M15.5,11.527a1.99,1.99,0,0,1-.148.75l-.138.266c-.2.33-3.214,2.809-3.214,2.809s-3.018-2.479-3.214-2.809l-.138-.266A1.993,1.993,0,0,1,12,10.217a1.992,1.992,0,0,1,3.5,1.31Z" />
    <path class="light-defaultgrey" d="M13.5,9.027a2.478,2.478,0,0,0-1.5.509,2.491,2.491,0,0,0-4,1.991,2.521,2.521,0,0,0,.2.979l.152.294a33.652,33.652,0,0,0,3.327,2.939L12,16l.317-.261a31.569,31.569,0,0,0,3.342-2.968l.156-.306A2.5,2.5,0,0,0,13.5,9.027ZM14.9,12.074l-.1.193c-.167.217-1.5,1.363-2.8,2.437-1.3-1.074-2.63-2.217-2.771-2.39l-.117-.224a1.493,1.493,0,0,1,2.512-1.544l.376.431.376-.431A1.494,1.494,0,0,1,14.9,12.074Z" />
  </g>
</svg>
