<svg xmlns="http://www.w3.org/2000/svg" viewBox="0 0 16 16">
  <defs>
    <style>.canvas{fill: none; opacity: 0;}.light-defaultgrey{fill: #212121; opacity: 1;}.light-blue-10{fill: #005dba; opacity: 0.1;}.light-blue{fill: #005dba; opacity: 1;}.light-defaultgrey-10{fill: #212121; opacity: 0.1;}.cls-1{opacity:0.75;}</style>
  </defs>
  <title>IconLightMacroProtected</title>
  <g id="canvas" class="canvas">
    <path class="canvas" d="M16,16H0V0H16Z" />
  </g>
  <g id="level-1">
    <g class="cls-1">
      <path class="light-defaultgrey" d="M11,7.5l-1,2V1h1Z" />
      <path class="light-defaultgrey" d="M2,9h.988L3,1H2Z" />
    </g>
    <path class="light-blue-10" d="M8.734,5,4.5,7.876V2.124Z" />
    <path class="light-blue" d="M4.765,1.7,4,2.124V7.876l.766.424L9,5.424V4.576ZM5,6.973V3.027L7.789,5Z" />
    <path class="light-defaultgrey-10" d="M13.844,13.11,14.27,15.6l-2.234-1.175L9.8,15.6l.427-2.489L8.42,11.348l2.5-.363,1.118-2.264,1.117,2.264,2.5.363Z" />
    <path class="light-defaultgrey" d="M16,11.707l-.276-.854-2.239-.325-1-2.028h-.9l-1,2.028-2.238.325-.277.854L9.69,13.285l-.382,2.228.725.528,2-1.053,2,1.053.726-.528-.383-2.228Zm-2.394,2.977-1.337-.7H11.8l-1.339.7.256-1.489-.145-.444L9.494,11.7l1.5-.217.376-.273.67-1.357.669,1.357.376.273,1.5.217L13.5,12.751l-.144.444Z" />
  </g>
</svg>
