<svg xmlns="http://www.w3.org/2000/svg" viewBox="0 0 16 16">
  <defs>
    <style>.canvas{fill: none; opacity: 0;}.light-defaultgrey{fill: #212121; opacity: 1;}.light-blue-10{fill: #005dba; opacity: 0.1;}.light-blue{fill: #005dba; opacity: 1;}.light-defaultgrey-10{fill: #212121; opacity: 0.1;}.cls-1{opacity:0.75;}</style>
  </defs>
  <title>IconLightMacroSealed</title>
  <g id="canvas" class="canvas">
    <path class="canvas" d="M16,16H0V0H16Z" />
  </g>
  <g id="level-1">
    <g class="cls-1">
      <path class="light-defaultgrey" d="M2,9h.988L3,1H2Z" />
      <path class="light-defaultgrey" d="M10,8.762V1h1V8.276A4.493,4.493,0,0,0,10,8.762Z" />
    </g>
    <path class="light-blue-10" d="M8.734,5,4.5,7.876V2.124Z" />
    <path class="light-blue" d="M4.765,1.7,4,2.124V7.876l.766.424L9,5.424V4.576ZM5,6.973V3.027L7.789,5Z" />
    <path class="light-defaultgrey-10" d="M12.5,9.5a3,3,0,1,1-3,3A3,3,0,0,1,12.5,9.5Z" />
    <path class="light-defaultgrey" d="M9,12.5A3.5,3.5,0,1,0,12.5,9,3.5,3.5,0,0,0,9,12.5Zm6,0a2.486,2.486,0,0,1-.416,1.377l-3.461-3.461A2.5,2.5,0,0,1,15,12.5Zm-5,0a2.486,2.486,0,0,1,.416-1.377l3.461,3.461A2.5,2.5,0,0,1,10,12.5Z" />
  </g>
</svg>
