<svg xmlns="http://www.w3.org/2000/svg" viewBox="0 0 16 16">
  <defs>
    <style>.canvas{fill: none; opacity: 0;}.light-defaultgrey-10{fill: #212121; opacity: 0.1;}.light-defaultgrey{fill: #212121; opacity: 1;}</style>
  </defs>
  <title>MageProduct</title>
  <g id="canvas">
    <path class="canvas" d="M16,16H0V0H16Z" />
  </g>
  <g id="level-1">
    <path class="light-defaultgrey-10" d="M14.5,4.5V8H8v6.5H3A1.5,1.5,0,0,1,1.5,13V3a1.5,1.5,0,0,1,3,0V4.5Z" />
    <path class="light-defaultgrey" d="M7,9H8v1H7Zm0,4H8V12H7ZM9,7h4V6H9ZM7,7H8V6H7Zm8-2.5V8H14V5H5v8H4a1,1,0,1,0-1,1H8v1H3a2.006,2.006,0,0,1-2-2V3A2,2,0,0,1,5,3V4h9.5ZM2,11.27a1.987,1.987,0,0,1,2,0V3A1,1,0,0,0,2,3Z" />
    <path class="light-defaultgrey" d="M12,12H9V9h3Zm0,4H9V13h3Zm4-4H13V9h3Z" />
  </g>
</svg>
