<svg xmlns="http://www.w3.org/2000/svg" viewBox="0 0 16 16">
  <defs>
    <style>.canvas{fill: none; opacity: 0;}.light-yellow{fill: #996f00; opacity: 1;}.light-defaultgrey{fill: #212121; opacity: 1;}</style>
  </defs>
  <title>IconLightMagicWand</title>
  <g id="canvas">
    <path class="canvas" d="M16,0V16H0V0Z" />
  </g>
  <g id="level-1">
    <path class="light-yellow" d="M4,2V0H5V2l-.5.5Zm.5,4.5L4,7V9H5V7Zm2-2L7,5,9,5V4L7,4Zm-4,0L2,4,0,4V5L2,5Zm2.707-.706h.707L7.328,2.378,6.62,1.672,5.207,3.086ZM3.792,5.207H3.085L1.672,6.622l.708.706L3.792,5.914Zm1.414,0v.707L6.622,7.328l.706-.708L5.913,5.208ZM3.793,3.792V3.085L2.378,1.672l-.707.708L3.086,3.792Z" />
    <path class="light-defaultgrey" d="M14.02,14.727l-3.9-3.9.707-.707,3.9,3.9Zm-6-6-.9-.9.707-.707.9.9Zm1.5,1.5-.9-.9.707-.707.9.9Z" />
  </g>
</svg>
