<svg xmlns="http://www.w3.org/2000/svg" viewBox="0 0 16 16">
  <defs>
    <style>.canvas{fill: none; opacity: 0;}.light-defaultgrey-10{fill: #212121; opacity: 0.1;}.light-defaultgrey{fill: #212121; opacity: 1;}.cls-1{opacity:0.75;}</style>
  </defs>
  <title>IconLightMainMenuControl</title>
  <g id="canvas">
    <path class="canvas" d="M16,16H0V0H16Z" />
  </g>
  <g id="level-1">
    <path class="light-defaultgrey-10" d="M13.5,5.5v8H2.5v-8Z" />
    <path class="light-defaultgrey" d="M13.5,5H2.5L2,5.5v8l.5.5h11l.5-.5v-8ZM13,13H3V6H13Z" />
    <path class="light-defaultgrey-10" d="M8.5,1.5v2h-6v-2Z" />
    <path class="light-defaultgrey" d="M8.5,1h-6L2,1.5v2l.5.5h6L9,3.5v-2ZM8,3H3V2H8Z" />
    <g class="cls-1">
      <path class="light-defaultgrey" d="M10,8H4V7h6ZM4,12h6V11H4ZM4,9v1h8V9Z" />
    </g>
  </g>
</svg>
