<svg xmlns="http://www.w3.org/2000/svg" viewBox="0 0 16 16">
  <defs>
    <style>.canvas{fill: none; opacity: 0;}.light-defaultgrey-10{fill: #212121; opacity: 0.1;}.light-defaultgrey{fill: #212121; opacity: 1;}.cls-1{opacity:0.75;}</style>
  </defs>
  <title>MakefileApplication</title>
  <g id="canvas">
    <path class="canvas" d="M16,16H0V0H16Z" />
  </g>
  <g id="level-1">
    <g class="cls-1">
      <path class="light-defaultgrey-10" d="M14.5,5.5v8H8V9.8L7.7,9.08,5.92,7.3,5.2,7H1.5V5.5Z" />
      <path class="light-defaultgrey" d="M15,5.5v8l-.5.5H8V13h6V6H2V7H1V5.5L1.5,5h13Z" />
    </g>
    <path class="light-defaultgrey-10" d="M14.5,2.5v3H1.5v-3Z" />
    <path class="light-defaultgrey" d="M14.5,6H1.5L1,5.5v-3L1.5,2h13l.5.5v3ZM2,5H14V3H2Z" />
    <path class="light-defaultgrey-10" d="M6.5,15.5H.5v-7H5L6.5,10Z" />
    <path class="light-defaultgrey" d="M6.854,9.646l-1.5-1.5L5,8H.5L0,8.5v7l.5.5h6l.5-.5V10ZM1,15V9H4v2H6v4Z" />
  </g>
</svg>
