<svg xmlns="http://www.w3.org/2000/svg" viewBox="0 0 16 16">
  <defs>
    <style>.canvas{fill: none; opacity: 0;}.light-defaultgrey-10{fill: #212121; opacity: 0.1;}.light-defaultgrey{fill: #212121; opacity: 1;}.light-blue{fill: #005dba; opacity: 1;}.white{fill: #ffffff; opacity: 1;}.cls-1{opacity:0.75;}</style>
  </defs>
  <title>IconLightMapItemSealed</title>
  <g id="canvas" class="canvas">
    <path class="canvas" d="M16,16H0V0H16Z" />
  </g>
  <g id="level-1">
    <g class="cls-1">
      <path class="light-defaultgrey-10" d="M8.981,9.345l-1.025,1.2H6.481v2h-2v2h-3V12.238l5.2-5.193c-.006-.014-.007-.03-.013-.045h.357L8,6.025V2.379a4.023,4.023,0,0,1,6.379,4.047h0a4.062,4.062,0,0,1-.837,1.709A4.38,4.38,0,0,0,9.236,9.42C9.152,9.393,9.064,9.378,8.981,9.345Z" />
      <path class="light-defaultgrey" d="M9.7,2.123A3.572,3.572,0,0,0,8,3.049V1.758a4.509,4.509,0,0,1,5.635.614,4.575,4.575,0,0,1,1.23,4.15,4.564,4.564,0,0,1-.829,1.766,4.45,4.45,0,0,0-1.087-.243,3.551,3.551,0,0,0,.94-1.718l0,0A3.543,3.543,0,0,0,9.7,2.123ZM8.314,10.88l-.358.165H6.981v1.5l-.5.5h-1.5v1.5l-.5.5h-3l-.5-.5V12.238l.146-.353L6.013,7H7.025l.107-.107-.1.5-5.049,5.05v1.6h2v-1.5l.5-.5h1.5v-1.5l.5-.5H7.726L8.6,9.029l.561-.14a3.394,3.394,0,0,0,.5.144A4.5,4.5,0,0,0,8.314,10.88Z" />
      <path class="light-defaultgrey" d="M11.981,5.045a1,1,0,1,1-.293-.707A1,1,0,0,1,11.981,5.045Z" />
    </g>
    <path class="light-blue" d="M6.611,0H.389L0,.389V5.611L.389,6H6.611L7,5.611V.389Z" />
    <path class="white" d="M6,3H1V2H6Z" />
    <path class="light-defaultgrey-10" d="M12.5,9.5a3,3,0,1,1-3,3A3,3,0,0,1,12.5,9.5Z" />
    <path class="light-defaultgrey" d="M9,12.5A3.5,3.5,0,1,0,12.5,9,3.5,3.5,0,0,0,9,12.5Zm6,0a2.486,2.486,0,0,1-.416,1.377l-3.461-3.461A2.5,2.5,0,0,1,15,12.5Zm-5,0a2.486,2.486,0,0,1,.416-1.377l3.461,3.461A2.5,2.5,0,0,1,10,12.5Z" />
  </g>
</svg>
