<svg xmlns="http://www.w3.org/2000/svg" viewBox="0 0 16 16">
  <defs>
    <style>.canvas{fill: none; opacity: 0;}.light-defaultgrey-10{fill: #212121; opacity: 0.1;}.light-defaultgrey{fill: #212121; opacity: 1;}.cls-1{opacity:0.75;}</style>
  </defs>
  <title>IconLightMapInternal</title>
  <g id="canvas" class="canvas">
    <path class="canvas" d="M16,16H0V0H16Z" />
  </g>
  <g id="level-1">
    <g class="cls-1">
      <path class="light-defaultgrey-10" d="M7.149,10.545H6.481v2h-2v2h-3V12.238l5.2-5.193a3.85,3.85,0,0,1-.28-1.53,4.035,4.035,0,1,1,7.978.911h0a4.039,4.039,0,0,1-.748,1.587c-.045,0-.087-.013-.133-.013a3.5,3.5,0,0,0-1.5.343,3.472,3.472,0,0,0-4.851,2.2Z" />
      <path class="light-defaultgrey" d="M7.046,11.045H6.981v1.5l-.5.5h-1.5v1.5l-.5.5h-3l-.5-.5V12.238l.146-.353L6.1,6.912a4.53,4.53,0,0,1,7.534-4.54,4.575,4.575,0,0,1,1.23,4.15A4.549,4.549,0,0,1,14.2,8.07,3.551,3.551,0,0,0,13.5,8a3.444,3.444,0,0,0-.572.065,3.554,3.554,0,0,0,.961-1.738l0,0A3.535,3.535,0,1,0,6.9,5.523a3.378,3.378,0,0,0,.239,1.33L7.03,7.4l-5.049,5.05v1.6h2v-1.5l.5-.5h1.5v-1.5l.5-.5h.845A3.469,3.469,0,0,0,7.046,11.045Z" />
      <path class="light-defaultgrey" d="M11.981,5.045a1,1,0,1,1-.293-.707A1,1,0,0,1,11.981,5.045Z" />
    </g>
    <path class="light-defaultgrey-10" d="M15.5,11.5a1.99,1.99,0,0,1-.148.75l-.138.265c-.2.331-3.214,2.81-3.214,2.81s-3.018-2.479-3.214-2.81l-.138-.265A1.993,1.993,0,0,1,12,10.19a1.992,1.992,0,0,1,3.5,1.31Z" />
    <path class="light-defaultgrey" d="M13.5,9a2.478,2.478,0,0,0-1.5.509A2.491,2.491,0,0,0,8,11.5a2.543,2.543,0,0,0,.2.979l.152.293a33.618,33.618,0,0,0,3.327,2.94l.317.261.317-.261a31.686,31.686,0,0,0,3.342-2.968l.156-.306A2.5,2.5,0,0,0,13.5,9ZM14.9,12.047l-.1.192c-.167.218-1.5,1.364-2.8,2.438-1.3-1.074-2.63-2.217-2.771-2.39l-.117-.224a1.493,1.493,0,0,1,2.512-1.544l.376.43.376-.43A1.494,1.494,0,0,1,14.9,12.047Z" />
  </g>
</svg>
