<svg xmlns="http://www.w3.org/2000/svg" viewBox="0 0 16 16">
  <defs>
    <style>.canvas{fill: none; opacity: 0;}.light-defaultgrey-10{fill: #212121; opacity: 0.1;}.light-defaultgrey{fill: #212121; opacity: 1;}.light-blue{fill: #005dba; opacity: 1;}.white{fill: #ffffff; opacity: 1;}.cls-1{opacity:0.75;}</style>
  </defs>
  <title>IconLightMapItemProtected</title>
  <g id="canvas" class="canvas">
    <path class="canvas" d="M16,16H0V0H16Z" />
  </g>
  <g id="level-1">
    <g class="cls-1">
      <path class="light-defaultgrey-10" d="M7.383,10.545h-.9v2h-2v2h-3V12.238l5.2-5.193c-.006-.014-.007-.03-.013-.045h.357L8,6.025V2.379a4.023,4.023,0,0,1,6.379,4.047h0a4.061,4.061,0,0,1-.9,1.794l-.376-.761H10.967L9.922,9.573l-.015,0a3.9,3.9,0,0,1-.926-.23l-.356.417-1.037.151Z" />
      <path class="light-defaultgrey" d="M9.7,2.123A3.572,3.572,0,0,0,8,3.049V1.758a4.509,4.509,0,0,1,5.635.614,4.575,4.575,0,0,1,1.23,4.15,4.568,4.568,0,0,1-1.156,2.16l-.477-.966a3.548,3.548,0,0,0,.657-1.389l0,0A3.543,3.543,0,0,0,9.7,2.123ZM6.929,11.949l.052-.162v-.742h.24l.324-1H6.481l-.5.5v1.5h-1.5l-.5.5v1.5h-2v-1.6L7.03,7.4l.1-.5L7.025,7H6.013L1.127,11.885l-.146.353v2.307l.5.5h3l.5-.5v-1.5h1.5l.5-.5V12ZM10.155,9.1a3.476,3.476,0,0,1-.992-.213l-.561.14-.725.842,2.045-.3Z" />
      <path class="light-defaultgrey" d="M11.981,5.045a1,1,0,1,1-.293-.707A1,1,0,0,1,11.981,5.045Z" />
    </g>
    <path class="light-blue" d="M6.611,0H.389L0,.389V5.611L.389,6H6.611L7,5.611V.389Z" />
    <path class="white" d="M6,3H1V2H6Z" />
    <path class="light-defaultgrey-10" d="M13.844,13.07l.426,2.488-2.234-1.175L9.8,15.558l.427-2.488L8.42,11.308l2.5-.363,1.118-2.264,1.117,2.264,2.5.363Z" />
    <path class="light-defaultgrey" d="M16,11.666l-.276-.853-2.239-.326-1-2.028h-.9l-1,2.028-2.238.326-.277.853L9.69,13.244l-.382,2.229.725.527,2-1.053,2,1.053.726-.527-.383-2.229Zm-2.394,2.978-1.337-.7H11.8l-1.339.7.256-1.49-.145-.443L9.494,11.656l1.5-.217.376-.273.67-1.356.669,1.356.376.273,1.5.217L13.5,12.711l-.144.443Z" />
  </g>
</svg>
