<svg xmlns="http://www.w3.org/2000/svg" viewBox="0 0 16 16">
  <defs>
    <style>.canvas{fill: none; opacity: 0;}.light-defaultgrey-10{fill: #212121; opacity: 0.1;}.light-defaultgrey{fill: #212121; opacity: 1;}.light-blue{fill: #005dba; opacity: 1;}.white{fill: #ffffff; opacity: 1;}.cls-1{opacity:0.75;}</style>
  </defs>
  <title>IconLightMapItemPublic</title>
  <g id="canvas" class="canvas">
    <path class="canvas" d="M16,16H0V0H16Z" />
  </g>
  <g id="level-1">
    <g class="cls-1">
      <path class="light-defaultgrey-10" d="M14.379,6.426h0a4.064,4.064,0,0,1-3.947,3.2,3.909,3.909,0,0,1-1.453-.281l-1.025,1.2H6.481v2h-2v2h-3V12.238l5.2-5.193c-.006-.014-.007-.03-.013-.045h.357L8,6.025V2.379a4.023,4.023,0,0,1,6.379,4.047Z" />
      <path class="light-defaultgrey" d="M14.865,6.522a4.584,4.584,0,0,1-4.437,3.6,4.462,4.462,0,0,1-1.293-.189l-.8.937-.379.175H6.981v1.5l-.5.5h-1.5v1.5l-.5.5h-3l-.5-.5V12.238l.146-.353L6.013,7H7.025l.107-.107-.1.5-5.049,5.05v1.6h2v-1.5l.5-.5h1.5v-1.5l.5-.5H7.726L8.6,9.029l.561-.14a3.468,3.468,0,0,0,1.269.238,3.566,3.566,0,0,0,3.457-2.8l0,0A3.515,3.515,0,0,0,8,3.049V1.758a4.509,4.509,0,0,1,5.635.614,4.575,4.575,0,0,1,1.23,4.15Z" />
      <path class="light-defaultgrey" d="M11.981,5.045a1,1,0,1,1-.293-.707A1,1,0,0,1,11.981,5.045Z" />
    </g>
    <path class="light-blue" d="M6.611,0H.389L0,.389V5.611L.389,6H6.611L7,5.611V.389Z" />
    <path class="white" d="M6,3H1V2H6Z" />
  </g>
</svg>
