<svg xmlns="http://www.w3.org/2000/svg" viewBox="0 0 16 16">
  <defs>
    <style>.canvas{fill: none; opacity: 0;}.light-defaultgrey-10{fill: #212121; opacity: 0.1;}.light-defaultgrey{fill: #212121; opacity: 1;}.light-darkblue{fill: #313c9e; opacity: 1;}.light-blue{fill: #005dba; opacity: 1;}.cls-1{opacity:0.5;}</style>
  </defs>
  <title>IconLightMapLayerWizard</title>
  <g id="canvas">
    <path class="canvas" d="M16,0V16H0V0Z" />
  </g>
  <g id="level-1">
    <g class="cls-1">
      <path class="light-defaultgrey-10" d="M14.5,1.5v13H1.5V5.64l.03.15a1.4,1.4,0,0,0,.13.36A1.413,1.413,0,0,0,2,6.61,1.506,1.506,0,0,0,3,7a1.493,1.493,0,0,0,1.09-.5,1.492,1.492,0,0,0,.58.75,1.433,1.433,0,0,0,.54.22l.27.05.05.27c.01.06.03.11.04.16a.035.035,0,0,0,.01.02,1.5,1.5,0,0,0,2.89-.18l.05-.27.27-.05A1.5,1.5,0,0,0,9.94,6.41,1.4,1.4,0,0,0,10,6a1.21,1.21,0,0,0-.01-.19,1.508,1.508,0,0,0-1.2-1.28l-.27-.05-.05-.27A1.476,1.476,0,0,0,8,3.39a1.522,1.522,0,0,0-.82-.38A1.087,1.087,0,0,0,7,3a1.506,1.506,0,0,0-.39-1,1.476,1.476,0,0,0-.82-.47L5.64,1.5Z" />
      <path class="light-defaultgrey" d="M7.25,1.63c-.16-.13-.34-.09-.44-.13H9.39a.378.378,0,0,1,.03.31.281.281,0,0,0-.06-.15.1.1,0,0,0-.09.08c.12.01.07.14.06.26a.156.156,0,0,0,.03.12,1.244,1.244,0,0,0-.16.04.079.079,0,0,1,.08.08.218.218,0,0,1-.17.04.153.153,0,0,1,.04.18.418.418,0,0,1-.12-.08.543.543,0,0,1,.14.36.163.163,0,0,1-.2-.13.16.16,0,0,1-.08.14,1.742,1.742,0,0,0,.22.05c-.26.19-.89.46-1.11.59a1.522,1.522,0,0,0-.82-.38.152.152,0,0,0,.04-.06c.01-.02.01-.02.05-.01a.109.109,0,0,1-.01-.05.06.06,0,0,1,.04-.01c.08.01.04-.06.09-.06s0,0,.03-.08l.03-.03c0-.02-.05-.01-.14-.06.01.05.02.04.04.06.05.07-.2.14-.15-.07,0-.03.04-.03.04-.04s0-.03,0-.04c-.01-.07.09-.01.14-.01.04-.1-.08,0,0-.12.02-.01.02-.01,0-.02a.031.031,0,0,0-.02-.01c-.04,0-.06.1-.13.02-.03-.03.01-.04.03-.1,0-.01.01-.01.01-.02H7.26a.073.073,0,0,1,.02-.06c.03-.01-.03-.01-.01-.03s.07-.01.05-.04c-.04-.06.01,0-.02-.14,0-.01-.01-.02-.01-.03a.035.035,0,0,1,.01-.02V1.96c-.03-.02,0-.03.01-.05s-.07-.03-.04-.05.01-.06,0-.07C7.22,1.72,7.33,1.69,7.25,1.63ZM5.58,7.97a.035.035,0,0,1-.01-.02.087.087,0,0,0-.1.01C5.45,8,5.54,8,5.58,7.97ZM9.84,5.05A.5.5,0,0,1,9.97,5c.04-.01.06-.08.05-.14-.02-.09.06-.06.03-.14-.03-.05-.04-.04-.11-.05-.13.02-.02.08-.16.09-.03,0-.01.03-.02.07s.07.06-.02.15C9.7,5.01,9.76,5.08,9.84,5.05Zm.18-.51c-.01.03.04,0,.01.07.03.03.01.07.06.03.01.04-.03.09.03.09.09,0,.04.01.06.04s.04.03.03.06c-.01.06-.03.04-.07.04s-.02.06,0,.08-.02.05-.03.06c-.08.06.04.04.09.08-.02.01-.05,0-.08.04s-.07.07-.06.09.02,0,.03,0c.11-.06.52-.08.44-.15-.05-.03-.03-.01.01-.08,0-.01.01-.02.01-.03,0-.03-.03-.06-.1-.06l-.01.01V4.9h.01c-.01-.03-.05-.14-.08-.15-.08-.04-.03-.12-.14-.16-.03-.01.1-.16.03-.17-.04-.01-.11,0-.1-.03.03-.03.06-.07.02-.07-.16.01-.11.11-.16.11C9.95,4.43,10.04,4.47,10.02,4.54ZM4.17,7.66v.01a.669.669,0,0,0,.17-.07c.01,0,.03,0,.03.01.02.05.09.03.14.06.07.03.1.01.12.05a.116.116,0,0,0,.07.05c.05,0-.03.06.02.06H4.8c.02.01.35-.01-.07-.15C4.6,7.63,4.36,7.42,4.17,7.66Zm.88.25c-.01,0-.11.01-.11.03.01.05.04.01.15.03.02.01.04.06.07.02s.06-.02.09-.03a.118.118,0,0,1,.1-.01c.04-.01.04-.03.03-.04-.08-.04-.08-.07-.13-.08-.15-.04-.08.03-.18-.02-.02-.01-.06.03-.03.04S5.08,7.92,5.05,7.91Zm2.84,2.36a.2.2,0,0,0-.06.09c-.04.11-.1.07-.1.13,0,.15.02.3-.03.36-.03.04.01.08-.03.14-.1.16-.03.15-.07.17-.13.1-.13.06-.19.07s-.06,0-.07.01c-.01.06-.12.07-.18.13-.03.03-.15.12-.1.21a.1.1,0,0,1-.01.12c-.09.13-.08.19-.12.2-.02-.07-.05-.02-.06.04-.03.01-.04.02-.03.05-.03.11-.03.13-.07.16s-.01.13-.2.12c0,0-.02,0-.02-.01a.611.611,0,0,0-.13-.03c.03.03.08.05.08.09v.02c-.03.07.06.04.05.1a.268.268,0,0,1-.34.19c-.05-.01-.02.05-.02.06s-.01.04-.01.06.01.03.01.05c0,.05-.07.08-.12.05-.11-.06-.08,0-.06.06s.04.04.08.03.07.08-.01.08H6.07c-.03.04-.05.06-.05.09v.02a.031.031,0,0,0,.01.02c.01.03-.01.05-.02.08,0,.01-.04.02-.07.04l-.03.03c-.04.06.02.09.05.12.05.04.08-.01.09.09.01.04-.03.08-.06.11-.05.05,0,.09-.06.14-.12.09.08.22.01.24H5.92c-.01,0-.02,0-.02.02H5.89v.01c-.07.02-.05.12-.04.1s0-.06.03-.08c.01,0,.01-.01.01-.02a.01.01,0,0,0,.01-.01c.05,0,.08,0,.1.06.02.11.23.16.24.17s-.05.04-.06.04-.05-.01-.05.01-.02.02-.07.04v.02H6.01a.073.073,0,0,1-.06-.01c-.02-.01.01-.06-.02-.05a.078.078,0,0,0-.04.04c-.04-.01-.02-.05-.07-.06-.03,0,.01-.04-.04-.05H5.77c0-.04-.01-.03-.02,0-.08,0-.05-.01-.19-.11,0,0-.01-.02,0-.02.03,0,.04.02.09.02-.06-.05-.08-.05-.07-.08-.01-.01-.01-.03-.03-.04,0-.01-.01-.01-.02-.01-.04,0-.04-.02-.02-.03s.02.02.05-.02c.02-.02-.02-.03-.02-.06a.037.037,0,0,0-.01-.03v-.01H5.52l.01.01c-.02.04,0,.09-.03.09s-.03,0-.03-.11c.01-.01.01-.01.01-.02s0-.01-.01-.02c-.05-.03-.06-.04-.06-.05V13.7c-.02-.02-.01-.02-.01-.04s-.05-.06-.01-.09a.076.076,0,0,1,.04-.02v-.01c0-.04.03-.08-.01-.09-.09-.02-.07.02-.09,0s.02-.04.03-.1a.06.06,0,0,1,.06-.03c.03.1.06-.03.03-.08-.02-.02.01-.06.01-.15-.01-.06.01-.08-.01-.14,0-.03-.02.01-.05,0a.136.136,0,0,1-.01.15c-.04.03-.08-.15,0-.15-.06-.08-.03-.07-.04-.14s.05-.08.01-.14c-.02-.03-.02-.07-.04-.1a.037.037,0,0,1,0-.06,1.887,1.887,0,0,0,.09-.34.513.513,0,0,1-.01-.1c-.02-.04-.01-.08-.02-.11-.03-.07.03-.09,0-.16-.01-.02,0-.04,0-.05a1.1,1.1,0,0,0,.01-.44.312.312,0,0,0,0-.2c-.02-.07.08-.22-.23-.36-.27-.12-.25-.23-.25-.24-.28-.46-.19-.38-.23-.41-.06-.05-.02-.07-.09-.1a.209.209,0,0,1-.06-.04c-.04-.02.01-.02-.02-.1s.1-.09.1-.16V9.68c-.01.01-.01.01-.01.02H4.59c-.02-.01-.05-.02-.05-.05s0-.06,0-.09l.01-.01a.32.32,0,0,0,.05-.13V9.41c.05-.03.08-.03.09-.07.02-.08.06-.04.13-.15.01-.03-.02-.02-.02-.08.03-.2-.06-.18-.07-.27,0-.05-.06-.08-.07-.06-.06.07-.06.05-.05.08s-.04.07-.07.04c-.08-.07-.1-.08-.13-.07-.09.04-.09-.11-.16-.11-.04,0-.09-.01-.07-.06s-.1-.13-.12-.18c-.01-.01-.01-.02-.02-.02-.07.01-.17-.05-.25-.05-.03-.01-.06-.02-.07-.04s-.16-.16-.22-.14c-.21.08-.5-.14-.53-.15s-.07,0-.1-.05c-.05-.07-.09-.02-.13-.1s.03-.08.01-.15c-.07-.27-.29-.35-.26-.41s-.06-.06-.08-.14a.83.83,0,0,1-.11-.18c-.06-.14.01-.13-.11-.18-.02-.01-.05.09.07.28a.612.612,0,0,1,.05.12c.01.03.04.04.05.07.04.23.09.18.11.26.01.03-.04.06-.05.04-.05-.1-.16-.13-.14-.19.03-.13-.12-.12-.17-.22-.02-.03.09-.02.05-.09-.06-.11-.09-.09-.09-.13-.01-.06-.04-.11-.05-.17A.254.254,0,0,1,2,6.77c-.01-.07-.01-.09-.06-.12-.16-.09-.17-.06-.16-.11a3.347,3.347,0,0,1-.12-.39A1.413,1.413,0,0,0,2,6.61,1.506,1.506,0,0,0,3,7a1.493,1.493,0,0,0,1.09-.5,1.492,1.492,0,0,0,.58.75c.06.27-.09.32-.17.02-.06-.06.07-.04-.06-.19-.03-.04-.08.03-.11,0a.38.38,0,0,0-.29-.04c-.03.01-.02.01-.04.08-.16.07-.12-.05-.18-.02-.04.02-.12-.05-.21.03-.07.07-.23.03-.2.25,0,.01-.12.38-.03.48.06.07.05.12.11.14a.219.219,0,0,1,.05.03c.05.06.15-.03.2-.01.03.01.05.01.06-.03.06-.04.06-.1.08-.16.02-.04.41-.15.24.05a.091.091,0,0,0-.03.07.2.2,0,0,1-.01.07.027.027,0,0,1-.03.03.022.022,0,0,0-.02.02c0,.02-.01.03,0,.05a.128.128,0,0,1-.04.1A.01.01,0,0,0,4,8.23a.06.06,0,0,0,.04.01c.06,0,.24-.04.31.03.01,0,.03.01.04.01.03.02-.02.22-.03.23-.07.09.06.25.14.25.03.02.06.01.11-.02.11-.07.21.06.24.07.02-.07.08-.05.09-.12,0-.03.04-.09.08-.09s-.02.01.11-.02c.06-.02.06-.07.12-.08.03,0,.05.03.04.04-.04.04-.05.04-.04.06s.02.01.06,0,.03-.04.04-.06a.028.028,0,0,1,.05,0c.02.07.08,0,.12.09.01.02.02.02.11.01s.09.07.18,0c0-.01.01-.05.02-.03.03.03.07,0,.12.02.01,0,.01.01,0,.02-.09.04.1.04.1.12,0,.06,0-.06.17.1.02.03.02.05.03.06.05.01.09.06.12.06.45.01.36.16.5.33.02.02.01.05-.01.11a.251.251,0,0,0-.07.04c.02,0,.03,0,.04.01a.082.082,0,0,1,.07-.01V9.45c.05.02.1.02.09.07s.01.03.01.02c.03-.05.1-.02.15,0s.07.04.11.04.04.09.07.07c.01,0,.03-.02.05-.01.14.03.32,0,.4.12,0,.02.09.08.14.08C8.01,9.83,8.13,10.06,7.89,10.27ZM6.05,13l.01.01V13ZM14.49,2.79h.01V7.25c-.01,0-.01.01-.02,0a.327.327,0,0,1-.15-.06c-.03-.05-.09-.02-.12-.07-.09-.15-.09-.17-.2-.15a.01.01,0,0,0-.01.01c-.03.01-.02.05,0,.08a.191.191,0,0,0,.04.08.179.179,0,0,1,.07.06c.06.07.03.08.07.13s.06-.16.09.08c0,.08.07.03.14.04.04,0,.06-.02.09-.05v.65a.2.2,0,0,0-.07.01c-.1.03.03.06-.25.15A1.429,1.429,0,0,1,14,8.3a.2.2,0,0,1-.08.01c-.07,0-.05.05-.12.06-.14.01-.09-.08-.15-.2-.02-.03.03-.06-.03-.14-.04-.06-.09-.09-.11-.16-.03-.11-.18-.08-.17-.24a.237.237,0,0,0-.03-.1c-.04-.09-.1-.05-.11-.11,0-.02-.16-.32-.22-.25-.02.01-.06-.01-.05.02a.993.993,0,0,0,.13.25c.04.05.02.08.03.11s.1.04.12.14a.8.8,0,0,1,.03.15.076.076,0,0,0,.02.05c.08.06.11.07.13.19.02.1.12.1.16.15.01,0,.13.14.14.14.05.04-.01.07.01.09.08.08.09.1.15.07A1.3,1.3,0,0,1,14,8.5a.745.745,0,0,0,.27-.07c.12-.1,0,.39-.27.67-.03.02-.05.05-.08.07-.15.11-.65.56-.51.67.03.01-.02.22.08.28.04.03-.01.07.01.16.07.34-.18.36-.26.42-.25.21-.22.14-.16.35.07.26-.28.22-.22.31.07.12-.31.52-.41.59s-.13.03-.15.06-.15.02-.2.02c-.07,0-.09.03-.12.02-.13-.01-.03.09-.22-.02-.01-.01,0-.06-.03-.09s.04-.04.01-.12c-.09-.25-.07-.2-.14-.29-.11-.15-.07-.57-.28-.78-.06-.06.03-.35.06-.39.07-.08.11-.1.08-.19,0-.01-.01-.03-.01-.04-.02-.02-.02-.05-.03-.07v-.04c0-.01.01-.02.01-.03a.527.527,0,0,0-.03-.12.476.476,0,0,1-.06-.14c-.02-.04-.28-.28-.23-.33s.04-.14.04-.15.08-.15,0-.2c-.04-.03-.03-.05-.08-.04-.44.1,0-.3-.67-.05-.17.06-.24-.06-.42.03-.09.04-.09.06-.32-.12-.07-.06-.11-.04-.15-.12-.07-.11-.02-.09-.06-.13-.05-.06-.08-.04-.09-.07-.01-.05-.05-.04-.05-.09-.09-.03-.12-.07-.12-.11,0-.01.01-.02.01-.03.02-.03-.01-.05-.04-.1a.467.467,0,0,0,.08-.34c-.02-.06.03-.09-.02-.12-.09-.05.05-.22.28-.55.02-.03.24-.1.24-.22-.01-.3.23-.24.26-.38.03-.16.08-.05.12-.04.29.02.16.01.3-.05.09-.04.1-.06.16-.07a2.487,2.487,0,0,1,.4-.02c.1-.01.14-.06.18-.01.02.02.07-.01.05.02-.03.1-.02.05.01.11s-.1.12-.04.14.07.05.09.05c.12.05.07-.01.24.05.06.02.04.1.1.1a.414.414,0,0,1,.2.09c.04.02.09-.03.08-.07-.07-.3.35-.06.46-.05.15.02.2.06.25.04.21-.13.29.21.42-.28.03-.08-.01-.12.01-.19h-.05c-.11,0-.02.03-.14.05-.09.02-.07-.03-.14-.05s-.03.04-.14.05c-.03.01-.04-.06-.1-.04-.04.01-.06-.05-.11-.08-.01-.01.01-.02,0-.03s-.06-.03-.06-.05.06,0,.06-.05h-.02c-.07,0-.03,0-.03-.13a.069.069,0,0,0-.1-.04c-.01.01-.02.01-.04.01s-.02.02-.02.04c-.03.07-.09-.02-.09,0-.03.05.11.15.13.21,0,.02-.05.03-.06.03a.1.1,0,0,0-.03.08c.01.02-.05.01-.08,0s0-.04-.07-.09a.031.031,0,0,0-.01-.02V6.31c0-.03-.03-.05-.03-.07-.06-.06-.08-.06-.07-.09s-.05.01-.03-.14c0-.07-.15-.14-.17-.15-.09,0-.18-.18-.24-.16-.04.01-.02-.08-.05-.07s-.06.02-.06.04c0,.1.01.07.06.12.14.12.02.11.21.18.02,0,0,.03.04.04.01.01.18.08.14.13-.01.02-.03-.01-.06-.03s-.05.01-.04.06.06-.01-.03.15c-.02.04-.08,0-.08.06s.03.12-.2-.02c-.01-.01.01-.04.04-.04s.18.01.21-.07c.01-.01-.02-.07-.02-.08-.02-.03-.06-.03-.08-.07-.29-.17-.07-.02-.31-.23-.03-.07-.04-.09-.09-.11s-.07.02-.1.03c-.09.03-.09.11-.14.08-.03-.03-.15-.07-.17,0s.01.13-.09.18c-.05,0-.07.04-.11.08-.08.1.02.11-.02.15s-.03.09-.08.11-.03.05-.08.05c-.18.01-.11,0-.22.06-.06.03-.07-.07-.12-.09A1.4,1.4,0,0,0,10,6a1.21,1.21,0,0,0-.01-.19c.09.01.28.02.3.02.06.03.06-.15.06-.22s-.04-.04-.07-.11c-.03-.09-.14-.02-.16-.13-.01-.04.1-.05.12-.04s.09.02.08-.02c-.02-.12.03-.05.07-.04.06,0,.03-.03.08-.05.11-.04.01-.02.14-.13.12-.09.06-.15.13-.18.26-.14.28.02.23-.23-.01-.02-.04-.02-.03-.05.01-.01.01-.13.03-.14.05-.02.06-.06.11-.07.07-.02-.04.09.04.13,0,0,.01.02,0,.02a.051.051,0,0,0-.03.07c.03.01.04.06.06.06.06.01-.03-.05,0-.08a.083.083,0,0,1,.08-.03v.02c0,.07-.04.16-.09.12a.191.191,0,0,0-.08-.03.041.041,0,0,0,.02.05c.02.02.03,0,.07.04.02.02.16-.08.16-.04.03.22.25-.17.35-.02.01.02.07.02.07-.01.01-.05.08-.04.08-.07-.02-.09-.04-.22.06-.25.04-.02.04.01.08.05s.06-.1.03-.11-.04-.05-.07-.03a.068.068,0,0,1-.06.04c-.02-.03-.02-.05.01-.06.13-.04-.03-.07.2-.13.02-.01.07.01.09.01.07.03.05-.01.12-.05s-.02-.03-.04-.06c0-.01-.05,0-.08,0-.22,0-.16.13-.33.02V4.07h-.01c-.08-.05-.02-.01-.07-.22,0-.01-.02-.04-.01-.07s-.01-.06.02-.06.03,0,.04-.02c.01-.05.3-.34.02-.29-.07-.02-.1.08-.09.14.02.11-.13.17-.2.29-.02.01-.02.02-.02.17,0,.05.04.01.11.12.01.01,0,.04,0,.06.01.07-.11.07-.1.14,0,0-.03.15,0,.14s.02.09-.03.09c-.02.03-.05.02-.09.03s-.03.05-.06.06c-.1.01-.05,0-.1-.06a.158.158,0,0,0,.01-.04c0-.01-.01-.02-.05-.09s-.08-.23-.1-.23c-.01.03-.05.04-.07.06-.01,0-.08.11-.15.09-.22-.07-.05-.13-.1-.15-.09-.04.03-.03-.02-.13a.251.251,0,0,1-.04-.07c.02-.04-.01-.13.03-.15s.07-.01.06-.04c0-.01,0-.01.06-.05.03,0,.04-.03.07-.03.01,0,.01-.02,0-.03-.03-.04.05,0,.07-.04a.208.208,0,0,1,.08-.11c.02-.01,0-.04.02-.05s.05-.01.05-.03c.02-.08.02-.08.01-.11s.03-.01.03-.06a.269.269,0,0,1,.06-.09c.03-.01.04-.1.04-.1s.02-.02.03-.03c-.02-.03.02-.01.06-.05-.03-.02-.07.01-.13.01.01-.02.02-.03.01-.05s.08-.11.07-.08-.03.07,0,.06c.06-.01.04.02.08-.01.02-.01,0-.02-.01-.03a.038.038,0,0,1,.02-.07c.01-.01.01-.01.02,0a.01.01,0,0,0,.01-.01.046.046,0,0,1,.05-.03.037.037,0,0,1-.01-.03c0-.01,0-.01.01-.01s.02.02.02.04a.252.252,0,0,1,.06-.02V2.81c-.01-.03.07-.05.1-.05V2.72c0-.01,0-.02.04-.01v.01c.03-.01.04-.03.07-.03.01-.03.05-.03.06-.05.03-.04.03.03.05.03s.02.03.03.03c.03-.01.02-.09.08-.07.04.01.01.1.04.06.01-.02.02-.02.03-.02.04.01.16.04.13.07s-.04.04-.08.04c-.01,0,0,.02,0,.03.03.02.04-.01.08.01s.04-.04.08-.02c.02.01.05.02.04.04-.04.1.1-.08.34.12.06.05.09.03.13.06s.18.11.05.25c-.1.11-.4-.04-.45-.04.03.08.14.05.14.15v.01c-.01.06.01.03.04.13,0,.03.05.02.07.04a.091.091,0,0,0,.08.04c.04.01.04-.06,0-.06-.11,0-.08-.16-.01-.11.01.01.14.09.16.05.04-.06-.07-.05-.01-.15.1-.13.12-.1.19-.09.03.01.03-.03.03-.05,0-.06-.04-.04-.04-.08s.02-.12-.05-.17a.014.014,0,0,1,0-.02c.08.01.11-.02.16.03.01.03.06.06.03.08s-.08.04-.05.07c.1.1.14.03.14.01.01-.04,0-.06.03-.07a1.141,1.141,0,0,0,.11-.11.085.085,0,0,1,.05-.03.06.06,0,0,1,.04-.01c.02-.01.02-.03.04-.03a.01.01,0,0,0,.01-.01c.01-.02.02-.03.04-.02a.045.045,0,0,1,.02.06v.02a.037.037,0,0,0,.03-.01c.02-.01.04-.01.06-.03a.071.071,0,0,1,.06-.03.037.037,0,0,0,.05-.02c0-.01,0-.01.01-.01s.04-.01.06-.02.04,0,.04.02a.037.037,0,0,1,.01.03l.01.01h.01A.07.07,0,0,1,14,2.8l.01-.01c.01,0,.01-.02,0-.03L14,2.75a.176.176,0,0,0-.04-.05c-.01-.01-.02-.02-.03-.02s-.02,0-.02-.01c-.02-.03-.05-.03-.08-.04a.062.062,0,0,1-.02-.07.01.01,0,0,0,.01-.01l.02-.01c.02.02.05.03.07.05a.11.11,0,0,0,.09.03.075.075,0,0,0,.05.01h.02a.191.191,0,0,1,.13.02c.03.01.04.04.07.03l.06.03c.02.01.04.01.06.02a.138.138,0,0,1,.04.03Zm-2.86.01a.01.01,0,0,0-.01.01C11.61,2.85,11.68,2.81,11.63,2.8Zm1.74,3.14a.108.108,0,0,0-.07-.11c-.14-.07-.12-.12-.22-.14a.134.134,0,0,1-.07-.06.01.01,0,0,1,.01-.01c.02-.02.03-.05.05-.07V5.52a.019.019,0,0,1,0-.03.176.176,0,0,0,.04-.05c-.13,0-.09.05-.17.06a.135.135,0,0,0-.09.05h-.01v.01l.01-.01c.04.06.04.06.11.05a.035.035,0,0,1,.02.01.019.019,0,0,1-.01.03l-.01.01a.084.084,0,0,0-.07.02.363.363,0,0,1-.07.03c-.02.01-.05,0-.05-.02-.01-.04-.03-.04-.05-.05s0-.03.02-.05-.05,0-.11-.06a.045.045,0,0,0-.05,0c-.12.16-.06.15-.11.17-.03,0-.03.04-.03.08s-.02.03-.05.11a.185.185,0,0,0,.02.07c.05.09.15.05.21.07.04.01.04-.04.09-.06a.362.362,0,0,1,.28,0l.03.02c.09.03.13.05.16.04.09-.03.08.02.14-.01C13.36,5.99,13.38,5.97,13.37,5.94Zm.97.42a.5.5,0,0,1-.03-.13.06.06,0,0,0-.03-.06l-.02-.02c-.01-.01.01-.03,0-.04s-.04.01-.06-.04c0-.01-.01-.03,0-.04a.114.114,0,0,0-.03-.08.123.123,0,0,1-.01-.1.022.022,0,0,0-.02-.02.194.194,0,0,1-.11-.09A.138.138,0,0,0,14,5.7c-.02-.03-.04-.04,0-.05h.01c.01,0,.01,0,.01-.03-.01-.07.03-.05.09-.06a.022.022,0,0,0,.02-.02V5.49c.01-.03-.01-.07-.04-.07A.1.1,0,0,1,14,5.41c-.01,0-.01.01-.02.01-.1.05-.12.06-.13.08a.158.158,0,0,1-.08.05.138.138,0,0,0-.03.04c-.01.04-.03.07,0,.1.09.06.03.14.13.21s.05.1.13.13c.03.01.02.02,0,.05a.213.213,0,0,0-.03.23.037.037,0,0,0,.03.01c.02.01.05.01.07.03.03.04.1.04.14.04C14.33,6.38,14.34,6.38,14.34,6.36ZM9.56,3.53c-.02-.05.03-.07.01-.08-.07-.05-.03-.03-.05-.06s-.02-.05-.03-.05c-.04.01-.04-.04-.08-.01a.086.086,0,0,1-.09.03c-.01-.01-.03,0-.04,0-.05-.02-.05.04-.07.03s-.03-.05-.04-.02c-.03.03.03.04-.04.07v.01H9.12V3.44h.01c-.01-.01-.03-.16-.12-.11a.115.115,0,0,0-.08.1c0,.02.01.03.04.01s.15.02-.03.06v.02c0,.02.02.01.05.02s.07.07.03.08-.03.04.01.05.08-.01.11.02c.03.01.05.02.08.03C9.27,3.73,9.58,3.57,9.56,3.53Zm4.93-1.47a.2.2,0,0,0-.15-.01c-.01,0-.02-.01-.03,0a.022.022,0,0,0-.02.02v.04a.757.757,0,0,0,.01.15.071.071,0,0,1-.03.06.235.235,0,0,0-.02.08c0,.02,0,.04.02.05a.078.078,0,0,1,.04.04c0,.03.02.05.01.08-.01,0-.01.01,0,.02a.574.574,0,0,0,.04.07h.01c.02-.01.03-.02.04,0a.18.18,0,0,0,.09.06V2.07ZM4.64,7.96c.05.08.16.03.14,0C4.74,7.91,4.62,7.93,4.64,7.96ZM11.01,6.2c.01.08.1.04.1,0V6.15c0-.07,0-.12-.04-.12a.155.155,0,0,0-.06.03C10.99,6.08,11.01,6.08,11.01,6.2Zm.05-.31c-.06.02-.06.06-.02.12S11.12,5.86,11.06,5.89Z" />
    </g>
    <path class="light-defaultgrey" d="M15,1.5v13l-.5.5H1.5L1,14.5V4.63l.31.06.19.95.03.15a1.4,1.4,0,0,0,.13.36A1.413,1.413,0,0,0,2,6.61V14H14V2H6.61a1.476,1.476,0,0,0-.82-.47L5.64,1.5l-.95-.19L4.63,1H14.5Z" />
    <path class="light-darkblue" d="M6,3a.5.5,0,0,1-.4.49l-1.313.263a.678.678,0,0,0-.532.532L3.49,5.6a.5.5,0,0,1-.98,0L2.247,4.285a.678.678,0,0,0-.532-.532L.4,3.49a.5.5,0,0,1,0-.98l1.313-.263a.678.678,0,0,0,.532-.532L2.51.4a.5.5,0,0,1,.98,0l.263,1.313a.678.678,0,0,0,.532.532L5.6,2.51A.5.5,0,0,1,6,3Z" />
    <path class="light-blue" d="M9,6a.5.5,0,0,1-.4.49l-.786.157a.212.212,0,0,0-.165.163L7.49,7.6a.5.5,0,0,1-.98,0l-.157-.786a.212.212,0,0,0-.163-.165L5.4,6.49a.5.5,0,0,1,0-.98l.786-.157a.212.212,0,0,0,.165-.163L6.51,4.4a.5.5,0,0,1,.98,0l.157.786a.212.212,0,0,0,.163.165L8.6,5.51A.5.5,0,0,1,9,6Z" />
  </g>
</svg>
