<svg xmlns="http://www.w3.org/2000/svg" viewBox="0 0 16 16">
  <defs>
    <style>.canvas{fill: none; opacity: 0;}.light-defaultgrey-10{fill: #212121; opacity: 0.1;}.light-defaultgrey{fill: #212121; opacity: 1;}.cls-1{opacity:0.75;}</style>
  </defs>
  <title>IconLightMapProtected</title>
  <g id="canvas" class="canvas">
    <path class="canvas" d="M16,16H0V0H16Z" />
  </g>
  <g id="level-1">
    <g class="cls-1">
      <path class="light-defaultgrey-10" d="M7.4,10.5H6.5v2h-2v2h-3V12.193L6.7,7A3.843,3.843,0,0,1,6.42,5.47a4.035,4.035,0,1,1,7.978.911,3.9,3.9,0,0,1-.924,1.824l-.368-.746H10.967L9.944,9.529A3.885,3.885,0,0,1,9,9.3l-.395.461-1.017.148Z" />
      <path class="light-defaultgrey" d="M7,12.018V12.5l-.5.5H5v1.5l-.5.5h-3L1,14.5V12.193l.146-.353L6.118,6.867a4.464,4.464,0,0,1-.2-1.405A4.534,4.534,0,1,1,14.888,6.48,4.4,4.4,0,0,1,13.7,8.669l-.476-.963a3.388,3.388,0,0,0,.681-1.424A3.543,3.543,0,0,0,9.716,2.073a3.576,3.576,0,0,0-2.8,3.405,3.375,3.375,0,0,0,.239,1.33l-.11.542L2,12.4V14H4V12.5l.5-.5H6V10.5l.5-.5H7.56l-.324,1H7v.729l-.071.22ZM9.922,9.573l-2.069.3.768-.9.561-.14a3.435,3.435,0,0,0,1,.213Z" />
      <path class="light-defaultgrey" d="M12,5a1,1,0,1,1-1-1A1,1,0,0,1,12,5Z" />
    </g>
    <path class="light-defaultgrey-10" d="M13.844,13.07l.426,2.488-2.234-1.175L9.8,15.558l.427-2.488L8.42,11.308l2.5-.363,1.118-2.264,1.117,2.264,2.5.363Z" />
    <path class="light-defaultgrey" d="M16,11.666l-.276-.853-2.239-.326-1-2.028h-.9l-1,2.028-2.238.326-.277.853L9.69,13.244l-.382,2.229.725.527,2-1.053,2,1.053.726-.527-.383-2.229Zm-2.394,2.978-1.337-.7H11.8l-1.339.7.256-1.49-.145-.443L9.494,11.656l1.5-.217.376-.273.67-1.356.669,1.356.376.273,1.5.217L13.5,12.711l-.144.443Z" />
  </g>
</svg>
