<svg xmlns="http://www.w3.org/2000/svg" viewBox="0 0 16 16">
  <defs>
    <style>.canvas{fill: none; opacity: 0;}.light-defaultgrey-10{fill: #212121; opacity: 0.1;}.light-defaultgrey{fill: #212121; opacity: 1;}.cls-1{opacity:0.75;}</style>
  </defs>
  <title>IconLightMapSealed</title>
  <g id="canvas" class="canvas">
    <path class="canvas" d="M16,16H0V0H16Z" />
  </g>
  <g id="level-1">
    <g class="cls-1">
      <path class="light-defaultgrey-10" d="M9,9.3,7.975,10.5H6.5v2h-2v2h-3V12.193L6.7,7A3.843,3.843,0,0,1,6.42,5.47a4.035,4.035,0,1,1,7.978.911,3.9,3.9,0,0,1-.866,1.75A4.393,4.393,0,0,0,9.268,9.382C9.179,9.354,9.086,9.338,9,9.3Z" />
      <path class="light-defaultgrey" d="M8.327,10.838,7.975,11H7v1.5l-.5.5H5v1.5l-.5.5h-3L1,14.5V12.193l.146-.353L6.118,6.867a4.464,4.464,0,0,1-.2-1.405A4.534,4.534,0,1,1,14.888,6.48a4.347,4.347,0,0,1-.855,1.807,4.4,4.4,0,0,0-1.111-.244,3.43,3.43,0,0,0,.986-1.761A3.543,3.543,0,0,0,9.716,2.073a3.576,3.576,0,0,0-2.8,3.405,3.375,3.375,0,0,0,.239,1.33l-.11.542L2,12.4V14H4V12.5l.5-.5H6V10.5l.5-.5H7.745l.876-1.021.561-.14a3.456,3.456,0,0,0,.534.153A4.5,4.5,0,0,0,8.327,10.838Z" />
      <path class="light-defaultgrey" d="M12,5a1,1,0,1,1-1-1A1,1,0,0,1,12,5Z" />
    </g>
    <path class="light-defaultgrey-10" d="M12.5,9.5a3,3,0,1,1-3,3A3,3,0,0,1,12.5,9.5Z" />
    <path class="light-defaultgrey" d="M9,12.5A3.5,3.5,0,1,0,12.5,9,3.5,3.5,0,0,0,9,12.5Zm6,0a2.486,2.486,0,0,1-.416,1.377l-3.461-3.461A2.5,2.5,0,0,1,15,12.5Zm-5,0a2.486,2.486,0,0,1,.416-1.377l3.461,3.461A2.5,2.5,0,0,1,10,12.5Z" />
  </g>
</svg>
