<svg xmlns="http://www.w3.org/2000/svg" viewBox="0 0 16 16">
  <defs>
    <style>.canvas{fill: none; opacity: 0;}.light-defaultgrey-10{fill: #212121; opacity: 0.1;}.light-defaultgrey{fill: #212121; opacity: 1;}.cls-1{opacity:0.75;}</style>
  </defs>
  <title>IconLightMapShortcut</title>
  <g id="canvas" class="canvas">
    <path class="canvas" d="M16,16H0V0H16Z" />
  </g>
  <g id="level-1">
    <g class="cls-1">
      <path class="light-defaultgrey-10" d="M7,10.5H6.5v2h-2v2h-3V12.193L6.7,7A3.843,3.843,0,0,1,6.42,5.47a4.035,4.035,0,1,1,7.978.911A3.687,3.687,0,0,1,14.212,7H8.086L7,8.086Z" />
      <path class="light-defaultgrey" d="M7,12.5l-.5.5H5v1.5l-.5.5h-3L1,14.5V12.193l.146-.353L6.118,6.867a4.464,4.464,0,0,1-.2-1.405A4.534,4.534,0,1,1,14.888,6.48a4.157,4.157,0,0,1-.156.52H13.663a3.288,3.288,0,0,0,.245-.718A3.543,3.543,0,0,0,9.716,2.073a3.576,3.576,0,0,0-2.8,3.405,3.375,3.375,0,0,0,.239,1.33l-.11.542L2,12.4V14H4V12.5l.5-.5H6V10.5l.5-.5H7v2.5Z" />
      <path class="light-defaultgrey" d="M12,5a1,1,0,1,1-1-1A1,1,0,0,1,12,5Z" />
    </g>
    <path class="light-defaultgrey-10" d="M15.5,8.5v7h-7v-7Z" />
    <path class="light-defaultgrey" d="M15.5,8h-7L8,8.5v7l.5.5h7l.5-.5v-7ZM15,15H9V9h6Zm-1-4.5V14H13V11.707l-2.646,2.647-.708-.708L12.293,11H10V10h3.5Z" />
  </g>
</svg>
