<svg xmlns="http://www.w3.org/2000/svg" viewBox="0 0 16 16">
  <defs>
    <style>.canvas{fill: none; opacity: 0;}.light-defaultgrey-10{fill: #212121; opacity: 0.1;}.light-defaultgrey{fill: #212121; opacity: 1;}</style>
  </defs>
  <title>IconLightMarginPadding</title>
  <g id="canvas">
    <path class="canvas" d="M16,16H0V0H16Z" />
  </g>
  <g id="level-1">
    <path class="light-defaultgrey-10" d="M14,2V9H8v6H1V2.5L1.5,2Z" />
    <path class="light-defaultgrey" d="M2,7H1V6H2ZM2,8H1V9H2Zm0,2H1v1H2Zm0,2H1v1H2Zm0,2H1v1H2Zm6-2H7v1H8Zm0,2H7v1H8Zm0-4H7v1H8ZM2,4H1V5H2ZM2,2H1.5L1,2.5V3H2ZM8,8H7.5L7,8.5V9H8Zm2-6H9V3h1Zm0,6H9V9h1Zm2,0H11V9h1Zm2,0H13V9h1ZM12,2H11V3h1Zm2,0H13V3h1ZM8,2H7V3H8ZM6,2H5V3H6ZM4,2H3V3H4Z" />
    <path class="light-defaultgrey" d="M4.5,5H14V6H5v9H4V5.5Z" />
  </g>
</svg>
