<svg xmlns="http://www.w3.org/2000/svg" viewBox="0 0 16 16">
  <defs>
    <style>.canvas{fill: none; opacity: 0;}.light-defaultgrey{fill: #212121; opacity: 1;}.light-blue{fill: #005dba; opacity: 1;}</style>
  </defs>
  <title>IconLightMatchBrace</title>
  <g id="canvas">
    <path class="canvas" d="M16,16H0V0H16Z" />
  </g>
  <g id="level-1">
    <path class="light-defaultgrey" d="M14.707,8.16v.68q-.913.058-.914,1.242V11.84A1.608,1.608,0,0,1,12,13.656v-.738a.883.883,0,0,0,.724-.293,1.557,1.557,0,0,0,.214-.926V10.006q0-1.236.873-1.5V8.482q-.873-.28-.873-1.511V5.254q0-1.137-.938-1.16v-.75a1.618,1.618,0,0,1,1.793,1.84V6.9Q13.793,8.1,14.707,8.16ZM2.207,3.184V4.895q0,1.206-.914,1.265v.68q.914.058.914,1.242V9.84A1.608,1.608,0,0,0,4,11.656v-.738a.883.883,0,0,1-.724-.293A1.557,1.557,0,0,1,3.062,9.7V8.006q0-1.236-.873-1.5V6.482q.873-.281.873-1.511V3.254q0-1.137.938-1.16v-.75A1.618,1.618,0,0,0,2.207,3.184Z" />
    <path class="light-blue" d="M10.854,7.145v.707l-2.5,2.5-.707-.707L9.291,8H5V7H9.3L7.647,5.352l.707-.707Z" />
  </g>
</svg>
