<svg xmlns="http://www.w3.org/2000/svg" xmlns:xlink="http://www.w3.org/1999/xlink" viewBox="0 0 16 16"><defs><style>.canvas{fill:none;opacity:0;}.light-defaultgrey{fill:#212121;}.cls-101{fill:url(#radial-gradient);}.cls-1{opacity:0.5;}.white{fill:#fff;}</style><radialGradient id="radial-gradient" cx="8" cy="8" r="6.5" gradientUnits="userSpaceOnUse"><stop offset="0" stop-color="#f4f4f4"/><stop offset="1" stop-color="#212121"/></radialGradient></defs><g id="canvas"><path class="canvas" d="M16,0V16H0V0Z"/></g><g id="level-1"><g><path class="light-defaultgrey" d="M12.95,3.05a7,7,0,1,0,0,9.9A7.009,7.009,0,0,0,12.95,3.05Zm-.707,9.193a6,6,0,1,1,0-8.486A6.008,6.008,0,0,1,12.243,12.243Z"/><path class="cls-101" d="M12.6,12.6a6.5,6.5,0,1,1,0-9.192A6.5,6.5,0,0,1,12.6,12.6Z"/></g><g class="cls-1"><path class="white" d="M14.593,5.667C13.631,7.607,11.047,9,8,9S2.369,7.607,1.407,5.667a6.99,6.99,0,0,1,13.186,0Z"/></g></g></svg>