<svg xmlns="http://www.w3.org/2000/svg" viewBox="0 0 16 16">
  <defs>
    <style>.canvas{fill: none; opacity: 0;}.light-defaultgrey-10{fill: #212121; opacity: 0.1;}.light-defaultgrey{fill: #212121; opacity: 1;}.cls-1{opacity:0.75;}</style>
  </defs>
  <title>IconLightMDIParent</title>
  <g id="canvas">
    <path class="canvas" d="M16,16H0V0H16Z" />
  </g>
  <g id="level-1">
    <g class="cls-1">
      <path class="light-defaultgrey-10" d="M1.5,5V7H8.91L10,8.09V13h4.5V5Z" />
      <path class="light-defaultgrey" d="M14.5,5H1.5L1,5.5V7H2V6H14v7H10v1h4.5l.5-.5v-8Z" />
    </g>
    <path class="light-defaultgrey-10" d="M2,3V5H14V3Z" />
    <path class="light-defaultgrey" d="M14.5,2H1.5L1,2.5v3l.5.5h13l.5-.5v-3ZM2,5V3H14V5Z" />
    <path class="light-defaultgrey-10" d="M8.5,9v6.5H.5V9Z" />
    <path class="light-defaultgrey" d="M8.5,8H.5L0,8.5v7l.5.5h8l.5-.5v-7ZM8,15H1V10H8Z" />
    <path class="light-defaultgrey" d="M2,11H3v1H2Zm2,3H7V13H4ZM2,14H3V13H2Zm2-3v1H7V11Z" />
  </g>
</svg>
