<svg xmlns="http://www.w3.org/2000/svg" viewBox="0 0 16 16">
  <defs>
    <style>.canvas{fill: none; opacity: 0;}.light-defaultgrey-10{fill: #212121; opacity: 0.1;}.light-defaultgrey{fill: #212121; opacity: 1;}.cls-1{opacity:0.75;}</style>
  </defs>
  <title>IconLightMDXQuery</title>
  <g id="canvas">
    <path class="canvas" d="M16,16H0V0H16Z" />
  </g>
  <g id="level-1">
    <path class="light-defaultgrey-10" d="M13.5,4.939,8,7.439l-5.5-2.5,5.5-3Z" />
    <path class="light-defaultgrey" d="M8.239,1.5H7.761l-5.5,3,.032.894,5.5,2.5h.414l5.5-2.5.032-.894ZM8,6.89,3.619,4.9,8,2.508,12.381,4.9Z" />
    <path class="light-defaultgrey" d="M5.3,14.9H4.5V11.729c0-.259.017-.578.048-.953H4.53a3.229,3.229,0,0,1-.133.461L2.935,14.9H2.374L.907,11.265a3.514,3.514,0,0,1-.13-.489H.764q.027.294.027.96V14.9H.039V10H1.185l1.288,3.265a4.649,4.649,0,0,1,.191.56h.018q.126-.387.205-.574L4.2,10H5.3Zm1.207,0V10H7.925q2.709,0,2.71,2.39a2.352,2.352,0,0,1-.752,1.823,2.869,2.869,0,0,1-2.017.688Zm.809-4.211v3.524h.65A1.816,1.816,0,0,0,9.3,13.743a1.8,1.8,0,0,0,.476-1.334A1.547,1.547,0,0,0,8,10.69ZM15,14.9h-.975l-1-1.8a1.686,1.686,0,0,1-.1-.233h-.014c-.02.05-.054.128-.1.233L11.77,14.9h-.981L12.4,12.437,10.919,10h.994l.886,1.654c.056.11.108.219.153.328h.011c.065-.143.123-.257.171-.341L14.053,10h.916l-1.511,2.431Z" />
    <g class="cls-1">
      <path class="light-defaultgrey-10" d="M2.5,9V4.939l5.5-3,5.5,3V9Z" />
      <path class="light-defaultgrey" d="M14,4.939V9H13V5.715l.707-.321.032-.894ZM2.261,4.5,2,4.939V9H3V5.715l-.707-.321ZM8.207,7.894H7.793l-.3-.135V9h1V7.763Z" />
    </g>
  </g>
</svg>
