<svg xmlns="http://www.w3.org/2000/svg" viewBox="0 0 16 16">
  <defs>
    <style>.canvas{fill: none; opacity: 0;}.light-defaultgrey-10{fill: #212121; opacity: 0.1;}.light-defaultgrey{fill: #212121; opacity: 1;}</style>
  </defs>
  <title>IconLightMeasure</title>
  <g id="canvas">
    <path class="canvas" d="M16,0V16H0V0Z" />
  </g>
  <g id="level-1">
    <path class="light-defaultgrey-10" d="M14.5,13.5V2.5h-3v11Z" />
    <path class="light-defaultgrey-10" d="M9.5,13.5v-8h-3v8Z" />
    <path class="light-defaultgrey-10" d="M4.5,13.5v-5h-3v5Z" />
    <path class="light-defaultgrey" d="M11.5,2h3l.5.5v11l-.5.5h-3l-.5-.5V2.5ZM14,13V3H12V13Z" />
    <path class="light-defaultgrey" d="M6.5,5h3l.5.5v8l-.5.5h-3L6,13.5v-8ZM9,13V6H7v7Z" />
    <path d="M1.5,8h3l.5.5v5l-.5.5h-3L1,13.5v-5ZM4,13V9H2v4Z" />
  </g>
</svg>
