<svg xmlns="http://www.w3.org/2000/svg" viewBox="0 0 16 16">
  <defs>
    <style>.canvas{fill: none; opacity: 0;}.light-defaultgrey-10{fill: #212121; opacity: 0.1;}.light-defaultgrey{fill: #212121; opacity: 1;}</style>
  </defs>
  <title>IconLightMeasureTree</title>
  <g id="canvas">
    <path class="canvas" d="M16,0V16H0V0Z" />
  </g>
  <g id="level-1">
    <path class="light-defaultgrey-10" d="M13.5,11.5v3h-3v-3Z" />
    <path class="light-defaultgrey-10" d="M10.5,6.5h3v3h-3Z" />
    <path class="light-defaultgrey-10" d="M2.5,5.5v-4h4v4Z" />
    <path class="light-defaultgrey" d="M10.5,10h3l.5-.5v-3L13.5,6h-3l-.5.5V8H5V6H6.5L7,5.5v-4L6.5,1h-4L2,1.5v4l.5.5H4v7.5l.5.5H10v.5l.5.5h3l.5-.5v-3l-.5-.5h-3l-.5.5V13H5V9h5v.5ZM11,7h2V9H11ZM3,5V2H6V5Zm8,7h2v2H11Z" />
  </g>
</svg>
