<svg xmlns="http://www.w3.org/2000/svg" viewBox="0 0 16 16">
  <defs>
    <style>.canvas{fill: none; opacity: 0;}.light-blue-10{fill: #005dba; opacity: 0.1;}.light-blue{fill: #005dba; opacity: 1;}.light-defaultgrey-10{fill: #212121; opacity: 0.1;}.light-defaultgrey{fill: #212121; opacity: 1;}.light-yellow{fill: #996f00; opacity: 1;}</style>
  </defs>
  <title>IconLightMediaZoom</title>
  <g id="canvas">
    <path class="canvas" d="M16,0V16H0V0Z" />
  </g>
  <g id="level-1">
    <path class="light-blue-10" d="M2.5,9.5a2,2,0,1,1-2,2A2,2,0,0,1,2.5,9.5Z" />
    <path class="light-blue" d="M14,10.09V11.5l-2.819-2.82L8.988,10.877H8.281L4.814,7.41l-.9.9a3.445,3.445,0,0,0-1.136-.278L4.461,6.35h.707L8.634,9.816l2.193-2.193h.707Z" />
    <path class="light-defaultgrey-10" d="M14.5,1.5v12H6.621L5.8,12.675A3.466,3.466,0,0,0,6,11.5,3.5,3.5,0,0,0,2.5,8a3.449,3.449,0,0,0-1,.163V1.5Z" />
    <path class="light-defaultgrey" d="M15,1.5v12l-.5.5H7.121l-1-1H14V2H2V8.051a3.44,3.44,0,0,0-1,.3V1.5L1.5,1h13Z" />
    <path class="light-yellow" d="M12,4.5A1.5,1.5,0,1,1,10.5,3,1.5,1.5,0,0,1,12,4.5Z" />
    <path class="light-blue" d="M0,11.5A2.5,2.5,0,0,0,2.5,14a2.473,2.473,0,0,0,1.376-.417l2.27,2.271.708-.708-2.271-2.27A2.473,2.473,0,0,0,5,11.5a2.5,2.5,0,0,0-5,0Zm1,0A1.5,1.5,0,1,1,2.5,13,1.5,1.5,0,0,1,1,11.5Z" />
  </g>
</svg>
