<svg xmlns="http://www.w3.org/2000/svg" viewBox="0 0 16 16">
  <defs>
    <style>.canvas{fill: none; opacity: 0;}.light-defaultgrey-10{fill: #212121; opacity: 0.1;}.light-defaultgrey{fill: #212121; opacity: 1;}.light-red{fill: #c50b17; opacity: 1;}.white{fill: #ffffff; opacity: 1;}</style>
  </defs>
  <title>IconLightMemberError</title>
  <g id="canvas" class="canvas">
    <path class="canvas" d="M16,16H0V0H16Z" />
  </g>
  <g id="level-1">
    <path class="light-defaultgrey-10" d="M7.037,12.368a4.5,4.5,0,1,1,3.39-5.091A4.984,4.984,0,0,0,7,12C7,12.126,7.028,12.244,7.037,12.368Z" />
    <path class="light-defaultgrey" d="M7.088,12.873a5,5,0,1,1,3.824-5.746,4.931,4.931,0,0,0-.967.325A3.992,3.992,0,1,0,6,12a3.913,3.913,0,0,0,1.015-.147c0,.05-.015.1-.015.147A5.026,5.026,0,0,0,7.088,12.873ZM5.5,8A1.5,1.5,0,1,1,7,6.5,1.5,1.5,0,0,1,5.5,8Zm0-2a.5.5,0,1,0,.5.5A.5.5,0,0,0,5.5,6Z" />
    <path class="light-red" d="M12,8a4,4,0,1,0,4,4A4,4,0,0,0,12,8Z" />
    <path class="white" d="M12.707,12l1.147,1.146-.708.708L12,12.707l-1.146,1.147-.708-.708L11.293,12l-1.147-1.146.708-.708L12,11.293l1.146-1.147.708.708Z" />
  </g>
</svg>
