<svg xmlns="http://www.w3.org/2000/svg" viewBox="0 0 16 16">
  <defs>
    <style>.canvas{fill: none; opacity: 0;}.light-defaultgrey-10{fill: #212121; opacity: 0.1;}.light-defaultgrey{fill: #212121; opacity: 1;}</style>
  </defs>
  <title>IconLightMemberFormula</title>
  <g id="canvas" class="canvas">
    <path class="canvas" d="M16,16H0V0H16Z" />
  </g>
  <g id="level-1">
    <path class="light-defaultgrey-10" d="M13.5,8A4.5,4.5,0,0,1,9,12.5v-.857A1.419,1.419,0,0,0,8,9.191H8a1.976,1.976,0,0,0-1.3.54,1.674,1.674,0,0,0-.484-.357,1.449,1.449,0,0,0,.29-.871,1.349,1.349,0,0,0-.262-.862,1.588,1.588,0,0,0-1-.6A2.419,2.419,0,0,0,4.81,7c-.067,0-.133,0-.2.009A4.5,4.5,0,0,1,13.5,8Z" />
    <path class="light-defaultgrey" d="M14,8a5.006,5.006,0,0,1-5,5V12A4,4,0,1,0,5.122,7.018,2.539,2.539,0,0,0,4.81,7a2.431,2.431,0,0,0-.731.114A5,5,0,0,1,14,8Z" />
    <path class="light-defaultgrey" d="M8.5,8A1.5,1.5,0,1,1,10,6.5,1.5,1.5,0,0,1,8.5,8Zm0-2a.5.5,0,1,0,.5.5A.5.5,0,0,0,8.5,6Z" />
    <path class="light-defaultgrey" d="M7.915,11.057a1.626,1.626,0,0,1-.513-.111,5.029,5.029,0,0,0-.88,1.165c.112.457.119.554.273,1.067a1.084,1.084,0,0,0,.384.571.569.569,0,0,0,.348.1,1.507,1.507,0,0,0,.268-.022.871.871,0,0,0,.263-.067l-.071.264a2.754,2.754,0,0,1-.728.245c-.46.068-.782.006-.946-.433A8.9,8.9,0,0,1,6,12.74a8.6,8.6,0,0,1-.889,1.21.908.908,0,0,1-.687.339.426.426,0,0,1-.094-.843c.357-.082.391.016.714.1a5.17,5.17,0,0,0,.866-1.138c-.031-.156-.046-.2-.138-.58-.051-.208-.122-.423-.205-.666a1.326,1.326,0,0,0-.117-.254.723.723,0,0,0-.121-.164c-.072-.063-.164-.115-.632-.1-.36.01-1.255.017-1.255.017l-.71,3.317c-.235,1.075-1.209,2.2-2.282,2a.573.573,0,0,1-.379-.219.465.465,0,0,1,.04-.536.418.418,0,0,1,.5-.08.8.8,0,0,1,.29.295c.09.144.1.159.143.232a.467.467,0,0,0,.259-.1,1.82,1.82,0,0,0,.5-.857c.136-.472.049-.106.9-4.054H1.906L2,10.3h.772a3.476,3.476,0,0,1,.3-.995,1.981,1.981,0,0,1,2-1.281.6.6,0,0,1,.384.218.356.356,0,0,1,.062.232.488.488,0,0,1-.1.313.461.461,0,0,1-.54.076c-.179-.1-.242-.277-.4-.531-.362.019-.579.476-.7.821a7.187,7.187,0,0,0-.21.839c-.029.131-.049.234-.058.308,1.082-.019,1.318-.053,1.942-.089a.688.688,0,0,1,.7.5,7.6,7.6,0,0,1,.286,1.067v.013l0,.013c.394-.621.837-1.589,1.585-1.607C8.561,10.179,8.649,11.041,7.915,11.057Z" />
  </g>
</svg>
