<svg xmlns="http://www.w3.org/2000/svg" viewBox="0 0 16 16">
  <defs>
    <style>.canvas{fill: none; opacity: 0;}.light-yellow-10{fill: #996f00; opacity: 0.1;}.light-yellow-25{fill: #996f00; opacity: 0.25;}.light-yellow{fill: #996f00; opacity: 1;}.light-defaultgrey-10{fill: #212121; opacity: 0.1;}.light-defaultgrey{fill: #212121; opacity: 1;}</style>
  </defs>
  <title>IconLightMemberFolderOpened</title>
  <g id="canvas" class="canvas">
    <path class="canvas" d="M16,16H0V0H16Z" />
  </g>
  <g id="level-1">
    <path class="light-yellow-10" d="M6.5,3.5l-1-1H.5V7.73c.16-.17.33-.32.5-.47a5.422,5.422,0,0,1,.9-.6A5.45,5.45,0,0,1,6.78,6.5H7.5l1-1h5v-2Z" />
    <path class="light-yellow-25" d="M8.5,5.5l-1,1H6.78a5.271,5.271,0,0,1,.81.45A5.535,5.535,0,0,1,10,11.5a4.07,4.07,0,0,1-.03.5,4.019,4.019,0,0,1-.06.5H13.5l2-7Z" />
    <path class="light-yellow" d="M15.89,5.63l-1.87,7-.48.37H9.79a4.385,4.385,0,0,0,.18-1h3.19L14,8.85,14.76,6H8.68l-.85.85-.24.1a5.271,5.271,0,0,0-.81-.45A5.4,5.4,0,0,0,4.5,6H7.27l.85-.85L8.47,5H13V4H6.5l-.35-.15L5.29,3H1V7.26c-.17.15-.34.3-.5.47a4.241,4.241,0,0,0-.5.62V2.5L.5,2h5l.35.15L6.71,3H13.5l.5.5V5h1.41Z" />
    <path class="light-yellow-25" d="M13,6v6.5h1V6Z" />
    <path class="light-defaultgrey-10" d="M8.5,11.5a4,4,0,1,1-4-4A4,4,0,0,1,8.5,11.5Z" />
    <path class="light-defaultgrey" d="M4.5,7A4.5,4.5,0,1,0,9,11.5,4.505,4.505,0,0,0,4.5,7Zm0,8A3.5,3.5,0,1,1,8,11.5,3.5,3.5,0,0,1,4.5,15Zm-1-6A1.5,1.5,0,1,0,5,10.5,1.5,1.5,0,0,0,3.5,9Zm0,2a.5.5,0,1,1,.5-.5A.5.5,0,0,1,3.5,11Z" />
  </g>
</svg>
