<svg xmlns="http://www.w3.org/2000/svg" viewBox="0 0 16 16">
  <defs>
    <style>.canvas{fill: none; opacity: 0;}.light-defaultgrey-10{fill: #212121; opacity: 0.1;}.light-defaultgrey{fill: #212121; opacity: 1;}</style>
  </defs>
  <title>IconLightMember</title>
  <g id="canvas" class="canvas">
    <path class="canvas" d="M16,16H0V0H16Z" />
  </g>
  <g id="level-1">
    <path class="light-defaultgrey-10" d="M8,13.5A5.5,5.5,0,1,1,13.5,8,5.5,5.5,0,0,1,8,13.5Z" />
    <path class="light-defaultgrey" d="M8,14a6,6,0,1,1,6-6A6.006,6.006,0,0,1,8,14ZM8,3a5,5,0,1,0,5,5A5.006,5.006,0,0,0,8,3Z" />
    <path class="light-defaultgrey" d="M6.5,8A1.5,1.5,0,1,1,8,6.5,1.5,1.5,0,0,1,6.5,8Zm0-2a.5.5,0,1,0,.5.5A.5.5,0,0,0,6.5,6Z" />
  </g>
</svg>
