<svg xmlns="http://www.w3.org/2000/svg" viewBox="0 0 16 16">
  <defs>
    <style>.canvas{fill: none; opacity: 0;}.light-defaultgrey-10{fill: #212121; opacity: 0.1;}.light-defaultgrey{fill: #212121; opacity: 1;}.cls-1{opacity:0.75;}</style>
  </defs>
  <title>IconLightMemoryArray</title>
  <g id="canvas">
    <path class="canvas" d="M16,0V16H0V0Z" />
  </g>
  <g id="level-1">
    <g class="cls-1">
      <path class="light-defaultgrey-10" d="M15.5,8.5h-2v2H12v-3L11.5,7h-9V5.5h2v-2h11Z" />
      <path class="light-defaultgrey" d="M15.5,3H4.5L4,3.5V5H2.5L2,5.5V7H3V6H13v4H12v1h1.5l.5-.5V9h1.5l.5-.5v-5ZM15,8H14V5.5L13.5,5H5V4H15Z" />
    </g>
    <path class="light-defaultgrey-10" d="M11.5,7.5v5h-2v3h-2v-3h-3v3h-2v-3H.5v-5Z" />
    <path class="light-defaultgrey" d="M7,9H8v2H7Zm2,2h1V9H9ZM4,11H5V9H4ZM2,11H3V9H2Z" />
    <path class="light-defaultgrey" d="M11.5,7H.5L0,7.5v5l.5.5H2v2.5l.5.5h2l.5-.5V13H7v2.5l.5.5h2l.5-.5V13h1.5l.5-.5v-5ZM4,15H3V13H4Zm5,0H8V13H9Zm2-3H1V8H11Z" />
  </g>
</svg>
