<svg xmlns="http://www.w3.org/2000/svg" viewBox="0 0 16 16">
  <defs>
    <style>.canvas{fill: none; opacity: 0;}.light-defaultgrey-10{fill: #212121; opacity: 0.1;}.light-defaultgrey{fill: #212121; opacity: 1;}</style>
  </defs>
  <title>MemoryConfiguration</title>
  <g id="canvas">
    <path class="canvas" d="M16,16H0V0H16Z" />
  </g>
  <g id="level-1">
    <path class="light-defaultgrey-10" d="M3.5,3.5V6.02l.17.03c.11.02.22.04.33.07a3.8,3.8,0,0,1,1,.4A3.689,3.689,0,0,1,5.64,7c.06.05.12.1.18.16A3.464,3.464,0,0,1,6.46,8a3.974,3.974,0,0,1,.41,1c.02.1.04.2.06.31A3.846,3.846,0,0,1,6.85,11v.02l.48.48H7.5v-3h3v3h2v-3h2v-5Z" />
    <path class="light-defaultgrey" d="M5,5V6.52A3.689,3.689,0,0,1,5.64,7H6V5ZM7,5V7H8V5Zm5,0V7h1V5ZM10,5V7h1V5Z" />
    <path class="light-defaultgrey" d="M14.5,3H3.5L3,3.5V5.99h.01a4.028,4.028,0,0,1,.49.03l.17.03c.11.02.22.04.33.07V4H14V8H6.46a3.974,3.974,0,0,1,.41,1H7v2H6.85v.02l.82.82L8,11.5V9h2v2.5l.5.5h2l.5-.5V9h1.5l.5-.5v-5ZM11,9h1v2H11Z" />
    <path class="light-defaultgrey" d="M.042,10.5A2.994,2.994,0,0,1,.3,8.705L2.286,10.7,3.7,9.282l-2-1.991a2.983,2.983,0,0,1,3.988,3.983L9,14.586v.707L8.3,16H7.59L4.278,12.688A2.98,2.98,0,0,1,.042,10.5Z" />
  </g>
</svg>
