<svg xmlns="http://www.w3.org/2000/svg" viewBox="0 0 16 16">
  <defs>
    <style>.canvas{fill: none; opacity: 0;}.light-blue-10{fill: #005dba; opacity: 0.1;}.light-defaultgrey-10{fill: #212121; opacity: 0.1;}.light-defaultgrey{fill: #212121; opacity: 1;}.light-blue{fill: #005dba; opacity: 1;}.white{fill: #ffffff; opacity: 1;}</style>
  </defs>
  <title>IconLightMenuItemCustomAction</title>
  <g id="canvas" class="canvas">
    <path class="canvas" d="M0,0H16V16H0Z" />
  </g>
  <g id="level-1">
    <path class="light-blue-10" d="M5.5,13.5l-3,2v-4Z" />
    <path class="light-defaultgrey-10" d="M13.5,4.5v10H9V10H2.5V1.5h6v3Z" />
    <path class="light-defaultgrey" d="M10,7H4V6h6Z" />
    <path class="light-defaultgrey" d="M9,12h1v1H9Z" />
    <path class="light-blue" d="M2.777,15.916,2,15.5v-4l.777-.416,3,2v.832ZM3,12.435v2.13L4.6,13.5Z" />
    <path class="light-blue" d="M1,11v5H0V11Z" />
    <path class="light-blue" d="M8,11v5H7V11Z" />
    <path class="light-blue" d="M13,8v3H9V10h3V9H4v1H3V8Z" />
    <path class="light-defaultgrey" d="M13.5,4H9V1.5L8.5,1h-6L2,1.5V10H3V5H13v9H9v1h4.5l.5-.5V4.5ZM8,4H3V2H8Z" />
    <path class="white" d="M12,10H4V9h8Z" />
  </g>
</svg>
