<svg xmlns="http://www.w3.org/2000/svg" viewBox="0 0 16 16">
  <defs>
    <style>.canvas{fill: none; opacity: 0;}.light-purple{fill: #6936aa; opacity: 1;}.light-purple-10{fill: #6936aa; opacity: 0.1;}.light-green{fill: #1f801f; opacity: 1;}.cls-1{opacity:0.75;}</style>
  </defs>
  <title>IconLightMergeModuleReference</title>
  <g id="canvas" class="canvas">
    <path class="canvas" d="M16,0V16H0V0Z" />
  </g>
  <g id="level-1">
    <g class="cls-1">
      <path class="light-purple" d="M9,10v1H6V10Z" />
    </g>
    <path class="light-purple-10" d="M15.5,7.5v6h-6v-6Zm-14,5h4v-4h-4Z" />
    <path class="light-purple" d="M15.5,7h-6L9,7.5v6l.5.5h6l.5-.5v-6ZM15,13H10V8h5ZM1.5,8,1,8.5v4l.5.5h4l.5-.5v-4L5.5,8ZM5,12H2V9H5Z" />
    <path class="light-green" d="M2.146.146h.708L4.8,2.091,4.091,2.8,3,1.707V3.293L4.854,5.146,5,5.5V7H4V5.707l-1-1V7H2V1.707L.909,2.8.2,2.091Z" />
  </g>
</svg>
