<svg xmlns="http://www.w3.org/2000/svg" viewBox="0 0 16 16">
  <defs>
    <style>.canvas{fill: none; opacity: 0;}.light-defaultgrey-10{fill: #212121; opacity: 0.1;}.light-green{fill: #1f801f; opacity: 1;}.light-defaultgrey{fill: #212121; opacity: 1;}</style>
  </defs>
  <title>IconLightMessageLogTrace</title>
  <g id="canvas">
    <path class="canvas" d="M16,16H0V0H16Z" />
  </g>
  <g id="level-1">
    <path class="light-defaultgrey-10" d="M.5,8.5h8v7H.5Z" />
    <path class="light-green" d="M8.146,13.854,5.5,11.207,3.854,12.854H3.146L2.5,12.207.854,13.854l-.708-.708,2-2h.708l.646.647,1.646-1.647h.708l3,3Z" />
    <path class="light-defaultgrey" d="M15,3.5v9l-.5.5H10V12h4V4.535L9.724,7.81l-.716-.716L13.03,4H2.97l3.9,3H5.219L2,4.535V7H1V3.5L1.5,3h13Z" />
    <path class="light-defaultgrey-10" d="M14.5,3.5v9H10V8.086L8.914,7H1.5V3.5Z" />
    <path class="light-defaultgrey-10" d="M6.05,7,1.5,3.5h13L9.364,7.45,8.914,7Z" />
    <path class="light-defaultgrey" d="M8.5,16H.5L0,15.5v-7L.5,8h8l.5.5v7ZM1,15H8V9H1Z" />
  </g>
</svg>
