<svg xmlns="http://www.w3.org/2000/svg" viewBox="0 0 16 16">
  <defs>
    <style>.canvas{fill: none; opacity: 0;}.light-defaultgrey-10{fill: #212121; opacity: 0.1;}.light-defaultgrey{fill: #212121; opacity: 1;}.cls-1{opacity:0.75;}</style>
  </defs>
  <title>IconLightMessageQueue</title>
  <g id="canvas">
    <path class="canvas" d="M16,16H0V0H16Z" />
  </g>
  <g id="level-1">
    <path class="light-defaultgrey-10" d="M1.5,12.5v-6h9v6Z" />
    <path class="light-defaultgrey" d="M10.5,6h-9L1,6.5v6l.5.5h9l.5-.5v-6ZM10,12H2V7h8Z" />
    <path class="light-defaultgrey" d="M6.277,9.916H5.723l-4.5-3L1,6.5,1.5,6h9l.5.5-.223.416ZM3.151,7,6,8.9,8.849,7Z" />
    <g class="cls-1">
      <path class="light-defaultgrey" d="M13,4.5v6l-.5.5H12V5H3V4.5L3.5,4h9Z" />
      <path class="light-defaultgrey" d="M15,2.5v6l-.5.5H14V3H5V2.5L5.5,2h9Z" />
    </g>
  </g>
</svg>
