<svg xmlns="http://www.w3.org/2000/svg" viewBox="0 0 16 16">
  <defs>
    <style>.canvas{fill: none; opacity: 0;}.light-defaultgrey{fill: #212121; opacity: 1;}.light-defaultgrey-10{fill: #212121; opacity: 0.1;}.light-yellow{fill: #996f00; opacity: 1;}.white{fill: #ffffff; opacity: 1;}.cls-1{opacity:0.75;}</style>
  </defs>
  <title>IconLightMessageQueueWarning</title>
  <g id="canvas">
    <path class="canvas" d="M16,16H0V0H16Z" />
    <path class="canvas" d="M16,16H0V0H16Z" />
    <path class="canvas" d="M16,16H0V0H16Z" />
  </g>
  <g id="level-1">
    <path class="light-defaultgrey" d="M6.277,9.916H5.723l-4.5-3L1,6.5,1.5,6h9l.5.5-.223.416ZM3.151,7,6,8.9,8.849,7Z" />
    <g class="cls-1">
      <path class="light-defaultgrey" d="M15,2.5v6l-.5.5H14V3H5V2.5L5.5,2h9ZM3.5,4,3,4.5V5h9V7h.53l.47.853V4.5L12.5,4Z" />
    </g>
    <path class="light-defaultgrey" d="M7.165,13H1.5L1,12.5v-6L1.5,6h9l.5.5V7h-.53L10,7.853V7H2v5H7.716Z" />
    <path class="light-defaultgrey-10" d="M7.44,12.5H1.5v-6h9V7h-.03Z" />
    <path class="light-yellow" d="M15.5,16h-8l-.439-.739,4-7.261h.878l4,7.261Z" />
    <path class="white" d="M12,13H11V10h1Zm.25,1.5a.75.75,0,1,1-.75-.75A.75.75,0,0,1,12.25,14.5Z" />
  </g>
</svg>
