<svg xmlns="http://www.w3.org/2000/svg" viewBox="0 0 16 16">
  <defs>
    <style>.canvas{fill: none; opacity: 0;}.light-defaultgrey-10{fill: #212121; opacity: 0.1;}.light-defaultgrey{fill: #212121; opacity: 1;}.light-red{fill: #c50b17; opacity: 1;}.white{fill: #ffffff; opacity: 1;}.cls-1{opacity:0.75;}</style>
  </defs>
  <title>IconLightMessageQueueError</title>
  <g id="canvas">
    <path class="canvas" d="M16,16H0V0H16Z" />
  </g>
  <g id="level-1">
    <path class="light-defaultgrey-10" d="M7.051,12.5H1.5v-6h9v.755A4.991,4.991,0,0,0,7,12,4.865,4.865,0,0,0,7.051,12.5Z" />
    <path class="light-defaultgrey" d="M7,12H2V7.434L5.723,9.916h.554l2.248-1.5A4.992,4.992,0,0,1,11,7.1V6.5L10.5,6h-9L1,6.5v6l.5.5H7.1A5,5,0,0,1,7,12ZM8.849,7,6,8.9,3.151,7Z" />
    <g class="cls-1">
      <path class="light-defaultgrey" d="M5,3V2.5L5.5,2h9l.5.5V8.026a4.967,4.967,0,0,0-1-.6V3Zm7,2V7a5,5,0,0,1,1,.1V4.5L12.5,4h-9L3,4.5V5Z" />
    </g>
    <path class="light-red" d="M12,8a4,4,0,1,0,4,4A4,4,0,0,0,12,8Z" />
    <path class="white" d="M12.707,12l1.147,1.146-.708.708L12,12.707l-1.146,1.147-.708-.708L11.293,12l-1.147-1.146.708-.708L12,11.293l1.146-1.147.708.708Z" />
  </g>
</svg>
