<svg xmlns="http://www.w3.org/2000/svg" viewBox="0 0 16 16">
  <defs>
    <style>.canvas{fill: none; opacity: 0;}.light-defaultgrey{fill: #212121; opacity: 1;}.white{fill: #ffffff; opacity: 1;}.light-darkblue{fill: #313c9e; opacity: 1;}.light-blue{fill: #005dba; opacity: 1;}</style>
  </defs>
  <title>MFCClassWizard</title>
  <g id="canvas">
    <path class="canvas" d="M16,16H0V0H16Z" />
  </g>
  <g id="level-1">
    <path class="light-defaultgrey" d="M0,10v6H6V10Zm7,0v6h6V10ZM5.53,7.79l-.05-.27L5.39,7.5l-.18-.03a1.347,1.347,0,0,1-.75-.4,1.376,1.376,0,0,1-.37-.57,1.3,1.3,0,0,1-.22.19,1.3,1.3,0,0,1-.83.3A.06.06,0,0,1,3,7H2.98a1.527,1.527,0,0,1-.95-.36,1.508,1.508,0,0,1-.5-.85l-.08-.4V5.37l-.14-.68-.7-.14-.4-.08A.83.83,0,0,1,0,4.41V9H6V8.61A1.476,1.476,0,0,1,5.53,7.79Z" />
    <path class="white" d="M1.45,5.39c.01.18.01.34.01.49V8.2H.61V4.55l.7.14.14.68ZM3.35,8.2l.52-1.51a1.3,1.3,0,0,1-.83.3c-.01.03-.01.07-.02.1H3A.292.292,0,0,0,2.98,7a1.527,1.527,0,0,1-.95-.36L2.58,8.2ZM4.46,7.07V8.2h.93V7.5l-.18-.03A1.347,1.347,0,0,1,4.46,7.07ZM2,15.2h.95V13.57H4.31V12.8H2.95V11.77H4.43V11H2Zm8.31-3.56a1.971,1.971,0,0,1,.97.25v-.91a3.174,3.174,0,0,0-1.04-.15,2.225,2.225,0,0,0-1.62.62A2.257,2.257,0,0,0,8,13.09a1.932,1.932,0,0,0,2.07,2.08,2.785,2.785,0,0,0,1.21-.22v-.86a1.987,1.987,0,0,1-1.02.26,1.22,1.22,0,0,1-.92-.36A1.335,1.335,0,0,1,9,13.02a1.4,1.4,0,0,1,.36-1.01A1.3,1.3,0,0,1,10.31,11.64Z" />
    <path class="light-darkblue" d="M.4,2.51l1.313-.263a.678.678,0,0,0,.532-.532L2.51.4a.5.5,0,0,1,.98,0l.263,1.313a.678.678,0,0,0,.532.532L5.6,2.51a.5.5,0,0,1,0,.98l-1.313.263a.678.678,0,0,0-.532.532L3.49,5.6a.5.5,0,0,1-.98,0L2.247,4.285a.678.678,0,0,0-.532-.532L.4,3.49a.5.5,0,0,1,0-.98Z" />
    <path class="light-blue" d="M5.4,5.51l.786-.157a.212.212,0,0,0,.165-.163L6.51,4.4a.5.5,0,0,1,.98,0l.157.786a.212.212,0,0,0,.163.165L8.6,5.51a.5.5,0,0,1,0,.98l-.786.157a.212.212,0,0,0-.165.163L7.49,7.6a.5.5,0,0,1-.98,0l-.157-.786a.212.212,0,0,0-.163-.165L5.4,6.49a.5.5,0,0,1,0-.98Z" />
  </g>
</svg>
