<svg xmlns="http://www.w3.org/2000/svg" viewBox="0 0 16 16">
  <defs>
    <style>.canvas{fill: none; opacity: 0;}.light-lightblue-10{fill: #0077a0; opacity: 0.1;}.light-lightblue{fill: #0077a0; opacity: 1;}.light-defaultgrey{fill: #212121; opacity: 1;}.white{fill: #ffffff; opacity: 1;}</style>
  </defs>
  <title>MFCDatabase</title>
  <g id="canvas">
    <path class="canvas" d="M16,16H0V0H16Z" />
  </g>
  <g id="level-1">
    <path class="light-lightblue-10" d="M10.04,1.5A10.585,10.585,0,0,0,6.67,2H7V9h7v3.72a.936.936,0,0,0,.54-.72V3C14.54,2.07,12.21,1.5,10.04,1.5Z" />
    <path class="light-lightblue" d="M10,1A8.163,8.163,0,0,0,5.59,2H7v.41A9.816,9.816,0,0,1,10,2c2.62,0,4,.74,4,1s-1.38,1-4,1a9.816,9.816,0,0,1-3-.41V4.64A11.861,11.861,0,0,0,10,5a9.495,9.495,0,0,0,4-.74.219.219,0,0,0,.05-.03c.1-.05.19-.11.27-.16a.583.583,0,0,0,.15-.11c.02-.02.05-.04.07-.06a.078.078,0,0,0,.04-.04,1.274,1.274,0,0,0,.31-.4.523.523,0,0,0,.06-.16A.789.789,0,0,0,15,3C15,1.63,12.41,1,10,1Zm4.95,2.3a.442.442,0,0,1-.06.16,1.274,1.274,0,0,1-.31.4c-.01.01-.02.03-.04.04v.01c-.02.01-.04.03-.07.05a.583.583,0,0,1-.15.11,1.749,1.749,0,0,1-.27.16.219.219,0,0,1-.05.03v8.99c.61-.31,1-.73,1-1.25V3A.789.789,0,0,1,14.95,3.3Z" />
    <path class="light-defaultgrey" d="M6,9H0V3H6Zm7,7H7V10h6ZM6,16H0V10H6Z" />
    <path class="white" d="M4.043,4H5.394V8.2H4.459V5.688q0-.408.035-.9H4.471a4.5,4.5,0,0,1-.132.557L3.354,8.2H2.581l-1-2.827a5.659,5.659,0,0,1-.132-.586H1.421q.037.621.038,1.09V8.2H.606V4H1.992l.859,2.49a3.518,3.518,0,0,1,.149.6h.018a5.739,5.739,0,0,1,.167-.607ZM2,15.2h.946V13.569H4.309V12.8H2.946V11.771H4.429V11H2Zm8.314-3.559a1.835,1.835,0,0,1,.961.252v-.911a3.009,3.009,0,0,0-1.037-.155,2.176,2.176,0,0,0-1.615.627A2.218,2.218,0,0,0,8,13.089,2.079,2.079,0,0,0,8.554,14.6a2.024,2.024,0,0,0,1.52.568,2.775,2.775,0,0,0,1.2-.222v-.865a1.962,1.962,0,0,1-1.013.27,1.21,1.21,0,0,1-.923-.361A1.356,1.356,0,0,1,9,13.022a1.381,1.381,0,0,1,.363-1.008A1.277,1.277,0,0,1,10.314,11.642Z" />
  </g>
</svg>
