<svg xmlns="http://www.w3.org/2000/svg" viewBox="0 0 16 16">
  <defs>
    <style>.canvas{fill: none; opacity: 0;}.light-defaultgrey{fill: #212121; opacity: 1;}.white{fill: #ffffff; opacity: 1;}.light-blue{fill: #005dba; opacity: 1;}</style>
  </defs>
  <title>MFCDynamicLibrary</title>
  <g id="canvas">
    <path class="canvas" d="M16,16H0V0H16Z" />
  </g>
  <g id="level-1">
    <path class="light-defaultgrey" d="M6,9H0V3H6Zm7,7H7V10h6ZM6,16H0V10H6Z" />
    <path class="white" d="M4.043,4H5.394V8.2H4.459V5.688q0-.408.035-.9H4.471a4.5,4.5,0,0,1-.132.557L3.354,8.2H2.581l-1-2.827a5.659,5.659,0,0,1-.132-.586H1.421q.037.621.038,1.09V8.2H.606V4H1.992l.859,2.49a3.518,3.518,0,0,1,.149.6h.018a5.739,5.739,0,0,1,.167-.607ZM2,15.2h.946V13.569H4.309V12.8H2.946V11.771H4.429V11H2Zm8.314-3.559a1.835,1.835,0,0,1,.961.252v-.911a3.009,3.009,0,0,0-1.037-.155,2.176,2.176,0,0,0-1.615.627A2.218,2.218,0,0,0,8,13.089,2.079,2.079,0,0,0,8.554,14.6a2.024,2.024,0,0,0,1.52.568,2.775,2.775,0,0,0,1.2-.222v-.865a1.962,1.962,0,0,1-1.013.27,1.21,1.21,0,0,1-.923-.361A1.356,1.356,0,0,1,9,13.022a1.381,1.381,0,0,1,.363-1.008A1.277,1.277,0,0,1,10.314,11.642Z" />
    <path class="light-blue" d="M14.854,3.146v.708l-2,2-.708-.708L13.293,4H8.707L9.854,5.146l-.708.708-2-2V3.146l2-2,.708.708L8.707,3h4.586L12.146,1.854l.708-.708Z" />
  </g>
</svg>
