<svg xmlns="http://www.w3.org/2000/svg" viewBox="0 0 16 16">
  <defs>
    <style>.canvas{fill: none; opacity: 0;}.light-defaultgrey-10{fill: #212121; opacity: 0.1;}.light-defaultgrey{fill: #212121; opacity: 1;}.white{fill: #ffffff; opacity: 1;}.cls-1{opacity:0.75;}</style>
  </defs>
  <title>IconLightMFCLibrary</title>
  <g id="canvas">
    <path class="canvas" d="M16,0V16H0V0Z" />
  </g>
  <g id="level-1">
    <g class="cls-1">
      <path class="light-defaultgrey-10" d="M6.5,2V.5h2V9H7V2ZM14,9v2.481l1.389-.373L12.542.483,10.611,1l2.143,8ZM4.5,2V.5h-2V2Z" />
      <path class="light-defaultgrey" d="M6,2V.5L6.5,0h2L9,.5V9H8V1H7V2ZM13.025.354,12.412,0,10.48.518l-.353.613L12.236,9h1.036L11.223,1.354l.965-.258,2.589,9.659L14,10.963V12l1.52-.407.353-.613ZM3,2V1H4V2H5V.5L4.5,0h-2L2,.5V2Z" />
    </g>
    <path class="light-defaultgrey" d="M6,9H0V3H6Zm7,7H7V10h6ZM6,16H0V10H6Z" />
    <path class="white" d="M5.394,8.2H4.459V5.688q0-.408.035-.9H4.471a4.462,4.462,0,0,1-.132.557L3.354,8.2H2.581l-1-2.827a5.84,5.84,0,0,1-.132-.586H1.421c.025.414.037.777.038,1.09V8.2H.606V4H1.992l.859,2.49A3.532,3.532,0,0,1,3,7.09h.018a5.8,5.8,0,0,1,.167-.607L4.043,4H5.394Z" />
    <path class="white" d="M4.429,11.771H2.946V12.8H4.309v.767H2.946V15.2H2V11H4.429Z" />
    <path class="white" d="M11.275,14.95a2.776,2.776,0,0,1-1.2.222,2.023,2.023,0,0,1-1.52-.568A2.083,2.083,0,0,1,8,13.089a2.216,2.216,0,0,1,.623-1.634,2.172,2.172,0,0,1,1.615-.627,3.019,3.019,0,0,1,1.037.155v.911a1.833,1.833,0,0,0-.961-.252,1.276,1.276,0,0,0-.955.372A1.38,1.38,0,0,0,9,13.022a1.354,1.354,0,0,0,.343.972,1.209,1.209,0,0,0,.923.361,1.96,1.96,0,0,0,1.013-.27Z" />
  </g>
</svg>
