<svg xmlns="http://www.w3.org/2000/svg" viewBox="0 0 16 16">
  <defs>
    <style>.canvas{fill: none; opacity: 0;}.light-defaultgrey{fill: #212121; opacity: 1;}.light-defaultgrey-10{fill: #212121; opacity: 0.1;}.cls-1{opacity:0.75;}</style>
  </defs>
  <title>IconLightMicrophoneTalking</title>
  <g id="canvas">
    <path class="canvas" d="M16,16H0V0H16Z" />
  </g>
  <g id="level-1">
    <g class="cls-1">
      <path class="light-defaultgrey" d="M12.411,2.663a3.486,3.486,0,0,1-.006,3.886L11.68,5.8v0a2.407,2.407,0,0,0-.02-2.433ZM3.859,1.977l-.737-.692A5.462,5.462,0,0,0,3.186,8L3.9,7.268a4.419,4.419,0,0,1-.041-5.291Zm.73.69A3.485,3.485,0,0,0,4.6,6.547L5.32,5.8a2.407,2.407,0,0,1,.02-2.433Zm9.289-1.382-.005,0-.737.692a4.424,4.424,0,0,1-.038,5.29L13.814,8A5.462,5.462,0,0,0,13.878,1.285Z" />
    </g>
    <path class="light-defaultgrey-10" d="M8.5,10a2,2,0,0,1-2-2V3.5a2,2,0,0,1,4,0V8A2,2,0,0,1,8.5,10Z" />
    <path class="light-defaultgrey" d="M8.5,10.5A2.5,2.5,0,0,0,11,8V3.5a2.5,2.5,0,0,0-5,0V8A2.5,2.5,0,0,0,8.5,10.5ZM7,3.5a1.5,1.5,0,0,1,3,0V8A1.5,1.5,0,0,1,7,8Zm2,8.972V14h2v1H6V14H8V12.472A4.5,4.5,0,0,1,4,8H5a3.5,3.5,0,0,0,7,0h1A4.5,4.5,0,0,1,9,12.472Z" />
  </g>
</svg>
