<svg xmlns="http://www.w3.org/2000/svg" viewBox="0 0 16 16">
  <defs>
    <style>.canvas{fill: none; opacity: 0;}.light-defaultgrey-10{fill: #212121; opacity: 0.1;}.light-defaultgrey{fill: #212121; opacity: 1;}.light-red{fill: #c50b17; opacity: 1;}.cls-1{opacity:0.75;}</style>
  </defs>
  <title>MissingFolderClosed</title>
  <g id="canvas">
    <path class="canvas" d="M16,16H0V0H16Z" />
  </g>
  <g id="level-1">
    <g class="cls-1">
      <path class="light-defaultgrey-10" d="M10.879,13H1V2H8V3h7V8.879l-2,2L10.854,8.732,8.732,10.854Z" />
      <path class="light-defaultgrey" d="M1,10H2v1H1Zm0,3H2V12H1ZM11,3H10V4h1ZM1,9H2V8H1ZM1,7H2V6H1ZM1,5H2V4H1ZM13,3H12V4h1Zm2,2H14V6h1Zm0-2H14V4h1Zm0,4H14V8h1Zm-.121,2H14v.879ZM10,12.121,9.879,12H9v1h1ZM7,5H8V4H7Zm0,8H8V12H7ZM1,3H2V2H1ZM9,3H8V4H9ZM7,2V3H8V2ZM5,3H6V2H5ZM3,5H4V4H3ZM5,5H6V4H5ZM3,13H4V12H3ZM3,3H4V2H3ZM5,13H6V12H5Z" />
    </g>
    <path class="light-red" d="M13.707,13l2.147,2.146-.708.708L13,13.707l-2.146,2.147-.708-.708L12.293,13l-2.147-2.146.708-.708L13,12.293l2.146-2.147.708.708Z" />
  </g>
</svg>
