<svg xmlns="http://www.w3.org/2000/svg" viewBox="0 0 16 16">
  <defs>
    <style>.canvas{fill: none; opacity: 0;}.light-defaultgrey-10{fill: #212121; opacity: 0.1;}.light-defaultgrey{fill: #212121; opacity: 1;}.light-green{fill: #1f801f; opacity: 1;}</style>
  </defs>
  <title>IconLightMockupComponentGreen</title>
  <g id="canvas">
    <path class="canvas" d="M16,16H0V0H16Z" />
  </g>
  <g id="level-1">
    <path class="light-defaultgrey-10" d="M4.208,13.5,2.5,11.79V4.209L4.235,2.5h7.558L13.5,4.207v7.586L11.793,13.5Z" />
    <path class="light-defaultgrey" d="M12,2H4.031L2,4v8l2,2h8l2-2V4Zm1,9.586L11.586,13H4.415L3,11.583V4.418L4.44,3h7.146L13,4.414Z" />
    <path class="light-green" d="M9.5,12a.494.494,0,0,1-.277-.084.5.5,0,0,1-.139-.693l.767-1.15L6.757,11.929a.5.5,0,0,1-.641-.749L8.627,8.167l-3.836,2.74a.5.5,0,0,1-.675-.727L7.227,6.447,4.757,7.929a.5.5,0,0,1-.673-.706L5.04,5.789l-.316.158a.5.5,0,0,1-.448-.894l2-1a.5.5,0,0,1,.64.724l-.767,1.15L9.243,4.071a.5.5,0,0,1,.641.749L7.373,7.833l3.836-2.74a.5.5,0,0,1,.675.727L8.773,9.553l2.47-1.482a.5.5,0,0,1,.673.706l-2,3A.5.5,0,0,1,9.5,12Z" />
  </g>
</svg>
