<svg xmlns="http://www.w3.org/2000/svg" viewBox="0 0 16 16">
  <defs>
    <style>.canvas{fill: none; opacity: 0;}.light-purple-10{fill: #6936aa; opacity: 0.1;}.light-purple{fill: #6936aa; opacity: 1;}.light-defaultgrey-10{fill: #212121; opacity: 0.1;}.light-defaultgrey{fill: #212121; opacity: 1;}.cls-1{opacity:0.75;}</style>
  </defs>
  <title>IconLightModifyMethodTrivial</title>
  <g id="canvas" class="canvas">
    <path class="canvas" d="M16,16H0V0H16Z" />
  </g>
  <g id="level-1">
    <g class="cls-1">
      <path class="light-purple-10" d="M7,8.142v4.281L6,13,1.5,10.4V5.189L6.009,2.4,10.5,5.189V7.056H8.086Zm3-2.087V7H8.363" />
      <path class="light-purple" d="M10.764,4.765,6.273,1.97H5.746l-4.509,2.8L1,5.189V10.4l.25.433,4.5,2.6h.5L7,13V11.845l-.5.289,0-4.059L10,6.055v1h1V5.189ZM6.009,2.983l3.52,2.191L6,7.21,2.474,5.174ZM2,10.113V6.056l3.5,2.02,0,4.058Z" />
    </g>
    <path class="light-purple-10" d="M6.009,2.4,10.5,5.189,6,7.787l-4.5-2.6Z" />
    <path class="light-purple" d="M5.753,8.221l-4.5-2.6-.013-.858L5.746,1.97h.527l4.491,2.8-.014.857-4.5,2.6ZM2.474,5.174,6,7.21,9.528,5.174,6.009,2.983Z" />
    <path class="light-defaultgrey-10" d="M15.5,8.556v5h-3l-2,2.1v-2.1h-2v-5Z" />
    <path class="light-defaultgrey" d="M15.5,8.056h-7l-.5.5v5l.5.5H10v1.6l.862.345,1.852-1.944H15.5l.5-.5v-5Zm-.5,5H12.5l-.362.155L11,14.405v-.849l-.5-.5H9v-4h6Z" />
  </g>
</svg>
