<svg xmlns="http://www.w3.org/2000/svg" viewBox="0 0 16 16">
  <defs>
    <style>.canvas{fill: none; opacity: 0;}.light-blue-10{fill: #005dba; opacity: 0.1;}.light-blue{fill: #005dba; opacity: 1;}.light-defaultgrey-10{fill: #212121; opacity: 0.1;}.light-defaultgrey{fill: #212121; opacity: 1;}.cls-1{opacity:0.75;}</style>
  </defs>
  <title>IconLightModifyFieldTrivial</title>
  <g id="canvas" class="canvas">
    <path class="canvas" d="M16,16H0V0H16Z" />
  </g>
  <g id="level-1">
    <g class="cls-1">
      <path class="light-blue-10" d="M13.5,5.308,9.808,1.629,1.5,6.244V10.4L5.192,14.09l1.808-1V8.142L8.085,7.008,13.5,7Z" />
      <path class="light-blue" d="M5.692,13.241,7,12.515v1.144l-1.565.869-.6-.084L1.146,10.752,1,10.4V6.244l.257-.437.1-.056-.1.726L2,7.221v2.97l2.692,2.692V9.913l.2.2.586.082.215-.119Zm8.162-8.273-.089-.089-.108.771L13,6.015v.993h1V5.321Z" />
    </g>
    <path class="light-blue-10" d="M7,8.786l-1.761.978L1.6,6.129,9.783,1.584,13.419,5.22,10.175,7.008H8.085L7,8.142Z" />
    <path class="light-blue" d="M13.766,4.879l-.108.771L13,6.015l-1.874.993H9.1l3.489-1.89.02-.012L9.7,2.194,2.412,6.242l.043.044L5.324,9.154,7,8.223V9.348l-1.308.727-.215.119-.587-.082-.2-.2L2,7.221l-.745-.744.1-.726,8.208-4.56.6.084Z" />
    <path class="light-defaultgrey-10" d="M15.5,8.556v5h-3l-2,2.1v-2.1h-2v-5Z" />
    <path class="light-defaultgrey" d="M15.5,8.008h-7l-.5.5v5l.5.5H10v1.6l.862.345,1.852-1.944H15.5l.5-.5v-5Zm-.5,5H12.5l-.362.155L11,14.357v-.849l-.5-.5H9v-4h6Z" />
  </g>
</svg>
