<svg xmlns="http://www.w3.org/2000/svg" viewBox="0 0 16 16">
  <defs>
    <style>.canvas{fill: none; opacity: 0;}.light-defaultgrey-10{fill: #212121; opacity: 0.1;}.light-defaultgrey{fill: #212121; opacity: 1;}.cls-1{opacity:0.75;}</style>
  </defs>
  <title>IconLightModifyProperty</title>
  <g id="canvas" class="canvas">
    <path class="canvas" d="M16,16H0V0H16Z" />
  </g>
  <g id="level-1">
    <g class="cls-1">
      <path class="light-defaultgrey-10" d="M8,8.451c-1.883,1.894-4.507,4.5-5.92,5.816-.861.75-2.077-.651-1.418-1.4,1.335-1.4,3.981-4.026,5.875-5.874A3.924,3.924,0,0,0,8,8.451Z" />
      <path class="light-defaultgrey" d="M8.475,8.679c-1.83,1.842-4.561,4.56-6.057,5.954a1.352,1.352,0,0,1-.892.346,1.5,1.5,0,0,1-1.056-.47,1.444,1.444,0,0,1-.187-1.973c1.383-1.448,4.122-4.167,6.022-6.018a3.9,3.9,0,0,0,.506.9c-1.858,1.817-4.466,4.408-5.791,5.8-.134.153.009.441.158.591a.4.4,0,0,0,.57.087C3.173,12.563,5.755,10,7.567,8.174A4,4,0,0,0,8.475,8.679Z" />
    </g>
    <path class="light-defaultgrey" d="M6,5a3.961,3.961,0,0,1,4-4,4.19,4.19,0,0,1,1.441.241L8.559,4.2,10.8,6.441l2.959-2.882A4.19,4.19,0,0,1,14,5a4.043,4.043,0,0,1-.241,1.343,2.718,2.718,0,0,0-1.452.757L10.45,8.956A4.155,4.155,0,0,1,10,9,3.961,3.961,0,0,1,6,5Z" />
    <path class="light-defaultgrey-10" d="M15.135,9.928l-4.714,4.714-2.652.884.884-2.652L13.367,8.16a1.25,1.25,0,1,1,1.768,1.768Z" />
    <path class="light-defaultgrey" d="M15.488,7.806a1.753,1.753,0,0,0-2.475,0L8.3,12.52l-.121.2L7.3,15.367,7.927,16l2.652-.884L10.774,15l4.714-4.714A1.751,1.751,0,0,0,15.488,7.806Zm-5.337,6.4-.125.041-.978-.977.042-.125,4.631-4.63a.75.75,0,0,1,1.06,1.06Z" />
  </g>
</svg>
