<svg xmlns="http://www.w3.org/2000/svg" viewBox="0 0 16 16">
  <defs>
    <style>.canvas{fill: none; opacity: 0;}.light-purple-10{fill: #6936aa; opacity: 0.1;}.light-purple{fill: #6936aa; opacity: 1;}.light-defaultgrey-10{fill: #212121; opacity: 0.1;}.light-defaultgrey{fill: #212121; opacity: 1;}.cls-1{opacity:0.75;}</style>
  </defs>
  <title>IconLightModifyMethod</title>
  <g id="canvas" class="canvas">
    <path class="canvas" d="M16,16H0V0H16Z" />
  </g>
  <g id="level-1">
    <g class="cls-1">
      <path class="light-purple-10" d="M7.126,12.35,6,13,1.5,10.4V5.189L6.009,2.4,10.5,5.189V8c-.17,0-.5.036-.5.036v1.37L8.327,11.079l-1.3.754S7.08,12.174,7.126,12.35Z" />
      <path class="light-purple" d="M10.765,4.765,6.274,1.97H5.746l-4.51,2.8L1,5.189V10.4l.25.433,4.5,2.6h.5l.786-.454.231-.691.244-.392.816-.817L6.5,12.134l0-4.059L10,6.055V9.406l1-1V5.189ZM6.009,2.983l3.52,2.191L6,7.21,2.474,5.174ZM2,10.113V6.056l3.5,2.02,0,4.059Z" />
    </g>
    <path class="light-purple-10" d="M6.009,2.4,10.5,5.189,6,7.787l-4.5-2.6Z" />
    <path class="light-purple" d="M5.754,8.221l-4.5-2.6-.014-.858L5.746,1.97h.528l4.491,2.8-.015.857-4.5,2.6ZM2.474,5.174,6,7.21,9.528,5.174,6.009,2.983Z" />
    <path class="light-defaultgrey-10" d="M15.135,9.928l-4.714,4.714-2.652.884.884-2.652L13.367,8.16a1.25,1.25,0,1,1,1.768,1.768Z" />
    <path class="light-defaultgrey" d="M15.488,7.806a1.753,1.753,0,0,0-2.475,0L8.3,12.52l-.121.2L7.3,15.367,7.927,16l2.652-.884L10.774,15l4.714-4.714A1.751,1.751,0,0,0,15.488,7.806Zm-5.337,6.4-.125.041-.978-.977.042-.125,4.631-4.63a.75.75,0,0,1,1.06,1.06Z" />
  </g>
</svg>
