<svg xmlns="http://www.w3.org/2000/svg" viewBox="0 0 16 16">
  <defs>
    <style>.canvas{fill: none; opacity: 0;}.light-purple-10{fill: #6936aa; opacity: 0.1;}.light-purple{fill: #6936aa; opacity: 1;}.light-defaultgrey-10{fill: #212121; opacity: 0.1;}.light-defaultgrey{fill: #212121; opacity: 1;}.cls-1{opacity:0.75;}</style>
  </defs>
  <title>IconLightModuleSealed</title>
  <g id="canvas" class="canvas">
    <path class="canvas" d="M16,16H0V0H16Z" />
  </g>
  <g id="level-1">
    <g class="cls-1">
      <path class="light-purple-10" d="M8.49,14.5H1.5v-5H9.17a4.391,4.391,0,0,0-.68,5Z" />
      <path class="light-purple" d="M8.762,15H1.5L1,14.5v-5L1.5,9H9.706a4.5,4.5,0,0,0-.944,1H2v4H8.276A4.493,4.493,0,0,0,8.762,15Z" />
    </g>
    <path class="light-purple-10" d="M1.5,2.5h5v5h-5Zm7,0v5h5v-5Z" />
    <path class="light-purple" d="M1.5,2,1,2.5v5l.5.5h5L7,7.5v-5L6.5,2ZM6,7H2V3H6Zm7.5-5h-5L8,2.5v5l.5.5h5l.5-.5v-5ZM13,7H9V3h4Z" />
    <path class="light-defaultgrey-10" d="M12.5,9.5a3,3,0,1,1-3,3A3,3,0,0,1,12.5,9.5Z" />
    <path class="light-defaultgrey" d="M9,12.5A3.5,3.5,0,1,0,12.5,9,3.5,3.5,0,0,0,9,12.5Zm6,0a2.486,2.486,0,0,1-.416,1.377l-3.461-3.461A2.5,2.5,0,0,1,15,12.5Zm-5,0a2.486,2.486,0,0,1,.416-1.377l3.461,3.461A2.5,2.5,0,0,1,10,12.5Z" />
  </g>
</svg>
