<svg xmlns="http://www.w3.org/2000/svg" viewBox="0 0 16 16">
  <defs>
    <style>.canvas{fill: none; opacity: 0;}.light-defaultgrey-10{fill: #212121; opacity: 0.1;}.light-defaultgrey{fill: #212121; opacity: 1;}.cls-1{opacity:0.75;}</style>
  </defs>
  <title>MSMQConnection</title>
  <g id="canvas">
    <path class="canvas" d="M16,16H0V0H16Z" />
  </g>
  <g id="level-1">
    <path class="light-defaultgrey-10" d="M2.5,11.5v-6h9v6Z" />
    <g class="cls-1">
      <path class="light-defaultgrey-10" d="M12,5.5,11.5,5h-6V2.5h9v6H12Z" />
      <path class="light-defaultgrey" d="M12,8h2V3H6V5H5V2.5L5.5,2h9l.5.5v6l-.5.5H12Z" />
    </g>
    <path class="light-defaultgrey" d="M6.5,12v1l-.5.5V14H2v1H12V14H8v-.5L7.5,13V12h4l.5-.5v-6L11.5,5h-9L2,5.5v6l.5.5ZM9.849,6,7,7.9,4.151,6ZM3,11V6.434L6.723,8.916h.554L11,6.434V11Z" />
  </g>
</svg>
