<svg xmlns="http://www.w3.org/2000/svg" viewBox="0 0 16 16">
  <defs>
    <style>.canvas{fill: none; opacity: 0;}.light-defaultgrey-10{fill: #212121; opacity: 0.1;}.light-blue{fill: #005dba; opacity: 1;}.light-defaultgrey{fill: #212121; opacity: 1;}.light-red{fill: #c50b17; opacity: 1;}.white{fill: #ffffff; opacity: 1;}</style>
  </defs>
  <title>MultipleOutputExcluded</title>
  <g id="canvas">
    <path class="canvas" d="M16,16H0V0H16Z" />
  </g>
  <g id="level-1">
    <path class="light-defaultgrey-10" d="M5,1V3h6V1Z" />
    <path class="light-blue" d="M12.85,2.15l-.7.7L13.29,4H8V5h5.29L12.15,6.15l.7.7,2-2v-.7Z" />
    <path class="light-defaultgrey-10" d="M6,10v2H1V5H7V7H3v3Z" />
    <path class="light-defaultgrey" d="M11,.5V3H10V1H5V3H4V.5L4.5,0h6ZM.5,4,0,4.5v8l.5.5h6l.5-.5V10H6v2H1V5H6V7H7V4.5L6.5,4Z" />
    <path class="light-blue" d="M8.85,6.15l-.7.7L9.17,7.88a4.755,4.755,0,0,1,.91-.5ZM4,9H8A5.262,5.262,0,0,1,9,8H4Z" />
    <path class="light-red" d="M12,8a4,4,0,1,0,4,4A4,4,0,0,0,12,8Z" />
    <path class="white" d="M14,12.5H10v-1h4Z" />
  </g>
</svg>
