<svg xmlns="http://www.w3.org/2000/svg" viewBox="0 0 16 16">
  <defs>
    <style>.canvas{fill: none; opacity: 0;}.light-defaultgrey-10{fill: #212121; opacity: 0.1;}.light-defaultgrey{fill: #212121; opacity: 1;}</style>
  </defs>
  <title>IconLightMultiScaleImage</title>
  <g id="canvas">
    <path class="canvas" d="M16,0V16H0V0Z" />
  </g>
  <g id="level-1">
    <path class="light-defaultgrey-10" d="M1.5,6.5v8h11v-8Z" />
    <path class="light-defaultgrey-10" d="M14.5,1.5v6H14V6.086L12.914,5H8.5V1.5Z" />
    <path class="light-defaultgrey" d="M12.5,6H1.5L1,6.5v8l.5.5h11l.5-.5v-8ZM12,14H2V7H12Z" />
    <path class="light-defaultgrey" d="M4,9H3V8H4Zm0,1H3v1H4Zm0,2H3v1H4ZM6,8H5V9H6Zm0,2H5v1H6ZM7,9H6v1H7ZM8,8H7V9H8ZM5,9H4v1H5Zm0,2H4v1H5Z" />
    <path class="light-defaultgrey" d="M15,1.5v6l-.5.5H14V2H9V5H8V1.5L8.5,1h6Z" />
    <path class="light-defaultgrey" d="M11,4H10V3h1Zm2-1H12V4h1ZM12,4H11V5h1Z" />
  </g>
</svg>
