<svg xmlns="http://www.w3.org/2000/svg" viewBox="0 0 16 16">
  <defs>
    <style>.canvas{fill: none; opacity: 0;}.light-red-10{fill: #c50b17; opacity: 0.1;}.light-red{fill: #c50b17; opacity: 1;}.light-defaultgrey-10{fill: #212121; opacity: 0.1;}.light-defaultgrey{fill: #212121; opacity: 1;}</style>
  </defs>
  <title>IconLightMuteMicrophone</title>
  <g id="canvas">
    <path class="canvas" d="M16,16H0V0H16Z" />
  </g>
  <g id="level-1">
    <path class="light-red-10" d="M12,8.5A3.5,3.5,0,1,1,8.5,12,3.5,3.5,0,0,1,12,8.5Z" />
    <path class="light-red" d="M12,8a4,4,0,1,0,4,4A4,4,0,0,0,12,8Zm3,4a2.97,2.97,0,0,1-.56,1.733L10.267,9.56A2.97,2.97,0,0,1,12,9,3,3,0,0,1,15,12ZM9,12a2.97,2.97,0,0,1,.56-1.733l4.173,4.173A2.97,2.97,0,0,1,12,15,3,3,0,0,1,9,12Z" />
    <path class="light-defaultgrey-10" d="M5.5,10a2,2,0,0,1-2-2V3.5a2,2,0,0,1,4,0V8A2,2,0,0,1,5.5,10Z" />
    <path class="light-defaultgrey" d="M7.424,14H6V12.472a4.418,4.418,0,0,0,1.022-.252c0-.074-.022-.145-.022-.22a4.937,4.937,0,0,1,.091-.9A3.474,3.474,0,0,1,2,8H1a4.5,4.5,0,0,0,4,4.472V14H3v1H8v-.031A5,5,0,0,1,7.424,14Z" />
    <path class="light-defaultgrey" d="M5.5,10.5A2.5,2.5,0,0,0,8,8V3.5a2.5,2.5,0,0,0-5,0V8A2.5,2.5,0,0,0,5.5,10.5ZM4,3.5a1.5,1.5,0,0,1,3,0V8A1.5,1.5,0,0,1,4,8Z" />
  </g>
</svg>
