<svg xmlns="http://www.w3.org/2000/svg" viewBox="0 0 16 16">
  <defs>
    <style>.canvas{fill: none; opacity: 0;}.light-defaultgrey{fill: #212121; opacity: 1;}</style>
  </defs>
  <title>IconLightNamedSet</title>
  <g id="canvas">
    <path class="canvas" d="M16,16H0V0H16Z" />
  </g>
  <g id="level-1">
    <path class="light-defaultgrey" d="M4.9,2,5,2v.9l-.092,0a.943.943,0,0,0-.745.332,1.784,1.784,0,0,0-.229,1.025V6.23A1.741,1.741,0,0,1,3.05,8.016c.57.2.887.819.887,1.8v1.89a3.491,3.491,0,0,0,.053.646,1.072,1.072,0,0,0,.165.417.7.7,0,0,0,.289.24,1.256,1.256,0,0,0,.464.088L5,13.1V14l-.1,0a2.08,2.08,0,0,1-1.479-.538,2.191,2.191,0,0,1-.5-1.577v-2a1.948,1.948,0,0,0-.249-1.079A.913.913,0,0,0,1.966,8.4L1.878,8.39V7.61L1.966,7.6c.644-.07.958-.541.958-1.438V4.132a2.21,2.21,0,0,1,.5-1.586A2.063,2.063,0,0,1,4.9,2Zm9.131,5.6c-.64-.063-.951-.533-.951-1.438V4.132a2.209,2.209,0,0,0-.5-1.591A2.074,2.074,0,0,0,11.1,2L11,2v.9l.093,0A1.357,1.357,0,0,1,11.534,3a.681.681,0,0,1,.29.218,1.156,1.156,0,0,1,.181.408,2.779,2.779,0,0,1,.064.644V6.23c0,.95.319,1.559.892,1.754a1.8,1.8,0,0,0-.892,1.833v1.89a3.181,3.181,0,0,1-.061.675,1.069,1.069,0,0,1-.177.416.683.683,0,0,1-.29.219,1.3,1.3,0,0,1-.443.081l-.1,0V14l.1,0a2.074,2.074,0,0,0,1.478-.538,2.188,2.188,0,0,0,.5-1.577v-2c0-.929.311-1.415.951-1.485l.088-.009V7.609ZM6,9.25a.75.75,0,1,0,.75.75A.75.75,0,0,0,6,9.25Zm4,0a.75.75,0,1,0,.75.75A.75.75,0,0,0,10,9.25Z" />
  </g>
</svg>
