<svg xmlns="http://www.w3.org/2000/svg" viewBox="0 0 16 16">
  <defs>
    <style>.canvas{fill: none; opacity: 0;}.light-defaultgrey{fill: #212121; opacity: 1;}.light-defaultgrey-10{fill: #212121; opacity: 0.1;}</style>
  </defs>
  <title>IconLightNamespaceShortcut</title>
  <g id="canvas" class="canvas">
    <path class="canvas" d="M16,16H0V0H16Z" />
  </g>
  <g id="level-1">
    <path class="light-defaultgrey" d="M11.092,2.909,11,2.9V2l.1,0a2.062,2.062,0,0,1,1.478.543,2.206,2.206,0,0,1,.5,1.586V6.163A2.051,2.051,0,0,0,13.238,7H12.166a3,3,0,0,1-.1-.77V4.266a1.784,1.784,0,0,0-.229-1.025A.94.94,0,0,0,11.092,2.909ZM4.9,2,5,2v.9l-.092,0a.94.94,0,0,0-.745.332,1.784,1.784,0,0,0-.229,1.025V6.23a1.741,1.741,0,0,1-.888,1.786c.57.2.888.819.888,1.8v1.89a3.406,3.406,0,0,0,.053.646,1.071,1.071,0,0,0,.164.417.7.7,0,0,0,.29.24A1.246,1.246,0,0,0,4.9,13.1l.1,0V14l-.1,0a2.079,2.079,0,0,1-1.478-.538,2.187,2.187,0,0,1-.5-1.577v-2a1.948,1.948,0,0,0-.249-1.079A.914.914,0,0,0,1.963,8.4L1.875,8.39V7.61L1.962,7.6c.645-.07.959-.541.959-1.438V4.132a2.206,2.206,0,0,1,.5-1.586A2.062,2.062,0,0,1,4.9,2Z" />
    <path class="light-defaultgrey-10" d="M15.5,8.5v7h-7v-7Z" />
    <path class="light-defaultgrey" d="M15.5,8h-7L8,8.5v7l.5.5h7l.5-.5v-7ZM15,15H9V9h6Zm-1-4.5V14H13V11.707l-2.646,2.647-.708-.708L12.293,11H10V10h3.5Z" />
  </g>
</svg>
