<svg xmlns="http://www.w3.org/2000/svg" viewBox="0 0 16 16">
  <defs>
    <style>.canvas{fill: none; opacity: 0;}.light-defaultgrey-10{fill: #212121; opacity: 0.1;}.light-defaultgrey{fill: #212121; opacity: 1;}.cls-1{opacity:0.75;}</style>
  </defs>
  <title>IconLightNeighborhoodBrowseMode</title>
  <g id="canvas">
    <path class="canvas" d="M16,0V16H0V0Z" />
  </g>
  <g id="level-1">
    <path class="light-defaultgrey-10" d="M12.5,13.5h1a1,1,0,0,1,1,1h0a1,1,0,0,1-1,1h-1a1,1,0,0,1-1-1h0A1,1,0,0,1,12.5,13.5Z" />
    <path class="light-defaultgrey-10" d="M12.5,7.5h1a1,1,0,0,1,1,1h0a1,1,0,0,1-1,1h-1a1,1,0,0,1-1-1h0A1,1,0,0,1,12.5,7.5Z" />
    <path class="light-defaultgrey-10" d="M4.5,10.5h2a1,1,0,0,1,1,1h0a1,1,0,0,1-1,1h-2a1,1,0,0,1-1-1h0A1,1,0,0,1,4.5,10.5Z" />
    <path class="light-defaultgrey-10" d="M4.5,3.5h2a1,1,0,0,1,1,1h0a1,1,0,0,1-1,1h-2a1,1,0,0,1-1-1h0A1,1,0,0,1,4.5,3.5Z" />
    <g class="cls-1">
      <path class="light-defaultgrey-10" d="M9.5,1.5v13h-8V1.5Z" />
      <path class="light-defaultgrey" d="M9.5,1h-8L1,1.5v13l.5.5h8l.5-.5V1.5ZM9,14H2V2H9Z" />
    </g>
    <path class="light-defaultgrey" d="M13.5,13h-1a1.5,1.5,0,0,0-1.334.828l-3.5-1.4a1.469,1.469,0,0,0,0-1.858l3.5-1.4A1.5,1.5,0,0,0,12.5,10h1a1.5,1.5,0,0,0,0-3h-1a1.5,1.5,0,0,0-1.452,1.142L6.4,10H6V6h.5a1.5,1.5,0,0,0,0-3h-2a1.5,1.5,0,0,0,0,3H5v4H4.5a1.5,1.5,0,0,0,0,3H6.4l4.644,1.858A1.5,1.5,0,0,0,12.5,16h1a1.5,1.5,0,0,0,0-3Zm-9-8a.5.5,0,0,1,0-1h2a.5.5,0,0,1,0,1Zm8,3h1a.5.5,0,0,1,0,1h-1a.5.5,0,0,1,0-1ZM4,11.5a.5.5,0,0,1,.5-.5h2a.5.5,0,0,1,0,1h-2A.5.5,0,0,1,4,11.5ZM13.5,15h-1a.5.5,0,0,1,0-1h1a.5.5,0,0,1,0,1Z" />
  </g>
</svg>
