<svg xmlns="http://www.w3.org/2000/svg" viewBox="0 0 16 16">
  <defs>
    <style>.canvas{fill: none; opacity: 0;}.light-blue-10{fill: #005dba; opacity: 0.1;}.light-defaultgrey-10{fill: #212121; opacity: 0.1;}.light-defaultgrey{fill: #212121; opacity: 1;}.light-blue{fill: #005dba; opacity: 1;}</style>
  </defs>
  <title>IconLightNestedTable</title>
  <g id="canvas" class="canvas">
    <path class="canvas" d="M16,16H0V0H16Z" />
  </g>
  <g id="level-1">
    <path class="light-blue-10" d="M15.5,8.5v6h-8v-6Z" />
    <path class="light-defaultgrey-10" d="M6,12.5H1.5V1.5h12V7H6Z" />
    <path class="light-defaultgrey" d="M6,7h8V1.5L13.5,1H1.5L1,1.5v11l.5.5H6ZM9,6H6V4H9Zm4,0H10V4h3ZM2,2H13V3H2ZM5,12H2V10H5ZM5,9H2V7H5ZM5,6H2V4H5Z" />
    <path class="light-blue" d="M15.5,8h-8L7,8.5v6l.5.5h8l.5-.5v-6ZM8,9h3v2H8Zm0,5V12h3v2Zm7,0H12V12h3Zm0-3H12V9h3Z" />
  </g>
</svg>
