<svg xmlns="http://www.w3.org/2000/svg" viewBox="0 0 16 16">
  <defs>
    <style>.canvas{fill: none; opacity: 0;}.light-defaultgrey{fill: #212121; opacity: 1;}.light-defaultgrey-10{fill: #212121; opacity: 0.1;}.light-green{fill: #1f801f; opacity: 1;}.cls-1{opacity:0.75;}</style>
  </defs>
  <title>NestSelectedTreeView</title>
  <g id="canvas">
    <path class="canvas" d="M16,0V16H0V0Z" />
  </g>
  <g id="level-1">
    <g class="cls-1">
      <path class="light-defaultgrey" d="M9.12,12l-1,1H10V12ZM7,9.88,7.88,9H8V8.5H7ZM3,6V3.5H2v3l.5.5h3V6Z" />
    </g>
    <path class="light-defaultgrey-10" d="M1.5,1.5v2h2v-2Zm4,4v3h3v-3Zm5,5v4h4v-4Z" />
    <path class="light-defaultgrey" d="M3.5,1h-2L1,1.5v2l.5.5h2L4,3.5v-2ZM3,3H2V2H3ZM8.5,5h-3L5,5.5v3l.5.5h3L9,8.5v-3ZM8,8H6V6H8Zm6.5,2h-4l-.5.5v4l.5.5h4l.5-.5v-4ZM14,14H11V11h3Z" />
    <path class="light-green" d="M8.854,10.854l-5,5H3.146l-3-3,.708-.708L3.5,14.793l4.646-4.647Z" />
  </g>
</svg>
