<svg xmlns="http://www.w3.org/2000/svg" viewBox="0 0 16 16">
  <defs>
    <style>.canvas{fill: none; opacity: 0;}.light-defaultgrey-10{fill: #212121; opacity: 0.1;}.light-defaultgrey{fill: #212121; opacity: 1;}.cls-1{opacity:0.75;}</style>
  </defs>
  <title>IconLightNetworkNDISDriverPackage</title>
  <g id="canvas">
    <path class="canvas" d="M16,16H0V0H16Z" />
  </g>
  <g id="level-1">
    <path class="light-defaultgrey-10" d="M11.5,12.5v2H9v-2Z" />
    <path class="light-defaultgrey-10" d="M14.5,1.5v9H9v-.41L8.91,10l-.06-.06a3.018,3.018,0,0,0-.73-3.07,3.093,3.093,0,0,0-.99-.65,2.817,2.817,0,0,0-1.03-.2.34.34,0,0,0-.1.01,2.074,2.074,0,0,0-.5.06V1.5Z" />
    <path class="light-defaultgrey" d="M14.5,1h-9L5,1.5V6.25a2.24,2.24,0,0,1,.5-.16A2.074,2.074,0,0,1,6,6.03V2h8v8H8.91l.09.09V11h5.5l.5-.5v-9Z" />
    <path class="light-defaultgrey" d="M12,6.09a1.434,1.434,0,0,0-1,0,1.5,1.5,0,1,0,1,0ZM11.5,8a.5.5,0,1,1,.5-.5A.5.5,0,0,1,11.5,8ZM9.91,4a1.5,1.5,0,1,0,0,1,1.434,1.434,0,0,0,0-1ZM8.5,5A.5.5,0,1,1,9,4.5.5.5,0,0,1,8.5,5Z" />
    <g class="cls-1">
      <path class="light-defaultgrey" d="M11.5,4h-2V5H11V6.5h1v-2Z" />
    </g>
    <g class="cls-1">
      <path class="light-defaultgrey" d="M16,13v1H12V13ZM9,12h2V11H9Z" />
    </g>
    <path class="light-defaultgrey" d="M11.5,12H9v1h2v1H9v1h2.5l.5-.5v-2Z" />
    <path class="light-defaultgrey-10" d="M7.5,10.5v5H.5v-5Z" />
    <path class="light-defaultgrey" d="M8,9a1.99,1.99,0,0,0-.586-1.415,2.023,2.023,0,0,0-.662-.438,1.773,1.773,0,0,0-1.4.034,2.082,2.082,0,0,0-1.1,1.183L4,9.049l-.251-.685a2.082,2.082,0,0,0-1.1-1.183,1.773,1.773,0,0,0-1.4-.034,2.01,2.01,0,0,0-.662.439A1.993,1.993,0,0,0,.36,10.14L0,10.5v5l.5.5h7l.5-.5v-5l-.36-.36A1.986,1.986,0,0,0,8,9ZM5.19,8.708A1.091,1.091,0,0,1,5.76,8.1a.774.774,0,0,1,.616-.022,1.009,1.009,0,0,1,.331.22,1,1,0,0,1,0,1.413,1.011,1.011,0,0,1-.332.221A1,1,0,0,1,6,10H4.716Zm-3.9-.414a1,1,0,0,1,.333-.221A.715.715,0,0,1,1.9,8.02.855.855,0,0,1,2.24,8.1a1.091,1.091,0,0,1,.57.613L3.284,10H2a1,1,0,0,1-.376-.073,1.009,1.009,0,0,1-.331-.22,1,1,0,0,1,0-1.413ZM1,11H3.5v4H1Zm6,4H4.5V11H7Z" />
  </g>
</svg>
