<svg xmlns="http://www.w3.org/2000/svg" viewBox="0 0 16 16">
  <defs>
    <style>.canvas{fill: none; opacity: 0;}.light-defaultgrey{fill: #212121; opacity: 1;}.light-defaultgrey-10{fill: #212121; opacity: 0.1;}.cls-1{opacity:0.75;}</style>
  </defs>
  <title>IconLightNeuralNetwork</title>
  <g id="canvas" class="canvas">
    <path class="canvas" d="M16,16H0V0H16Z" />
  </g>
  <g id="level-1">
    <g class="cls-1">
      <path class="light-defaultgrey" d="M12.282,4.4,9.432,7.26l-.709-.7,2.85-2.863ZM7.3,9.4l-2.94,2.952-.709-.7L6.593,8.7Zm5.06,2.248-.709.705L8.7,9.393l.709-.7ZM7.352,6.622l-.709.705L3.733,4.4l.709-.7Z" />
    </g>
    <path class="light-defaultgrey-10" d="M14.5,3A1.5,1.5,0,1,1,13,1.5,1.5,1.5,0,0,1,14.5,3Zm-5,5a1.5,1.5,0,1,1-1.5-1.5A1.5,1.5,0,0,1,9.508,8Zm-5-5A1.5,1.5,0,1,1,3,1.5,1.5,1.5,0,0,1,4.5,3Zm10,10A1.5,1.5,0,1,1,13,11.5,1.5,1.5,0,0,1,14.5,13Zm-9.99,0a1.5,1.5,0,1,1-1.5-1.5A1.5,1.5,0,0,1,4.513,13Z" />
    <path class="light-defaultgrey" d="M13,1a2,2,0,1,0,2,2A2,2,0,0,0,13,1Zm0,3a1,1,0,1,1,1-1A1,1,0,0,1,13,4Zm-5,2a2,2,0,1,0,2,2A2,2,0,0,0,8.008,6Zm0,3a1,1,0,1,1,1-1A1,1,0,0,1,8.008,9ZM3,1A2,2,0,1,0,5,3,2,2,0,0,0,3,1ZM3,4A1,1,0,1,1,4,3,1,1,0,0,1,3,4Zm10,7a2,2,0,1,0,2,2A2,2,0,0,0,13,11Zm0,3a1,1,0,1,1,1-1A1,1,0,0,1,13,14Zm-9.99-3a2,2,0,1,0,2,2A2,2,0,0,0,3.013,11Zm0,3a1,1,0,1,1,1-1A1,1,0,0,1,3.013,14Z" />
  </g>
</svg>
