<svg xmlns="http://www.w3.org/2000/svg" viewBox="0 0 16 16">
  <defs>
    <style>.canvas{fill: none; opacity: 0;}.light-defaultgrey-10{fill: #212121; opacity: 0.1;}.light-defaultgrey{fill: #212121; opacity: 1;}.light-yellow{fill: #996f00; opacity: 1;}</style>
  </defs>
  <title>IconLightNewAvailability</title>
  <g id="canvas" class="canvas">
    <path class="canvas" d="M16,16H0V0H16Z" />
  </g>
  <g id="level-1">
    <path class="light-defaultgrey-10" d="M.5,10.5v4h2v-4Zm5.06-3a4.345,4.345,0,0,1-1.06.39V14.5h2v-7Zm2.94-3v10h2V4.5Zm4-3v13h2V1.5Z" />
    <path class="light-defaultgrey" d="M2.5,10H.5l-.5.5v4l.5.5h2l.5-.5v-4ZM2,14H1V11H2ZM6.5,7H6.32a3.839,3.839,0,0,1-.76.5A4.228,4.228,0,0,1,4,7.97V14.5l.5.5h2l.5-.5v-7ZM5,8H6v6H5Zm5.5-4h-2L8,4.5v10l.5.5h2l.5-.5V4.5ZM10,14H9V5h1ZM14.5,1h-2l-.5.5v13l.5.5h2l.5-.5V1.5ZM14,14H13V2h1Z" />
    <path class="light-yellow" d="M3,2,3,0H4L4,2l-.5.5Zm.5,2.5L3,5V7H4V5Zm1-1L5,4,7,4V3L5,3Zm-2,0L2,3,0,3V4L2,4Zm1.708-.7h.708L6.328,1.378,5.62.671,4.208,2.088ZM2.792,4.206H2.085L.673,5.623l.707.706L2.793,4.913Zm1.414,0v.708L5.623,6.328l.706-.708L4.913,4.208ZM2.794,2.792V2.085L1.378.673.671,1.38,2.088,2.793Z" />
  </g>
</svg>
