<svg xmlns="http://www.w3.org/2000/svg" viewBox="0 0 16 16">
  <defs>
    <style>.canvas{fill: none; opacity: 0;}.light-defaultgrey{fill: #212121; opacity: 1;}.light-yellow{fill: #996f00; opacity: 1;}</style>
  </defs>
  <title>IconLightNewAggregation</title>
  <g id="canvas">
    <path class="canvas" d="M16,16H0V0H16Z" />
  </g>
  <g id="level-1">
    <path class="light-defaultgrey" d="M14.707,4.5V4H11.89l1.346,2.243v.514L11.89,9h2.817V8.5h1v1l-.5.5h-4.2l-.429-.757L12.224,6.5,10.578,3.757,11.007,3h4.2l.5.5v1Zm-11,8.5h2V12h-2Zm-1.645.7V12.006q0-1.236-.873-1.5v-.024q.873-.28.873-1.511V7.744a4.416,4.416,0,0,1-.855-.392V8.9q0,1.206-.914,1.265v.68q.914.058.914,1.242V13.84A1.608,1.608,0,0,0,3,15.656v-.738a.883.883,0,0,1-.724-.293A1.557,1.557,0,0,1,2.062,13.7ZM3.707,10h2V9h-2ZM8.793,4.895V3.184A1.566,1.566,0,0,0,7.467,1.417,4.456,4.456,0,0,1,8,3.5a4.537,4.537,0,0,1-.062.62v.851q0,1.23.873,1.511v.024q-.873.264-.873,1.5V9.7a1.557,1.557,0,0,1-.214.926A.883.883,0,0,1,7,10.918v.738A1.608,1.608,0,0,0,8.793,9.84V8.082q0-1.184.914-1.242V6.16Q8.794,6.1,8.793,4.895Z" />
    <path class="light-yellow" d="M3,2V0H4V2l-.5.5ZM4,5V7H3V5l.5-.5ZM5,3,7,3V4L5,4l-.5-.5ZM2,4,0,4V3L2,3l.5.5ZM4.207,2.086,5.619.672l.708.706L4.914,2.793H4.207ZM2.792,4.914,1.379,6.328.671,5.622,2.085,4.207h.707Zm2.121-.706L6.328,5.62l-.707.708L4.206,4.915V4.208ZM2.086,2.792.671,1.38,1.377.672,2.793,2.085v.707Z" />
  </g>
</svg>
