<svg xmlns="http://www.w3.org/2000/svg" viewBox="0 0 16 16">
  <defs>
    <style>.canvas{fill: none; opacity: 0;}.light-defaultgrey-10{fill: #212121; opacity: 0.1;}.light-defaultgrey{fill: #212121; opacity: 1;}.light-yellow{fill: #996f00; opacity: 1;}.cls-1{opacity:0.75;}</style>
  </defs>
  <title>NewAttachedDocument</title>
  <g id="canvas">
    <path class="canvas" d="M16,16H0V0H16Z" />
  </g>
  <g id="level-1">
    <g class="cls-1">
      <path class="light-defaultgrey-10" d="M12.5,1.5H7.62l-.5.5H8V5H7.12l.62.62L5.62,7.74,5.28,7.4A3.419,3.419,0,0,1,6,9.5V10H8v2.5A4.164,4.164,0,0,1,7.72,14c-.02.04-.03.09-.05.13-.05.13-.1.25-.16.37H15.5V4.5Z" />
      <path class="light-defaultgrey" d="M15.85,4.15l-3-3L12.5,1H7.36l.38.38L7.12,2H12V5h3v9H7.72c-.02.04-.03.09-.05.13a2.87,2.87,0,0,1-.15.37,4.905,4.905,0,0,1-.28.5H15.5l.5-.5V4.5Z" />
    </g>
    <path class="light-defaultgrey" d="M6,11v1.5a2.5,2.5,0,0,1-5,0v-3A1.5,1.5,0,0,1,2.5,8H2V7.12l-.62.62-.3-.3A2.511,2.511,0,0,0,0,9.5v3a3.5,3.5,0,0,0,7,0V11ZM4,9.5v3a.5.5,0,0,1-1,0V10H2v2.5a1.5,1.5,0,0,0,3,0v-3A2.5,2.5,0,0,0,4.5,8h-2A1.5,1.5,0,0,1,4,9.5Z" />
    <path class="light-yellow" d="M4,2l-.5.5L3,2V0H4ZM1.379.672l-.707.707L2.086,2.793l.7,0,0-.711ZM0,3V4H2l.5-.5L2,3ZM.672,5.621l.707.707L2.793,4.914l0-.7-.711,0ZM3,7H4V5l-.5-.5L3,5Zm2.621-.672.707-.707L4.914,4.207l-.7,0,0,.711ZM7,4V3H5l-.5.5L5,4ZM6.328,1.379,5.621.672,4.207,2.086l0,.7.711,0Z" />
  </g>
</svg>
