<svg xmlns="http://www.w3.org/2000/svg" viewBox="0 0 16 16">
  <defs>
    <style>.canvas{fill: none; opacity: 0;}.light-defaultgrey{fill: #212121; opacity: 1;}.light-yellow{fill: #996f00; opacity: 1;}</style>
  </defs>
  <title>IconLightNewAttribute</title>
  <g id="canvas" class="canvas">
    <path class="canvas" d="M16,16H0V0H16Z" />
  </g>
  <g id="level-1">
    <path class="light-defaultgrey" d="M9.09,14.01A5.2,5.2,0,0,1,5.2,12.54,5.333,5.333,0,0,1,3.76,8.66c0-.23.01-.45.03-.67A2.81,2.81,0,0,1,3.5,8a3.94,3.94,0,0,1-.77-.07,6.566,6.566,0,0,0-.04.78A6.019,6.019,0,0,0,4.43,13.2a6.226,6.226,0,0,0,4.58,1.71,8.684,8.684,0,0,0,3.37-.57v-.97A7.814,7.814,0,0,1,9.09,14.01ZM13.57,3.66a6.31,6.31,0,0,0-4.4-1.57,7.4,7.4,0,0,0-1.36.12,4.188,4.188,0,0,1,.17.87,6.883,6.883,0,0,1,1.13-.1,5.058,5.058,0,0,1,3.76,1.36,4.709,4.709,0,0,1,1.36,3.5,4.52,4.52,0,0,1-.55,2.37,1.644,1.644,0,0,1-1.41.92q-.93,0-.93-1.62c0-.05.13-1.51.37-4.38h-.98c-.04.45-.06.75-.07.89h-.04a1.262,1.262,0,0,0-.56-.72,1.757,1.757,0,0,0-1.01-.29,2.831,2.831,0,0,0-1.46.37A4.4,4.4,0,0,1,6.13,7.14v.01a5.229,5.229,0,0,0-.35,1.96,3.234,3.234,0,0,0,.65,2.12,2.127,2.127,0,0,0,1.73.79,2.25,2.25,0,0,0,2.24-1.86h.04c0,1.24.58,1.86,1.72,1.86a2.709,2.709,0,0,0,2.23-1.19,4.8,4.8,0,0,0,.92-3.05A5.319,5.319,0,0,0,13.57,3.66ZM9.89,10.14a1.718,1.718,0,0,1-1.54.97,1.281,1.281,0,0,1-1.07-.53,2.355,2.355,0,0,1-.41-1.45,4.085,4.085,0,0,1,.6-2.29,1.8,1.8,0,0,1,1.57-.93q1.41,0,1.41,1.68A5.073,5.073,0,0,1,9.89,10.14Z" />
    <path class="light-yellow" d="M3,2,3,0H4L4,2l-.5.5Zm.5,2.5L3,5V7H4V5Zm1-1L5,4,7,4V3L5,3Zm-2,0L2,3,0,3V4L2,4Zm1.708-.7h.708L6.328,1.378,5.62.671,4.208,2.088ZM2.792,4.206H2.085L.673,5.623l.707.706L2.793,4.913Zm1.414,0v.708L5.623,6.328l.706-.708L4.913,4.208ZM2.794,2.792V2.085L1.378.673.671,1.38,2.088,2.793Z" />
  </g>
</svg>
