<svg xmlns="http://www.w3.org/2000/svg" viewBox="0 0 16 16">
  <defs>
    <style>.canvas{fill: none; opacity: 0;}.light-defaultgrey{fill: #212121; opacity: 1;}.light-defaultgrey-10{fill: #212121; opacity: 0.1;}.light-yellow{fill: #996f00; opacity: 1;}.cls-1{opacity:0.75;}</style>
  </defs>
  <title>IconLightNewBranch</title>
  <g id="canvas" class="canvas">
    <path class="canvas" d="M16,16H0V0H16Z" />
  </g>
  <g id="level-1">
    <g class="cls-1">
      <path class="light-defaultgrey" d="M14,8.5v1A1.5,1.5,0,0,1,12.5,11h-3a.5.5,0,0,0-.5.5v1H8V8H9v2.092A1.483,1.483,0,0,1,9.5,10h3a.5.5,0,0,0,.5-.5v-1Z" />
    </g>
    <path class="light-defaultgrey-10" d="M15,7.5A1.5,1.5,0,1,1,13.5,6,1.5,1.5,0,0,1,15,7.5ZM10,14a1.5,1.5,0,1,1-1.5-1.5A1.5,1.5,0,0,1,10,14Zm0-7.5a1.5,1.5,0,0,1-3,0,1.483,1.483,0,0,1,.023-.232,4.438,4.438,0,0,0,.606-.985A1.5,1.5,0,0,1,10,6.5Z" />
    <path class="light-defaultgrey" d="M8.5,12a2,2,0,1,0,2,2A2,2,0,0,0,8.5,12Zm0,3a1,1,0,1,1,1-1A1,1,0,0,1,8.5,15Zm0-10.5a1.969,1.969,0,0,0-.658.121A4.473,4.473,0,0,1,6.531,6.807,2,2,0,1,0,8.5,4.5Zm0,3a1,1,0,1,1,1-1A1,1,0,0,1,8.5,7.5Zm5-2a2,2,0,1,0,2,2A2,2,0,0,0,13.5,5.5Zm0,3a1,1,0,1,1,1-1A1,1,0,0,1,13.5,8.5Z" />
    <path class="light-yellow" d="M2,4,0,4V3L2,3l.5.5Zm.791.207v.707L1.38,6.329.673,5.623,2.085,4.206ZM4,0,4,2l-.5.5L3,2,3,0Zm-1.2,2.085v.707H2.088L.671,1.38,1.378.673Zm2.122.709H4.208V2.088L5.62.671l.708.707ZM4,5,4,7H3L3,5l.5-.5ZM5,3,7,3V4L5,4l-.5-.5ZM4.206,4.916V4.208h.706L6.329,5.62l-.707.708Z" />
  </g>
</svg>
