<svg xmlns="http://www.w3.org/2000/svg" viewBox="0 0 16 16">
  <defs>
    <style>.canvas{fill: none; opacity: 0;}.light-defaultgrey{fill: #212121; opacity: 1;}.light-defaultgrey-10{fill: #212121; opacity: 0.1;}.light-yellow{fill: #996f00; opacity: 1;}</style>
  </defs>
  <title>IconLightNewCubeSlice</title>
  <g id="canvas" class="canvas">
    <path class="canvas" d="M16,16H0V0H16Z" />
  </g>
  <g id="level-1">
    <path class="light-defaultgrey" d="M12.91,11.2l-.7.71L13.3,13H3V7.97a4.16,4.16,0,0,1-1-.23V13.5l.5.5H13.3l-1.09,1.09.7.71,1.95-1.95v-.7Z" />
    <path class="light-defaultgrey-10" d="M10.5,1.6,7.98,3.07c.01.14.02.29.02.43v.11a4.584,4.584,0,0,1-.38,1.71,4.289,4.289,0,0,1-.62,1,3.078,3.078,0,0,1-.5.52V8.67l4,2,4-2V3.93Z" />
    <path class="light-defaultgrey" d="M14.75,3.48l-4-2.34h-.5L7.89,2.52a4.852,4.852,0,0,1,.09.55c.01.14.02.29.02.43v.11l2.5-1.45,3.22,1.87L10.5,5.64,7.92,4.35a4.551,4.551,0,0,1-.3.97L10,6.51V9.84L7,8.34V6.32a3.078,3.078,0,0,1-.5.52,3.249,3.249,0,0,1-.5.4V8.65l.28.45,4,2h.44l4-2L15,8.65V3.91ZM11,6.51l3-1.5V8.34l-3,1.5Z" />
    <path class="light-yellow" d="M3,2,3,0H4L4,2l-.5.5Zm.5,2.5L3,5V7H4V5Zm1-1L5,4,7,4V3L5,3Zm-2,0L2,3,0,3V4L2,4Zm1.708-.7h.708L6.328,1.378,5.62.671,4.208,2.088ZM2.792,4.206H2.085L.673,5.623l.707.706L2.793,4.913Zm1.414,0v.708L5.623,6.328l.706-.708L4.913,4.208ZM2.794,2.792V2.085L1.378.673.671,1.38,2.088,2.793Z" />
  </g>
</svg>
