<svg xmlns="http://www.w3.org/2000/svg" viewBox="0 0 16 16">
  <defs>
    <style>.canvas{fill: none; opacity: 0;}.light-defaultgrey-10{fill: #212121; opacity: 0.1;}.light-defaultgrey{fill: #212121; opacity: 1;}.light-green{fill: #1f801f; opacity: 1;}.light-yellow{fill: #996f00; opacity: 1;}.cls-1{opacity:0.75;}</style>
  </defs>
  <title>IconLightNewCounterSet</title>
  <g id="canvas" class="canvas">
    <path class="canvas" d="M16,16H0V0H16Z" />
  </g>
  <g id="level-1">
    <g class="cls-1">
      <path class="light-defaultgrey-10" d="M7.53,1.5a4.4,4.4,0,0,1,.21.5,4.16,4.16,0,0,1,.23,1h4.94L14,4.09V11.5h1.5V1.5Z" />
      <path class="light-defaultgrey" d="M15.5,1H7.24a3.6,3.6,0,0,1,.29.5,4.4,4.4,0,0,1,.21.5H15V6.29l-1-1V6.71l1,1V11H14v1h1.5l.5-.5V1.5Z" />
    </g>
    <path class="light-defaultgrey-10" d="M7.89,4.5a4.127,4.127,0,0,1-.15.5A4.495,4.495,0,0,1,1,7.24a3.249,3.249,0,0,1-.5-.4V14.5h12V4.5Z" />
    <path class="light-green" d="M9.85,7.15h-.7L5.5,10.79,3.85,9.15h-.7L1,11.29v1.42l2.5-2.5,1.65,1.64h.7L9.5,8.21l2.5,2.5V9.29Z" />
    <path class="light-defaultgrey" d="M12.5,4H7.97a4.331,4.331,0,0,1-.08.5,4.127,4.127,0,0,1-.15.5H12v9H1V7.24a3.249,3.249,0,0,1-.5-.4A3.078,3.078,0,0,1,0,6.32V14.5l.5.5h12l.5-.5V4.5Z" />
    <path class="light-yellow" d="M3,2,3,0H4L4,2l-.5.5Zm.5,2.5L3,5V7H4V5Zm1-1L5,4,7,4V3L5,3Zm-2,0L2,3,0,3V4L2,4Zm1.708-.7h.708L6.328,1.378,5.62.671,4.208,2.088ZM2.792,4.206H2.085L.673,5.623l.707.706L2.793,4.913Zm1.414,0v.708L5.623,6.328l.706-.708L4.913,4.208ZM2.794,2.792V2.085L1.378.673.671,1.38,2.088,2.793Z" />
  </g>
</svg>
