<svg xmlns="http://www.w3.org/2000/svg" viewBox="0 0 16 16">
  <defs>
    <style>.canvas{fill: none; opacity: 0;}.light-yellow-10{fill: #996f00; opacity: 0.1;}.light-yellow{fill: #996f00; opacity: 1;}</style>
  </defs>
  <title>NewClass</title>
  <g id="canvas" class="canvas">
    <path class="canvas" d="M16,16H0V0H16Z" />
  </g>
  <g id="level-1">
    <path class="light-yellow-10" d="M13,10,11.5,8.5l2-2L15,8Zm-1.5,3.5L13,15l2-2-1.5-1.5ZM3.954,7.954,5.5,9.5l4-4L7.954,3.954A4.477,4.477,0,0,1,3.954,7.954Z" />
    <path class="light-yellow" d="M11.146,8.854l1.5,1.5h.708l2-2V7.646l-1.5-1.5h-.708L12.293,7H8.707L9.854,5.854V5.146L7.977,3.27c0,.078.023.151.023.23a4.469,4.469,0,0,1-.141,1.066l.934.934L5.5,8.793l-.934-.934A4.469,4.469,0,0,1,3.5,8c-.079,0-.152-.019-.23-.023L5.146,9.854h.708L7.707,8H9v4.5l.5.5h1.793l-.147.146v.708l1.5,1.5h.708l2-2v-.708l-1.5-1.5h-.708L12.293,12H10V8h1.293l-.147.146ZM13.5,12.207l.793.793L13,14.293l-.793-.793Zm0-5L14.293,8,13,9.293,12.207,8.5Z" />
    <path class="light-yellow" d="M3,2,3,0H4L4,2l-.5.5Zm.5,2.5L3,5V7H4V5Zm1-1L5,4,7,4V3L5,3Zm-2,0L2,3,0,3V4L2,4Zm1.708-.7h.708L6.328,1.378,5.62.671,4.208,2.088ZM2.792,4.206H2.085L.673,5.623l.707.706L2.793,4.913Zm1.414,0v.708L5.623,6.328l.706-.708L4.913,4.208ZM2.794,2.792V2.085L1.378.673.671,1.38,2.088,2.793Z" />
  </g>
</svg>
