<svg xmlns="http://www.w3.org/2000/svg" viewBox="0 0 16 16">
  <defs>
    <style>.canvas{fill: none; opacity: 0;}.light-defaultgrey-10{fill: #212121; opacity: 0.1;}.light-defaultgrey{fill: #212121; opacity: 1;}.light-yellow{fill: #996f00; opacity: 1;}</style>
  </defs>
  <title>IconLightNewCalculatedMember</title>
  <g id="canvas" class="canvas">
    <path class="canvas" d="M16,16H0V0H16Z" />
  </g>
  <g id="level-1">
    <path class="light-defaultgrey-10" d="M14.5,6A4.469,4.469,0,0,1,8,10.012V7.086L7.1,6.181A4.458,4.458,0,0,0,8,3.5a4.459,4.459,0,0,0-.239-1.382A4.452,4.452,0,0,1,10,1.5,4.5,4.5,0,0,1,14.5,6Z" />
    <path class="light-defaultgrey-10" d="M5.521,7.5H6.5v8H.5v-8h.979A4.452,4.452,0,0,0,3.5,8,4.452,4.452,0,0,0,5.521,7.5Z" />
    <path class="light-defaultgrey" d="M4,13H5v1H4ZM5,9H2v1H5ZM4,12H5V11H4ZM6.3,7A4.46,4.46,0,0,1,3.5,8H6v7H1V8H3.5A4.46,4.46,0,0,1,.7,7H.5L0,7.5v8l.5.5h6l.5-.5v-8L6.5,7ZM3,11H2v1H3Zm0,2H2v1H3Z" />
    <path class="light-defaultgrey" d="M15,6a5.006,5.006,0,0,1-5,5,4.95,4.95,0,0,1-2-.424V9.444A3.959,3.959,0,0,0,10,10a4,4,0,0,0,0-8,3.961,3.961,0,0,0-2.09.605,4.482,4.482,0,0,0-.319-.959A4.937,4.937,0,0,1,10,1,5.006,5.006,0,0,1,15,6Z" />
    <path class="light-defaultgrey" d="M9.5,6A1.5,1.5,0,1,1,11,4.5,1.5,1.5,0,0,1,9.5,6Zm0-2a.5.5,0,1,0,.5.5A.5.5,0,0,0,9.5,4Z" />
    <path class="light-yellow" d="M3,2,3,0H4L4,2l-.5.5Zm.5,2.5L3,5,3,7H4L4,5Zm1-1L5,4,7,4V3L5,3Zm-2,0L2,3,0,3V4L2,4Zm1.708-.7h.708L6.328,1.377,5.62.671,4.208,2.087ZM2.792,4.206H2.085L.673,5.622l.707.707L2.793,4.912Zm1.414,0v.707L5.623,6.327l.706-.707L4.913,4.207ZM2.794,2.792V2.084L1.378.672.671,1.38,2.088,2.792Z" />
  </g>
</svg>
