<svg xmlns="http://www.w3.org/2000/svg" viewBox="0 0 16 16">
  <defs>
    <style>.canvas{fill: none; opacity: 0;}.light-yellow{fill: #996f00; opacity: 1;}.light-defaultgrey{fill: #212121; opacity: 1;}</style>
  </defs>
  <title>IconLightNewChangeset</title>
  <g id="canvas" class="canvas">
    <path class="canvas" d="M16,16H0V0H16Z" />
  </g>
  <g id="level-1">
    <path class="light-yellow" d="M4,5,4,7H3L3,5l.5-.5ZM5,3,7,3V4L5,4l-.5-.5ZM4.912,4.209,6.329,5.621l-.707.708L4.206,4.917V4.209ZM3,2,3,0H4L4,2l-.5.5Zm1.206.793V2.088L5.62.671l.708.707L4.916,2.794ZM2,4,0,4V3L2,3l.5.5Zm.792.914L1.38,6.329.673,5.623,2.085,4.206h.707Zm-.7-2.12L.671,1.38,1.378.673,2.794,2.085v.707Z" />
    <path class="light-defaultgrey" d="M9.71,10H11.5a3.5,3.5,0,1,0-3-5.27,3.189,3.189,0,0,0-.53-.68,4.268,4.268,0,0,1-.32,1.19A2.366,2.366,0,0,1,8,6.5V9H5.5a2.491,2.491,0,0,1-2-1,4.511,4.511,0,0,1-1.23-.17A3.493,3.493,0,0,0,5.5,10H7.29L2.65,14.65l.7.7L8.5,10.21l5.15,5.14.7-.7ZM9,6.5A2.5,2.5,0,1,1,11.5,9H9Z" />
  </g>
</svg>
