<svg xmlns="http://www.w3.org/2000/svg" viewBox="0 0 16 16">
  <defs>
    <style>.canvas{fill: none; opacity: 0;}.light-defaultgrey-10{fill: #212121; opacity: 0.1;}.light-defaultgrey{fill: #212121; opacity: 1;}.light-yellow{fill: #996f00; opacity: 1;}</style>
  </defs>
  <title>IconLightNewDiagram</title>
  <g id="canvas" class="canvas">
    <path class="canvas" d="M16,16H0V0H16Z" />
  </g>
  <g id="level-1">
    <path class="light-defaultgrey-10" d="M1.5,12.5h2v2h-2Zm6,2h2v-2h-2ZM7.74,2A4.379,4.379,0,0,1,8,3.5a4.07,4.07,0,0,1-.03.5,4.331,4.331,0,0,1-.08.5H10.5v-3H7.53A4.4,4.4,0,0,1,7.74,2ZM13.5,12.5v2h2v-2Z" />
    <path class="light-defaultgrey" d="M15.5,12H15V8.5L14.5,8H9V5h1.5l.5-.5v-3L10.5,1H7.24a3.6,3.6,0,0,1,.29.5,4.4,4.4,0,0,1,.21.5H10V4H7.97a4.331,4.331,0,0,1-.08.5,4.127,4.127,0,0,1-.15.5H8V8H2.5L2,8.5V12H1.5l-.5.5v2l.5.5h2l.5-.5v-2L3.5,12H3V9H8v3H7.5l-.5.5v2l.5.5h2l.5-.5v-2L9.5,12H9V9h5v3h-.5l-.5.5v2l.5.5h2l.5-.5v-2ZM3,14H2V13H3Zm6,0H8V13H9Zm6,0H14V13h1Z" />
    <path class="light-yellow" d="M3,2,3,0H4L4,2l-.5.5Zm.5,2.5L3,5V7H4V5Zm1-1L5,4,7,4V3L5,3Zm-2,0L2,3,0,3V4L2,4Zm1.708-.7h.708L6.328,1.378,5.62.671,4.208,2.088ZM2.792,4.206H2.085L.673,5.623l.707.706L2.793,4.913Zm1.414,0v.708L5.623,6.328l.706-.708L4.913,4.208ZM2.794,2.792V2.085L1.378.673.671,1.38,2.088,2.793Z" />
  </g>
</svg>
