<svg xmlns="http://www.w3.org/2000/svg" viewBox="0 0 16 16">
  <defs>
    <style>.canvas{fill: none; opacity: 0;}.light-defaultgrey-10{fill: #212121; opacity: 0.1;}.light-defaultgrey{fill: #212121; opacity: 1;}.light-defaultgrey-25{fill: #212121; opacity: 0.25;}.light-yellow{fill: #996f00; opacity: 1;}.cls-1{opacity:0.75;}</style>
  </defs>
  <title>NewDocumentCollection</title>
  <g id="canvas" class="canvas">
    <path class="canvas" d="M16,16H0V0H16Z" />
  </g>
  <g id="level-1">
    <g class="cls-1">
      <path class="light-defaultgrey-10" d="M8.5,2.5V6h4l.5.5v5h2.5v-9Z" />
      <path class="light-defaultgrey-10" d="M7.89,4.5a4.127,4.127,0,0,1-.15.5,4.07,4.07,0,0,1-.5,1H8V4.5ZM3,7.97a4.331,4.331,0,0,1-.5-.08V13.5H5V7.74A4.379,4.379,0,0,1,3.5,8,4.07,4.07,0,0,1,3,7.97Z" />
      <path class="light-defaultgrey" d="M15.5,2h-7L8,2.5V4H7.97a4.331,4.331,0,0,1-.08.5,4.127,4.127,0,0,1-.15.5H8V6H9V3h6v8H13v1h2.5l.5-.5v-9ZM3,7.97a4.331,4.331,0,0,1-.5-.08A4.127,4.127,0,0,1,2,7.74V13.5l.5.5H5V13H3Z" />
    </g>
    <path class="light-defaultgrey-10" d="M6.84,6.5a3.078,3.078,0,0,1-.52.5A2.428,2.428,0,0,1,6,7.24a3.6,3.6,0,0,1-.5.29V15.5h7v-9Z" />
    <path class="light-defaultgrey" d="M12.5,6H7.24a3.249,3.249,0,0,1-.4.5,3.078,3.078,0,0,1-.52.5H12v8H6V7.24a3.6,3.6,0,0,1-.5.29,4.4,4.4,0,0,1-.5.21V15.5l.5.5h7l.5-.5v-9Z" />
    <path class="light-defaultgrey-25" d="M9,11V7H8v4.5l.5.5H12V11Z" />
    <path class="light-yellow" d="M3,2,3,0H4L4,2l-.5.5Zm.5,2.5L3,5V7H4V5Zm1-1L5,4,7,4V3L5,3Zm-2,0L2,3,0,3V4L2,4Zm1.708-.7h.708L6.328,1.378,5.62.671,4.208,2.088ZM2.792,4.206H2.085L.673,5.623l.707.706L2.793,4.913Zm1.414,0v.708L5.623,6.328l.706-.708L4.913,4.208ZM2.794,2.792V2.085L1.378.673.671,1.38,2.088,2.793Z" />
  </g>
</svg>
