<svg xmlns="http://www.w3.org/2000/svg" viewBox="0 0 16 16">
  <defs>
    <style>.canvas{fill: none; opacity: 0;}.light-blue{fill: #005dba; opacity: 1;}.light-defaultgrey-10{fill: #212121; opacity: 0.1;}.light-defaultgrey{fill: #212121; opacity: 1;}.light-blue-10{fill: #005dba; opacity: 0.1;}.light-lightblue{fill: #0077a0; opacity: 1;}.light-yellow{fill: #996f00; opacity: 1;}</style>
  </defs>
  <title>IconLightNewDrillThroughAction</title>
  <g id="canvas" class="canvas">
    <path class="canvas" d="M16,16H0V0H16Z" />
  </g>
  <g id="level-1">
    <path class="light-blue" d="M14,10v2.5l-.5.5H10.707l1.147,1.146-.708.708-2-2v-.708l2-2,.708.708L10.707,12H13V10Z" />
    <path class="light-defaultgrey-10" d="M14.5,3.314V7.132L11.5,8.5l-3-1.364V3.314l3-1.636Z" />
    <path class="light-defaultgrey" d="M14.739,2.928l-3-1.636h-.478l-3,1.636L8,3.367V7.186l.293.455,3,1.363h.414l3-1.363L15,7.186V3.367ZM11,7.772,9,6.864V4.144l2,.909Zm.5-3.59L9.619,3.327,11.5,2.3l1.881,1.027ZM14,6.864l-2,.908V5.053l2-.909Z" />
    <path class="light-blue-10" d="M3.5,14.5c-1.654,0-3-.673-3-1.5V10c0-.827,1.346-1.5,3-1.5s3,.673,3,1.5v3C6.5,13.827,5.154,14.5,3.5,14.5Z" />
    <path class="light-lightblue" d="M3.5,8C1.505,8,0,8.859,0,10v3c0,1.141,1.505,2,3.5,2S7,14.141,7,13V10C7,8.859,5.5,8,3.5,8Zm0,1C5.026,9,6,9.592,6,10s-.974,1-2.5,1S1,10.408,1,10,1.974,9,3.5,9Zm0,5C1.974,14,1,13.408,1,13V11.426A5.108,5.108,0,0,0,3.5,12,5.108,5.108,0,0,0,6,11.426V13C6,13.408,5.026,14,3.5,14Z" />
    <path class="light-yellow" d="M4.915,2.793H4.208V2.086L5.62.672l.708.706ZM4.5,3.5,5,4,7,4V3L5,3Zm-2,0L2,3,0,3V4L2,4ZM.672,5.622l.708.706L2.792,4.914V4.207H2.085ZM3,0,3,2l.5.5L4,2,4,0ZM4.207,4.208v.707L5.622,6.328l.706-.708L4.914,4.208ZM3.5,4.5,3,5,3,7H4L4,5ZM.672,1.38,2.086,2.792h.707V2.085L1.378.672Z" />
  </g>
</svg>
