<svg xmlns="http://www.w3.org/2000/svg" viewBox="0 0 16 16">
  <defs>
    <style>.canvas{fill: none; opacity: 0;}.light-yellow{fill: #996f00; opacity: 1;}.light-defaultgrey-10{fill: #212121; opacity: 0.1;}.light-defaultgrey{fill: #212121; opacity: 1;}.light-red{fill: #c50b17; opacity: 1;}.light-green{fill: #1f801f; opacity: 1;}</style>
  </defs>
  <title>IconLightNewDashboard</title>
  <g id="canvas" class="canvas">
    <path class="canvas" d="M16,16H0V0H16Z" />
  </g>
  <g id="level-1">
    <path class="light-yellow" d="M3,2,3,0H4L4,2l-.5.5Zm.5,2.5L3,5V7H4V5Zm1-1L5,4,7,4V3L5,3Zm-2,0L2,3,0,3V4L2,4Zm1.708-.7h.708L6.328,1.378,5.62.671,4.208,2.088ZM2.792,4.206H2.085L.673,5.623l.707.706L2.793,4.913Zm1.414,0v.708L5.623,6.328l.706-.708L4.913,4.208ZM2.794,2.792V2.085L1.378.673.671,1.38,2.088,2.793Z" />
    <path class="light-defaultgrey-10" d="M15.5,8.5a7,7,0,0,1-14,0,7.092,7.092,0,0,1,.072-.95A4.454,4.454,0,0,0,3.5,8,4.5,4.5,0,0,0,8,3.5a4.454,4.454,0,0,0-.45-1.928A7.092,7.092,0,0,1,8.5,1.5,7,7,0,0,1,15.5,8.5Z" />
    <path class="light-defaultgrey" d="M16,8.5A7.5,7.5,0,1,1,1.106,7.3a4.509,4.509,0,0,0,.942.443A6.531,6.531,0,1,0,7.74,2.048,4.509,4.509,0,0,0,7.3,1.106,7.45,7.45,0,0,1,16,8.5Z" />
    <path class="light-red" d="M4,8.5a4.462,4.462,0,0,0,1.35,3.213l-.7.715A5.459,5.459,0,0,1,3,8.5c0-.177.009-.352.026-.525A4.373,4.373,0,0,0,3.5,8a4.587,4.587,0,0,0,.553-.034A4.092,4.092,0,0,0,4,8.5Zm6.9-4.95-.437.9A4.448,4.448,0,0,0,8.5,4a4.092,4.092,0,0,0-.534.053A4.587,4.587,0,0,0,8,3.5a4.642,4.642,0,0,0-.025-.474C8.148,3.009,8.323,3,8.5,3A5.461,5.461,0,0,1,10.9,3.55Z" />
    <path class="light-green" d="M14,8.5a5.459,5.459,0,0,1-1.65,3.928l-.7-.715a4.5,4.5,0,0,0,.9-5.176l.9-.437A5.45,5.45,0,0,1,14,8.5Z" />
    <path class="light-defaultgrey-10" d="M9.5,8.5a1,1,0,1,1-1-1A1,1,0,0,1,9.5,8.5Z" />
    <path class="light-defaultgrey" d="M12.854,4.854l-.708-.708-3,3a1.514,1.514,0,1,0,.707.707ZM8.5,9A.5.5,0,1,1,9,8.5.5.5,0,0,1,8.5,9Z" />
  </g>
</svg>
