<svg xmlns="http://www.w3.org/2000/svg" viewBox="0 0 16 16">
  <defs>
    <style>.canvas{fill: none; opacity: 0;}.light-yellow-10{fill: #996f00; opacity: 0.1;}.light-yellow{fill: #996f00; opacity: 1;}.cls-1{opacity:0.75;}</style>
  </defs>
  <title>IconLightNewEnumerator</title>
  <g id="canvas" class="canvas">
    <path class="canvas" d="M16,16H0V0H16Z" />
  </g>
  <g id="level-1">
    <g class="cls-1">
      <path class="light-yellow-10" d="M8,3.5a4.07,4.07,0,0,1-.03.5,4.4,4.4,0,0,1-.73,2H9.5l.5.5v3h4.5v-6Z" />
      <path class="light-yellow" d="M10,7V8h2.5V7ZM8.5,5V6h4V5Zm6-2H7.97a4.182,4.182,0,0,1,0,1H14V9H10v1h4.5l.5-.5v-6Zm-2,5V7H10V8Zm0-3h-4V6h4Z" />
    </g>
    <path class="light-yellow-10" d="M6.84,6.5a3.078,3.078,0,0,1-.52.5A4.428,4.428,0,0,1,3.5,8,4.379,4.379,0,0,1,2,7.74a4.4,4.4,0,0,1-.5-.21V12.5h8v-6Z" />
    <path class="light-yellow" d="M3.5,10v1h4V10Zm0-2V9h4V8Zm0,3h4V10h-4Zm0-3V9h4V8Zm6-2H7.24a3.249,3.249,0,0,1-.4.5,3.078,3.078,0,0,1-.52.5H9v5H2V7.74a4.4,4.4,0,0,1-.5-.21A3.6,3.6,0,0,1,1,7.24V12.5l.5.5h8l.5-.5v-6Zm-2,4h-4v1h4Zm0-2h-4V9h4Z" />
    <path class="light-yellow" d="M3,2,3,0H4L4,2l-.5.5Zm.5,2.5L3,5V7H4V5Zm1-1L5,4,7,4V3L5,3Zm-2,0L2,3,0,3V4L2,4Zm1.708-.7h.708L6.328,1.378,5.62.671,4.208,2.088ZM2.792,4.206H2.085L.673,5.623l.707.706L2.793,4.913Zm1.414,0v.708L5.623,6.328l.706-.708L4.913,4.208ZM2.794,2.792V2.085L1.378.673.671,1.38,2.088,2.793Z" />
  </g>
</svg>
