<svg xmlns="http://www.w3.org/2000/svg" viewBox="0 0 16 16">
  <defs>
    <style>.canvas{fill: none; opacity: 0;}.light-defaultgrey-10{fill: #212121; opacity: 0.1;}.light-defaultgrey{fill: #212121; opacity: 1;}.light-yellow{fill: #996f00; opacity: 1;}.cls-1{opacity:0.75;}</style>
  </defs>
  <title>IconLightNewEnvironmentLibrary</title>
  <g id="canvas" class="canvas">
    <path class="canvas" d="M16,0V16H0V0Z" />
  </g>
  <g id="level-1">
    <path class="light-defaultgrey-10" d="M13,10.5H12v2l-.5.5h-.98l.33,1,.17.5H15Z" />
    <path class="light-defaultgrey" d="M13.45,10.28,13,10H12v1h.69l1.5,3H10.85l.17.5.1.31-.1.19H15l.45-.72Z" />
    <path class="light-defaultgrey-10" d="M10.5,1.5H7.53a4.4,4.4,0,0,1,.21.5A4.379,4.379,0,0,1,8,3.5a4.07,4.07,0,0,1-.03.5,4.16,4.16,0,0,1-.23,1,3.926,3.926,0,0,1-.45.92l1.03.51L8.84,8l.34,1,.33,1,.34,1,.33,1,.17.5H11.5V2.5A1,1,0,0,0,10.5,1.5Z" />
    <path class="light-defaultgrey" d="M10.5,1H7.24a3.6,3.6,0,0,1,.29.5,4.4,4.4,0,0,1,.21.5H10.5a.5.5,0,0,1,.5.5V12h-.82l.17.5.17.5h.98l.5-.5V2.5A1.5,1.5,0,0,0,10.5,1Z" />
    <g class="cls-1">
      <path class="light-defaultgrey" d="M7.97,4a4.16,4.16,0,0,1-.23,1H10V4Zm.87,4,.34,1H10V8Zm.67,2,.34,1H10V10Z" />
    </g>
    <path class="light-defaultgrey-10" d="M3.5,8a4.478,4.478,0,0,1-2.06-.5H.5v8h4V7.89A4.714,4.714,0,0,1,3.5,8Zm3.52-.69-1.9.63,2.54,7.59,1.9-.64Z" />
    <path class="light-defaultgrey" d="M7.5,7.15l-.64-.32-.57.19a4.339,4.339,0,0,1-1.79.87A4.714,4.714,0,0,1,3.5,8H4v7H3V8h.5a4.478,4.478,0,0,1-2.06-.5A3.839,3.839,0,0,1,.68,7H.5L0,7.5v8l.5.5h4l.5-.5V9.15l2.19,6.53.63.32,1.9-.64.32-.63ZM2,8v7H1V8Zm5.98,6.89L5.76,8.26l.94-.32,2.23,6.64Z" />
    <path class="light-yellow" d="M3,2V0H4V2l-.5.5ZM4,5V7H3V5l.5-.5ZM5,3,7,3V4L5,4l-.5-.5ZM2,4,0,4V3L2,3l.5.5ZM4.207,2.086,5.619.672l.708.706L4.914,2.793H4.207ZM2.792,4.914,1.379,6.328.671,5.622,2.085,4.207h.707Zm2.121-.706L6.328,5.62l-.707.708L4.206,4.915V4.208ZM2.086,2.792.671,1.38,1.377.672,2.793,2.085v.707Z" />
  </g>
</svg>
