<svg xmlns="http://www.w3.org/2000/svg" viewBox="0 0 16 16">
  <defs>
    <style>.canvas{fill: none; opacity: 0;}.light-yellow-10{fill: #996f00; opacity: 0.1;}.light-yellow{fill: #996f00; opacity: 1;}</style>
  </defs>
  <title>IconLightNewFolder</title>
  <g id="canvas" class="canvas">
    <path class="canvas" d="M16,16H0V0H16Z" />
  </g>
  <g id="level-1">
    <path class="light-yellow-10" d="M15.5,6.5v9H2.5V8l.092-.092A4.525,4.525,0,0,0,3.5,8,4.487,4.487,0,0,0,7.512,5.5H8.5l1,1Z" />
    <path class="light-yellow" d="M16,6.5v9l-.5.5H2.5L2,15.5V7.724A4.431,4.431,0,0,0,3,7.95V15H15V7H9.682l-.853.854L8.475,8H3.5A4.46,4.46,0,0,0,6.3,7H8.268l.513-.512L8.293,6H7.24a4.466,4.466,0,0,0,.484-1H8.5l.354.146L9.707,6H15.5Z" />
    <path class="light-yellow" d="M3,2,3,0H4L4,2l-.5.5Zm.5,2.5L3,5V7H4V5Zm1-1L5,4,7,4V3L5,3Zm-2,0L2,3,0,3V4L2,4Zm1.708-.7h.708L6.328,1.378,5.62.671,4.208,2.088ZM2.792,4.206H2.085L.673,5.623l.707.706L2.793,4.913Zm1.414,0v.708L5.623,6.328l.706-.708L4.913,4.208ZM2.794,2.792V2.085L1.378.673.671,1.38,2.088,2.793Z" />
  </g>
</svg>
