<svg xmlns="http://www.w3.org/2000/svg" viewBox="0 0 16 16">
  <defs>
    <style>.canvas{fill: none; opacity: 0;}.light-defaultgrey-10{fill: #212121; opacity: 0.1;}.light-defaultgrey{fill: #212121; opacity: 1;}.light-yellow{fill: #996f00; opacity: 1;}.cls-1{opacity:0.75;}</style>
  </defs>
  <title>NewHeaderFile</title>
  <g id="canvas">
    <path class="canvas" d="M16,16H0V0H16Z" />
  </g>
  <g id="level-1">
    <g class="cls-1">
      <path class="light-defaultgrey-10" d="M14.5,4.5v9H4.5V7.88A4.5,4.5,0,0,0,8,3.5a4.458,4.458,0,0,0-.488-2H11.5Z" />
      <path class="light-defaultgrey" d="M15,4.5v9l-.5.5H4.5L4,13.5V7.95a4.431,4.431,0,0,0,1-.226V13h9V5H11V2H7.724A4.466,4.466,0,0,0,7.24,1H11.5l.354.146,3,3Z" />
    </g>
    <path class="light-defaultgrey" d="M11,9.3V12H10V9.514a1.6,1.6,0,0,0-.237-.9.757.757,0,0,0-.677-.305,1,1,0,0,0-.454.1,1.045,1.045,0,0,0-.336.261,1.135,1.135,0,0,0-.208.375A1.441,1.441,0,0,0,8,9.487V12H7V6.3a4.546,4.546,0,0,0,.512-.8H8V8.3h.036a2.035,2.035,0,0,1,.258-.326,1.532,1.532,0,0,1,.322-.249,1.649,1.649,0,0,1,.39-.161A1.754,1.754,0,0,1,9.474,7.5a1.408,1.408,0,0,1,1.133.46A2.015,2.015,0,0,1,11,9.3Z" />
    <path class="light-yellow" d="M3,2V0H4V2l-.5.5ZM4,5V7H3V5l.5-.5ZM5,3,7,3V4L5,4l-.5-.5ZM2,4,0,4V3L2,3l.5.5ZM4.207,2.086,5.62.672l.708.706L4.914,2.793H4.207ZM2.792,4.914,1.38,6.328.672,5.622,2.085,4.207h.707Zm2.121-.706L6.328,5.62l-.706.708L4.206,4.915V4.208ZM2.086,2.792.671,1.38,1.378.672,2.793,2.085v.707Z" />
  </g>
</svg>
