<svg xmlns="http://www.w3.org/2000/svg" viewBox="0 0 16 16">
  <defs>
    <style>.canvas{fill: none; opacity: 0;}.light-defaultgrey-10{fill: #212121; opacity: 0.1;}.light-defaultgrey{fill: #212121; opacity: 1;}.light-yellow{fill: #996f00; opacity: 1;}.light-blue{fill: #005dba; opacity: 1;}</style>
  </defs>
  <title>IconLightNewImage</title>
  <g id="canvas" class="canvas">
    <path class="canvas" d="M16,16H0V0H16Z" />
  </g>
  <g id="level-1">
    <path class="light-defaultgrey-10" d="M15.5,3.5v12H2.5V7.88A4.471,4.471,0,0,0,8,3.5Z" />
    <path class="light-defaultgrey" d="M16,3.5v12l-.5.5H2.5L2,15.5V7.724A4.431,4.431,0,0,0,3,7.95V15H15V4H7.95A4.576,4.576,0,0,0,8,3.5,4.576,4.576,0,0,0,7.95,3H15.5Z" />
    <path class="light-yellow" d="M13,6.5A1.5,1.5,0,1,1,11.5,5,1.5,1.5,0,0,1,13,6.5Z" />
    <path class="light-blue" d="M15,12.09V13.5l-2.819-2.82L9.988,12.877H9.281L5.814,9.41,3,12.225V10.811L5.461,8.35h.707l3.466,3.466,2.193-2.193h.707Z" />
    <path class="light-yellow" d="M3,2,3,0H4L4,2l-.5.5Zm.5,2.5L3,5V7H4V5Zm1-1L5,4,7,4V3L5,3Zm-2,0L2,3,0,3V4L2,4Zm1.708-.7h.708L6.328,1.378,5.62.671,4.208,2.088ZM2.792,4.206H2.085L.673,5.623l.707.706L2.793,4.913Zm1.414,0v.708L5.623,6.328l.706-.708L4.913,4.208ZM2.794,2.792V2.085L1.378.673.671,1.38,2.088,2.793Z" />
  </g>
</svg>
