<svg xmlns="http://www.w3.org/2000/svg" viewBox="0 0 16 16">
  <defs>
    <style>.canvas{fill: none; opacity: 0;}.light-defaultgrey-10{fill: #212121; opacity: 0.1;}.light-defaultgrey{fill: #212121; opacity: 1;}.light-blue{fill: #005dba; opacity: 1;}.light-yellow{fill: #996f00; opacity: 1;}.cls-1{opacity:0.75;}</style>
  </defs>
  <title>IconLightNewImageType</title>
  <g id="canvas" class="canvas">
    <path class="canvas" d="M16,16H0V0H16Z" />
  </g>
  <g id="level-1">
    <path class="light-defaultgrey-10" d="M7.53,1.5a4.4,4.4,0,0,1,.21.5A4.379,4.379,0,0,1,8,3.5a4.07,4.07,0,0,1-.03.5,4.16,4.16,0,0,1-.23,1,4.07,4.07,0,0,1-.5,1A2.428,2.428,0,0,1,7,6.32,3.649,3.649,0,0,1,6.32,7H8.5l.5.5V11h5.5V1.5Z" />
    <path class="light-defaultgrey" d="M14.5,1H7.24a3.6,3.6,0,0,1,.29.5,4.4,4.4,0,0,1,.21.5H14v9H9v1h5.5l.5-.5V1.5Z" />
    <g class="cls-1">
      <path class="light-defaultgrey" d="M7.97,4a4.16,4.16,0,0,1-.23,1H13V4ZM9,8V9h4V8ZM7.24,6A2.428,2.428,0,0,1,7,6.32V7h6V6Z" />
    </g>
    <path class="light-defaultgrey-10" d="M.5,8.5v7h7v-7Z" />
    <path class="light-defaultgrey" d="M7.5,8H.5L0,8.5v7l.5.5h7l.5-.5v-7ZM7,15H1V9H7Z" />
    <path class="light-blue" d="M5.3,13H4.78l-.72.41-1.75-1.4L1.7,12l-.7.51v1.24l.99-.72,1.76,1.42h.47l.76-.34L6.16,15H7v-.64Z" />
    <path class="light-yellow" d="M5.65,10a1,1,0,1,0,1,1A1,1,0,0,0,5.65,10Z" />
    <path class="light-yellow" d="M3,2,3,0H4L4,2l-.5.5Zm.5,2.5L3,5V7H4V5Zm1-1L5,4,7,4V3L5,3Zm-2,0L2,3,0,3V4L2,4Zm1.708-.7h.708L6.328,1.378,5.62.671,4.208,2.088ZM2.792,4.206H2.085L.673,5.623l.707.706L2.793,4.913Zm1.414,0v.708L5.623,6.328l.706-.708L4.913,4.208ZM2.794,2.792V2.085L1.378.673.671,1.38,2.088,2.793Z" />
  </g>
</svg>
