<svg xmlns="http://www.w3.org/2000/svg" viewBox="0 0 16 16">
  <defs>
    <style>.canvas{fill: none; opacity: 0;}.light-defaultgrey-10{fill: #212121; opacity: 0.1;}.light-defaultgrey{fill: #212121; opacity: 1;}.light-yellow{fill: #996f00; opacity: 1;}</style>
  </defs>
  <title>IconLightNewKey</title>
  <g id="canvas" class="canvas">
    <path class="canvas" d="M16,16H0V0H16Z" />
  </g>
  <g id="level-1">
    <path class="light-defaultgrey-10" d="M14.4,6.381a4.067,4.067,0,0,1-3.947,3.2A3.926,3.926,0,0,1,9,9.3L7.975,10.5H6.5v2h-2v2h-3V12.193L6.692,7H7V5.973A4.959,4.959,0,0,0,8,3a4.907,4.907,0,0,0-.06-.6,3.858,3.858,0,0,1,1.677-.821A4.044,4.044,0,0,1,14.4,6.381Z" />
    <path class="light-defaultgrey" d="M14.888,6.48a4.583,4.583,0,0,1-4.437,3.6,4.466,4.466,0,0,1-1.293-.189l-.8.937L7.975,11H7v1.5l-.5.5H5v1.5l-.5.5h-3L1,14.5V12.193l.146-.353L5.985,7l.058-.058A5.012,5.012,0,0,0,6.974,6c.012.083.009.171.026.253V6.3l.159.513-.11.542L2,12.4V14H4V12.5l.5-.5H6V10.5l.5-.5H7.745l.876-1.021.561-.14a3.47,3.47,0,0,0,1.269.238,3.568,3.568,0,0,0,3.457-2.795A3.543,3.543,0,0,0,9.716,2.073,3.409,3.409,0,0,0,8,3.007V3a4.971,4.971,0,0,0-.15-1.165,4.359,4.359,0,0,1,1.668-.743,4.544,4.544,0,0,1,5.37,5.388ZM12,5a1,1,0,1,0-1,1A1,1,0,0,0,12,5Z" />
    <path class="light-yellow" d="M3,2,3,0H4L4,2l-.5.5Zm.5,2.5L3,5V7H4V5Zm1-1L5,4,7,4V3L5,3Zm-2,0L2,3,0,3V4L2,4Zm1.708-.7h.708L6.328,1.378,5.62.671,4.208,2.088ZM2.792,4.206H2.085L.673,5.623l.707.706L2.793,4.913Zm1.414,0v.708L5.623,6.328l.706-.708L4.913,4.208ZM2.794,2.792V2.085L1.378.673.671,1.38,2.088,2.793Z" />
  </g>
</svg>
