<svg xmlns="http://www.w3.org/2000/svg" viewBox="0 0 16 16">
  <defs>
    <style>.canvas{fill: none; opacity: 0;}.light-defaultgrey-10{fill: #212121; opacity: 0.1;}.light-yellow{fill: #996f00; opacity: 1;}.light-defaultgrey{fill: #212121; opacity: 1;}.light-lightblue{fill: #0077a0; opacity: 1;}.light-purple{fill: #6936aa; opacity: 1;}.cls-1{opacity:0.75;}</style>
  </defs>
  <title>IconLightNewLinkedTable</title>
  <g id="canvas" class="canvas">
    <path class="canvas" d="M16,16H0V0H16Z" />
  </g>
  <g id="level-1">
    <path class="light-defaultgrey-10" d="M15.5,7.5v7H9.949A2.942,2.942,0,0,0,10,14a2.993,2.993,0,0,0-2.141-2.859A3.018,3.018,0,0,0,6.5,9.416V7.5Z" />
    <path class="light-yellow" d="M3,2,3,0H4L4,2l-.5.5ZM4,5,4,7H3L3,5l.5-.5ZM5,3,7,3V4L5,4l-.5-.5ZM2,4,0,4V3L2,3l.5.5ZM4.208,2.086,5.62.672l.708.706L4.915,2.793H4.208ZM2.792,4.914,1.38,6.328.672,5.622,2.085,4.207h.707Zm2.122-.706L6.328,5.62l-.706.708L4.207,4.915V4.208ZM2.086,2.792.672,1.38,1.378.672,2.793,2.085v.707Z" />
    <path class="light-defaultgrey" d="M15.5,7h-9L6,7.5V9.176a2.963,2.963,0,0,1,1,.613V9H9v1H7.213a3.032,3.032,0,0,1,.592,1H9v.787A2.959,2.959,0,0,1,10,14V13h2v1H10a2.966,2.966,0,0,1-.184,1H15.5l.5-.5v-7ZM12,12H10V11h2Zm0-2H10V9h2Zm3,4H13V13h2Zm0-2H13V11h2Zm0-2H13V9h2Z" />
    <path class="light-lightblue" d="M3,14a2,2,0,0,1,2-2H7a2,2,0,0,1,0,4H5A2,2,0,0,1,3,14Zm2-1a1,1,0,0,0,0,2H7a1,1,0,0,0,0-2Z" />
    <path class="light-purple" d="M7,12a2,2,0,0,1-2,2H4a1,1,0,0,1,1-1,1,1,0,0,0,0-2H3a1,1,0,0,0,0,2h.269A1.984,1.984,0,0,0,3,14a2,2,0,0,1,0-4H5A2,2,0,0,1,7,12Z" />
    <g class="cls-1">
      <path class="light-defaultgrey-10" d="M8,3.5a4.516,4.516,0,0,0-.12-1H12.5V6H7.24A4.478,4.478,0,0,0,8,3.5Z" />
      <path class="light-defaultgrey" d="M10,6h3V2.5L12.5,2H7.724A4.445,4.445,0,0,1,8,3.5a4.576,4.576,0,0,1-.05.5H9V5H7.724A4.466,4.466,0,0,1,7.24,6H10Zm0-2h2V5H10Z" />
    </g>
  </g>
</svg>
