<svg xmlns="http://www.w3.org/2000/svg" viewBox="0 0 16 16">
  <defs>
    <style>.canvas{fill: none; opacity: 0;}.light-defaultgrey-10{fill: #212121; opacity: 0.1;}.light-defaultgrey{fill: #212121; opacity: 1;}.light-yellow{fill: #996f00; opacity: 1;}</style>
  </defs>
  <title>IconLightNewListItem</title>
  <g id="canvas" class="canvas">
    <path class="canvas" d="M16,16H0V0H16Z" />
  </g>
  <g id="level-1">
    <path class="light-defaultgrey-10" d="M7.89,4.5a4.127,4.127,0,0,1-.15.5A4.486,4.486,0,0,1,3.5,8,4.379,4.379,0,0,1,2,7.74a4.4,4.4,0,0,1-.5-.21V12.5h13v-8Z" />
    <path class="light-defaultgrey" d="M4,8V9h8V8ZM4,8V9h8V8ZM14.5,4H7.97a4.331,4.331,0,0,1-.08.5,4.127,4.127,0,0,1-.15.5H14v7H2V7.74a4.4,4.4,0,0,1-.5-.21A3.6,3.6,0,0,1,1,7.24V12.5l.5.5h13l.5-.5v-8ZM12,8H4V9h8Z" />
    <path class="light-yellow" d="M4,2l-.5.5L3,2V0H4ZM1.379.672l-.707.707L2.086,2.793l.7,0,0-.711ZM0,3V4H2l.5-.5L2,3ZM.672,5.621l.707.707L2.793,4.914l0-.7-.711,0ZM3,7H4V5l-.5-.5L3,5Zm2.621-.672.707-.707L4.914,4.207l-.7,0,0,.711ZM7,4V3H5l-.5.5L5,4ZM6.328,1.379,5.621.672,4.207,2.086l0,.7.711,0Z" />
  </g>
</svg>
