<svg xmlns="http://www.w3.org/2000/svg" viewBox="0 0 16 16">
  <defs>
    <style>.canvas{fill: none; opacity: 0;}.light-defaultgrey-10{fill: #212121; opacity: 0.1;}.light-defaultgrey{fill: #212121; opacity: 1;}.light-yellow{fill: #996f00; opacity: 1;}</style>
  </defs>
  <title>IconLightNewLayerDiagram</title>
  <g id="canvas" class="canvas">
    <path class="canvas" d="M16,16H0V0H16Z" />
  </g>
  <g id="level-1">
    <path class="light-defaultgrey-10" d="M14.5,1.5v9H10V8.09L8.91,7H6.32a4.168,4.168,0,0,0,.92-1,4.07,4.07,0,0,0,.5-1A4.379,4.379,0,0,0,8,3.5,4.07,4.07,0,0,0,7.97,3a4.16,4.16,0,0,0-.23-1,4.4,4.4,0,0,0-.21-.5Z" />
    <path class="light-defaultgrey-10" d="M8.5,8.5v7H.5v-7Z" />
    <path class="light-defaultgrey" d="M8.5,8H.5L0,8.5v7l.5.5h8l.5-.5v-7ZM8,15H1V9H8Z" />
    <path class="light-defaultgrey" d="M7,11v3H5V11ZM2,12H4V10H2Z" />
    <path class="light-defaultgrey" d="M12.5,3H7.97A4.07,4.07,0,0,1,8,3.5,4.379,4.379,0,0,1,7.74,5H8V6H7.24a4.168,4.168,0,0,1-.92,1H10V9h2.5l.5-.5v-5ZM10,6H9V5h1Zm2,2H11V7h1Zm0-2H11V5h1Z" />
    <path class="light-defaultgrey" d="M14.5,1H7.24a3.6,3.6,0,0,1,.29.5,4.4,4.4,0,0,1,.21.5H14v8H10v1h4.5l.5-.5v-9Z" />
    <path class="light-defaultgrey" d="M8.5,8H.5L0,8.5v7l.5.5h8l.5-.5v-7ZM8,15H1V9H8Z" />
    <path class="light-yellow" d="M3,2,3,0H4L4,2l-.5.5Zm.5,2.5L3,5V7H4V5Zm1-1L5,4,7,4V3L5,3Zm-2,0L2,3,0,3V4L2,4Zm1.708-.7h.708L6.328,1.378,5.62.671,4.208,2.088ZM2.792,4.206H2.085L.673,5.623l.707.706L2.793,4.913Zm1.414,0v.708L5.623,6.328l.706-.708L4.913,4.208ZM2.794,2.792V2.085L1.378.673.671,1.38,2.088,2.793Z" />
  </g>
</svg>
