<svg xmlns="http://www.w3.org/2000/svg" viewBox="0 0 16 16">
  <defs>
    <style>.canvas{fill: none; opacity: 0;}.light-defaultgrey-10{fill: #212121; opacity: 0.1;}.light-defaultgrey{fill: #212121; opacity: 1;}.light-yellow{fill: #996f00; opacity: 1;}.cls-1{opacity:0.75;}</style>
  </defs>
  <title>IconLightNewLeftFrame</title>
  <g id="canvas">
    <path class="canvas" d="M16,0V16H0V0Z" />
  </g>
  <g id="level-1">
    <path class="light-defaultgrey-10" d="M7.89,2.5a4.011,4.011,0,0,1,.08.5A4.07,4.07,0,0,1,8,3.5,4.494,4.494,0,0,1,3.5,8,4.07,4.07,0,0,1,3,7.97a4.011,4.011,0,0,1-.5-.08V14.5h12V2.5Z" />
    <path class="light-defaultgrey" d="M14.5,2H7.75c.05.16.1.33.14.5a4.011,4.011,0,0,1,.08.5H8V14H3V7.97a4.011,4.011,0,0,1-.5-.08c-.17-.04-.34-.09-.5-.14V14.5l.5.5h12l.5-.5V2.5ZM14,14H9V3h5Z" />
    <g class="cls-1">
      <path class="light-defaultgrey" d="M7.89,2.5a4.011,4.011,0,0,1,.08.5A4.07,4.07,0,0,1,8,3.5,4.494,4.494,0,0,1,3.5,8,4.07,4.07,0,0,1,3,7.97a4.011,4.011,0,0,1-.5-.08V14.5h6V2.5Z" />
    </g>
    <path class="light-yellow" d="M3,2,3,0H4L4,2l-.5.5ZM4,5,4,7H3L3,5l.5-.5ZM5,3,7,3V4L5,4l-.5-.5ZM2,4,0,4V3L2,3l.5.5ZM4.208,2.086,5.62.672l.708.706L4.915,2.793H4.208ZM2.792,4.914,1.38,6.328.672,5.622,2.085,4.207h.707Zm2.122-.706L6.328,5.62l-.706.708L4.207,4.915V4.208ZM2.086,2.792.672,1.38,1.378.672,2.793,2.085v.707Z" />
  </g>
</svg>
