<svg xmlns="http://www.w3.org/2000/svg" viewBox="0 0 16 16">
  <defs>
    <style>.canvas{fill: none; opacity: 0;}.light-defaultgrey-10{fill: #212121; opacity: 0.1;}.light-defaultgrey{fill: #212121; opacity: 1;}.light-green{fill: #1f801f; opacity: 1;}.light-yellow{fill: #996f00; opacity: 1;}.light-lightblue{fill: #0077a0; opacity: 1;}.light-purple{fill: #6936aa; opacity: 1;}.cls-1{opacity:0.75;}</style>
  </defs>
  <title>IconLightNewLinkedWorkItem</title>
  <g id="canvas" class="canvas">
    <path class="canvas" d="M16,16H0V0H16Z" />
  </g>
  <g id="level-1">
    <g class="cls-1">
      <path class="light-defaultgrey-10" d="M11,9.88l2.5-2.5V3.5H8a4.07,4.07,0,0,1-.03.5A4.488,4.488,0,0,1,4,7.97,4.07,4.07,0,0,1,3.5,8V9H4a3,3,0,0,1,2.87,2.13A3,3,0,0,1,9,14a2.071,2.071,0,0,1-.05.5H13.5V11.62l-1.73,1.73H10.23l-3.5-3.5L8.85,7.73Z" />
      <path class="light-defaultgrey" d="M13,12.12V14H9a2.071,2.071,0,0,1-.05.5,2.166,2.166,0,0,1-.13.5H13.5l.5-.5V11ZM13.5,3H7.97a4.182,4.182,0,0,1,0,1H13V7.88l1-1V3.5ZM3,7.97V9H4V7.97a4.182,4.182,0,0,1-1,0Z" />
    </g>
    <path class="light-green" d="M15.854,7.85l-4.5,4.5h-.708l-2.5-2.5.708-.707L11,11.289l4.146-4.146Z" />
    <path class="light-defaultgrey" d="M10.5,2A2,2,0,0,0,7,.68a4.038,4.038,0,0,1,.58.93A1,1,0,1,1,8.5,3a.967.967,0,0,1-.55-.17A.985.985,0,0,1,7.97,3a4.182,4.182,0,0,1,0,1H12V2Z" />
    <path class="light-yellow" d="M3,2,3,0H4L4,2l-.5.5Zm.5,2.5L3,5V7H4V5Zm1-1L5,4,7,4V3L5,3Zm-2,0L2,3,0,3V4L2,4Zm1.708-.7h.708L6.328,1.378,5.62.671,4.208,2.088ZM2.792,4.206H2.085L.673,5.623l.707.706L2.793,4.913Zm1.414,0v.708L5.623,6.328l.706-.708L4.913,4.208ZM2.794,2.792V2.085L1.378.673.671,1.38,2.088,2.793Z" />
    <path class="light-lightblue" d="M2,14a2,2,0,0,1,2-2H6a2,2,0,0,1,0,4H4A2,2,0,0,1,2,14Zm2-1a1,1,0,0,0,0,2H6a1,1,0,0,0,0-2Z" />
    <path class="light-purple" d="M6,12a2,2,0,0,1-2,2H3a1,1,0,0,1,1-1,1,1,0,0,0,0-2H2a1,1,0,0,0,0,2h.269A1.984,1.984,0,0,0,2,14a2,2,0,0,1,0-4H4A2,2,0,0,1,6,12Z" />
  </g>
</svg>
