<svg xmlns="http://www.w3.org/2000/svg" viewBox="0 0 16 16">
  <defs>
    <style>.canvas{fill: none; opacity: 0;}.light-defaultgrey-10{fill: #212121; opacity: 0.1;}.light-defaultgrey{fill: #212121; opacity: 1;}.light-teal-10{fill: #006758; opacity: 0.1;}.light-teal{fill: #006758; opacity: 1;}.light-yellow{fill: #996f00; opacity: 1;}.cls-1{opacity:0.75;}</style>
  </defs>
  <title>NewLog</title>
  <g id="canvas">
    <path class="canvas" d="M16,16H0V0H16Z" />
  </g>
  <g id="level-1">
    <path class="light-defaultgrey-10" d="M7.62,1.5l-.5.5H8V4h4V5H7.12l.62.62L5.62,7.74,5,7.12V8H3.5V9H5v1H3.5v2H5v1H3.5v1.5h11V1.5Z" />
    <path class="light-defaultgrey" d="M14.5,1H7.36l.38.38L7.12,2H14V14H4V13H3v1.5l.5.5h11l.5-.5V1.5ZM3,8V9H4V8Zm0,2v2H4V10Z" />
    <g class="cls-1">
      <path class="light-defaultgrey" d="M2,12v1H5V12ZM2,9v1H5V9Z" />
    </g>
    <path class="light-teal-10" d="M8,4V5h4V4Z" />
    <path class="light-teal" d="M12.5,3H8V4h4V5H7.12l.62.62L7.36,6H12.5l.5-.5v-2Z" />
    <path class="light-yellow" d="M4,2l-.5.5L3,2V0H4ZM1.379.672l-.707.707L2.086,2.793l.7,0,0-.711ZM0,3V4H2l.5-.5L2,3ZM.672,5.621l.707.707L2.793,4.914l0-.7-.711,0ZM3,7H4V5l-.5-.5L3,5Zm2.621-.672.707-.707L4.914,4.207l-.7,0,0,.711ZM7,4V3H5l-.5.5L5,4ZM6.328,1.379,5.621.672,4.207,2.086l0,.7.711,0Z" />
  </g>
</svg>
