<svg xmlns="http://www.w3.org/2000/svg" viewBox="0 0 16 16">
  <defs>
    <style>.canvas{fill: none; opacity: 0;}.light-defaultgrey-10{fill: #212121; opacity: 0.1;}.light-defaultgrey{fill: #212121; opacity: 1;}.light-yellow{fill: #996f00; opacity: 1;}</style>
  </defs>
  <title>IconLightNewMeasure</title>
  <g id="canvas">
    <path class="canvas" d="M16,0V16H0V0Z" />
  </g>
  <g id="level-1">
    <path class="light-defaultgrey-10" d="M14.5,13.5V2.5h-3v11Z" />
    <path class="light-defaultgrey-10" d="M4.5,13.5v-5h-3v5Z" />
    <path class="light-defaultgrey-10" d="M9.5,5.5v8h-3V6.832A4.489,4.489,0,0,0,7.512,5.5Z" />
    <path class="light-defaultgrey" d="M11.5,2h3l.5.5v11l-.5.5h-3l-.5-.5V2.5ZM14,13V3H12V13Z" />
    <path class="light-defaultgrey" d="M1.5,8h3l.5.5v5l-.5.5h-3L1,13.5v-5ZM4,13V9H2v4Z" />
    <path class="light-yellow" d="M3,2,3,0H4L4,2l-.5.5ZM4,5,4,7H3L3,5l.5-.5ZM5,3,7,3V4L5,4l-.5-.5ZM2,4,0,4V3L2,3l.5.5ZM4.208,2.086,5.62.672l.708.706L4.915,2.793H4.208ZM2.792,4.914,1.38,6.328.672,5.622,2.085,4.207h.707Zm2.122-.706L6.328,5.62l-.706.708L4.207,4.915V4.208ZM2.086,2.792.672,1.38,1.378.672,2.793,2.085v.707Z" />
    <path class="light-defaultgrey" d="M10,5.5v8l-.5.5h-3L6,13.5V7.24A4.5,4.5,0,0,0,7,6.3V13H9V6H7.24a4.466,4.466,0,0,0,.484-1H9.5Z" />
  </g>
</svg>
