<svg xmlns="http://www.w3.org/2000/svg" viewBox="0 0 16 16">
  <defs>
    <style>.canvas{fill: none; opacity: 0;}.light-defaultgrey-10{fill: #212121; opacity: 0.1;}.light-defaultgrey{fill: #212121; opacity: 1;}.light-yellow{fill: #996f00; opacity: 1;}</style>
  </defs>
  <title>IconLightNewManualTestMHTformat</title>
  <g id="canvas" class="canvas">
    <path class="canvas" d="M16,16H0V0H16Z" />
  </g>
  <g id="level-1">
    <path class="light-defaultgrey-10" d="M7.53,1.5a4.4,4.4,0,0,1,.21.5,4.16,4.16,0,0,1,.23,1A4.07,4.07,0,0,1,8,3.5,4.455,4.455,0,0,1,6.18,7.11a4.021,4.021,0,0,1-.77.46,4.292,4.292,0,0,1-1.42.4A3.908,3.908,0,0,1,3.5,8,4.379,4.379,0,0,1,2,7.74a4.4,4.4,0,0,1-.5-.21V14.5h13V1.5Z" />
    <path class="light-defaultgrey" d="M10,3V4h1.3L10.25,9.25,9,3H7.97A4.07,4.07,0,0,1,8,3.5,4.455,4.455,0,0,1,6.18,7.11L5.75,9.25,5.41,7.57a4.292,4.292,0,0,1-1.42.4L5,13H6.5L8,5.5,9.5,13H11L13,3Z" />
    <path class="light-defaultgrey" d="M14.5,1H7.24a3.6,3.6,0,0,1,.29.5,4.4,4.4,0,0,1,.21.5H14V14H2V7.74a4.4,4.4,0,0,1-.5-.21A3.6,3.6,0,0,1,1,7.24V14.5l.5.5h13l.5-.5V1.5Z" />
    <path class="light-yellow" d="M3,2,3,0H4L4,2l-.5.5Zm.5,2.5L3,5V7H4V5Zm1-1L5,4,7,4V3L5,3Zm-2,0L2,3,0,3V4L2,4Zm1.708-.7h.708L6.328,1.378,5.62.671,4.208,2.088ZM2.792,4.206H2.085L.673,5.623l.707.706L2.793,4.913Zm1.414,0v.708L5.623,6.328l.706-.708L4.913,4.208ZM2.794,2.792V2.085L1.378.673.671,1.38,2.088,2.793Z" />
  </g>
</svg>
