<svg xmlns="http://www.w3.org/2000/svg" viewBox="0 0 16 16">
  <defs>
    <style>.canvas{fill: none; opacity: 0;}.light-teal-10{fill: #006758; opacity: 0.1;}.light-defaultgrey-10{fill: #212121; opacity: 0.1;}.light-defaultgrey{fill: #212121; opacity: 1;}.light-teal{fill: #006758; opacity: 1;}.light-yellow{fill: #996f00; opacity: 1;}</style>
  </defs>
  <title>IconLightNewManualTest</title>
  <g id="canvas">
    <path class="canvas" d="M16,16H0V0H16Z" />
  </g>
  <g id="level-1">
    <path class="light-teal-10" d="M5.62,7.47a3.509,3.509,0,0,1-.48.22A4.47,4.47,0,0,1,3.5,8a4.621,4.621,0,0,1-.99-.11,3.889,3.889,0,0,1-.94-.33,1,1,0,0,0,.22.33l3.91,3.9a1,1,0,0,0,1.68-.49l.38-1.69Z" />
    <path class="light-defaultgrey-10" d="M9.05,2.41,8,3.46V3.5a4.4,4.4,0,0,1-.06.73A4.5,4.5,0,0,1,6.06,7.2l1.4,1.4.42.42.35-1.54,2.94-2.94Z" />
    <path class="light-defaultgrey" d="M8.34,1l-.7.71.7.7-.4.4A3.493,3.493,0,0,1,8,3.46V3.5a4.4,4.4,0,0,1-.06.73L9.05,3.12l1.41,1.42L7.87,7.13l-.13.24L7.46,8.6l.42.42.23.23.13.44.44-1.96,2.49-2.49.71.71.71-.71Z" />
    <path class="light-teal" d="M8.24,9.69l-.13-.44-.23-.23L7.46,8.6,6.06,7.2a3.992,3.992,0,0,1-.44.27,3.509,3.509,0,0,1-.48.22L7.21,9.76l-.32,1.43a.47.47,0,0,1-.34.37.48.48,0,0,1-.5-.12L2.51,7.89a3.889,3.889,0,0,1-.94-.33,3.435,3.435,0,0,1-.56-.31,1.447,1.447,0,0,0,.43.99l3.91,3.9a1.451,1.451,0,0,0,1.48.38,1.469,1.469,0,0,0,1.04-1.11l.38-1.7Z" />
    <path class="light-defaultgrey-10" d="M14.5,7.5V11h-3V7.5Z" />
    <path class="light-defaultgrey" d="M15,7v4H14V8H12v3H11V7Z" />
    <path class="light-teal-10" d="M14.5,11.5V14a1.5,1.5,0,0,1-3,0V11.5Z" />
    <path class="light-teal" d="M11,11v3a2,2,0,0,0,4,0V11Zm2,4a1,1,0,0,1-1-1V12h2v2A1,1,0,0,1,13,15Z" />
    <path class="light-yellow" d="M4,2l-.5.5L3,2V0H4ZM1.379.672l-.707.707L2.086,2.793l.7,0,0-.711ZM0,3V4H2l.5-.5L2,3ZM.672,5.621l.707.707L2.793,4.914l0-.7-.711,0ZM3,7H4V5l-.5-.5L3,5Zm2.621-.672.707-.707L4.914,4.207l-.7,0,0,.711ZM7,4V3H5l-.5.5L5,4ZM6.328,1.379,5.621.672,4.207,2.086l0,.7.711,0Z" />
  </g>
</svg>
