<svg xmlns="http://www.w3.org/2000/svg" viewBox="0 0 16 16">
  <defs>
    <style>.canvas{fill: none; opacity: 0;}.light-defaultgrey-10{fill: #212121; opacity: 0.1;}.light-defaultgrey{fill: #212121; opacity: 1;}.light-yellow{fill: #996f00; opacity: 1;}</style>
  </defs>
  <title>IconLightNewOneHopQuery</title>
  <g id="canvas" class="canvas">
    <path class="canvas" d="M16,16H0V0H16Z" />
  </g>
  <g id="level-1">
    <path class="light-defaultgrey-10" d="M7.89,2.5A4.714,4.714,0,0,1,8,3.5,4.428,4.428,0,0,1,7,6.32,4.359,4.359,0,0,1,5,7.74a4.127,4.127,0,0,1-.5.15V14.5h10V2.5Z" />
    <path class="light-defaultgrey" d="M14.5,2H7.74a4.127,4.127,0,0,1,.15.5A4.714,4.714,0,0,1,8,3.5V3h6V5H8V3.5A4.428,4.428,0,0,1,7,6.32V8H5.01L5,8.01V7.74a4.127,4.127,0,0,1-.5.15,4.331,4.331,0,0,1-.5.08V14.5l.5.5h10l.5-.5V2.5ZM8,6h6V8H8ZM8,9h6v2H8Zm0,3h6v2H8ZM5,9H7v2H5.01L5,11.01Zm0,3H7v2H5Z" />
    <path class="light-yellow" d="M3,2,3,0H4L4,2l-.5.5Zm.5,2.5L3,5V7H4V5Zm1-1L5,4,7,4V3L5,3Zm-2,0L2,3,0,3V4L2,4Zm1.708-.7h.708L6.328,1.378,5.62.671,4.208,2.088ZM2.792,4.206H2.085L.673,5.623l.707.706L2.793,4.913Zm1.414,0v.708L5.623,6.328l.706-.708L4.913,4.208ZM2.794,2.792V2.085L1.378.673.671,1.38,2.088,2.793Z" />
  </g>
</svg>
