<svg xmlns="http://www.w3.org/2000/svg" viewBox="0 0 16 16">
  <defs>
    <style>.canvas{fill: none; opacity: 0;}.light-defaultgrey{fill: #212121; opacity: 1;}.light-yellow{fill: #996f00; opacity: 1;}</style>
  </defs>
  <title>IconLightNewOrderedList</title>
  <g id="canvas" class="canvas">
    <path class="canvas" d="M16,16H0V0H16Z" />
  </g>
  <g id="level-1">
    <path class="light-defaultgrey" d="M15.981,7V8H10V7ZM10,14h5.981V13H10Z" />
    <path class="light-defaultgrey" d="M7.164,15H9v1H6a3.173,3.173,0,0,1,.109-1.156c.376-.957,2.486-1.952,1.743-2.7a.5.5,0,0,0-.844.25l-.977-.2a1.505,1.505,0,0,1,2.852-.281C9.461,13.263,8.049,14.038,7.164,15ZM8,5.02H7.73A3.967,3.967,0,0,1,7,6.32V10H8Z" />
    <path class="light-yellow" d="M3,2,3,0H4L4,2l-.5.5Zm.5,2.5L3,5V7H4V5Zm1-1L5,4,7,4V3L5,3Zm-2,0L2,3,0,3V4L2,4Zm1.708-.7h.708L6.328,1.378,5.62.671,4.208,2.088ZM2.792,4.206H2.085L.673,5.623l.707.706L2.793,4.913Zm1.414,0v.708L5.623,6.328l.706-.708L4.913,4.208ZM2.794,2.792V2.085L1.378.673.671,1.38,2.088,2.793Z" />
  </g>
</svg>
