<svg xmlns="http://www.w3.org/2000/svg" viewBox="0 0 16 16">
  <defs>
    <style>.canvas{fill: none; opacity: 0;}.light-defaultgrey-10{fill: #212121; opacity: 0.1;}.light-defaultgrey{fill: #212121; opacity: 1;}.light-yellow{fill: #996f00; opacity: 1;}.cls-1{opacity:0.75;}</style>
  </defs>
  <title>IconLightNewPerspectiveView</title>
  <g id="canvas" class="canvas">
    <path class="canvas" d="M16,16H0V0H16Z" />
  </g>
  <g id="level-1">
    <g class="cls-1">
      <path class="light-defaultgrey-10" d="M11.5.93,7.97,2.99A4.361,4.361,0,0,1,8,3.5a4.478,4.478,0,0,1-.5,2.06V6H8.91L10,7.09V9.25l1.5.75,4-2V3.26Z" />
      <path class="light-defaultgrey" d="M15.75,2.83,11.75.5h-.5L7.88,2.46a4.507,4.507,0,0,1,.09.53A4.361,4.361,0,0,1,8,3.5a4.478,4.478,0,0,1-.5,2.06A2.822,2.822,0,0,1,7.24,6H8V4.37l3,1.5V9.19l-1-.5V9.81l1.28.64h.44l4-2L16,8V3.26ZM15,7.69l-3,1.5V5.87l3-1.5ZM8.28,3.39,11.5,1.51l3.22,1.88L11.5,5Z" />
    </g>
    <path class="light-defaultgrey-10" d="M5.56,7.5a4.494,4.494,0,0,1-4.12,0H.5v8h8v-8Z" />
    <path class="light-defaultgrey" d="M8.5,7H6.32a3.839,3.839,0,0,1-.76.5A4.478,4.478,0,0,1,3.5,8H7.29L5.94,9.35l.71.71L8,8.71v5.58L6.65,12.94l-.71.71L7.29,15H1.71l1.35-1.35-.71-.71L1,14.29V8.71l1.35,1.35.71-.71L1.71,8H3.5a4.478,4.478,0,0,1-2.06-.5A3.839,3.839,0,0,1,.68,7H.5L0,7.5v8l.5.5h8l.5-.5v-8Z" />
    <path class="light-yellow" d="M3,2,3,0H4L4,2l-.5.5Zm.5,2.5L3,5V7H4V5Zm1-1L5,4,7,4V3L5,3Zm-2,0L2,3,0,3V4L2,4Zm1.708-.7h.708L6.328,1.378,5.62.671,4.208,2.088ZM2.792,4.206H2.085L.673,5.623l.707.706L2.793,4.913Zm1.414,0v.708L5.623,6.328l.706-.708L4.913,4.208ZM2.794,2.792V2.085L1.378.673.671,1.38,2.088,2.793Z" />
  </g>
</svg>
