<svg xmlns="http://www.w3.org/2000/svg" viewBox="0 0 16 16">
  <defs>
    <style>.canvas{fill: none; opacity: 0;}.light-defaultgrey-10{fill: #212121; opacity: 0.1;}.light-defaultgrey{fill: #212121; opacity: 1;}.light-yellow{fill: #996f00; opacity: 1;}</style>
  </defs>
  <title>IconLightNewPackage</title>
  <g id="canvas">
    <path class="canvas" d="M16,16H0V0H16Z" />
  </g>
  <g id="level-1">
    <path class="light-defaultgrey-10" d="M7.53,5.5a3.6,3.6,0,0,1-.29.5A4.444,4.444,0,0,1,4,7.97,4.07,4.07,0,0,1,3.5,8v6.5h11v-9Z" />
    <path class="light-defaultgrey" d="M14.5,5H12.9a1.735,1.735,0,0,0,.43-.88,1.9,1.9,0,0,0-1.56-2.2c-1.18-.2-1.77.66-2.16,1.42-.07.15-.29.64-.52,1.16L9,4.68l-.09-.21c-.17-.38-.34-.75-.51-1.13a4.116,4.116,0,0,0-.5-.78A4.228,4.228,0,0,1,8,3.5a4.4,4.4,0,0,1-.14,1.09c.04.09.09.19.13.29L8.05,5H7.74a4.4,4.4,0,0,1-.21.5,3.6,3.6,0,0,1-.29.5H8.5v8H4V7.97a4.182,4.182,0,0,1-1,0V14.5l.5.5h11l.5-.5v-9ZM10,4.91c.22-.5.43-.97.51-1.12.45-.91.76-.94,1.09-.88a.909.909,0,0,1,.75,1.05,1.115,1.115,0,0,1-.52.68c-.15.09-.39.23-.64.36H9.96ZM14,14H9.5V6H14Z" />
    <path class="light-yellow" d="M3,2,3,0H4L4,2l-.5.5ZM4,5,4,7H3L3,5l.5-.5ZM5,3,7,3V4L5,4l-.5-.5ZM2,4,0,4V3L2,3l.5.5ZM4.208,2.086,5.62.672l.708.706L4.915,2.793H4.208ZM2.792,4.914,1.38,6.328.672,5.622,2.085,4.207h.707Zm2.122-.706L6.328,5.62l-.706.708L4.207,4.915V4.208ZM2.086,2.792.672,1.38,1.378.672,2.793,2.085v.707Z" />
  </g>
</svg>
