<svg xmlns="http://www.w3.org/2000/svg" viewBox="0 0 16 16">
  <defs>
    <style>.canvas{fill: none; opacity: 0;}.light-defaultgrey-10{fill: #212121; opacity: 0.1;}.light-defaultgrey{fill: #212121; opacity: 1;}.light-yellow{fill: #996f00; opacity: 1;}.cls-1{opacity:0.75;}</style>
  </defs>
  <title>IconLightNewProperty</title>
  <g id="canvas" class="canvas">
    <path class="canvas" d="M16,16H0V0H16Z" />
  </g>
  <g id="level-1">
    <g class="cls-1">
      <path class="light-defaultgrey-10" d="M9.593,8.442c-1.883,1.895-4.507,4.5-5.92,5.816-.861.75-2.077-.65-1.418-1.4C3.59,11.46,6.236,8.832,8.13,6.984A3.929,3.929,0,0,0,9.593,8.442Z" />
      <path class="light-defaultgrey" d="M10.071,8.67c-1.83,1.842-4.561,4.56-6.057,5.955a1.351,1.351,0,0,1-.892.345,1.5,1.5,0,0,1-1.056-.47,1.443,1.443,0,0,1-.187-1.972C3.262,11.08,6,8.361,7.9,6.51a3.926,3.926,0,0,0,.506.9c-1.858,1.817-4.466,4.407-5.791,5.8-.134.153.009.441.158.59a.4.4,0,0,0,.57.087c1.425-1.326,4.007-3.893,5.819-5.715A4,4,0,0,0,10.071,8.67Z" />
    </g>
    <path class="light-defaultgrey" d="M15.6,4.992a4,4,0,1,1-8,0,3.961,3.961,0,0,1,4-4,4.19,4.19,0,0,1,1.441.24l-2.882,2.96L12.4,6.432l2.959-2.881A4.19,4.19,0,0,1,15.6,4.992Z" />
    <path class="light-yellow" d="M3,2,3,0H4L4,2l-.5.5Zm.5,2.5L3,5V7H4V5Zm1-1L5,4,7,4V3L5,3Zm-2,0L2,3,0,3V4L2,4Zm1.708-.7h.708L6.328,1.378,5.62.671,4.208,2.088ZM2.792,4.206H2.085L.673,5.623l.707.706L2.793,4.913Zm1.414,0v.708L5.623,6.328l.706-.708L4.913,4.208ZM2.794,2.792V2.085L1.378.673.671,1.38,2.088,2.793Z" />
  </g>
</svg>
