<svg xmlns="http://www.w3.org/2000/svg" viewBox="0 0 16 16">
  <defs>
    <style>.canvas{fill: none; opacity: 0;}.light-defaultgrey{fill: #212121; opacity: 1;}.light-defaultgrey-10{fill: #212121; opacity: 0.1;}.light-yellow{fill: #996f00; opacity: 1;}</style>
  </defs>
  <title>NewPluginDocument</title>
  <g id="canvas">
    <path class="canvas" d="M16,16H0V0H16Z" />
  </g>
  <g id="level-1">
    <path class="light-defaultgrey" d="M5,14H3v2H2V14H0V13H2V11H3v2H5Z" />
    <path class="light-defaultgrey-10" d="M10.5,1.5H7.62l-.5.5H8V5H7.12l.62.62L5.62,7.74,5,7.12V8H2.5v2H4v2H6v2.5h7.5V4.5Z" />
    <path class="light-defaultgrey" d="M13.85,4.15l-3-3L10.5,1H7.36l.38.38L7.12,2H10V5h3v9H6v1h7.5l.5-.5V4.5ZM2,8v2H3V8Z" />
    <path class="light-yellow" d="M4,2l-.5.5L3,2V0H4ZM1.379.672l-.707.707L2.086,2.793l.7,0,0-.711ZM0,3V4H2l.5-.5L2,3ZM.672,5.621l.707.707L2.793,4.914l0-.7-.711,0ZM3,7H4V5l-.5-.5L3,5Zm2.621-.672.707-.707L4.914,4.207l-.7,0,0,.711ZM7,4V3H5l-.5.5L5,4ZM6.328,1.379,5.621.672,4.207,2.086l0,.7.711,0Z" />
  </g>
</svg>
