<svg xmlns="http://www.w3.org/2000/svg" viewBox="0 0 16 16">
  <defs>
    <style>.canvas{fill: none; opacity: 0;}.light-defaultgrey{fill: #212121; opacity: 1;}.light-blue-10{fill: #005dba; opacity: 0.1;}.light-blue{fill: #005dba; opacity: 1;}.light-defaultgrey-10{fill: #212121; opacity: 0.1;}.light-yellow{fill: #996f00; opacity: 1;}.cls-1{opacity:0.75;}</style>
  </defs>
  <title>IconLightNewPerformanceTrend</title>
  <g id="canvas" class="canvas">
    <path class="canvas" d="M16,16H0V0H16Z" />
  </g>
  <g id="level-1">
    <g class="cls-1">
      <path class="light-defaultgrey" d="M2,14V7.74a4.07,4.07,0,0,1-1-.5V14.5l.5.5H15V14Z" />
    </g>
    <path class="light-blue-10" d="M10.5,5.5l-2-2-.53.53a4.566,4.566,0,0,1-.21.92A4.509,4.509,0,0,1,4.95,7.76a4.566,4.566,0,0,1-.92.21L3.5,8.5v2l.5-.23L9,8l2,2,3.5-3.5v-5Z" />
    <path class="light-blue" d="M14.15,1.15,10.5,4.79,8.85,3.15h-.7l-.16.16A1.21,1.21,0,0,1,8,3.5a4.4,4.4,0,0,1-.24,1.45l.74-.74,1.65,1.64h.7L14,2.71V12H4V8.71l.95-.95A4.4,4.4,0,0,1,3.5,8a1.21,1.21,0,0,1-.19-.01l-.16.16L3,8.5v4l.5.5h11l.5-.5V1.5Z" />
    <path class="light-defaultgrey-10" d="M11,10,9,8,4,10.27l-.5.23v2h11v-6Z" />
    <path class="light-defaultgrey" d="M14.146,6.146,11,9.293,9.354,7.646l-.561-.1-5.5,2.5L3,10.5v2l.5.5h11l.5-.5v-6ZM14,12H4V10.82L8.891,8.6l1.755,1.755h.708L14,7.707Z" />
    <path class="light-yellow" d="M3,2,3,0H4L4,2l-.5.5Zm.5,2.5L3,5V7H4V5Zm1-1L5,4,7,4V3L5,3Zm-2,0L2,3,0,3V4L2,4Zm1.708-.7h.708L6.328,1.378,5.62.671,4.208,2.088ZM2.792,4.206H2.085L.673,5.623l.707.706L2.793,4.913Zm1.414,0v.708L5.623,6.328l.706-.708L4.913,4.208ZM2.794,2.792V2.085L1.378.673.671,1.38,2.088,2.793Z" />
  </g>
</svg>
