<svg xmlns="http://www.w3.org/2000/svg" viewBox="0 0 16 16">
  <defs>
    <style>.canvas{fill: none; opacity: 0;}.light-blue{fill: #005dba; opacity: 1;}.light-defaultgrey-10{fill: #212121; opacity: 0.1;}.light-defaultgrey{fill: #212121; opacity: 1;}.light-yellow{fill: #996f00; opacity: 1;}</style>
  </defs>
  <title>IconLightNewReportingAction</title>
  <g id="canvas" class="canvas">
    <path class="canvas" d="M16,16H0V0H16Z" />
  </g>
  <g id="level-1">
    <path class="light-blue" d="M14,11v2H11.71l1.14-1.15-.7-.7-2,2v.7l2,2,.7-.7L11.71,14H14.5l.5-.5V11Z" />
    <path class="light-defaultgrey-10" d="M5,8.5H.5v7h6V10Z" />
    <path class="light-defaultgrey" d="M6.85,9.65l-1.5-1.5L5,8H.5L0,8.5v7l.5.5h6l.5-.5V10ZM6,15H1V9H4v2H6Z" />
    <path class="light-defaultgrey-10" d="M11.5.42,7.89,2.51A4.621,4.621,0,0,1,8,3.5v.09a4.358,4.358,0,0,1-.5,1.97V7.34l4,2.31,4-2.31V2.73Z" />
    <path class="light-defaultgrey" d="M15.75,2.29l-4-2.31h-.5L7.74,2.01a2.88,2.88,0,0,1,.15.5A4.621,4.621,0,0,1,8,3.5v.09l3,1.73V8.79L8,7.06V3.59a4.358,4.358,0,0,1-.5,1.97,3.839,3.839,0,0,1-.5.76V7.34l.25.44,4,2.31h.5l4-2.31L16,7.34V2.73ZM15,7.06,12,8.79V5.32l3-1.73ZM8.5,2.73l3-1.74,3,1.74-3,1.73Z" />
    <path class="light-yellow" d="M3,2,3,0H4L4,2l-.5.5Zm.5,2.5L3,5V7H4V5Zm1-1L5,4,7,4V3L5,3Zm-2,0L2,3,0,3V4L2,4Zm1.708-.7h.708L6.328,1.378,5.62.671,4.208,2.088ZM2.792,4.206H2.085L.673,5.623l.707.706L2.793,4.913Zm1.414,0v.708L5.623,6.328l.706-.708L4.913,4.208ZM2.794,2.792V2.085L1.378.673.671,1.38,2.088,2.793Z" />
  </g>
</svg>
