<svg xmlns="http://www.w3.org/2000/svg" viewBox="0 0 16 16">
  <defs>
    <style>.canvas{fill: none; opacity: 0;}.light-red-10{fill: #c50b17; opacity: 0.1;}.light-red{fill: #c50b17; opacity: 1;}.light-yellow{fill: #996f00; opacity: 1;}.cls-1{opacity:0.75;}</style>
  </defs>
  <title>IconLightNewRecording</title>
  <g id="canvas" class="canvas">
    <path class="canvas" d="M16,16H0V0H16Z" />
  </g>
  <g id="level-1">
    <g class="cls-1">
      <path class="light-red-10" d="M8.01,1.5c-.16,0-.32.01-.47.02a4.248,4.248,0,0,1,.21.49A4.612,4.612,0,0,1,8,3.5a4.07,4.07,0,0,1-.03.5A4.478,4.478,0,0,1,4.01,7.97,4.361,4.361,0,0,1,3.5,8a4.507,4.507,0,0,1-1.48-.25,3.012,3.012,0,0,1-.49-.21c-.01.15-.02.31-.02.46a6.5,6.5,0,1,0,6.5-6.5Z" />
      <path class="light-red" d="M8.01,1a6.008,6.008,0,0,0-.74.04,3.717,3.717,0,0,1,.27.48,4.248,4.248,0,0,1,.21.49A2.175,2.175,0,0,1,8.01,2a6,6,0,1,1-6,6,2.008,2.008,0,0,1,.01-.25,3.012,3.012,0,0,1-.49-.21,2.272,2.272,0,0,1-.48-.27A5.846,5.846,0,0,0,1.01,8a7,7,0,1,0,7-7Z" />
    </g>
    <path class="light-red" d="M8.01,4H7.97A4.478,4.478,0,0,1,4.01,7.97V8a4,4,0,1,0,4-4Z" />
    <path class="light-yellow" d="M3,2,3,0H4L4,2l-.5.5Zm.5,2.5L3,5V7H4V5Zm1-1L5,4,7,4V3L5,3Zm-2,0L2,3,0,3V4L2,4Zm1.708-.7h.708L6.328,1.378,5.62.671,4.208,2.088ZM2.792,4.206H2.085L.673,5.623l.707.706L2.793,4.913Zm1.414,0v.708L5.623,6.328l.706-.708L4.913,4.208ZM2.794,2.792V2.085L1.378.673.671,1.38,2.088,2.793Z" />
  </g>
</svg>
