<svg xmlns="http://www.w3.org/2000/svg" viewBox="0 0 16 16">
  <defs>
    <style>.canvas{fill: none; opacity: 0;}.light-defaultgrey{fill: #212121; opacity: 1;}.light-defaultgrey-10{fill: #212121; opacity: 0.1;}.light-yellow{fill: #996f00; opacity: 1;}.cls-1{opacity:0.75;}</style>
  </defs>
  <title>IconLightNewStyleSheet</title>
  <g id="canvas" class="canvas">
    <path class="canvas" d="M16,16H0V0H16Z" />
  </g>
  <g id="level-1">
    <path class="light-defaultgrey" d="M11.5,7.4,7.47,13H8.84l.84-1.25h1.99L11.62,13H13V7.4Zm.29,1.5-.06,1.89H10.29l1.29-1.9a2.983,2.983,0,0,0,.27-.49h.03A2.806,2.806,0,0,0,11.79,8.9Z" />
    <g class="cls-1">
      <path class="light-defaultgrey-10" d="M11.5,1.5H7.53a4.4,4.4,0,0,1,.21.5A4.379,4.379,0,0,1,8,3.5,4.5,4.5,0,0,1,4,7.97,4.07,4.07,0,0,1,3.5,8v6.5h11V4.5Z" />
      <path class="light-defaultgrey" d="M14.85,4.15l-3-3L11.5,1H7.24a3.6,3.6,0,0,1,.29.5,4.4,4.4,0,0,1,.21.5H11V5h3v9H4V7.97a4.182,4.182,0,0,1-1,0V14.5l.5.5h11l.5-.5V4.5Z" />
    </g>
    <path class="light-yellow" d="M3,2,3,0H4L4,2l-.5.5Zm.5,2.5L3,5V7H4V5Zm1-1L5,4,7,4V3L5,3Zm-2,0L2,3,0,3V4L2,4Zm1.708-.7h.708L6.328,1.378,5.62.671,4.208,2.088ZM2.792,4.206H2.085L.673,5.623l.707.706L2.793,4.913Zm1.414,0v.708L5.623,6.328l.706-.708L4.913,4.208ZM2.794,2.792V2.085L1.378.673.671,1.38,2.088,2.793Z" />
  </g>
</svg>
