<svg xmlns="http://www.w3.org/2000/svg" viewBox="0 0 16 16">
  <defs>
    <style>.canvas{fill: none; opacity: 0;}.light-defaultgrey-10{fill: #212121; opacity: 0.1;}.light-defaultgrey{fill: #212121; opacity: 1;}.light-yellow{fill: #996f00; opacity: 1;}</style>
  </defs>
  <title>IconLightNewSchema</title>
  <g id="canvas" class="canvas">
    <path class="canvas" d="M16,16H0V0H16Z" />
  </g>
  <g id="level-1">
    <path class="light-defaultgrey-10" d="M3.5,10.5h4v4h-4ZM8,3a4.966,4.966,0,0,1-.254,1.5H11.5V.5h-4V.857A4.95,4.95,0,0,1,8,3Zm3.5,7.5v4h4v-4Z" />
    <path class="light-defaultgrey" d="M15.5,10H14V7.5L13.5,7H10V5h1.5l.5-.5V.5L11.5,0h-4L7.2.3A4.969,4.969,0,0,1,8,3V1h3V4H8V3a4.979,4.979,0,0,1-.422,2H9V7H5.973A5.016,5.016,0,0,1,5,7.578V10H3.5l-.5.5v4l.5.5h4l.5-.5v-4L7.5,10H6V8h7v2H11.5l-.5.5v4l.5.5h4l.5-.5v-4ZM7,11v3H4V11Zm8,3H12V11h3Z" />
    <path class="light-yellow" d="M3,2,3,0H4L4,2l-.5.5Zm.5,2.5L3,5V7H4V5Zm1-1L5,4,7,4V3L5,3Zm-2,0L2,3,0,3V4L2,4Zm1.708-.7h.708L6.328,1.378,5.62.671,4.208,2.088ZM2.792,4.206H2.085L.673,5.623l.707.706L2.793,4.913Zm1.414,0v.708L5.623,6.328l.706-.708L4.913,4.208ZM2.794,2.792V2.085L1.378.673.671,1.38,2.088,2.793Z" />
  </g>
</svg>
