<svg xmlns="http://www.w3.org/2000/svg" viewBox="0 0 16 16">
  <defs>
    <style>.canvas{fill: none; opacity: 0;}.light-blue-10{fill: #005dba; opacity: 0.1;}.light-blue{fill: #005dba; opacity: 1;}.light-defaultgrey{fill: #212121; opacity: 1;}.light-yellow{fill: #996f00; opacity: 1;}.cls-1{opacity:0.75;}</style>
  </defs>
  <title>NewTestConfigurationVariable</title>
  <g id="canvas">
    <path class="canvas" d="M16,16H0V0H16Z" />
  </g>
  <g id="level-1">
    <g class="cls-1">
      <path class="light-blue-10" d="M12.49,2.17,8,4.67V5H7.4l-.18.1.37.37.15.15-.98.99-.36.35-.4.4a3.82,3.82,0,0,1,.93,1.95,3.433,3.433,0,0,1,.03,1.01,2.5,2.5,0,0,1-.09.61L8.5,12.56l7-3.89V5.18Z" />
      <path class="light-blue" d="M15.85,4.82l-.11.79-.24.13v.01l-.5.28V8.38L9,11.71V9.36l-.26.14-.59-.08L8,9.27v2.09L6.96,10.32a2.5,2.5,0,0,1-.09.61.292.292,0,0,1-.02.09L8.8,12.97l6.94-3.86L16,8.67V5.18Z" />
    </g>
    <path class="light-blue-10" d="M12.49,2.17,8,4.67V5H7.4l-.18.1.37.37.15.15-.98.99-.36.35,2.1,2.1,7-3.88Z" />
    <path class="light-blue" d="M12.85,1.82l-.6-.09L8,4.09V5H7.12l.1.1.37.37,4.82-2.68,2.27,2.27L8.59,8.44,6.76,6.61l-.36.35-.36.36L8,9.27l.15.15.59.08L9,9.36l6-3.33.5-.28V5.74l.24-.13.11-.79Z" />
    <path class="light-defaultgrey" d="M5.69,11.27a2.98,2.98,0,0,0,.26-1.79,3.06,3.06,0,0,0-.84-1.62A.436.436,0,0,0,5,7.77V8H2.41L3.7,9.28,2.29,10.7l-2-1.99A3.053,3.053,0,0,0,.04,10.5a3.086,3.086,0,0,0,.83,1.61,2.949,2.949,0,0,0,1.61.83,3.018,3.018,0,0,0,1.8-.25L7.59,16H8.3l.7-.71v-.7Z" />
    <path class="light-yellow" d="M4,2l-.5.5L3,2V0H4ZM1.379.672l-.707.707L2.086,2.793l.7,0,0-.711ZM0,3V4H2l.5-.5L2,3ZM.672,5.621l.707.707L2.793,4.914l0-.7-.711,0ZM3,7H4V5l-.5-.5L3,5Zm2.621-.672.707-.707L4.914,4.207l-.7,0,0,.711ZM7,4V3H5l-.5.5L5,4ZM6.328,1.379,5.621.672,4.207,2.086l0,.7.711,0Z" />
  </g>
</svg>
