<svg xmlns="http://www.w3.org/2000/svg" viewBox="0 0 16 16">
  <defs>
    <style>.canvas{fill: none; opacity: 0;}.light-defaultgrey-10{fill: #212121; opacity: 0.1;}.light-defaultgrey{fill: #212121; opacity: 1;}.light-red-10{fill: #c50b17; opacity: 0.1;}.light-red{fill: #c50b17; opacity: 1;}.light-yellow{fill: #996f00; opacity: 1;}</style>
  </defs>
  <title>IconLightNewTransaction</title>
  <g id="canvas" class="canvas">
    <path class="canvas" d="M16,16H0V0H16Z" />
  </g>
  <g id="level-1">
    <path class="light-defaultgrey-10" d="M7.53,5.5a3.6,3.6,0,0,1-.29.5,4.168,4.168,0,0,1-.92,1,3.839,3.839,0,0,1-.76.5A4.478,4.478,0,0,1,3.5,8,4.07,4.07,0,0,1,3,7.97a4.16,4.16,0,0,1-1-.23,4.4,4.4,0,0,1-.5-.21V14.5h13v-9Z" />
    <path class="light-defaultgrey" d="M14.5,5H7.74a4.4,4.4,0,0,1-.21.5,3.6,3.6,0,0,1-.29.5H14v8H2V7.74a4.4,4.4,0,0,1-.5-.21A3.6,3.6,0,0,1,1,7.24V14.5l.5.5h13l.5-.5v-9Z" />
    <path class="light-defaultgrey" d="M10,7v6l3.5-3Z" />
    <path class="light-red-10" d="M5.56,7.5A4.478,4.478,0,0,1,3.5,8v4.5h5v-5Z" />
    <path class="light-red" d="M6,9a1,1,0,1,0,1,1A1,1,0,0,0,6,9ZM8.5,7H6.32a3.839,3.839,0,0,1-.76.5A4.478,4.478,0,0,1,3.5,8,4.07,4.07,0,0,1,3,7.97V12.5l.5.5h5l.5-.5v-5ZM6,8a2,2,0,1,1-2,2A2.006,2.006,0,0,1,6,8Zm0,3a1,1,0,1,0-1-1A1,1,0,0,0,6,11ZM6,9a1,1,0,1,0,1,1A1,1,0,0,0,6,9Z" />
    <path class="light-yellow" d="M3,2,3,0H4L4,2l-.5.5Zm.5,2.5L3,5V7H4V5Zm1-1L5,4,7,4V3L5,3Zm-2,0L2,3,0,3V4L2,4Zm1.708-.7h.708L6.328,1.378,5.62.671,4.208,2.088ZM2.792,4.206H2.085L.673,5.623l.707.706L2.793,4.913Zm1.414,0v.708L5.623,6.328l.706-.708L4.913,4.208ZM2.794,2.792V2.085L1.378.673.671,1.38,2.088,2.793Z" />
  </g>
</svg>
