<svg xmlns="http://www.w3.org/2000/svg" viewBox="0 0 16 16">
  <defs>
    <style>.canvas{fill: none; opacity: 0;}.light-defaultgrey-10{fill: #212121; opacity: 0.1;}.light-defaultgrey{fill: #212121; opacity: 1;}.light-teal-10{fill: #006758; opacity: 0.1;}.light-teal{fill: #006758; opacity: 1;}.light-yellow{fill: #996f00; opacity: 1;}.cls-1{opacity:0.75;}</style>
  </defs>
  <title>IconLightNewTest</title>
  <g id="canvas" class="canvas">
    <path class="canvas" d="M16,16H0V0H16Z" />
  </g>
  <g id="level-1">
    <g class="cls-1">
      <path class="light-defaultgrey-10" d="M12.674,11H5.326L7.5,7.667v-2.1A4.51,4.51,0,0,0,7.888,2.5H10.5V7.667Z" />
      <path class="light-defaultgrey" d="M7,6.328A4.481,4.481,0,0,0,8,3.5V7.667l-.081.273-2,3.06H5l-.416.232,0,0L7,7.519Zm6.419,4.9,0,0L13,11h-.923l-2-3.06L10,7.667V3H8v.5A4.513,4.513,0,0,0,7.744,2H12V3H11V7.519Z" />
    </g>
    <path class="light-teal-10" d="M13.675,15.5H4.325a1,1,0,0,1-.843-1.538L5,11.5h8l1.518,2.462A1,1,0,0,1,13.675,15.5Z" />
    <path class="light-teal" d="M13.676,16H4.324A1.5,1.5,0,0,1,3.06,13.693l1.514-2.456L5,11h8l.426.237L14.944,13.7A1.5,1.5,0,0,1,13.676,16Zm-8.4-4L3.907,14.225A.5.5,0,0,0,4.324,15h9.352a.5.5,0,0,0,.421-.77L12.721,12Z" />
    <path class="light-yellow" d="M3,2,3,0H4L4,2l-.5.5Zm.5,2.5L3,5V7H4V5Zm1-1L5,4,7,4V3L5,3Zm-2,0L2,3,0,3V4L2,4Zm1.708-.7h.708L6.328,1.378,5.62.671,4.208,2.088ZM2.792,4.206H2.085L.673,5.623l.707.706L2.793,4.913Zm1.414,0v.708L5.623,6.328l.706-.708L4.913,4.208ZM2.794,2.792V2.085L1.378.673.671,1.38,2.088,2.793Z" />
  </g>
</svg>
