<svg xmlns="http://www.w3.org/2000/svg" viewBox="0 0 16 16">
  <defs>
    <style>.canvas{fill: none; opacity: 0;}.light-defaultgrey-10{fill: #212121; opacity: 0.1;}.light-yellow{fill: #996f00; opacity: 1;}.light-defaultgrey{fill: #212121; opacity: 1;}</style>
  </defs>
  <title>IconLightNewTable</title>
  <g id="canvas" class="canvas">
    <path class="canvas" d="M16,16H0V0H16Z" />
  </g>
  <g id="level-1">
    <path class="light-defaultgrey-10" d="M14.5,2.5v11H2.5V7.88A4.471,4.471,0,0,0,8,3.5a4.516,4.516,0,0,0-.12-1Z" />
    <path class="light-yellow" d="M3,2,3,0H4L4,2l-.5.5ZM4,5,4,7H3L3,5l.5-.5ZM5,3,7,3V4L5,4l-.5-.5ZM2,4,0,4V3L2,3l.5.5ZM4.208,2.086,5.62.672l.708.706L4.915,2.793H4.208ZM2.792,4.914,1.38,6.328.672,5.622,2.085,4.207h.707Zm2.122-.706L6.328,5.62l-.706.708L4.207,4.915V4.208ZM2.086,2.792.672,1.38,1.378.672,2.793,2.085v.707Z" />
    <path class="light-defaultgrey" d="M14.5,2H7.724A4.431,4.431,0,0,1,7.95,3H14V4H7.95a4.431,4.431,0,0,1-.226,1H10V7H7V6.3A4.475,4.475,0,0,1,3.5,8H6v2H3V8h.5A4.445,4.445,0,0,1,2,7.724V13.5l.5.5h12l.5-.5V2.5ZM6,13H3V11H6Zm4,0H7V11h3Zm0-3H7V8h3Zm4,3H11V11h3Zm0-3H11V8h3Zm0-3H11V5h3Z" />
  </g>
</svg>
