<svg xmlns="http://www.w3.org/2000/svg" viewBox="0 0 16 16">
  <defs>
    <style>.canvas{fill: none; opacity: 0;}.light-defaultgrey-10{fill: #212121; opacity: 0.1;}.light-defaultgrey{fill: #212121; opacity: 1;}.light-blue-10{fill: #005dba; opacity: 0.1;}.light-blue{fill: #005dba; opacity: 1;}.light-yellow{fill: #996f00; opacity: 1;}</style>
  </defs>
  <title>IconLightNewTranslation</title>
  <g id="canvas" class="canvas">
    <path class="canvas" d="M16,16H0V0H16Z" />
  </g>
  <g id="level-1">
    <path class="light-defaultgrey-10" d="M11.5.43,7.89,2.53A4.437,4.437,0,0,1,8,3.5a4.493,4.493,0,0,1-.26,1.52A1.1,1.1,0,0,1,8,5a5.977,5.977,0,0,1,3,.8v.01a3.575,3.575,0,0,1,.52.34,3.483,3.483,0,0,1,.48.38,6.048,6.048,0,0,1,1.24,1.55c.08.14.15.29.22.44L15.5,7.5V2.76Z" />
    <path class="light-defaultgrey" d="M15.75,2.33,11.75,0h-.5L7.75,2.04a2.746,2.746,0,0,1,.14.49A4.437,4.437,0,0,1,8,3.5a4.493,4.493,0,0,1-.26,1.52A1.1,1.1,0,0,1,8,5V3.87l3,1.5v.44a3.575,3.575,0,0,1,.52.34q.24.18.48.39V5.37l3-1.5V7.19l-1.76.89c.08.14.15.29.22.44s.13.31.19.47l2.07-1.04L16,7.5V2.76ZM11.5,4.5,8.28,2.89,11.5,1.01l3.22,1.88Z" />
    <path class="light-blue-10" d="M8,6.5a4.625,4.625,0,0,0-1.34.2A4.524,4.524,0,0,1,4.84,7.8,4.5,4.5,0,1,0,8,6.5Z" />
    <path class="light-blue" d="M8,6a4.284,4.284,0,0,0-.81.07,3.542,3.542,0,0,1-.53.63A4.524,4.524,0,0,1,4.84,7.8a4.314,4.314,0,0,1-.81.17A4.927,4.927,0,0,0,3,11,5,5,0,1,0,8,6ZM5.57,12H4.14A4.091,4.091,0,0,1,4,11a4.091,4.091,0,0,1,.14-1H5.57a8.258,8.258,0,0,0-.07,1A8.258,8.258,0,0,0,5.57,12Zm.2,1a7.683,7.683,0,0,0,.72,1.7A4,4,0,0,1,4.56,13Zm1.06,0H9.17a6.809,6.809,0,0,1-1.06,1.99c-.04,0-.07.01-.11.01s-.07-.01-.11-.01A6.368,6.368,0,0,1,6.83,13Zm2.68,1.7a7.683,7.683,0,0,0,.72-1.7h1.21A4,4,0,0,1,9.51,14.7ZM9.17,9H6.83A6.368,6.368,0,0,1,7.89,7.01C7.93,7.01,7.96,7,8,7s.07.01.11.01A6.368,6.368,0,0,1,9.17,9Zm1.26,1h1.43A4.091,4.091,0,0,1,12,11a4.091,4.091,0,0,1-.14,1H10.43a8.258,8.258,0,0,0,.07-1A8.258,8.258,0,0,0,10.43,10Zm-.2-1a7.683,7.683,0,0,0-.72-1.7A4,4,0,0,1,11.44,9ZM6.59,10H9.41a6.638,6.638,0,0,1,.09,1,6.638,6.638,0,0,1-.09,1H6.59a6.638,6.638,0,0,1-.09-1A6.638,6.638,0,0,1,6.59,10Zm-.1-2.7A7.683,7.683,0,0,0,5.77,9H4.56A4,4,0,0,1,6.49,7.3Z" />
    <path class="light-yellow" d="M3,2,3,0H4L4,2l-.5.5Zm.5,2.5L3,5V7H4V5Zm1-1L5,4,7,4V3L5,3Zm-2,0L2,3,0,3V4L2,4Zm1.708-.7h.708L6.328,1.378,5.62.671,4.208,2.088ZM2.792,4.206H2.085L.673,5.623l.707.706L2.793,4.913Zm1.414,0v.708L5.623,6.328l.706-.708L4.913,4.208ZM2.794,2.792V2.085L1.378.673.671,1.38,2.088,2.793Z" />
  </g>
</svg>
