<svg xmlns="http://www.w3.org/2000/svg" viewBox="0 0 16 16">
  <defs>
    <style>.canvas{fill: none; opacity: 0;}.light-defaultgrey-10{fill: #212121; opacity: 0.1;}.light-defaultgrey{fill: #212121; opacity: 1;}.light-blue{fill: #005dba; opacity: 1;}.light-yellow{fill: #996f00; opacity: 1;}</style>
  </defs>
  <title>IconLightNewVideo</title>
  <g id="canvas" class="canvas">
    <path class="canvas" d="M16,16H0V0H16Z" />
  </g>
  <g id="level-1">
    <path class="light-defaultgrey-10" d="M7.89,2.5a4.331,4.331,0,0,1,.08.5A4.07,4.07,0,0,1,8,3.5a4.429,4.429,0,0,1-.64,2.31A4.531,4.531,0,0,1,6,7.24a4.492,4.492,0,0,1-5,0,3.249,3.249,0,0,1-.5-.4V13.5h15V2.5Z" />
    <path class="light-defaultgrey" d="M15.5,2H7.74a4.127,4.127,0,0,1,.15.5,4.331,4.331,0,0,1,.08.5H15V13H1V7.24a3.249,3.249,0,0,1-.5-.4A3.078,3.078,0,0,1,0,6.32V13.5l.5.5h15l.5-.5V2.5Z" />
    <path class="light-blue" d="M7.36,5.81A4.531,4.531,0,0,1,6,7.24V11l5-3Z" />
    <path class="light-yellow" d="M3,2,3,0H4L4,2l-.5.5Zm.5,2.5L3,5V7H4V5Zm1-1L5,4,7,4V3L5,3Zm-2,0L2,3,0,3V4L2,4Zm1.707-.7h.708L6.326,1.378,5.618.671,4.206,2.088ZM2.79,4.206H2.083L.671,5.623l.708.706L2.791,4.913Zm1.414,0v.708L5.621,6.328l.706-.708L4.911,4.208ZM2.792,2.792V2.085L1.376.673.669,1.38,2.086,2.793Z" />
  </g>
</svg>
