<svg xmlns="http://www.w3.org/2000/svg" viewBox="0 0 16 16">
  <defs>
    <style>.canvas{fill: none; opacity: 0;}.light-defaultgrey{fill: #212121; opacity: 1;}.light-defaultgrey-10{fill: #212121; opacity: 0.1;}.light-yellow{fill: #996f00; opacity: 1;}.cls-1{opacity:0.75;}</style>
  </defs>
  <title>NewVirtualEnvironment</title>
  <g id="canvas" class="canvas">
    <path class="canvas" d="M16,0V16H0V0Z" />
  </g>
  <g id="level-1">
    <path class="light-defaultgrey" d="M13.45,10.28,13,10H12v1h.69l1.5,3H2.81l1.5-3H5V10H4l-.45.28-2,4L2,15H15l.31-.5.14-.22Z" />
    <path class="light-defaultgrey-10" d="M13,10.5H12v-8a1.386,1.386,0,0,0-.09-.5.689.689,0,0,0-.03-.08.887.887,0,0,0-.14-.25,1.3,1.3,0,0,0-.18-.23,2.56,2.56,0,0,0-.26-.2,1.049,1.049,0,0,0-.28-.14c-.01,0-.01-.01-.02-.01A1.386,1.386,0,0,0,10.5,1H7.24a4.07,4.07,0,0,1,.5,1A4.379,4.379,0,0,1,8,3.5,4.473,4.473,0,0,1,6,7.24a4.07,4.07,0,0,1-1,.5V10.5H4l-2,4H15Z" />
    <path class="light-defaultgrey" d="M9,1V2h1V1ZM7,12v1H8V12Zm4-9V4h1V3Zm0,4V8h1V7Zm0,4v2h.5l.5-.5V11Zm0-2v1h1V9Zm0-4V6h1V5Zm.88-3.08a.887.887,0,0,0-.14-.25,1.3,1.3,0,0,0-.18-.23,2.56,2.56,0,0,0-.26-.2,1.049,1.049,0,0,0-.28-.14c-.01,0-.01-.01-.02-.01V2h.92A.2.2,0,0,0,11.88,1.92ZM9,12v1h1V12ZM5,9v1H6V9Zm.08-7h.01a.689.689,0,0,1,.03-.08A.2.2,0,0,0,5.08,2ZM5,7.74V8H6V7.24A4.07,4.07,0,0,1,5,7.74ZM5,11v1.5l.5.5H6V11ZM7.24,1a4.07,4.07,0,0,1,.5,1H8V1Z" />
    <g class="cls-1">
      <path class="light-defaultgrey" d="M8,4V5h2V4ZM7,8V9h3V8Zm0,2v1h3V10Z" />
    </g>
    <path class="light-yellow" d="M4,2l-.5.5L3,2V0H4ZM1.379.672l-.707.707L2.086,2.793l.7,0,0-.711ZM0,3V4H2l.5-.5L2,3ZM.672,5.621l.707.707L2.793,4.914l0-.7-.711,0ZM3,7H4V5l-.5-.5L3,5Zm2.621-.672.707-.707L4.914,4.207l-.7,0,0,.711ZM7,4V3H5l-.5.5L5,4ZM6.328,1.379,5.621.672,4.207,2.086l0,.7.711,0Z" />
  </g>
</svg>
