<svg xmlns="http://www.w3.org/2000/svg" viewBox="0 0 16 16">
  <defs>
    <style>.canvas{fill: none; opacity: 0;}.light-defaultgrey-10{fill: #212121; opacity: 0.1;}.light-defaultgrey{fill: #212121; opacity: 1;}.light-green{fill: #1f801f; opacity: 1;}.light-yellow{fill: #996f00; opacity: 1;}.cls-1{opacity:0.75;}</style>
  </defs>
  <title>IconLightNewWorkItem</title>
  <g id="canvas" class="canvas">
    <path class="canvas" d="M16,16H0V0H16Z" />
  </g>
  <g id="level-1">
    <g class="cls-1">
      <path class="light-defaultgrey-10" d="M11,9.88l2.5-2.5V3.5H8a4.07,4.07,0,0,1-.03.5A4.5,4.5,0,0,1,4,7.97,4.07,4.07,0,0,1,3.5,8v6.5h10V11.62l-1.73,1.73H10.23l-3.5-3.5L8.85,7.73Z" />
      <path class="light-defaultgrey" d="M13.5,3H7.97a4.182,4.182,0,0,1,0,1H13V7.88l1-1V3.5ZM13,14H4V7.97a4.182,4.182,0,0,1-1,0V14.5l.5.5h10l.5-.5V11l-1,1.12Z" />
    </g>
    <path class="light-green" d="M15.15,7.14,11,11.29,8.85,9.14l-.7.71,2.5,2.5h.7l4.5-4.5Z" />
    <path class="light-defaultgrey" d="M10.5,2A2,2,0,0,0,7,.68a4.038,4.038,0,0,1,.58.93A1,1,0,1,1,8.5,3a.967.967,0,0,1-.55-.17A.985.985,0,0,1,7.97,3a4.182,4.182,0,0,1,0,1H12V2Z" />
    <path class="light-yellow" d="M3,2,3,0H4L4,2l-.5.5Zm.5,2.5L3,5V7H4V5Zm1-1L5,4,7,4V3L5,3Zm-2,0L2,3,0,3V4L2,4Zm1.707-.7h.708L6.324,1.378,5.616.671,4.2,2.088ZM2.788,4.206H2.081L.669,5.623l.708.706L2.789,4.913Zm1.414,0v.708L5.619,6.328l.706-.708L4.909,4.208ZM2.79,2.792V2.085L1.374.673.667,1.38,2.084,2.793Z" />
  </g>
</svg>
