<svg xmlns="http://www.w3.org/2000/svg" viewBox="0 0 16 16">
  <defs>
    <style>.canvas{fill: none; opacity: 0;}.light-blue-10{fill: #005dba; opacity: 0.1;}.light-blue{fill: #005dba; opacity: 1;}.light-teal-10{fill: #006758; opacity: 0.1;}.light-teal{fill: #006758; opacity: 1;}.light-defaultgrey-10{fill: #212121; opacity: 0.1;}.light-defaultgrey{fill: #212121; opacity: 1;}.light-yellow{fill: #996f00; opacity: 1;}</style>
  </defs>
  <title>IconLightNewWebTest</title>
  <g id="canvas">
    <path class="canvas" d="M16,16H0V0H16Z" />
  </g>
  <g id="level-1">
    <path class="light-blue-10" d="M15.5,6a4.5,4.5,0,0,1-4.329,4.5L11,10.229V8h1V5H7.744A4.487,4.487,0,0,0,8,3.5a4.56,4.56,0,0,0-.069-.79A4.5,4.5,0,0,1,15.5,6Z" />
    <path class="light-blue" d="M11,1A4.975,4.975,0,0,0,7.8,2.163,4.493,4.493,0,0,1,8,3.381,3.95,3.95,0,0,1,9.487,2.3,7.486,7.486,0,0,0,8.775,4h-.8a4.476,4.476,0,0,1-.228,1h4.668A6.419,6.419,0,0,1,12.5,6a6.419,6.419,0,0,1-.088,1H12V8h.168a6.5,6.5,0,0,1-1.061,1.989c-.036,0-.07.011-.107.011v.229l.478.748A5,5,0,0,0,11,1ZM9.832,4a6.5,6.5,0,0,1,1.059-1.989C10.928,2.01,10.963,2,11,2s.072.01.11.011A6.54,6.54,0,0,1,12.168,4Zm4.612,0H13.225a7.486,7.486,0,0,0-.712-1.7A4.011,4.011,0,0,1,14.444,4ZM12.513,9.7A7.534,7.534,0,0,0,13.226,8h1.218A4.011,4.011,0,0,1,12.513,9.7ZM13.426,7A7.583,7.583,0,0,0,13.5,6a7.583,7.583,0,0,0-.074-1h1.432A3.939,3.939,0,0,1,15,6a3.939,3.939,0,0,1-.142,1Z" />
    <path class="light-teal-10" d="M11.6,13.962A1,1,0,0,1,10.76,15.5H5.24A1,1,0,0,1,4.4,13.962L5.33,12.5h5.34Z" />
    <path class="light-teal" d="M10.761,16H5.239a1.5,1.5,0,0,1-1.264-2.307l.933-1.463L5.33,12h5.34l.422.23.933,1.462A1.5,1.5,0,0,1,10.761,16ZM5.6,13l-.786,1.231A.5.5,0,0,0,5.239,15h5.522a.5.5,0,0,0,.421-.77L10.4,13Z" />
    <path class="light-defaultgrey-10" d="M10.351,12h-4.7L6.5,10.667V6.854A4.926,4.926,0,0,0,6.854,6.5H9.5v4.167Z" />
    <path class="light-defaultgrey" d="M11.091,12.23,10.67,12H9.757l-.679-1.063L9,10.667V7H7v3.667l-.078.27L6.243,12H5.33l-.421.23L6,10.521V7.242A4.532,4.532,0,0,0,7.242,6H11V7H10v3.521Z" />
    <path class="light-yellow" d="M4,2l-.5.5L3,2V0H4ZM1.379.672l-.707.707L2.086,2.793l.7,0,0-.711ZM0,3V4H2l.5-.5L2,3ZM.672,5.621l.707.707L2.793,4.914l0-.7-.711,0ZM3,7H4V5l-.5-.5L3,5Zm2.621-.672.707-.707L4.914,4.207l-.7,0,0,.711ZM7,4V3H5l-.5.5L5,4ZM6.328,1.379,5.621.672,4.207,2.086l0,.7.711,0Z" />
  </g>
</svg>
