<svg xmlns="http://www.w3.org/2000/svg" viewBox="0 0 16 16">
  <defs>
    <style>.canvas{fill: none; opacity: 0;}.light-defaultgrey-10{fill: #212121; opacity: 0.1;}.light-defaultgrey{fill: #212121; opacity: 1;}.light-blue{fill: #005dba; opacity: 1;}</style>
  </defs>
  <title>NextBookmark</title>
  <g id="canvas">
    <path class="canvas" d="M16,16H0V0H16Z" />
  </g>
  <g id="level-1">
    <path class="light-defaultgrey-10" d="M13.5,1.5V14L9,9.5,4.5,14V9.414l1.1,1.1,3.25-3.25V5.732L5.6,2.482l-1.1,1.1V1.5Z" />
    <path class="light-defaultgrey" d="M14,1.5v13l-.872.335L9,10.247,4.872,14.835,4,14.5V8.914l1,1V13.2L8.628,9.165h.744L13,13.2V2H5V3.086l-1,1V1.5L4.5,1h9Z" />
    <path class="light-blue" d="M0,6H6.293L4.9,4.6,5.6,3.9l2.25,2.25v.708L5.6,9.1,4.9,8.4,6.293,7H0Z" />
  </g>
</svg>
