<svg xmlns="http://www.w3.org/2000/svg" viewBox="0 0 16 16">
  <defs>
    <style>.canvas{fill: none; opacity: 0;}.light-defaultgrey{fill: #212121; opacity: 1;}.light-blue{fill: #005dba; opacity: 1;}.cls-1{opacity:0.75;}</style>
  </defs>
  <title>IconLightNextPause</title>
  <g id="canvas" class="canvas">
    <path class="canvas" d="M16,16H0V0H16Z" />
  </g>
  <g id="level-1">
    <g class="cls-1">
      <path class="light-defaultgrey" d="M13.5,4.5v9h-3v-9Zm-6,1.119V13.5h-3V6.912l.854.854Z" />
    </g>
    <path class="light-blue" d="M7.854,3.145v.707l-2.5,2.5-.708-.707L6.291,4H0V3H6.3L4.646,1.352,5.354.645Z" />
    <path class="light-defaultgrey" d="M8,5.119V13.5l-.5.5h-3L4,13.5V6.412l1,1V13H7V6.119ZM14,4.5v9l-.5.5h-3l-.5-.5v-9l.5-.5h3ZM13,5H11v8h2Z" />
  </g>
</svg>
