<svg xmlns="http://www.w3.org/2000/svg" viewBox="0 0 16 16">
  <defs>
    <style>.canvas{fill: none; opacity: 0;}.light-defaultgrey-10{fill: #212121; opacity: 0.1;}.light-defaultgrey{fill: #212121; opacity: 1;}.light-blue{fill: #005dba; opacity: 1;}.cls-1{opacity:0.75;}</style>
  </defs>
  <title>IconLightNextDocument</title>
  <g id="canvas" class="canvas">
    <path class="canvas" d="M16,16H0V0H16Z" />
  </g>
  <g id="level-1">
    <g class="cls-1">
      <path class="light-defaultgrey-10" d="M10.5,1.5h-8V8H5.88L4.73,6.85,6.85,4.73l4,4v1.54l-4,4L6.58,14,4.73,12.15,5.88,11H2.5v3.5h11V4.5Z" />
      <path class="light-defaultgrey" d="M13.85,4.15l-3-3L10.5,1h-8L2,1.5V8H3V2h7V5h3v9H7.12l-.27.27L6.58,14H3V11H2v3.5l.5.5h11l.5-.5V4.5Z" />
    </g>
    <path class="light-blue" d="M6.85,6.15l-.7.7L8.29,9H0v1H8.29L6.15,12.15l.7.7,3-3v-.7Z" />
  </g>
</svg>
