<svg xmlns="http://www.w3.org/2000/svg" viewBox="0 0 16 16">
  <defs>
    <style>.canvas{fill: none; opacity: 0;}.light-blue-10{fill: #005dba; opacity: 0.1;}.light-red{fill: #c50b17; opacity: 1;}.light-defaultgrey{fill: #212121; opacity: 1;}.light-blue{fill: #005dba; opacity: 1;}.white{fill: #ffffff; opacity: 1;}.cls-1{opacity:0.75;}</style>
  </defs>
  <title>IconLightNoPersistScope</title>
  <g id="canvas">
    <path class="canvas" d="M16,0V16H0V0Z" />
  </g>
  <g id="level-1">
    <path class="light-blue-10" d="M7.05,12.5H3.515v-9h7.5l1.5,1.5V7.052A4.881,4.881,0,0,0,12,7a5,5,0,0,0-5,5C7,12.171,7.034,12.332,7.05,12.5Z" />
    <path class="light-red" d="M12,8a4,4,0,1,0,4,4A4,4,0,0,0,12,8Z" />
    <path class="light-defaultgrey" d="M1.5,1H6V2H2V6H1V1.5Zm0,14H6V14H2V10H1v4.5Zm13-14H10V2h4V6h1V1.5Z" />
    <g class="cls-1">
      <path class="light-blue" d="M8.023,9H6v3H5V8.5L5.5,8H9.027A4.981,4.981,0,0,0,8.023,9Z" />
    </g>
    <path class="light-blue" d="M7,12H4V4H5V7h5V4h.793L12,5.208V7a4.988,4.988,0,0,1,1,.1V5l-.146-.354-1.5-1.5L11,3H3.5L3,3.5v9.017L3.485,13H7.1A4.985,4.985,0,0,1,7,12ZM6,4H9V6H6Z" />
    <path class="white" d="M14,12.5H10v-1h4Z" />
  </g>
</svg>
