<svg xmlns="http://www.w3.org/2000/svg" viewBox="0 0 16 16">
  <defs>
    <style>.canvas{fill: none; opacity: 0;}.light-defaultgrey-10{fill: #212121; opacity: 0.1;}.light-defaultgrey{fill: #212121; opacity: 1;}.light-blue{fill: #005dba; opacity: 1;}.cls-1{opacity:0.5;}</style>
  </defs>
  <title>IconLightNote</title>
  <g id="canvas">
    <path class="canvas" d="M16,0V16H0V0Z" />
  </g>
  <g id="level-1">
    <path class="light-defaultgrey-10" d="M13.5,3.5v10H1.5V3.5H5.224A2.507,2.507,0,0,0,6,4.493V7H9V4.493A2.507,2.507,0,0,0,9.776,3.5Z" />
    <g class="cls-1">
      <path class="light-defaultgrey" d="M8,6H7V2H8Z" />
    </g>
    <path class="light-blue" d="M9,2.5A1.5,1.5,0,1,1,7.5,1,1.5,1.5,0,0,1,9,2.5Z" />
    <path class="light-defaultgrey" d="M14,3.5v10l-.5.5H1.5L1,13.5V3.5L1.5,3H5.06a2.477,2.477,0,0,0,.459,1H2v9H13V4H9.481A2.477,2.477,0,0,0,9.94,3H13.5Z" />
  </g>
</svg>
