<svg xmlns="http://www.w3.org/2000/svg" viewBox="0 0 16 16">
  <defs>
    <style>.canvas{fill: none; opacity: 0;}.light-defaultgrey-10{fill: #212121; opacity: 0.1;}.light-defaultgrey{fill: #212121; opacity: 1;}.light-blue{fill: #005dba; opacity: 1;}.white{fill: #ffffff; opacity: 1;}</style>
  </defs>
  <title>IconLightNumericListBox</title>
  <g id="canvas">
    <path class="canvas" d="M16,16H0V0H16Z" />
  </g>
  <g id="level-1">
    <path class="light-defaultgrey-10" d="M15,13.5H1.5V1.5H15Z" />
    <path class="light-defaultgrey" d="M15,14H1.5L1,13.5V1.5L1.5,1H15V2H2V13H15Z" />
    <path class="light-defaultgrey" d="M10,7h5V8H10Z" />
    <path class="light-blue" d="M15,13H10V9h5ZM15,2H10V6h5Z" />
    <path class="white" d="M14,10H11l1.5,2ZM12.5,3.031,14,5H11.017Z" />
    <path class="light-defaultgrey" d="M6,2.705V7H5.077V3.748a1.06,1.06,0,0,1-.18.127,1.816,1.816,0,0,1-.221.109,1.926,1.926,0,0,1-.243.082,1.733,1.733,0,0,1-.249.048V3.335a3.784,3.784,0,0,0,.679-.27,3.775,3.775,0,0,0,.577-.36Z" />
    <path class="light-defaultgrey" d="M5.014,11.232H6.8V12H4v-.316a1.479,1.479,0,0,1,.108-.579,1.949,1.949,0,0,1,.273-.46,2.4,2.4,0,0,1,.359-.36c.13-.1.253-.2.37-.283s.231-.172.324-.252a1.857,1.857,0,0,0,.234-.238.921.921,0,0,0,.143-.241.717.717,0,0,0,.046-.259A.521.521,0,0,0,5.705,8.6a.681.681,0,0,0-.466-.137A1.564,1.564,0,0,0,4.2,8.9V8.083a2.227,2.227,0,0,1,1.236-.354,1.818,1.818,0,0,1,.573.083,1.192,1.192,0,0,1,.429.239,1,1,0,0,1,.268.377,1.256,1.256,0,0,1,.093.493,1.389,1.389,0,0,1-.09.516,1.562,1.562,0,0,1-.237.41,2.232,2.232,0,0,1-.341.339c-.129.1-.263.2-.4.3-.093.067-.184.133-.271.2s-.163.131-.23.193a1.106,1.106,0,0,0-.158.187A.318.318,0,0,0,5.014,11.232Z" />
  </g>
</svg>
