<svg xmlns="http://www.w3.org/2000/svg" viewBox="0 0 16 16">
  <defs>
    <style>.canvas{fill: none; opacity: 0;}.light-defaultgrey-10{fill: #212121; opacity: 0.1;}.light-defaultgrey{fill: #212121; opacity: 1;}</style>
  </defs>
  <title>OData</title>
  <g id="canvas">
    <path class="canvas" d="M16,16H0V0H16Z" />
  </g>
  <g id="level-1">
    <path class="light-defaultgrey-10" d="M14.5,1.5v13H1.5V1.5Z" />
    <path class="light-defaultgrey" d="M14.5,1H1.5L1,1.5v13l.5.5h13l.5-.5V1.5ZM14,14H2V2H14ZM7,4H3V3H7ZM7,6H3V5H7ZM7,8H3V7H7Zm6-4H9V3h4Zm0,2H9V5h4Zm0,2H9V7h4Zm0,2H9V9h4ZM5,13a2,2,0,1,0-2-2A2,2,0,0,0,5,13Zm0-3a1,1,0,1,1-1,1A1,1,0,0,1,5,10Z" />
  </g>
</svg>
