<svg xmlns="http://www.w3.org/2000/svg" viewBox="0 0 16 16">
  <defs>
    <style>.canvas{fill: none; opacity: 0;}.light-lightblue-10{fill: #0077a0; opacity: 0.1;}.light-lightblue{fill: #0077a0; opacity: 1;}.light-blue-10{fill: #005dba; opacity: 0.1;}.light-blue{fill: #005dba; opacity: 1;}</style>
  </defs>
  <title>OnPremisesDatabase</title>
  <g id="canvas">
    <path class="canvas" d="M16,16H0V0H16Z" />
  </g>
  <g id="level-1">
    <path class="light-lightblue-10" d="M8.04,1.5c-2.16,0-4.5.57-4.5,1.5V6H6.91L8,7.09V13.5h.04c2.48,0,4.5-.67,4.5-1.5V3C12.54,2.07,10.21,1.5,8.04,1.5Z" />
    <path class="light-lightblue" d="M8,1C5.59,1,3,1.63,3,3a.789.789,0,0,0,.05.3.523.523,0,0,0,.06.16,1.274,1.274,0,0,0,.31.4.524.524,0,0,0,.11.1l.01.01a1.7,1.7,0,0,0,.14.1c.08.05.17.11.27.16A.219.219,0,0,0,4,4.26,9.495,9.495,0,0,0,8,5a9.495,9.495,0,0,0,4-.74.219.219,0,0,0,.05-.03c.1-.05.19-.11.27-.16a.583.583,0,0,0,.15-.11c.02-.02.05-.04.07-.06a.078.078,0,0,0,.04-.04,1.274,1.274,0,0,0,.31-.4.523.523,0,0,0,.06-.16A.789.789,0,0,0,13,3C13,1.63,10.41,1,8,1ZM8,4C5.38,4,4,3.26,4,3S5.38,2,8,2s4,.74,4,1S10.62,4,8,4Zm4.95-.7a.442.442,0,0,1-.06.16,1.274,1.274,0,0,1-.31.4c-.01.01-.02.03-.04.04v.01c-.02.01-.04.03-.07.05a.583.583,0,0,1-.15.11,1.749,1.749,0,0,1-.27.16.219.219,0,0,1-.05.03V12c0,.23-1.25,1-4,1v1c2.41,0,5-.63,5-2V3A.789.789,0,0,1,12.95,3.3Zm-9.27.77a1.7,1.7,0,0,1-.14-.1l-.01-.01c-.04-.04-.08-.07-.11-.1a1.274,1.274,0,0,1-.31-.4.442.442,0,0,1-.06-.16A.789.789,0,0,1,3,3V6H4V4.26a.219.219,0,0,1-.05-.03A1.749,1.749,0,0,1,3.68,4.07Z" />
    <path class="light-blue-10" d="M.3,15.5v-8H6.7v8Z" />
    <path class="light-blue" d="M5,12H4V11H5ZM5,9H4v1H5ZM3,9H2v1H3Zm0,2H2v1H3ZM7,7.5V16H0V7.5L.5,7h6ZM6,8H1v7H3V13H4v2H6Z" />
  </g>
</svg>
