<svg xmlns="http://www.w3.org/2000/svg" viewBox="0 0 16 16">
  <defs>
    <style>.canvas{fill: none; opacity: 0;}.light-defaultgrey-10{fill: #212121; opacity: 0.1;}.light-green{fill: #1f801f; opacity: 1;}.light-defaultgrey{fill: #212121; opacity: 1;}.light-blue{fill: #005dba; opacity: 1;}</style>
  </defs>
  <title>OpenPerformanceResult</title>
  <g id="canvas">
    <path class="canvas" d="M16,16H0V0H16Z" />
  </g>
  <g id="level-1">
    <path class="light-defaultgrey-10" d="M6.85,2.5v.62l-3,3L3,5.27l-.5-.51V12.5h12V2.5Z" />
    <path class="light-green" d="M11.85,5.15h-.7L7.5,8.79,5.85,7.15h-.7L3,9.29v1.42l2.5-2.5L7.15,9.85h.7L11.5,6.21,14,8.71V7.29Z" />
    <path class="light-defaultgrey" d="M14.5,2H6.85V3H14v9H3V5.27l-.5-.51-.38-.38A.939.939,0,0,0,2,4.85V12.5l.5.5h12l.5-.5V2.5Z" />
    <path class="light-blue" d="M5.854,2v.707l-2,2L3.147,4,4.293,2.854H3a2,2,0,0,0-2,2v1H0v-1a3,3,0,0,1,3-3H4.293L3.147.707,3.854,0Z" />
  </g>
</svg>
