<svg xmlns="http://www.w3.org/2000/svg" viewBox="0 0 16 16">
  <defs>
    <style>.canvas{fill: none; opacity: 0;}.light-blue-10{fill: #005dba; opacity: 0.1;}.light-blue{fill: #005dba; opacity: 1;}</style>
  </defs>
  <title>OpenWebSite</title>
  <g id="canvas">
    <path class="canvas" d="M16,16H0V0H16Z" />
  </g>
  <g id="level-1">
    <path class="light-blue-10" d="M12.6,3.4A6.509,6.509,0,0,0,8,1.5a5.535,5.535,0,0,0-1.15.11V3.12l-3,3L2.41,4.68A6.152,6.152,0,0,0,2,5.49V6.85H1.6a6.5,6.5,0,0,0,11.8,4.76,6.5,6.5,0,0,0-.8-8.21Z" />
    <path class="light-blue" d="M12.95,3.05A7.019,7.019,0,0,0,8,1a6.788,6.788,0,0,0-1.56.18l.41.41V3.12L3.97,6H4.7a10.354,10.354,0,0,0,0,4H2.35a5.889,5.889,0,0,1,0-4H3.73L2.41,4.68l-.29-.3A.939.939,0,0,0,2,4.85v2H1.1a6.679,6.679,0,0,0,.03,2.52A7,7,0,1,0,12.95,3.05ZM8,14c-.13,0-.25-.01-.37-.02A9.525,9.525,0,0,1,6,11h4.01a9.525,9.525,0,0,1-1.63,2.98C8.25,13.99,8.13,14,8,14Zm3.05-3h2.14a6.067,6.067,0,0,1-3.4,2.73A10.733,10.733,0,0,0,11.05,11Zm2.14-6H11.05A10.577,10.577,0,0,0,9.79,2.27,6.067,6.067,0,0,1,13.19,5ZM11.3,10a10.354,10.354,0,0,0,0-4h2.35a5.85,5.85,0,0,1,0,4ZM7.63,2.02C7.75,2.01,7.87,2,8,2s.25.01.37.02A9.327,9.327,0,0,1,10,5H6A9.525,9.525,0,0,1,7.63,2.02ZM5.72,6h4.56a9.648,9.648,0,0,1,.22,2,9.648,9.648,0,0,1-.22,2H5.72A9.648,9.648,0,0,1,5.5,8,9.648,9.648,0,0,1,5.72,6Zm-.77,5a10.256,10.256,0,0,0,1.26,2.73A6.067,6.067,0,0,1,2.81,11Z" />
    <path class="light-blue" d="M5.854,2v.707l-2,2L3.147,4,4.293,2.854H3a2,2,0,0,0-2,2v1H0v-1a3,3,0,0,1,3-3H4.293L3.147.707,3.854,0Z" />
  </g>
</svg>
