<svg xmlns="http://www.w3.org/2000/svg" viewBox="0 0 16 16">
  <defs>
    <style>.canvas{fill: none; opacity: 0;}.light-defaultgrey-10{fill: #212121; opacity: 0.1;}.light-defaultgrey{fill: #212121; opacity: 1;}.light-defaultgrey-25{fill: #212121; opacity: 0.25;}.light-blue{fill: #005dba; opacity: 1;}.cls-1{opacity:0.75;}</style>
  </defs>
  <title>OpenDocumentFromCollection</title>
  <g id="canvas" class="canvas">
    <path class="canvas" d="M16,16H0V0H16Z" />
  </g>
  <g id="level-1">
    <g class="cls-1">
      <path class="light-defaultgrey-10" d="M8.5,2.5V6h4l.5.5v5h2.5v-9Z" />
      <path class="light-defaultgrey-10" d="M5.62,4.5l-.5.5L3.85,6.27,3,5.42l-.5-.51V13.5H5v-7L5.5,6H8V4.5Z" />
      <path class="light-defaultgrey" d="M15.5,2h-7L8,2.5V4H6.12l-1,1H8V6H9V3h6v8H13v1h2.5l.5-.5v-9ZM3,5.42l-.5-.51-.38-.38A.939.939,0,0,0,2,5v8.5l.5.5H5V13H3Z" />
    </g>
    <path class="light-defaultgrey-10" d="M5.5,6.5v9h7v-9Z" />
    <path class="light-defaultgrey" d="M12.5,6h-7L5,6.5v9l.5.5h7l.5-.5v-9ZM12,15H6V7h6Z" />
    <path class="light-defaultgrey-25" d="M9,11V7H8v4.5l.5.5H12V11Z" />
    <path class="light-blue" d="M5.854,2.146v.708l-2,2-.708-.708L4.293,3H3A2,2,0,0,0,1,5V6H0V5A3,3,0,0,1,3,2H4.293L3.146.854,3.854.146Z" />
  </g>
</svg>
