<svg xmlns="http://www.w3.org/2000/svg" viewBox="0 0 16 16">
  <defs>
    <style>.canvas{fill: none; opacity: 0;}.light-defaultgrey-10{fill: #212121; opacity: 0.1;}.light-defaultgrey{fill: #212121; opacity: 1;}.light-yellow-10{fill: #996f00; opacity: 0.1;}.light-yellow{fill: #996f00; opacity: 1;}.light-blue{fill: #005dba; opacity: 1;}.cls-1{opacity:0.75;}</style>
  </defs>
  <title>OpenQuery</title>
  <g id="canvas">
    <path class="canvas" d="M16,16H0V0H16Z" />
  </g>
  <g id="level-1">
    <g class="cls-1">
      <path class="light-defaultgrey-10" d="M6.47,3.5,4.97,5H13.5l.5.5v7h1.5v-9Zm-1.97,9v-6h-2v9h11v-3Z" />
      <path class="light-defaultgrey" d="M15.5,2H6.85V3.12L5.97,4H15v8H14V5.5L13.5,5H5V4.97L3.85,6.12,2.74,5H2.5L2,5.5v10l.5.5h11l.5-.5V13h1.5l.5-.5V2.5ZM13,7v8H3V7Z" />
    </g>
    <path class="light-yellow-10" d="M13.5,6.5v6h-9v-6Z" />
    <path class="light-yellow" d="M13.5,6h-9L4,6.5v6l.5.5h9l.5-.5v-6ZM13,12H5V7h8Zm-1-2H6V9h6Z" />
    <path class="light-blue" d="M5.854,2v.707l-2,2L3.147,4,4.293,2.854H3a2,2,0,0,0-2,2v1H0v-1a3,3,0,0,1,3-3H4.293L3.147.707,3.854,0Z" />
  </g>
</svg>
