<svg xmlns="http://www.w3.org/2000/svg" viewBox="0 0 16 16">
  <defs>
    <style>.canvas{fill: none; opacity: 0;}.light-yellow-10{fill: #996f00; opacity: 0.1;}.light-yellow-25{fill: #996f00; opacity: 0.25;}.light-yellow{fill: #996f00; opacity: 1;}.light-blue{fill: #005dba; opacity: 1;}.light-defaultgrey-10{fill: #212121; opacity: 0.1;}.light-defaultgrey{fill: #212121; opacity: 1;}</style>
  </defs>
  <title>OpenProjectFolder</title>
  <g id="canvas" class="canvas">
    <path class="canvas" d="M16,16H0V0H16Z" />
  </g>
  <g id="level-1">
    <path class="light-yellow-10" d="M1.5,4.5v7.48L2,10.73l.97-2.42L3.43,8H3.5V4.5ZM9,7V6H8.5V8h3V7Z" />
    <path class="light-yellow-25" d="M14.5,8.5l-2,5H1.5l2-5Z" />
    <path class="light-yellow-25" d="M12,13H11V9h1Z" />
    <path class="light-yellow" d="M14.43,8H12V7H11V8H3.43l-.46.31L2,10.8V5H3.5V4h-2L1,4.5v8.86l.43.64h11l.46-.31,2-5Zm-2.34,5H2.17l1.6-4h9.92Z" />
    <path class="light-blue" d="M15.854,2.146v.708l-2,2-.707-.708L14.293,3H13a2,2,0,0,0-2,2V6H10V5a3,3,0,0,1,3-3h1.293L13.147.854l.707-.708Z" />
    <path class="light-defaultgrey-10" d="M7,2.5H3.5V8h5V4Z" />
    <path class="light-defaultgrey" d="M8.85,3.65l-1.5-1.5L7,2H3.5L3,2.5V8.29L3.43,8H4V3H6V5H8V8H9V4Z" />
  </g>
</svg>
