<svg xmlns="http://www.w3.org/2000/svg" viewBox="0 0 16 16">
  <defs>
    <style>.canvas{fill: none; opacity: 0;}.light-defaultgrey-10{fill: #212121; opacity: 0.1;}.light-blue-10{fill: #005dba; opacity: 0.1;}.light-defaultgrey{fill: #212121; opacity: 1;}.light-blue{fill: #005dba; opacity: 1;}</style>
  </defs>
  <title>IconLightOperatorSealed</title>
  <g id="canvas">
    <path class="canvas" d="M16,0V16H0V0Z" />
  </g>
  <g id="level-1">
    <path class="light-defaultgrey-10" d="M12.5,9.5a3,3,0,1,1-3,3A3,3,0,0,1,12.5,9.5Z" />
    <path class="light-blue-10" d="M8,12.5H1.5V2.5h10V8.12A4.5,4.5,0,0,0,8,12.5Z" />
    <path class="light-defaultgrey" d="M9,12.5A3.5,3.5,0,1,0,12.5,9,3.5,3.5,0,0,0,9,12.5Zm6,0a2.489,2.489,0,0,1-.416,1.377l-3.461-3.461A2.5,2.5,0,0,1,15,12.5Zm-5,0a2.489,2.489,0,0,1,.416-1.377l3.461,3.461A2.5,2.5,0,0,1,10,12.5Z" />
    <path class="light-blue" d="M10,6H7V5h3ZM9.149,9.523,10.028,8H8.874L7.142,11H8.276A4.448,4.448,0,0,1,9.149,9.523ZM8,12.5a4.576,4.576,0,0,1,.05-.5H2V3h9V8.276a4.431,4.431,0,0,1,1-.226V2.5L11.5,2H1.5L1,2.5v10l.5.5H8.05A4.576,4.576,0,0,1,8,12.5ZM6,5H5V4H4V5H3V6H4V7H5V6H6ZM3,11H6V10H3ZM6,8H3V9H6Z" />
  </g>
</svg>
