<svg xmlns="http://www.w3.org/2000/svg" viewBox="0 0 16 16">
  <defs>
    <style>.canvas{fill: none; opacity: 0;}.light-defaultgrey-10{fill: #212121; opacity: 0.1;}.light-blue-10{fill: #005dba; opacity: 0.1;}.light-defaultgrey{fill: #212121; opacity: 1;}.light-blue{fill: #005dba; opacity: 1;}</style>
  </defs>
  <title>IconLightOperatorShortcut</title>
  <g id="canvas">
    <path class="canvas" d="M16,0V16H0V0Z" />
  </g>
  <g id="level-1">
    <path class="light-defaultgrey-10" d="M15.5,8.5v7h-7v-7Z" />
    <path class="light-blue-10" d="M7,12.5H1.5V2.5h10V7H8.086L7,8.086Z" />
    <path class="light-defaultgrey" d="M15.5,8h-7L8,8.5v7l.5.5h7l.5-.5v-7ZM15,15H9V9h6Zm-1-4.5V14H13V11.707l-2.646,2.647-.708-.708L12.293,11H10V10h3.5Z" />
    <path class="light-blue" d="M6,9H3V8H6Zm1,3H2V3h9V7h1V2.5L11.5,2H1.5L1,2.5v10l.5.5H7ZM7,6h3V5H7ZM3,11H6V10H3ZM6,5H5V4H4V5H3V6H4V7H5V6H6Z" />
  </g>
</svg>
