<svg xmlns="http://www.w3.org/2000/svg" viewBox="0 0 16 16">
  <defs>
    <style>.canvas{fill: none; opacity: 0;}.light-defaultgrey-10{fill: #212121; opacity: 0.1;}.light-defaultgrey{fill: #212121; opacity: 1;}.light-lightblue{fill: #0077a0; opacity: 1;}.light-blue{fill: #005dba; opacity: 1;}.cls-1{opacity:0.75;}</style>
  </defs>
  <title>IconLightOptimizePivotTable</title>
  <g id="canvas" class="canvas">
    <path class="canvas" d="M16,16H0V0H16Z" />
  </g>
  <g id="level-1">
    <path class="light-defaultgrey-10" d="M15.5,5.5v9h-9v-9Z" />
    <path class="light-defaultgrey" d="M15.5,5h-9L6,5.5v9l.5.5h9l.5-.5v-9ZM15,14H7V6h8Z" />
    <path class="light-defaultgrey" d="M10,9H8V7h2Z" />
    <path class="light-lightblue" d="M14,9H11V7h3Z" />
    <path class="light-lightblue" d="M8,13V10h2v3Z" />
    <g class="cls-1">
      <path class="light-defaultgrey-10" d="M5,8.5H2.5V2h12V4H6.086L5,5.086Z" />
      <path class="light-defaultgrey" d="M5,9H2.5L2,8.5v-7L2.5,1h12l.5.5V4H14V3H11V4H10V3H7V4H6.086L6,4.086V3H3V5H5.086L5,5.086V6H3V8H5Z" />
    </g>
    <path class="light-blue" d="M5,10.5V14H4V11.707L1.354,14.354l-.708-.708L3.293,11H1V10H4.5Z" />
  </g>
</svg>
