<svg xmlns="http://www.w3.org/2000/svg" viewBox="0 0 16 16">
  <defs>
    <style>.canvas{fill: none; opacity: 0;}.light-defaultgrey-10{fill: #212121; opacity: 0.1;}.light-defaultgrey{fill: #212121; opacity: 1;}.light-blue{fill: #005dba; opacity: 1;}</style>
  </defs>
  <title>OrderAscending</title>
  <g id="canvas">
    <path class="canvas" d="M16,16H0V0H16Z" />
  </g>
  <g id="level-1">
    <path class="light-defaultgrey-10" d="M6.5,2.5V5h5.41L13,6.09V8.5h1.5v-6ZM5,6.5v4.37l.63-.64L7.41,12l.35.35-.15.15H11.5v-6Z" />
    <path class="light-defaultgrey" d="M14.5,2h-8L6,2.5V5H7V3h7V8H13V9h1.5l.5-.5v-6Zm-5,2h-1L8,4.5V5h2V4.5Zm0,5h-1L8,9.5v1l.5.5h1l.5-.5v-1Zm-3-1h-1L5,8.5v1l.5.5h1L7,9.5v-1Zm3,1h-1L8,9.5v1l.5.5h1l.5-.5v-1Zm-4-1L5,8.5v1l.5.5h1L7,9.5v-1L6.5,8Zm6-2H5V7h6v5H7.41l.35.35L7.11,13H11.5l.5-.5v-6ZM10,10.5v-1L9.5,9h-1L8,9.5v1l.5.5h1ZM5.5,8,5,8.5v1l.5.5h1L7,9.5v-1L6.5,8Z" />
    <path class="light-blue" d="M3.844,14.854H3.137l-2.5-2.5.707-.708L3,13.293V2H4V13.293l1.637-1.647.707.708Z" />
  </g>
</svg>
