<svg xmlns="http://www.w3.org/2000/svg" viewBox="0 0 16 16">
  <defs>
    <style>.canvas{fill: none; opacity: 0;}.light-teal-10{fill: #006758; opacity: 0.1;}.light-teal{fill: #006758; opacity: 1;}.light-defaultgrey-10{fill: #212121; opacity: 0.1;}.light-defaultgrey{fill: #212121; opacity: 1;}</style>
  </defs>
  <title>IconLightOrderedTest</title>
  <g id="canvas">
    <path class="canvas" d="M16,16H0V0H16Z" />
  </g>
  <g id="level-1">
    <path class="light-teal-10" d="M8.6,13.962A1,1,0,0,1,7.761,15.5H2.24A1,1,0,0,1,1.4,13.962L2.33,12.5H7.67Z" />
    <path class="light-teal" d="M7.761,16H2.239A1.5,1.5,0,0,1,.975,13.693l.933-1.463L2.33,12H7.67l.422.23.934,1.462A1.5,1.5,0,0,1,7.761,16ZM2.605,13l-.787,1.231A.5.5,0,0,0,2.239,15H7.761a.5.5,0,0,0,.421-.77L7.4,13Z" />
    <path class="light-defaultgrey-10" d="M2.649,12,3.5,10.667V6.5h3v4.167L7.351,12Z" />
    <path class="light-defaultgrey" d="M3,7H2V6H8V7H7v3.521L8.092,12.23,7.67,12H6.757l-.679-1.063L6,10.667V7H4v3.667l-.078.27L3.243,12H2.33l-.421.23L3,10.521Z" />
    <path class="light-defaultgrey" d="M16,2V3H12V2ZM12,6h4V7H12Zm0,4h4v1H12ZM10.055,1.727a1.356,1.356,0,0,1-.289.164.992.992,0,0,1-.336.086v-.54q.241-.086.461-.187a2.269,2.269,0,0,0,.421-.258H10.7V4h-.64Zm-.008,3.281a1.362,1.362,0,0,1,.367.047.8.8,0,0,1,.3.156.727.727,0,0,1,.2.266A.968.968,0,0,1,11,5.844a.9.9,0,0,1-.094.422,1.621,1.621,0,0,1-.226.328,1.459,1.459,0,0,1-.3.258,3.056,3.056,0,0,0-.3.21c-.083.068-.161.133-.234.2a.222.222,0,0,0-.094.2H11V8H9.039V7.68a.714.714,0,0,1,.078-.3,1.254,1.254,0,0,1,.321-.445q.2-.18.4-.344c.13-.109.247-.214.351-.313a.46.46,0,0,0,.149-.367.347.347,0,0,0-.117-.3.521.521,0,0,0-.313-.086.883.883,0,0,0-.383.086,1.805,1.805,0,0,0-.343.219v-.57A1.57,1.57,0,0,1,10.047,5.008Zm.281,5.461a.887.887,0,0,1,.477.211.6.6,0,0,1,.2.476.844.844,0,0,1-.094.414.716.716,0,0,1-.258.274,1.394,1.394,0,0,1-.359.156,1.578,1.578,0,0,1-.422.055,2.26,2.26,0,0,1-.375-.032,1.318,1.318,0,0,1-.367-.117v-.57a1.091,1.091,0,0,0,.32.164,1.222,1.222,0,0,0,.368.055.736.736,0,0,0,.359-.086.348.348,0,0,0,.164-.321.3.3,0,0,0-.1-.25.691.691,0,0,0-.242-.117,1.135,1.135,0,0,0-.3-.039H9.422v-.5h.25a1.505,1.505,0,0,0,.266-.023.432.432,0,0,0,.218-.11.31.31,0,0,0,.094-.242.306.306,0,0,0-.125-.281.578.578,0,0,0-.312-.078,1.007,1.007,0,0,0-.579.187V9.164a1.29,1.29,0,0,1,.352-.117,2.8,2.8,0,0,1,.375-.039,1.551,1.551,0,0,1,.344.039.941.941,0,0,1,.3.125.672.672,0,0,1,.3.57.694.694,0,0,1-.148.469.851.851,0,0,1-.438.25Z" />
  </g>
</svg>
