<svg xmlns="http://www.w3.org/2000/svg" viewBox="0 0 16 16">
  <defs>
    <style>.canvas{fill: none; opacity: 0;}.light-defaultgrey-10{fill: #212121; opacity: 0.1;}.light-defaultgrey{fill: #212121; opacity: 1;}</style>
  </defs>
  <title>IconLightOrientPathNone</title>
  <g id="canvas">
    <path class="canvas" d="M16,16H0V0H16Z" />
  </g>
  <g id="level-1">
    <path class="light-defaultgrey-10" d="M4.5,13.5h-2v-9h2Z" />
    <path class="light-defaultgrey" d="M4.5,4h-2L2,4.5v9l.5.5h2l.5-.5v-9ZM4,13H3V5H4Z" />
    <path class="light-defaultgrey-10" d="M8.5,11.5h-2v-9h2Z" />
    <path class="light-defaultgrey" d="M8.5,2h-2L6,2.5v9l.5.5h2l.5-.5v-9ZM8,11H7V3H8Z" />
    <path class="light-defaultgrey-10" d="M12.5,13.5h-2v-9h2Z" />
    <path class="light-defaultgrey" d="M12.5,4h-2l-.5.5v9l.5.5h2l.5-.5v-9ZM12,13H11V5h1Z" />
    <path class="light-defaultgrey" d="M6,9H5V8H6Z" />
    <path class="light-defaultgrey" d="M2,9H0V8H2Z" />
    <path class="light-defaultgrey" d="M15,9H13V8h2Z" />
    <path class="light-defaultgrey" d="M10,9H9V8h1Z" />
  </g>
</svg>
