<svg xmlns="http://www.w3.org/2000/svg" viewBox="0 0 16 16">
  <defs>
    <style>.canvas{fill: none; opacity: 0;}.light-defaultgrey-10{fill: #212121; opacity: 0.1;}.light-defaultgrey{fill: #212121; opacity: 1;}</style>
  </defs>
  <title>OutlinedRoundedRectangle</title>
  <g id="canvas">
    <path class="canvas" d="M16,16H0V0H16Z" />
  </g>
  <g id="level-1">
    <path class="light-defaultgrey-10" d="M13.25,4.506v5.988a1.756,1.756,0,0,1-1.756,1.756H3.506A1.756,1.756,0,0,1,1.75,10.494V4.506A1.756,1.756,0,0,1,3.506,2.75h7.988A1.756,1.756,0,0,1,13.25,4.506Z" />
    <path class="light-defaultgrey" d="M11.494,13H3.506A2.509,2.509,0,0,1,1,10.494V4.506A2.509,2.509,0,0,1,3.506,2h7.988A2.509,2.509,0,0,1,14,4.506v5.988A2.509,2.509,0,0,1,11.494,13ZM3.506,3.5A1.007,1.007,0,0,0,2.5,4.506v5.988A1.007,1.007,0,0,0,3.506,11.5h7.988A1.007,1.007,0,0,0,12.5,10.494V4.506A1.007,1.007,0,0,0,11.494,3.5Z" />
  </g>
</svg>
