<svg xmlns="http://www.w3.org/2000/svg" viewBox="0 0 16 16">
  <defs>
    <style>.canvas{fill: none; opacity: 0;}.light-defaultgrey{fill: #212121; opacity: 1;}.light-blue{fill: #005dba; opacity: 1;}</style>
  </defs>
  <title>IconLightOutputParameter</title>
  <g id="canvas">
    <path class="canvas" d="M16,16H0V0H16Z" />
  </g>
  <g id="level-1">
    <path class="light-defaultgrey" d="M10.8,11.209h-.032a1.769,1.769,0,0,1-1.79,1.365A1.683,1.683,0,0,1,7.6,11.937a2.64,2.64,0,0,1-.521-1.718A3.83,3.83,0,0,1,7.8,7.845,2.247,2.247,0,0,1,9.68,6.9a1.35,1.35,0,0,1,.793.245,1.107,1.107,0,0,1,.451.587h.018c.013-.119.044-.362.1-.73h1.055q-.3,3.351-.3,3.415,0,1.257.654,1.257a1.144,1.144,0,0,0,.99-.7,3.7,3.7,0,0,0,.393-1.819,3.611,3.611,0,0,0-1.062-2.695,4.03,4.03,0,0,0-2.95-1.044,3.938,3.938,0,0,0-3,1.263A4.439,4.439,0,0,0,5.636,9.838,4.1,4.1,0,0,0,6.778,12.86a4.148,4.148,0,0,0,3.079,1.149,5.989,5.989,0,0,0,2.609-.521v.978a7.15,7.15,0,0,1-2.775.47,5.153,5.153,0,0,1-3.763-1.4A4.885,4.885,0,0,1,4.5,9.883,5.259,5.259,0,0,1,6.01,6.03,5.193,5.193,0,0,1,9.869,4.5a5.291,5.291,0,0,1,3.648,1.282,4.265,4.265,0,0,1,1.444,3.345,3.815,3.815,0,0,1-.784,2.479,2.383,2.383,0,0,1-1.914.968Q10.8,12.574,10.8,11.209ZM9.787,7.8a1.286,1.286,0,0,0-1.127.685,3.173,3.173,0,0,0-.428,1.708,1.8,1.8,0,0,0,.289,1.082.906.906,0,0,0,.771.4,1.229,1.229,0,0,0,1.1-.721A3.869,3.869,0,0,0,10.8,9.045Q10.8,7.8,9.787,7.8Z" />
    <path class="light-blue" d="M3.145.146h.707l2.5,2.5-.707.707L4,1.709V7H3V1.705L1.352,3.353.645,2.646Z" />
  </g>
</svg>
