<svg xmlns="http://www.w3.org/2000/svg" viewBox="0 0 16 16">
  <defs>
    <style>.canvas{fill: none; opacity: 0;}.light-offwhite{fill: #f6f6f6; opacity: 1;}.light-teal-10{fill: #006758; opacity: 0.1;}.light-teal{fill: #006758; opacity: 1;}</style>
  </defs>
  <title>IconLightOverlayOnline</title>
  <g id="canvas">
    <path class="canvas" d="M16,16H0V0H16Z" />
  </g>
  <g id="level-1">
    <path class="light-offwhite" d="M16,6V9.974a3.981,3.981,0,0,1-2.5,3.7V16h-3V13.675A3.981,3.981,0,0,1,8,9.974V6H9V5a1.5,1.5,0,0,1,3,0,1.5,1.5,0,0,1,3,0V6Z" />
    <path class="light-teal-10" d="M12,12.474h0a2.5,2.5,0,0,1-2.5-2.5V7.5h5V9.974A2.5,2.5,0,0,1,12,12.474Z" />
    <path class="light-teal" d="M14,7V5a.5.5,0,0,0-1,0V7H11V5a.5.5,0,0,0-1,0V7H9V9.974a3,3,0,0,0,2.5,2.949V15h1V12.923A3,3,0,0,0,15,9.974V7Zm0,2.974a2,2,0,0,1-4,0V8h4Z" />
  </g>
</svg>
