<svg xmlns="http://www.w3.org/2000/svg" viewBox="0 0 16 16">
  <defs>
    <style>.canvas{fill: none; opacity: 0;}.light-offwhite{fill: #f6f6f6; opacity: 1;}.light-defaultgrey-10{fill: #212121; opacity: 0.1;}.light-defaultgrey{fill: #212121; opacity: 1;}</style>
  </defs>
  <title>OverlaySealed</title>
  <g id="canvas">
    <path class="canvas" d="M16,16H0V0H16Z" />
  </g>
  <g id="level-1">
    <path class="light-offwhite" d="M10,11A5,5,0,1,1,5,6,5,5,0,0,1,10,11Z" />
    <path class="light-defaultgrey-10" d="M5,7.5A3.5,3.5,0,1,1,1.5,11,3.5,3.5,0,0,1,5,7.5Z" />
    <path class="light-defaultgrey" d="M5,7a4,4,0,1,0,4,4A4,4,0,0,0,5,7Zm3,4a2.97,2.97,0,0,1-.56,1.733L3.267,8.56A2.97,2.97,0,0,1,5,8,3,3,0,0,1,8,11ZM2,11a2.97,2.97,0,0,1,.56-1.733L6.733,13.44A2.97,2.97,0,0,1,5,14,3,3,0,0,1,2,11Z" />
  </g>
</svg>
