<svg xmlns="http://www.w3.org/2000/svg" viewBox="0 0 16 16">
  <defs>
    <style>.canvas{fill: none; opacity: 0;}.light-offwhite{fill: #f6f6f6; opacity: 1;}.light-defaultgrey-10{fill: #212121; opacity: 0.1;}.light-defaultgrey{fill: #212121; opacity: 1;}</style>
  </defs>
  <title>OverlayFriend</title>
  <g id="canvas">
    <path class="canvas" d="M16,16H0V0H16Z" />
  </g>
  <g id="level-1">
    <path class="light-offwhite" d="M10,10.5a3.515,3.515,0,0,1-.256,1.31L9.55,12.2c-.16.275-.377.64-3.6,3.286L5.325,16h-.65l-.627-.516C.828,12.84.621,12.492.5,12.285l-.182-.347A3.6,3.6,0,0,1,0,10.5,3.5,3.5,0,0,1,3.5,7,3.468,3.468,0,0,1,5,7.344,3.468,3.468,0,0,1,6.5,7,3.5,3.5,0,0,1,10,10.5Z" />
    <path class="light-defaultgrey-10" d="M8.5,10.5a1.99,1.99,0,0,1-.148.75l-.138.265c-.2.331-3.214,2.81-3.214,2.81s-3.018-2.479-3.214-2.81l-.138-.265A1.993,1.993,0,0,1,5,9.19,1.992,1.992,0,0,1,8.5,10.5Z" />
    <path class="light-defaultgrey" d="M6.5,8A2.478,2.478,0,0,0,5,8.509,2.491,2.491,0,0,0,1,10.5a2.543,2.543,0,0,0,.2.979l.152.293a33.618,33.618,0,0,0,3.327,2.94L5,14.973l.317-.261a31.686,31.686,0,0,0,3.342-2.968l.156-.306A2.5,2.5,0,0,0,6.5,8ZM7.9,11.047l-.1.192c-.167.218-1.5,1.364-2.8,2.438C3.7,12.6,2.37,11.46,2.23,11.287l-.118-.224A1.493,1.493,0,0,1,4.624,9.519L5,9.949l.376-.43A1.494,1.494,0,0,1,7.9,11.047Z" />
  </g>
</svg>
