<svg xmlns="http://www.w3.org/2000/svg" viewBox="0 0 16 16">
  <defs>
    <style>.canvas{fill: none; opacity: 0;}.light-offwhite{fill: #f6f6f6; opacity: 1;}.light-defaultgrey-10{fill: #212121; opacity: 0.1;}.light-defaultgrey{fill: #212121; opacity: 1;}</style>
  </defs>
  <title>OverlayPolicy</title>
  <g id="canvas">
    <path class="canvas" d="M16,16H0V0H16Z" />
  </g>
  <g id="level-1">
    <path class="light-offwhite" d="M8,9a3.985,3.985,0,0,1-1,2.628v3.5l-2.088.865L4,15.079l-.912.912L1,15.126v-3.5A4,4,0,1,1,8,9Z" />
    <path class="light-defaultgrey-10" d="M5.5,10.989V14.5L4,13,2.5,14.5V10.989a2.5,2.5,0,1,1,3,0Z" />
    <path class="light-defaultgrey" d="M7,9a3,3,0,1,0-5,2.22v3.238l.854.353L4,13.665l1.146,1.146L6,14.458V11.22A2.985,2.985,0,0,0,7,9ZM5,13.251,4.354,12.6H3.646L3,13.251V11.816A2.966,2.966,0,0,0,4,12a2.966,2.966,0,0,0,1-.184ZM4,11A2,2,0,1,1,6,9,2,2,0,0,1,4,11Z" />
  </g>
</svg>
