<svg xmlns="http://www.w3.org/2000/svg" viewBox="0 0 16 16">
  <defs>
    <style>.canvas{fill: none; opacity: 0;}.light-defaultgrey-10{fill: #212121; opacity: 0.1;}.light-defaultgrey{fill: #212121; opacity: 1;}</style>
  </defs>
  <title>IconLightPackageProperty</title>
  <g id="canvas">
    <path class="canvas" d="M16,16H0V0H16Z" />
  </g>
  <g id="level-1">
    <path class="light-defaultgrey-10" d="M3.5,4.5V6.02l.17.03c.11.02.22.04.33.07A3.881,3.881,0,0,1,5.82,7.16a4,4,0,0,1,1.03,3.86L9.33,13.5H14.5v-9Z" />
    <path class="light-defaultgrey" d="M14.5,4H12.9a1.735,1.735,0,0,0,.43-.88A1.9,1.9,0,0,0,11.77.92C10.59.72,10,1.58,9.61,2.34c-.07.15-.29.64-.52,1.16L9,3.69l-.09-.22c-.17-.38-.34-.75-.51-1.13C8.01,1.58,7.42.72,6.24.92A1.865,1.865,0,0,0,5,1.7a1.932,1.932,0,0,0-.33,1.42A1.837,1.837,0,0,0,5.11,4H3.5L3,4.5V5.99h.01a4.028,4.028,0,0,1,.49.03l.17.03c.11.02.22.04.33.07V5H8.5v7.67L9.83,14H14.5l.5-.5v-9ZM14,5v8H9.5V5ZM10,3.91c.22-.5.43-.97.51-1.12.45-.91.76-.94,1.09-.88a.909.909,0,0,1,.75,1.05,1.115,1.115,0,0,1-.52.68c-.15.09-.39.23-.64.36H9.96Zm-3.6-2h.01c.32-.06.63-.03,1.09.88.07.14.27.6.49,1.09L8.05,4H6.82a5.069,5.069,0,0,1-.64-.37,1.04,1.04,0,0,1-.52-.67A.91.91,0,0,1,6.4,1.91Z" />
    <path class="light-defaultgrey" d="M.042,10.5A2.994,2.994,0,0,1,.3,8.705L2.286,10.7,3.7,9.282l-2-1.991a2.983,2.983,0,0,1,3.988,3.983L9,14.586v.707L8.3,16H7.59L4.278,12.688A2.98,2.98,0,0,1,.042,10.5Z" />
  </g>
</svg>
