<svg xmlns="http://www.w3.org/2000/svg" viewBox="0 0 16 16">
  <defs>
    <style>.canvas{fill: none; opacity: 0;}.light-yellow-10{fill: #996f00; opacity: 0.1;}.light-yellow{fill: #996f00; opacity: 1;}.light-defaultgrey-10{fill: #212121; opacity: 0.1;}.light-defaultgrey{fill: #212121; opacity: 1;}</style>
  </defs>
  <title>IconLightPackageFolderClosed</title>
  <g id="canvas">
    <path class="canvas" d="M16,16H0V0H16Z" />
  </g>
  <g id="level-1">
    <path class="light-yellow-10" d="M8.5,3.5l-1-1h-6V6.07A2.734,2.734,0,0,1,2,6.02a2.643,2.643,0,0,1,2,.91c2.06-2.3,5.9.18,4.85,3.01l.15.15V12.5h5.5v-9Z" />
    <path class="light-yellow" d="M14.5,3H8.71l-.86-.85L7.5,2h-6L1,2.5V6.21a2.851,2.851,0,0,1,.5-.14A2.734,2.734,0,0,1,2,6.02V5H7.48l.35-.15L8.68,4H14v8H9v1h5.5l.5-.5v-9ZM7.27,4H2V3H7.29l.49.49Z" />
    <path class="light-defaultgrey-10" d="M7.5,10.5v5H.5v-5Z" />
    <path class="light-defaultgrey" d="M8,9a1.99,1.99,0,0,0-.586-1.415,2.023,2.023,0,0,0-.662-.438,1.773,1.773,0,0,0-1.4.034,2.082,2.082,0,0,0-1.1,1.183L4,9.049l-.251-.685a2.082,2.082,0,0,0-1.1-1.183,1.773,1.773,0,0,0-1.4-.034,2.01,2.01,0,0,0-.662.439A1.993,1.993,0,0,0,.36,10.14L0,10.5v5l.5.5h7l.5-.5v-5l-.36-.36A1.986,1.986,0,0,0,8,9ZM5.19,8.708A1.091,1.091,0,0,1,5.76,8.1a.774.774,0,0,1,.616-.022,1.009,1.009,0,0,1,.331.22,1,1,0,0,1,0,1.413,1.011,1.011,0,0,1-.332.221A1,1,0,0,1,6,10H4.716Zm-3.9-.414a1,1,0,0,1,.333-.221A.715.715,0,0,1,1.9,8.02.855.855,0,0,1,2.24,8.1a1.091,1.091,0,0,1,.57.613L3.284,10H2a1,1,0,0,1-.376-.073,1.009,1.009,0,0,1-.331-.22,1,1,0,0,1,0-1.413ZM1,11H3.5v4H1Zm6,4H4.5V11H7Z" />
  </g>
</svg>
