<svg xmlns="http://www.w3.org/2000/svg" viewBox="0 0 16 16">
  <defs>
    <style>.canvas{fill: none; opacity: 0;}.light-yellow-10{fill: #996f00; opacity: 0.1;}.light-yellow-25{fill: #996f00; opacity: 0.25;}.light-yellow{fill: #996f00; opacity: 1;}.light-defaultgrey-10{fill: #212121; opacity: 0.1;}.light-defaultgrey{fill: #212121; opacity: 1;}</style>
  </defs>
  <title>IconLightPackageFolderOpened</title>
  <g id="canvas">
    <path class="canvas" d="M16,16H0V0H16Z" />
  </g>
  <g id="level-1">
    <path class="light-yellow-10" d="M6.5,3.5l-1-1H.5V6.46A3.333,3.333,0,0,1,1,6.21a2.911,2.911,0,0,1,1.4-.16,2.459,2.459,0,0,1,1.12.45h.96a2.752,2.752,0,0,1,3.05-.03L8.5,5.5h5v-2Z" />
    <path class="light-yellow-25" d="M8.5,5.5l-.97.97a4.044,4.044,0,0,1,.4.28,2.8,2.8,0,0,1,.92,3.19l.15.15V12.5h4.5l2-7Z" />
    <path class="light-yellow-25" d="M13,6v6.5h1V6Z" />
    <path class="light-yellow" d="M15.89,5.63l-1.87,7-.48.37H9V12h4.16L14,8.85,14.76,6H8.68l-.75.75a4.044,4.044,0,0,0-.4-.28A2.7,2.7,0,0,0,4,6.93a2.745,2.745,0,0,0-.48-.43A2.459,2.459,0,0,0,2.4,6.05L2.47,6h4.8l.85-.85L8.47,5H13V4H6.5l-.35-.15L5.29,3H1V6.21a3.333,3.333,0,0,0-.5.25,2.979,2.979,0,0,0-.5.35V2.5L.5,2h5l.35.15L6.71,3H13.5l.5.5V5h1.41Z" />
    <path class="light-defaultgrey-10" d="M7.5,10.5v5H.5v-5Z" />
    <path class="light-defaultgrey" d="M8,9a1.99,1.99,0,0,0-.586-1.415,2.023,2.023,0,0,0-.662-.438,1.773,1.773,0,0,0-1.4.034,2.082,2.082,0,0,0-1.1,1.183L4,9.049l-.251-.685a2.082,2.082,0,0,0-1.1-1.183,1.773,1.773,0,0,0-1.4-.034,2.01,2.01,0,0,0-.662.439A1.993,1.993,0,0,0,.36,10.14L0,10.5v5l.5.5h7l.5-.5v-5l-.36-.36A1.986,1.986,0,0,0,8,9ZM5.19,8.708A1.091,1.091,0,0,1,5.76,8.1a.774.774,0,0,1,.616-.022,1.009,1.009,0,0,1,.331.22,1,1,0,0,1,0,1.413,1.011,1.011,0,0,1-.332.221A1,1,0,0,1,6,10H4.716Zm-3.9-.414a1,1,0,0,1,.333-.221A.715.715,0,0,1,1.9,8.02.855.855,0,0,1,2.24,8.1a1.091,1.091,0,0,1,.57.613L3.284,10H2a1,1,0,0,1-.376-.073,1.009,1.009,0,0,1-.331-.22,1,1,0,0,1,0-1.413ZM1,11H3.5v4H1Zm6,4H4.5V11H7Z" />
  </g>
</svg>
