<svg xmlns="http://www.w3.org/2000/svg" viewBox="0 0 16 16">
  <defs>
    <style>.canvas{fill: none; opacity: 0;}.light-defaultgrey-10{fill: #212121; opacity: 0.1;}.light-defaultgrey{fill: #212121; opacity: 1;}.light-blue{fill: #005dba; opacity: 1;}.cls-1{opacity:0.75;}</style>
  </defs>
  <title>IconLightPackageDeployment</title>
  <g id="canvas" class="canvas">
    <path class="canvas" d="M16,16H0V0H16Z" />
  </g>
  <g id="level-1">
    <g class="cls-1">
      <path class="light-defaultgrey-10" d="M9.5,1.5H6.62l.5.5.73.73V4.27l-3.5,3.5L4,7.42,2.5,5.92V13.5H8V8h4.5V4.5ZM2.5,5v.38L2.88,5Z" />
      <path class="light-defaultgrey" d="M12.85,4.15l-3-3L9.5,1H6.12l1,1H9V5h3V8h1V4.5ZM3,6.42l-.5-.5-.27-.27L2.88,5H2v8.5l.5.5H8V13H3Z" />
      <path class="light-defaultgrey" d="M4.35,7.77,4,7.42V8H6V6.12ZM4,9v2H6V9ZM7,6V8H9V6Z" />
    </g>
    <path class="light-defaultgrey" d="M9,9v3h3V9Zm0,4v3h3V13Zm4-4v3h3V9Z" />
    <path class="light-blue" d="M5.293,3,3.646,1.354,4.354.646l2.5,2.5v.708l-2.5,2.5-.708-.708L5.293,4H0V3Z" />
  </g>
</svg>
