<svg xmlns="http://www.w3.org/2000/svg" viewBox="0 0 16 16">
  <defs>
    <style>.canvas{fill: none; opacity: 0;}.light-defaultgrey{fill: #212121; opacity: 1;}.light-defaultgrey-10{fill: #212121; opacity: 0.1;}.cls-1{opacity:0.75;}</style>
  </defs>
  <title>IconLightPageSize</title>
  <g id="canvas" class="canvas">
    <path class="canvas" d="M16,16H0V0H16Z" />
  </g>
  <g id="level-1">
    <path class="light-defaultgrey" d="M13,4V3H12V2H11V3H5V2H4V3H3V4H4v8H3v1H4v1H5V13h6v1h1V13h1V12H12V4Zm-2,8H5V4h6Z" />
    <g class="cls-1">
      <path class="light-defaultgrey-10" d="M13.5,14.5H2.5V1.5h11Z" />
      <path class="light-defaultgrey" d="M13.5,15H2.5L2,14.5V1.5L2.5,1h11l.5.5v13ZM3,14H13V2H3Z" />
    </g>
  </g>
</svg>
