<svg xmlns="http://www.w3.org/2000/svg" viewBox="0 0 16 16">
  <defs>
    <style>.canvas{fill: none; opacity: 0;}.light-blue-10{fill: #005dba; opacity: 0.1;}.light-blue{fill: #005dba; opacity: 1;}</style>
  </defs>
  <title>IconLightPageInspector</title>
  <g id="canvas">
    <path class="canvas" d="M16,16H0V0H16Z" />
  </g>
  <g id="level-1">
    <path class="light-blue-10" d="M11,6A5,5,0,1,1,6,1,5,5,0,0,1,11,6Z" />
    <path class="light-blue" d="M9,8.611A3.926,3.926,0,0,1,7.513,9.7,7.534,7.534,0,0,0,8.226,8H9V7H8.426A7.583,7.583,0,0,0,8.5,6a7.583,7.583,0,0,0-.074-1H9.858A3.939,3.939,0,0,1,10,6a3.3,3.3,0,0,1-.031.4l.814.977A4.937,4.937,0,0,0,11,6a5,5,0,1,0-5,5A4.948,4.948,0,0,0,9,9.974ZM9.444,4H8.225a7.486,7.486,0,0,0-.712-1.7A4.011,4.011,0,0,1,9.444,4ZM5.891,2.011C5.928,2.01,5.963,2,6,2s.072.01.11.011A6.54,6.54,0,0,1,7.168,4H4.832A6.5,6.5,0,0,1,5.891,2.011ZM2.142,7A3.939,3.939,0,0,1,2,6a3.939,3.939,0,0,1,.142-1H3.574A7.583,7.583,0,0,0,3.5,6a7.583,7.583,0,0,0,.074,1Zm.414,1H3.775a7.486,7.486,0,0,0,.712,1.7A4.011,4.011,0,0,1,2.556,8ZM3.775,4H2.556A4.011,4.011,0,0,1,4.487,2.3,7.486,7.486,0,0,0,3.775,4ZM6.107,9.989C6.071,9.99,6.037,10,6,10s-.072-.01-.109-.011A6.5,6.5,0,0,1,4.832,8H7.168A6.5,6.5,0,0,1,6.107,9.989ZM7.412,7H4.588A6.419,6.419,0,0,1,4.5,6a6.419,6.419,0,0,1,.088-1H7.412A6.419,6.419,0,0,1,7.5,6,6.419,6.419,0,0,1,7.412,7Z" />
    <path class="light-blue" d="M12.278,12.7l.789,2.167-.94.342-.821-2.256L10,14V8l4,4.8Z" />
  </g>
</svg>
