<svg xmlns="http://www.w3.org/2000/svg" viewBox="0 0 16 16">
  <defs>
    <style>.canvas{fill: none; opacity: 0;}.light-defaultgrey{fill: #212121; opacity: 1;}.light-defaultgrey-10{fill: #212121; opacity: 0.1;}.cls-1{opacity:0.75;}</style>
  </defs>
  <title>IconLightPageLock</title>
  <g id="canvas" class="canvas">
    <path class="canvas" d="M16,16H0V0H16Z" />
  </g>
  <g id="level-1">
    <g class="cls-1">
      <path class="light-defaultgrey" d="M9,15H2.5L2,14.5V1.5L2.5,1h8l.354.146,3,3L14,4.5V7.184A2.966,2.966,0,0,0,13,7V5H10V2H3V14H9Z" />
      <path class="light-defaultgrey-10" d="M9,14.5H2.5V1.5h8l3,3V7.051A2.942,2.942,0,0,0,13,7a3,3,0,0,0-3,3v.086l-1,1Z" />
    </g>
    <path class="light-defaultgrey-10" d="M15.5,11.5v4h-5v-4Z" />
    <path class="light-defaultgrey" d="M15.5,11H15V10a2,2,0,0,0-4,0v1h-.5l-.5.5v4l.5.5h5l.5-.5v-4ZM12,10a1,1,0,0,1,2,0v1H12Zm3,5H11V12h4Z" />
  </g>
</svg>
