<svg xmlns="http://www.w3.org/2000/svg" viewBox="0 0 16 16">
  <defs>
    <style>.canvas{fill: none; opacity: 0;}.light-defaultgrey-10{fill: #212121; opacity: 0.1;}.light-defaultgrey{fill: #212121; opacity: 1;}.cls-1{opacity:0.75;}</style>
  </defs>
  <title>IconLightPageFile</title>
  <g id="canvas">
    <path class="canvas" d="M16,0V16H0V0Z" />
  </g>
  <g id="level-1">
    <g class="cls-1">
      <path class="light-defaultgrey-10" d="M13.5,4.5v10l-2.295.209.8-.795V8.086L10.914,7H2.5V1.5h8Z" />
      <path class="light-defaultgrey" d="M14,4.5v10l-.5.5H10.914l.879-.879L13,14V5H10V2H3V7H2V1.5L2.5,1h8l.354.146,3,3Z" />
    </g>
    <path class="light-defaultgrey-10" d="M6.5,15.5v-2h-2v2h-2v-2H.5v-5h10v5h-2v2Z" />
    <path class="light-defaultgrey" d="M3,12H2V10H3Zm2-2H4v2H5Zm2,0H6v2H7Zm2,0H8v2H9Zm1.5-2H.5L0,8.5v5l.5.5H2v1.5l.5.5h2l.5-.5V14H6v1.5l.5.5h2l.5-.5V14h1.5l.5-.5v-5ZM10,13H8v2H7V13H4v2H3V13H1V9h9Z" />
  </g>
</svg>
