<svg xmlns="http://www.w3.org/2000/svg" viewBox="0 0 16 16">
  <defs>
    <style>.canvas{fill: none; opacity: 0;}.light-defaultgrey-10{fill: #212121; opacity: 0.1;}.light-blue-10{fill: #005dba; opacity: 0.1;}.light-defaultgrey{fill: #212121; opacity: 1;}.light-blue{fill: #005dba; opacity: 1;}</style>
  </defs>
  <title>IconLightPageBody</title>
  <g id="canvas" class="canvas">
    <path class="canvas" d="M16,16H0V0H16Z" />
  </g>
  <g id="level-1">
    <path class="light-defaultgrey-10" d="M2.5,1.5v13h11V1.5Zm9.5,9-.5.5h-7L4,10.5v-5L4.5,5h7l.5.5Z" />
    <path class="light-blue-10" d="M4.5,5.5h7v5h-7Z" />
    <path class="light-defaultgrey" d="M12,13H4V12h8ZM12,3H4V4h8Zm1.5,12H2.5L2,14.5V1.5L2.5,1h11l.5.5v13ZM3,14H13V2H3Z" />
    <path class="light-blue" d="M11.5,11h-7L4,10.5v-5L4.5,5h7l.5.5v5ZM5,10h6V6H5Z" />
  </g>
</svg>
