<svg xmlns="http://www.w3.org/2000/svg" viewBox="0 0 16 16">
  <defs>
    <style>.canvas{fill: none; opacity: 0;}.light-defaultgrey-10{fill: #212121; opacity: 0.1;}.light-defaultgrey{fill: #212121; opacity: 1;}.light-blue-10{fill: #005dba; opacity: 0.1;}.light-blue{fill: #005dba; opacity: 1;}.cls-1{opacity:0.75;}</style>
  </defs>
  <title>IconLightPageHeaderGroup</title>
  <g id="canvas" class="canvas">
    <path class="canvas" d="M16,16H0V0H16Z" />
  </g>
  <g id="level-1">
    <g class="cls-1">
      <path class="light-defaultgrey-10" d="M13.5,1.5v11h-2v-9h-7v-2Z" />
      <path class="light-defaultgrey" d="M14,1.5v11l-.5.5h-2V12H13V2H5V3.5H4v-2L4.5,1h9Z" />
    </g>
    <path class="light-defaultgrey-10" d="M11.5,14.5V3.5h-9v11ZM4,5.5,4.5,5h5l.5.5v3L9.5,9h-5L4,8.5Z" />
    <path class="light-defaultgrey" d="M2.5,3h9l.5.5v11l-.5.5h-9L2,14.5V3.5ZM11,4H3V14h8ZM4,12h6v1H4Zm0-2h6v1H4Z" />
    <path class="light-blue-10" d="M4.5,5.5h5v3h-5Z" />
    <path class="light-blue" d="M4.5,5h5l.5.5v3L9.5,9h-5L4,8.5v-3ZM9,6H5V8H9Z" />
  </g>
</svg>
