<svg xmlns="http://www.w3.org/2000/svg" viewBox="0 0 16 16">
  <defs>
    <style>.canvas{fill: none; opacity: 0;}.light-defaultgrey-10{fill: #212121; opacity: 0.1;}.light-defaultgrey{fill: #212121; opacity: 1;}.light-blue-10{fill: #005dba; opacity: 0.1;}.light-blue{fill: #005dba; opacity: 1;}.cls-1{opacity:0.75;}</style>
  </defs>
  <title>IconLightPageFooterGroup</title>
  <g id="canvas" class="canvas">
    <path class="canvas" d="M16,16H0V0H16Z" />
  </g>
  <g id="level-1">
    <g class="cls-1">
      <path class="light-defaultgrey-10" d="M13.5,1.5v11h-2v-9h-7v-2Z" />
      <path class="light-defaultgrey" d="M14,1.5v11l-.5.5h-2V12H13V2H5V3.5H4v-2L4.5,1h9Z" />
    </g>
    <path class="light-defaultgrey-10" d="M2.5,3.5v11h9V3.5Zm7.5,9-.5.5h-5L4,12.5v-3L4.5,9h5l.5.5Z" />
    <path class="light-defaultgrey" d="M11.5,15h-9L2,14.5V3.5L2.5,3h9l.5.5v11ZM3,14h8V4H3Zm7-8H4V5h6Zm0,2H4V7h6Z" />
    <path class="light-blue-10" d="M9.5,12.5h-5v-3h5Z" />
    <path class="light-blue" d="M9.5,13h-5L4,12.5v-3L4.5,9h5l.5.5v3ZM5,12H9V10H5Z" />
  </g>
</svg>
