<svg xmlns="http://www.w3.org/2000/svg" viewBox="0 0 16 16">
  <defs>
    <style>.canvas{fill: none; opacity: 0;}.light-defaultgrey-10{fill: #212121; opacity: 0.1;}.light-defaultgrey{fill: #212121; opacity: 1;}.cls-1{opacity:0.25;}.cls-2{opacity:0.75;}</style>
  </defs>
  <title>IconLightPageGuide</title>
  <g id="canvas" class="canvas">
    <path class="canvas" d="M16,16H0V0H16Z" />
  </g>
  <g id="level-1">
    <g class="cls-1">
      <path class="light-defaultgrey-10" d="M12.5,14h-9L3,13.5v-3l.5-.5h9l.5.5v3Z" />
    </g>
    <path class="light-defaultgrey" d="M6,2H7V4H6ZM6,6H7V5H6ZM6,8H7V7H6Zm0,2H7V9H6Zm0,4H7V11H6ZM3,10H5V9H3Zm5,0H9V9H8Zm2,0h1V9H10Zm2-1v1h1V9Z" />
    <g class="cls-2">
      <path class="light-defaultgrey-10" d="M13.5,4.5v10H2.5V1.5h8Z" />
      <path class="light-defaultgrey" d="M13.854,4.146l-3-3L10.5,1h-8L2,1.5v13l.5.5h11l.5-.5V4.5ZM3,14V2h7V5h3v9Z" />
    </g>
  </g>
</svg>
