<svg xmlns="http://www.w3.org/2000/svg" viewBox="0 0 16 16">
  <defs>
    <style>.canvas{fill: none; opacity: 0;}.light-defaultgrey{fill: #212121; opacity: 1;}.light-defaultgrey-10{fill: #212121; opacity: 0.1;}.light-blue{fill: #005dba; opacity: 1;}</style>
  </defs>
  <title>IconLightPaging</title>
  <g id="canvas">
    <path class="canvas" d="M16,0V16H0V0Z" />
  </g>
  <g id="level-1">
    <path class="light-defaultgrey" d="M3.5,2,3,2.5v2l.5.5h2L6,4.5v-2L5.5,2ZM5,4H4V3H5ZM7.5,2,7,2.5v2l.5.5h2l.5-.5v-2L9.5,2ZM9,4H8V3H9Zm4.5-2h-2l-.5.5v2l.5.5h2l.5-.5v-2ZM13,4H12V3h1ZM3.5,6,3,6.5v2l.5.5h2L6,8.5v-2L5.5,6ZM5,8H4V7H5ZM7.5,6,7,6.5v2l.5.5h2l.5-.5v-2L9.5,6ZM9,8H8V7H9Zm2.5-2-.5.5v2l.5.5h2l.5-.5v-2L13.5,6ZM13,8H12V7h1ZM9.5,10l.5.5v2l-.5.5H8.85v-.27L8.12,12H9V11H8v.88l-1-1V10.5l.5-.5Zm2,0-.5.5v2l.5.5h2l.5-.5v-2l-.5-.5ZM13,12H12V11h1Z" />
    <path class="light-defaultgrey-10" d="M3.5,2.5h2v2h-2Zm4,2h2v-2h-2Zm4-2v2h2v-2Zm-8,6h2v-2h-2Zm4,0h2v-2h-2Zm4,0h2v-2h-2Zm-4,2.88L8.62,12.5H9.5v-2h-2Zm4,1.12h2v-2h-2Z" />
    <path class="light-blue" d="M7.854,13.146v.708l-2,2-.708-.708L6.293,14H1.707l1.147,1.146-.708.708-2-2v-.708l2-2,.708.708L1.707,13H6.293L5.146,11.854l.708-.708Z" />
  </g>
</svg>
