<svg xmlns="http://www.w3.org/2000/svg" viewBox="0 0 16 16">
  <defs>
    <style>.canvas{fill: none; opacity: 0;}.light-defaultgrey-10{fill: #212121; opacity: 0.1;}.light-defaultgrey{fill: #212121; opacity: 1;}</style>
  </defs>
  <title>IconLightPaginator</title>
  <g id="canvas">
    <path class="canvas" d="M16,0V16H0V0Z" />
  </g>
  <g id="level-1">
    <path class="light-defaultgrey-10" d="M11.5,12.5h-8V2.5H10L11.5,4Z" />
    <path class="light-defaultgrey" d="M14.5,1l.5.5v12l-.5.5H13V13h1V2H13V1ZM2,14V13H1V2H2V1H.5L0,1.5v12l.5.5Z" />
    <path class="light-defaultgrey" d="M11.5,13h-8L3,12.5V2.5L3.5,2H10l.354.146,1.5,1.5L12,4v8.5ZM4,12h7V4.207L9.793,3H4Z" />
    <path class="light-defaultgrey" d="M9.076,10H6V9.621a1.4,1.4,0,0,1,.065-.436A1.745,1.745,0,0,1,6.239,8.8,2.117,2.117,0,0,1,6.5,8.464a4.371,4.371,0,0,1,.315-.308q.168-.149.341-.287c.118-.093.231-.185.342-.279s.2-.176.287-.261A1.792,1.792,0,0,0,8,7.064a1.216,1.216,0,0,0,.143-.289,1,1,0,0,0,.052-.33.886.886,0,0,0-.06-.34.68.68,0,0,0-.167-.243.748.748,0,0,0-.255-.146,1,1,0,0,0-.321-.05,1.494,1.494,0,0,0-.613.14,2.08,2.08,0,0,0-.6.421V5.464a2.481,2.481,0,0,1,.3-.2,1.956,1.956,0,0,1,.318-.14,1.9,1.9,0,0,1,.344-.084,2.632,2.632,0,0,1,.387-.027,1.958,1.958,0,0,1,.6.087A1.277,1.277,0,0,1,8.6,5.36a1.121,1.121,0,0,1,.295.422,1.509,1.509,0,0,1,.1.581,1.8,1.8,0,0,1-.073.535,1.73,1.73,0,0,1-.209.443,2.259,2.259,0,0,1-.326.389c-.128.124-.271.25-.427.38q-.2.161-.4.313t-.353.3a1.66,1.66,0,0,0-.255.291.519.519,0,0,0-.1.292V9.32H9.076Z" />
  </g>
</svg>
