<svg xmlns="http://www.w3.org/2000/svg" viewBox="0 0 16 16">
  <defs>
    <style>.canvas{fill: none; opacity: 0;}.light-defaultgrey-10{fill: #212121; opacity: 0.1;}.light-defaultgrey{fill: #212121; opacity: 1;}.light-blue{fill: #005dba; opacity: 1;}</style>
  </defs>
  <title>IconLightPanelDragDropTarget</title>
  <g id="canvas" class="canvas">
    <path class="canvas" d="M16,16H0V0H16Z" />
  </g>
  <g id="level-1">
    <path class="light-defaultgrey-10" d="M10,14H1.5L1,13.5V1.5L1.5,1h12l.5.5v10H11V14Z" />
    <path class="light-defaultgrey" d="M10,13v1H1.5L1,13.5V1.5L1.5,1h12l.5.5V10l-.189-.189L13,8.838V2H2V13Z" />
    <path class="light-defaultgrey" d="M3,3H4V4H3ZM3,6H4V5H3Zm7,3H9v1h1ZM3,8H4V7H3Zm0,2H4V9H3Zm0,2H4V11H3Zm9-9H11V4h1Zm0,2H11V6h1ZM10,5H9V6h1Zm0-2H9V4h1Zm0,4H9V8h1Zm2,.638V7h-.532ZM5,6H6V5H5ZM7,6H8V5H7ZM7,8H8V7H7ZM5,12H6V11H5Zm2-2H8V9H7ZM7,4H8V3H7Zm3,7H9v1h1ZM5,10H6V9H5Zm2,2H8V11H7ZM5,8H6V7H5ZM5,4H6V3H5Z" />
    <path class="light-blue" d="M13.278,12.7l.789,2.167-.94.342-.821-2.256L11,14V8l4,4.8Z" />
  </g>
</svg>
