<svg xmlns="http://www.w3.org/2000/svg" viewBox="0 0 16 16">
  <defs>
    <style>.canvas{fill: none; opacity: 0;}.light-defaultgrey{fill: #212121; opacity: 1;}.light-yellow{fill: #996f00; opacity: 1;}.white{fill: #ffffff; opacity: 1;}</style>
  </defs>
  <title>IconLightParameterWarning</title>
  <g id="canvas">
    <path class="canvas" d="M16,16H0V0H16Z" />
  </g>
  <g id="level-1">
    <path class="light-defaultgrey" d="M8.1,11.307l.63-1.143a6.222,6.222,0,0,1-2.331.409A4.148,4.148,0,0,1,3.317,9.424,4.1,4.1,0,0,1,2.175,6.4,4.437,4.437,0,0,1,3.361,3.242a3.935,3.935,0,0,1,3-1.263,4.033,4.033,0,0,1,2.95,1.043,3.613,3.613,0,0,1,1.062,2.7,3.713,3.713,0,0,1-.392,1.819,1.147,1.147,0,0,1-.991.7q-.654,0-.654-1.257,0-.063.3-3.415H7.576c-.051.369-.082.612-.095.73H7.463a1.106,1.106,0,0,0-.451-.587,1.349,1.349,0,0,0-.793-.244,2.245,2.245,0,0,0-1.883.946,3.828,3.828,0,0,0-.714,2.374A2.637,2.637,0,0,0,4.143,8.5a1.681,1.681,0,0,0,1.371.638A1.769,1.769,0,0,0,7.3,7.774h.032Q7.342,9.139,8.8,9.139a2.413,2.413,0,0,0,.522-.058L10.47,7h.849A4.554,4.554,0,0,0,11.5,5.692a4.26,4.26,0,0,0-1.444-3.345A5.291,5.291,0,0,0,6.408,1.064a5.193,5.193,0,0,0-3.859,1.53,5.259,5.259,0,0,0-1.51,3.853A4.888,4.888,0,0,0,2.467,10.1,5.152,5.152,0,0,0,6.23,11.5,8.483,8.483,0,0,0,8.1,11.307ZM6.936,7.517a1.232,1.232,0,0,1-1.1.72.907.907,0,0,1-.771-.4,1.805,1.805,0,0,1-.289-1.083A3.17,3.17,0,0,1,5.2,5.051a1.287,1.287,0,0,1,1.127-.686q1.016,0,1.016,1.244A3.883,3.883,0,0,1,6.936,7.517Z" />
    <path class="light-yellow" d="M15.5,16h-8l-.439-.739,4-7.261h.878l4,7.261Z" />
    <path class="white" d="M12,13H11V10h1Zm.25,1.5a.75.75,0,1,1-.75-.75A.75.75,0,0,1,12.25,14.5Z" />
  </g>
</svg>
