<svg xmlns="http://www.w3.org/2000/svg" viewBox="0 0 16 16">
  <defs>
    <style>.canvas{fill: none; opacity: 0;}.light-lightblue-10{fill: #0077a0; opacity: 0.1;}.light-lightblue{fill: #0077a0; opacity: 1;}.light-defaultgrey-10{fill: #212121; opacity: 0.1;}.light-defaultgrey{fill: #212121; opacity: 1;}</style>
  </defs>
  <title>IconLightParallelCallStack</title>
  <g id="canvas" class="canvas">
    <path class="canvas" d="M16,16H0V0H16Z" />
  </g>
  <g id="level-1">
    <path class="light-lightblue-10" d="M3,14.5A1.5,1.5,0,0,1,1.5,13V8A1.5,1.5,0,0,1,3,6.5H4.5v2h-1v4h1v2Z" />
    <path class="light-lightblue" d="M4,7V8H3.5L3,8.5v4l.5.5H4v1H3a1,1,0,0,1-1-1V8A1,1,0,0,1,3,7ZM1,8v5a2,2,0,0,0,2,2H4.5l.5-.5v-2L4.5,12H4V9h.5L5,8.5v-2L4.5,6H3A2,2,0,0,0,1,8Z" />
    <path class="light-defaultgrey-10" d="M14.5,1.5v2h-4v-2Zm-6,0v2h-7v-2Zm0,5v2h-2v-2Zm0,5v2h-2v-2Zm6-5v2h-4v-2Zm0,5v2h-4v-2Z" />
    <path class="light-defaultgrey" d="M14.5,4h-4L10,3.5v-2l.5-.5h4l.5.5v2ZM11,3h3V2H11ZM8.5,4h-7L1,3.5v-2L1.5,1h7l.5.5v2ZM2,3H8V2H2ZM8.5,9h-2L6,8.5v-2L6.5,6h2l.5.5v2ZM7,8H8V7H7Zm1.5,6h-2L6,13.5v-2l.5-.5h2l.5.5v2ZM7,13H8V12H7Zm7.5-4h-4L10,8.5v-2l.5-.5h4l.5.5v2ZM11,8h3V7H11Zm3.5,6h-4l-.5-.5v-2l.5-.5h4l.5.5v2ZM11,13h3V12H11Z" />
  </g>
</svg>
