<svg xmlns="http://www.w3.org/2000/svg" viewBox="0 0 16 16">
  <defs>
    <style>.canvas{fill: none; opacity: 0;}.light-defaultgrey-10{fill: #212121; opacity: 0.1;}.light-defaultgrey{fill: #212121; opacity: 1;}.light-yellow{fill: #996f00; opacity: 1;}.white{fill: #ffffff; opacity: 1;}</style>
  </defs>
  <title>PartWarning</title>
  <g id="canvas">
    <path class="canvas" d="M16,16H0V0H16Z" />
  </g>
  <g id="level-1">
    <path class="light-defaultgrey-10" d="M8.5,4.5V4.22a1.968,1.968,0,0,0,1-1.72,2,2,0,0,0-4,0,1.968,1.968,0,0,0,1,1.72V4.5h-4v4h.43a1.968,1.968,0,0,1,1.72-1,2,2,0,0,1,0,4,1.968,1.968,0,0,1-1.72-1H2.5v4H6.34l.27-.5,3.86-7H12.5V4.5Z" />
    <path class="light-defaultgrey" d="M12.5,4H9.49A2.449,2.449,0,0,0,10,2.5a2.5,2.5,0,0,0-5,0A2.449,2.449,0,0,0,5.51,4H2.5L2,4.5v4l.5.5h.43l.43-.25A1.471,1.471,0,0,1,4.65,8a1.5,1.5,0,0,1,0,3,1.471,1.471,0,0,1-1.29-.75L2.93,10H2.5l-.5.5v4l.5.5H6.06l.28-.5.27-.5H3V11.37A2.5,2.5,0,1,0,3,7.63V5H6.5L7,4.5V4.22l-.25-.43A1.483,1.483,0,0,1,6,2.5a1.5,1.5,0,0,1,3,0,1.483,1.483,0,0,1-.75,1.29L8,4.22V4.5l.5.5H12V7h.53l.47.85V4.5Z" />
    <path class="light-yellow" d="M15.5,16h-8l-.439-.739,4-7.261h.878l4,7.261Z" />
    <path class="white" d="M12,13H11V10h1Zm.25,1.5a.75.75,0,1,1-.75-.75A.75.75,0,0,1,12.25,14.5Z" />
  </g>
</svg>
