<svg xmlns="http://www.w3.org/2000/svg" viewBox="0 0 16 16">
  <defs>
    <style>.canvas{fill: none; opacity: 0;}.light-defaultgrey-10{fill: #212121; opacity: 0.1;}.light-yellow{fill: #996f00; opacity: 1;}.white{fill: #ffffff; opacity: 1;}.light-defaultgrey{fill: #212121; opacity: 1;}</style>
  </defs>
  <title>IconLightPartitionSchemeWarning</title>
  <g id="canvas">
    <path class="canvas" d="M16,16H0V0H16Z" />
  </g>
  <g id="level-1">
    <path class="light-defaultgrey-10" d="M6.039,15.5H4.5v-2h2v.706L5.908,15.28ZM.5,15.5h2v-2H.5Zm4-7h-2v2h2Z" />
    <path class="light-defaultgrey-10" d="M6,8.086,4.914,7H2.086L1.5,7.586V5.268L7,1.6l4,2.667V7h-.53L8.653,10.3,6.588,11.674,5.914,11,6,10.914Z" />
    <path class="light-yellow" d="M15.5,16h-8l-.439-.739,4-7.261h.878l4,7.261Z" />
    <path class="white" d="M12,13H11V10h1Zm.25,1.5a.75.75,0,1,1-.75-.75A.75.75,0,0,1,12.25,14.5Z" />
    <path class="light-defaultgrey" d="M5.908,15.28l1.02-1.852L6.5,13H6v-.5L5.5,12H4V11h.5l.5-.5v-2L4.5,8h-2L2,8.5v2l.5.5H3v1H1.5l-.5.5V13H.5l-.5.5v2l.5.5h2l.5-.5v-2L2.5,13h2l-.5.5v2l.5.5H6.337ZM2,15H1V14H2ZM3,9H4v1H3Zm2,5H6v1H5Z" />
    <path class="light-defaultgrey" d="M6,8.2l4.5-3V6.666L7.223,8.852,7,9.268V10.8l-.772.515.721.721L7,12v.086l.431.431L10.47,7h2.06l2.357,4.277L15,11.065V6.6l-.223-.416-1.5-1h-.554L11.5,6V4.268l-.223-.416-4-2.667H6.723l-5.5,3.667L1,5.268V8.086l1-1V6.2L3.2,7H4.914L6,8.086Zm-.5-.868L2.4,5.268,7,2.2l3.1,2.067Z" />
  </g>
</svg>
