<svg xmlns="http://www.w3.org/2000/svg" viewBox="0 0 16 16">
  <defs>
    <style>.canvas{fill: none; opacity: 0;}.light-defaultgrey{fill: #212121; opacity: 1;}.light-defaultgrey-10{fill: #212121; opacity: 0.1;}</style>
  </defs>
  <title>IconLightPasswordBox</title>
  <g id="canvas" class="canvas">
    <path class="canvas" d="M16,16H0V0H16Z" />
  </g>
  <g id="level-1">
    <path class="light-defaultgrey" d="M7.954,6.746,6.282,7.5l1.672.754-.574.994L5.891,8.177,6.073,10H4.927l.182-1.823L3.62,9.248l-.574-.994L4.718,7.5,3.046,6.746l.574-.994L5.109,6.823,4.927,5H6.073L5.891,6.823,7.38,5.752Z" />
    <path class="light-defaultgrey" d="M9.62,5.752l1.489,1.071L10.927,5h1.146l-.182,1.823L13.38,5.752l.574.994L12.282,7.5l1.672.754-.574.994L11.891,8.177,12.073,10H10.927l.182-1.823L9.62,9.248l-.574-.994L10.718,7.5,9.046,6.746Z" />
    <path class="light-defaultgrey-10" d="M15.5,3.5v8H1.5v-8Z" />
    <path class="light-defaultgrey" d="M15.5,3H1.5L1,3.5v8l.5.5h14l.5-.5v-8ZM15,11H2V4H15Z" />
  </g>
</svg>
