<svg xmlns="http://www.w3.org/2000/svg" viewBox="0 0 16 16">
  <defs>
    <style>.canvas{fill: none; opacity: 0;}.light-defaultgrey-10{fill: #212121; opacity: 0.1;}.light-defaultgrey{fill: #212121; opacity: 1;}.light-blue{fill: #005dba; opacity: 1;}.white{fill: #ffffff; opacity: 1;}</style>
  </defs>
  <title>PasswordRecovery</title>
  <g id="canvas" class="canvas">
    <path class="canvas" d="M16,16H0V0H16Z" />
  </g>
  <g id="level-1">
    <path class="light-defaultgrey-10" d="M7.255,10.5H.5v-8h14V7.7A4.937,4.937,0,0,0,12,7,4.991,4.991,0,0,0,7.255,10.5Z" />
    <path class="light-defaultgrey" d="M7.1,11H.5L0,10.5v-8L.5,2h14l.5.5V8.026a4.967,4.967,0,0,0-1-.6V3H1v7H7.424A4.91,4.91,0,0,0,7.1,11Z" />
    <path class="light-defaultgrey" d="M8.046,7.254,9.718,6.5,8.046,5.746l.574-.994,1.489,1.071L9.927,4h1.146l-.182,1.823L12.38,4.752l.574.994L11.282,6.5l1.22.551A4.876,4.876,0,0,0,12,7a4.973,4.973,0,0,0-1.912.383l.021-.206L8.62,8.248Z" />
    <path class="light-defaultgrey" d="M6.954,5.746,5.282,6.5l1.672.754-.574.994L4.891,7.177,5.073,9H3.927l.182-1.823L2.62,8.248l-.574-.994L3.718,6.5,2.046,5.746l.574-.994L4.109,5.823,3.927,4H5.073L4.891,5.823,6.38,4.752Z" />
    <path class="light-blue" d="M12,16a4,4,0,1,1,4-4A4,4,0,0,1,12,16Z" />
    <path class="white" d="M12.625,14.5A.625.625,0,1,1,12,13.875.625.625,0,0,1,12.625,14.5Zm.587-4.842a1.534,1.534,0,0,1,.5,1.137c0,.775-.546,1.116-1.085,1.638a.543.543,0,0,0-.167.264,1.55,1.55,0,0,0-.033.508h-.858v-.3a1.29,1.29,0,0,1,.094-.508A1.692,1.692,0,0,1,11.9,12c.3-.373.426-.315.863-.879a.457.457,0,0,0,.094-.326.859.859,0,0,0-1.714,0h-.857A1.731,1.731,0,0,1,13.212,9.658Z" />
  </g>
</svg>
