<svg xmlns="http://www.w3.org/2000/svg" viewBox="0 0 16 16">
  <defs>
    <style>.canvas{fill: none; opacity: 0;}.light-defaultgrey-10{fill: #212121; opacity: 0.1;}.light-blue{fill: #005dba; opacity: 1;}.light-defaultgrey{fill: #212121; opacity: 1;}</style>
  </defs>
  <title>IconLightPassThroughBridge</title>
  <g id="canvas">
    <path class="canvas" d="M16,16H0V0H16Z" />
  </g>
  <g id="level-1">
    <path class="light-defaultgrey-10" d="M11.5,7.5c0,2.209-.672,4-1.5,4H4c-.629,0-1.166-1.035-1.389-2.5H4.887A9.43,9.43,0,0,0,5,7.5,9.43,9.43,0,0,0,4.887,6H2.611C2.834,4.535,3.371,3.5,4,3.5h6C10.828,3.5,11.5,5.291,11.5,7.5Z" />
    <path class="light-blue" d="M14.293,7,13.146,5.854l.708-.708,2,2v.708l-2,2-.708-.708L14.293,8H11V7Z" />
    <path class="light-blue" d="M4,8H1V7H4Z" />
    <path class="light-defaultgrey" d="M10,3H3.969C2.954,3,2.336,4.349,2.106,6H3.113c.21-1.308.657-2,.872-2h.03C4.3,4,5,5.227,5,7.5S4.3,11,4.015,11h-.03c-.215,0-.662-.692-.872-2H2.106c.23,1.651.848,3,1.863,3H10c1.313,0,2-2.264,2-4.5S11.313,3,10,3Zm0,8H5.3A7.9,7.9,0,0,0,6,7.5,7.913,7.913,0,0,0,5.3,4H10c.29,0,1,1.227,1,3.5S10.29,11,10,11Z" />
  </g>
</svg>
