<svg xmlns="http://www.w3.org/2000/svg" viewBox="0 0 16 16">
  <defs>
    <style>.canvas{fill: none; opacity: 0;}.light-defaultgrey-10{fill: #212121; opacity: 0.1;}.light-defaultgrey{fill: #212121; opacity: 1;}.cls-1{opacity:0;fill:none;}</style>
  </defs>
  <title>IconLightPasswordStrength</title>
  <g id="canvas" class="canvas">
    <path class="canvas" d="M16,16H0V0H16Z" />
  </g>
  <g id="level-1">
    <path class="light-defaultgrey-10" d="M9.586,10.5H1.5v-8h14V8.348A3,3,0,0,0,10,10v.086Z" />
    <path class="light-defaultgrey" d="M9.086,11H1.5L1,10.5v-8L1.5,2h14l.5.5V10a2.985,2.985,0,0,0-1-2.22V3H2v7h8v.086Z" />
    <path class="cls-1" d="M16,16H0V0H16Z" />
    <path class="light-defaultgrey" d="M7.954,5.746,6.282,6.5l1.672.754-.574.994L5.891,7.177,6.073,9H4.927l.182-1.823L3.62,8.248l-.574-.994L4.718,6.5,3.046,5.746l.574-.994L5.109,5.823,4.927,4H6.073L5.891,5.823,7.38,4.752Z" />
    <path class="light-defaultgrey" d="M9.046,7.254,10.718,6.5,9.046,5.746l.574-.994,1.489,1.071L10.927,4h1.146l-.182,1.823L13.38,4.752l.574.994L12.282,6.5l1.22.551a2.745,2.745,0,0,0-1.571.155l-.04-.029,0,.04a2.966,2.966,0,0,0-.842.52l.056-.56L9.62,8.248Z" />
    <path class="light-defaultgrey-10" d="M15.5,11.5v4h-5v-4Z" />
    <path class="light-defaultgrey" d="M15.5,11H15V10a2,2,0,0,0-4,0v1h-.5l-.5.5v4l.5.5h5l.5-.5v-4ZM12,10a1,1,0,0,1,2,0v1H12Zm3,5H11V12h4Z" />
  </g>
</svg>
