<svg xmlns="http://www.w3.org/2000/svg" viewBox="0 0 16 16">
  <defs>
    <style>.canvas{fill: none; opacity: 0;}.light-defaultgrey-10{fill: #212121; opacity: 0.1;}.light-defaultgrey{fill: #212121; opacity: 1;}.light-blue-10{fill: #005dba; opacity: 0.1;}.light-blue{fill: #005dba; opacity: 1;}.cls-1{opacity:0.75;}</style>
  </defs>
  <title>IconLightPasteReplace</title>
  <g id="canvas" class="canvas">
    <path class="canvas" d="M16,16H0V0H16Z" />
  </g>
  <g id="level-1">
    <g class="cls-1">
      <path class="light-defaultgrey-10" d="M13.5,3.5V13H13v-.5l-.5-.5H11V9.5L10.5,9h-7V3.5Z" />
      <path class="light-defaultgrey" d="M14,3.5v11l-.5.5H13V14h0V4H4V9H3V3.5L3.5,3h10Z" />
    </g>
    <path class="light-defaultgrey" d="M10.5,2a2,2,0,0,0-4,0H5V4h7V2Zm-2-1a1,1,0,1,1-1,1A1,1,0,0,1,8.5,1Z" />
    <g class="cls-1">
      <path class="light-defaultgrey-10" d="M11.5,15.5h-9v-2h9Z" />
      <path class="light-defaultgrey" d="M11.5,13h-9l-.5.5v2l.5.5h9l.5-.5v-2h0ZM5,15H3V14H5Zm3,0H6V14H8Zm3,0H9V14h2Z" />
    </g>
    <path class="light-blue-10" d="M9.5,13.5H.5v-3h9Z" />
    <path class="light-blue" d="M9.5,10H.5l-.5.5v3l.5.5h9l.5-.5v-3ZM3,13H1V11H3Zm3,0H4V11H6Zm3,0H7V11H9Z" />
  </g>
</svg>
