<svg xmlns="http://www.w3.org/2000/svg" viewBox="0 0 16 16">
  <defs>
    <style>.canvas{fill: none; opacity: 0;}.light-defaultgrey-10{fill: #212121; opacity: 0.1;}.light-defaultgrey{fill: #212121; opacity: 1;}</style>
  </defs>
  <title>IconLightPathMany</title>
  <g id="canvas">
    <path class="canvas" d="M16,0V16H0V0Z" />
  </g>
  <g id="level-1">
    <path class="light-defaultgrey-10" d="M3.5,4.5H.5v-3h3Z" />
    <path class="light-defaultgrey-10" d="M14.5,15.5h-3v-3h3Z" />
    <path class="light-defaultgrey" d="M14.5,12h-3l-.5.5V14H2V5H3.5L4,4.5v-3L3.5,1H.5L0,1.5v3L.5,5H1c.007,0,0,9.5,0,9.5l.5.5H11v.5l.5.5h3l.5-.5v-3ZM1,2H3V4H1ZM14,15H12V13h2Z" />
    <path class="light-defaultgrey" d="M4,10H3V9H4Z" />
    <path class="light-defaultgrey" d="M15,7.5a2.494,2.494,0,0,1-4.37,1.65l.62-.82.05.07a1.5,1.5,0,1,0,0-1.8L9.5,9A2.5,2.5,0,1,1,9.37,5.85l-.62.82L8.7,6.6a1.5,1.5,0,1,0,0,1.8L10.5,6A2.5,2.5,0,0,1,15,7.5Z" />
  </g>
</svg>
