<svg xmlns="http://www.w3.org/2000/svg" viewBox="0 0 16 16">
  <defs>
    <style>.canvas{fill: none; opacity: 0;}.light-defaultgrey-10{fill: #212121; opacity: 0.1;}.light-defaultgrey{fill: #212121; opacity: 1;}</style>
  </defs>
  <title>IconLightPathListBox</title>
  <g id="canvas">
    <path class="canvas" d="M16,0V16H0V0Z" />
  </g>
  <g id="level-1">
    <path class="light-defaultgrey-10" d="M5.5,7.5h-3v-3h3Z" />
    <path class="light-defaultgrey-10" d="M13.5,11.5h-3v-3h3Z" />
    <path class="light-defaultgrey" d="M15.724,9.447l-.448-.894L14,9.191V8.5L13.5,8h-3l-.5.5v.459l-4-3.2V4.5L5.5,4h-3L2,4.5V5.691L.276,6.553l.448.894L2,6.809V7.5l.5.5h3L6,7.5V7.041l4,3.2V11.5l.5.5h3l.5-.5V10.309ZM5,7H3V5H5Zm8,4H11V9h2Z" />
  </g>
</svg>
