<svg xmlns="http://www.w3.org/2000/svg" viewBox="0 0 16 16">
  <defs>
    <style>.canvas{fill: none; opacity: 0;}.light-defaultgrey-10{fill: #212121; opacity: 0.1;}.light-defaultgrey{fill: #212121; opacity: 1;}</style>
  </defs>
  <title>IconLightPathOne</title>
  <g id="canvas">
    <path class="canvas" d="M16,0V16H0V0Z" />
  </g>
  <g id="level-1">
    <path class="light-defaultgrey-10" d="M14.5,15.5h-3v-3h3Z" />
    <path class="light-defaultgrey-10" d="M3.5,4.5H.5v-3h3Z" />
    <path class="light-defaultgrey" d="M6,10H5V9H6ZM9,9H8v1H9Z" />
    <path class="light-defaultgrey" d="M11.1,6.148a3.152,3.152,0,0,1-.532.243A1.688,1.688,0,0,1,10,6.5v-1a.924.924,0,0,0,.242-.047,2.486,2.486,0,0,0,.313-.117,1.5,1.5,0,0,0,.281-.164A.673.673,0,0,0,11.008,5H12v5h-.9Z" />
    <path class="light-defaultgrey" d="M14.5,12h-3l-.5.5V14H2V5H3.5L4,4.5v-3L3.5,1H.5L0,1.5v3L.5,5H1c.007,0,0,9.5,0,9.5l.5.5H11v.5l.5.5h3l.5-.5v-3ZM1,2H3V4H1ZM14,15H12V13h2Z" />
  </g>
</svg>
