<svg xmlns="http://www.w3.org/2000/svg" viewBox="0 0 16 16">
  <defs>
    <style>.canvas{fill: none; opacity: 0;}.light-defaultgrey-10{fill: #212121; opacity: 0.1;}.light-blue-10{fill: #005dba; opacity: 0.1;}.light-defaultgrey{fill: #212121; opacity: 1;}.light-blue{fill: #005dba; opacity: 1;}</style>
  </defs>
  <title>IconLightPathListBoxItem</title>
  <g id="canvas">
    <path class="canvas" d="M16,0V16H0V0Z" />
  </g>
  <g id="level-1">
    <path class="light-defaultgrey-10" d="M5.5,7.5h-3v-3h3Z" />
    <path class="light-blue-10" d="M13.5,11.5h-3v-3h3Z" />
    <path class="light-defaultgrey" d="M13.724,10.447l-.448-.894,2-1,.448.894Zm-3.537-.056L6,7.041V7.5L5.5,8h-3L2,7.5V6.809L.724,7.447.276,6.553,2,5.691V4.5L2.5,4h3l.5.5V5.759l4.812,3.85ZM5,5H3V7H5Z" />
    <path class="light-blue" d="M12.354,6.354h-.708l-2-2,.708-.708L12,5.293l1.646-1.647.708.708Z" />
    <path class="light-blue" d="M13.5,12h-3l-.5-.5v-3l.5-.5h3l.5.5v3ZM11,11h2V9H11Z" />
  </g>
</svg>
