<svg xmlns="http://www.w3.org/2000/svg" viewBox="0 0 16 16">
  <defs>
    <style>.canvas{fill: none; opacity: 0;}.light-defaultgrey-10{fill: #212121; opacity: 0.1;}.light-defaultgrey{fill: #212121; opacity: 1;}</style>
  </defs>
  <title>IconLightPathIcon</title>
  <g id="canvas">
    <path class="canvas" d="M16,0V16H0V0Z" />
  </g>
  <g id="level-1">
    <path class="light-defaultgrey-10" d="M14.5,8A6.5,6.5,0,1,1,8,1.5,6.5,6.5,0,0,1,14.5,8Z" />
    <path class="light-defaultgrey-10" d="M5.5,7.5h-3v-3h3Z" />
    <path class="light-defaultgrey-10" d="M13.5,11.5h-3v-3h3Z" />
    <path class="light-defaultgrey" d="M8,1a7,7,0,1,0,7,7A7,7,0,0,0,8,1ZM8,2a6,6,0,0,1,6,6c0,.161-.012.318-.024.476L13.5,8h-3l-.5.5v.459l-4-3.2V4.5L5.5,4H3.537A5.976,5.976,0,0,1,8,2Zm5,9H11V9h2ZM3,5H5V7H3Zm5,9A6,6,0,0,1,2,8c0-.161.012-.318.024-.476L2.5,8h3L6,7.5V7.041l4,3.2V11.5l.5.5h1.963A5.976,5.976,0,0,1,8,14Z" />
  </g>
</svg>
