<svg xmlns="http://www.w3.org/2000/svg" viewBox="0 0 16 16">
  <defs>
    <style>.canvas{fill: none; opacity: 0;}.light-defaultgrey{fill: #212121; opacity: 1;}.light-defaultgrey-10{fill: #212121; opacity: 0.1;}.cls-1{opacity:0.75;}</style>
  </defs>
  <title>PDBFile</title>
  <g id="canvas">
    <path class="canvas" d="M16,16H0V0H16Z" />
  </g>
  <g id="level-1">
    <path class="light-defaultgrey" d="M4,8a4,4,0,1,0,4,4A4,4,0,0,0,4,8Z" />
    <g class="cls-1">
      <path class="light-defaultgrey-10" d="M10.5,1.5h-8V7.22c.17-.04.33-.09.5-.12A4.712,4.712,0,0,1,4,7,4.941,4.941,0,0,1,7,8,5.262,5.262,0,0,1,8,9a4.918,4.918,0,0,1,.9,2A4.712,4.712,0,0,1,9,12a5.106,5.106,0,0,1-.41,2c-.08.17-.17.34-.26.5H13.5V4.5Z" />
      <path class="light-defaultgrey" d="M13.85,4.15l-3-3L10.5,1h-8L2,1.5V7.41c.16-.07.33-.13.5-.19.17-.04.33-.09.5-.12V2h7V5h3v9H8.59c-.08.17-.17.34-.26.5A4.322,4.322,0,0,1,8,15h5.5l.5-.5V4.5Z" />
    </g>
    <path class="light-defaultgrey" d="M4,5V6H9V5Zm4.9,6A4.712,4.712,0,0,1,9,12h3V11ZM7,8A5.262,5.262,0,0,1,8,9h4V8Z" />
  </g>
</svg>
