<svg xmlns="http://www.w3.org/2000/svg" viewBox="0 0 16 16">
  <defs>
    <style>.canvas{fill: none; opacity: 0;}.light-defaultgrey-10{fill: #212121; opacity: 0.1;}.light-defaultgrey{fill: #212121; opacity: 1;}.light-blue{fill: #005dba; opacity: 1;}</style>
  </defs>
  <title>IconLightPendingRename</title>
  <g id="canvas">
    <path class="canvas" d="M16,0V16H0V0Z" />
  </g>
  <g id="level-1">
    <path class="light-defaultgrey-10" d="M7.5,12A3.5,3.5,0,1,1,4,8.5,3.5,3.5,0,0,1,7.5,12Z" />
    <path class="light-defaultgrey" d="M4,16a4,4,0,1,1,4-4A4,4,0,0,1,4,16ZM4,9a3,3,0,1,0,3,3A3,3,0,0,0,4,9Zm1.5,4H4l-.5-.5V10h1v2h1Z" />
    <path class="light-blue" d="M12,4V8a1,1,0,0,0,1,1v1a1.985,1.985,0,0,1-1.5-.69A1.985,1.985,0,0,1,10,10V9a1,1,0,0,0,1-1V4a1,1,0,0,0-1-1V2a1.985,1.985,0,0,1,1.5.69A1.985,1.985,0,0,1,13,2V3A1,1,0,0,0,12,4Z" />
  </g>
</svg>
