<svg xmlns="http://www.w3.org/2000/svg" viewBox="0 0 16 16">
  <defs>
    <style>.canvas{fill: none; opacity: 0;}.light-defaultgrey-10{fill: #212121; opacity: 0.1;}.light-defaultgrey{fill: #212121; opacity: 1;}.cls-1{opacity:0.75;}</style>
  </defs>
  <title>IconLightPendingBranch</title>
  <g id="canvas">
    <path class="canvas" d="M16,0V16H0V0Z" />
  </g>
  <g id="level-1">
    <path class="light-defaultgrey-10" d="M7.5,12A3.5,3.5,0,1,1,4,8.5,3.5,3.5,0,0,1,7.5,12Z" />
    <path class="light-defaultgrey" d="M4,16a4,4,0,1,1,4-4A4,4,0,0,1,4,16ZM4,9a3,3,0,1,0,3,3A3,3,0,0,0,4,9Zm1.5,4H4l-.5-.5V10h1v2h1Z" />
    <path class="light-defaultgrey-10" d="M14,11a1.5,1.5,0,1,1-1.5-1.5A1.5,1.5,0,0,1,14,11Z" />
    <path class="light-defaultgrey-10" d="M14,3a1.5,1.5,0,1,1-1.5-1.5A1.5,1.5,0,0,1,14,3Z" />
    <path class="light-defaultgrey-10" d="M9,4A1.5,1.5,0,1,1,7.5,2.5,1.5,1.5,0,0,1,9,4Z" />
    <path class="light-defaultgrey" d="M12.5,1a2,2,0,1,0,2,2A2,2,0,0,0,12.5,1Zm0,3a1,1,0,1,1,1-1A1,1,0,0,1,12.5,4Z" />
    <path class="light-defaultgrey" d="M7.5,2a2,2,0,1,0,2,2A2,2,0,0,0,7.5,2Zm0,3a1,1,0,1,1,1-1A1,1,0,0,1,7.5,5Z" />
    <path class="light-defaultgrey" d="M12.5,9a2,2,0,1,0,2,2A2,2,0,0,0,12.5,9Zm0,3a1,1,0,1,1,1-1A1,1,0,0,1,12.5,12Z" />
    <g class="cls-1">
      <path class="light-defaultgrey" d="M8,5V6.5a.5.5,0,0,0,.5.5h3a1.5,1.5,0,0,1,.5.092V4.5h1v5H12v-1a.5.5,0,0,0-.5-.5h-3A1.5,1.5,0,0,1,7,6.5V5Z" />
    </g>
  </g>
</svg>
