<svg xmlns="http://www.w3.org/2000/svg" viewBox="0 0 7 16">
  <defs>
    <style>.canvas{fill: none; opacity: 0;}.light-defaultgrey{fill: #212121; opacity: 1;}</style>
  </defs>
  <title>IconLightPendingUndeleteNode</title>
  <g id="canvas">
    <path class="canvas" d="M7,16H0V0H7Z" />
  </g>
  <g id="level-1">
    <path class="light-defaultgrey" d="M6,6.757a2.233,2.233,0,0,1-.646,1.6L2.845,10.847l-.7-.709L4.647,7.646A1.241,1.241,0,0,0,5,6.757a1.256,1.256,0,0,0-.354-.9,1.342,1.342,0,0,0-1.792,0L1.707,7H3V8H0V5H1V6.293L2.146,5.146a2.371,2.371,0,0,1,3.208,0A2.254,2.254,0,0,1,6,6.757Z" />
  </g>
</svg>
