<svg xmlns="http://www.w3.org/2000/svg" viewBox="0 0 7 16">
  <defs>
    <style>.canvas{fill: none; opacity: 0;}.light-defaultgrey-10{fill: #212121; opacity: 0.1;}.light-defaultgrey{fill: #212121; opacity: 1;}</style>
  </defs>
  <title>IconLightPendingChangeNode</title>
  <g id="canvas">
    <path class="canvas" d="M7,16H0V0H7Z" />
  </g>
  <g id="level-1">
    <path class="light-defaultgrey-10" d="M6.5,8.5a3,3,0,1,1-3-3A3,3,0,0,1,6.5,8.5Z" />
    <path class="light-defaultgrey" d="M3.5,12A3.5,3.5,0,1,1,7,8.5,3.5,3.5,0,0,1,3.5,12Zm0-6A2.5,2.5,0,1,0,6,8.5,2.5,2.5,0,0,0,3.5,6Z" />
    <path class="light-defaultgrey" d="M5,9.021H3v-2H4v1H5Z" />
  </g>
</svg>
