<svg xmlns="http://www.w3.org/2000/svg" viewBox="0 0 7 16">
  <defs>
    <style>.canvas{fill: none; opacity: 0;}.light-defaultgrey{fill: #212121; opacity: 1;}</style>
  </defs>
  <title>IconLightPendingMergeNode</title>
  <g id="canvas">
    <path class="canvas" d="M7,16H0V0H7Z" />
  </g>
  <g id="level-1">
    <path class="light-defaultgrey" d="M5,9v1A3.974,3.974,0,0,1,2,8.618V10.5H1v-5H2V6A3,3,0,0,0,5,9Z" />
    <path class="light-defaultgrey" d="M1.5,6A1.5,1.5,0,1,1,3,4.5,1.5,1.5,0,0,1,1.5,6Zm0-2a.5.5,0,1,0,.5.5A.5.5,0,0,0,1.5,4Z" />
    <path class="light-defaultgrey" d="M1.5,13A1.5,1.5,0,1,1,3,11.5,1.5,1.5,0,0,1,1.5,13Zm0-2a.5.5,0,1,0,.5.5A.5.5,0,0,0,1.5,11Z" />
    <path class="light-defaultgrey" d="M5.5,11A1.5,1.5,0,1,1,7,9.5,1.5,1.5,0,0,1,5.5,11Zm0-2a.5.5,0,1,0,.5.5A.5.5,0,0,0,5.5,9Z" />
  </g>
</svg>
