<svg xmlns="http://www.w3.org/2000/svg" viewBox="0 0 16 16">
  <defs>
    <style>.canvas{fill: none; opacity: 0;}.light-defaultgrey-10{fill: #212121; opacity: 0.1;}.light-defaultgrey{fill: #212121; opacity: 1;}</style>
  </defs>
  <title>IconLightPenOne</title>
  <g id="canvas">
    <path class="canvas" d="M16,0V16H0V0Z" />
  </g>
  <g id="level-1">
    <path class="light-defaultgrey-10" d="M15,1V4L6.5,12.5l-.75-.75L4,13.5,2.5,12l1.75-1.75L3.5,9.5,12,1Z" />
    <path class="light-defaultgrey" d="M13,5.29,10.71,3l2-2H11.3L3.15,9.15v.7l.39.4-1.39,1.4v.7l.39.4-1.39,1.4.7.7,1.4-1.39.4.39h.7l1.4-1.39.4.39h.7L15,4.7V3.29Zm-9,7.5L3.21,12l1.04-1.04.79.79Zm2.5-1L4.21,9.5,10,3.71,12.29,6Z" />
  </g>
</svg>
