<svg xmlns="http://www.w3.org/2000/svg" viewBox="0 0 16 16">
  <defs>
    <style>.canvas{fill: none; opacity: 0;}.light-blue{fill: #005dba; opacity: 1;}.light-defaultgrey-10{fill: #212121; opacity: 0.1;}.light-defaultgrey{fill: #212121; opacity: 1;}</style>
  </defs>
  <title>IconLightPenPalette</title>
  <g id="canvas">
    <path class="canvas" d="M16,16H0V0H16Z" />
  </g>
  <g id="level-1">
    <path class="light-blue" d="M15,13.563a.577.577,0,0,1-.146.38,2.672,2.672,0,0,1-.495.45,3.355,3.355,0,0,1-1.235.536,3.145,3.145,0,0,1-.655.071,3.1,3.1,0,0,1-1.3-.275,3.5,3.5,0,0,1-1.078-.776,2.431,2.431,0,0,0-.708-.515,1.945,1.945,0,0,0-.849-.184,1.972,1.972,0,0,0-.845.184,2.278,2.278,0,0,0-.711.515l-.8.794-.087.091a.56.56,0,1,1-.791-.793q.367-.368.7-.709a5.4,5.4,0,0,1,.7-.615,3.2,3.2,0,0,1,.811-.43,3.015,3.015,0,0,1,1.033-.162,3.1,3.1,0,0,1,1.3.275,3.5,3.5,0,0,1,1.078.776,2.431,2.431,0,0,0,.708.515,1.945,1.945,0,0,0,.849.184,1.842,1.842,0,0,0,.845-.182,2.953,2.953,0,0,0,.715-.521.7.7,0,0,1,.182-.126A.527.527,0,0,1,14.437,13a.554.554,0,0,1,.4.162A.542.542,0,0,1,15,13.563Z" />
    <path class="light-blue" d="M2.949,13.743,2.368,14.75a.5.5,0,0,1-.433.25.494.494,0,0,1-.25-.067A.5.5,0,0,1,1.5,14.25l.581-1.007a.5.5,0,0,1,.866.5Z" />
    <path class="light-defaultgrey-10" d="M9.914,3,4.1,13.068l-1.588.426-.425-1.588L7.9,1.842Z" />
    <path class="light-defaultgrey" d="M10.094,2.531l.4-.7-.183-.683L9.309.567,8.625.75l-.4.7-.07-.041-.683.183-.339.587a.462.462,0,0,0-.062-.054L6.061,1.544l-.684.183L3.344,5.249a.5.5,0,0,0,.183.683A.488.488,0,0,0,3.776,6a.5.5,0,0,0,.434-.25l1.784-3.09.573.331a.461.461,0,0,0,.079.027L1.658,11.656l-.05.38.425,1.587.613.354,1.587-.425.3-.234L10.348,3.254l-.183-.683ZM3.774,12.639l-.9.242-.243-.9L8.084,2.524l1.147.663Z" />
  </g>
</svg>
