<svg xmlns="http://www.w3.org/2000/svg" viewBox="0 0 16 16">
  <defs>
    <style>.canvas{fill: none; opacity: 0;}.light-defaultgrey{fill: #212121; opacity: 1;}</style>
  </defs>
  <title>IconLightPercentage</title>
  <g id="canvas">
    <path class="canvas" d="M16,16H0V0H16Z" />
  </g>
  <g id="level-1">
    <path class="light-defaultgrey" d="M4.58,8.057A2.406,2.406,0,0,1,2.7,7.28,2.976,2.976,0,0,1,2,5.205a3.2,3.2,0,0,1,.74-2.234,2.571,2.571,0,0,1,2-.817,2.4,2.4,0,0,1,1.892.757A3.1,3.1,0,0,1,7.3,5.038a3.13,3.13,0,0,1-.752,2.194A2.544,2.544,0,0,1,4.58,8.057Zm.112-5.026A1.433,1.433,0,0,0,3.5,3.592a2.441,2.441,0,0,0-.439,1.541,2.346,2.346,0,0,0,.431,1.5,1.417,1.417,0,0,0,1.17.537,1.385,1.385,0,0,0,1.171-.557A2.5,2.5,0,0,0,6.254,5.07a2.393,2.393,0,0,0-.419-1.5A1.369,1.369,0,0,0,4.692,3.031Zm7.535-.7L4.9,13.832H3.76l7.32-11.5Zm-.844,11.6a2.4,2.4,0,0,1-1.88-.781,2.977,2.977,0,0,1-.7-2.07A3.212,3.212,0,0,1,9.55,8.834a2.563,2.563,0,0,1,1.993-.825,2.39,2.39,0,0,1,1.887.764,3.128,3.128,0,0,1,.677,2.143,3.114,3.114,0,0,1-.753,2.187A2.546,2.546,0,0,1,11.383,13.927Zm.111-5.018a1.432,1.432,0,0,0-1.2.558,2.451,2.451,0,0,0-.434,1.545,2.313,2.313,0,0,0,.43,1.485,1.416,1.416,0,0,0,1.17.538,1.382,1.382,0,0,0,1.171-.561,2.512,2.512,0,0,0,.423-1.542,2.353,2.353,0,0,0-.419-1.5A1.38,1.38,0,0,0,11.494,8.909Z" />
  </g>
</svg>
