<svg xmlns="http://www.w3.org/2000/svg" viewBox="0 0 16 16">
  <defs>
    <style>.canvas{fill: none; opacity: 0;}.light-defaultgrey-10{fill: #212121; opacity: 0.1;}.light-green{fill: #1f801f; opacity: 1;}.light-defaultgrey{fill: #212121; opacity: 1;}.light-yellow{fill: #996f00; opacity: 1;}.white{fill: #ffffff; opacity: 1;}</style>
  </defs>
  <title>PerformanceWaring</title>
  <g id="canvas">
    <path class="canvas" d="M16,16H0V0H16Z" />
  </g>
  <g id="level-1">
    <path class="light-defaultgrey-10" d="M1.5,2.5v10H7.44l.28-.5,2.75-5h2.06l.47.85.5.91V2.5Z" />
    <path class="light-green" d="M10.85,5.15h-.7L6.5,8.79,4.85,7.15h-.7L2,9.29v1.42l2.5-2.5L6.15,9.85h.7L10.5,6.21l.79.79h1.24l.47.85V7.29Z" />
    <path class="light-defaultgrey" d="M13.5,2H1.5L1,2.5v10l.5.5H7.17l.27-.5.28-.5H2V3H13V7.85l.5.91.5.91V2.5Z" />
    <path class="light-yellow" d="M15.5,16h-8l-.439-.739,4-7.261h.878l4,7.261Z" />
    <path class="white" d="M12,13H11V10h1Zm.25,1.5a.75.75,0,1,1-.75-.75A.75.75,0,0,1,12.25,14.5Z" />
  </g>
</svg>
