<svg xmlns="http://www.w3.org/2000/svg" viewBox="0 0 16 16">
  <defs>
    <style>.canvas{fill: none; opacity: 0;}.light-defaultgrey-10{fill: #212121; opacity: 0.1;}.light-defaultgrey{fill: #212121; opacity: 1;}.light-green{fill: #1f801f; opacity: 1;}</style>
  </defs>
  <title>PerformanceReport</title>
  <g id="canvas" class="canvas">
    <path class="canvas" d="M16,16H0V0H16Z" />
  </g>
  <g id="level-1">
    <path class="light-defaultgrey-10" d="M5.5,1.5V5h.19L6,5.12l.12.05.3.12.5.5L9.7,8.58,9.88,9l.12.3v.2h5.5v-8Z" />
    <path class="light-defaultgrey" d="M15.5,1H5.5L5,1.5V5h.69L6,5.12V2h9V9H9.88l.12.3V10h5.5l.5-.5v-8Z" />
    <path class="light-green" d="M12.85,3.15h-.7L9.5,5.79,7.85,4.15h-.7L6.12,5.17l.3.12.5.5.58-.58L9.15,6.85h.7L12.5,4.21,15,6.71V5.29Z" />
    <path class="light-defaultgrey-10" d="M8.5,9.5v6H.5v-9h5Z" />
    <path class="light-defaultgrey" d="M8.854,9.142l-3-3L5.5,6H.5L0,6.5v9l.5.5h8l.5-.5v-6ZM8,15H1V7H5v3H8ZM3.5,12l.5.5v1l-.5.5h-1L2,13.5v-1l.5-.5ZM5,11.5l.5-.5h1l.5.5v2l-.5.5h-1L5,13.5ZM2,8H4V9H2Zm1,3H2V10H3Z" />
  </g>
</svg>
