<svg xmlns="http://www.w3.org/2000/svg" viewBox="0 0 16 16">
  <defs>
    <style>.canvas{fill: none; opacity: 0;}.light-defaultgrey-10{fill: #212121; opacity: 0.1;}.light-defaultgrey{fill: #212121; opacity: 1;}.light-green{fill: #1f801f; opacity: 1;}.light-darkblue{fill: #313c9e; opacity: 1;}.light-blue{fill: #005dba; opacity: 1;}</style>
  </defs>
  <title>IconLightPerformanceWizard</title>
  <g id="canvas" class="canvas">
    <path class="canvas" d="M16,16H0V0H16Z" />
  </g>
  <g id="level-1">
    <path class="light-defaultgrey-10" d="M14.5,3.5v10H2.5V8.912a1.5,1.5,0,0,0,.971-1.118l.053-.27.27-.053A1.5,1.5,0,0,0,4.912,6.5,1.48,1.48,0,0,0,6,7,1.5,1.5,0,0,0,7.471,5.794l.22-1.1,1.1-.22A1.5,1.5,0,0,0,9.912,3.5Z" />
    <path class="light-defaultgrey" d="M15,3.5v10l-.5.5H2.5L2,13.5V9a1.486,1.486,0,0,0,1-.4V13H14V4H9.6A1.486,1.486,0,0,0,10,3h4.5Z" />
    <path class="light-green" d="M14,9.707l-2.5-2.5L7.854,10.854H7.146L5.5,9.207,3,11.707V10.293L5.146,8.146h.708L7.5,9.793l3.646-3.647h.708L14,8.293Z" />
    <path class="light-darkblue" d="M9,3a.5.5,0,0,1-.4.49l-1.313.263a.678.678,0,0,0-.532.532L6.49,5.6a.5.5,0,0,1-.98,0L5.247,4.285a.678.678,0,0,0-.532-.532L3.4,3.49a.5.5,0,0,1,0-.98l1.313-.263a.678.678,0,0,0,.532-.532L5.51.4a.5.5,0,0,1,.98,0l.263,1.313a.678.678,0,0,0,.532.532L8.6,2.51A.5.5,0,0,1,9,3Z" />
    <path class="light-blue" d="M4,6a.5.5,0,0,1-.4.49l-.788.157a.212.212,0,0,0-.163.165L2.49,7.6a.5.5,0,0,1-.98,0L1.353,6.81a.212.212,0,0,0-.165-.163L.4,6.49a.5.5,0,0,1,0-.98l.788-.157a.212.212,0,0,0,.163-.165L1.51,4.4a.5.5,0,0,1,.98,0l.157.788a.212.212,0,0,0,.165.163L3.6,5.51A.5.5,0,0,1,4,6Z" />
  </g>
</svg>
