<svg xmlns="http://www.w3.org/2000/svg" viewBox="0 0 16 16">
  <defs>
    <style>.canvas{fill: none; opacity: 0;}.light-defaultgrey-10{fill: #212121; opacity: 0.1;}.light-defaultgrey{fill: #212121; opacity: 1;}.cls-1{opacity:0.75;}</style>
  </defs>
  <title>IconLightPerspectivesView</title>
  <g id="canvas">
    <path class="canvas" d="M16,16H0V0H16Z" />
  </g>
  <g id="level-1">
    <path class="light-defaultgrey-10" d="M8.5,15.5H.5v-8h8Z" />
    <path class="light-defaultgrey-10" d="M4.6,6,2.5,5.045l5.5-3,5.5,3L9.691,6.776,8.914,6Z" />
    <g class="cls-1">
      <path class="light-defaultgrey-10" d="M13.5,5.045v7L10,13.636V7.086L8.914,6H2.5V5.045l5.5-3Z" />
      <path class="light-defaultgrey" d="M2,6V5.045l.261-.439.032.894L3,5.821V6ZM13.739,4.606l-.032.894L13,5.821v5.9l-3,1.364v1.1L13.707,12.5,14,12.045v-7Z" />
    </g>
    <path class="light-defaultgrey" d="M13.739,4.606l-.032.894L10,7.185v-.1L9.313,6.4,12.381,5,8,2.614,3.619,5,5.81,6H3.393l-1.1-.5-.032-.894,5.5-3h.478Z" />
    <path class="light-defaultgrey" d="M8.5,7H.5L0,7.5v8l.5.5h8l.5-.5v-8ZM6.645,12.938l-.707.707L7.293,15H1.707l1.355-1.355-.707-.707L1,14.293V8.707l1.355,1.355.707-.707L1.707,8H7.293L5.938,9.355l.707.707L8,8.707v5.586Z" />
  </g>
</svg>
