<svg xmlns="http://www.w3.org/2000/svg" viewBox="0 0 16 16">
  <defs>
    <style>.canvas{fill: none; opacity: 0;}.light-blue-10{fill: #005dba; opacity: 0.1;}.light-blue{fill: #005dba; opacity: 1;}.light-defaultgrey{fill: #212121; opacity: 1;}</style>
  </defs>
  <title>IconLightPersist</title>
  <g id="canvas">
    <path class="canvas" d="M16,0V16H0V0Z" />
  </g>
  <g id="level-1">
    <path class="light-blue-10" d="M.5.5h5l2,2v5H.5Z" />
    <path class="light-blue" d="M7.854,2.146l-2-2L5.5,0H.5L0,.5v7L.5,8h7L8,7.5v-5ZM4,1V3H3V1ZM7,7H1V1H2V3.5l.5.5h2L5,3.5V1h.293L7,2.707Z" />
    <path class="light-defaultgrey" d="M15.5,13H15V11.5l-.5-.5H12V9h.5l.5-.5v-2L12.5,6h-2l-.5.5v2l.5.5H11v2H8.5l-.5.5V13H7.5l-.5.5v2l.5.5h2l.5-.5v-2L9.5,13H9V12h5v1h-.5l-.5.5v2l.5.5h2l.5-.5v-2ZM11,7h1V8H11ZM9,15H8V14H9Zm6,0H14V14h1Z" />
  </g>
</svg>
