<svg xmlns="http://www.w3.org/2000/svg" viewBox="0 0 16 16">
  <defs>
    <style>.canvas{fill: none; opacity: 0;}.light-defaultgrey-10{fill: #212121; opacity: 0.1;}.light-defaultgrey{fill: #212121; opacity: 1;}.light-blue{fill: #005dba; opacity: 1;}</style>
  </defs>
  <title>PhoneRotateToPortaitLeft</title>
  <g id="canvas">
    <path class="canvas" d="M16,16H0V0H16Z" />
  </g>
  <g id="level-1">
    <path class="light-defaultgrey-10" d="M11.15,2.73l.35.35V1.5h-8v13h8V9.92l-.35.35L11,10.12,8.15,7.27V5.73Z" />
    <path class="light-defaultgrey" d="M7,3V4H8V3ZM6,12v1H9V12Zm0,0v1H9V12ZM8,3H7V4H8Zm3.15-.27.85.85V1.5L11.5,1h-8L3,1.5v13l.5.5h8l.5-.5V9.42l-.85.85L11,10.12V14H4V2h7v.88ZM6,13H9V12H6ZM7,3V4H8V3Z" />
    <path class="light-blue" d="M11.146,4.146l.708.708L10.707,6H12a3,3,0,0,1,3,3v1H14V9a2,2,0,0,0-2-2H10.707l1.147,1.146-.708.708-2-2V6.146Z" />
  </g>
</svg>
