<svg xmlns="http://www.w3.org/2000/svg" viewBox="0 0 16 16">
  <defs>
    <style>.canvas{fill: none; opacity: 0;}.light-defaultgrey-10{fill: #212121; opacity: 0.1;}.light-defaultgrey{fill: #212121; opacity: 1;}</style>
  </defs>
  <title>PhoneComponent</title>
  <g id="canvas">
    <path class="canvas" d="M16,16H0V0H16Z" />
  </g>
  <g id="level-1">
    <path class="light-defaultgrey-10" d="M4.5,1.5V8H6.91L8,9.09V14.5h4.5V1.5Z" />
    <path class="light-defaultgrey" d="M8,3V4H9V3Zm0,9v1h2V12Zm0,0v1h2V12ZM9,3H8V4H9Zm3.5-2h-8L4,1.5V8H5V2h7V14H8v1h4.5l.5-.5V1.5ZM8,13h2V12H8ZM8,3V4H9V3Z" />
    <path class="light-defaultgrey-10" d="M6.5,9.5v6H.5v-3h3v-3Z" />
    <path class="light-defaultgrey" d="M6.5,9h-3L3,9.5V12H.5l-.5.5v3l.5.5h6l.5-.5v-6ZM4,10H6v2H4ZM1,13H3v2H1Zm5,2H4V13H6Z" />
  </g>
</svg>
