<svg xmlns="http://www.w3.org/2000/svg" viewBox="0 0 16 16">
  <defs>
    <style>.canvas{fill: none; opacity: 0;}.light-defaultgrey-10{fill: #212121; opacity: 0.1;}.light-defaultgrey{fill: #212121; opacity: 1;}.light-yellow{fill: #996f00; opacity: 1;}</style>
  </defs>
  <title>IconLightPhoneLightTheme</title>
  <g id="canvas" class="canvas">
    <path class="canvas" d="M16,16H0V0H16Z" />
  </g>
  <g id="level-1">
    <path class="light-defaultgrey-10" d="M13.5,1.5v13H7.512A4.434,4.434,0,0,0,5.5,8.488V1.5Z" />
    <path class="light-defaultgrey" d="M10,3V4H9V3ZM8,13h3V12H8Z" />
    <path class="light-defaultgrey" d="M14,1.5v13l-.5.5H7.24a4.466,4.466,0,0,0,.484-1H13V2H6V8.76a4.466,4.466,0,0,0-1-.484V1.5L5.5,1h8Z" />
    <path class="light-yellow" d="M7,12.483v.034A.484.484,0,0,1,6.517,13H5.429a1.977,1.977,0,0,1-.212.51l.77.77a.484.484,0,0,1,0,.683l-.024.024a.484.484,0,0,1-.683,0l-.77-.77a1.977,1.977,0,0,1-.51.212v1.088A.484.484,0,0,1,3.517,16H3.483A.484.484,0,0,1,3,15.517V14.429a1.977,1.977,0,0,1-.51-.212l-.77.77a.484.484,0,0,1-.683,0l-.024-.024a.484.484,0,0,1,0-.683l.77-.77A1.977,1.977,0,0,1,1.571,13H.483A.484.484,0,0,1,0,12.517v-.034A.484.484,0,0,1,.483,12H1.571a1.977,1.977,0,0,1,.212-.51l-.77-.77a.484.484,0,0,1,0-.683l.024-.024a.484.484,0,0,1,.683,0l.77.77A1.977,1.977,0,0,1,3,10.571V9.483A.484.484,0,0,1,3.483,9h.034A.484.484,0,0,1,4,9.483v1.088a1.977,1.977,0,0,1,.51.212l.77-.77a.484.484,0,0,1,.683,0l.024.024a.484.484,0,0,1,0,.683l-.77.77a1.977,1.977,0,0,1,.212.51H6.517A.484.484,0,0,1,7,12.483Z" />
  </g>
</svg>
