<svg xmlns="http://www.w3.org/2000/svg" viewBox="0 0 16 16">
  <defs>
    <style>.canvas{fill: none; opacity: 0;}.light-defaultgrey-10{fill: #212121; opacity: 0.1;}.light-defaultgrey{fill: #212121; opacity: 1;}.light-blue-10{fill: #005dba; opacity: 0.1;}.light-blue{fill: #005dba; opacity: 1;}</style>
  </defs>
  <title>PhoneWebSite</title>
  <g id="canvas">
    <path class="canvas" d="M16,16H0V0H16Z" />
  </g>
  <g id="level-1">
    <path class="light-defaultgrey-10" d="M15.5,1.5v13H11L9.5,15H9.46a6.115,6.115,0,0,0,.635-.847l.015-.024a5.979,5.979,0,0,0,.467-.929c.008-.02.014-.041.022-.061a6.041,6.041,0,0,0,.289-.994c0-.023.006-.046.01-.069a5.571,5.571,0,0,0,.043-1.87c-.009-.067-.019-.132-.03-.2a5.889,5.889,0,0,0-.157-.695c-.006-.021-.009-.042-.016-.062a5.959,5.959,0,0,0-.279-.727c-.021-.045-.043-.089-.065-.134a5.878,5.878,0,0,0-.355-.636c-.008-.012-.014-.024-.022-.036a6.024,6.024,0,0,0-.491-.645l-.037-.04A6.011,6.011,0,0,0,7.5,5.553V1.5Z" />
    <path class="light-defaultgrey" d="M16,1.5v13l-.5.5H9.46a6.032,6.032,0,0,0,.728-1H15V2H8V5.812A5.934,5.934,0,0,0,7,5.35V1.5L7.5,1h8ZM13,12v1H10.65a5.969,5.969,0,0,0,.26-1ZM12,4H11V3h1Z" />
    <path class="light-blue-10" d="M9.5,11A4.5,4.5,0,1,1,5,6.5,4.5,4.5,0,0,1,9.5,11Z" />
    <path class="light-blue" d="M5,6a5,5,0,1,0,5,5A5.006,5.006,0,0,0,5,6ZM8.444,9H7.225a7.486,7.486,0,0,0-.712-1.7A4.011,4.011,0,0,1,8.444,9ZM9,11a3.939,3.939,0,0,1-.142,1H7.426A7.583,7.583,0,0,0,7.5,11a7.583,7.583,0,0,0-.074-1H8.858A3.939,3.939,0,0,1,9,11ZM5,15c-.037,0-.072-.01-.109-.011A6.5,6.5,0,0,1,3.832,13H6.168a6.5,6.5,0,0,1-1.061,1.989C5.071,14.99,5.037,15,5,15Zm1.412-3H3.588A6.419,6.419,0,0,1,3.5,11a6.419,6.419,0,0,1,.088-1H6.412A6.419,6.419,0,0,1,6.5,11,6.419,6.419,0,0,1,6.412,12ZM6.168,9H3.832A6.5,6.5,0,0,1,4.891,7.011C4.928,7.01,4.963,7,5,7s.072.01.11.011A6.54,6.54,0,0,1,6.168,9ZM3.487,7.3A7.486,7.486,0,0,0,2.775,9H1.556A4.011,4.011,0,0,1,3.487,7.3ZM2.574,12H1.142a3.592,3.592,0,0,1,0-2H2.574A7.583,7.583,0,0,0,2.5,11,7.583,7.583,0,0,0,2.574,12ZM1.556,13H2.775a7.486,7.486,0,0,0,.712,1.7A4.011,4.011,0,0,1,1.556,13Zm4.957,1.7A7.534,7.534,0,0,0,7.226,13H8.444A4.011,4.011,0,0,1,6.513,14.7Z" />
  </g>
</svg>
