<svg xmlns="http://www.w3.org/2000/svg" viewBox="0 0 16 16">
  <defs>
    <style>.canvas{fill: none; opacity: 0;}.light-defaultgrey-10{fill: #212121; opacity: 0.1;}.light-defaultgrey{fill: #212121; opacity: 1;}</style>
  </defs>
  <title>IconLightPhoneDarkTheme</title>
  <g id="canvas" class="canvas">
    <path class="canvas" d="M16,16H0V0H16Z" />
  </g>
  <g id="level-1">
    <path class="light-defaultgrey-10" d="M13.5,1.5v13H8.306A4.936,4.936,0,0,0,5.5,7.254V1.5Z" />
    <path class="light-defaultgrey" d="M4,8a4,4,0,1,0,4,4A4,4,0,0,0,4,8Zm0,7a2.962,2.962,0,0,1-1-.184A2.982,2.982,0,0,0,3,9.184,2.962,2.962,0,0,1,4,9a3,3,0,0,1,0,6Z" />
    <path class="light-defaultgrey" d="M11,12v1H8.9A4.988,4.988,0,0,0,9,12ZM10,4H9V3h1Z" />
    <path class="light-defaultgrey" d="M14,1.5v13l-.5.5H7.977a4.935,4.935,0,0,0,.6-1H13V2H6V7.422A4.968,4.968,0,0,0,5,7.1V1.5L5.5,1h8Z" />
  </g>
</svg>
