<svg xmlns="http://www.w3.org/2000/svg" viewBox="0 0 16 16">
  <defs>
    <style>.canvas{fill: none; opacity: 0;}.light-defaultgrey-10{fill: #212121; opacity: 0.1;}.light-defaultgrey{fill: #212121; opacity: 1;}.cls-1{opacity:0.75;}</style>
  </defs>
  <title>PhoneGroup</title>
  <g id="canvas">
    <path class="canvas" d="M16,16H0V0H16Z" />
  </g>
  <g id="level-1">
    <g class="cls-1">
      <path class="light-defaultgrey-10" d="M5.5,1.5V2h5.41L12,3.09V13.5h1.5V1.5Z" />
      <path class="light-defaultgrey" d="M13.5,1h-8L5,1.5V2h8V13H12v1h1.5l.5-.5V1.5Z" />
    </g>
    <path class="light-defaultgrey-10" d="M10.5,3.5v12h-8V3.5Z" />
    <path class="light-defaultgrey" d="M10.5,3h-8L2,3.5v12l.5.5h8l.5-.5V3.5ZM10,15H3V4h7ZM8,14H5V13H8ZM7,6H6V5H7Z" />
  </g>
</svg>
