<svg xmlns="http://www.w3.org/2000/svg" viewBox="0 0 16 16">
  <defs>
    <style>.canvas{fill: none; opacity: 0;}.light-defaultgrey-10{fill: #212121; opacity: 0.1;}.light-defaultgrey{fill: #212121; opacity: 1;}.light-blue{fill: #005dba; opacity: 1;}</style>
  </defs>
  <title>IconLightPhoneXAML</title>
  <g id="canvas" class="canvas">
    <path class="canvas" d="M16,16H0V0H16Z" />
  </g>
  <g id="level-1">
    <path class="light-defaultgrey-10" d="M12.5,1.5v13h-.875l.229-.228v-1.54L9.112,10H4.5V1.5Z" />
    <path class="light-defaultgrey" d="M9,4H8V3H9Z" />
    <path class="light-defaultgrey" d="M13,1.5v13l-.5.5H11.122l.732-.728V14H12V2H5v8H4V1.5L4.5,1h8Z" />
    <path class="light-defaultgrey" d="M1.207,13.5l1.816,1.82-.707.707L.147,13.853v-.707l2.169-2.179.709.705Z" />
    <path class="light-defaultgrey" d="M10.854,13.147v.709L8.666,16.029l-.7-.709L9.792,13.5,7.961,11.677l.705-.709Z" />
    <path class="light-blue" d="M7,12v3H4V12Z" />
  </g>
</svg>
