<svg xmlns="http://www.w3.org/2000/svg" viewBox="0 0 16 16">
  <defs>
    <style>.canvas{fill: none; opacity: 0;}.light-defaultgrey-10{fill: #212121; opacity: 0.1;}.light-defaultgrey{fill: #212121; opacity: 1;}</style>
  </defs>
  <title>PhoneUserControl</title>
  <g id="canvas">
    <path class="canvas" d="M16,16H0V0H16Z" />
  </g>
  <g id="level-1">
    <path class="light-defaultgrey-10" d="M6.25,10.25A2.25,2.25,0,1,1,4,8,2.25,2.25,0,0,1,6.25,10.25ZM7.5,16a3.5,3.5,0,0,0-7,0Z" />
    <path class="light-defaultgrey" d="M2.25,10.25A1.75,1.75,0,1,1,4,12,1.752,1.752,0,0,1,2.25,10.25ZM5.7,12.394a2.75,2.75,0,1,0-3.4,0A4,4,0,0,0,0,16H1a3,3,0,0,1,6,0H8A4,4,0,0,0,5.7,12.394Z" />
    <path class="light-defaultgrey-10" d="M4.5,1.5V6.54a2.768,2.768,0,0,1,.5.1,3.74,3.74,0,0,1,2.75,3.61A3.536,3.536,0,0,1,7.3,12a1.511,1.511,0,0,1-.09.18,4.6,4.6,0,0,1,.77.82,4.783,4.783,0,0,1,.59,1,4.291,4.291,0,0,1,.19.5H12.5V1.5Z" />
    <path class="light-defaultgrey" d="M8,3V4H9V3Zm-.7,9a1.511,1.511,0,0,1-.09.18,4.6,4.6,0,0,1,.77.82H10V12Zm0,0a1.511,1.511,0,0,1-.09.18,4.6,4.6,0,0,1,.77.82H10V12ZM9,3H8V4H9Zm3.5-2h-8L4,1.5v5a2.737,2.737,0,0,1,.5.04,2.768,2.768,0,0,1,.5.1V2h7V14H8.57a4.291,4.291,0,0,1,.19.5,4.1,4.1,0,0,1,.14.5h3.6l.5-.5V1.5ZM10,12H7.3a1.511,1.511,0,0,1-.09.18,4.6,4.6,0,0,1,.77.82H10ZM8,3V4H9V3Z" />
  </g>
</svg>
