<svg xmlns="http://www.w3.org/2000/svg" viewBox="0 0 16 16">
  <defs>
    <style>.canvas{fill: none; opacity: 0;}.light-defaultgrey{fill: #212121; opacity: 1;}.light-blue-10{fill: #005dba; opacity: 0.1;}.light-blue{fill: #005dba; opacity: 1;}.light-defaultgrey-10{fill: #212121; opacity: 0.1;}</style>
  </defs>
  <title>PhoneWebConfig</title>
  <g id="canvas">
    <path class="canvas" d="M16,16H0V0H16Z" />
  </g>
  <g id="level-1">
    <path class="light-defaultgrey" d="M.042,10.5A2.994,2.994,0,0,1,.3,8.705L2.286,10.7,3.7,9.282l-2-1.991a2.983,2.983,0,0,1,3.988,3.983L9,14.586v.707L8.3,16H7.59L4.278,12.688A2.98,2.98,0,0,1,.042,10.5Z" />
    <path class="light-blue-10" d="M12.6,3.4A6.52,6.52,0,0,0,1.99,5.51c-.09.23-.16.46-.23.7v.01c.05-.02.1-.03.15-.05a.833.833,0,0,1,.15-.04,2.614,2.614,0,0,1,.27-.06A2.989,2.989,0,0,1,3,6a3.943,3.943,0,0,1,1.65.36c.02.01.03.02.05.03a3.661,3.661,0,0,1,.86.54A3.987,3.987,0,0,1,7,10a3.43,3.43,0,0,1-.05.56,3.117,3.117,0,0,1-.09.44c-.01.01-.01.01-.01.02L9,13.17V6.09L9.09,6l1-1h3.68A6.334,6.334,0,0,0,12.6,3.4Z" />
    <path class="light-blue" d="M7,10a3.43,3.43,0,0,1-.05.56,3.117,3.117,0,0,1-.09.44H9V10Zm5.95-6.95A7,7,0,0,0,1.53,5.32a7.509,7.509,0,0,0-.35,1.14,3.228,3.228,0,0,1,.58-.24V6.21c.04-.01.1-.03.15-.04a.833.833,0,0,1,.15-.04,2.614,2.614,0,0,1,.27-.06c.01-.02.01-.05.02-.07H4.7c-.02.12-.03.24-.05.36.02.01.03.02.05.03a4.1,4.1,0,0,1,.86.56V6.93c.04-.31.09-.62.16-.93H9.09l1-1h.96A10.577,10.577,0,0,0,9.79,2.27,6.067,6.067,0,0,1,13.19,5h1.12A6.718,6.718,0,0,0,12.95,3.05ZM4.95,5H2.81a6.067,6.067,0,0,1,3.4-2.73A10.4,10.4,0,0,0,4.95,5Zm5.06,0H6A9.525,9.525,0,0,1,7.63,2.02C7.75,2.01,7.87,2,8,2s.25.01.37.02A9.552,9.552,0,0,1,10.01,5Z" />
    <path class="light-defaultgrey-10" d="M15.5,14.5h-5v-8h5Z" />
    <path class="light-defaultgrey" d="M15.5,6h-5l-.5.5v8l.5.5h5l.5-.5v-8ZM15,14H11V7h4Zm-1-1H12V12h2Z" />
  </g>
</svg>
