<svg xmlns="http://www.w3.org/2000/svg" viewBox="0 0 16 16">
  <defs>
    <style>.canvas{fill: none; opacity: 0;}.light-defaultgrey-10{fill: #212121; opacity: 0.1;}.light-defaultgrey{fill: #212121; opacity: 1;}</style>
  </defs>
  <title>PhoneLibrary</title>
  <g id="canvas" class="canvas">
    <path class="canvas" d="M16,16H0V0H16Z" />
  </g>
  <g id="level-1">
    <path class="light-defaultgrey-10" d="M5.5,1.5h2V6.5H7L6.5,6h-1Zm6.042-.121-1.931.517,2.847,10.626L14.389,12ZM3.5,1.5h-2V6h2Z" />
    <path class="light-defaultgrey" d="M12.025,1.244,11.412.891,9.48,1.408l-.353.613,2.848,10.625.613.354,1.932-.518.353-.613Zm.787,10.66L10.223,2.245l.965-.259,2.589,9.66ZM3.5,1l.5.5V6H3V2H2V6H1V1.5L1.5,1Zm4,0,.5.5v11l-.5.5H7V2H6V6H5V1.5L5.5,1Z" />
    <path class="light-defaultgrey-10" d="M5.5,15.5H.5v-8h5Z" />
    <path class="light-defaultgrey" d="M5.5,7H.5L0,7.5v8l.5.5h5l.5-.5v-8ZM5,15H1V8H5ZM4,14H2V13H4Z" />
  </g>
</svg>
