<svg xmlns="http://www.w3.org/2000/svg" viewBox="0 0 16 16">
  <defs>
    <style>.canvas{fill: none; opacity: 0;}.light-defaultgrey-10{fill: #212121; opacity: 0.1;}.light-blue{fill: #005dba; opacity: 1;}.light-defaultgrey{fill: #212121; opacity: 1;}.light-green{fill: #1f801f; opacity: 1;}</style>
  </defs>
  <title>IconLightPickNode</title>
  <g id="canvas" class="canvas">
    <path class="canvas" d="M16,16H0V0H16Z" />
  </g>
  <g id="level-1">
    <path class="light-defaultgrey-10" d="M14.5,7V9.6l-.05-.05-.95.95h-3V7Z" />
    <path class="light-defaultgrey-10" d="M5.5,7V8h-4V7Z" />
    <path class="light-blue" d="M14.854,4.854l-2,2h-.708l-2-2,.708-.708L12,5.293V2H4V5.293L5.146,4.146l.708.708-2,2H3.146l-2-2,.708-.708L3,5.293V1.5L3.5,1h9l.5.5V5.293l1.146-1.147Z" />
    <path class="light-defaultgrey" d="M5,10V7H6v3.5l-.5.5H5.414l-.268-.268L5,10.879ZM1.586,11l.268-.268L2,10.879V7H1v3.5l.5.5Z" />
    <path class="light-blue" d="M5.854,12.854l-2,2H3.146l-2-2,.708-.708L3,13.293V9H4v4.293l1.146-1.147Z" />
    <path class="light-green" d="M11.263,14.854,9.848,13.439l.707-.707,1.061,1.061,2.829-2.828.707.707L11.97,14.854Z" />
    <path class="light-defaultgrey" d="M10.5,11l-.5-.5V7h1v3h3l-1,1Zm3.945-1.449.555.554V7H14v3Z" />
  </g>
</svg>
