<svg xmlns="http://www.w3.org/2000/svg" viewBox="0 0 16 16">
  <defs>
    <style>.canvas{fill: none; opacity: 0;}.light-defaultgrey-10{fill: #212121; opacity: 0.1;}.light-defaultgrey{fill: #212121; opacity: 1;}.light-lightblue{fill: #0077a0; opacity: 1;}</style>
  </defs>
  <title>PieBarChart</title>
  <g id="canvas">
    <path class="canvas" d="M16,0V16H0V0Z" />
  </g>
  <g id="level-1">
    <path class="light-defaultgrey-10" d="M13.5,8.5a6,6,0,1,1-6-6v6Z" />
    <path class="light-defaultgrey" d="M13.5,8H8V2.5L7.5,2A6.5,6.5,0,1,0,14,8.5Zm-6,6A5.5,5.5,0,0,1,7,3.022V8.5l.5.5h5.478A5.508,5.508,0,0,1,7.5,14Z" />
    <path class="light-lightblue" d="M9,5h1V7H9Zm2,2h1V4H11Zm2-5V7h1V2Z" />
  </g>
</svg>
