<svg xmlns="http://www.w3.org/2000/svg" viewBox="0 0 16 16">
  <defs>
    <style>.canvas{fill: none; opacity: 0;}.light-defaultgrey-10{fill: #212121; opacity: 0.1;}.light-defaultgrey{fill: #212121; opacity: 1;}</style>
  </defs>
  <title>IconLightPipelineView</title>
  <g id="canvas">
    <path class="canvas" d="M16,16H0V0H16Z" />
  </g>
  <g id="level-1">
    <path class="light-defaultgrey-10" d="M2.5,6.5v3H0v-3Z" />
    <path class="light-defaultgrey-10" d="M6.5,9.5v-3h3v3Z" />
    <path class="light-defaultgrey" d="M13.5,6l-.5.5V8H10V6.5L9.5,6h-3L6,6.5V8H3V6.5L2.5,6H0V7H2V9H0v1H2.5L3,9.5V9H6v.5l.5.5h3l.5-.5V9h3v.5l.5.5H16V6ZM9,9H7V7H9Z" />
  </g>
</svg>
