<svg xmlns="http://www.w3.org/2000/svg" viewBox="0 0 16 16">
  <defs>
    <style>.canvas{fill: none; opacity: 0;}.light-lightblue-10{fill: #0077a0; opacity: 0.1;}.light-lightblue{fill: #0077a0; opacity: 1;}.light-defaultgrey{fill: #212121; opacity: 1;}</style>
  </defs>
  <title>Pipeline</title>
  <g id="canvas">
    <path class="canvas" d="M16,16H0V0H16Z" />
  </g>
  <g id="level-1">
    <path class="light-lightblue-10" d="M3.5,9.5C1.846,9.5.5,8.827.5,8V4c0-.827,1.346-1.5,3-1.5s3,.673,3,1.5V8C6.5,8.827,5.154,9.5,3.5,9.5Z" />
    <path class="light-lightblue" d="M3.5,2C1.505,2,0,2.859,0,4V8c0,1.141,1.505,2,3.5,2S7,9.141,7,8V4C7,2.859,5.5,2,3.5,2Zm0,1C5.026,3,6,3.592,6,4S5.026,5,3.5,5,1,4.408,1,4,1.974,3,3.5,3Zm0,6C1.974,9,1,8.408,1,8V5.426A5.108,5.108,0,0,0,3.5,6,5.108,5.108,0,0,0,6,5.426V8C6,8.408,5.026,9,3.5,9Z" />
    <path class="light-lightblue-10" d="M12.5,9.5c-1.654,0-3-.673-3-1.5V4c0-.827,1.346-1.5,3-1.5s3,.673,3,1.5V8C15.5,8.827,14.154,9.5,12.5,9.5Z" />
    <path class="light-lightblue" d="M12.5,2C10.505,2,9,2.859,9,4V8c0,1.141,1.505,2,3.5,2S16,9.141,16,8V4C16,2.859,14.5,2,12.5,2Zm0,1c1.526,0,2.5.592,2.5,1s-.974,1-2.5,1S10,4.408,10,4,10.974,3,12.5,3Zm0,6C10.974,9,10,8.408,10,8V5.426A5.108,5.108,0,0,0,12.5,6,5.108,5.108,0,0,0,15,5.426V8C15,8.408,14.026,9,12.5,9Z" />
    <path class="light-defaultgrey" d="M16,12v1H0V12H2.5v-.5L3,11V10H4v1l.5.5V12h7v-.5L12,11V10h1v1l.5.5V12Z" />
    <path class="light-defaultgrey" d="M9.854,12.146v.708l-2,2-.708-.708L8.793,12.5,7.146,10.854l.708-.708Z" />
  </g>
</svg>
