<svg xmlns="http://www.w3.org/2000/svg" viewBox="0 0 16 16">
  <defs>
    <style>.canvas{fill: none; opacity: 0;}.light-defaultgrey-10{fill: #212121; opacity: 0.1;}.light-defaultgrey{fill: #212121; opacity: 1;}.light-lightblue-10{fill: #0077a0; opacity: 0.1;}.light-lightblue{fill: #0077a0; opacity: 1;}.cls-1{opacity:0.75;}</style>
  </defs>
  <title>IconLightPivotChart</title>
  <g id="canvas">
    <path class="canvas" d="M16,16H0V0H16Z" />
  </g>
  <g id="level-1">
    <g class="cls-1">
      <path class="light-defaultgrey-10" d="M15.5.5v15H.5V.5Z" />
      <path class="light-defaultgrey" d="M15.5,0H.5L0,.5v15l.5.5h15l.5-.5V.5ZM15,15H1V1H15Z" />
    </g>
    <path class="light-lightblue-10" d="M13.5,2.5v2h-7v-2Z" />
    <path class="light-lightblue" d="M13.5,2h-7L6,2.5v2l.5.5h7l.5-.5v-2ZM13,4H7V3h6Z" />
    <path class="light-lightblue-10" d="M4.5,6.5v7h-2v-7Z" />
    <path class="light-lightblue" d="M4.5,6h-2L2,6.5v7l.5.5h2l.5-.5v-7ZM4,13H3V7H4Z" />
    <path class="light-defaultgrey-10" d="M4.5,2.5v2h-2v-2Z" />
    <path class="light-defaultgrey" d="M4.5,2h-2L2,2.5v2l.5.5h2L5,4.5v-2ZM4,4H3V3H4Z" />
    <path class="light-defaultgrey" d="M12.9,8.479l-.9-.9V10a2,2,0,0,1-2,2H7.582l.9.9-.708.708-1.75-1.75v-.708L7.771,9.4l.708.708-.9.9H10a1,1,0,0,0,1-1V7.582l-.9.9L9.4,7.771l1.75-1.75h.708l1.75,1.75Z" />
  </g>
</svg>
