<svg xmlns="http://www.w3.org/2000/svg" viewBox="0 0 16 16">
  <defs>
    <style>.canvas{fill: none; opacity: 0;}.light-defaultgrey-10{fill: #212121; opacity: 0.1;}.light-defaultgrey{fill: #212121; opacity: 1;}</style>
  </defs>
  <title>PlaceholderAsterisk</title>
  <g id="canvas">
    <path class="canvas" d="M16,16H0V0H16Z" />
  </g>
  <g id="level-1">
    <path class="light-defaultgrey-10" d="M14.5,1.5v13H1.5V1.5Z" />
    <path class="light-defaultgrey" d="M14.5,1H1.5L1,1.5v13l.5.5h13l.5-.5V1.5ZM14,14H2V2H14Z" />
    <path class="light-defaultgrey" d="M10.944,7.1,8.938,8l2,.906L10.254,10.1,8.468,8.813,8.686,11H7.314l.214-2.188L5.741,10.1,5.056,8.9,7.062,8l-2-.906L5.744,5.9,7.53,7.187,7.314,5H8.686L8.472,7.188,10.259,5.9Z" />
  </g>
</svg>
