<svg xmlns="http://www.w3.org/2000/svg" viewBox="0 0 16 16">
  <defs>
    <style>.canvas{fill: none; opacity: 0;}.light-defaultgrey-10{fill: #212121; opacity: 0.1;}.light-defaultgrey{fill: #212121; opacity: 1;}</style>
  </defs>
  <title>IconLightPlaceholderHeart</title>
  <g id="canvas">
    <path class="canvas" d="M16,16H0V0H16Z" />
  </g>
  <g id="level-1">
    <path class="light-defaultgrey-10" d="M14.5,1.5v13H1.5V1.5Z" />
    <path class="light-defaultgrey" d="M14.5,1H1.5L1,1.5v13l.5.5h13l.5-.5V1.5ZM14,14H2V2H14Z" />
    <path class="light-defaultgrey" d="M10.5,7.151a1.394,1.394,0,0,1-.427,1.008L8.142,10.107,8,10.25l-.142-.143L5.889,8.121A1.4,1.4,0,0,1,6.9,5.75c.44,0,.844.506,1.1.844.26-.338.664-.844,1.1-.844A1.4,1.4,0,0,1,10.5,7.151Z" />
  </g>
</svg>
