<svg xmlns="http://www.w3.org/2000/svg" viewBox="0 0 16 16">
  <defs>
    <style>.canvas{fill: none; opacity: 0;}.light-defaultgrey-10{fill: #212121; opacity: 0.1;}.light-defaultgrey{fill: #212121; opacity: 1;}</style>
  </defs>
  <title>IconLightPlaceholderTwoWave</title>
  <g id="canvas">
    <path class="canvas" d="M16,16H0V0H16Z" />
  </g>
  <g id="level-1">
    <path class="light-defaultgrey-10" d="M14.5,1.5v13H1.5V1.5Z" />
    <path class="light-defaultgrey" d="M11.5,7.136l-.438.351a2.852,2.852,0,0,1-3.32-.053,1.987,1.987,0,0,0-2.311-.09l-.438.3L4.5,6.783l.438-.3a2.854,2.854,0,0,1,3.32.09,1.984,1.984,0,0,0,2.311.037l.438-.335Z" />
    <path class="light-defaultgrey" d="M11.5,10.146l-.438.352a2.853,2.853,0,0,1-3.32-.054,1.989,1.989,0,0,0-2.311-.09l-.438.3L4.5,9.794l.438-.3a2.852,2.852,0,0,1,3.32.09,1.986,1.986,0,0,0,2.311.037l.438-.336Z" />
    <path class="light-defaultgrey" d="M14.5,1H1.5L1,1.5v13l.5.5h13l.5-.5V1.5ZM14,14H2V2H14Z" />
  </g>
</svg>
