<svg xmlns="http://www.w3.org/2000/svg" viewBox="0 0 16 16">
  <defs>
    <style>.canvas{fill: none; opacity: 0;}.light-defaultgrey{fill: #212121; opacity: 1;}.light-defaultgrey-10{fill: #212121; opacity: 0.1;}.light-yellow{fill: #996f00; opacity: 1;}.white{fill: #ffffff; opacity: 1;}.cls-1{opacity:0.75;}</style>
  </defs>
  <title>IconLightPolicyFileWarning</title>
  <g id="canvas">
    <path class="canvas" d="M16,16H0V0H16Z" />
    <path class="canvas" d="M16,16H0V0H16Z" />
  </g>
  <g id="level-1">
    <g class="cls-1">
      <path class="light-defaultgrey" d="M10,5h3V7.853l1,1.815V4.5l-.146-.354-3-3L10.5,1h-8L2,1.5V5.142A3.939,3.939,0,0,1,3,5V2h7Z" />
      <path class="light-defaultgrey-10" d="M10.5,1.5h-8V5.051A3.939,3.939,0,0,1,3,5a3.987,3.987,0,0,1,3,6.628V15h.063l.276-.5h0L10.47,7h2.06l.97,1.76V4.5Z" />
    </g>
    <path class="light-defaultgrey-10" d="M4.5,10.989v3.869L3,13.358l-1.5,1.5V10.989a2.5,2.5,0,1,1,3,0Z" />
    <path class="light-defaultgrey" d="M6,9a3,3,0,1,0-5,2.22v3.638l.854.353L3,14.065l1.146,1.146L5,14.858V11.22A2.985,2.985,0,0,0,6,9ZM4,13.651,3.354,13H2.646L2,13.651V11.816A2.966,2.966,0,0,0,3,12a2.966,2.966,0,0,0,1-.184ZM3,11A2,2,0,1,1,5,9,2,2,0,0,1,3,11Z" />
    <path class="light-yellow" d="M15.5,16h-8l-.439-.739,4-7.261h.878l4,7.261Z" />
    <path class="white" d="M12,13H11V10h1Zm.25,1.5a.75.75,0,1,1-.75-.75A.75.75,0,0,1,12.25,14.5Z" />
  </g>
</svg>
