<svg xmlns="http://www.w3.org/2000/svg" viewBox="0 0 16 16">
  <defs>
    <style>.canvas{fill: none; opacity: 0;}.light-defaultgrey-10{fill: #212121; opacity: 0.1;}.light-defaultgrey{fill: #212121; opacity: 1;}.cls-1{opacity:0.75;}</style>
  </defs>
  <title>IconLightPolicyFile</title>
  <g id="canvas">
    <path class="canvas" d="M16,16H0V0H16Z" />
    <path class="canvas" d="M16,16H0V0H16" />
  </g>
  <g id="level-1">
    <g class="cls-1">
      <path class="light-defaultgrey-10" d="M13.5,4.5v10H6V11.628A3.987,3.987,0,0,0,3,5a3.939,3.939,0,0,0-.5.051V1.5h8Z" />
      <path class="light-defaultgrey" d="M14,4.5v10l-.5.5H6V14h7V5H10V2H3V5a3.939,3.939,0,0,0-1,.142V1.5L2.5,1h8l.354.146,3,3Z" />
    </g>
    <path class="canvas" d="M2.5,1.5h8l3,3m.354-.354-3-3L10.5,1h-8M3,2h7V5M2.5,1.5h8M3,2h7M2.5,1.5h8m0-.5h-8M3,2h7" />
    <path class="light-defaultgrey-10" d="M4.5,10.989v3.869L3,13.358l-1.5,1.5V10.989a2.5,2.5,0,1,1,3,0Z" />
    <path class="light-defaultgrey" d="M6,9a3,3,0,1,0-5,2.22v3.638l.854.353L3,14.065l1.146,1.146L5,14.858V11.22A2.985,2.985,0,0,0,6,9ZM4,13.651,3.354,13H2.646L2,13.651V11.816A2.966,2.966,0,0,0,3,12a2.966,2.966,0,0,0,1-.184ZM3,11A2,2,0,1,1,5,9,2,2,0,0,1,3,11Z" />
  </g>
</svg>
