<svg xmlns="http://www.w3.org/2000/svg" viewBox="0 0 16 16">
  <defs>
    <style>.canvas{fill: none; opacity: 0;}.light-defaultgrey-10{fill: #212121; opacity: 0.1;}.light-defaultgrey{fill: #212121; opacity: 1;}.cls-1{opacity:0.75;}</style>
  </defs>
  <title>PolicyApplication</title>
  <g id="canvas">
    <path class="canvas" d="M16,16H0V0H16Zm0,0H0V0H16" />
  </g>
  <g id="level-1">
    <g class="cls-1">
      <path class="light-defaultgrey-10" d="M1.5,5.282V5H2.844A3.981,3.981,0,0,0,1.5,5.282ZM3.153,5A3.99,3.99,0,0,1,6,11.63V13h8.5V5Z" />
      <path class="light-defaultgrey" d="M1,5.542V5.5L1.5,5H2.844A3.935,3.935,0,0,0,1,5.542ZM14.5,5H3.153A3.967,3.967,0,0,1,5.638,6H14v7H6v1h8.5l.5-.5v-8Z" />
    </g>
    <path class="light-defaultgrey-10" d="M14,3V5H2V3Z" />
    <path class="light-defaultgrey-10" d="M4.5,10.989v3.869L3,13.358l-1.5,1.5V10.989a2.5,2.5,0,1,1,3.5-.5A2.468,2.468,0,0,1,4.5,10.989Z" />
    <path class="light-defaultgrey" d="M15,2.5v3l-.5.5H5.638A3.967,3.967,0,0,0,3.153,5H14V3H2V5h.844a3.948,3.948,0,0,0-1.817.527L1,5.5v-3L1.5,2h13Z" />
    <path class="light-defaultgrey" d="M6,9a3,3,0,1,0-5,2.22v3.638l.854.353L3,14.065l1.146,1.146L5,14.858V11.22A2.986,2.986,0,0,0,6,9ZM4,13.651,3.354,13H2.646L2,13.651V11.816A2.97,2.97,0,0,0,3,12a2.97,2.97,0,0,0,1-.184ZM3,11A2,2,0,1,1,5,9,2,2,0,0,1,3,11Z" />
  </g>
</svg>
