<svg xmlns="http://www.w3.org/2000/svg" viewBox="0 0 16 16">
  <defs>
    <style>.canvas{fill: none; opacity: 0;}.light-defaultgrey-10{fill: #212121; opacity: 0.1;}.light-defaultgrey{fill: #212121; opacity: 1;}.light-red{fill: #c50b17; opacity: 1;}.white{fill: #ffffff; opacity: 1;}.cls-1{opacity:0.75;}</style>
  </defs>
  <title>IconLightPostDeploymentScriptError</title>
  <g id="canvas" class="canvas">
    <path class="canvas" d="M16,0V16H0V0Z" />
  </g>
  <g id="level-1">
    <path class="light-defaultgrey-10" d="M12.5,1.5h-6a1,1,0,0,0-1,1V7H7.99a3.018,3.018,0,0,1,1.73.55A4.984,4.984,0,0,1,12,7a4.712,4.712,0,0,1,1,.1c.17.03.33.08.5.12V2.5A1,1,0,0,0,12.5,1.5Z" />
    <path class="light-defaultgrey" d="M12.5,1h-6A1.5,1.5,0,0,0,5,2.5V7H6V2.5A.5.5,0,0,1,6.5,2h6a.5.5,0,0,1,.5.5V7.1c.17.03.33.08.5.12.17.06.34.12.5.19V2.5A1.5,1.5,0,0,0,12.5,1Z" />
    <g class="cls-1">
      <path class="light-defaultgrey" d="M7.5,4V5h4V4Z" />
    </g>
    <path class="light-defaultgrey-10" d="M2.99,14H1a1,1,0,0,0,1,1H3.26A2,2,0,0,1,2.99,14Zm1-5a1,1,0,0,0-1,1v3h.5l.5.5V14a1,1,0,0,0,2,0V10a2,2,0,0,1,.28-1Zm4,0a1,1,0,0,0-1,1h.42A5.26,5.26,0,0,1,8,9Z" />
    <path class="light-defaultgrey" d="M7.99,8h-4a2.006,2.006,0,0,0-2,2v3H.5l-.5.5V14a2.029,2.029,0,0,0,1.99,2h3a2.006,2.006,0,0,0,2-2V11H7.1a5.532,5.532,0,0,1,.31-1H6.99a1,1,0,0,1,1-1H8a4.789,4.789,0,0,1,.79-.83A1.98,1.98,0,0,0,7.99,8ZM2,15a1,1,0,0,1-1-1H2.99a2,2,0,0,0,.27,1Zm3.99-5v4a1,1,0,0,1-2,0v-.5l-.5-.5h-.5V10a1,1,0,0,1,1-1H6.27A2,2,0,0,0,5.99,10Z" />
    <path class="light-red" d="M12,8a4,4,0,1,0,4,4A4,4,0,0,0,12,8Z" />
    <path class="white" d="M12.707,12l1.147,1.146-.708.708L12,12.707l-1.146,1.147-.708-.708L11.293,12l-1.147-1.146.708-.708L12,11.293l1.146-1.147.708.708Z" />
  </g>
</svg>
