<svg xmlns="http://www.w3.org/2000/svg" viewBox="0 0 16 16">
  <defs>
    <style>.canvas{fill: none; opacity: 0;}.light-defaultgrey-10{fill: #212121; opacity: 0.1;}.light-defaultgrey{fill: #212121; opacity: 1;}.cls-1{opacity:0.75;}</style>
  </defs>
  <title>IconLightPostDeploymentScript</title>
  <g id="canvas" class="canvas">
    <path class="canvas" d="M16,0V16H0V0Z" />
  </g>
  <g id="level-1">
    <path class="light-defaultgrey-10" d="M12.5,1.5h-6a1,1,0,0,0-1,1V7H7.99a3,3,0,0,1,3,3v.91L10.9,11l-.99,1H7.99v2a2.071,2.071,0,0,1-.05.5H13.5V2.5A1,1,0,0,0,12.5,1.5Z" />
    <path class="light-defaultgrey" d="M12.5,1h-6A1.5,1.5,0,0,0,5,2.5V7H6V2.5A.5.5,0,0,1,6.5,2h6a.5.5,0,0,1,.5.5V14H7.99a2.071,2.071,0,0,1-.05.5,2.145,2.145,0,0,1-.12.5H13.5l.5-.5V2.5A1.5,1.5,0,0,0,12.5,1Z" />
    <g class="cls-1">
      <path class="light-defaultgrey" d="M7.99,12v1H11.5V12Zm3-2v.91L10.9,11h.6V10ZM7.5,4V5h4V4Z" />
    </g>
    <path class="light-defaultgrey-10" d="M2.991,14a1.984,1.984,0,0,0,.269,1H2a1,1,0,0,1-1-1Zm0-4v3h.5l.5.5V14a1,1,0,0,0,2,0V10a1.978,1.978,0,0,1,.278-1H3.991A1,1,0,0,0,2.991,10Zm5-1a1,1,0,0,0-1,1h2A1,1,0,0,0,7.991,9Z" />
    <path class="light-defaultgrey" d="M7.991,8h-4a2,2,0,0,0-2,2v3H.5l-.5.5V14a1.978,1.978,0,0,0,.278,1,1.992,1.992,0,0,0,1.715,1h3a2,2,0,0,0,2-2V11h2.5l.5-.5V10A2,2,0,0,0,7.991,8ZM2,15a1,1,0,0,1-1-1H2.991a1.984,1.984,0,0,0,.269,1Zm3.991-5v4a1,1,0,0,1-2,0v-.5l-.5-.5h-.5V10a1,1,0,0,1,1-1H6.269A1.978,1.978,0,0,0,5.991,10Zm3,0h-2a1,1,0,0,1,2,0Z" />
  </g>
</svg>
