<svg xmlns="http://www.w3.org/2000/svg" viewBox="0 0 16 16">
  <defs>
    <style>.canvas{fill: none; opacity: 0;}.light-teal-10{fill: #006758; opacity: 0.1;}.light-teal{fill: #006758; opacity: 1;}.light-defaultgrey-10{fill: #212121; opacity: 0.1;}.light-defaultgrey{fill: #212121; opacity: 1;}.light-green{fill: #1f801f; opacity: 1;}.cls-1{opacity:0.75;}</style>
  </defs>
  <title>IconLightPowerSupply</title>
  <g id="canvas">
    <path class="canvas" d="M16,0V16H0V0Z" />
  </g>
  <g id="level-1">
    <path class="light-teal-10" d="M3,12.474H3a2.5,2.5,0,0,1-2.5-2.5V7.5h5V9.974A2.5,2.5,0,0,1,3,12.474Z" />
    <path class="light-teal" d="M5,7V5A.5.5,0,0,0,4,5V7H2V5A.5.5,0,0,0,1,5V7H0V9.974a3,3,0,0,0,2.5,2.949V16h1V12.923A3,3,0,0,0,6,9.974V7ZM5,9.974a2,2,0,0,1-4,0V8H5Z" />
    <g class="cls-1">
      <path class="light-defaultgrey-10" d="M13.5,2.5v12h-7V11.891A3.961,3.961,0,0,0,7,9.974V6H6.5V2.5h2v-1h3v1Z" />
      <path class="light-defaultgrey" d="M14,2.5v12l-.5.5h-7L6,14.5V12.61A3.971,3.971,0,0,0,7,9.974V14h6V3H11.5L11,2.5V2H9v.5L8.5,3H7V6H6V2.5L6.5,2H8V1.5L8.5,1h3l.5.5V2h1.5Z" />
    </g>
    <path class="light-green" d="M12,5H8V4h4Zm0,1H8V7h4Zm0,2H8V9h4Zm0,2H8v1h4Zm0,2H8v1h4Z" />
  </g>
</svg>
