<svg xmlns="http://www.w3.org/2000/svg" viewBox="0 0 16 16">
  <defs>
    <style>.canvas{fill: none; opacity: 0;}.light-blue-10{fill: #005dba; opacity: 0.1;}.light-blue{fill: #005dba; opacity: 1;}.light-defaultgrey{fill: #212121; opacity: 1;}</style>
  </defs>
  <title>IconLightPredictFunction</title>
  <g id="canvas">
    <path class="canvas" d="M16,16H0V0H16Z" />
  </g>
  <g id="level-1">
    <path class="light-blue-10" d="M13,1.417l1.5,2-4.5,5-4.5-5,1.5-2Z" />
    <path class="light-blue" d="M13.4,1.2,13,1H7l-.4.2-1.5,2,.028.634,4.5,5h.744l4.5-5L14.9,3.2ZM13.5,3H11.846l-.375-1H12.75ZM8.128,4l.753,2.51L6.622,4Zm2.7,0L10,6.76,9.172,4ZM9.221,3,9.6,2H10.4l.375,1Zm2.651,1h1.506L11.119,6.51ZM7.25,2H8.529L8.154,3H6.5Z" />
    <path class="light-defaultgrey" d="M6.523,12.111c.112.457.119.554.273,1.067a1.093,1.093,0,0,0,.384.571.569.569,0,0,0,.348.1,1.507,1.507,0,0,0,.268-.022.935.935,0,0,0,.263-.067l-.071.263a2.757,2.757,0,0,1-.728.246c-.46.068-.782.006-.946-.433A9.085,9.085,0,0,1,6,12.74a8.6,8.6,0,0,1-.889,1.21.91.91,0,0,1-.687.339.448.448,0,0,1-.308-.107.443.443,0,0,1-.081-.5.451.451,0,0,1,.295-.233c.357-.081.391.017.714.1a5.17,5.17,0,0,0,.866-1.138c-.031-.156-.046-.2-.138-.581-.05-.207-.122-.422-.205-.665a1.389,1.389,0,0,0-.116-.254.679.679,0,0,0-.122-.164c-.072-.063-.164-.115-.632-.1-.36.01-1.255.017-1.255.017l-.71,3.317c-.234,1.075-1.208,2.2-2.281,2a.577.577,0,0,1-.38-.219.465.465,0,0,1,.04-.536.416.416,0,0,1,.5-.08.8.8,0,0,1,.29.295c.09.144.1.159.143.232a.459.459,0,0,0,.259-.1,1.81,1.81,0,0,0,.5-.857c.136-.471.049-.1.9-4.053H1.907L2,10.3h.772A3.49,3.49,0,0,1,3.064,9.3a1.983,1.983,0,0,1,2-1.282.6.6,0,0,1,.384.219.356.356,0,0,1,.063.232.49.49,0,0,1-.1.313.461.461,0,0,1-.54.076c-.179-.1-.242-.277-.4-.532-.362.02-.579.477-.7.822a6.967,6.967,0,0,0-.209.839,2.9,2.9,0,0,0-.058.308c1.081-.019,1.317-.053,1.942-.089a.684.684,0,0,1,.7.5,7.676,7.676,0,0,1,.286,1.067v.014l0,.013c.394-.622.837-1.589,1.585-1.607.534-.013.622.85-.112.866a1.633,1.633,0,0,1-.513-.112A5.084,5.084,0,0,0,6.523,12.111Z" />
  </g>
</svg>
