<svg xmlns="http://www.w3.org/2000/svg" viewBox="0 0 16 16">
  <defs>
    <style>.canvas{fill: none; opacity: 0;}.light-defaultgrey-10{fill: #212121; opacity: 0.1;}.light-green{fill: #1f801f; opacity: 1;}.light-defaultgrey{fill: #212121; opacity: 1;}</style>
  </defs>
  <title>IconLightPreviewAnimatedTransition</title>
  <g id="canvas">
    <path class="canvas" d="M16,16H0V0H16Z" />
  </g>
  <g id="level-1">
    <path class="light-defaultgrey-10" d="M15.257,10.68l-3.632.528L10,14.5,8.375,11.208,4.743,10.68,7.371,8.118l-.5-2.9.6-.343L10,6.208,13.249,4.5l-.62,3.618Z" />
    <path class="light-green" d="M0,0,7,4,0,8Z" />
    <path class="light-defaultgrey" d="M13.166,7.944l.576-3.36-.725-.526L10,5.643,7.989,4.587l-1.576.9.421,2.457L4.395,10.322l.276.853,3.372.491,1.505,3.055h.9l1.509-3.055,3.372-.491.276-.853Zm-1.613,2.77-.376.273L10,13.371,8.823,10.987l-.376-.273-2.63-.383,1.9-1.855.144-.442-.449-2.62L9.768,6.65h.464l2.356-1.236-.449,2.62.144.442,1.9,1.855Z" />
    <path class="light-defaultgrey" d="M4,10H0V9.152L.266,9H4ZM2,13H5V12H2Z" />
  </g>
</svg>
