<svg xmlns="http://www.w3.org/2000/svg" viewBox="0 0 16 16">
  <defs>
    <style>.canvas{fill: none; opacity: 0;}.light-defaultgrey{fill: #212121; opacity: 1;}.light-defaultgrey-10{fill: #212121; opacity: 0.1;}.light-shadow{fill: #000000; opacity: 0.1;}.light-blue{fill: #005dba; opacity: 1;}.cls-1{opacity:0.75;}</style>
  </defs>
  <title>IconLightPreviousDocument</title>
  <g id="canvas" class="canvas">
    <path class="canvas" d="M0,0H16V16H0Z" />
  </g>
  <g id="level-3">
    <g class="cls-1">
      <path class="light-defaultgrey" d="M13,8h1v3H13Z" />
      <path class="light-defaultgrey-10" d="M13.5,4.5V8H13v3h.5v3.5H2.5V1.5h8Z" />
      <path class="light-defaultgrey" d="M14,4.5V8H13V5H10V2H3V14H13V11h1v3.5l-.5.5H2.5L2,14.5V1.5L2.5,1h8l.354.146,3,3Z" />
    </g>
  </g>
  <g id="level-1">
    <path class="light-shadow" d="M8.146,7.146l.708.708L6.707,10H15v1H6.707l2.147,2.146-.708.708-3-3v-.708Z" />
    <path class="light-blue" d="M8.146,6.146l.708.708L6.707,9H15v1H6.707l2.147,2.146-.708.708-3-3V9.146Z" />
  </g>
</svg>
