<svg xmlns="http://www.w3.org/2000/svg" viewBox="0 0 16 16">
  <defs>
    <style>.canvas{fill: none; opacity: 0;}.light-defaultgrey-10{fill: #212121; opacity: 0.1;}.light-defaultgrey{fill: #212121; opacity: 1;}.cls-1{opacity:0.75;}</style>
  </defs>
  <title>IconLightPrintPreviewTwoPages</title>
  <g id="canvas" class="canvas">
    <path class="canvas" d="M16,16H0V0H16Z" />
  </g>
  <g id="level-1">
    <path class="light-defaultgrey-10" d="M3.5,3.5h3v8h-3Zm6,8h3v-8h-3Z" />
    <path class="light-defaultgrey" d="M6.5,12h-3L3,11.5v-8L3.5,3h3l.5.5v8ZM4,11H6V4H4Zm8.5,1h-3L9,11.5v-8L9.5,3h3l.5.5v8ZM10,11h2V4H10Z" />
    <g class="cls-1">
      <path class="light-defaultgrey-10" d="M1.5,1.5v12h13V1.5ZM7,11.5l-.5.5h-3L3,11.5v-8L3.5,3h3l.5.5Zm6,0-.5.5h-3L9,11.5v-8L9.5,3h3l.5.5Z" />
      <path class="light-defaultgrey" d="M14.5,14H1.5L1,13.5V1.5L1.5,1h13l.5.5v12ZM2,13H14V2H2Z" />
    </g>
  </g>
</svg>
