<svg xmlns="http://www.w3.org/2000/svg" viewBox="0 0 16 16">
  <defs>
    <style>.canvas{fill: none; opacity: 0;}.light-defaultgrey-10{fill: #212121; opacity: 0.1;}.light-defaultgrey{fill: #212121; opacity: 1;}.light-blue-10{fill: #005dba; opacity: 0.1;}.light-blue{fill: #005dba; opacity: 1;}.cls-1{opacity:0.75;}</style>
  </defs>
  <title>IconLightPrintPreviewDialog</title>
  <g id="canvas">
    <path class="canvas" d="M16,16H0V0H16Z" />
  </g>
  <g id="level-1">
    <g class="cls-1">
      <path class="light-defaultgrey-10" d="M1.5,5v7.42l.5-.49.34-.33A4,4,0,1,1,8.64,13H14.5V5Z" />
      <path class="light-defaultgrey" d="M14.5,5H1.5L1,5.5v7.41l1-.98V6H14v7H8.64A4,4,0,0,1,6,14h8.5l.5-.5v-8Z" />
    </g>
    <path class="light-defaultgrey-10" d="M2,3V5H14V3Z" />
    <path class="light-defaultgrey" d="M14.5,2H1.5L1,2.5v3l.5.5h13l.5-.5v-3ZM2,5V3H14V5Z" />
    <path class="light-blue-10" d="M6,12.5A2.5,2.5,0,1,1,8.5,10,2.5,2.5,0,0,1,6,12.5Z" />
    <path class="light-blue" d="M.85,15.857l3.455-3.385a3.078,3.078,0,1,0-.713-.7L.15,15.143ZM6,12a2,2,0,1,1,2-2A2,2,0,0,1,6,12Z" />
  </g>
</svg>
