<svg xmlns="http://www.w3.org/2000/svg" viewBox="0 0 16 16">
  <defs>
    <style>.canvas{fill: none; opacity: 0;}.light-defaultgrey-10{fill: #212121; opacity: 0.1;}.light-defaultgrey{fill: #212121; opacity: 1;}.cls-1{opacity:0.75;}</style>
  </defs>
  <title>IconLightPrintPreviewThreePages</title>
  <g id="canvas" class="canvas">
    <path class="canvas" d="M16,16H0V0H16Z" />
  </g>
  <g id="level-1">
    <path class="light-defaultgrey-10" d="M12.5,11.5h-9v-8h9Z" />
    <g class="cls-1">
      <path class="light-defaultgrey-10" d="M1.5,1.5v12h13V1.5ZM13,11.5l-.5.5h-9L3,11.5v-8L3.5,3h9l.5.5Z" />
      <path class="light-defaultgrey" d="M14.5,14H1.5L1,13.5V1.5L1.5,1h13l.5.5v12ZM2,13H14V2H2Z" />
    </g>
    <path class="light-defaultgrey" d="M12.5,3h-9L3,3.5v8l.5.5h9l.5-.5v-8ZM4,4H6v7H4ZM7,4H9v7H7Zm5,7H10V4h2Z" />
  </g>
</svg>
