<svg xmlns="http://www.w3.org/2000/svg" viewBox="0 0 16 16">
  <defs>
    <style>.canvas{fill: none; opacity: 0;}.light-defaultgrey-10{fill: #212121; opacity: 0.1;}.light-defaultgrey{fill: #212121; opacity: 1;}.cls-1{opacity:0.75;}</style>
  </defs>
  <title>IconLightPrintPreviewOnePage</title>
  <g id="canvas" class="canvas">
    <path class="canvas" d="M16,16H0V0H16Z" />
  </g>
  <g id="level-1">
    <g class="cls-1">
      <path class="light-defaultgrey-10" d="M2.5,1.5v12h11V1.5Zm9.5,10-.5.5h-7L4,11.5v-8L4.5,3h7l.5.5Z" />
      <path class="light-defaultgrey" d="M13.5,14H2.5L2,13.5V1.5L2.5,1h11l.5.5v12ZM3,13H13V2H3Z" />
    </g>
    <path class="light-defaultgrey-10" d="M4.5,11.5v-8h7v8Z" />
    <path class="light-defaultgrey" d="M11.5,12h-7L4,11.5v-8L4.5,3h7l.5.5v8ZM5,11h6V4H5Z" />
  </g>
</svg>
