<svg xmlns="http://www.w3.org/2000/svg" viewBox="0 0 16 16">
  <defs>
    <style>.canvas{fill: none; opacity: 0;}.light-defaultgrey-10{fill: #212121; opacity: 0.1;}.light-defaultgrey{fill: #212121; opacity: 1;}.cls-1{opacity:0.75;}</style>
  </defs>
  <title>IconLightProcedureSettings</title>
  <g id="canvas">
    <path class="canvas" d="M16,16H0V0H16Z" />
  </g>
  <g id="level-1">
    <g class="cls-1">
      <path class="light-defaultgrey-10" d="M1.5,5v8H8.03a4.182,4.182,0,0,1,0-1,4.16,4.16,0,0,1,.23-1A4.28,4.28,0,0,1,9,9.68,3.649,3.649,0,0,1,9.68,9,4.428,4.428,0,0,1,12.5,8a4.584,4.584,0,0,1,2,.47V5Z" />
      <path class="light-defaultgrey" d="M14.5,5H1.5L1,5.5v8l.5.5H8.26a4.16,4.16,0,0,1-.23-1H2V6H14V8.26a4.4,4.4,0,0,1,.5.21,3.6,3.6,0,0,1,.5.29V5.5Z" />
    </g>
    <path class="light-defaultgrey-10" d="M2,3V5H14V3Z" />
    <path class="light-defaultgrey" d="M14.5,2H1.5L1,2.5v3l.5.5h13l.5-.5v-3ZM2,5V3H14V5Z" />
    <path class="light-defaultgrey" d="M6,11v1H8.03a4.16,4.16,0,0,1,.23-1ZM9,9v.68A3.649,3.649,0,0,1,9.68,9ZM9,7V8h2V7ZM3,11v1H5V11ZM3,9v1H8V9ZM3,7V8H8V7Z" />
    <path class="light-defaultgrey" d="M16,13V12H14.949a2.473,2.473,0,0,0-.365-.876l.745-.745-.707-.707-.745.745A2.469,2.469,0,0,0,13,10.051V9H12v1.051a2.469,2.469,0,0,0-.877.366l-.745-.745-.707.707.745.745a2.473,2.473,0,0,0-.365.876H9v1h1.051a2.473,2.473,0,0,0,.365.876l-.745.745.707.707.745-.745a2.469,2.469,0,0,0,.877.366V16h1V14.949a2.469,2.469,0,0,0,.877-.366l.745.745.707-.707-.745-.745A2.473,2.473,0,0,0,14.949,13Zm-3.5,1A1.5,1.5,0,1,1,14,12.5,1.5,1.5,0,0,1,12.5,14Z" />
    <path class="light-defaultgrey" d="M16,13V12H14.949a2.473,2.473,0,0,0-.365-.876l.745-.745-.707-.707-.745.745A2.469,2.469,0,0,0,13,10.051V9H12v1.051a2.469,2.469,0,0,0-.877.366l-.745-.745-.707.707.745.745a2.473,2.473,0,0,0-.365.876H9v1h1.051a2.473,2.473,0,0,0,.365.876l-.745.745.707.707.745-.745a2.469,2.469,0,0,0,.877.366V16h1V14.949a2.469,2.469,0,0,0,.877-.366l.745.745.707-.707-.745-.745A2.473,2.473,0,0,0,14.949,13Zm-3.5,1A1.5,1.5,0,1,1,14,12.5,1.5,1.5,0,0,1,12.5,14Z" />
  </g>
</svg>
