<svg xmlns="http://www.w3.org/2000/svg" viewBox="0 0 12 12">
  <defs>
    <style>.canvas{fill: none; opacity: 0;}.light-defaultgrey{fill: #212121; opacity: 1;}</style>
  </defs>
  <title>Process.12.12</title>
  <title>IconLightProcess.12.12</title>
  <g id="canvas">
    <path class="canvas" d="M0,0H12V12H0Z" />
  </g>
  <g id="level-1">
    <path class="light-defaultgrey" d="M6.051,9a2.473,2.473,0,0,0,.365.876l-.745.745.707.707.745-.745A2.469,2.469,0,0,0,8,10.949V12H9V10.949a2.469,2.469,0,0,0,.877-.366l.745.745.707-.707-.745-.745A2.473,2.473,0,0,0,10.949,9H12V8H10.949a2.473,2.473,0,0,0-.365-.876l.745-.745-.707-.707-.745.745A2.469,2.469,0,0,0,9,6.051V5H8V6.051a2.469,2.469,0,0,0-.877.366l-.745-.745-.707.707.745.745A2.473,2.473,0,0,0,6.051,8H5V9ZM7,8.5A1.5,1.5,0,1,1,8.5,10,1.5,1.5,0,0,1,7,8.5Z" />
    <path class="light-defaultgrey" d="M6,4V3H4.908a1.379,1.379,0,0,0-.058-.143l.771-.771-.707-.707-.771.771A1.379,1.379,0,0,0,4,2.092V1H3V2.092a1.379,1.379,0,0,0-.143.058l-.771-.771-.707.707.771.771A1.379,1.379,0,0,0,2.092,3H1V4H2.092a1.379,1.379,0,0,0,.058.143l-.771.771.707.707.771-.771A1.379,1.379,0,0,0,3,4.908V6H4V4.908a1.379,1.379,0,0,0,.143-.058l.771.771.707-.707L4.85,4.143A1.379,1.379,0,0,0,4.908,4Zm-2.5.5a1,1,0,1,1,1-1A1,1,0,0,1,3.5,4.5Z" />
  </g>
</svg>
