<svg xmlns="http://www.w3.org/2000/svg" viewBox="0 0 16 16">
  <defs>
    <style>.canvas{fill: none; opacity: 0;}.light-defaultgrey-10{fill: #212121; opacity: 0.1;}.light-defaultgrey{fill: #212121; opacity: 1;}.light-yellow{fill: #996f00; opacity: 1;}.white{fill: #ffffff; opacity: 1;}.cls-1{opacity:0.75;}</style>
  </defs>
  <title>IconLightProcedureWarning</title>
  <g id="canvas">
    <path class="canvas" d="M16,16H0V0H16Z" />
  </g>
  <g id="level-1">
    <g class="cls-1">
      <path class="light-defaultgrey-10" d="M1.5,5v8H7.17l.55-1,.55-1L9,9.67,9.37,9l1.1-2h2.06L14,9.67l.5.91V5Z" />
      <path class="light-defaultgrey" d="M14.5,5H1.5L1,5.5v8l.5.5H6.61l.56-1H2V6H14V9.67l.5.91.5.91V5.5Z" />
    </g>
    <path class="light-defaultgrey-10" d="M2,3V5H14V3Z" />
    <path class="light-defaultgrey" d="M14.5,2H1.5L1,2.5v3l.5.5h13l.5-.5v-3ZM2,5V3H14V5Z" />
    <path class="light-defaultgrey" d="M6,11v1H7.72l.55-1ZM9,9v.67L9.37,9ZM9,7V8h.92l.55-1ZM3,11v1H5V11ZM3,9v1H8V9ZM3,7V8H8V7Z" />
    <path class="light-yellow" d="M15.5,16h-8l-.439-.739,4-7.261h.878l4,7.261Z" />
    <path class="white" d="M12,13H11V10h1Zm.25,1.5a.75.75,0,1,1-.75-.75A.75.75,0,0,1,12.25,14.5Z" />
  </g>
</svg>
