<svg xmlns="http://www.w3.org/2000/svg" viewBox="0 0 16 16">
  <defs>
    <style>.canvas{fill: none; opacity: 0;}.light-yellow{fill: #996f00; opacity: 1;}.light-defaultgrey{fill: #212121; opacity: 1;}</style>
  </defs>
  <title>IconLightProcessModel</title>
  <g id="canvas">
    <path class="canvas" d="M16,0V16H0V0Z" />
  </g>
  <g id="level-1">
    <path class="light-yellow" d="M6.6,9,6,8.4v-.6l5.426-5.426h.6l.6.6v.6L7.206,9Z" />
    <path class="light-defaultgrey" d="M14.44,6.589,12.029,4.177l-.56.56L10.263,3.531l.56-.56L8.416.564l.56-.559a8.3,8.3,0,0,1,3.043,1.77l.649-.648h.6l.6.6v.6l-.656.656A8.64,8.64,0,0,1,15,6.029Z" />
    <path class="light-defaultgrey" d="M14.7,8.411l-1.244.515A3.316,3.316,0,0,0,12.34,7.819l.515-1.245-.923-.383-.515,1.242a3,3,0,0,0-1.35-.029L7.471,10H7.413a3,3,0,0,0,.02,1.417l-1.241.515.383.923,1.244-.515a3.323,3.323,0,0,0,1.107,1.108l-.515,1.243.924.383.514-1.241a2.983,2.983,0,0,0,1.569,0l.514,1.241.923-.383-.515-1.243a3.3,3.3,0,0,0,1.108-1.108l1.244.515.383-.923-1.242-.515a3.064,3.064,0,0,0,0-1.568l1.242-.514Zm-4.067,4.527a2.3,2.3,0,1,1,2.3-2.295A2.307,2.307,0,0,1,10.629,12.938Z" />
    <path class="light-defaultgrey" d="M4.851,8V7.38L5,7.23V6.949a2.488,2.488,0,0,0,.407-.125L6.824,5.406A2.476,2.476,0,0,0,6.949,5H7.23L8,4.23V4H6.949a2.476,2.476,0,0,0-.365-.876l.745-.745-.707-.707-.745.745A2.464,2.464,0,0,0,5,2.051V1H4V2.051a2.464,2.464,0,0,0-.877.366l-.745-.745-.707.707.745.745A2.476,2.476,0,0,0,2.051,4H1V5H2.051a2.476,2.476,0,0,0,.365.876l-.745.745.707.707.745-.745A2.464,2.464,0,0,0,4,6.949V8ZM3,4.5A1.5,1.5,0,1,1,4.5,6,1.5,1.5,0,0,1,3,4.5Z" />
  </g>
</svg>
