<svg xmlns="http://www.w3.org/2000/svg" viewBox="0 0 16 16">
  <defs>
    <style>.canvas{fill: none; opacity: 0;}.light-defaultgrey-10{fill: #212121; opacity: 0.1;}.light-defaultgrey{fill: #212121; opacity: 1;}.cls-1{opacity:0.75;}</style>
  </defs>
  <title>IconLightProcedure</title>
  <g id="canvas">
    <path class="canvas" d="M16,16H0V0H16Z" />
  </g>
  <g id="level-1">
    <g class="cls-1">
      <path class="light-defaultgrey-10" d="M14.5,5v8H1.5V5Z" />
      <path class="light-defaultgrey" d="M14.5,5H1.5L1,5.5v8l.5.5h13l.5-.5v-8ZM14,13H2V6H14Z" />
    </g>
    <path class="light-defaultgrey-10" d="M14,3V5H2V3Z" />
    <path class="light-defaultgrey" d="M14.5,6H1.5L1,5.5v-3L1.5,2h13l.5.5v3ZM2,5H14V3H2Z" />
    <path class="light-defaultgrey" d="M8,8H3V7H8ZM8,9H3v1H8ZM3,12H5V11H3Zm8-5H9V8h2Zm1,2H9v1h3ZM6,11v1h7V11Z" />
  </g>
</svg>
