<svg xmlns="http://www.w3.org/2000/svg" viewBox="0 0 16 16">
  <defs>
    <style>.light-purple-10{fill: #6936aa; opacity: 0.1;}.light-purple{fill: #6936aa; opacity: 1;}.canvas{fill: none; opacity: 0;}.light-yellow{fill: #996f00; opacity: 1;}.white{fill: #ffffff; opacity: 1;}.cls-1{opacity:0.75;}</style>
  </defs>
  <title>IconLightProductionBreakpointWarning</title>
  <g id="level-1">
    <g class="cls-1">
      <path class="light-purple-10" d="M6.338,14.5H4.247L.494,8,4.247,1.5h7.506L15.506,8l-1.241,2.149L12.53,7H10.47Z" />
      <path class="light-purple" d="M6.063,15H4.247l-.433-.25L.062,8.25v-.5l3.752-6.5L4.247,1h7.506l.433.25,3.752,6.5v.5l-1.391,2.41-.564-1.023L14.929,8,11.464,2H4.536L1.071,8l3.465,6H6.613Z" />
    </g>
    <path class="canvas" d="M16,16H0V0H16Z" />
    <path class="light-yellow" d="M15.5,16h-8l-.439-.739,4-7.261h.878l4,7.261Z" />
    <path class="white" d="M12,13H11V10h1Zm.25,1.5a.75.75,0,1,1-.75-.75A.75.75,0,0,1,12.25,14.5Z" />
  </g>
</svg>
