<svg xmlns="http://www.w3.org/2000/svg" viewBox="0 0 16 16">
  <defs>
    <style>.canvas{fill: none; opacity: 0;}.light-defaultgrey-10{fill: #212121; opacity: 0.1;}.light-defaultgrey{fill: #212121; opacity: 1;}.cls-1{opacity:0.75;}</style>
  </defs>
  <title>IconLightProductionTracepointDashed</title>
  <g id="canvas" class="canvas">
    <path class="canvas" d="M16,16H0V0H16Z" />
  </g>
  <g id="level-1">
    <g class="cls-1">
      <path class="light-defaultgrey-10" d="M8.278,15.349H7.571L.5,8.278V7.571L7.571.5h.707L15.35,7.571v.707Z" />
      <path class="light-defaultgrey" d="M12.875,10.753l-.707.707-.707-.707.707-.707Zm.707-2.121-.707.707.707.707.707-.707Zm0-2.826-.707.707.705.705.707-.707ZM7.925,1.561h0L8.632.854,8.278.5H7.571L7.218.854ZM6.51,2.975l.708-.707-.707-.707L5.8,2.268ZM12.877,5.1l-.707-.707-.707.707.707.707Zm-2.124,6.362-.707.707.707.707.707-.707ZM9.339,12.875l-.707.707.707.707.707-.707Zm.71-10.6-.71-.709-.707.707.709.709Zm1.414,1.414-.707-.707-.707.707.707.707Zm-9.9,4.241h0L.854,7.218.5,7.571v.707l.354.354ZM5.806,12.17,5.1,11.463l-.707.707.707.707Zm0,1.414.705.705.707-.707-.7-.7ZM5.1,4.389,5.8,3.682,5.1,2.975l-.707.707Zm2.829,9.9h0L7.218,15l.353.354h.707L8.632,15ZM15,7.218l-.707.707h0L15,8.632l.354-.354V7.571Zm-10.6,3.538-.707-.707-.707.707.707.707ZM2.268,7.218l.707-.708L2.268,5.8l-.707.707ZM3.682,5.8,4.389,5.1l-.707-.707L2.975,5.1ZM2.27,10.049l.707-.708-.709-.709-.707.707Z" />
    </g>
  </g>
</svg>
