<svg xmlns="http://www.w3.org/2000/svg" viewBox="0 0 16 16">
  <defs>
    <style>.canvas{fill: none; opacity: 0;}.light-defaultgrey-10{fill: #212121; opacity: 0.1;}.light-defaultgrey{fill: #212121; opacity: 1;}</style>
  </defs>
  <title>IconLightProgressivePopUp</title>
  <g id="canvas">
    <path class="canvas" d="M16,16H0V0H16Z" />
  </g>
  <g id="level-1">
    <path class="light-defaultgrey-10" d="M6.1,12.5H1.5V1.5h8V6.381A5.471,5.471,0,0,0,6.1,12.5Z" />
    <path class="light-defaultgrey-10" d="M15.5,11.5a4,4,0,1,1-4-4A4,4,0,0,1,15.5,11.5Z" />
    <path class="light-defaultgrey" d="M11.5,16A4.5,4.5,0,1,1,16,11.5,4.505,4.505,0,0,1,11.5,16Zm0-8A3.5,3.5,0,1,0,15,11.5,3.5,3.5,0,0,0,11.5,8Z" />
    <path class="light-defaultgrey" d="M6.212,10H3.5L3,9.5v-2L3.5,7h4l.373.373A5.481,5.481,0,0,0,7,8.344V8H4V9H6.605A5.484,5.484,0,0,0,6.212,10ZM6,3H5V4H6ZM8,3H7V4H8ZM8,5H7V6H8ZM4,5H3V6H4ZM4,3H3V4H4ZM6,5H5V6H6Z" />
    <path class="light-defaultgrey" d="M6.212,13H1.5L1,12.5V1.5L1.5,1h8l.5.5V6.212a5.484,5.484,0,0,0-1,.393V2H2V12H6.025A5.5,5.5,0,0,0,6.212,13Z" />
    <path class="light-defaultgrey" d="M13,11v1H11.5l-.5-.5V9h1v2Z" />
  </g>
</svg>
