<svg xmlns="http://www.w3.org/2000/svg" viewBox="0 0 16 16">
  <defs>
    <style>.canvas{fill: none; opacity: 0;}.light-defaultgrey-10{fill: #212121; opacity: 0.1;}.light-defaultgrey{fill: #212121; opacity: 1;}.light-blue{fill: #005dba; opacity: 1;}.cls-1{opacity:0.75;}</style>
  </defs>
  <title>ProjectImports</title>
  <g id="canvas">
    <path class="canvas" d="M16,16H0V0H16Z" />
  </g>
  <g id="level-1">
    <g class="cls-1">
      <path class="light-defaultgrey-10" d="M13.5,4.5v10H6.346a3.442,3.442,0,0,0,.3-.5H8V11H6.676A3.471,3.471,0,0,0,5,9.305V8H2.5V5.918L4.354,7.771l3.5-3.5V2.736L6.617,1.5H10.5ZM2.879,5H2.5v.379Z" />
      <path class="light-defaultgrey" d="M14,4.5v10l-.5.5H5.906a3.511,3.511,0,0,0,.739-1H13V5H10V2H7.117l-1-1H10.5l.354.146,3,3ZM2.879,5H2V8H3V6.418L2.232,5.65Z" />
    </g>
    <path class="light-defaultgrey" d="M5.953,12A2.5,2.5,0,0,0,4,10.018V9H3v1.018A2.5,2.5,0,0,0,1.047,12H0v1H1.06A2.5,2.5,0,0,0,3,14.917V16H4V14.917A2.5,2.5,0,0,0,5.94,13H7V12ZM3.5,13.968A1.5,1.5,0,0,1,3.193,11h.614A1.5,1.5,0,0,1,3.5,13.968Z" />
    <path class="light-blue" d="M3.647,5.65,5.293,4H0V3H5.293L3.647,1.357,4.354.65l2.5,2.5v.707l-2.5,2.5Z" />
  </g>
</svg>
