<svg xmlns="http://www.w3.org/2000/svg" viewBox="0 0 16 16">
  <defs>
    <style>.canvas{fill: none; opacity: 0;}.light-defaultgrey-10{fill: #212121; opacity: 0.1;}.light-defaultgrey{fill: #212121; opacity: 1;}.cls-1{opacity:0.75;}</style>
  </defs>
  <title>PropertySnippet</title>
  <g id="canvas">
    <path class="canvas" d="M16,16H0V0H16Z" />
  </g>
  <g id="level-1">
    <g class="cls-1">
      <path class="light-defaultgrey-10" d="M14.5,1.481V10s-5.821-.016-7.528-.007a3.96,3.96,0,0,0-.388-1.758c-.025-.051-.057-.1-.084-.146V1.481Z" />
      <path class="light-defaultgrey" d="M15,1.5V10H14V2H7v8.132l-.027-.006A3.88,3.88,0,0,0,6,7.362V1.5L6.5,1h8ZM12,12h1V11H12Zm-2,0h1V11H10Zm4,0h1V11H14ZM8,12H9V11H8Z" />
    </g>
    <path class="light-defaultgrey" d="M.041,10.5A2.987,2.987,0,0,1,.3,8.705L2.285,10.7,3.7,9.282l-2-1.991a2.983,2.983,0,0,1,3.988,3.983L9,14.586v.707L8.3,16h-.71L4.277,12.688A2.977,2.977,0,0,1,.041,10.5Z" />
  </g>
</svg>
