<svg xmlns="http://www.w3.org/2000/svg" viewBox="0 0 16 16">
  <defs>
    <style>.canvas{fill: none; opacity: 0;}.light-defaultgrey-10{fill: #212121; opacity: 0.1;}.light-defaultgrey{fill: #212121; opacity: 1;}.cls-1{opacity:0.75;}</style>
  </defs>
  <title>IconLightPropertyKey</title>
  <g id="canvas" class="canvas">
    <path class="canvas" d="M16,16H0V0H16Z" />
  </g>
  <g id="level-1">
    <g class="cls-1">
      <path class="light-defaultgrey-10" d="M8,8.451c-1.883,1.894-4.507,4.5-5.92,5.816-.861.75-2.077-.651-1.418-1.4,1.335-1.4,3.981-4.026,5.875-5.874A3.924,3.924,0,0,0,8,8.451Z" />
      <path class="light-defaultgrey" d="M8.475,8.679c-1.83,1.842-4.561,4.56-6.057,5.954a1.352,1.352,0,0,1-.892.346,1.5,1.5,0,0,1-1.056-.47,1.444,1.444,0,0,1-.187-1.973c1.383-1.448,4.122-4.167,6.022-6.018a3.9,3.9,0,0,0,.506.9c-1.858,1.817-4.466,4.408-5.791,5.8-.134.153.009.441.158.591a.4.4,0,0,0,.57.087C3.173,12.563,5.755,10,7.567,8.174A4,4,0,0,0,8.475,8.679Z" />
    </g>
    <path class="light-defaultgrey" d="M14,5A4,4,0,0,1,6,5a3.961,3.961,0,0,1,4-4,4.19,4.19,0,0,1,1.441.241L8.559,4.2,10.8,6.441l2.959-2.882A4.19,4.19,0,0,1,14,5Z" />
    <path class="light-defaultgrey-10" d="M14.769,14.769a2.5,2.5,0,0,1-3.535,0A2.462,2.462,0,0,1,10.716,14H7.637l-1-1,1-1h3.079a2.457,2.457,0,0,1,.518-.767,2.5,2.5,0,0,1,3.535,3.535Z" />
    <path class="light-defaultgrey" d="M7.284,14.355l-1-1v-.707l1-1,.353-.146h2.771a2.9,2.9,0,0,1,.472-.622,3,3,0,1,1,0,4.243,2.948,2.948,0,0,1-.472-.622H7.637ZM7.345,13l.5.5h2.872l.458.3a2,2,0,1,0,.413-2.214,1.986,1.986,0,0,0-.413.614l-.458.3H7.844Zm6.717.354a.5.5,0,1,1,0-.707A.5.5,0,0,1,14.062,13.355Z" />
  </g>
</svg>
