<svg xmlns="http://www.w3.org/2000/svg" viewBox="0 0 16 16">
  <defs>
    <style>.canvas{fill: none; opacity: 0;}.light-defaultgrey-10{fill: #212121; opacity: 0.1;}.light-defaultgrey{fill: #212121; opacity: 1;}.cls-1{opacity:0.75;}</style>
  </defs>
  <title>PublicMessageQueue</title>
  <g id="canvas">
    <path class="canvas" d="M16,16H0V0H16Z" />
  </g>
  <g id="level-1">
    <path class="light-defaultgrey-10" d="M2.5,5.5V8a2.737,2.737,0,0,1,.5.04,3.311,3.311,0,0,1,1.5.59,3.7,3.7,0,0,1,1.04-.5A3.422,3.422,0,0,1,6.5,8H8.91L10,9.09V11.5h1.5v-6Z" />
    <path class="light-defaultgrey" d="M11.5,5h-9L2,5.5V8h.5a2.737,2.737,0,0,1,.5.04V6.43l2.54,1.7A3.422,3.422,0,0,1,6.5,8H8.65L11,6.43V11H10v1h1.5l.5-.5v-6ZM7,7.9,4.15,6h5.7Z" />
    <g class="cls-1">
      <path class="light-defaultgrey" d="M14,3.5v6l-.5.5H13V4H4V3.5L4.5,3h9Z" />
      <path class="light-defaultgrey" d="M16,1.5v6l-.5.5H15V2H6V1.5L6.5,1h9Z" />
    </g>
    <path class="light-defaultgrey-10" d="M4.5,14.987A2.865,2.865,0,0,1,3.05,14.6l-.071-.041L2.9,14.54a2,2,0,0,0-.4-.04H.707L.5,14.293V9.707L.707,9.5H2.5a1.982,1.982,0,0,1,1.6.814l.4.539.4-.539A1.982,1.982,0,0,1,6.5,9.5H8.293l.207.207v4.586l-.207.207H6.5a2,2,0,0,0-.4.04l-.081.017L5.95,14.6a2.875,2.875,0,0,1-1.45.389Z" />
    <path class="light-defaultgrey" d="M8.5,9h-2a2.491,2.491,0,0,0-2,1.015A2.491,2.491,0,0,0,2.5,9H.5L0,9.5v5l.5.5h2a1.547,1.547,0,0,1,.3.03,3.381,3.381,0,0,0,3.4,0A1.547,1.547,0,0,1,6.5,15h2l.5-.5v-5ZM4,14.5H4A2.482,2.482,0,0,0,2.5,14H1V10H2.5A1.5,1.5,0,0,1,4,11.5ZM8,14H6.5a2.482,2.482,0,0,0-1.5.5H5v-3A1.5,1.5,0,0,1,6.5,10H8Z" />
  </g>
</svg>
