<svg xmlns="http://www.w3.org/2000/svg" viewBox="0 0 16 16">
  <defs>
    <style>.canvas{fill: none; opacity: 0;}.light-blue-10{fill: #005dba; opacity: 0.1;}.light-blue{fill: #005dba; opacity: 1;}</style>
  </defs>
  <title>IconLightPublishAllWebsites</title>
  <g id="canvas" class="canvas">
    <path class="canvas" d="M16,16H0V0H16Z" />
  </g>
  <g id="level-1">
    <path class="light-blue-10" d="M12.5,8.5A6.026,6.026,0,1,1,7.956,2.685,9.948,9.948,0,0,1,9.294,6h2.647A5.925,5.925,0,0,1,12.5,8.5Z" />
    <path class="light-blue" d="M12.854.9h-.708l-2.5,2.5.708.708L12,2.457V6H9.294a9.922,9.922,0,0,0-1.6-3.736s-.1-.11-.144-.169A6.534,6.534,0,0,0,6.5,2,6.5,6.5,0,1,0,13,8.5V2.457L14.646,4.1l.708-.708ZM8.5,8a9.016,9.016,0,0,1-.233,2H4.733A9.016,9.016,0,0,1,4.5,8a8.983,8.983,0,0,1,.076-1H8.424A8.983,8.983,0,0,1,8.5,8ZM6.009,3.025C6.171,3.01,6.334,3,6.5,3s.33.016.494.03A9,9,0,0,1,8.251,6h-3.5A8.973,8.973,0,0,1,6.009,3.025Zm-1.337.294A9.958,9.958,0,0,0,3.706,6h-2.1A5.527,5.527,0,0,1,4.672,3.319ZM1,8.5A5.464,5.464,0,0,1,1.213,7H3.555c-.032.331-.055.664-.055,1a10.017,10.017,0,0,0,.206,2H1.213A5.464,5.464,0,0,1,1,8.5ZM1.607,11h2.36a10.022,10.022,0,0,0,1.459,2.893A5.515,5.515,0,0,1,1.607,11Zm3.415,0H7.978A8.943,8.943,0,0,1,6.5,13.644,8.943,8.943,0,0,1,5.022,11Zm2.552,2.893A10.022,10.022,0,0,0,9.033,11h2.36A5.515,5.515,0,0,1,7.574,13.893ZM12,8.5a5.464,5.464,0,0,1-.213,1.5H9.294A10.017,10.017,0,0,0,9.5,8c0-.336-.023-.669-.055-1H12Z" />
  </g>
</svg>
