<svg xmlns="http://www.w3.org/2000/svg" viewBox="0 0 16 16">
  <defs>
    <style>.canvas{fill: none; opacity: 0;}.light-defaultgrey-10{fill: #212121; opacity: 0.1;}.light-defaultgrey{fill: #212121; opacity: 1;}.light-blue-10{fill: #005dba; opacity: 0.1;}.light-blue{fill: #005dba; opacity: 1;}.cls-1{opacity:0.75;}</style>
  </defs>
  <title>IconLightPublishCurrentWebsite</title>
  <g id="canvas">
    <path class="canvas" d="M16,16H0V0H16Z" />
  </g>
  <g id="level-1">
    <g class="cls-1">
      <path class="light-defaultgrey-10" d="M14.5,1H10.9l-1.4.5h-8v13h13V5L15,3.88V1.5ZM12.24,6.5A4.379,4.379,0,0,1,12.5,8a4.5,4.5,0,0,1-9,0,4.379,4.379,0,0,1,.26-1.5A4.486,4.486,0,0,1,8,3.5c.65,0,1.21,1.25,1.41,3Z" />
      <path class="light-defaultgrey" d="M14,4.88V14H2V2H9.9l1-1H1.5L1,1.5v13l.5.5h13l.5-.5V3.88Z" />
    </g>
    <path class="light-blue-10" d="M12.5,8a4.5,4.5,0,0,1-9,0,4.379,4.379,0,0,1,.26-1.5A4.486,4.486,0,0,1,8,3.5c.65,0,1.21,1.25,1.41,3h2.83A4.379,4.379,0,0,1,12.5,8Z" />
    <path class="light-blue" d="M14.6,2.9l-1.75-1.75h-.708L10.4,2.9,11.1,3.6l.9-.9V6H9.847C9.558,4.112,8.88,3,8,3a5,5,0,1,0,5,5V2.707l.9.9ZM8,4c.118,0,.58.513.834,2H7.165C7.419,4.514,7.882,4,8,4ZM4.127,9a4,4,0,0,1,0-2h1.91C6.013,7.323,6,7.658,6,8s.012.668.036,1Zm.41,1H6.149a7.444,7.444,0,0,0,.472,1.755A4.02,4.02,0,0,1,4.537,10ZM6.152,6H4.537A4.022,4.022,0,0,1,6.622,4.245,7.189,7.189,0,0,0,6.152,6ZM8,12c-.181,0-.6-.682-.836-2H8.836C8.6,11.318,8.181,12,8,12Zm.962-3H7.038C7.014,8.69,7,8.357,7,8s.014-.678.041-1H8.96c.026.319.04.654.04,1S8.986,8.69,8.962,9Zm.417,2.755A7.444,7.444,0,0,0,9.851,10h1.612A4.02,4.02,0,0,1,9.379,11.755ZM12,8a3.978,3.978,0,0,1-.127,1H9.964c.024-.332.036-.668.036-1s-.013-.68-.037-1H12Z" />
  </g>
</svg>
