<svg xmlns="http://www.w3.org/2000/svg" viewBox="0 0 16 16">
  <defs>
    <style>.canvas{fill: none; opacity: 0;}.light-defaultgrey-10{fill: #212121; opacity: 0.1;}.light-defaultgrey{fill: #212121; opacity: 1;}.light-red{fill: #c50b17; opacity: 1;}.cls-1{opacity:0.75;}</style>
  </defs>
  <title>IconLightPushNotificationGroup</title>
  <g id="canvas">
    <path class="canvas" d="M16,16H0V0H16Z" />
  </g>
  <g id="level-1">
    <g class="cls-1">
      <path class="light-defaultgrey-10" d="M14,6.87A3.657,3.657,0,0,1,13,7V9.5h1.5V6.7A2.946,2.946,0,0,1,14,6.87ZM3.5,3H9a3.657,3.657,0,0,1,.13-1,2.946,2.946,0,0,1,.17-.5H3.5Z" />
      <path class="light-defaultgrey" d="M3.5,1H9.54a2.879,2.879,0,0,0-.24.5,2.946,2.946,0,0,0-.17.5H4V3H3V1.5Zm11,5.7a2.946,2.946,0,0,1-.5.17V9H13v1h1.5l.5-.5V6.46A2.879,2.879,0,0,1,14.5,6.7Z" />
    </g>
    <path class="light-defaultgrey-10" d="M11,6.46A3.934,3.934,0,0,1,9.54,5a2.879,2.879,0,0,1-.24-.5H.5v8h2v3l3-3h6V6.7A2.879,2.879,0,0,1,11,6.46Z" />
    <path class="light-defaultgrey" d="M11.5,6.7a2.879,2.879,0,0,1-.5-.24V12H5.5l-.35.15L3,14.29V12.5L2.5,12H1V5H9.54a2.879,2.879,0,0,1-.24-.5A2.946,2.946,0,0,1,9.13,4H.5L0,4.5v8l.5.5H2v2.5l.85.35L5.71,13H11.5l.5-.5V6.87A2.946,2.946,0,0,1,11.5,6.7Z" />
    <path class="light-red" d="M13,0a3,3,0,1,0,3,3A3,3,0,0,0,13,0Z" />
  </g>
</svg>
