<svg xmlns="http://www.w3.org/2000/svg" viewBox="0 0 16 16">
  <defs>
    <style>.canvas{fill: none; opacity: 0;}.light-defaultgrey-10{fill: #212121; opacity: 0.1;}.light-defaultgrey{fill: #212121; opacity: 1;}.light-red{fill: #c50b17; opacity: 1;}</style>
  </defs>
  <title>IconLightPushNotification</title>
  <g id="canvas">
    <path class="canvas" d="M16,16H0V0H16Z" />
  </g>
  <g id="level-1">
    <path class="light-defaultgrey-10" d="M14.5,2.5v9h-7l-3,3v-3h-3v-9Z" />
    <path class="light-defaultgrey" d="M14.5,2H1.5L1,2.5v9l.5.5H4v2.5l.854.354L7.707,12H14.5l.5-.5v-9ZM14,11H7.5l-.354.146L5,13.293V11.5L4.5,11H2V3H14Z" />
    <path class="light-red" d="M16,3a3,3,0,1,1-3-3A3,3,0,0,1,16,3Z" />
  </g>
</svg>
