<svg xmlns="http://www.w3.org/2000/svg" viewBox="0 0 16 16">
  <defs>
    <style>.canvas{fill: none; opacity: 0;}.light-yellow{fill: #996f00; opacity: 1;}</style>
  </defs>
  <title>IconLightPYFileNode</title>
  <g id="canvas">
    <path class="canvas" d="M16,16H0V0H16Z" />
  </g>
  <g id="level-1">
    <path class="light-yellow" d="M3.322,9.1V12H2V4H4.427a3.21,3.21,0,0,1,2.136.642,2.235,2.235,0,0,1,.759,1.807A2.5,2.5,0,0,1,6.53,8.357,3.006,3.006,0,0,1,4.388,9.1Zm0-4.006V8.017h.859a1.9,1.9,0,0,0,1.3-.4,1.414,1.414,0,0,0,.446-1.116q0-1.411-1.64-1.412ZM14.251,4,11.629,9.093V12H10.3V9.121L7.746,4H9.258l1.573,3.431q.029.062.168.463h.016a3.273,3.273,0,0,1,.184-.463L12.845,4Z" />
  </g>
</svg>
