<svg xmlns="http://www.w3.org/2000/svg" viewBox="0 0 16 16">
  <defs>
    <style>.canvas{fill: none; opacity: 0;}.light-yellow{fill: #996f00; opacity: 1;}.light-yellow-10{fill: #996f00; opacity: 0.1;}</style>
  </defs>
  <title>IconLightPYMPI</title>
  <g id="canvas">
    <path class="canvas" d="M16,16H0V0H16Z" />
  </g>
  <g id="level-1">
    <path class="light-yellow" d="M15,14v1H1.5L1,14.5V1H2V14Z" />
    <path class="light-yellow-10" d="M3.5,8.5h2v4h-2Z" />
    <path class="light-yellow" d="M3,8.5v4l.5.5h2l.5-.5v-4L5.5,8h-2ZM5,9v3H4V9Z" />
    <path class="light-yellow-10" d="M13.5,12.5h-2v-7h2Z" />
    <path class="light-yellow" d="M13.5,5h-2l-.5.5v7l.5.5h2l.5-.5v-7ZM13,6v6H12V6Z" />
    <path class="light-yellow-10" d="M9.5,12.5h-2V2.5h2Z" />
    <path class="light-yellow" d="M9.5,2h-2L7,2.5v10l.5.5h2l.5-.5V2.5ZM9,3v9H8V3Z" />
  </g>
</svg>
