<svg xmlns="http://www.w3.org/2000/svg" viewBox="0 0 16 16">
  <defs>
    <style>.canvas{fill: none; opacity: 0;}.light-defaultgrey-10{fill: #212121; opacity: 0.1;}.light-defaultgrey{fill: #212121; opacity: 1;}.light-yellow{fill: #996f00; opacity: 1;}</style>
  </defs>
  <title>IconLightPYWebSite</title>
  <g id="canvas">
    <path class="canvas" d="M16,16H0V0H16Z" />
  </g>
  <g id="level-1">
    <path class="light-defaultgrey-10" d="M14.5,8a6.4,6.4,0,0,1-2.706,5.257l-.03-.523L8.645,9.615l-1.329,1.41H3.682L2.293,9.637l-.443.443A6.5,6.5,0,1,1,14.5,8Z" />
    <path class="light-defaultgrey" d="M12.947,3.053A7,7,0,0,0,1.135,9.366a6.9,6.9,0,0,0,.324,1.105l.8-.8A5.94,5.94,0,0,1,2,8a5.98,5.98,0,0,1,.35-2H4.7a10.2,10.2,0,0,0,0,4H2.656l1,1H4.947l.01.025H6.01L6,11H7.34l.942-1H5.722a9.12,9.12,0,0,1,0-4h4.556a9.12,9.12,0,0,1,0,4H9.029l1.743,1.742c.1-.247.205-.488.281-.742h2.135a6,6,0,0,1-1.464,1.7l.04.039.064,1.109a6.976,6.976,0,0,0,1.119-10.79ZM4.946,5H2.812a6.025,6.025,0,0,1,3.4-2.727A10.522,10.522,0,0,0,4.946,5ZM6,5A9.479,9.479,0,0,1,7.628,2.019C7.752,2.011,7.874,2,8,2s.249.011.373.019A9.478,9.478,0,0,1,10.005,5ZM9.789,2.273A6.02,6.02,0,0,1,13.188,5H11.053A10.489,10.489,0,0,0,9.789,2.273ZM13.65,10H11.3a10.2,10.2,0,0,0,0-4h2.35A5.885,5.885,0,0,1,13.65,10Z" />
    <path class="light-yellow" d="M7.191,11.9v3h-3v-3Zm3.829,1.853-.041-.707L8.858,10.923l-.667.707L9.959,13.4,8.191,15.165l.708.707ZM.363,13.044v.707l2.121,2.121.707-.707L1.424,13.4,3.191,11.63l-.707-.707Z" />
  </g>
</svg>
