<svg xmlns="http://www.w3.org/2000/svg" viewBox="0 0 16 16">
  <defs>
    <style>.canvas{fill: none; opacity: 0;}.light-defaultgrey{fill: #212121; opacity: 1;}.light-defaultgrey-10{fill: #212121; opacity: 0.1;}.light-yellow{fill: #996f00; opacity: 1;}.cls-1{opacity:0.75;}</style>
  </defs>
  <title>IconLightPYWPFApplication</title>
  <g id="canvas">
    <path class="canvas" d="M16,16H0V0H16Z" />
  </g>
  <g id="level-1">
    <g class="cls-1">
      <path class="light-defaultgrey" d="M15,5.5v8l-.5.5H11.828V13H14V6H2V9.93l-1,1V5.5L1.5,5h13Z" />
      <path class="light-defaultgrey-10" d="M14.465,5.087v8H11.828v-.329L8.707,9.637,7.318,11.025H3.682L2.293,9.637l-.828.828V5.087Z" />
    </g>
    <path class="light-yellow" d="M7,12.025v3H4v-3Zm3.828,1.854v-.707L8.707,11.051,8,11.758l1.768,1.767L8,15.293,8.707,16ZM.172,13.172v.707L2.293,16,3,15.293,1.232,13.525,3,11.758l-.707-.707Z" />
    <path class="light-defaultgrey-10" d="M14,3V5H2V3Z" />
    <path class="light-defaultgrey" d="M14.5,6H1.5L1,5.5v-3L1.5,2h13l.5.5v3ZM2,5H14V3H2Z" />
  </g>
</svg>
