<svg xmlns="http://www.w3.org/2000/svg" viewBox="0 0 16 16">
  <defs>
    <style>.canvas{fill: none; opacity: 0;}.light-defaultgrey-10{fill: #212121; opacity: 0.1;}.light-defaultgrey{fill: #212121; opacity: 1;}.light-yellow-10{fill: #996f00; opacity: 0.1;}.light-blue{fill: #005dba; opacity: 1;}.light-yellow{fill: #996f00; opacity: 1;}.cls-1{opacity:0.75;}</style>
  </defs>
  <title>IconLightQueryExtender</title>
  <g id="canvas" class="canvas">
    <path class="canvas" d="M16,16H0V0H16Z" />
  </g>
  <g id="level-1">
    <g class="cls-1">
      <path class="light-defaultgrey-10" d="M14.5,1.5v10H13v-7L12.5,4h-9V1.5Z" />
      <path class="light-defaultgrey" d="M15,1.5v10l-.5.5H13V11h1V3H4V4H3V1.5L3.5,1h11Z" />
      <path class="light-defaultgrey-10" d="M1.5,8.379V4.5H2V8.877ZM6.621,11.5,4.268,13.854H2.732L1.5,12.621V14.5h11v-3Z" />
      <path class="light-defaultgrey" d="M1,8.586V4.5L1.5,4H2V8.877l-.644-.645ZM12.5,4H5V6h7v8H2v-.879l-1-1V14.5l.5.5h11l.5-.5V4.5Z" />
    </g>
    <path class="light-yellow-10" d="M12.5,5.5v6H6.621l1.147-1.146L5.646,8.232,5,8.881V5.5Z" />
    <path class="light-blue" d="M3.854,12.854H3.146l-2.5-2.5.708-.707L3,11.291V5H4v6.3L5.646,9.647l.708.707Z" />
    <path class="light-yellow" d="M13,5.5v6l-.5.5H6.121l1-1H12V6H5V5h7.5Z" />
    <path class="light-yellow" d="M11,8V9H6.414l-.768-.768L5,8.879V8Z" />
  </g>
</svg>
