<svg xmlns="http://www.w3.org/2000/svg" viewBox="0 0 16 16">
  <defs>
    <style>.canvas{fill: none; opacity: 0;}.light-defaultgrey{fill: #212121; opacity: 1;}.light-defaultgrey-10{fill: #212121; opacity: 0.1;}.light-yellow-10{fill: #996f00; opacity: 0.1;}.light-yellow{fill: #996f00; opacity: 1;}.cls-1{opacity:0.75;}</style>
  </defs>
  <title>IconLightQueryViewMissing</title>
  <g id="canvas">
    <path class="canvas" d="M16,16H0V0H16Z" />
  </g>
  <g id="level-1">
    <path class="light-defaultgrey" d="M13.707,13l2.147,2.146-.708.708L13,13.707l-2.146,2.147-.708-.708L12.293,13l-2.147-2.146.708-.708L13,12.293l2.146-2.147.708.708Z" />
    <g class="cls-1">
      <path class="light-defaultgrey-10" d="M2.5,9V5.5H.5v7h9v-.88l-.5-.5-.27-.27L9,10.58l.5-.5V9Z" />
      <path class="light-defaultgrey-10" d="M2.5,2V4.5h7v5h.58l.77-.77.15.15.5.5V2Z" />
      <path class="light-defaultgrey" d="M11.5,1h-9L2,1.5V4H.5L0,4.5v8l.5.5h9l.5-.5v-.38l-1-1V12H1V6H9v4.58l.5-.5.58-.58.5-.5H10V4.5L9.5,4H3V3h8V8.88l.81.81L12,9.5v-8Z" />
    </g>
    <path class="light-yellow-10" d="M2.5,5.5v4h7v-4Z" />
    <path class="light-yellow" d="M9.5,5h-7L2,5.5v4l.5.5h7l.5-.5v-4ZM3,6H9V9H3Z" />
    <path class="light-yellow" d="M4,7V8H8V7Z" />
  </g>
</svg>
