<svg xmlns="http://www.w3.org/2000/svg" viewBox="0 0 16 16">
  <defs>
    <style>.canvas{fill: none; opacity: 0;}.light-defaultgrey{fill: #212121; opacity: 1;}</style>
  </defs>
  <title>QuestionMark</title>
  <g id="canvas">
    <path class="canvas" d="M16,16H0V0H16Z" />
  </g>
  <g id="level-1">
    <path class="light-defaultgrey" d="M10.6,4.725c0,1.493-.985,2.121-1.836,3A2.153,2.153,0,0,0,8.12,9.685H6.88a3.99,3.99,0,0,1,.184-1.633A3.962,3.962,0,0,1,8.12,6.637,5.061,5.061,0,0,0,9.176,5.461a1.806,1.806,0,0,0-.949-2.45A1.861,1.861,0,0,0,5.64,4.725H4.4a3.1,3.1,0,0,1,6.2,0ZM7.5,11.5a1,1,0,1,0,1,1A1,1,0,0,0,7.5,11.5Z" />
  </g>
</svg>
