<svg xmlns="http://www.w3.org/2000/svg" viewBox="0 0 16 16">
  <defs>
    <style>.canvas{fill: none; opacity: 0;}.light-defaultgrey{fill: #212121; opacity: 1;}</style>
  </defs>
  <title>IconLightQuote</title>
  <g id="canvas">
    <path class="canvas" d="M15.994,0V16h-16V0Z" />
  </g>
  <g id="level-1">
    <path class="light-defaultgrey" d="M1.248,5.8a.6.6,0,0,1-.148-.43,1.382,1.382,0,0,1,.216-.7A2.58,2.58,0,0,1,1.909,4l.238.2A.926.926,0,0,0,2,4.388a1.894,1.894,0,0,0-.135.266,1.18,1.18,0,0,0-.077.257.556.556,0,0,1,.3.184.5.5,0,0,1,.112.329.511.511,0,0,1-.154.386.55.55,0,0,1-.4.148A.521.521,0,0,1,1.248,5.8ZM2.6,5.8a.6.6,0,0,1-.149-.43,1.374,1.374,0,0,1,.217-.7A2.59,2.59,0,0,1,3.262,4l.234.2a.926.926,0,0,0-.149.191,2,2,0,0,0-.134.266,1.127,1.127,0,0,0-.077.257.56.56,0,0,1,.3.184.5.5,0,0,1,.111.329A.514.514,0,0,1,3.4,5.81a.548.548,0,0,1-.4.148A.525.525,0,0,1,2.6,5.8ZM13.851,4.157a.6.6,0,0,1,.149.43,1.382,1.382,0,0,1-.216.7,2.567,2.567,0,0,1-.594.674l-.237-.2A.926.926,0,0,0,13.1,5.57a1.938,1.938,0,0,0,.135-.265,1.142,1.142,0,0,0,.076-.258.558.558,0,0,1-.3-.183.5.5,0,0,1-.112-.33.514.514,0,0,1,.153-.386.552.552,0,0,1,.4-.148A.517.517,0,0,1,13.851,4.157Zm-1.351,0a.6.6,0,0,1,.15.43,1.374,1.374,0,0,1-.217.7,2.59,2.59,0,0,1-.6.674l-.234-.2a.926.926,0,0,0,.148-.191,1.938,1.938,0,0,0,.135-.265,1.149,1.149,0,0,0,.077-.258.564.564,0,0,1-.3-.183.5.5,0,0,1-.111-.33.514.514,0,0,1,.153-.386A.548.548,0,0,1,12.1,4,.523.523,0,0,1,12.5,4.157Z" />
    <path class="light-defaultgrey" d="M9,10.723A2,2,0,1,0,9,7.277V5H8v6H9ZM10,8A1,1,0,1,1,9,9,1,1,0,0,1,10,8ZM5,11a1.987,1.987,0,0,0,1-.277V11H7V7H6v.277A2,2,0,1,0,5,11ZM5,8A1,1,0,1,1,4,9,1,1,0,0,1,5,8Z" />
  </g>
</svg>
