<svg xmlns="http://www.w3.org/2000/svg" viewBox="0 0 16 16">
  <defs>
    <style>.canvas{fill: none; opacity: 0;}.light-defaultgrey{fill: #212121; opacity: 1;}.light-defaultgrey-10{fill: #212121; opacity: 0.1;}</style>
  </defs>
  <title>IconLightRadioButton</title>
  <g id="canvas" class="canvas">
    <path class="canvas" d="M16,0V16H0V0Z" />
  </g>
  <g id="level-1">
    <path class="light-defaultgrey" d="M8,13a5,5,0,1,1,5-5A5.006,5.006,0,0,1,8,13ZM8,4a4,4,0,1,0,4,4A4,4,0,0,0,8,4Z" />
    <path class="light-defaultgrey-10" d="M8,12.5A4.5,4.5,0,1,1,12.5,8,4.5,4.5,0,0,1,8,12.5Z" />
    <path class="light-defaultgrey" d="M6,8a2,2,0,1,1,2,2A2,2,0,0,1,6,8Z" />
  </g>
</svg>
