<svg xmlns="http://www.w3.org/2000/svg" viewBox="0 0 16 16">
  <defs>
    <style>.canvas{fill: none; opacity: 0;}.light-defaultgrey{fill: #212121; opacity: 1;}.light-green{fill: #1f801f; opacity: 1;}.cls-1{opacity:0.75;}</style>
  </defs>
  <title>IconLightRangeValidator</title>
  <g id="canvas">
    <path class="canvas" d="M16,16H0V0H16Z" />
  </g>
  <g id="level-1">
    <path class="light-defaultgrey" d="M2,7.509,4,6V9Z" />
    <path class="light-defaultgrey" d="M9,10H6V9.414a1.517,1.517,0,0,1,.109-.57,1.533,1.533,0,0,1,.258-.422,5.46,5.46,0,0,1,.391-.414q.219-.211.429-.391a4.511,4.511,0,0,0,.4-.383,2.993,2.993,0,0,0,.3-.367A.694.694,0,0,0,8,6.5a.5.5,0,0,0-.813-.391.543.543,0,0,0-.179.289l-.977-.2a1.372,1.372,0,0,1,.18-.476,1.292,1.292,0,0,1,.344-.375A1.962,1.962,0,0,1,7,5.094,1.323,1.323,0,0,1,7.5,5a1.474,1.474,0,0,1,.586.117,1.5,1.5,0,0,1,.8.8A1.474,1.474,0,0,1,9,6.5a1.639,1.639,0,0,1-.086.547,1.738,1.738,0,0,1-.242.453,3.506,3.506,0,0,1-.344.4q-.187.188-.4.36a5.09,5.09,0,0,0-.4.359Q7.344,8.8,7.164,9H9Z" />
    <path class="light-defaultgrey" d="M13,7.491,11,9V6Z" />
    <path class="light-green" d="M15.144,11.6l-4.25,4.25h-.707L7.937,13.6l.707-.707,1.9,1.9,3.9-3.9Z" />
    <g class="cls-1">
      <path class="light-defaultgrey" d="M14,3V4H1V3ZM1,12H11.914l1-1H1Z" />
    </g>
  </g>
</svg>
