<svg xmlns="http://www.w3.org/2000/svg" viewBox="0 0 16 16">
  <defs>
    <style>.canvas{fill: none; opacity: 0;}.light-defaultgrey{fill: #212121; opacity: 1;}.light-defaultgrey-10{fill: #212121; opacity: 0.1;}.light-lightblue-10{fill: #0077a0; opacity: 0.1;}.light-lightblue{fill: #0077a0; opacity: 1;}.cls-1{opacity:0.75;}</style>
  </defs>
  <title>IconLightRangeChart</title>
  <g id="canvas">
    <path class="canvas" d="M16,16H0V0H16Z" />
  </g>
  <g id="level-1">
    <g class="cls-1">
      <path class="light-defaultgrey" d="M15,14v1H1.5L1,14.5V1H2V14Z" />
    </g>
    <path class="light-defaultgrey-10" d="M14.5,12.509H3.512V1.522H14.5Z" />
    <path class="light-defaultgrey" d="M14.5,13H3.5L3,12.5V1.5L3.5,1h11l.5.5v11ZM4,12H14V2H4Z" />
    <path class="light-lightblue-10" d="M14.5,1.491v4.38L8.541,12.5,5.5,12.506,11.264,1.493Z" />
    <path class="light-lightblue" d="M14.5.99l-3.236,0-.444.268L5.054,12.273l.444.733L8.542,13l.371-.166,5.959-6.629L15,5.871V1.49ZM14,5.68,8.317,12,6.324,12,11.566,1.993,14,1.99Z" />
  </g>
</svg>
