<svg xmlns="http://www.w3.org/2000/svg" viewBox="0 0 16 16">
  <defs>
    <style>.canvas{fill: none; opacity: 0;}.light-yellow-10{fill: #996f00; opacity: 0.1;}.light-yellow{fill: #996f00; opacity: 1;}</style>
  </defs>
  <title>IconLightRating</title>
  <g id="canvas" class="canvas">
    <path class="canvas" d="M16,16H0V0H16Z" />
  </g>
  <g id="level-1">
    <path class="light-yellow-10" d="M9.845,5.6l.427,2.488L8.037,6.916,5.8,8.091,6.23,5.6,4.422,3.84l2.5-.363L8.037,1.214,9.155,3.477l2.5.363Zm4,6.467.426,2.488-2.234-1.175L9.8,14.558l.427-2.488L8.42,10.308l2.5-.363,1.118-2.264,1.117,2.264,2.5.363Zm-8.072,0L6.2,14.558,3.964,13.383,1.73,14.558l.427-2.488L.349,10.308l2.5-.363L3.964,7.681,5.082,9.945l2.5.363Z" />
    <path class="light-yellow" d="M6.035,8.533,5.31,8.006l.382-2.229L4.073,4.2l.277-.853,2.238-.325,1-2.029h.9l1,2.029,2.238.325L12,4.2l-1.62,1.578.383,2.229-.726.527-2-1.053ZM5.5,4.189,6.579,5.244l.143.444L6.467,7.177l1.338-.7h.466l1.337.7L9.353,5.688,9.5,5.244l1.083-1.055-1.5-.216L8.707,3.7,8.038,2.344,7.368,3.7l-.376.274ZM14.038,15l-2-1.053-2,1.053-.725-.527.382-2.229-1.62-1.578.277-.853,2.238-.326,1-2.028h.9l1,2.028,2.238.326.277.853-1.619,1.578.382,2.229Zm-1.77-2.06,1.338.7-.255-1.49.144-.443,1.082-1.055-1.5-.217-.376-.273-.669-1.355-.669,1.355-.377.273-1.5.217,1.082,1.055.144.443-.256,1.49,1.338-.7ZM5.967,15l-2-1.053L1.963,15l-.726-.527.383-2.229L0,10.666l.277-.853,2.238-.326,1-2.028h.9l1,2.028,2.238.326.277.853L6.31,12.244l.382,2.229ZM4.2,12.94l1.338.7-.255-1.49.143-.443,1.082-1.055L5.01,10.439l-.377-.273L3.964,8.811,3.3,10.166l-.376.273-1.5.217,1.083,1.055.143.443-.255,1.49,1.337-.7Z" />
  </g>
</svg>
