<svg xmlns="http://www.w3.org/2000/svg" viewBox="0 0 16 16">
  <defs>
    <style>.canvas{fill: none; opacity: 0;}.light-red{fill: #c50b17; opacity: 1;}.white{fill: #ffffff; opacity: 1;}</style>
  </defs>
  <title>IconLightRBNotSupported</title>
  <g id="canvas">
    <path class="canvas" d="M16,16H0V0H16Z" />
  </g>
  <g id="level-1">
    <path class="light-red" d="M6.328,7.6H5.242L4.348,6.1a2.118,2.118,0,0,0-.471-.594.882.882,0,0,0-.576-.18H2.926V7.6H2V2H3.844a1.756,1.756,0,0,1,1.689.85,1.674,1.674,0,0,1,.051,1.207,1.574,1.574,0,0,1-1.154.982v.016a2.9,2.9,0,0,1,.9.972Zm-3.4-4.848v1.82H3.7a.925.925,0,0,0,.992-.965c0-.58-.4-.855-.984-.855ZM7,7.6V2H8.777a2.1,2.1,0,0,1,1.287.355,1.106,1.106,0,0,1,.475.926A1.35,1.35,0,0,1,9.523,4.609v.016a1.319,1.319,0,0,1,1.27,1.367,1.411,1.411,0,0,1-.566,1.164A2.243,2.243,0,0,1,8.8,7.6Zm.926-4.856V4.34h.6c.6,0,1.035-.275,1.035-.875q0-.72-.96-.719Zm0,2.34V6.859h.793c.625,0,1.086-.285,1.086-.9q0-.871-1.207-.871Z" />
    <path class="light-red" d="M12,8a4,4,0,1,0,4,4A4,4,0,0,0,12,8Z" />
    <path class="white" d="M14,12.5H10v-1h4Z" />
  </g>
</svg>
