<svg xmlns="http://www.w3.org/2000/svg" viewBox="0 0 16 16">
  <defs>
    <style>.canvas{fill: none; opacity: 0;}.light-defaultgrey-10{fill: #212121; opacity: 0.1;}.light-defaultgrey{fill: #212121; opacity: 1;}.light-red{fill: #c50b17; opacity: 1;}.cls-1{opacity:0.75;}</style>
  </defs>
  <title>IconLightRBProjectNode</title>
  <g id="canvas">
    <path class="canvas" d="M16,16H0V0H16Z" />
  </g>
  <g id="level-1">
    <g class="cls-1">
      <path class="light-defaultgrey-10" d="M15.5,13.5H.5V2.5h15Z" />
      <path class="light-defaultgrey" d="M15.5,14H.5L0,13.5V2.5L.5,2h15l.5.5v11ZM1,13H15V3H1Z" />
    </g>
    <path class="light-red" d="M6.668,8.943a2.959,2.959,0,0,0-.221-.269,1.812,1.812,0,0,0-.241-.22.841.841,0,0,0-.257-.136V8.3A2.133,2.133,0,0,0,6.5,8.059a1.725,1.725,0,0,0,.421-.369,1.588,1.588,0,0,0,.269-.479,1.691,1.691,0,0,0,.1-.579Q7.283,5,5.121,5H3v6H4.338V8.7H4.7a.529.529,0,0,1,.231.052.788.788,0,0,1,.2.151,1.8,1.8,0,0,1,.193.236c.063.092.13.2.2.314L6.447,11H7.983L6.861,9.226C6.8,9.134,6.738,9.04,6.668,8.943ZM5.61,7.431a.958.958,0,0,1-.692.251h-.58V6.013h.6q.932,0,.932.786A.841.841,0,0,1,5.61,7.431Zm7.011.82a1.641,1.641,0,0,0-1.013-.473V7.761a1.7,1.7,0,0,0,.831-.506,1.237,1.237,0,0,0,.325-.849,1.188,1.188,0,0,0-.535-1.038A2.68,2.68,0,0,0,10.7,5H8.539v6h2.282a2.423,2.423,0,0,0,1.6-.484A1.606,1.606,0,0,0,13,9.209,1.332,1.332,0,0,0,12.621,8.251ZM9.877,6h.5q.978,0,.977.661a.7.7,0,0,1-.238.559.975.975,0,0,1-.652.2H9.877Zm1.452,3.791A1.11,1.11,0,0,1,10.6,10H9.877V8.423h.733a1.132,1.132,0,0,1,.722.205.679.679,0,0,1,.26.564A.733.733,0,0,1,11.329,9.787Z" />
  </g>
</svg>
