<svg xmlns="http://www.w3.org/2000/svg" viewBox="0 0 16 16">
  <defs>
    <style>.canvas{fill: none; opacity: 0;}.light-lightblue-10{fill: #0077a0; opacity: 0.1;}.light-lightblue{fill: #0077a0; opacity: 1;}.light-defaultgrey-10{fill: #212121; opacity: 0.1;}.light-defaultgrey{fill: #212121; opacity: 1;}</style>
  </defs>
  <title>IconLightReadOnlyDatabase</title>
  <g id="canvas" class="canvas">
    <path class="canvas" d="M16,16H0V0H16Z" />
  </g>
  <g id="level-1">
    <path class="light-lightblue-10" d="M9,13.337A12.184,12.184,0,0,1,7,13.5c-2.481,0-4.5-.673-4.5-1.5V3c0-.926,2.336-1.5,4.5-1.5s4.5.574,4.5,1.5V7.417A2.993,2.993,0,0,0,10,10v.086l-1,1Z" />
    <path class="light-lightblue" d="M9,13.849A13.148,13.148,0,0,1,7,14c-2.408,0-5-.626-5-2V3a1.034,1.034,0,0,0,.063.338c.008.024.016.047.026.07a1.223,1.223,0,0,0,.181.3l.006.007a1.8,1.8,0,0,0,.29.271c.013.01.025.021.039.031a2.984,2.984,0,0,0,.4.243V12c0,.233,1.247,1,4,1a11.533,11.533,0,0,0,2-.164ZM2.063,3.338A1.034,1.034,0,0,1,2,3C2,1.626,4.592,1,7,1s5,.626,5,2a1.034,1.034,0,0,1-.063.338c-.008.024-.016.047-.026.07a1.223,1.223,0,0,1-.181.3l-.006.007a1.845,1.845,0,0,1-.29.271l-.039.03A2.885,2.885,0,0,1,11,4.262h0A9.5,9.5,0,0,1,7,5a9.5,9.5,0,0,1-4-.738H3a2.984,2.984,0,0,1-.395-.243l-.039-.031a1.845,1.845,0,0,1-.29-.271L2.27,3.71a1.223,1.223,0,0,1-.181-.3C2.079,3.385,2.071,3.362,2.063,3.338ZM3,3c0,.257,1.375,1,4,1s4-.743,4-1S9.625,2,7,2,3,2.743,3,3Zm8.911.408a1.223,1.223,0,0,1-.181.3l-.006.007a1.8,1.8,0,0,1-.29.271c-.013.01-.025.021-.039.03A2.885,2.885,0,0,1,11,4.262V7.78a2.989,2.989,0,0,1,1-.6V3a1.034,1.034,0,0,1-.063.338C11.929,3.362,11.921,3.385,11.911,3.408Z" />
    <path class="light-defaultgrey-10" d="M15.5,11.5v4h-5v-4Z" />
    <path class="light-defaultgrey" d="M15.5,11H15V10a2,2,0,0,0-4,0v1h-.5l-.5.5v4l.5.5h5l.5-.5v-4ZM12,10a1,1,0,0,1,2,0v1H12Zm3,5H11V12h4Z" />
  </g>
</svg>
