<svg xmlns="http://www.w3.org/2000/svg" viewBox="0 0 16 16">
  <defs>
    <style>.canvas{fill: none; opacity: 0;}.light-defaultgrey-10{fill: #212121; opacity: 0.1;}.light-defaultgrey{fill: #212121; opacity: 1;}.light-blue{fill: #005dba; opacity: 1;}</style>
  </defs>
  <title>Receive</title>
  <g id="canvas">
    <path class="canvas" d="M16,16H0V0H16Z" />
  </g>
  <g id="level-1">
    <path class="light-defaultgrey-10" d="M5.91,3.5l.36.36L4.4,5.73l-.36.36-.77.77H1.73L1.5,6.63V12.5h13v-9Z" />
    <path class="light-defaultgrey-10" d="M5.91,3.5l.36.36L4.4,5.73,8,8.5,13.85,4l.65-.5Z" />
    <path class="light-defaultgrey" d="M15,3.5v9l-.5.5H1.5L1,12.5V6.13l.73.73H2V12H14V4.54L8.3,8.9H7.7L4.04,6.09l.36-.36.36-.36L8,7.87,13.03,4H6.13l.14-.14L5.91,3.5,5.41,3H14.5Z" />
    <path class="light-blue" d="M3,4.3,4.146,3.156l.708.708-2,2H2.146l-2-2,.708-.708L2,4.3V.01H3Z" />
  </g>
</svg>
