<svg xmlns="http://www.w3.org/2000/svg" viewBox="0 0 16 16">
  <defs>
    <style>.canvas{fill: none; opacity: 0;}.light-defaultgrey-10{fill: #212121; opacity: 0.1;}.light-red-10{fill: #c50b17; opacity: 0.1;}.light-red{fill: #c50b17; opacity: 1;}.light-defaultgrey{fill: #212121; opacity: 1;}</style>
  </defs>
  <title>RecordScreenAndVoice</title>
  <g id="canvas">
    <path class="canvas" d="M16,16H0V0H16Z" />
  </g>
  <g id="level-1">
    <path class="light-defaultgrey-10" d="M7,4.5V5.91L5.91,7H4.93a3.556,3.556,0,0,1,1,1.89L9,12.72V13h.22l.69.86L9.9,14l-.03.5H15.5V4.5Z" />
    <path class="light-red-10" d="M.5.5v5h5V.5Z" />
    <path class="light-red" d="M4,3A1,1,0,1,1,3,2,1,1,0,0,1,4,3ZM6,.5v5L5.5,6H.5L0,5.5V.5L.5,0h5ZM5,3A2,2,0,1,0,3,5,2.006,2.006,0,0,0,5,3Z" />
    <path class="light-defaultgrey" d="M15.5,4H7V5h8v9H9.9l-.03.5-.02.5H15.5l.5-.5V4.5Z" />
    <path class="light-defaultgrey" d="M7,6V7H8V6Zm4,0V7h1V6Zm2,2V9h1V8Zm0,2v1h1V10ZM9,6V7h1V6Zm0,6v1h1V12Zm2,0v1h1V12Zm2,0v1h.5l.5-.5V12Zm.5-6H13V7h1V6.5Z" />
    <path class="light-defaultgrey-10" d="M8.5,14.5l-1,1-5-4a2,2,0,1,1,2-2Z" />
    <path class="light-defaultgrey" d="M4.98,9.3A2.494,2.494,0,1,0,2.3,11.98l4.888,3.911.667-.037,1-1,.037-.666ZM1,9.5a1.5,1.5,0,0,1,2.987-.194L2.306,10.987A1.5,1.5,0,0,1,1,9.5Zm6.463,5.33L3.249,11.458l1.209-1.209L7.83,14.463Z" />
  </g>
</svg>
