<svg xmlns="http://www.w3.org/2000/svg" viewBox="0 0 16 16">
  <defs>
    <style>.canvas{fill: none; opacity: 0;}.light-defaultgrey-10{fill: #212121; opacity: 0.1;}.light-red-10{fill: #c50b17; opacity: 0.1;}.light-red{fill: #c50b17; opacity: 1;}.light-defaultgrey{fill: #212121; opacity: 1;}</style>
  </defs>
  <title>IconLightRecordScreen</title>
  <g id="canvas" class="canvas">
    <path class="canvas" d="M16,16H0V0H16Z" />
  </g>
  <g id="level-1">
    <path class="light-defaultgrey-10" d="M15.5,4.5v10H1.5V7H5.914L7,5.914V4.5Z" />
    <path class="light-red-10" d="M5.5,5.5H.5V.5h5Z" />
    <path class="light-red" d="M4,3A1,1,0,1,1,3,2,1,1,0,0,1,4,3Z" />
    <path class="light-red" d="M5.5,0H.5L0,.5v5L.5,6h5L6,5.5V.5ZM3,5A2,2,0,1,1,5,3,2,2,0,0,1,3,5Z" />
    <path class="light-defaultgrey" d="M16,4.5v10l-.5.5H1.5L1,14.5V7H2v7H15V5H7V4h8.5Z" />
    <path class="light-defaultgrey" d="M8,7H7V6H8ZM4,9V8H3V9Zm8-3H11V7h1Zm2,2H13V9h1ZM4,11V10H3v1Zm10-1H13v1h1ZM10,6H9V7h1ZM9,13h1V12H9ZM7,13H8V12H7Zm4,0h1V12H11ZM5,13H6V12H5Zm8.5,0,.5-.5V12H13v1ZM14,6.5,13.5,6H13V7h1Zm-11,6,.5.5H4V12H3Z" />
  </g>
</svg>
