<svg xmlns="http://www.w3.org/2000/svg" viewBox="0 0 16 16">
  <defs>
    <style>.canvas{fill: none; opacity: 0;}.light-defaultgrey-10{fill: #212121; opacity: 0.1;}.light-defaultgrey{fill: #212121; opacity: 1;}.light-green{fill: #1f801f; opacity: 1;}.cls-1{opacity:0.75;}</style>
  </defs>
  <title>RecursivelyCheckAll</title>
  <g id="canvas">
    <path class="canvas" d="M16,16H0V0H16Z" />
  </g>
  <g id="level-1">
    <g class="cls-1">
      <path class="light-defaultgrey-10" d="M14.5,2.5v10H12V5H6.156l2.5-2.5Z" />
      <path class="light-defaultgrey" d="M15,2.5v10l-.5.5H12V12h2V3H8.156l1-1H14.5Z" />
    </g>
    <path class="light-green" d="M8.144,1.6l-4.25,4.25H3.187L.937,3.6l.707-.707,1.9,1.9,3.9-3.9Z" />
    <path class="light-defaultgrey-10" d="M12.5,4.5v10H2.5V6.576l.272.273H4.308L6.656,4.5Z" />
    <path class="light-defaultgrey" d="M13,4.5v10l-.5.5H2.5L2,14.5V6.076l.772.773H3V14h9V5H6.156l1-1H12.5Z" />
  </g>
</svg>
