<svg xmlns="http://www.w3.org/2000/svg" viewBox="0 0 16 16">
  <defs>
    <style>.canvas{fill: none; opacity: 0;}.light-defaultgrey-10{fill: #212121; opacity: 0.1;}.light-defaultgrey{fill: #212121; opacity: 1;}.light-red{fill: #c50b17; opacity: 1;}.cls-1{opacity:0.75;}</style>
  </defs>
  <title>RecursivelyUncheckAll</title>
  <g id="canvas">
    <path class="canvas" d="M16,16H0V0H16Z" />
  </g>
  <g id="level-1">
    <g class="cls-1">
      <path class="light-defaultgrey-10" d="M14.5,2.5v10H12V5H7.121l-2-2,.5-.5Z" />
      <path class="light-defaultgrey" d="M15,2.5v10l-.5.5H12V12h2V3H5.121l1-1H14.5Z" />
    </g>
    <path class="light-defaultgrey-10" d="M12.5,4.5v10H2.5V5.621l.5-.5L5.146,7.268,7.268,5.146,6.621,4.5Z" />
    <path class="light-defaultgrey" d="M13,4.5v10l-.5.5H2.5L2,14.5V6.121l1-1V14h9V5H7.121l-1-1H12.5Z" />
    <path class="light-red" d="M3.707,3,5.854,5.146l-.708.708L3,3.707.854,5.854.146,5.146,2.293,3,.146.854.854.146,3,2.293,5.146.146l.708.708Z" />
  </g>
</svg>
