<svg xmlns="http://www.w3.org/2000/svg" viewBox="0 0 16 16">
  <defs>
    <style>.canvas{fill: none; opacity: 0;}.light-defaultgrey{fill: #212121; opacity: 1;}.light-defaultgrey-10{fill: #212121; opacity: 0.1;}.light-blue{fill: #005dba; opacity: 1;}.cls-1{opacity:0.75;}</style>
  </defs>
  <title>RedoMerge</title>
  <g id="canvas" class="canvas">
    <path class="canvas" d="M16,0V16H0V0Z" />
  </g>
  <g id="level-1">
    <g class="cls-1">
      <path class="light-defaultgrey" d="M12.5,10v1A4.2,4.2,0,0,1,9,9.438V12.5H8v-6H9A3.411,3.411,0,0,0,12.5,10Z" />
    </g>
    <path class="light-defaultgrey-10" d="M15.5,10.5A1.5,1.5,0,1,1,14,9,1.5,1.5,0,0,1,15.5,10.5Z" />
    <path class="light-defaultgrey-10" d="M10,14a1.5,1.5,0,1,1-1.5-1.5A1.5,1.5,0,0,1,10,14Z" />
    <path class="light-defaultgrey" d="M14,8.5a2,2,0,1,0,2,2A2.006,2.006,0,0,0,14,8.5Zm0,3a1,1,0,1,1,1-1A1,1,0,0,1,14,11.5Z" />
    <path class="light-defaultgrey" d="M8.5,12a2,2,0,1,0,2,2A2.006,2.006,0,0,0,8.5,12Zm0,3a1,1,0,1,1,1-1A1,1,0,0,1,8.5,15Z" />
    <path class="light-defaultgrey-10" d="M10,5A1.5,1.5,0,0,1,7,5h.91l.93-.93L9,3.91V3.59A1.5,1.5,0,0,1,10,5Z" />
    <path class="light-defaultgrey" d="M9,3.07v.84l-.16.16A.987.987,0,0,1,9.5,5a1,1,0,0,1-2,0h-1A2,2,0,1,0,9,3.07Z" />
    <path class="light-blue" d="M1.379,5.121h0L5.621,9.364l.707-.707L2.086,4.414A2,2,0,0,1,4.914,1.586h0L6.328,3H4V4H7.5L8,3.5V0H7V2.257L5.621.879A3,3,0,0,0,1.379,5.121Z" />
  </g>
</svg>
