<svg xmlns="http://www.w3.org/2000/svg" viewBox="0 0 16 16">
  <defs>
    <style>.canvas{fill: none; opacity: 0;}.light-defaultgrey-10{fill: #212121; opacity: 0.1;}.light-defaultgrey{fill: #212121; opacity: 1;}.light-blue{fill: #005dba; opacity: 1;}</style>
  </defs>
  <title>IconLightReduceBrightness</title>
  <g id="canvas">
    <path class="canvas" d="M16,0V16H0V0Z" />
  </g>
  <g id="level-1">
    <path class="light-defaultgrey-10" d="M13.5,6.5a3,3,0,1,1-3-3A3,3,0,0,1,13.5,6.5Z" />
    <path class="light-defaultgrey" d="M16,7V6.032H13.969A3.494,3.494,0,0,0,13.3,4.405l1.441-1.441-.685-.684L12.62,3.717A3.483,3.483,0,0,0,11,3.036V1h-.968V3.031A3.484,3.484,0,0,0,8.4,3.7L6.964,2.257l-.684.685L7.717,4.38A3.483,3.483,0,0,0,7.036,6H5v.968H7.031A3.484,3.484,0,0,0,7.7,8.6L6.257,10.036l.685.684L8.38,9.283A3.483,3.483,0,0,0,10,9.964V12h.968V9.969A3.494,3.494,0,0,0,12.6,9.3l1.441,1.441.684-.685L13.283,8.62A3.483,3.483,0,0,0,13.964,7ZM10.5,9A2.5,2.5,0,1,1,13,6.5,2.5,2.5,0,0,1,10.5,9Z" />
    <path class="light-blue" d="M3,9H4v4.293l1.146-1.147.708.708-2,2H3.146l-2-2,.708-.708L3,13.293Z" />
  </g>
</svg>
