<svg xmlns="http://www.w3.org/2000/svg" viewBox="0 0 16 16">
  <defs>
    <style>.canvas{fill: none; opacity: 0;}.light-defaultgrey-10{fill: #212121; opacity: 0.1;}.light-blue{fill: #005dba; opacity: 1;}.light-defaultgrey{fill: #212121; opacity: 1;}</style>
  </defs>
  <title>IconLightReduceContrast</title>
  <g id="canvas">
    <path class="canvas" d="M16,0V16H0V0Z" />
  </g>
  <g id="level-1">
    <path class="light-defaultgrey-10" d="M14.5,6A4.505,4.505,0,0,1,10,10.5H9.5v-9H10A4.505,4.505,0,0,1,14.5,6Z" />
    <path class="light-blue" d="M5.854,12.854l-2,2H3.146l-2-2,.708-.708L3,13.293V9H4v4.293l1.146-1.147Z" />
    <path class="light-defaultgrey" d="M10,1a5,5,0,1,0,5,5A5,5,0,0,0,10,1Zm0,9V2a4,4,0,0,1,0,8Z" />
  </g>
</svg>
