<svg xmlns="http://www.w3.org/2000/svg" viewBox="0 0 16 16">
  <defs>
    <style>.canvas{fill: none; opacity: 0;}.light-defaultgrey{fill: #212121; opacity: 1;}.white{fill: #ffffff; opacity: 1;}</style>
  </defs>
  <title>IconLightRefactoring</title>
  <g id="canvas">
    <path class="canvas" d="M16,16H0V0H16Z" />
  </g>
  <g id="level-1">
    <path class="light-defaultgrey" d="M9,1V2h4V1ZM2,1V2H8V1ZM9,4V5h6V4ZM3,4V5H8V4ZM8,7V8h6V7ZM4.34,7A4.924,4.924,0,0,1,7,7.98V7ZM8.6,10a4.816,4.816,0,0,1,.3,1H10V10Z" />
    <path class="light-defaultgrey" d="M8,11.979a4,4,0,1,1-4-4A4,4,0,0,1,8,11.979Z" />
    <path class="white" d="M6.208,11.15,3.843,13.514l-.711,0-1.34-1.372.715-.7.987,1.011L5.5,10.443Z" />
  </g>
</svg>
