<svg xmlns="http://www.w3.org/2000/svg" viewBox="0 0 16 16">
  <defs>
    <style>.canvas{fill: none; opacity: 0;}.light-yellow-10{fill: #996f00; opacity: 0.1;}.light-yellow-25{fill: #996f00; opacity: 0.25;}.light-yellow{fill: #996f00; opacity: 1;}.light-defaultgrey-10{fill: #212121; opacity: 0.1;}.light-defaultgrey{fill: #212121; opacity: 1;}</style>
  </defs>
  <title>IconLightReferenceFolderOpened</title>
  <g id="canvas" class="canvas">
    <path class="canvas" d="M16,16H0V0H16Z" />
  </g>
  <g id="level-1">
    <path class="light-yellow-10" d="M6.5,3.5l-1-1H.5V11H1L2.5,6.5h5l1-1h5v-2Z" />
    <path class="light-yellow-25" d="M8.5,5.5l-1,1h-5L1,11H2.91l1,1H6v-.91L7.09,10h4.82L13,11.09V12.5h.5l2-7Z" />
    <path class="light-yellow" d="M15.41,5H14V3.5L13.5,3H6.71l-.86-.85L5.5,2H.5L0,2.5v8.59L.09,11H1.5L2.83,7H7.47l.36-.15L8.68,6h6.08L14,8.85,13.16,12H13v1h.54l.48-.37,1.87-7ZM13,5H8.47l-.35.15L7.27,6H2.47L2,6.34,1,9.42V3H5.29l.86.85L6.5,4H13Z" />
    <path class="light-yellow-25" d="M13,6v6.5h1V6Z" />
    <path class="light-defaultgrey-10" d="M.5,12.5h2v2H.5Zm7-1v4h4v-4Z" />
    <path class="light-defaultgrey" d="M11.5,11h-4l-.5.5V13H3v-.5L2.5,12H.5l-.5.5v2l.5.5h2l.5-.5V14H7v1.5l.5.5h4l.5-.5v-4ZM2,14H1V13H2Zm9,1H8V12h3Z" />
  </g>
</svg>
