<svg xmlns="http://www.w3.org/2000/svg" viewBox="0 0 16 16">
  <defs>
    <style>.canvas{fill: none; opacity: 0;}.light-defaultgrey-10{fill: #212121; opacity: 0.1;}.light-defaultgrey{fill: #212121; opacity: 1;}.light-blue{fill: #005dba; opacity: 1;}</style>
  </defs>
  <title>IconLightRefreshPhoneUI</title>
  <g id="canvas" class="canvas">
    <path class="canvas" d="M0,0H16V16H0Z" />
  </g>
  <g id="level-1">
    <path class="light-defaultgrey-10" d="M12.5,1.5v13h-8V7.878A4.507,4.507,0,0,0,7.4,5.752l.5-.865L6.366,4h.548L8,2.914V1.5Z" />
    <path class="light-defaultgrey" d="M10,13H7V12h3ZM9,3H8V4H9Zm3.5-2H8V2h4V14H5V7.731a4.468,4.468,0,0,1-1,.236V14.5l.5.5h8l.5-.5V1.5Z" />
    <path class="light-blue" d="M3.5,0A3.5,3.5,0,0,1,6,1.06V0H7V2.5L6.5,3H4V2H5.5a2.5,2.5,0,1,0,.167,2.75l.865.5A3.5,3.5,0,1,1,3.5,0Z" />
  </g>
</svg>
