<svg xmlns="http://www.w3.org/2000/svg" viewBox="0 0 16 16">
  <defs>
    <style>.canvas{fill: none; opacity: 0;}.light-defaultgrey-10{fill: #212121; opacity: 0.1;}.light-blue{fill: #005dba; opacity: 1;}.light-defaultgrey{fill: #212121; opacity: 1;}</style>
  </defs>
  <title>IconLightRefreshScript</title>
  <g id="canvas" class="canvas">
    <path class="canvas" d="M16,16H0V0H16Z" />
  </g>
  <g id="level-1">
    <path class="light-defaultgrey-10" d="M14.5,6V7.5h-3V13A1.5,1.5,0,0,1,10,14.5H4A1.5,1.5,0,0,1,2.5,13v-.5h2V7.88A4.5,4.5,0,0,0,7.88,4.5H13A1.5,1.5,0,0,1,14.5,6Z" />
    <path class="light-blue" d="M3.5,0A3.5,3.5,0,0,1,6,1.06V0H7V2.5L6.5,3H4V2H5.5a2.5,2.5,0,1,0,.167,2.75l.865.5A3.5,3.5,0,1,1,3.5,0Z" />
    <path class="light-defaultgrey" d="M13,4H7.95a4.431,4.431,0,0,1-.226,1h3.554A1.978,1.978,0,0,0,11,6v7a1,1,0,0,1-2,0v-.5L8.5,12H5V7.724A4.431,4.431,0,0,1,4,7.95V12H2.5l-.5.5V13a2,2,0,0,0,2,2h6a2,2,0,0,0,2-2V8h2.5l.5-.5V6A2,2,0,0,0,13,4ZM4,14a1,1,0,0,1-1-1H8a1.984,1.984,0,0,0,.269,1ZM14,7H12V6a1,1,0,0,1,2,0Z" />
  </g>
</svg>
