<svg xmlns="http://www.w3.org/2000/svg" viewBox="0 0 16 16">
  <defs>
    <style>.canvas{fill: none; opacity: 0;}.light-defaultgrey{fill: #212121; opacity: 1;}.light-defaultgrey-10{fill: #212121; opacity: 0.1;}.cls-1{opacity:0.75;}</style>
  </defs>
  <title>IconLightRegistersWindow</title>
  <g id="canvas">
    <path class="canvas" d="M16,0V16H0V0Z" />
  </g>
  <g id="level-1">
    <path id="iconBg" class="light-defaultgrey" d="M6,5H5A1,1,0,0,0,4,6v4a1,1,0,0,0,1,1H6a1,1,0,0,0,1-1V6A1,1,0,0,0,6,5Zm0,5H5V6H6Zm4.438-1.969L11.625,11H10.438L9.844,9.516,9.25,11H8.063L9.25,8.031,8.063,5.063H9.25l.594,1.484.594-1.484h1.187Z" />
    <g class="cls-1">
      <path class="light-defaultgrey-10" d="M14.5,12.5H1.5v-9h13Z" />
      <path class="light-defaultgrey" d="M14.5,13H1.5L1,12.5v-9L1.5,3h13l.5.5v9ZM2,12H14V4H2Z" />
    </g>
  </g>
</svg>
