<svg xmlns="http://www.w3.org/2000/svg" viewBox="0 0 16 16">
  <defs>
    <style>.canvas{fill: none; opacity: 0;}.light-defaultgrey{fill: #212121; opacity: 1;}</style>
  </defs>
  <title>IconLightRegularExpressionBuilder</title>
  <g id="canvas" class="canvas">
    <path class="canvas" d="M16,0V16H0V0Z" />
  </g>
  <g id="level-1">
    <path class="light-defaultgrey" d="M15,8H14V9H13V8H12V7h1V6h1V7h1ZM8,7.609A1.511,1.511,0,0,0,6.289,5.9a3.745,3.745,0,0,0-.814.1,2.977,2.977,0,0,0-.7.234v.93a2.422,2.422,0,0,1,1.359-.426q.711,0,.711.656l-1.086.145q-1.38.18-1.379,1.344a1.182,1.182,0,0,0,.334.881,1.251,1.251,0,0,0,.916.33,1.3,1.3,0,0,0,1.191-.672h.016V10H8ZM6.621,8.982a.728.728,0,0,1-.566.241.564.564,0,0,1-.4-.135.451.451,0,0,1-.146-.346c0-.309.2-.491.6-.543l.727-.094v.27A.865.865,0,0,1,6.621,8.982ZM2.984,8.019a9.211,9.211,0,0,1,2.147-6.05H4.119A9.07,9.07,0,0,0,2,8.032,8.74,8.74,0,0,0,4.119,14h1A9.05,9.05,0,0,1,2.984,8.019ZM7.633,14h1A8.74,8.74,0,0,0,10.75,8.032,9.07,9.07,0,0,0,8.631,1.969H7.619a9.211,9.211,0,0,1,2.147,6.05A9.05,9.05,0,0,1,7.633,14Z" />
  </g>
</svg>
