<svg xmlns="http://www.w3.org/2000/svg" viewBox="0 0 16 16">
  <defs>
    <style>.canvas{fill: none; opacity: 0;}.light-green{fill: #1f801f; opacity: 1;}.light-defaultgrey{fill: #212121; opacity: 1;}</style>
  </defs>
  <title>RegularExpressionValidator</title>
  <g id="canvas">
    <path class="canvas" d="M16,0V16H0V0Z" />
  </g>
  <g id="level-1">
    <path class="light-green" d="M16,11.6l-4.25,4.25h-.707L8.793,13.6l.707-.707,1.9,1.9,3.9-3.9Z" />
    <path class="light-defaultgrey" d="M5,12a1,1,0,1,1-1-1A1,1,0,0,1,5,12Z" />
    <path class="light-defaultgrey" d="M9.594,5.5,11.93,6.557l-.8,1.391-2.084-1.5L9.3,9H7.7l.249-2.553-2.084,1.5-.8-1.391L7.406,5.5,5.068,4.443l.8-1.391,2.084,1.5L7.7,2H9.3L9.051,4.553l2.084-1.5.8,1.391Z" />
  </g>
</svg>
