<svg xmlns="http://www.w3.org/2000/svg" viewBox="0 0 16 16">
  <defs>
    <style>.canvas{fill: none; opacity: 0;}.light-defaultgrey{fill: #212121; opacity: 1;}.light-blue{fill: #005dba; opacity: 1;}</style>
  </defs>
  <title>IconLightReloadXML</title>
  <g id="canvas">
    <path class="canvas" d="M16,16H0V0H16Z" />
  </g>
  <g id="level-1">
    <path class="light-defaultgrey" d="M15.7,12.118v.709L13.51,15l-.7-.709,1.831-1.819-1.831-1.825.705-.709ZM8.49,10,6.3,12.173v.709l2.187,2.18.705-.709L7.364,12.528,9.2,10.709Zm.889,5.642.945.328,2.3-6.612-.945-.328Z" />
    <path class="light-blue" d="M7.965,5.917l.987.166A3.494,3.494,0,0,1,3,7.941V9H2V6H5V7H3.5A2.5,2.5,0,0,0,7.965,5.917ZM8,2V3.059A3.494,3.494,0,0,0,2.048,4.917l.987.166A2.5,2.5,0,0,1,7.5,4H6V5H9V2Z" />
  </g>
</svg>
