<svg xmlns="http://www.w3.org/2000/svg" viewBox="0 0 16 16">
  <defs>
    <style>.canvas{fill: none; opacity: 0;}.light-defaultgrey-10{fill: #212121; opacity: 0.1;}.light-defaultgrey{fill: #212121; opacity: 1;}.light-blue{fill: #005dba; opacity: 1;}.cls-1{opacity:0.75;}</style>
  </defs>
  <title>RemoveHorizontalSpacing</title>
  <g id="canvas">
    <path class="canvas" d="M16,16H0V0H16Z" />
  </g>
  <g id="level-1">
    <path class="light-defaultgrey-10" d="M1.5,9.5v-8h2v8Zm7,0v-8h-2v8Zm5,0v-8h-2v8Z" />
    <path class="light-defaultgrey" d="M3.5,1h-2L1,1.5v8l.5.5h2L4,9.5v-8ZM3,9H2V2H3ZM8.5,1h-2L6,1.5v8l.5.5h2L9,9.5v-8ZM8,9H7V2H8Zm5.5-8h-2l-.5.5v8l.5.5h2l.5-.5v-8ZM13,9H12V2h1Z" />
    <path class="light-blue" d="M5.854,12.854l-2,2-.708-.708L4.293,13H1V12H4.293L3.146,10.854l.708-.708,2,2Zm3.292,0,2,2,.708-.708L10.707,13H14V12H10.707l1.147-1.146-.708-.708-2,2Z" />
    <g class="cls-1">
      <path class="light-defaultgrey" d="M4,5H6V6H4ZM9,5V6h2V5Z" />
    </g>
  </g>
</svg>
