<svg xmlns="http://www.w3.org/2000/svg" viewBox="0 0 16 16">
  <defs>
    <style>.canvas{fill: none; opacity: 0;}.light-defaultgrey{fill: #212121; opacity: 1;}.light-red{fill: #c50b17; opacity: 1;}</style>
  </defs>
  <title>IconLightRemoveNamespace</title>
  <g id="canvas">
    <path class="canvas" d="M16,16H0V0H16Z" />
  </g>
  <g id="level-1">
    <path class="light-defaultgrey" d="M4.9,13.1a1.442,1.442,0,0,1-.46-.09.672.672,0,0,1-.29-.24,1,1,0,0,1-.16-.42,2.962,2.962,0,0,1-.06-.64V9.82c0-.98-.31-1.61-.88-1.8.59-.26.88-.86.88-1.79V6.05L3,5.12l-.08.08v.96c0,.9-.31,1.37-.96,1.44l-.08.01v.78l.08.01a.9.9,0,0,1,.71.41,1.86,1.86,0,0,1,.25,1.07v2a2.2,2.2,0,0,0,.5,1.58A2.078,2.078,0,0,0,4.9,14H5v-.9Zm9.13-5.5c-.64-.06-.95-.53-.95-1.44V4.13a2.228,2.228,0,0,0-.5-1.59A2.078,2.078,0,0,0,11.1,2H11v.91h.09a1.369,1.369,0,0,1,.44.09.607.607,0,0,1,.29.21,1.186,1.186,0,0,1,.18.41,2.865,2.865,0,0,1,.07.65V6.23c0,.95.31,1.56.89,1.75a1.815,1.815,0,0,0-.89,1.84v1.89a3.06,3.06,0,0,1-.07.67,1.085,1.085,0,0,1-.17.42.773.773,0,0,1-.29.22,1.4,1.4,0,0,1-.45.08H11V14h.1a2.078,2.078,0,0,0,1.48-.54,2.2,2.2,0,0,0,.5-1.58v-2c0-.93.31-1.41.95-1.48l.09-.01V7.61Z" />
    <path class="light-red" d="M3.707,3,5.854,5.146l-.708.708L3,3.707.854,5.854.146,5.146,2.293,3,.146.854.854.146,3,2.293,5.146.146l.708.708Z" />
  </g>
</svg>
