<svg xmlns="http://www.w3.org/2000/svg" viewBox="0 0 16 16">
  <defs>
    <style>.canvas{fill: none; opacity: 0;}.light-defaultgrey-10{fill: #212121; opacity: 0.1;}.light-defaultgrey{fill: #212121; opacity: 1;}.light-green{fill: #1f801f; opacity: 1;}</style>
  </defs>
  <title>IconLightRemoteServer</title>
  <g id="canvas" class="canvas">
    <path class="canvas" d="M16,0V16H0V0Z" />
  </g>
  <g id="level-1">
    <path class="light-defaultgrey-10" d="M14.5,13.5H2.5V1.5h12Z" />
    <path class="light-defaultgrey" d="M15,1.5,14.5,1H2.5L2,1.5V5l.5.5L2,6V9l.5.5L2,10v3.5l.5.5h12l.5-.5V10l-.5-.5L15,9V6l-.5-.5L15,5ZM3,2H14V5H3ZM14,13H3V10H14Zm0-4H3V6H14Z" />
    <path class="light-green" d="M13,4H11V3h2Zm0,3H11V8h2Zm0,4H11v1h2Z" />
  </g>
</svg>
