<svg xmlns="http://www.w3.org/2000/svg" viewBox="0 0 16 16">
  <defs>
    <style>.canvas{fill: none; opacity: 0;}.light-teal-10{fill: #006758; opacity: 0.1;}.light-teal{fill: #006758; opacity: 1;}.light-defaultgrey-10{fill: #212121; opacity: 0.1;}.light-defaultgrey{fill: #212121; opacity: 1;}.light-red{fill: #c50b17; opacity: 1;}.cls-1{opacity:0.75;}</style>
  </defs>
  <title>RemoveTestGroup</title>
  <g id="canvas">
    <path class="canvas" d="M16,16H0V0H16Z" />
  </g>
  <g id="level-1">
    <path class="light-teal-10" d="M10.6,13.962A1,1,0,0,1,9.76,15.5H4.24A1,1,0,0,1,3.4,13.962L4.33,12.5H9.67Z" />
    <path class="light-teal" d="M9.761,16H4.239a1.5,1.5,0,0,1-1.264-2.307l.933-1.463L4.33,12H9.67l.422.23.933,1.462A1.5,1.5,0,0,1,9.761,16ZM4.6,13l-.786,1.231A.5.5,0,0,0,4.239,15H9.761a.5.5,0,0,0,.421-.77L9.4,13Z" />
    <path class="light-defaultgrey-10" d="M8.5,10.67V6.5H5.92l-.42.42v3.75L4.65,12h4.7Z" />
    <path class="light-defaultgrey" d="M9,10.52V7h1V6H6.42L5,7.42v3.1L3.91,12.23,4.33,12h.91l.68-1.06L6,10.67V7H8v3.67l.08.27L8.76,12h.91l.42.23Z" />
    <g class="cls-1">
      <path class="light-teal-10" d="M13.76,10.5H9v-3h4.67L14.6,8.962A1,1,0,0,1,13.76,10.5Z" />
      <path class="light-teal" d="M15.076,10.221A1.48,1.48,0,0,1,13.761,11H9.306L9,10.521V10h4.761a.5.5,0,0,0,.421-.77L13.4,8H9V7h4.67l.422.23.933,1.462A1.484,1.484,0,0,1,15.076,10.221Z" />
      <path class="light-defaultgrey-10" d="M10,7V6H9.5V1.5h3V5.667L13.351,7Z" />
      <path class="light-defaultgrey" d="M9,2H8V1h6V2H13V5.521L14.091,7.23,13.67,7h-.913l-.679-1.063L12,5.667V2H10V5.667L9.81,6,8.694,6,9,5.521Z" />
    </g>
    <path class="light-red" d="M3.707,3,5.854,5.146l-.708.708L3,3.707.854,5.854.146,5.146,2.293,3,.146.854.854.146,3,2.293,5.146.146l.708.708Z" />
  </g>
</svg>
