<svg xmlns="http://www.w3.org/2000/svg" viewBox="0 0 16 16">
  <defs>
    <style>.canvas{fill: none; opacity: 0;}.light-yellow-10{fill: #996f00; opacity: 0.1;}.light-yellow{fill: #996f00; opacity: 1;}.light-blue{fill: #005dba; opacity: 1;}.white{fill: #ffffff; opacity: 1;}</style>
  </defs>
  <title>RemoteFolder</title>
  <g id="canvas" class="canvas">
    <path class="canvas" d="M16,16H0V0H16Z" />
  </g>
  <g id="level-1">
    <path class="light-yellow-10" d="M7.051,12.5H.5V2.5h6l1,1h6V7.255A4.942,4.942,0,0,0,12,7a5.006,5.006,0,0,0-5,5A4.865,4.865,0,0,0,7.051,12.5Z" />
    <path class="light-yellow" d="M13.5,3H7.707l-.853-.854L6.5,2H.5L0,2.5v10l.5.5H7.1A5,5,0,0,1,7,12H1V5H6.475l.354-.146L7.682,4H13V7.1a4.91,4.91,0,0,1,1,.323V3.5ZM6.268,4H1V3H6.293l.488.488Z" />
    <path class="light-blue" d="M12,8a4,4,0,1,0,4,4A4,4,0,0,0,12,8Z" />
    <path class="white" d="M11.854,13.354l-1.5,1.5-.708-.708L10.793,13,9.646,11.854l.708-.708,1.5,1.5Zm2.5-1.208-.708.708-1.5-1.5v-.708l1.5-1.5.708.708L13.207,11Z" />
  </g>
</svg>
