<svg xmlns="http://www.w3.org/2000/svg" viewBox="0 0 16 16">
  <defs>
    <style>.canvas{fill: none; opacity: 0;}.light-lightblue{fill: #0077a0; opacity: 1;}.light-red{fill: #c50b17; opacity: 1;}.light-purple{fill: #6936aa; opacity: 1;}</style>
  </defs>
  <title>IconLightRemoveLink</title>
  <g id="canvas">
    <path class="canvas" d="M16,16H0V0H16Z" />
  </g>
  <g id="level-1">
    <path class="light-lightblue" d="M16,12a3,3,0,0,1-3,3H9A3,3,0,0,1,9,9h2a1.978,1.978,0,0,1-.278,1H9a2,2,0,0,0,0,4h4a2,2,0,0,0,0-4H11.816A2.966,2.966,0,0,0,12,9h1A3,3,0,0,1,16,12Z" />
    <path class="light-red" d="M3.707,3,5.854,5.146l-.708.708L3,3.707.854,5.854.146,5.146,2.293,3,.146.854.854.146,3,2.293,5.146.146l.708.708Z" />
    <path class="light-purple" d="M6.18,11A3,3,0,0,0,6,12H5a3,3,0,0,1-.96-5.84l.85.85A2,2,0,0,0,5,11Z" />
    <path class="light-purple" d="M12,9a3.009,3.009,0,0,1-3,3H7a2,2,0,0,1,.28-1H9A2,2,0,0,0,9,7H5.42l1-1H9A3.009,3.009,0,0,1,12,9Z" />
  </g>
</svg>
