<svg xmlns="http://www.w3.org/2000/svg" viewBox="0 0 16 16">
  <defs>
    <style>.canvas{fill: none; opacity: 0;}.light-yellow-10{fill: #996f00; opacity: 0.1;}.light-yellow-25{fill: #996f00; opacity: 0.25;}.light-yellow{fill: #996f00; opacity: 1;}.light-blue{fill: #005dba; opacity: 1;}.white{fill: #ffffff; opacity: 1;}</style>
  </defs>
  <title>RemoteFolderOpen</title>
  <g id="canvas" class="canvas">
    <path class="canvas" d="M16,16H0V0H16Z" />
  </g>
  <g id="level-1">
    <path class="light-yellow-10" d="M13.5,3.5v2h-5l-1,1h-5l-2,5v-9h5l1,1Z" />
    <path class="light-yellow-25" d="M7.051,12.5H.5l2-6h5l1-1h7l-.679,2.378A4.993,4.993,0,0,0,7,12,4.865,4.865,0,0,0,7.051,12.5Z" />
    <path class="light-yellow-25" d="M13,7.1V6h1V7.424A4.91,4.91,0,0,0,13,7.1Z" />
    <path class="light-yellow" d="M7.1,13H.475L0,12.342l2-6L2.475,6H7.268l.853-.854L8.475,5h6.933l.484.629L15.207,8.2A5,5,0,0,0,14.33,7.6L14.758,6H8.682l-.854.854L7.475,7H2.835L1.168,12H7A5,5,0,0,0,7.1,13Z" />
    <path class="light-yellow" d="M14,3.5V5H13V4H6.5l-.354-.146L5.293,3H1V9.418L.025,12.342.5,13,0,12.5V2.5L.5,2h5l.354.146L6.707,3H13.5Z" />
    <path class="light-blue" d="M12,8a4,4,0,1,0,4,4A4,4,0,0,0,12,8Z" />
    <path class="white" d="M11.854,13.354l-1.5,1.5-.708-.708L10.793,13,9.646,11.854l.708-.708,1.5,1.5Zm2.5-1.208-.708.708-1.5-1.5v-.708l1.5-1.5.708.708L13.207,11Z" />
  </g>
</svg>
