<svg xmlns="http://www.w3.org/2000/svg" viewBox="0 0 16 16">
  <defs>
    <style>.canvas{fill: none; opacity: 0;}.light-defaultgrey-10{fill: #212121; opacity: 0.1;}.light-defaultgrey{fill: #212121; opacity: 1;}.light-red{fill: #c50b17; opacity: 1;}.cls-1{opacity:0.75;}</style>
  </defs>
  <title>RemoveGuides</title>
  <g id="canvas">
    <path class="canvas" d="M16,16H0V0H16Z" />
  </g>
  <g id="level-1">
    <g class="cls-1">
      <path class="light-defaultgrey-10" d="M6.12,2l-1,1L7.27,5.15,5.15,7.27,5,7.12V8H4.5v7.5h11V2Z" />
      <path class="light-defaultgrey" d="M15.5,2H6.12l-1,1H15V15H5V7.12l-1-1V15.5l.5.5h11l.5-.5V2.5Z" />
    </g>
    <path class="light-defaultgrey" d="M8,4H9V5H8ZM8,7H9V6H8ZM8,9H9V8H8Zm0,2H9V10H8Zm0,2H9V12H8Zm0,2H9V14H8ZM6,11H7V10H6Zm4,0h1V10H10Zm2,0h1V10H12Zm2-1v1h1V10Z" />
    <path class="light-red" d="M3.707,3,5.854,5.146l-.708.708L3,3.707.854,5.854.146,5.146,2.293,3,.146.854.854.146,3,2.293,5.146.146l.708.708Z" />
  </g>
</svg>
