<svg xmlns="http://www.w3.org/2000/svg" viewBox="0 0 16 16">
  <defs>
    <style>.canvas{fill: none; opacity: 0;}.light-defaultgrey{fill: #212121; opacity: 1;}.light-yellow-10{fill: #996f00; opacity: 0.1;}.light-yellow{fill: #996f00; opacity: 1;}</style>
  </defs>
  <title>IconLightRenameEvent</title>
  <g id="canvas" class="canvas">
    <path class="canvas" d="M16,16H0V0H16Z" />
  </g>
  <g id="level-1">
    <path class="light-defaultgrey" d="M13,10v5h2v1H10V15h2V10H10V9h5v1Z" />
    <path class="light-yellow-10" d="M9,9,3.5,14.5H2l3.5-6H2l4-7h5.387L7,6.5h4.5L10,8H9Z" />
    <path class="light-yellow" d="M9,9.707,3.854,14.854,3.5,15H2l-.432-.752L4.63,9H2l-.434-.748,4-7L6,1h5.388l.375.83L8.1,6h3.4l.354.854L10.707,8H9.293l1-1H7l-.376-.83L10.284,2H6.29L2.862,8H5.5l.432.752L2.871,14h.422L9,8.293Z" />
  </g>
</svg>
