<svg xmlns="http://www.w3.org/2000/svg" viewBox="0 0 16 16">
  <defs>
    <style>.canvas{fill: none; opacity: 0;}.light-defaultgrey-10{fill: #212121; opacity: 0.1;}.light-defaultgrey{fill: #212121; opacity: 1;}.light-blue{fill: #005dba; opacity: 1;}.light-yellow{fill: #996f00; opacity: 1;}</style>
  </defs>
  <title>IconLightReportImage</title>
  <g id="canvas" class="canvas">
    <path class="canvas" d="M16,16H0V0H16Z" />
  </g>
  <g id="level-1">
    <path class="light-defaultgrey-10" d="M7.5,8.5v7H.5v-7Z" />
    <path class="light-defaultgrey" d="M7.5,8H.5L0,8.5v7l.5.5h7l.5-.5v-7ZM7,15H1V9H7Z" />
    <path class="light-blue" d="M5.3,13,7,14.36V15H6.164l-1.189-.887-.751.334-.478,0L1.986,13.03,1,13.754V12.513L1.7,12l.608.012,1.75,1.4L4.776,13Z" />
    <path class="light-yellow" d="M4.648,11a1,1,0,1,1,1,1A1,1,0,0,1,4.648,11Z" />
    <path class="light-defaultgrey-10" d="M14.5,4.5v10H9V8.086L7.914,7H3.5V1.5h8Z" />
    <path class="light-defaultgrey" d="M15,4.5v10l-.5.5H9V14h5V5H11V2H4V7H3V1.5L3.5,1h8l.354.146,3,3Z" />
    <path class="light-defaultgrey" d="M13,8.5v4l-.5.5h-1l-.5-.5v-4l.5-.5h1Z" />
    <path class="light-defaultgrey" d="M9.5,10l.5.5v2l-.5.5H9V10Z" />
    <path class="light-defaultgrey" d="M5,8H7V9H5ZM5,4V5h5V4ZM5,7H8V6H5Z" />
  </g>
</svg>
