<svg xmlns="http://www.w3.org/2000/svg" viewBox="0 0 16 16">
  <defs>
    <style>.canvas{fill: none; opacity: 0;}.light-defaultgrey-10{fill: #212121; opacity: 0.1;}.light-defaultgrey{fill: #212121; opacity: 1;}.light-yellow{fill: #996f00; opacity: 1;}.white{fill: #ffffff; opacity: 1;}.cls-1{opacity:0.75;}</style>
  </defs>
  <title>ReportWarning</title>
  <g id="canvas">
    <path class="canvas" d="M16,16H0V0H16Z" />
  </g>
  <g id="level-1">
    <g class="cls-1">
      <path class="light-defaultgrey-10" d="M6.339,14.5H2.5V1.5h8l3,3V8.76L12.53,7H10.47Z" />
      <path class="light-defaultgrey" d="M7,7H4V6H7ZM4,9H6V8H4ZM4,4V5H9V4Zm3.5,6-.5.5v2l.284.284,1.421-2.579L8.5,10Z" />
      <path class="light-defaultgrey" d="M6.063,15H2.5L2,14.5V1.5L2.5,1h8l.354.146,3,3L14,4.5V9.668L13,7.853V5H10V2H3V14H6.614Z" />
    </g>
    <path class="light-yellow" d="M15.5,16h-8l-.439-.739,4-7.261h.878l4,7.261Z" />
    <path class="white" d="M12,13H11V10h1Zm.25,1.5a.75.75,0,1,1-.75-.75A.75.75,0,0,1,12.25,14.5Z" />
  </g>
</svg>
