<svg xmlns="http://www.w3.org/2000/svg" viewBox="0 0 16 16">
  <defs>
    <style>.canvas{fill: none; opacity: 0;}.light-defaultgrey-10{fill: #212121; opacity: 0.1;}.light-defaultgrey{fill: #212121; opacity: 1;}.light-green{fill: #1f801f; opacity: 1;}.white{fill: #ffffff; opacity: 1;}</style>
  </defs>
  <title>RepositoryUploaded</title>
  <g id="canvas">
    <path class="canvas" d="M16,0V16H0V0Z" />
  </g>
  <g id="level-1">
    <path class="light-defaultgrey-10" d="M6.5,4.59V9.56l.97-.97h.37a4.07,4.07,0,0,1,.58-.52A3.973,3.973,0,0,1,9,7.67c.16-.09.33-.18.5-.26V4.59Z" />
    <path class="light-defaultgrey" d="M6,4V9.86l.83.34A4.984,4.984,0,0,1,7.84,8.59a4.07,4.07,0,0,1,.58-.52L8.35,8h-.7L7,8.65V5H9V7.67c.16-.09.33-.18.5-.26s.33-.13.5-.19V4Z" />
    <path class="light-defaultgrey-10" d="M1.5,1.5v3h1v9H6.72c-.04-.17-.09-.33-.12-.5a4.712,4.712,0,0,1-.1-1,5.133,5.133,0,0,1,.33-1.8A4.984,4.984,0,0,1,7.84,8.59a4.07,4.07,0,0,1,.58-.52A3.973,3.973,0,0,1,9,7.67c.16-.09.33-.18.5-.26s.33-.13.5-.19a5.224,5.224,0,0,1,3,0c.17.06.34.12.5.19V4.5h1v-3Z" />
    <path class="light-defaultgrey" d="M13.5,4H2.5L2,4.5v9l.5.5H6.91c-.07-.16-.13-.33-.19-.5-.04-.17-.09-.33-.12-.5H3V5H13V7.22c.17.06.34.12.5.19s.34.17.5.26V4.5Z" />
    <path class="light-defaultgrey" d="M14.5,1H1.5L1,1.5v3l.5.5h13l.5-.5v-3ZM2,4V2H14V4Z" />
    <path class="light-green" d="M15.5,12a4,4,0,1,1-4-4A4,4,0,0,1,15.5,12Z" />
    <path class="white" d="M13.6,11.9,12.9,12.6l-.9-.9V14H11V11.707l-.9.9L9.4,11.9l1.75-1.75h.708Z" />
  </g>
</svg>
