<svg xmlns="http://www.w3.org/2000/svg" viewBox="0 0 16 16">
  <defs>
    <style>.canvas{fill: none; opacity: 0;}.light-defaultgrey{fill: #212121; opacity: 1;}.light-defaultgrey-10{fill: #212121; opacity: 0.1;}.cls-1{opacity:0.75;}</style>
  </defs>
  <title>ReportParameter</title>
  <g id="canvas">
    <path class="canvas" d="M16,16H0V0H16Z" />
  </g>
  <g id="level-1">
    <g class="cls-1">
      <path class="light-defaultgrey" d="M5,4V5h5V4ZM5,7H8V6H5Z" />
      <path class="light-defaultgrey" d="M9.5,10l.5.5v2l-.5.5H8.812a4.407,4.407,0,0,0,.235-1.454A4.648,4.648,0,0,0,8.777,10Zm3-2h-1l-.5.5v4l.5.5h1l.5-.5v-4Z" />
      <path class="light-defaultgrey-10" d="M14,5V15H7.3a3.307,3.307,0,0,0,.419-.418l0,0a3.286,3.286,0,0,0,.5-.5,3.917,3.917,0,0,0,.826-2.536A4.252,4.252,0,0,0,7.6,8.226a5.047,5.047,0,0,0-3.469-1.24A5.829,5.829,0,0,0,3,7.1V2h8Z" />
      <path class="light-defaultgrey" d="M15,4.5v10l-.5.5H7.128v-.05a3.033,3.033,0,0,0,1.093-.868c.021-.026.034-.056.054-.082H14V5H11V2H4V7a5.773,5.773,0,0,0-1,.1V1.5L3.5,1h8l.354.146,3,3Z" />
    </g>
    <path class="light-defaultgrey" d="M4.844,13.134H4.819a1.361,1.361,0,0,1-1.377,1.05,1.294,1.294,0,0,1-1.054-.491,2.028,2.028,0,0,1-.4-1.321,2.94,2.94,0,0,1,.55-1.826,1.727,1.727,0,0,1,1.447-.728,1.042,1.042,0,0,1,.611.188.846.846,0,0,1,.346.452h.015q.015-.136.073-.562H5.84q-.229,2.578-.23,2.627,0,.967.5.967a.88.88,0,0,0,.762-.539,2.841,2.841,0,0,0,.3-1.4A2.781,2.781,0,0,0,6.36,9.479a3.1,3.1,0,0,0-2.268-.8,3.03,3.03,0,0,0-2.3.971,3.413,3.413,0,0,0-.913,2.432A3.15,3.15,0,0,0,1.753,14.4a3.187,3.187,0,0,0,2.368.884,4.608,4.608,0,0,0,2.007-.4v.752A5.517,5.517,0,0,1,3.994,16a3.963,3.963,0,0,1-2.9-1.074A3.758,3.758,0,0,1,0,12.113,4.046,4.046,0,0,1,1.162,9.149,4,4,0,0,1,4.131,7.973a4.067,4.067,0,0,1,2.805.986,3.277,3.277,0,0,1,1.111,2.573,2.934,2.934,0,0,1-.6,1.907,1.83,1.83,0,0,1-1.472.745Q4.849,14.184,4.844,13.134Zm-.777-2.622a.989.989,0,0,0-.866.527,2.436,2.436,0,0,0-.33,1.314,1.39,1.39,0,0,0,.222.832.7.7,0,0,0,.594.3.946.946,0,0,0,.849-.554,2.972,2.972,0,0,0,.313-1.467Q4.849,10.512,4.067,10.512Z" />
  </g>
</svg>
