<svg xmlns="http://www.w3.org/2000/svg" viewBox="0 0 16 16">
  <defs>
    <style>.canvas{fill: none; opacity: 0;}.light-yellow-10{fill: #996f00; opacity: 0.1;}.light-yellow{fill: #996f00; opacity: 1;}.light-defaultgrey{fill: #212121; opacity: 1;}</style>
  </defs>
  <title>IconLightReportHacked</title>
  <g id="canvas">
    <path class="canvas" d="M16,0V16H0V0Z" />
  </g>
  <g id="level-1">
    <path class="light-yellow-10" d="M7.383,14.213q-.684-.408-1.361-.867C3.011,11.305,1.49,8.936,1.5,6.3V3.308L1.708,3.1a6.122,6.122,0,0,0,3.6-.949A3.647,3.647,0,0,1,6.33,1.667,4.051,4.051,0,0,1,7.5,1.5a3.941,3.941,0,0,1,2.228.678A6.357,6.357,0,0,0,13.3,3.1l.209.208V6.3a6.714,6.714,0,0,1-.892,3.362,13.355,13.355,0,0,1-4.995,4.55Z" />
    <path class="light-yellow" d="M7.505,2a3.47,3.47,0,0,1,1.018.148,4.119,4.119,0,0,1,.941.452,6.715,6.715,0,0,0,3.54,1V6.306a6.221,6.221,0,0,1-.828,3.113A12.684,12.684,0,0,1,7.5,13.7c-.4-.241-.8-.5-1.2-.768C3.438,10.99,1.99,8.761,2,6.3V3.594a7.2,7.2,0,0,0,2.562-.488A5.974,5.974,0,0,0,5.57,2.574a3.211,3.211,0,0,1,.9-.429A3.549,3.549,0,0,1,7.505,2m0-1a4.534,4.534,0,0,0-1.321.193,16.06,16.06,0,0,0-2,.992A6.869,6.869,0,0,1,1.5,2.6L1,3.1V6.3C.987,9.512,3.083,11.958,5.741,13.76q.75.507,1.505.953h.508a13.9,13.9,0,0,0,5.294-4.8A7.231,7.231,0,0,0,14,6.3V3.1l-.5-.5A6.084,6.084,0,0,1,10,1.752,5.108,5.108,0,0,0,8.821,1.19,4.447,4.447,0,0,0,7.505,1Z" />
    <path class="light-defaultgrey" d="M7.5,11.25a.75.75,0,1,1,.75-.75A.75.75,0,0,1,7.5,11.25ZM7,4V8.5H8V4Z" />
  </g>
</svg>
