<svg xmlns="http://www.w3.org/2000/svg" viewBox="0 0 16 16">
  <defs>
    <style>.canvas{fill: none; opacity: 0;}.light-defaultgrey-10{fill: #212121; opacity: 0.1;}.light-defaultgrey{fill: #212121; opacity: 1;}</style>
  </defs>
  <title>IconLightRequiredInterface</title>
  <g id="canvas">
    <path class="canvas" d="M16,16H0V0H16Z" />
  </g>
  <g id="level-1">
    <path class="light-defaultgrey-10" d="M1.172,12.707,4.707,9.172l2.121,2.121L3.293,14.828Z" />
    <path class="light-defaultgrey" d="M14.975,5.975l-.707-.707a2.5,2.5,0,0,1-3.536-3.536l-.707-.707a3.49,3.49,0,0,0-.318,4.561L5.768,9.525l-.707-.707H4.354L.818,12.354v.707l2.121,2.121h.707l3.536-3.536v-.707l-.707-.707,3.939-3.939A3.49,3.49,0,0,0,14.975,5.975ZM3.293,14.121,1.879,12.707,4.707,9.879l1.414,1.414Z" />
  </g>
</svg>
