<svg xmlns="http://www.w3.org/2000/svg" viewBox="0 0 16 16">
  <defs>
    <style>.canvas{fill: none; opacity: 0;}.light-defaultgrey-10{fill: #212121; opacity: 0.1;}.light-defaultgrey{fill: #212121; opacity: 1;}.light-yellow{fill: #996f00; opacity: 1;}.light-blue{fill: #005dba; opacity: 1;}</style>
  </defs>
  <title>IconLightResourceView</title>
  <g id="canvas">
    <path class="canvas" d="M16,0V16H0V0Z" />
  </g>
  <g id="level-1">
    <path class="light-defaultgrey-10" d="M9.5,11A4.5,4.5,0,1,1,5,6.5,4.5,4.5,0,0,1,9.5,11Z" />
    <path class="light-defaultgrey-10" d="M14.5,2.5v8H10.975A6,6,0,0,0,5,5c-.169,0-.335.012-.5.025V2.5Z" />
    <path class="light-defaultgrey" d="M15,2.5v8l-.5.5H11a6,6,0,0,0-.09-1H14V3H5V5a6,6,0,0,0-1,.09V2.5L4.5,2h10Z" />
    <path class="light-yellow" d="M13,5a1,1,0,1,1-1-1A1,1,0,0,1,13,5Z" />
    <path class="light-blue" d="M14,9.793V10H12.793L10.98,8.188l-.46.459a6.011,6.011,0,0,0-.494-.919l.6-.6h.707Z" />
    <path class="light-defaultgrey" d="M5,6a5,5,0,1,0,5,5A5.006,5.006,0,0,0,5,6Zm4,5H5V7A4,4,0,0,1,9,11ZM5,15A3.987,3.987,0,0,1,3,7.556V12l1,1H8.444A3.987,3.987,0,0,1,5,15Z" />
  </g>
</svg>
