<svg xmlns="http://www.w3.org/2000/svg" viewBox="0 0 16 16">
  <defs>
    <style>.canvas{fill: none; opacity: 0;}.light-defaultgrey{fill: #212121; opacity: 1;}</style>
  </defs>
  <title>IconLightResourceSymbol</title>
  <g id="canvas" class="canvas">
    <path class="canvas" d="M16,0V16H0V0Z" />
  </g>
  <g id="level-1">
    <path class="light-defaultgrey" d="M4.262,11H3V5.4H4.262Zm1.476,0V5.4H7.723q2.984,0,2.984,2.731a2.762,2.762,0,0,1-.814,2.09A3.008,3.008,0,0,1,7.723,11ZM7,6.426V9.977h.625a1.685,1.685,0,0,0,1.287-.493,1.866,1.866,0,0,0,.467-1.339,1.69,1.69,0,0,0-.463-1.26,1.766,1.766,0,0,0-1.3-.459ZM14,10a1,1,0,1,0-1,1A1,1,0,0,0,14,10Zm0-3a1,1,0,1,0-1,1A1,1,0,0,0,14,7Z" />
  </g>
</svg>
