<svg xmlns="http://www.w3.org/2000/svg" viewBox="0 0 16 16">
  <defs>
    <style>.canvas{fill: none; opacity: 0;}.light-defaultgrey-10{fill: #212121; opacity: 0.1;}.light-defaultgrey{fill: #212121; opacity: 1;}.light-blue{fill: #005dba; opacity: 1;}</style>
  </defs>
  <title>ResultsToGrid</title>
  <g id="canvas">
    <path class="canvas" d="M16,16H0V0H16Z" />
  </g>
  <g id="level-1">
    <path class="light-defaultgrey-10" d="M6.85,2.5v.77L6,4.12,4.12,6l-.27.27L2.5,4.92V14.5h12V2.5Z" />
    <path class="light-defaultgrey" d="M14.5,2H6.85V3.27L6,4.12V5H5.12l-1,1H6V8H3V6h.58L2,4.42V14.5l.5.5h12l.5-.5V2.5ZM10,6V8H7V6ZM7,5V3h3V5Zm3,4v2H7V9Zm0,3v2H7V12Zm4-3v2H11V9ZM11,8V6h3V8Zm3,4v2H11V12Zm0-7H11V3h3ZM3,9H6v2H3Zm0,3H6v2H3Z" />
    <path class="light-blue" d="M4.293,2,3.146.854,3.854.146l2,2v.708l-2,2-.708-.708L4.293,3H0V2Z" />
  </g>
</svg>
