<svg xmlns="http://www.w3.org/2000/svg" viewBox="0 0 16 16">
  <defs>
    <style>.canvas{fill: none; opacity: 0;}.light-purple-10{fill: #6936aa; opacity: 0.1;}.light-blue{fill: #005dba; opacity: 1;}.light-purple{fill: #6936aa; opacity: 1;}</style>
  </defs>
  <title>IconLightReturnApplicationInsights</title>
  <g id="canvas" class="canvas">
    <path class="canvas" d="M16,16H0V0H16Z" />
  </g>
  <g id="level-1">
    <path class="light-purple-10" d="M13.5,6.5a4.986,4.986,0,0,1-2.1,4.068,2.054,2.054,0,0,0-.9,1.664V15.5h-4V12.164a1.94,1.94,0,0,0-.871-1.576A5,5,0,0,1,3.668,7.781l1.1-1.1L4.093,6H4.5A3.5,3.5,0,0,0,8,2.5a3.45,3.45,0,0,0-.148-.952A5,5,0,0,1,13.5,6.5Z" />
    <path class="light-blue" d="M7,2.5A2.5,2.5,0,0,1,4.5,5H1.678L3.356,6.678l-.707.707-2.5-2.5V4.178l2.5-2.5.707.707L1.742,4H4.5a1.5,1.5,0,0,0,0-3H4V0h.5A2.5,2.5,0,0,1,7,2.5Z" />
    <path class="light-purple" d="M8,6.25V4.75a.5.5,0,0,1,1,0v1.5a.5.5,0,0,1-1,0ZM6.555,7.263a.5.5,0,0,0,.708-.707L6.23,5.524a3.464,3.464,0,0,1-.875.358.494.494,0,0,0,.14.32ZM14,6.5a5.506,5.506,0,0,1-2.311,4.475A1.549,1.549,0,0,0,11,12.231V15.5l-.5.5h-4L6,15.5V12.164A1.441,1.441,0,0,0,5.342,11,5.458,5.458,0,0,1,3.273,8.175l.821-.82a4.46,4.46,0,0,0,1.822,2.824A2.446,2.446,0,0,1,6.994,12H8V8.5a.5.5,0,0,1,1,0V12h1.011a2.556,2.556,0,0,1,1.1-1.84A4.495,4.495,0,0,0,7.953,2.036a3.452,3.452,0,0,0-.268-.969A5.489,5.489,0,0,1,14,6.5ZM10,13H7v2h3Zm.444-5.737L11.505,6.2A.5.5,0,1,0,10.8,5.5L9.737,6.556a.5.5,0,0,0,.707.707Z" />
  </g>
</svg>
