<svg xmlns="http://www.w3.org/2000/svg" xmlns:xlink="http://www.w3.org/1999/xlink" viewBox="0 0 16 16"><defs><style>.canvas{fill:none;opacity:0;}.cls-103{fill:url(#linear-gradient);}.light-defaultgrey{fill:#212121;}.light-blue{fill:#005dba;}</style><linearGradient id="linear-gradient" x1="1.5" y1="8" x2="14.5" y2="8" gradientUnits="userSpaceOnUse"><stop offset="0" stop-color="#fff"/><stop offset="1"/></linearGradient></defs><g id="canvas"><path class="canvas" d="M16,0V16H0V0Z"/></g><g id="level-1"><path class="cls-103" d="M14.5,4.5V10H13.12l.65-.65L11.65,7.23l-3.5,3.5v.77H1.5V6H2.88l-.65.65L4.35,8.77l3.5-3.5V4.5Z"/><path class="light-defaultgrey" d="M14.5,4H7.85V5H14v5h1V4.5ZM2,6H1v5.5l.5.5H8.15V11H2Z"/><path class="light-blue" d="M3.647,6.646,5.293,5H1V4H5.293L3.647,2.354l.707-.708,2.5,2.5v.708l-2.5,2.5Z"/><path class="light-blue" d="M11.646,14.354l-2.5-2.5v-.708l2.5-2.5.707.708L10.707,11H15v1H10.707l1.646,1.646Z"/></g></svg>