<svg xmlns="http://www.w3.org/2000/svg" viewBox="0 0 16 16">
  <defs>
    <style>.canvas{fill: none; opacity: 0;}.light-defaultgrey-10{fill: #212121; opacity: 0.1;}.light-defaultgrey{fill: #212121; opacity: 1;}</style>
  </defs>
  <title>IconLightRibbonMenu</title>
  <g id="canvas">
    <path class="canvas" d="M16,16H0V0H16Z" />
  </g>
  <g id="level-1">
    <path class="light-defaultgrey-10" d="M15.5,13H.5L0,12.5v-8L.5,4H3V2.5L3.5,2h5l.5.5V4h6.5l.5.5v8Z" />
    <path class="light-defaultgrey" d="M15.5,13H.5L0,12.5v-8L.5,4H3V2.5L3.5,2h5l.5.5V4h6.5l.5.5v8ZM1,12H15V5H8.5L8,4.5V3H4V4.5L3.5,5H1Z" />
    <path class="light-defaultgrey" d="M5,9H3V7H5ZM9,7H7V9H9Zm4,0H11V9h2Z" />
  </g>
</svg>
