<svg xmlns="http://www.w3.org/2000/svg" viewBox="0 0 16 16">
  <defs>
    <style>.canvas{fill: none; opacity: 0;}.light-defaultgrey-10{fill: #212121; opacity: 0.1;}.light-defaultgrey{fill: #212121; opacity: 1;}</style>
  </defs>
  <title>RoundedRectangle</title>
  <g id="canvas">
    <path class="canvas" d="M16,16H0V0H16Z" />
  </g>
  <g id="level-1">
    <path class="light-defaultgrey-10" d="M12.5,12.5h-9a2,2,0,0,1-2-2v-5a2,2,0,0,1,2-2h9a2,2,0,0,1,2,2v5A2,2,0,0,1,12.5,12.5Z" />
    <path class="light-defaultgrey" d="M12.5,13h-9A2.5,2.5,0,0,1,1,10.5v-5A2.5,2.5,0,0,1,3.5,3h9A2.5,2.5,0,0,1,15,5.5v5A2.5,2.5,0,0,1,12.5,13Zm-9-9A1.5,1.5,0,0,0,2,5.5v5A1.5,1.5,0,0,0,3.5,12h9A1.5,1.5,0,0,0,14,10.5v-5A1.5,1.5,0,0,0,12.5,4Z" />
  </g>
</svg>
