<svg xmlns="http://www.w3.org/2000/svg" viewBox="0 0 16 16">
  <defs>
    <style>.canvas{fill: none; opacity: 0;}.light-red{fill: #c50b17; opacity: 1;}.light-blue{fill: #005dba; opacity: 1;}.light-defaultgrey{fill: #212121; opacity: 1;}.white{fill: #ffffff; opacity: 1;}</style>
  </defs>
  <title>IconLightRouteServiceError</title>
  <g id="canvas">
    <path class="canvas" d="M16,16H0V0H16Z" />
  </g>
  <g id="level-1">
    <path class="light-red" d="M12,8a4,4,0,1,0,4,4A4,4,0,0,0,12,8Z" />
    <path class="light-blue" d="M3,1V3H6.293L5.146,1.854l.708-.708,2,2v.708l-2,2-.708-.708L6.293,4H2.5L2,3.5V1Z" />
    <path class="light-defaultgrey" d="M9.027,8H8V7H9.051a2.473,2.473,0,0,1,.365-.876l-.745-.745.707-.707.745.745A2.469,2.469,0,0,1,11,5.051V4h1V5.051a2.469,2.469,0,0,1,.877.366l.745-.745.707.707-.745.745A2.473,2.473,0,0,1,13.949,7H15V8h-.027a4.959,4.959,0,0,0-2.036-.906,1.493,1.493,0,0,0-2.929.324A4.966,4.966,0,0,0,9.027,8Z" />
    <path class="white" d="M12.707,12l1.147,1.146-.708.708L12,12.707l-1.146,1.147-.708-.708L11.293,12l-1.147-1.146.708-.708L12,11.293l1.146-1.147.708.708Z" />
    <path class="light-defaultgrey" d="M7,8H2V7H7Zm0,5H2v1H7ZM6,10H2v1H6Z" />
  </g>
</svg>
