<svg xmlns="http://www.w3.org/2000/svg" viewBox="0 0 16 16"><defs><style>.canvas{fill:none;opacity:0;}.cls-1{fill:#f78422;}</style></defs><g id="canvas"><path class="canvas" d="M16,16H0V0H16Z"/></g><g id="level-1"><path class="cls-1" d="M1,1V15H15V1ZM4.374,13.053A1.416,1.416,0,1,1,5.79,11.637,1.416,1.416,0,0,1,4.374,13.053ZM7.7,13A4.734,4.734,0,0,0,2.97,8.269V6.292A6.713,6.713,0,0,1,9.676,13Zm3.366,0A8.068,8.068,0,0,0,2.991,4.924V2.947A9.985,9.985,0,0,1,10.1,5.889,9.986,9.986,0,0,1,13.042,13Z"/></g></svg>