<svg xmlns="http://www.w3.org/2000/svg" viewBox="0 0 16 16">
  <defs>
    <style>.canvas{fill: none; opacity: 0;}.light-yellow-10{fill: #996f00; opacity: 0.1;}.light-yellow{fill: #996f00; opacity: 1;}.light-green{fill: #1f801f; opacity: 1;}</style>
  </defs>
  <title>RunLiveUnitTest</title>
  <g id="canvas">
    <path class="canvas" d="M16,16H0V0H16Z" />
  </g>
  <g id="level-1">
    <path class="light-yellow-10" d="M10.29,7.5l4.39-5H9.29L8.58,3.75l.43.24L9,4.01l-.85.49-2.86,5h3.5l-3.5,6h1.5l8-8Z" />
    <path class="light-yellow" d="M14.79,7h-3.4l3.66-4.17L14.68,2H9.29l-.43.25L8.15,3.5l.43.25.43.24L9.58,3h3.99L9.91,7.17l.38.83h3.29l-7,7H6.16L9.22,9.75,8.79,9H6.15L9,4.01l-.85.49-.85.48L4.86,9.25l.43.75H7.92L4.86,15.25l.43.75h1.5l.35-.15,8-8Z" />
    <path class="light-green" d="M0,0,7,4,0,8Z" />
  </g>
</svg>
