<svg xmlns="http://www.w3.org/2000/svg" viewBox="0 0 16 16">
  <defs>
    <style>.canvas{fill: none; opacity: 0;}.light-defaultgrey{fill: #212121; opacity: 1;}.light-defaultgrey-10{fill: #212121; opacity: 0.1;}.light-green{fill: #1f801f; opacity: 1;}.cls-1{opacity:0.75;}</style>
  </defs>
  <title>IconLightRunMemorySampling</title>
  <g id="canvas" class="canvas">
    <path class="canvas" d="M16,16H0V0H16Z" />
  </g>
  <g id="level-1">
    <g class="cls-1">
      <path class="light-defaultgrey" d="M3.766,7H4V8H2.016ZM9,13h1v2H9ZM7,13H8v2H7ZM5,13H6v2H5ZM7,2.848V2H8V3.42ZM2,11H4v1H2ZM2,9H4v1H2Zm9,4h1v2H11Zm2-6h2V8H13Zm2-2V6H13V5ZM13,9h2v1H13ZM11,2h1V4H11Zm2,9h2v1H13ZM9,2h1V4H9.016L9,3.991Z" />
    </g>
    <path class="light-defaultgrey-10" d="M12.5,4.5v8h-8V6.581L8.141,4.5Z" />
    <path class="light-defaultgrey" d="M13,4.5v8l-.5.5h-8L4,12.5V6.866L5,6.3V12h7V5H7.266l1.75-1H12.5Z" />
    <path class="light-defaultgrey" d="M11,10H6V9h5Zm0-2H6V7h5Z" />
    <path class="light-green" d="M7,4,0,8V0Z" />
  </g>
</svg>
