<svg xmlns="http://www.w3.org/2000/svg" viewBox="0 0 16 16">
  <defs>
    <style>.canvas{fill: none; opacity: 0;}.light-defaultgrey-10{fill: #212121; opacity: 0.1;}.light-defaultgrey{fill: #212121; opacity: 1;}.light-yellow-10{fill: #996f00; opacity: 0.1;}.light-yellow{fill: #996f00; opacity: 1;}.light-green{fill: #1f801f; opacity: 1;}.cls-1{opacity:0.75;}</style>
  </defs>
  <title>IconLightRunQuery</title>
  <g id="canvas" class="canvas">
    <path class="canvas" d="M16,16H0V0H16Z" />
  </g>
  <g id="level-1">
    <g class="cls-1">
      <path class="light-defaultgrey-10" d="M15.5,2.5v8H14v-5L13.5,5H7.266l1.75-1L6.391,2.5Z" />
      <path class="light-defaultgrey-10" d="M13.5,7v6.5h-9V7Z" />
      <path class="light-defaultgrey" d="M15.5,2h-9l-.358.358L9.016,4H15v6H14V5.5L13.5,5H7.266L4,6.866V13.5l.5.5h9l.5-.5V11h2V2.5ZM13,13H5V7h8Z" />
    </g>
    <path class="light-yellow-10" d="M13.5,7v4h-7V7Z" />
    <path class="light-yellow" d="M14,11V7l-.5-.5h-7L6,7v4l.5.5h7ZM7,7.5h6v3H7Zm5,1v1H8v-1Z" />
    <path class="light-green" d="M7,4,0,8V0Z" />
  </g>
</svg>
