<svg xmlns="http://www.w3.org/2000/svg" viewBox="0 0 16 16">
  <defs>
    <style>.canvas{fill: none; opacity: 0;}.light-defaultgrey{fill: #212121; opacity: 1;}.light-defaultgrey-10{fill: #212121; opacity: 0.1;}.light-blue{fill: #005dba; opacity: 1;}</style>
  </defs>
  <title>SAPSource</title>
  <g id="canvas">
    <path class="canvas" d="M16,16H0V0H16Z" />
  </g>
  <g id="level-1">
    <path class="light-defaultgrey" d="M3,14.18a1.15,1.15,0,0,1,.1.488,1.212,1.212,0,0,1-.149.621,1.2,1.2,0,0,1-.4.41,1.778,1.778,0,0,1-.579.23A3.221,3.221,0,0,1,1.282,16c-.081,0-.18-.006-.3-.018s-.238-.031-.362-.054a3.606,3.606,0,0,1-.351-.086A1.126,1.126,0,0,1,0,15.726V14.9a1.288,1.288,0,0,0,.265.182,2.055,2.055,0,0,0,.326.137,2.507,2.507,0,0,0,.344.086,1.855,1.855,0,0,0,.317.03,1.358,1.358,0,0,0,.754-.168.555.555,0,0,0,.248-.49.533.533,0,0,0-.082-.3.912.912,0,0,0-.232-.232,2.423,2.423,0,0,0-.349-.2q-.2-.1-.43-.2-.246-.13-.459-.266a2.022,2.022,0,0,1-.37-.3,1.236,1.236,0,0,1-.245-.37A1.2,1.2,0,0,1,0,12.329a1.118,1.118,0,0,1,.153-.592,1.315,1.315,0,0,1,.405-.415,1.874,1.874,0,0,1,.572-.243A2.712,2.712,0,0,1,1.785,11a2.613,2.613,0,0,1,1.106.173v.792a1.765,1.765,0,0,0-1.059-.3,1.942,1.942,0,0,0-.356.034,1.034,1.034,0,0,0-.317.111.7.7,0,0,0-.228.2.49.49,0,0,0-.088.294.556.556,0,0,0,.068.28.726.726,0,0,0,.2.216,1.894,1.894,0,0,0,.317.19c.124.062.269.129.433.2q.253.132.478.277a2.17,2.17,0,0,1,.394.321A1.373,1.373,0,0,1,3,14.18ZM6.465,11l1.822,4.9H7.4l-.441-1.248H5.026L4.6,15.9H3.713L5.549,11Zm.273,2.991-.68-1.955a2.467,2.467,0,0,1-.065-.308H5.979a1.98,1.98,0,0,1-.068.308l-.673,1.955Zm5.523-1.49a1.527,1.527,0,0,1-.486,1.168,1.837,1.837,0,0,1-1.312.455H9.81V15.9H9V11h1.487a1.964,1.964,0,0,1,1.309.394A1.367,1.367,0,0,1,12.261,12.5Zm-.855.033q0-.864-1.005-.864H9.81v1.791h.526a1.164,1.164,0,0,0,.8-.243A.865.865,0,0,0,11.406,12.534Z" />
    <path class="light-defaultgrey-10" d="M7,1.5V4H4.5V9.5h10v-8Z" />
    <path class="light-defaultgrey" d="M14.5,1H7V4H4.42L4,4.42V9.5l.5.5h10l.5-.5v-8ZM10,9V6h4V9Zm4-4H10V2h4ZM5,6H9V9H5Z" />
    <path class="light-blue" d="M6,2V3H1.707L2.854,4.146l-.708.708-2-2V2.146l2-2,.708.708L1.707,2Z" />
  </g>
</svg>
