<svg xmlns="http://www.w3.org/2000/svg" viewBox="0 0 16 16">
  <defs>
    <style>.canvas{fill: none; opacity: 0;}.light-defaultgrey{fill: #212121; opacity: 1;}.light-defaultgrey-10{fill: #212121; opacity: 0.1;}.cls-1{opacity:0.75;}</style>
  </defs>
  <title>IconLightSASSStyleSheet</title>
  <g id="canvas" class="canvas">
    <path class="canvas" d="M16,16H0V0H16Z" />
  </g>
  <g id="level-1">
    <path class="light-defaultgrey" d="M14.73,14.8a.983.983,0,0,1-.14.531,1.178,1.178,0,0,1-.375.375,1.752,1.752,0,0,1-.541.221,2.82,2.82,0,0,1-.647.072,2.718,2.718,0,0,1-1.136-.219v-.84a1.805,1.805,0,0,0,1.121.387q.82,0,.82-.484a.383.383,0,0,0-.07-.233.7.7,0,0,0-.19-.17,1.5,1.5,0,0,0-.281-.132c-.108-.039-.229-.083-.361-.133a4.024,4.024,0,0,1-.444-.207,1.338,1.338,0,0,1-.328-.248.945.945,0,0,1-.2-.315A1.164,1.164,0,0,1,11.9,13a.953.953,0,0,1,.136-.51,1.2,1.2,0,0,1,.367-.371,1.757,1.757,0,0,1,.524-.226,2.383,2.383,0,0,1,.6-.077,2.757,2.757,0,0,1,.993.168v.793a1.682,1.682,0,0,0-.969-.289,1.247,1.247,0,0,0-.311.036.772.772,0,0,0-.236.1.467.467,0,0,0-.152.151.353.353,0,0,0-.055.193.409.409,0,0,0,.055.219.5.5,0,0,0,.162.158,1.369,1.369,0,0,0,.257.125c.1.038.216.079.346.123a4.968,4.968,0,0,1,.463.215,1.56,1.56,0,0,1,.35.248.965.965,0,0,1,.222.32A1.09,1.09,0,0,1,14.73,14.8Zm-3.75-.752a1.531,1.531,0,0,0-.349-.248,4.968,4.968,0,0,0-.463-.215c-.13-.044-.245-.085-.346-.123a1.411,1.411,0,0,1-.258-.125A.511.511,0,0,1,9.4,13.18a.418.418,0,0,1-.054-.219.36.36,0,0,1,.054-.193.47.47,0,0,1,.153-.151.772.772,0,0,1,.236-.1,1.241,1.241,0,0,1,.311-.036,1.676,1.676,0,0,1,.968.289V11.98a2.751,2.751,0,0,0-.992-.168,2.383,2.383,0,0,0-.6.077,1.746,1.746,0,0,0-.524.226,1.2,1.2,0,0,0-.367.371.954.954,0,0,0-.137.51,1.163,1.163,0,0,0,.067.41.945.945,0,0,0,.2.315,1.338,1.338,0,0,0,.328.248,4,4,0,0,0,.443.207c.133.05.253.094.362.133a1.5,1.5,0,0,1,.281.132.683.683,0,0,1,.189.17.384.384,0,0,1,.071.233q0,.485-.821.484a1.807,1.807,0,0,1-1.121-.387v.84A2.726,2.726,0,0,0,9.578,16a2.82,2.82,0,0,0,.647-.072,1.762,1.762,0,0,0,.541-.221,1.178,1.178,0,0,0,.375-.375.992.992,0,0,0,.14-.531,1.09,1.09,0,0,0-.078-.432A.968.968,0,0,0,10.98,14.049Zm-7.818-.608a2.7,2.7,0,0,0-.457-.371c-.173-.112-.357-.218-.553-.32-.19-.083-.357-.161-.5-.232a2.467,2.467,0,0,1-.367-.221.819.819,0,0,1-.228-.25.642.642,0,0,1-.078-.324.57.57,0,0,1,.1-.34.79.79,0,0,1,.264-.231,1.273,1.273,0,0,1,.367-.129,2.2,2.2,0,0,1,.412-.039,2.05,2.05,0,0,1,1.227.344V10.41a3.062,3.062,0,0,0-1.282-.2,3.1,3.1,0,0,0-.757.092,2.171,2.171,0,0,0-.663.281,1.489,1.489,0,0,0-.468.48A1.3,1.3,0,0,0,0,11.75a1.38,1.38,0,0,0,.1.559,1.438,1.438,0,0,0,.285.427,2.286,2.286,0,0,0,.427.346c.164.1.341.207.532.309q.264.121.5.232a2.729,2.729,0,0,1,.4.232,1.032,1.032,0,0,1,.268.268.625.625,0,0,1,.1.346.641.641,0,0,1-.287.566,1.567,1.567,0,0,1-.873.2,2.068,2.068,0,0,1-.367-.035,2.857,2.857,0,0,1-.4-.1,2.392,2.392,0,0,1-.377-.158A1.493,1.493,0,0,1,0,14.727v.957a1.308,1.308,0,0,0,.308.132,3.785,3.785,0,0,0,.407.1q.215.04.42.063c.136.014.252.021.345.021a3.757,3.757,0,0,0,.8-.082,2.075,2.075,0,0,0,.67-.266,1.378,1.378,0,0,0,.463-.476,1.407,1.407,0,0,0,.172-.719,1.319,1.319,0,0,0-.115-.564A1.666,1.666,0,0,0,3.162,13.441Zm4.424-.136v2.6H6.707v-.625H6.691A1.321,1.321,0,0,1,5.477,16a1.276,1.276,0,0,1-.924-.32,1.12,1.12,0,0,1-.334-.848q0-1.133,1.3-1.32l1.188-.168q0-.856-.813-.856a1.932,1.932,0,0,0-1.289.492v-.792a2.815,2.815,0,0,1,1.461-.376A1.33,1.33,0,0,1,7.586,13.305Zm-.875.636-.84.118a1.326,1.326,0,0,0-.588.189.553.553,0,0,0-.2.486.53.53,0,0,0,.182.416.7.7,0,0,0,.486.162.891.891,0,0,0,.685-.291,1.032,1.032,0,0,0,.272-.732Z" />
    <g class="cls-1">
      <path class="light-defaultgrey-10" d="M13.5,4.5V11H4V9H2.5V1.5h8Z" />
      <path class="light-defaultgrey" d="M14,4.5V11H13V5H10V2H3V9H2V1.5L2.5,1h8l.354.146,3,3Z" />
    </g>
  </g>
</svg>
