<svg xmlns="http://www.w3.org/2000/svg" viewBox="0 0 16 16">
  <defs>
    <style>.canvas{fill: none; opacity: 0;}.light-defaultgrey-10{fill: #212121; opacity: 0.1;}.light-defaultgrey{fill: #212121; opacity: 1;}.light-blue-10{fill: #005dba; opacity: 0.1;}.light-blue{fill: #005dba; opacity: 1;}</style>
  </defs>
  <title>IconLightSaveTable</title>
  <g id="canvas" class="canvas">
    <path class="canvas" d="M16,16H0V0H16Z" />
  </g>
  <g id="level-1">
    <path class="light-defaultgrey-10" d="M14.5,2.5v11H2.5V9H7.914L9,7.914V2.5Z" />
    <path class="light-defaultgrey" d="M14.5,2H8.875L9,2.3V3h5V4H9V5h1V7H9v.914L8.914,8H10v2H7V9H6v1H3V9H2v4.5l.5.5h12l.5-.5V2.5ZM6,13H3V11H6Zm4,0H7V11h3Zm4,0H11V11h3Zm0-3H11V8h3Zm0-3H11V5h3Z" />
    <path class="light-blue-10" d="M.5.5h5l2,2v5H.5Z" />
    <path class="light-blue" d="M7.854,2.146l-2-2L5.5,0H.5L0,.5v7L.5,8h7L8,7.5v-5ZM4,1V3H3V1ZM7,7H1V1H2V3.5l.5.5h2L5,3.5V1h.293L7,2.707Z" />
  </g>
</svg>
