<svg xmlns="http://www.w3.org/2000/svg" viewBox="0 0 16 16">
  <defs>
    <style>.canvas{fill: none; opacity: 0;}.light-defaultgrey-10{fill: #212121; opacity: 0.1;}.light-defaultgrey{fill: #212121; opacity: 1;}.light-yellow{fill: #996f00; opacity: 1;}.white{fill: #ffffff; opacity: 1;}.cls-1{opacity:0.75;}</style>
  </defs>
  <title>IconLightScalarFunctionWarning</title>
  <g id="canvas">
    <path class="canvas" d="M16,16H0V0H16Z" />
    <path class="canvas" d="M16,16H0V0H16Z" />
  </g>
  <g id="level-1">
    <g class="cls-1">
      <path class="light-defaultgrey-10" d="M14.5.5v8H13.357L12.53,7H10.47L9.643,8.5H6.513a1.362,1.362,0,0,0-.262-.859A1.534,1.534,0,0,0,5.5,7.132V.5Z" />
      <path class="light-defaultgrey" d="M15,.5v8l-.5.5h-.868l-.551-1H14V1H6V7.415a1.592,1.592,0,0,0-.751-.376c-.084-.015-.166-.016-.249-.023V.5L5.5,0h9Zm-8.486,8a1.447,1.447,0,0,1-.1.5h2.95l.551-1H6.431A1.386,1.386,0,0,1,6.514,8.5Z" />
    </g>
    <path class="light-defaultgrey" d="M8.594,7.037a1.345,1.345,0,0,1-1.173-.614A3.129,3.129,0,0,1,7,4.648a3.466,3.466,0,0,1,.44-1.929,1.432,1.432,0,0,1,1.268-.655q1.587,0,1.587,2.467A3.254,3.254,0,0,1,9.848,6.4,1.445,1.445,0,0,1,8.594,7.037Zm.077-4.353q-.876,0-.876,1.93,0,1.8.859,1.806T9.5,4.584Q9.5,2.685,8.671,2.684Zm3.946-.647V6.956h-.778V2.99a2.439,2.439,0,0,1-.455.257,3.83,3.83,0,0,1-.555.186V2.769c.13-.043.255-.088.376-.135s.24-.1.358-.157.236-.124.356-.195.242-.153.371-.245Z" />
    <path class="light-defaultgrey" d="M6,12.741a8.6,8.6,0,0,1-.889,1.21.912.912,0,0,1-.687.339.448.448,0,0,1-.308-.107.443.443,0,0,1-.081-.5.451.451,0,0,1,.295-.233c.357-.081.391.017.714.1a5.17,5.17,0,0,0,.866-1.138c-.031-.156-.046-.2-.138-.581-.051-.207-.122-.422-.206-.665a1.267,1.267,0,0,0-.116-.254.679.679,0,0,0-.121-.164c-.072-.063-.164-.115-.632-.1-.36.01-1.256.017-1.256.017l-.709,3.317c-.235,1.075-1.209,2.2-2.282,2a.577.577,0,0,1-.379-.219.465.465,0,0,1,.04-.536.416.416,0,0,1,.5-.08.8.8,0,0,1,.29.295c.09.144.1.159.143.232a.461.461,0,0,0,.259-.1,1.81,1.81,0,0,0,.5-.857c.136-.471.049-.105.9-4.053H1.906L2,10.3h.772A3.486,3.486,0,0,1,3.062,9.3,1.986,1.986,0,0,1,5.067,8.022a.6.6,0,0,1,.384.219.356.356,0,0,1,.062.232.49.49,0,0,1-.1.313.461.461,0,0,1-.54.076c-.179-.1-.242-.277-.4-.532-.362.02-.58.477-.7.822a7.135,7.135,0,0,0-.21.839c-.029.131-.049.234-.058.308,1.082-.019,1.318-.053,1.942-.089a.758.758,0,0,1,.326.062.75.75,0,0,1,.371.433,7.515,7.515,0,0,1,.285,1.067v.014l0,.013c.394-.622.837-1.589,1.585-1.607a.4.4,0,0,1,.4.515l-.116.211a.584.584,0,0,1-.4.14,1.627,1.627,0,0,1-.513-.112,5.056,5.056,0,0,0-.88,1.166c.112.457.119.554.273,1.067a1.225,1.225,0,0,0,.123.268l-.384.7a.694.694,0,0,1-.222-.31A9.08,9.08,0,0,1,6,12.741Z" />
    <path class="light-yellow" d="M15.5,16h-8l-.439-.739,4-7.261h.878l4,7.261Z" />
    <path class="white" d="M12,13H11V10h1Zm.25,1.5a.75.75,0,1,1-.75-.75A.75.75,0,0,1,12.25,14.5Z" />
  </g>
</svg>
