<svg xmlns="http://www.w3.org/2000/svg" viewBox="0 0 16 16">
  <defs>
    <style>.canvas{fill: none; opacity: 0;}.light-defaultgrey-10{fill: #212121; opacity: 0.1;}.light-defaultgrey{fill: #212121; opacity: 1;}.light-lightblue-10{fill: #0077a0; opacity: 0.1;}.light-lightblue{fill: #0077a0; opacity: 1;}</style>
  </defs>
  <title>ScatterView</title>
  <g id="canvas">
    <path class="canvas" d="M16,0V16H0V0Z" />
  </g>
  <g id="level-1">
    <path class="light-defaultgrey-10" d="M11.5,1.5v1h-2v-1h-8v13h13V1.5Zm-8,3h2v2h-2Zm2.53,8-1-3,3-1,1,3ZM11.5,8.41,10.09,7,11.5,5.59,12.91,7Z" />
    <path class="light-defaultgrey" d="M14.5,1h-3V2H14V14H2V2H9.5V1h-8L1,1.5v13l.5.5h13l.5-.5V1.5Z" />
    <path class="light-lightblue-10" d="M11.5,2.5h-2V.5h2Zm0,3.086L10.086,7,11.5,8.414,12.914,7ZM5.5,4.5h-2v2h2Zm-.474,5,1,3,3-1-1-3Z" />
    <path class="light-lightblue" d="M12,2.5V.5L11.5,0h-2L9,.5v2l.5.5h2ZM11,2H10V1h1Zm.854,3.232h-.708L9.732,6.646v.708l1.414,1.414h.708l1.414-1.414V6.646ZM11.5,7.707,10.793,7l.707-.707L12.207,7ZM6,6.5v-2L5.5,4h-2L3,4.5v2l.5.5h2ZM5,6H4V5H5ZM7.868,8.026l-3,1-.316.632,1,3,.632.316,3-1,.316-.632-1-3ZM6.342,11.868,5.658,9.816l2.051-.684.685,2.052Z" />
  </g>
</svg>
