<svg xmlns="http://www.w3.org/2000/svg" viewBox="0 0 16 16">
  <defs>
    <style>.canvas{fill: none; opacity: 0;}.light-defaultgrey{fill: #212121; opacity: 1;}.light-lightblue-10{fill: #0077a0; opacity: 0.1;}.light-lightblue{fill: #0077a0; opacity: 1;}.cls-1{opacity:0.75;}</style>
  </defs>
  <title>IconLightScatterChart</title>
  <g id="canvas">
    <path class="canvas" d="M16,16H0V0H16Z" />
  </g>
  <g id="level-1">
    <g class="cls-1">
      <path class="light-defaultgrey" d="M15,14v1H1.5L1,14.5V1H2V14Z" />
    </g>
    <path class="light-lightblue-10" d="M6.5,5.5h2v2h-2Zm5-3v2h2v-2Zm-1,9h2v-2h-2Zm-7,1h2v-2h-2Z" />
    <path class="light-lightblue" d="M6.5,5,6,5.5v2l.5.5h2L9,7.5v-2L8.5,5ZM8,7H7V6H8Zm5.5-5h-2l-.5.5v2l.5.5h2l.5-.5v-2ZM13,4H12V3h1ZM10.5,9l-.5.5v2l.5.5h2l.5-.5v-2L12.5,9ZM12,11H11V10h1ZM3.5,10l-.5.5v2l.5.5h2l.5-.5v-2L5.5,10ZM5,12H4V11H5Z" />
  </g>
</svg>
