<svg xmlns="http://www.w3.org/2000/svg" viewBox="0 0 16 16">
  <defs>
    <style>.canvas{fill: none; opacity: 0;}.light-defaultgrey-10{fill: #212121; opacity: 0.1;}.light-defaultgrey{fill: #212121; opacity: 1;}.light-lightblue-10{fill: #0077a0; opacity: 0.1;}.light-lightblue{fill: #0077a0; opacity: 1;}.light-yellow{fill: #996f00; opacity: 1;}.white{fill: #ffffff; opacity: 1;}</style>
  </defs>
  <title>IconLightSchemaWarning</title>
  <g id="canvas" class="canvas">
    <path class="canvas" d="M16,16H0V0H16Z" />
  </g>
  <g id="level-1">
    <path class="light-defaultgrey-10" d="M2.5,15.5H.5v-2h2Zm2-5h-2v-2h2Zm1.408,4.779L6.5,14.205v-.7h-2v2H6.039Z" />
    <path class="light-defaultgrey" d="M6.928,13.428,6.5,13H6v-.5L5.5,12H4V11h.5l.5-.5v-2L4.5,8h-2L2,8.5v2l.5.5H3v1H1.5l-.5.5V13H.5l-.5.5v2l.5.5h2l.5-.5v-2L2.5,13h2l-.5.5v2l.5.5H6.336l-.428-.721ZM3,9H4v1H3ZM2,15H1V14H2Zm3-1H6v1H5Z" />
    <path class="light-lightblue-10" d="M13.5,3V8.76L12.53,7H10.47L7.549,12.3q-.23-.048-.441-.108L7,12.086,6.914,12l-1-1L6,10.914V8.086l-.5-.5V3c0-.828,1.791-1.5,4-1.5S13.5,2.172,13.5,3Z" />
    <path class="light-lightblue" d="M9.5,1C7.25,1,5,1.656,5,2.969V7.086l.414.414H5.5v.086l.5.5V4.3A7.913,7.913,0,0,0,9.5,5,7.913,7.913,0,0,0,13,4.3V7.853l1,1.815v-6.7C14,1.656,11.75,1,9.5,1ZM13,3c0,.29-1.227,1-3.5,1S6,3.29,6,3V2.969c0-.29,1.227-1,3.5-1s3.5.71,3.5,1Z" />
    <path class="light-yellow" d="M15.5,16h-8l-.439-.739,4-7.261h.878l4,7.261Z" />
    <path class="white" d="M12,13H11V10h1Zm.25,1.5a.75.75,0,1,1-.75-.75A.75.75,0,0,1,12.25,14.5Z" />
  </g>
</svg>
