<svg xmlns="http://www.w3.org/2000/svg" viewBox="0 0 16 16">
  <defs>
    <style>.canvas{fill: none; opacity: 0;}.light-defaultgrey-10{fill: #212121; opacity: 0.1;}.light-defaultgrey{fill: #212121; opacity: 1;}.light-lightblue-10{fill: #0077a0; opacity: 0.1;}.light-lightblue{fill: #0077a0; opacity: 1;}.light-red{fill: #c50b17; opacity: 1;}.white{fill: #ffffff; opacity: 1;}</style>
  </defs>
  <title>IconLightSchemaError</title>
  <g id="canvas" class="canvas">
    <path class="canvas" d="M16,16H0V0H16Z" />
  </g>
  <g id="level-1">
    <path class="light-defaultgrey-10" d="M2.5,15.5H.5v-2h2Zm2-5h-2v-2h2Zm2,5h-2v-2h2Z" />
    <path class="light-defaultgrey" d="M6,12.5V13H1v-.5l.5-.5H3V11H4v1H5.5ZM2.5,16H.5L0,15.5v-2L.5,13h2l.5.5v2ZM1,15H2V14H1Zm3.5-4h-2L2,10.5v-2L2.5,8h2l.5.5v2ZM3,10H4V9H3Zm3.5,6h-2L4,15.5v-2l.5-.5h2l.5.5v2ZM5,15H6V14H5Z" />
    <path class="light-lightblue-10" d="M13.5,3V7.254A4.936,4.936,0,0,0,7,12a.613.613,0,0,0,.01.1L5.914,11,6,10.914V8.086l-.5-.5V3c0-.828,1.791-1.5,4-1.5S13.5,2.172,13.5,3Z" />
    <path class="light-lightblue" d="M9.5,1C7.25,1,5,1.656,5,2.969V7.086l1,1V4.3A7.913,7.913,0,0,0,9.5,5,7.913,7.913,0,0,0,13,4.3V7.1a4.968,4.968,0,0,1,1,.321V2.969C14,1.656,11.75,1,9.5,1ZM13,3c0,.29-1.227,1-3.5,1S6,3.29,6,3V2.969c0-.29,1.227-1,3.5-1s3.5.71,3.5,1Z" />
    <path class="light-red" d="M12,8a4,4,0,1,0,4,4A4,4,0,0,0,12,8Z" />
    <path class="white" d="M12.707,12l1.147,1.146-.708.708L12,12.707l-1.146,1.147-.708-.708L11.293,12l-1.147-1.146.708-.708L12,11.293l1.146-1.147.708.708Z" />
  </g>
</svg>
