<svg xmlns="http://www.w3.org/2000/svg" viewBox="0 0 16 16">
  <defs>
    <style>.canvas{fill: none; opacity: 0;}.light-defaultgrey{fill: #212121; opacity: 1;}.light-defaultgrey-10{fill: #212121; opacity: 0.1;}.cls-1{opacity:0.75;}</style>
  </defs>
  <title>IconLightSchema</title>
  <g id="canvas" class="canvas">
    <path class="canvas" d="M16,16H0V0H16Z" />
  </g>
  <g id="level-1">
    <g class="cls-1">
      <path class="light-defaultgrey" d="M13,8.5V11H12V9H5v2H4V8.5L4.5,8H8V6H9V8h3.5Z" />
    </g>
    <path class="light-defaultgrey-10" d="M2.5,11.5h4v3h-4Zm12,0v3h-4v-3Zm-4-9v3h-4v-3Z" />
    <path class="light-defaultgrey" d="M6.5,11h-4l-.5.5v3l.5.5h4l.5-.5v-3ZM6,14H3V12H6Zm8.5-3h-4l-.5.5v3l.5.5h4l.5-.5v-3ZM14,14H11V12h3ZM10.5,2h-4L6,2.5v3l.5.5h4l.5-.5v-3ZM10,5H7V3h3Z" />
  </g>
</svg>
