<svg xmlns="http://www.w3.org/2000/svg" viewBox="0 0 16 16">
  <defs>
    <style>.canvas{fill: none; opacity: 0;}.light-defaultgrey{fill: #212121; opacity: 1;}.light-defaultgrey-10{fill: #212121; opacity: 0.1;}.cls-1{opacity:0.75;}</style>
  </defs>
  <title>SchemaProperty</title>
  <g id="canvas">
    <path class="canvas" d="M16,16H0V0H16Z" />
  </g>
  <g id="level-1">
    <g class="cls-1">
      <path class="light-defaultgrey" d="M12.5,7H9V5H8V7H5.64c.06.05.12.1.18.16A3.464,3.464,0,0,1,6.46,8H12v2h1V7.5Z" />
    </g>
    <path class="light-defaultgrey-10" d="M6.5,1.5v3h4v-3Zm4,9v3h4v-3Z" />
    <path class="light-defaultgrey" d="M10.5,1h-4L6,1.5v3l.5.5h4l.5-.5v-3ZM10,4H7V2h3Zm4.5,6h-4l-.5.5v3l.5.5h4l.5-.5v-3ZM14,13H11V11h3Z" />
    <path class="light-defaultgrey" d="M.042,10.5A2.994,2.994,0,0,1,.3,8.705L2.286,10.7,3.7,9.282l-2-1.991a2.983,2.983,0,0,1,3.988,3.983L9,14.586v.707L8.3,16H7.59L4.278,12.688A2.98,2.98,0,0,1,.042,10.5Z" />
  </g>
</svg>
