<svg xmlns="http://www.w3.org/2000/svg" viewBox="0 0 16 16">
  <defs>
    <style>.canvas{fill: none; opacity: 0;}.light-defaultgrey{fill: #212121; opacity: 1;}.light-defaultgrey-10{fill: #212121; opacity: 0.1;}.cls-1{opacity:0.75;}</style>
  </defs>
  <title>IconLightScissorTest</title>
  <g id="canvas" class="canvas">
    <path class="canvas" d="M16,16H0V0H16Z" />
  </g>
  <g id="level-1">
    <g class="cls-1">
      <path class="light-defaultgrey" d="M5.48,8.67,5.07,7.24,3.5,10.38,1.93,7.24,1.52,8.67,2.94,11.5,1.69,14H2.81l.69-1.38L4.19,14H5.31L4.06,11.5Z" />
    </g>
    <path class="light-defaultgrey-10" d="M2.5,14.5a1,1,0,1,1-1-1A1,1,0,0,1,2.5,14.5Zm3-1a1,1,0,1,0,1,1A1,1,0,0,0,5.5,13.5Z" />
    <path class="light-defaultgrey" d="M1.5,13A1.5,1.5,0,1,0,3,14.5,1.5,1.5,0,0,0,1.5,13Zm0,2a.5.5,0,1,1,.5-.5A.5.5,0,0,1,1.5,15Zm4-2A1.5,1.5,0,1,0,7,14.5,1.5,1.5,0,0,0,5.5,13Zm0,2a.5.5,0,1,1,.5-.5A.5.5,0,0,1,5.5,15Zm-2-2.5a1,1,0,1,1,1-1A1,1,0,0,1,3.5,12.5Z" />
    <path class="light-defaultgrey-10" d="M14.5,2.5v8H5.68l.25-.5.62-1.23L5.5,5H5V2.5Z" />
    <path class="light-defaultgrey" d="M11,13h1v1H11ZM10,8V9h1V8ZM3,2.5V3H4V2H3.5ZM3,7H4V6H3ZM3,5H4V4H3ZM3,8.349,3.325,9h.35L4,8.35V8H3ZM14.5,2H5V3h9v7H5.93l-.5,1H14.5l.5-.5v-8Z" />
  </g>
</svg>
