<svg xmlns="http://www.w3.org/2000/svg" viewBox="0 0 16 16">
  <defs>
    <style>.canvas{fill: none; opacity: 0;}.light-defaultgrey-10{fill: #212121; opacity: 0.1;}.light-defaultgrey{fill: #212121; opacity: 1;}</style>
  </defs>
  <title>Scope</title>
  <g id="canvas">
    <path class="canvas" d="M16,16H0V0H16Z" />
  </g>
  <g id="level-1">
    <path class="light-defaultgrey-10" d="M6.5,12.5a3,3,0,1,1-3-3A3,3,0,0,1,6.5,12.5Z" />
    <path class="light-defaultgrey-10" d="M10.5,1.5h-8V8.12A2.755,2.755,0,0,1,3,8.03,4.07,4.07,0,0,1,3.5,8,4.507,4.507,0,0,1,8,12.5a4.584,4.584,0,0,1-.47,2H13.5V4.5ZM3,14h.5a1.386,1.386,0,0,1-.5-.09Z" />
    <path class="light-defaultgrey" d="M13.85,4.15l-3-3L10.5,1h-8L2,1.5V8.26a2.851,2.851,0,0,1,.5-.14A2.755,2.755,0,0,1,3,8.03V2h7V5h3v9H7.74a4.4,4.4,0,0,1-.21.5,4.994,4.994,0,0,1-.29.5H13.5l.5-.5V4.5Z" />
    <path class="light-defaultgrey" d="M3.5,9A3.5,3.5,0,1,0,7,12.5,3.5,3.5,0,0,0,3.5,9Zm0,6A2.5,2.5,0,1,1,6,12.5,2.5,2.5,0,0,1,3.5,15ZM5,12.5A1.5,1.5,0,1,1,3.5,11,1.5,1.5,0,0,1,5,12.5Z" />
  </g>
</svg>
