<svg xmlns="http://www.w3.org/2000/svg" viewBox="0 0 16 16">
  <defs>
    <style>.canvas{fill: none; opacity: 0;}.light-defaultgrey-10{fill: #212121; opacity: 0.1;}.light-defaultgrey{fill: #212121; opacity: 1;}.light-teal{fill: #006758; opacity: 1;}.light-teal-10{fill: #006758; opacity: 0.1;}</style>
  </defs>
  <title>IconLightScreenshot</title>
  <g id="canvas" class="canvas">
    <path class="canvas" d="M16,0V16H0V0Z" />
  </g>
  <g id="level-1">
    <path class="light-defaultgrey-10" d="M3.5,1.5V6.38l.08-.08L4,6.13,4.3,6H7.7l.72.3.7.7h2.79l1,1,.09.09V8.5h2.5v-7Z" />
    <path class="light-defaultgrey" d="M15.5,1H3.5L3,1.5V6.88l.58-.58L4,6.13V2H15V8H12.91l.09.09V9h2.5l.5-.5v-7Z" />
    <path class="light-defaultgrey-10" d="M11.5,15.5H.5v-7H3.744l.756-1h3l1,1h3Z" />
    <path class="light-defaultgrey" d="M11.5,16H.5L0,15.5v-7L.5,8H3.293l.853-.854L4.5,7h3l.354.146L8.707,8H11.5l.5.5v7ZM1,15H11V9H8.5l-.354-.146L7.293,8H4.707l-.853.854L3.5,9H1Z" />
    <path class="light-teal" d="M3,11H2V10H3Z" />
    <path class="light-teal-10" d="M8,12a2,2,0,1,1-2-2A2,2,0,0,1,8,12Z" />
    <path class="light-teal" d="M6,14.5A2.5,2.5,0,1,1,8.5,12,2.5,2.5,0,0,1,6,14.5Zm0-4A1.5,1.5,0,1,0,7.5,12,1.5,1.5,0,0,0,6,10.5Z" />
  </g>
</svg>
