<svg xmlns="http://www.w3.org/2000/svg" viewBox="0 0 16 16">
  <defs>
    <style>.canvas{fill: none; opacity: 0;}.light-yellow{fill: #996f00; opacity: 1;}.white{fill: #ffffff; opacity: 1;}.light-defaultgrey-10{fill: #212121; opacity: 0.1;}.light-defaultgrey{fill: #212121; opacity: 1;}</style>
  </defs>
  <title>IconLightScriptWarning</title>
  <g id="canvas" class="canvas">
    <path class="canvas" d="M16,16H0V0H16Z" />
  </g>
  <g id="level-1">
    <path class="light-yellow" d="M15.5,16h-8l-.439-.739,4-7.261h.878l4,7.261Z" />
    <path class="white" d="M12,13H11V10h1Zm.25,1.5a.75.75,0,1,1-.75-.75A.75.75,0,0,1,12.25,14.5Z" />
    <path class="light-defaultgrey-10" d="M14,6H12V5a1,1,0,0,1,2,0ZM7.165,13H4a1,1,0,0,1-1-1H7.716ZM5,11V5A1,1,0,0,1,6,4h5.278A1.978,1.978,0,0,0,11,5V7h-.53l-2.2,4H5Z" />
    <path class="light-defaultgrey" d="M7.165,13H4a1,1,0,0,1-1-1H7.716l.551-1H5V5A1,1,0,0,1,6,4h5.278A1.978,1.978,0,0,0,11,5V7h3.5l.5-.5V5a2,2,0,0,0-2-2H6A2,2,0,0,0,4,5v6H2.5l-.5.5V12a2.023,2.023,0,0,0,1.993,2H6.614ZM12,5a1,1,0,0,1,2,0V6H12Z" />
  </g>
</svg>
