<svg xmlns="http://www.w3.org/2000/svg" viewBox="0 0 16 16">
  <defs>
    <style>.canvas{fill: none; opacity: 0;}.light-defaultgrey-10{fill: #212121; opacity: 0.1;}.light-defaultgrey{fill: #212121; opacity: 1;}.light-lightblue{fill: #0077a0; opacity: 1;}.light-purple{fill: #6936aa; opacity: 1;}</style>
  </defs>
  <title>IconLightScriptLink</title>
  <g id="canvas" class="canvas">
    <path class="canvas" d="M16,16H0V0H16Z" />
  </g>
  <g id="level-1">
    <path class="light-defaultgrey-10" d="M7.172,11H4V5A1,1,0,0,1,5,4h5.278A1.978,1.978,0,0,0,10,5V9A3,3,0,0,0,7.172,11ZM13,6H11V5a1,1,0,0,1,2,0ZM7.172,13H3a1,1,0,0,1-1-1H7v0c0,.025,0,.05,0,.074A2.984,2.984,0,0,0,7.172,13Z" />
    <path class="light-defaultgrey" d="M7.172,13H3a1,1,0,0,1-1-1H7a2.984,2.984,0,0,1,.172-1H4V5A1,1,0,0,1,5,4h5.278A1.978,1.978,0,0,0,10,5V9h1V7h2.5l.5-.5V5a2,2,0,0,0-2-2H5A2,2,0,0,0,3,5v6H1.5l-.5.5V12a2.023,2.023,0,0,0,1.993,2H7.766A3,3,0,0,1,7.172,13ZM11,5a1,1,0,0,1,2,0V6H11Z" />
    <path class="light-lightblue" d="M10,14a2,2,0,0,1,2-2h2a2,2,0,0,1,0,4H12A2,2,0,0,1,10,14Zm2-1a1,1,0,0,0,0,2h2a1,1,0,0,0,0-2Z" />
    <path class="light-purple" d="M14,12a2,2,0,0,1-2,2H11a1,1,0,0,1,1-1,1,1,0,0,0,0-2H10a1,1,0,0,0,0,2h.269A1.984,1.984,0,0,0,10,14a2,2,0,0,1,0-4h2A2,2,0,0,1,14,12Z" />
  </g>
</svg>
