<svg xmlns="http://www.w3.org/2000/svg" viewBox="0 0 16 16">
  <defs>
    <style>.canvas{fill: none; opacity: 0;}.light-defaultgrey{fill: #212121; opacity: 1;}.light-defaultgrey-10{fill: #212121; opacity: 0.1;}.light-red{fill: #c50b17; opacity: 1;}.white{fill: #ffffff; opacity: 1;}</style>
  </defs>
  <title>IconLightScriptError</title>
  <g id="canvas" class="canvas">
    <path class="canvas" d="M16,16H0V0H16Z" />
  </g>
  <g id="level-1">
    <path class="light-defaultgrey" d="M7.1,13H4a1,1,0,0,1-1-1H7a4.988,4.988,0,0,1,.1-1H5V5A1,1,0,0,1,6,4h5.278A1.978,1.978,0,0,0,11,5V7.1A4.988,4.988,0,0,1,12,7h2.5l.5-.5V5a2,2,0,0,0-2-2H6A2,2,0,0,0,4,5v6H2.5l-.5.5V12a2.023,2.023,0,0,0,1.993,2H7.422A4.988,4.988,0,0,1,7.1,13ZM12,5a1,1,0,0,1,2,0V6H12Z" />
    <path class="light-defaultgrey-10" d="M14,6H12V5a1,1,0,0,1,2,0ZM7,11h.1A5,5,0,0,1,11,7.1V5a1.978,1.978,0,0,1,.278-1H6A1,1,0,0,0,5,5v6H7Zm0,1H3a1,1,0,0,0,1,1H7.1A5,5,0,0,1,7,12Z" />
    <path class="light-red" d="M12,8a4,4,0,1,0,4,4A4,4,0,0,0,12,8Z" />
    <path class="white" d="M12.707,12l1.147,1.146-.708.708L12,12.707l-1.146,1.147-.708-.708L11.293,12l-1.147-1.146.708-.708L12,11.293l1.146-1.147.708.708Z" />
  </g>
</svg>
