<svg xmlns="http://www.w3.org/2000/svg" viewBox="0 0 16 16">
  <defs>
    <style>.canvas{fill: none; opacity: 0;}.light-defaultgrey-10{fill: #212121; opacity: 0.1;}.light-defaultgrey{fill: #212121; opacity: 1;}.light-blue-10{fill: #005dba; opacity: 0.1;}.light-blue{fill: #005dba; opacity: 1;}</style>
  </defs>
  <title>SearchMember</title>
  <g id="canvas" class="canvas">
    <path class="canvas" d="M16,16H0V0H16Z" />
  </g>
  <g id="level-1">
    <path class="light-defaultgrey-10" d="M8,2.5a4.5,4.5,0,1,0,1.23,8.83,3.916,3.916,0,0,1-.13-.49A3.445,3.445,0,0,1,9,10a4.007,4.007,0,0,1,2.91-3.85,3.864,3.864,0,0,1,.49-.1A4.5,4.5,0,0,0,8,2.5Z" />
    <path class="light-defaultgrey" d="M8,2A5,5,0,0,0,8,12a5.1,5.1,0,0,0,1.04-.11l.3-.29c-.04-.09-.08-.18-.11-.27a3.916,3.916,0,0,1-.13-.49A3.66,3.66,0,0,1,8,11a4,4,0,1,1,3.91-4.85,3.864,3.864,0,0,1,.49-.1A4.031,4.031,0,0,1,12.9,6,5,5,0,0,0,8,2Z" />
    <path class="light-defaultgrey" d="M7.5,7A1.5,1.5,0,1,1,9,5.5,1.5,1.5,0,0,1,7.5,7Zm0-2a.5.5,0,1,0,.5.5A.5.5,0,0,0,7.5,5Z" />
    <path class="light-blue-10" d="M13,12.5A2.5,2.5,0,1,1,15.5,10,2.5,2.5,0,0,1,13,12.5Z" />
    <path class="light-blue" d="M7.85,15.857l3.455-3.385a3.078,3.078,0,1,0-.713-.7L7.15,15.143ZM13,12a2,2,0,1,1,2-2A2,2,0,0,1,13,12Z" />
  </g>
</svg>
