<svg xmlns="http://www.w3.org/2000/svg" viewBox="0 0 16 16">
  <defs>
    <style>.canvas{fill: none; opacity: 0;}.light-defaultgrey-10{fill: #212121; opacity: 0.1;}.light-defaultgrey{fill: #212121; opacity: 1;}.light-blue-10{fill: #005dba; opacity: 0.1;}.light-blue{fill: #005dba; opacity: 1;}.cls-1{opacity:0.75;}</style>
  </defs>
  <title>SearchContract</title>
  <g id="canvas" class="canvas">
    <path class="canvas" d="M16,16H0V0H16Z" />
  </g>
  <g id="level-1">
    <g class="cls-1">
      <path class="light-defaultgrey-10" d="M10.5,1.5h-8v13H6.38l.51-.5,2.45-2.4A3.989,3.989,0,0,1,13,6a4.07,4.07,0,0,1,.5.03V4.5Z" />
      <path class="light-defaultgrey" d="M13.85,4.15l-3-3L10.5,1h-8L2,1.5v13l.5.5H5.87l1.02-1H3V2h7V5h3V6a4.07,4.07,0,0,1,.5.03,4.021,4.021,0,0,1,.5.1V4.5Z" />
    </g>
    <path class="light-defaultgrey" d="M6.68,9.87l1.45,1.45L7.45,12,6,10.55,4.55,12l-.68-.68L5.32,9.87,3.87,8.41l.68-.68L6,9.19,7.45,7.73l.68.68Z" />
    <path class="light-blue-10" d="M13,12.5A2.5,2.5,0,1,1,15.5,10,2.5,2.5,0,0,1,13,12.5Z" />
    <path class="light-blue" d="M7.85,15.857l3.455-3.385a3.078,3.078,0,1,0-.713-.7L7.15,15.143ZM13,12a2,2,0,1,1,2-2A2,2,0,0,1,13,12Z" />
  </g>
</svg>
