<svg xmlns="http://www.w3.org/2000/svg" viewBox="0 0 16 16">
  <defs>
    <style>.canvas{fill: none; opacity: 0;}.light-blue-10{fill: #005dba; opacity: 0.1;}.light-defaultgrey-10{fill: #212121; opacity: 0.1;}.light-defaultgrey{fill: #212121; opacity: 1;}.light-blue{fill: #005dba; opacity: 1;}</style>
  </defs>
  <title>IconLightSelectCell</title>
  <g id="canvas" class="canvas">
    <path class="canvas" d="M16,16H0V0H16Z" />
  </g>
  <g id="level-1">
    <path class="light-blue-10" d="M10.5,6.5v4h-4v-4Z" />
    <path class="light-defaultgrey-10" d="M2.5,2.5v12h12V2.5ZM12,10.914,10.914,12H6.086L5,10.914V6.086L6.086,5h4.828L12,6.086Z" />
    <path class="light-defaultgrey" d="M14.5,2H2.5L2,2.5v12l.5.5h12l.5-.5V2.5ZM14,6H11.914L12,6.086V7h2v3H12v.914L11.914,11H14v3H11V11.914L10.914,12H10v2H7V12H6.086L6,11.914V14H3V11H5.086L5,10.914V10H3V7H5V6.086L5.086,6H3V3H6V5.086L6.086,5H7V3h3V5h.914L11,5.086V3h3Z" />
    <path class="light-blue" d="M10.5,6h-4L6,6.5v4l.5.5h4l.5-.5v-4ZM10,10H7V7h3Z" />
  </g>
</svg>
