<svg xmlns="http://www.w3.org/2000/svg" viewBox="0 0 16 16">
  <defs>
    <style>.canvas{fill: none; opacity: 0;}.light-defaultgrey-10{fill: #212121; opacity: 0.1;}.light-defaultgrey{fill: #212121; opacity: 1;}.light-blue-10{fill: #005dba; opacity: 0.1;}.light-blue{fill: #005dba; opacity: 1;}.cls-1{opacity:0.75;}</style>
  </defs>
  <title>IconLightSelectEdge</title>
  <g id="canvas">
    <path class="canvas" d="M16,0V16H0V0Z" />
  </g>
  <g id="level-1">
    <g class="cls-1">
      <path class="light-defaultgrey-10" d="M13.5,4.82v6.36l-4,2.31V7.5h-3v5.99l-4-2.31V4.82L8,1.65Z" />
      <path class="light-defaultgrey" d="M13.75,4.39,8.25,1.22h-.5L2.25,4.39,2,4.82v6.36l.25.43L6.5,14.06V12.91L3,10.89V5.69L6.5,7.71V7.5h3v.21L13,5.69v5.2L9.5,12.91v1.15l4.25-2.45.25-.43V4.82ZM8,7.42,3.5,4.82,8,2.23l4.5,2.59Z" />
    </g>
    <path class="light-blue-10" d="M9.5,7.5v7h-3v-7Z" />
    <path class="light-blue" d="M9.5,15h-3L6,14.5v-7L6.5,7h3l.5.5v7ZM7,14H9V8H7Z" />
  </g>
</svg>
