<svg xmlns="http://www.w3.org/2000/svg" viewBox="0 0 16 16">
  <defs>
    <style>.canvas{fill: none; opacity: 0;}.light-defaultgrey-10{fill: #212121; opacity: 0.1;}.light-defaultgrey{fill: #212121; opacity: 1;}.light-blue-10{fill: #005dba; opacity: 0.1;}.light-blue{fill: #005dba; opacity: 1;}.cls-1{opacity:0.75;}</style>
  </defs>
  <title>IconLightSelectFace</title>
  <g id="canvas">
    <path class="canvas" d="M16,0V16H0V0Z" />
  </g>
  <g id="level-1">
    <g class="cls-1">
      <path class="light-defaultgrey-10" d="M13.5,4.82v6.36L8,14.35V8L2.5,4.82,8,1.65Z" />
      <path class="light-defaultgrey" d="M13.75,4.39,8.25,1.22h-.5L2.25,4.39,2,4.82h.5L8,8v6.35l-.25.43h.5l5.5-3.17.25-.43V4.82ZM3.5,4.82,8,2.23l4.5,2.59L8,7.42Zm9.5.87v5.2l-4.5,2.6V8.29Z" />
    </g>
    <path class="light-blue-10" d="M8,8v6.351L2.5,11.176V4.825Z" />
    <path class="light-blue" d="M7.75,14.784l-5.5-3.175L2,11.176V4.825l.75-.433,5.5,3.175L8.5,8v6.351ZM3,10.887l4.5,2.6v-5.2L3,5.691Z" />
  </g>
</svg>
