<svg xmlns="http://www.w3.org/2000/svg" viewBox="0 0 16 16">
  <defs>
    <style>.canvas{fill: none; opacity: 0;}.light-defaultgrey{fill: #212121; opacity: 1;}.light-defaultgrey-10{fill: #212121; opacity: 0.1;}.cls-1{opacity:0.75;}</style>
  </defs>
  <title>SelectXY</title>
  <g id="canvas">
    <path class="canvas" d="M16,16H0V0H16Z" />
  </g>
  <g id="level-1">
    <g class="cls-1">
      <path class="light-defaultgrey" d="M14,10h1v1H14Zm-4,5h1V14H10ZM10,5h1V4H10ZM8,15H9V14H8Zm-4-.5.5.5H5V14H4ZM4,11H5V10H4Zm0,2H5V12H4Zm2,2H7V14H6Zm6,0h1V14H12ZM14.5,4H14V5h1V4.5ZM14,9h1V8H14Zm0-2h1V6H14ZM12,5h1V4H12Zm2,10h.5l.5-.5V14H14Zm0-2h1V12H14Z" />
      <path class="light-defaultgrey-10" d="M15,4.5v10l-.5.5H4.5L4,14.5V4H14.5Z" />
    </g>
    <path class="light-defaultgrey" d="M4,4H5V5H4ZM6,4V5H9V4ZM0,5H3V4H0ZM4,9H5V6H4ZM4,3H5V0H4Z" />
  </g>
</svg>
