<svg xmlns="http://www.w3.org/2000/svg" viewBox="0 0 16 16">
  <defs>
    <style>.canvas{fill: none; opacity: 0;}.light-blue-10{fill: #005dba; opacity: 0.1;}.light-defaultgrey-10{fill: #212121; opacity: 0.1;}.light-defaultgrey{fill: #212121; opacity: 1;}.light-blue{fill: #005dba; opacity: 1;}</style>
  </defs>
  <title>IconLightSelectColumn</title>
  <g id="canvas" class="canvas">
    <path class="canvas" d="M16,16H0V0H16Z" />
  </g>
  <g id="level-1">
    <path class="light-blue-10" d="M10.5,14.5h-4V2.5h4Z" />
    <path class="light-defaultgrey-10" d="M5,14.5H2.5V2.5H5v12Zm7-12v12h2.5V2.5Z" />
    <path class="light-defaultgrey" d="M5.086,15H2.5L2,14.5V2.5L2.5,2H5.086L5,2.086V3H3V6H5V7H3v3H5v1H3v3H5v.914ZM14.5,2H11.914L12,2.086V3h2V6H12V7h2v3H12v1h2v3H12v.914L11.914,15H14.5l.5-.5V2.5Z" />
    <path class="light-blue" d="M6,2.5v12l.5.5h4l.5-.5V2.5L10.5,2h-4ZM7,11h3v3H7ZM7,7h3v3H7ZM7,3h3V6H7Z" />
  </g>
</svg>
