<svg xmlns="http://www.w3.org/2000/svg" viewBox="0 0 16 16">
  <defs>
    <style>.canvas{fill: none; opacity: 0;}.light-defaultgrey-10{fill: #212121; opacity: 0.1;}.light-defaultgrey{fill: #212121; opacity: 1;}.light-green{fill: #1f801f; opacity: 1;}</style>
  </defs>
  <title>IconLightSendtoFSI</title>
  <g id="canvas">
    <path class="canvas" d="M16,16H0V0H16Z" />
  </g>
  <g id="level-1">
    <path class="light-defaultgrey-10" d="M10.5,5.5v2h-5v-2Z" />
    <path class="light-defaultgrey" d="M4,12h7v1H4Zm5-2V9H6v1Zm1,0h5V9H10Zm2-4V7h4V6ZM10,3H4V4h6Zm4,0H11V4h3ZM5.5,5h5l.5.5v2l-.5.5h-5L5,7.5v-2ZM6,7h4V6H6Z" />
    <path class="light-green" d="M3.5,6.5,0,8.5v-4Z" />
  </g>
</svg>
