<svg xmlns="http://www.w3.org/2000/svg" viewBox="0 0 16 16">
  <defs>
    <style>.canvas{fill: none; opacity: 0;}.light-defaultgrey-10{fill: #212121; opacity: 0.1;}.light-defaultgrey{fill: #212121; opacity: 1;}.cls-1{opacity:0.75;}</style>
  </defs>
  <title>IconLightSerialPort</title>
  <g id="canvas" class="canvas">
    <path class="canvas" d="M16,16H0V0H16Z" />
  </g>
  <g id="level-1">
    <g class="cls-1">
      <path class="light-defaultgrey-10" d="M13.5,6.5V9L12,11.5H3L1.5,9V6.5a1,1,0,0,1,1-1h10A1,1,0,0,1,13.5,6.5Z" />
      <path class="light-defaultgrey" d="M12,12H3l-.429-.243-1.5-2.5L1,9V6.5A1.5,1.5,0,0,1,2.5,5h10A1.5,1.5,0,0,1,14,6.5V9l-.071.257-1.5,2.5ZM3.283,11h8.434L13,8.861V6.5a.5.5,0,0,0-.5-.5H2.5a.5.5,0,0,0-.5.5V8.861Z" />
    </g>
    <path class="light-defaultgrey" d="M4,8H3V7H4ZM6,7H5V8H6ZM8,7H7V8H8Zm2,0H9V8h1Zm2,0H11V8h1ZM5,9H4v1H5ZM7,9H6v1H7ZM9,9H8v1H9Zm2,0H10v1h1Z" />
  </g>
</svg>
