<svg xmlns="http://www.w3.org/2000/svg" viewBox="0 0 16 16">
  <defs>
    <style>.canvas{fill: none; opacity: 0;}.light-defaultgrey-10{fill: #212121; opacity: 0.1;}.light-defaultgrey{fill: #212121; opacity: 1;}.light-blue{fill: #005dba; opacity: 1;}</style>
  </defs>
  <title>IconLightServiceOperation</title>
  <g id="canvas" class="canvas">
    <path class="canvas" d="M16,16H0V0H16Z" />
  </g>
  <g id="level-1">
    <path class="light-defaultgrey-10" d="M15.5,4.5v9H2.5V9.914L4.268,8.146,4.121,8H8V5H6.121l.5-.5Z" />
    <path class="light-defaultgrey" d="M16,4.5v9l-.5.5H2.5L2,13.5V10.121l.146.147L3,9.414V13H15V5.535L9.305,9.9H8.7L6.219,8H7.87L9,8.869,14.03,5H6.121l1-1H15.5Z" />
    <path class="light-blue" d="M6.854,2.146v.708l-2,2-.708-.708L5.293,3H0V2H5.293L4.146.854,4.854.146Zm-6.708,4v.708l2,2,.708-.708L1.707,7H7V6H1.707L2.854,4.854l-.708-.708Z" />
  </g>
</svg>
