<svg xmlns="http://www.w3.org/2000/svg" viewBox="0 0 16 16">
  <defs>
    <style>.canvas{fill: none; opacity: 0;}.light-defaultgrey-10{fill: #212121; opacity: 0.1;}.light-defaultgrey{fill: #212121; opacity: 1;}.light-green{fill: #1f801f; opacity: 1;}.cls-1{opacity:0.75;}</style>
  </defs>
  <title>ServerRunTest</title>
  <g id="canvas">
    <path class="canvas" d="M0,0H16V16H0Z" />
  </g>
  <g id="level-1">
    <path class="light-defaultgrey-10" d="M13.5,4.5v10h-6V4.866L9.016,4l-.782-.446A.953.953,0,0,1,8.5,3.5h4A1,1,0,0,1,13.5,4.5Z" />
    <g class="cls-1">
      <path class="light-defaultgrey" d="M12,6V7H9V6ZM9,11h3V10H9Zm0,2h3V12H9Z" />
    </g>
    <path class="light-defaultgrey" d="M14,4.5v10l-.5.5h-6L7,14.5V5.152L8,4.58V14h5V4.5a.5.5,0,0,0-.5-.5H9.016L7.689,3.242A1.484,1.484,0,0,1,8.5,3h4A1.5,1.5,0,0,1,14,4.5Z" />
    <path class="light-green" d="M0,0,7,4,0,8Z" />
  </g>
</svg>
