<svg xmlns="http://www.w3.org/2000/svg" viewBox="0 0 16 16">
  <defs>
    <style>.canvas{fill: none; opacity: 0;}.light-blue-10{fill: #005dba; opacity: 0.1;}.light-blue{fill: #005dba; opacity: 1;}.light-defaultgrey-10{fill: #212121; opacity: 0.1;}.light-defaultgrey{fill: #212121; opacity: 1;}</style>
  </defs>
  <title>IconLightServiceBusSubscriptionTrid</title>
  <g id="canvas" class="canvas">
    <path class="canvas" d="M16,16H0V0H16Z" />
  </g>
  <g id="level-1">
    <path class="light-blue-10" d="M7.5,9.5h-6v-3h6Z" />
    <path class="light-blue" d="M7.5,10h-6L1,9.5v-3L1.5,6h6l.5.5v3ZM2,9H7V7H2Z" />
    <path class="light-defaultgrey-10" d="M7.5,14.5h-6v-3h6Zm0-10h-6v-3h6Z" />
    <path class="light-defaultgrey" d="M7.5,15h-6L1,14.5v-3l.5-.5h6l.5.5v3ZM2,14H7V12H2ZM7.5,5h-6L1,4.5v-3L1.5,1h6l.5.5v3ZM2,4H7V2H2Z" />
    <path class="light-blue" d="M13.293,7,12.146,5.854l.708-.708,2,2v.708l-2,2-.708-.708L13.293,8H9V7Z" />
  </g>
</svg>
