<svg xmlns="http://www.w3.org/2000/svg" viewBox="0 0 16 16">
  <defs>
    <style>.canvas{fill: none; opacity: 0;}.light-defaultgrey{fill: #212121; opacity: 1;}.light-defaultgrey-10{fill: #212121; opacity: 0.1;}.cls-1{opacity:0.75;}</style>
  </defs>
  <title>ServerRoleMembership</title>
  <g id="canvas">
    <path class="canvas" d="M16,16H0V0H16Z" />
  </g>
  <g id="level-1">
    <g class="cls-1">
      <path class="light-defaultgrey" d="M11,5V6H8V5ZM8,10h3V9H8Zm0,2h3V11H8Z" />
    </g>
    <path class="light-defaultgrey-10" d="M12.5,3.5v10H8.313a5.049,5.049,0,0,0-1.107-1.318A3.7,3.7,0,0,0,6.5,7.476V3.5a1,1,0,0,1,1-1h4A1,1,0,0,1,12.5,3.5Z" />
    <path class="light-defaultgrey" d="M13,3.5v10l-.5.5H8.568a4.994,4.994,0,0,0-.587-1H12V3.5a.5.5,0,0,0-.5-.5h-4a.5.5,0,0,0-.5.5V8.023A3.765,3.765,0,0,0,6,7.09V3.5A1.5,1.5,0,0,1,7.5,2h4A1.5,1.5,0,0,1,13,3.5Z" />
    <path class="light-defaultgrey-10" d="M6.25,10.25A2.25,2.25,0,1,1,4,8,2.25,2.25,0,0,1,6.25,10.25ZM7.5,16a3.5,3.5,0,0,0-7,0Z" />
    <path class="light-defaultgrey" d="M2.25,10.25A1.75,1.75,0,1,1,4,12,1.752,1.752,0,0,1,2.25,10.25ZM5.7,12.394a2.75,2.75,0,1,0-3.4,0A4,4,0,0,0,0,16H1a3,3,0,0,1,6,0H8A4,4,0,0,0,5.7,12.394Z" />
  </g>
</svg>
