<svg xmlns="http://www.w3.org/2000/svg" viewBox="0 0 16 16">
  <defs>
    <style>.canvas{fill: none; opacity: 0;}.light-blue-10{fill: #005dba; opacity: 0.1;}.light-blue{fill: #005dba; opacity: 1;}.light-defaultgrey-10{fill: #212121; opacity: 0.1;}.light-defaultgrey{fill: #212121; opacity: 1;}</style>
  </defs>
  <title>ServiceBusTopic</title>
  <g id="canvas">
    <path class="canvas" d="M16,16H0V0H16Z" />
  </g>
  <g id="level-1">
    <path class="light-blue-10" d="M14.5,9.5h-6v-3h6Z" />
    <path class="light-blue" d="M14.5,10h-6L8,9.5v-3L8.5,6h6l.5.5v3ZM9,9h5V7H9Z" />
    <path class="light-defaultgrey-10" d="M14.5,14.5h-6v-3h6Zm0-10h-6v-3h6Z" />
    <path class="light-defaultgrey" d="M14.5,15h-6L8,14.5v-3l.5-.5h6l.5.5v3ZM9,14h5V12H9Zm5.5-9h-6L8,4.5v-3L8.5,1h6l.5.5v3ZM9,4h5V2H9Z" />
    <path class="light-blue" d="M5.293,7,4.146,5.854l.708-.708,2,2v.708l-2,2-.708-.708L5.293,8H1V7Z" />
  </g>
</svg>
