<svg xmlns="http://www.w3.org/2000/svg" viewBox="0 0 16 16">
  <defs>
    <style>.canvas{fill: none; opacity: 0;}.light-defaultgrey{fill: #212121; opacity: 1;}.light-purple-10{fill: #6936aa; opacity: 0.1;}.light-purple{fill: #6936aa; opacity: 1;}.light-defaultgrey-10{fill: #212121; opacity: 0.1;}.cls-1{opacity:0.75;}</style>
  </defs>
  <title>IconLightServerMethod</title>
  <g id="canvas">
    <path class="canvas" d="M16,16H0V0H16Z" />
  </g>
  <g id="level-1">
    <g class="cls-1">
      <path class="light-defaultgrey" d="M11,5V6H8V5ZM8,10h3V9H8Zm0,2h3V11H8Z" />
    </g>
    <path class="light-purple-10" d="M6.5,10.318v3.818L3.5,15.5l-3-1.364V10.318l3-1.636Z" />
    <path class="light-purple" d="M6.739,9.932l-3-1.636H3.261l-3,1.636L0,10.371v3.818l.293.456,3,1.355h.414l3-1.355L7,14.189V10.371ZM3,14.776l-2-.908v-2.72l2,.909Zm.5-3.59L1.619,10.33,3.5,9.3,5.381,10.33ZM6,13.868l-2,.908V12.057l2-.909Z" />
    <path class="light-defaultgrey-10" d="M12.5,3.5v10H8V10.1l-.541-.911L6.5,8.663V3.5a1,1,0,0,1,1-1h4A1,1,0,0,1,12.5,3.5Z" />
    <path class="light-defaultgrey" d="M13,3.5v10l-.5.5H8V13h4V3.5a.5.5,0,0,0-.5-.5h-4a.5.5,0,0,0-.5.5V8.935L6,8.39V3.5A1.5,1.5,0,0,1,7.5,2h4A1.5,1.5,0,0,1,13,3.5Z" />
  </g>
</svg>
