<svg xmlns="http://www.w3.org/2000/svg" viewBox="0 0 16 16">
  <defs>
    <style>.canvas{fill: none; opacity: 0;}.light-defaultgrey-10{fill: #212121; opacity: 0.1;}.light-defaultgrey{fill: #212121; opacity: 1;}.light-teal-10{fill: #006758; opacity: 0.1;}.light-teal{fill: #006758; opacity: 1;}.cls-1{opacity:0.75;}</style>
  </defs>
  <title>IconLightServerTest</title>
  <g id="canvas">
    <path class="canvas" d="M16,16H0V0H16Z" />
  </g>
  <g id="level-1">
    <path class="light-defaultgrey-10" d="M12.5,3.5v10H7.52L6.5,11.868V10H7V7H6.5V3.5a1,1,0,0,1,1-1h4A1,1,0,0,1,12.5,3.5Z" />
    <path class="light-defaultgrey" d="M6,10H7v2.667l-1-1.6Zm7-6.5v10l-.5.5H7.833l-.625-1H12V3.5a.5.5,0,0,0-.5-.5h-4a.5.5,0,0,0-.5.5V7H6V3.5A1.5,1.5,0,0,1,7.5,2h4A1.5,1.5,0,0,1,13,3.5Z" />
    <g class="cls-1">
      <path class="light-defaultgrey" d="M11,5V6H8V5ZM8,10h3V9H8Zm0,2h3V11H8Z" />
    </g>
    <path class="light-defaultgrey-10" d="M1.557,13l.937-1.5v-3h2v3L5.432,13Z" />
    <path class="light-defaultgrey" d="M2,9H1V8H6V9H5v2.356L6.028,13H4.849L4,11.644V9H3v2.644L2.153,13H.974L2,11.356Z" />
    <path class="light-teal-10" d="M6.579,14.735a.5.5,0,0,1-.424.765H.959a.5.5,0,0,1-.424-.765L1.307,13.5h4.5Z" />
    <path class="light-teal" d="M5.882,16H1.121a1.121,1.121,0,0,1-.95-1.714L.975,13H6.027l.8,1.287A1.12,1.12,0,0,1,5.882,16ZM1.529,14l-.51.816a.12.12,0,0,0,.1.184H5.882a.12.12,0,0,0,.1-.183L5.473,14Z" />
  </g>
</svg>
