<svg xmlns="http://www.w3.org/2000/svg" viewBox="0 0 16 16">
  <defs>
    <style>.canvas{fill: none; opacity: 0;}.light-lightblue-10{fill: #0077a0; opacity: 0.1;}.light-defaultgrey-10{fill: #212121; opacity: 0.1;}.light-defaultgrey{fill: #212121; opacity: 1;}.light-lightblue{fill: #0077a0; opacity: 1;}.cls-1{opacity:0.75;}</style>
  </defs>
  <title>ServerDatabase</title>
  <g id="canvas">
    <path class="canvas" d="M16,0V16H0V0Z" />
  </g>
  <g id="level-1">
    <path class="light-lightblue-10" d="M9.5,5.97V13c0,.828-1.791,1.5-4,1.5s-4-.672-4-1.5V5.97c0-.828,1.791-1.5,4-1.5S9.5,5.142,9.5,5.97Z" />
    <path class="light-defaultgrey-10" d="M13.5,1.5h-4a1,1,0,0,0-1,1v.908C9.916,3.84,11,4.646,11,5.97V12.5h3.5V2.5A1,1,0,0,0,13.5,1.5Z" />
    <path class="light-defaultgrey" d="M13.5,1h-4A1.5,1.5,0,0,0,8,2.5v.772a7.121,7.121,0,0,1,1,.311V2.5A.5.5,0,0,1,9.5,2h4a.5.5,0,0,1,.5.5V12H11v1h3.5l.5-.5V2.5A1.5,1.5,0,0,0,13.5,1Z" />
    <path class="light-lightblue" d="M10,5.97c0-2.627-9-2.627-9,0H1V13c0,1.313,2.264,2,4.5,2s4.5-.687,4.5-2V5.97Zm-4.5-1c2.273,0,3.5.71,3.5,1s-1.227,1-3.5,1S2,6.26,2,5.97,3.227,4.97,5.5,4.97ZM9,13c0,.29-1.227,1-3.5,1S2,13.29,2,13V7.261H2a7.863,7.863,0,0,0,3.5.709A7.863,7.863,0,0,0,9,7.261H9Z" />
    <g class="cls-1">
      <path class="light-defaultgrey" d="M11,10h2v1H11Zm0-1h2V8H11ZM10,4v.123A2.532,2.532,0,0,1,10.766,5H13V4Z" />
    </g>
  </g>
</svg>
