<svg xmlns="http://www.w3.org/2000/svg" viewBox="0 0 16 16">
  <defs>
    <style>.canvas{fill: none; opacity: 0;}.light-blue-10{fill: #005dba; opacity: 0.1;}.light-defaultgrey-10{fill: #212121; opacity: 0.1;}.light-defaultgrey{fill: #212121; opacity: 1;}.light-blue{fill: #005dba; opacity: 1;}</style>
  </defs>
  <title>IconLightSetField</title>
  <g id="canvas" class="canvas">
    <path class="canvas" d="M0,16V0H16V16Z" />
  </g>
  <g id="level-1">
    <path class="light-blue-10" d="M5.5,5.5v5h-4v-5Z" />
    <path class="light-defaultgrey-10" d="M5.5,5.5v5H8.25l4.38-4.38A1.538,1.538,0,0,1,12.76,6a2.668,2.668,0,0,1,.74-.45V5.5Z" />
    <path class="light-defaultgrey" d="M13.5,5H1.5L1,5.5v5l.5.5H7.75l1-1H2V6H9V9.75l1-1V6h2.76a2.668,2.668,0,0,1,.74-.45,2.044,2.044,0,0,1,.42-.13Z" />
    <path class="light-blue" d="M5.5,5h-4L1,5.5v5l.5.5h4l.5-.5v-5ZM5,10H2V6H5Z" />
    <path class="light-blue-10" d="M15.192,8.681,9.635,14.238,8.153,12.72l5.539-5.539a1.059,1.059,0,0,1,1.5,0A1.062,1.062,0,0,1,15.192,8.681Z" />
    <path class="light-blue" d="M15.543,6.83a1.56,1.56,0,0,0-2.2,0l-5.25,5.25L6.511,15.326,7.186,16l2.995-1.629,5.365-5.336A1.562,1.562,0,0,0,15.543,6.83Zm-.7,1.5-5.2,5.2-.783-.8,5.19-5.189a.56.56,0,0,1,.792.793Z" />
  </g>
</svg>
