<svg xmlns="http://www.w3.org/2000/svg" viewBox="0 0 16 16">
  <defs>
    <style>.canvas{fill: none; opacity: 0;}.light-defaultgrey-10{fill: #212121; opacity: 0.1;}.light-defaultgrey{fill: #212121; opacity: 1;}.light-blue-10{fill: #005dba; opacity: 0.1;}.light-blue{fill: #005dba; opacity: 1;}.cls-1{opacity:0.75;}</style>
  </defs>
  <title>IconLightSetIterationCount</title>
  <g id="canvas" class="canvas">
    <path class="canvas" d="M16,16H0V0H16Z" />
  </g>
  <g id="level-1">
    <g class="cls-1">
      <path class="light-defaultgrey-10" d="M.5,4v8H7.01l.25-.51L12.5,6.25V4Z" />
      <path class="light-defaultgrey" d="M12.5,4H.5L0,4.5v8l.5.5H6.53l.48-1H7V5h5V6.75l.63-.63a2.114,2.114,0,0,1,.37-.3V4.5ZM6,12H1V5H6Z" />
    </g>
    <path class="light-defaultgrey-10" d="M1,3V4H12V3Z" />
    <path class="light-defaultgrey" d="M12.5,2H.5L0,2.5v2L.5,5h12l.5-.5v-2ZM1,4V3H12V4Z" />
    <path class="light-defaultgrey" d="M11,6.5V7.75l-1,1V7H8V6h2.5ZM2,6V7H4v4H5V6.5L4.5,6Z" />
    <path class="light-blue-10" d="M15.192,8.681,9.635,14.238,8.153,12.72l5.539-5.539a1.059,1.059,0,0,1,1.5,0A1.062,1.062,0,0,1,15.192,8.681Z" />
    <path class="light-blue" d="M15.543,6.83a1.56,1.56,0,0,0-2.2,0l-5.25,5.25L6.511,15.326,7.186,16l2.995-1.629,5.365-5.336A1.562,1.562,0,0,0,15.543,6.83Zm-.7,1.5-5.2,5.2-.783-.8,5.19-5.189a.56.56,0,0,1,.792.793Z" />
  </g>
</svg>
