<svg xmlns="http://www.w3.org/2000/svg" viewBox="0 0 16 16">
  <defs>
    <style>.canvas{fill: none; opacity: 0;}.light-defaultgrey-10{fill: #212121; opacity: 0.1;}.light-defaultgrey{fill: #212121; opacity: 1;}.light-yellow{fill: #996f00; opacity: 1;}.white{fill: #ffffff; opacity: 1;}.cls-1{opacity:0.75;}</style>
  </defs>
  <title>SettingsGroupWarning</title>
  <g id="canvas">
    <path class="canvas" d="M16,0V16H0V0Z" />
  </g>
  <g id="level-1">
    <path class="light-defaultgrey-10" d="M9.54,7.17l-.71-.71-.97.59a3.412,3.412,0,0,0-1.09-.46L6.5,5.5h-1L5.23,6.59a3.412,3.412,0,0,0-1.09.46l-.97-.59-.71.71.59.97a3.412,3.412,0,0,0-.46,1.09L1.5,9.5v1l1.09.27a3.412,3.412,0,0,0,.46,1.09l-.59.97.71.71.97-.59a3.412,3.412,0,0,0,1.09.46L5.5,14.5h.84l.29-.53.14-.56a1.169,1.169,0,0,0,.2-.06l.38-.68L9.01,9.65l.34-.62a3.413,3.413,0,0,0-.4-.89ZM6,11.25A1.25,1.25,0,1,1,7.25,10,1.25,1.25,0,0,1,6,11.25Z" />
    <path class="light-defaultgrey" d="M6,8.25A1.75,1.75,0,1,0,7.75,10,1.758,1.758,0,0,0,6,8.25Zm0,2.5A.75.75,0,1,1,6.75,10,.755.755,0,0,1,6,10.75Zm0-2.5A1.75,1.75,0,1,0,7.75,10,1.758,1.758,0,0,0,6,8.25Zm0,2.5A.75.75,0,1,1,6.75,10,.755.755,0,0,1,6,10.75Zm4.17-3.66L8.91,5.83l-1.05.63a4.267,4.267,0,0,0-.67-.27L6.89,5H5.11l-.3,1.19a4.267,4.267,0,0,0-.67.27L3.09,5.83,1.83,7.09l.64,1.05a3.525,3.525,0,0,0-.28.67L1,9.11v1.78l1.19.3a3.525,3.525,0,0,0,.28.67l-.64,1.05,1.26,1.26,1.05-.63a4.267,4.267,0,0,0,.67.27L5.11,15h.95l.28-.5.29-.53.34-.62.38-.68a2.486,2.486,0,0,1-.69.25l-.3.07L6.11,14H5.89l-.25-1.01-.3-.07a2.711,2.711,0,0,1-.93-.39l-.26-.16-.9.54-.16-.16.54-.9-.16-.26a2.711,2.711,0,0,1-.39-.93l-.07-.3L2,10.11V9.89l1.01-.25.07-.3a2.711,2.711,0,0,1,.39-.93l.16-.26-.54-.9.16-.16.9.54.26-.16a2.711,2.711,0,0,1,.93-.39l.3-.07L5.89,6h.22l.25,1.01.3.07a2.711,2.711,0,0,1,.93.39l.26.16.9-.54.16.16-.54.9.16.26a2.711,2.711,0,0,1,.39.93l.07.3.02.01.34-.62.33-.59-.15-.3ZM6,8.25A1.75,1.75,0,1,0,7.75,10,1.758,1.758,0,0,0,6,8.25Zm0,2.5A.75.75,0,1,1,6.75,10,.755.755,0,0,1,6,10.75Z" />
    <g class="cls-1">
      <path class="light-defaultgrey-10" d="M13.41,5.23a3.412,3.412,0,0,0-.46-1.09l.59-.97-.71-.71-.97.59a3.412,3.412,0,0,0-1.09-.46L10.5,1.5h-1L9.23,2.59a3.412,3.412,0,0,0-1.09.46l-.97-.59-.71.71.5.83h.71l.31,1.23.78-.47.3-.18.33.33a1.249,1.249,0,0,1,1.7,1.7l.33.33L11.38,7h1.15l.16.3.29.51a3.412,3.412,0,0,0,.43-1.04L14.5,6.5v-1Z" />
      <path class="light-defaultgrey" d="M13.81,7.19a3.525,3.525,0,0,1-.28.67l.64,1.05-.38.38-.25-.46-.02-.04-.57-.93c.01-.02.02-.03.03-.05l-.29-.51a2.45,2.45,0,0,0,.23-.64l.07-.3L14,6.11V5.89l-1.01-.25-.07-.3a2.711,2.711,0,0,0-.39-.93l-.16-.26.54-.9-.16-.16-.9.54-.26-.16a2.711,2.711,0,0,0-.93-.39l-.3-.07L10.11,2H9.89L9.64,3.01l-.3.07a2.711,2.711,0,0,0-.93.39l-.26.16-.9-.54-.16.16L7.54,4H6.38l-.55-.91L7.09,1.83l1.05.63a4.267,4.267,0,0,1,.67-.27L9.11,1h1.78l.3,1.19a4.267,4.267,0,0,1,.67.27l1.05-.63,1.26,1.26-.64,1.05a3.525,3.525,0,0,1,.28.67l1.19.3V6.89ZM11.75,6A1.748,1.748,0,0,0,9.027,4.547l.743.743A.587.587,0,0,1,10,5.25a.755.755,0,0,1,.75.75.587.587,0,0,1-.04.23l.743.743A1.764,1.764,0,0,0,11.75,6Z" />
    </g>
    <path class="light-yellow" d="M15.5,16h-8l-.439-.739,4-7.261h.878l4,7.261Z" />
    <path class="white" d="M12,13H11V10h1Zm.25,1.5a.75.75,0,1,1-.75-.75A.75.75,0,0,1,12.25,14.5Z" />
  </g>
</svg>
