<svg xmlns="http://www.w3.org/2000/svg" viewBox="0 0 16 16">
  <defs>
    <style>.canvas{fill: none; opacity: 0;}.light-defaultgrey-10{fill: #212121; opacity: 0.1;}.light-defaultgrey{fill: #212121; opacity: 1;}.light-red{fill: #c50b17; opacity: 1;}.white{fill: #ffffff; opacity: 1;}.cls-1{opacity:0.75;}</style>
  </defs>
  <title>SettingsGroupError</title>
  <g id="canvas">
    <path class="canvas" d="M16,0V16H0V0Z" />
  </g>
  <g id="level-1">
    <path class="light-defaultgrey-10" d="M8.83,6.46l-.97.59a3.412,3.412,0,0,0-1.09-.46L6.5,5.5h-1L5.23,6.59a3.412,3.412,0,0,0-1.09.46l-.97-.59-.71.71.59.97a3.412,3.412,0,0,0-.46,1.09L1.5,9.5v1l1.09.27a3.412,3.412,0,0,0,.46,1.09l-.59.97.71.71.97-.59a3.412,3.412,0,0,0,1.09.46L5.5,14.5h1l.27-1.09a2.643,2.643,0,0,0,.4-.12,3.864,3.864,0,0,1-.1-.49A4.251,4.251,0,0,1,7,12a4.032,4.032,0,0,1,.04-.6,4.915,4.915,0,0,1,.63-1.89A4.86,4.86,0,0,1,8.53,8.4a4.655,4.655,0,0,1,.53-.45l.48-.78ZM6,11.25A1.25,1.25,0,1,1,7.25,10,1.25,1.25,0,0,1,6,11.25Z" />
    <path class="light-defaultgrey" d="M6,8.25a1.75,1.75,0,0,0,0,3.5,1.714,1.714,0,0,0,1.04-.35,4.915,4.915,0,0,1,.63-1.89A1.74,1.74,0,0,0,6,8.25Zm0,2.5A.75.75,0,1,1,6.75,10,.755.755,0,0,1,6,10.75ZM8.91,5.83l-1.05.63a4.267,4.267,0,0,0-.67-.27L6.89,5H5.11l-.3,1.19a4.267,4.267,0,0,0-.67.27L3.09,5.83,1.83,7.09l.64,1.05a3.525,3.525,0,0,0-.28.67L1,9.11v1.78l1.19.3a3.525,3.525,0,0,0,.28.67l-.64,1.05,1.26,1.26,1.05-.63a4.267,4.267,0,0,0,.67.27L5.11,15H6.89l.3-1.19a.694.694,0,0,0,.13-.05,3.676,3.676,0,0,1-.15-.47,3.864,3.864,0,0,1-.1-.49,2.769,2.769,0,0,1-.41.12l-.3.07L6.11,14H5.89l-.25-1.01-.3-.07a2.711,2.711,0,0,1-.93-.39l-.26-.16-.9.54-.16-.16.54-.9-.16-.26a2.711,2.711,0,0,1-.39-.93l-.07-.3L2,10.11V9.89l1.01-.25.07-.3a2.711,2.711,0,0,1,.39-.93l.16-.26-.54-.9.16-.16.9.54.26-.16a2.711,2.711,0,0,1,.93-.39l.3-.07L5.89,6h.22l.25,1.01.3.07a2.711,2.711,0,0,1,.93.39l.26.16.9-.54.16.16-.54.9.16.25a4.655,4.655,0,0,1,.53-.45,5.7,5.7,0,0,1,.9-.52l.21-.34ZM6,8.25a1.75,1.75,0,0,0,0,3.5,1.714,1.714,0,0,0,1.04-.35,4.915,4.915,0,0,1,.63-1.89A1.74,1.74,0,0,0,6,8.25Zm0,2.5A.75.75,0,1,1,6.75,10,.755.755,0,0,1,6,10.75Zm0-2.5a1.75,1.75,0,0,0,0,3.5,1.714,1.714,0,0,0,1.04-.35,4.915,4.915,0,0,1,.63-1.89A1.74,1.74,0,0,0,6,8.25Zm0,2.5A.75.75,0,1,1,6.75,10,.755.755,0,0,1,6,10.75Z" />
    <g class="cls-1">
      <path class="light-defaultgrey-10" d="M13.41,5.23a3.412,3.412,0,0,0-.46-1.09l.59-.97-.71-.71-.97.59a3.412,3.412,0,0,0-1.09-.46L10.5,1.5h-1L9.23,2.59a3.412,3.412,0,0,0-1.09.46l-.97-.59-.71.71.5.83h.71l.31,1.23.78-.47.3-.18.33.33a1.249,1.249,0,0,1,1.7,1.7l.33.33-.07.11A3.493,3.493,0,0,1,12,7a4.251,4.251,0,0,1,.8.07,3.864,3.864,0,0,1,.49.1,2.643,2.643,0,0,0,.12-.4L14.5,6.5v-1Z" />
      <path class="light-defaultgrey" d="M10,4.25a1.713,1.713,0,0,0-.97.3l.74.74A.587.587,0,0,1,10,5.25a.755.755,0,0,1,.75.75.587.587,0,0,1-.04.23l.74.74a1.713,1.713,0,0,0,.3-.97A1.758,1.758,0,0,0,10,4.25Zm3.81.56a3.525,3.525,0,0,0-.28-.67l.64-1.05L12.91,1.83l-1.05.63a4.267,4.267,0,0,0-.67-.27L10.89,1H9.11l-.3,1.19a4.267,4.267,0,0,0-.67.27L7.09,1.83,5.83,3.09,6.38,4H7.54l-.45-.75.16-.16.9.54.26-.16a2.711,2.711,0,0,1,.93-.39l.3-.07L9.89,2h.22l.25,1.01.3.07a2.711,2.711,0,0,1,.93.39l.26.16.9-.54.16.16-.54.9.16.26a2.711,2.711,0,0,1,.39.93l.07.3L14,5.89v.22l-1.01.25-.07.3a2.769,2.769,0,0,1-.12.41,3.864,3.864,0,0,1,.49.1,3.676,3.676,0,0,1,.47.15.694.694,0,0,0,.05-.13L15,6.89V5.11Z" />
    </g>
    <path class="light-red" d="M12,8a4,4,0,1,0,4,4A4,4,0,0,0,12,8Z" />
    <path class="white" d="M12.707,12l1.147,1.146-.708.708L12,12.707l-1.146,1.147-.708-.708L11.293,12l-1.147-1.146.708-.708L12,11.293l1.146-1.147.708.708Z" />
  </g>
</svg>
