<svg xmlns="http://www.w3.org/2000/svg" viewBox="0 0 16 16">
  <defs>
    <style>.canvas{fill: none; opacity: 0;}.light-defaultgrey-10{fill: #212121; opacity: 0.1;}.light-defaultgrey{fill: #212121; opacity: 1;}</style>
  </defs>
  <title>IconLightSettingsPanel</title>
  <g id="canvas">
    <path class="canvas" d="M16,0V16H0V0Z" />
  </g>
  <g id="level-1">
    <path class="light-defaultgrey-10" d="M1.5,1.5h12v12H1.5Z" />
    <path class="light-defaultgrey" d="M13.5,1H1.5L1,1.5v12l.5.5h12l.5-.5V1.5ZM13,13H2V2H13Z" />
    <path class="light-defaultgrey" d="M11,8V7H9.949a2.473,2.473,0,0,0-.365-.876l.745-.745-.707-.707-.745.745A2.469,2.469,0,0,0,8,5.051V4H7V5.051a2.469,2.469,0,0,0-.877.366l-.745-.745-.707.707.745.745A2.473,2.473,0,0,0,5.051,7H4V8H5.051a2.473,2.473,0,0,0,.365.876l-.745.745.707.707.745-.745A2.469,2.469,0,0,0,7,9.949V11H8V9.949a2.469,2.469,0,0,0,.877-.366l.745.745.707-.707-.745-.745A2.473,2.473,0,0,0,9.949,8ZM7.5,9A1.5,1.5,0,1,1,9,7.5,1.5,1.5,0,0,1,7.5,9Z" />
  </g>
</svg>
