<svg xmlns="http://www.w3.org/2000/svg" viewBox="0 0 16 16">
  <defs>
    <style>.canvas{fill: none; opacity: 0;}.light-defaultgrey-10{fill: #212121; opacity: 0.1;}.light-defaultgrey{fill: #212121; opacity: 1;}.light-red{fill: #c50b17; opacity: 1;}.white{fill: #ffffff; opacity: 1;}.cls-1{opacity:0.75;}</style>
  </defs>
  <title>SettingsFileError</title>
  <g id="canvas">
    <path class="canvas" d="M16,0V16H0V0Z" />
  </g>
  <g id="level-1">
    <g class="cls-1">
      <path class="light-defaultgrey-10" d="M10.5,1.5h-7V5H3V8.05A4.233,4.233,0,0,1,3.5,8a4.5,4.5,0,0,1,3.85,2.17A5,5,0,0,1,12,7a4.712,4.712,0,0,1,1,.1c.17.03.33.08.5.12V4.5Z" />
      <path class="light-defaultgrey" d="M13.85,4.15l-3-3L10.5,1h-7L3,1.5V8H4V2h6V5h3V7.1c.17.03.33.08.5.12.17.06.34.12.5.19V4.5Z" />
    </g>
    <path class="light-defaultgrey" d="M7,13V12H5.95a2.538,2.538,0,0,0-.37-.88l.75-.74-.71-.71-.74.75A2.538,2.538,0,0,0,4,10.05V9H3v1.05a2.538,2.538,0,0,0-.88.37l-.74-.75-.71.71.75.74a2.538,2.538,0,0,0-.37.88H0v1H1.05a2.538,2.538,0,0,0,.37.88l-.75.74.71.71.74-.75a2.538,2.538,0,0,0,.88.37V16H4V14.95a2.538,2.538,0,0,0,.88-.37l.74.75.71-.71-.75-.74A2.538,2.538,0,0,0,5.95,13ZM3.5,14A1.5,1.5,0,1,1,5,12.5,1.5,1.5,0,0,1,3.5,14Z" />
    <path class="light-red" d="M12,8a4,4,0,1,0,4,4A4,4,0,0,0,12,8Z" />
    <path class="white" d="M12.707,12l1.147,1.146-.708.708L12,12.707l-1.146,1.147-.708-.708L11.293,12l-1.147-1.146.708-.708L12,11.293l1.146-1.147.708.708Z" />
  </g>
</svg>
