<svg xmlns="http://www.w3.org/2000/svg" xmlns:xlink="http://www.w3.org/1999/xlink" viewBox="0 0 16 16"><defs><style>.canvas{fill:none;opacity:0;}.light-defaultgrey{fill:#212121;}.cls-101{fill:url(#radial-gradient);}</style><radialGradient id="radial-gradient" cx="8.04" cy="8" r="6.48" gradientUnits="userSpaceOnUse"><stop offset="0" stop-color="#f4f4f4"/><stop offset="1" stop-color="#212121"/></radialGradient></defs><g id="canvas"><path class="canvas" d="M16,16H0V0H16Z"/></g><g id="level-1"><path class="light-defaultgrey" d="M15,8a6.986,6.986,0,0,1-9.9,6.363V14H5a3.043,3.043,0,0,1,.051-.625A.488.488,0,0,1,5.1,13.25,6,6,0,1,0,2.124,6.786a3.344,3.344,0,0,0-1.1.636A7,7,0,0,1,15,8Z"/><path class="light-defaultgrey" d="M3.011,14c0-.137-.005-.239-.005-.308a2.871,2.871,0,0,1,.171-1.043,2.352,2.352,0,0,1,.4-.667,7.624,7.624,0,0,1,.739-.716,3.47,3.47,0,0,0,.692-.749,1.2,1.2,0,0,0,.16-.61A1.422,1.422,0,0,0,4.7,8.855,1.581,1.581,0,0,0,3.559,8.4a1.543,1.543,0,0,0-1.1.41A2.16,2.16,0,0,0,1.888,10.1L.833,9.969a2.734,2.734,0,0,1,.847-1.79,2.71,2.71,0,0,1,1.861-.621A2.786,2.786,0,0,1,5.5,8.225a2.109,2.109,0,0,1,.73,1.613,2.041,2.041,0,0,1-.257,1.009,4.779,4.779,0,0,1-1,1.123,5.087,5.087,0,0,0-.656.656,1.446,1.446,0,0,0-.228.485A4.1,4.1,0,0,0,4,14ZM2.9,16V15H4.1v1Z"/><path class="cls-101" d="M14.5,8a6.495,6.495,0,0,1-9.494,5.766,2.351,2.351,0,0,1,.042-.391.476.476,0,0,1,.068-.156,4.39,4.39,0,0,1,.514-.5,5.665,5.665,0,0,0,1.214-1.386,3.041,3.041,0,0,0,.383-1.5A3.125,3.125,0,0,0,6.172,7.486a3.767,3.767,0,0,0-2.631-.928,3.922,3.922,0,0,0-1.961.476A6.5,6.5,0,0,1,14.5,8Z"/></g></svg>