<svg xmlns="http://www.w3.org/2000/svg" viewBox="0 0 16 16">
  <defs>
    <style>.canvas{fill: none; opacity: 0;}.light-defaultgrey-10{fill: #212121; opacity: 0.1;}.light-defaultgrey{fill: #212121; opacity: 1;}</style>
  </defs>
  <title>Shape</title>
  <g id="canvas">
    <path class="canvas" d="M16,16H0V0H16Z" />
  </g>
  <g id="level-1">
    <path class="light-defaultgrey-10" d="M15.5,7A3.5,3.5,0,0,1,12,10.5a3.588,3.588,0,0,1-.5-.05V14.5h-7v-6H.5L3.991,2.453,6.905,7.5H8.55A3.588,3.588,0,0,1,8.5,7a3.5,3.5,0,0,1,7,0Z" />
    <path class="light-defaultgrey" d="M12,3A4,4,0,0,0,8,7H7.2L4.42,2.2H3.56L.07,8.25.5,9H4v5.5l.5.5h7l.5-.5V11a4,4,0,0,0,0-8ZM4,7.5V8H1.37L3.99,3.45,6.04,7H4.5ZM11,14H5V8h6Zm1-4V7.5L11.5,7H9a3,3,0,1,1,3,3Z" />
  </g>
</svg>
