<svg xmlns="http://www.w3.org/2000/svg" viewBox="0 0 16 16">
  <defs>
    <style>.canvas{fill: none; opacity: 0;}.light-green-10{fill: #1f801f; opacity: 0.1;}.light-green{fill: #1f801f; opacity: 1;}.light-defaultgrey{fill: #212121; opacity: 1;}</style>
  </defs>
  <title>IconLightShare</title>
  <g id="canvas">
    <path class="canvas" d="M16,16H0V0H16Z" />
  </g>
  <g id="level-1">
    <path class="light-green-10" d="M10.5,9.5v-2a9.556,9.556,0,0,0-7,3c0-7,7-7,7-7v-2l4,4Z" />
    <path class="light-green" d="M15.207,5.5,10,.293V3.032C8.322,3.2,3,4.223,3,10.5v1.371l.883-1.05A9.133,9.133,0,0,1,10,8.014v2.693ZM4.085,9.26C4.834,4.081,10.254,4,10.5,4L11,4V2.707L13.793,5.5,11,8.293V7h-.5A10.141,10.141,0,0,0,4.085,9.26Z" />
    <path class="light-defaultgrey" d="M12,10.121V15H0V4H1V14H11V11.121Z" />
  </g>
</svg>
