<svg xmlns="http://www.w3.org/2000/svg" viewBox="0 0 16 16">
  <defs>
    <style>.canvas{fill: none; opacity: 0;}.light-defaultgrey-10{fill: #212121; opacity: 0.1;}.light-defaultgrey{fill: #212121; opacity: 1;}.light-blue-10{fill: #005dba; opacity: 0.1;}.light-blue{fill: #005dba; opacity: 1;}.cls-1{opacity:0.75;}</style>
  </defs>
  <title>IconLightShareContract</title>
  <g id="canvas" class="canvas">
    <path class="canvas" d="M16,16H0V0H16Z" />
  </g>
  <g id="level-1">
    <g class="cls-1">
      <path class="light-defaultgrey-10" d="M11.5,1.5h-8V7H7.91L9,8.09V14.5h5.5V4.5Z" />
      <path class="light-defaultgrey" d="M14.85,4.15l-3-3L11.5,1h-8L3,1.5V7H4V2h7V5h3v9H9v1h5.5l.5-.5V4.5Z" />
    </g>
    <path class="light-defaultgrey" d="M10,12h4V11H10Z" />
    <path class="light-blue-10" d="M7.5,8.5v7H.5v-7Z" />
    <path class="light-blue" d="M7.5,8H.5L0,8.5v7l.5.5h7l.5-.5v-7ZM7,15H1V9H7ZM6,10.5v3H5V11.707L2.354,14.354l-.708-.708L4.293,11H2.53V10H5.5Z" />
  </g>
</svg>
