<svg xmlns="http://www.w3.org/2000/svg" viewBox="0 0 16 16">
  <defs>
    <style>.canvas{fill: none; opacity: 0;}.light-defaultgrey-10{fill: #212121; opacity: 0.1;}.light-defaultgrey{fill: #212121; opacity: 1;}.cls-1{opacity:0.75;}</style>
  </defs>
  <title>IconLightShowAllCode</title>
  <g id="canvas" class="canvas">
    <path class="canvas" d="M16,16H0V0H16Z" />
  </g>
  <g id="level-1">
    <g class="cls-1">
      <path class="light-defaultgrey-10" d="M13.5,1.5v11h-2v-9h-7v-2Z" />
      <path class="light-defaultgrey" d="M14,1.5v11l-.5.5h-2V12H13V2H5V3.5H4v-2L4.5,1h9Z" />
    </g>
    <path class="light-defaultgrey-10" d="M11.5,14.5V3.5h-9v11Z" />
    <path class="light-defaultgrey" d="M2.5,3h9l.5.5v11l-.5.5h-9L2,14.5V3.5ZM11,4H3V14h8ZM4,9h6v1H4ZM4,5h6V6H4ZM4,7H7V8H4Z" />
  </g>
</svg>
