<svg xmlns="http://www.w3.org/2000/svg" viewBox="0 0 16 16">
  <defs>
    <style>.canvas{fill: none; opacity: 0;}.light-defaultgrey{fill: #212121; opacity: 1;}.light-defaultgrey-10{fill: #212121; opacity: 0.1;}.light-blue{fill: #005dba; opacity: 1;}</style>
  </defs>
  <title>IconLightShowAllAttributes</title>
  <g id="canvas">
    <path class="canvas" d="M16,0V16H0V0Z" />
  </g>
  <g id="level-1">
    <path class="light-defaultgrey" d="M4.5,1,4,1.5v2l.5.5h2L7,3.5v-2L6.5,1ZM6,3H5V2H6Zm4.5-2h-2L8,1.5v2l.5.5h2l.5-.5v-2ZM10,3H9V2h1ZM4.5,5,4,5.5v2l.5.5h2L7,7.5v-2L6.5,5ZM6,7H5V6H6ZM8.5,5,8,5.5v2l.5.5h2l.5-.5v-2L10.5,5ZM10,7H9V6h1Z" />
    <path class="light-defaultgrey-10" d="M4.5,1.5h2v2h-2Zm4,0v2h2v-2Zm-4,6h2v-2h-2Zm4,0h2v-2h-2Z" />
    <path class="light-blue" d="M4.646,11.646l2.5-2.5h.708l2.5,2.5-.708.707L8,10.707V16H7V10.707L5.354,12.353Z" />
  </g>
</svg>
