<svg xmlns="http://www.w3.org/2000/svg" viewBox="0 0 16 16">
  <defs>
    <style>.canvas{fill: none; opacity: 0;}.light-defaultgrey-10{fill: #212121; opacity: 0.1;}.light-defaultgrey{fill: #212121; opacity: 1;}.cls-1{opacity:0.75;}</style>
  </defs>
  <title>IconLightShowMemberTypes</title>
  <g id="canvas">
    <path class="canvas" d="M16,16H0V0H16Z" />
  </g>
  <g id="level-1">
    <g class="cls-1">
      <path class="light-defaultgrey-10" d="M14.5,1.5v9H12V5.086L10.914,4H5.5V1.5Z" />
      <path class="light-defaultgrey" d="M15,1.5v9l-.5.5H12V10h2V2H6V4H5V1.5L5.5,1h9Z" />
    </g>
    <path class="light-defaultgrey" d="M12,4.5v9l-.5.5h-.684A2.966,2.966,0,0,0,11,13V5H3v5a2.966,2.966,0,0,0-1,.184V4.5L2.5,4h9Z" />
    <path class="light-defaultgrey-10" d="M11.5,4.5v9h-.551A2.953,2.953,0,0,0,11,13a3,3,0,0,0-3-3V8H5v2H3a2.942,2.942,0,0,0-.5.051V4.5Z" />
    <path class="light-defaultgrey" d="M7,14.723a2,2,0,1,0,0-3.446V9H6v6H7ZM8,12a1,1,0,1,1-1,1A1,1,0,0,1,8,12ZM3,15a1.987,1.987,0,0,0,1-.277V15H5V11H4v.277A2,2,0,1,0,3,15Zm0-3a1,1,0,1,1-1,1A1,1,0,0,1,3,12Z" />
  </g>
</svg>
