<svg xmlns="http://www.w3.org/2000/svg" viewBox="0 0 16 16">
  <defs>
    <style>.canvas{fill: none; opacity: 0;}.light-defaultgrey-10{fill: #212121; opacity: 0.1;}.light-defaultgrey{fill: #212121; opacity: 1;}</style>
  </defs>
  <title>IconLightShowTrimmedCallTree</title>
  <g id="canvas" class="canvas">
    <path class="canvas" d="M16,16H0V0H16Z" />
  </g>
  <g id="level-1">
    <path class="light-defaultgrey-10" d="M1.5,3A1.5,1.5,0,0,1,3,1.5H8A1.5,1.5,0,0,1,9.5,3V4.5h-2v-1h-4v1h-2Z" />
    <path class="light-defaultgrey" d="M9,4H8V3.5L7.5,3h-4L3,3.5V4H2V3A1,1,0,0,1,3,2H8A1,1,0,0,1,9,3ZM8,1H3A2,2,0,0,0,1,3V4.5l.5.5h2L4,4.5V4H7v.5l.5.5h2l.5-.5V3A2,2,0,0,0,8,1Z" />
    <path class="light-defaultgrey" d="M10,8H4V7h6Zm2,2H6v1h6ZM8,13v1h6V13ZM2.5,6.75a.75.75,0,1,0,.75.75A.75.75,0,0,0,2.5,6.75Zm2,3a.75.75,0,1,0,.75.75A.75.75,0,0,0,4.5,9.75Zm2,3a.75.75,0,1,0,.75.75A.75.75,0,0,0,6.5,12.75Z" />
  </g>
</svg>
