<svg xmlns="http://www.w3.org/2000/svg" viewBox="0 0 16 16">
  <defs>
    <style>.canvas{fill: none; opacity: 0;}.light-defaultgrey-10{fill: #212121; opacity: 0.1;}.light-defaultgrey{fill: #212121; opacity: 1;}</style>
  </defs>
  <title>IconLightShowRelationshipLabels</title>
  <g id="canvas">
    <path class="canvas" d="M0,16V0H16V16Z" />
  </g>
  <g id="level-1">
    <path class="light-defaultgrey-10" d="M11.354,2.5a3,3,0,1,1-2.817,4H8.354l-1,1-1-1-1,1-1-1-1,1-2-2,1-1H8.537A2.992,2.992,0,0,1,11.354,2.5Z" />
    <path class="light-defaultgrey" d="M13.1,5.5a.75.75,0,1,1-.75-.75A.75.75,0,0,1,13.1,5.5Z" />
    <path class="light-defaultgrey" d="M11.354,9A3.5,3.5,0,1,0,8.205,4H2.354L2,4.146l-1,1v.708l2,2h.707l.647-.647L5,7.854h.707l.647-.647L7,7.854h.707l.623-.623A3.49,3.49,0,0,0,11.354,9ZM8.971,6.218H7.929l-.575.575-.647-.647H6l-.646.647-.647-.647H4l-.646.647L2.061,5.5l.5-.5H8.9a2.526,2.526,0,1,1,.067,1.218Z" />
    <path class="light-defaultgrey" d="M8,11a1.987,1.987,0,0,0-1,.277V9H6v6H7v-.277A2,2,0,1,0,8,11Zm0,3a1,1,0,1,1,1-1A1,1,0,0,1,8,14ZM4,11v.277a2,2,0,1,0,0,3.446V15H5V11ZM3,14a1,1,0,1,1,1-1A1,1,0,0,1,3,14Zm10.994.414a2,2,0,1,1,0-2.828l-.707.707a1,1,0,1,0,0,1.414Z" />
  </g>
</svg>
