<svg xmlns="http://www.w3.org/2000/svg" viewBox="0 0 16 16">
  <defs>
    <style>.canvas{fill: none; opacity: 0;}.light-defaultgrey-10{fill: #212121; opacity: 0.1;}.light-defaultgrey{fill: #212121; opacity: 1;}.light-green{fill: #1f801f; opacity: 1;}.light-red{fill: #c50b17; opacity: 1;}.light-lightblue{fill: #0077a0; opacity: 1;}</style>
  </defs>
  <title>IconLightShowOrHideComparisonData</title>
  <g id="canvas" class="canvas">
    <path class="canvas" d="M16,16H0V0H16Z" />
  </g>
  <g id="level-1">
    <path class="light-defaultgrey-10" d="M15.5,1.5v7H10V7.086L8.914,6H7.5V1.5Z" />
    <path class="light-defaultgrey" d="M16,1.5v7l-.5.5H10V8h5V2H8V6H7V1.5L7.5,1h8Z" />
    <path class="light-green" d="M15,5.293V6.707l-2.5-2.5L10.854,5.854h-.708L9.5,5.207,8.707,6H8V5.293L9.146,4.146h.708l.646.647,1.646-1.647h.708Z" />
    <path class="light-defaultgrey-10" d="M.5,7.5h8v7H.5Z" />
    <path class="light-defaultgrey" d="M8.5,15H.5L0,14.5v-7L.5,7h8l.5.5v7ZM1,14H8V8H1Z" />
    <path class="light-red" d="M1,11.293,3.146,9.146l.512-.121,1.207.4L6.293,8H7.707L5.354,10.354l-.512.121-1.207-.4L1,12.707Z" />
    <path class="light-lightblue" d="M8,9.293v1.414L6.354,12.354l-.512.121-1.207-.4L3.707,13h0l-1,1H1.293l2.853-2.854.512-.121,1.207.4Z" />
  </g>
</svg>
