<svg xmlns="http://www.w3.org/2000/svg" viewBox="0 0 16 16">
  <defs>
    <style>.canvas{fill: none; opacity: 0;}.light-defaultgrey-10{fill: #212121; opacity: 0.1;}.light-defaultgrey{fill: #212121; opacity: 1;}.light-blue-10{fill: #005dba; opacity: 0.1;}.light-blue{fill: #005dba; opacity: 1;}</style>
  </defs>
  <title>IconLightShowDataPreview</title>
  <g id="canvas" class="canvas">
    <path class="canvas" d="M16,16H0V0H16Z" />
  </g>
  <g id="level-1">
    <path class="light-defaultgrey-10" d="M14.5,2.5v11H8.607l-1.8-1.76a3.931,3.931,0,0,0,.339-1.6,4,4,0,0,0-4-4,3.988,3.988,0,0,0-.65.065V2.5Z" />
    <path class="light-defaultgrey" d="M14.5,2H2.5L2,2.5V6.331a3.938,3.938,0,0,1,1-.173V5H6V7H5.6A3.985,3.985,0,0,1,7,9.116V8h3v2H7.136c0,.048.014.094.014.143a3.9,3.9,0,0,1-.1.857H10v2H8.1l1.021,1H14.5l.5-.5V2.5ZM10,7H7V5h3Zm4,6H11V11h3Zm0-3H11V8h3Zm0-3H11V5h3Zm0-3H3V3H14Z" />
    <path class="light-blue-10" d="M.65,10.143a2.5,2.5,0,1,1,2.5,2.5A2.5,2.5,0,0,1,.65,10.143Z" />
    <path class="light-blue" d="M9,15.285,5.559,11.914a2.961,2.961,0,1,0-.714.7L8.3,16ZM1.15,10.143a2,2,0,1,1,2,2A2,2,0,0,1,1.15,10.143Z" />
  </g>
</svg>
