<svg xmlns="http://www.w3.org/2000/svg" viewBox="0 0 16 16">
  <defs>
    <style>.canvas{fill: none; opacity: 0;}.light-blue-10{fill: #005dba; opacity: 0.1;}.light-defaultgrey{fill: #212121; opacity: 1;}.light-blue{fill: #005dba; opacity: 1;}.light-defaultgrey-10{fill: #212121; opacity: 0.1;}.cls-1{opacity:0.75;}</style>
  </defs>
  <title>IconLightShowTemplateRegionLabel</title>
  <g id="canvas" class="canvas">
    <path class="canvas" d="M16,16H0V0H16Z" />
  </g>
  <g id="level-1">
    <path class="light-blue-10" d="M15.192,7.808,9.635,13.365,8.153,11.847l5.539-5.539a1.059,1.059,0,0,1,1.5,0A1.062,1.062,0,0,1,15.192,7.808Z" />
    <path class="light-defaultgrey" d="M7,7H1V1H7ZM2,6H6V2H2Z" />
    <path class="light-blue" d="M15.543,5.957a1.562,1.562,0,0,0-2.2,0l-5.25,5.25L6.511,14.453l.675.674L10.181,13.5l5.365-5.336A1.562,1.562,0,0,0,15.543,5.957Zm-.7,1.5-5.2,5.2-.783-.8,5.19-5.189a.56.56,0,0,1,.792.793Z" />
    <g class="cls-1">
      <path class="light-defaultgrey-10" d="M11.38,6.5H6.5v-5h5V6.38ZM6.5,6.5h-5v5h5Z" />
      <path class="light-defaultgrey" d="M6.677,11.823,7,11.158V7h3.88L12,5.88V1.5L11.5,1H6V6H1v5.5l.5.5h5ZM7,2h4V6H7ZM6,11H2V7H6Z" />
    </g>
  </g>
</svg>
