<svg xmlns="http://www.w3.org/2000/svg" viewBox="0 0 16 16">
  <defs>
    <style>.canvas{fill: none; opacity: 0;}.light-defaultgrey-10{fill: #212121; opacity: 0.1;}.light-defaultgrey{fill: #212121; opacity: 1;}.cls-1{opacity:0.75;}</style>
  </defs>
  <title>IconLightShoworHideDeletedItems</title>
  <g id="canvas">
    <path class="canvas" d="M16,16H0V0H16Z" />
  </g>
  <g id="level-1">
    <g class="cls-1">
      <path class="light-defaultgrey-10" d="M11.91,5.5l2.65,2.65L13.15,9.56,10.91,7.32V7.09l-.53-.53-.94-.94-.53-.53H8.68L6.44,2.85,7.85,1.44,10.5,4.09l2.65-2.65,1.41,1.41Z" />
      <path class="light-defaultgrey" d="M14.91,2.5,13.5,1.09h-.71L10.5,3.38,8.21,1.09H7.5L6.09,2.5v.71L7.97,5.09h.94l.53.53V5.15L7.15,2.85l.7-.7,2.3,2.29h.7l2.3-2.29.7.7-2.29,2.3v.7l2.29,2.3-.7.7-2.3-2.29h-.47l.53.53v.94l1.88,1.88h.71L14.91,8.5V7.79L12.62,5.5l2.29-2.29Z" />
    </g>
    <path class="light-defaultgrey-10" d="M6.914,10.5l2.647,2.646L8.146,14.561,5.5,11.914,2.854,14.561,1.439,13.146,4.086,10.5,1.439,7.854,2.854,6.439,5.5,9.086,8.146,6.439,9.561,7.854Z" />
    <path class="light-defaultgrey" d="M8.5,14.914H7.793L5.5,12.621,3.207,14.914H2.5L1.086,13.5v-.707L3.379,10.5,1.086,8.207V7.5L2.5,6.086h.707L5.5,8.379,7.793,6.086H8.5L9.914,7.5v.707L7.621,10.5l2.293,2.293V13.5ZM5.146,11.561h.708l2.292,2.293.708-.708L6.561,10.854v-.708L8.854,7.854l-.708-.708L5.854,9.439H5.146L2.854,7.146l-.708.708,2.293,2.292v.708L2.146,13.146l.708.708Z" />
  </g>
</svg>
