<svg xmlns="http://www.w3.org/2000/svg" viewBox="0 0 16 16">
  <defs>
    <style>.canvas{fill: none; opacity: 0;}.light-blue-10{fill: #005dba; opacity: 0.1;}.light-defaultgrey-10{fill: #212121; opacity: 0.1;}.light-defaultgrey{fill: #212121; opacity: 1;}.light-blue{fill: #005dba; opacity: 1;}.cls-1{opacity:0.75;}</style>
  </defs>
  <title>IconLightShowParentNodeOnly</title>
  <g id="canvas">
    <path class="canvas" d="M16,0V16H0V0Z" />
  </g>
  <g id="level-1">
    <path class="light-blue-10" d="M14.5,9.5a2,2,0,1,1-2-2A2,2,0,0,1,14.5,9.5Z" />
    <g class="cls-1">
      <path class="light-defaultgrey-10" d="M6.5,12.5a2,2,0,1,1-2-2A2,2,0,0,1,6.5,12.5Z" />
      <path class="light-defaultgrey-10" d="M6.5,3.5a2,2,0,1,1-2-2A2,2,0,0,1,6.5,3.5Z" />
      <path class="light-defaultgrey" d="M6.152,5.364,10.6,8.7l.6-.8L6.753,4.565A2.469,2.469,0,0,0,7,3.5,2.5,2.5,0,1,0,4,5.95v4.1a2.5,2.5,0,1,0,1,0V5.95A2.483,2.483,0,0,0,6.152,5.364ZM3,3.5A1.5,1.5,0,1,1,4.5,5,1.5,1.5,0,0,1,3,3.5Zm3,9A1.5,1.5,0,1,1,4.5,11,1.5,1.5,0,0,1,6,12.5Z" />
    </g>
    <path class="light-blue" d="M12.5,7A2.5,2.5,0,1,0,15,9.5,2.5,2.5,0,0,0,12.5,7Zm0,4A1.5,1.5,0,1,1,14,9.5,1.5,1.5,0,0,1,12.5,11Z" />
  </g>
</svg>
