<svg xmlns="http://www.w3.org/2000/svg" viewBox="0 0 16 16">
  <defs>
    <style>.canvas{fill: none; opacity: 0;}.light-defaultgrey-10{fill: #212121; opacity: 0.1;}.light-defaultgrey{fill: #212121; opacity: 1;}.cls-1{opacity:0.75;}</style>
  </defs>
  <title>ShowBuiltIns</title>
  <g id="canvas">
    <path class="canvas" d="M16,16H0V0H16Z" />
  </g>
  <g id="level-1">
    <path class="light-defaultgrey-10" d="M12.5,9.5v2h2v-2Z" />
    <path class="light-defaultgrey-10" d="M6.51.5v3H11.5V.5Z" />
    <path class="light-defaultgrey" d="M11.5,0H6.51l-.5.5v3l.5.5H11.5l.5-.5V.5ZM11,3H7.01V1H11Z" />
    <g class="cls-1">
      <path class="light-defaultgrey" d="M13.5,6h-4V4h-1V6h-4l-.21.21A3.7,3.7,0,0,1,5.64,7H8.5V9h1V7H13V9h1V6.5Z" />
    </g>
    <path class="light-defaultgrey" d="M14.5,9h-2l-.5.5v2l.5.5h2l.5-.5v-2ZM14,11H13V10h1Z" />
    <path class="light-defaultgrey-10" d="M8,9.5v2h2v-2Z" />
    <path class="light-defaultgrey" d="M10,9H8l-.5.5v2L8,12h2l.5-.5v-2Zm-.5,2h-1V10h1Z" />
    <path class="light-defaultgrey" d="M.042,10.5A2.994,2.994,0,0,1,.3,8.705L2.286,10.7,3.7,9.282l-2-1.991a2.983,2.983,0,0,1,3.988,3.983L9,14.586v.707L8.3,16H7.59L4.278,12.688A2.98,2.98,0,0,1,.042,10.5Z" />
  </g>
</svg>
