<svg xmlns="http://www.w3.org/2000/svg" viewBox="0 0 16 16">
  <defs>
    <style>.canvas{fill: none; opacity: 0;}.light-defaultgrey-10{fill: #212121; opacity: 0.1;}.light-defaultgrey{fill: #212121; opacity: 1;}.cls-1{opacity:0.75;}</style>
  </defs>
  <title>IconLightShowReferencedElements</title>
  <g id="canvas">
    <path class="canvas" d="M16,16H0V0H16Z" />
  </g>
  <g id="level-1">
    <g class="cls-1">
      <path class="light-defaultgrey-10" d="M7.5,1.5v3h4v-3Zm6,11v2h2v-2Zm-4.58,0-.42.42V14.5h2v-2Z" />
      <path class="light-defaultgrey" d="M15.5,12H15V8.5L14.5,8H10V5h1.5l.5-.5v-3L11.5,1h-4L7,1.5v3l.5.5H9V8H4.41l1,1H9v3H8.5l-.5.5v2l.5.5h2l.5-.5v-2l-.5-.5H10V9h4v3h-.5l-.5.5v2l.5.5h2l.5-.5v-2ZM8,4V2h3V4Zm2,10H9V13h1Zm5,0H14V13h1Z" />
    </g>
    <path class="light-defaultgrey" d="M7,12,4,15,1,12,4,9Z" />
  </g>
</svg>
