<svg xmlns="http://www.w3.org/2000/svg" viewBox="0 0 16 16">
  <defs>
    <style>.canvas{fill: none; opacity: 0;}.light-defaultgrey{fill: #212121; opacity: 1;}.light-blue{fill: #005dba; opacity: 1;}</style>
  </defs>
  <title>SketchflowTransitionEffect</title>
  <g id="canvas">
    <path class="canvas" d="M16,16H0V0H16Z" />
  </g>
  <g id="level-1">
    <path class="light-defaultgrey" d="M13.45,6.16a2.841,2.841,0,0,0,.9.19c1.29-.03,1.13-1.54.2-1.51-1.29.03-2.12,1.76-2.78,2.81V7.6a14.98,14.98,0,0,0-.5-1.87,1.336,1.336,0,0,0-.65-.75,1.209,1.209,0,0,0-.57-.11c-1.1.06-1.51.12-3.4.15a4.665,4.665,0,0,1,.1-.54,10.5,10.5,0,0,1,.37-1.46,2.757,2.757,0,0,1,.7-1.22.789.789,0,0,1,.52-.22c.33.55.48,1.02,1.11,1.02a.646.646,0,0,0,.53-.23.85.85,0,0,0,.17-.54.662.662,0,0,0-.11-.41,1.04,1.04,0,0,0-.67-.38A3.463,3.463,0,0,0,5.86,3.28a6.43,6.43,0,0,0-.52,1.74H3.99l-.15.64H5.21c-.24,1.13-.44,2.06-.6,2.83L5.68,9.56l.84-3.9s1.56-.02,2.19-.03c.82-.02.98.07,1.11.18a1.186,1.186,0,0,1,.21.28,1.857,1.857,0,0,1,.2.45,10.007,10.007,0,0,1,.36,1.16c.17.67.19.75.25,1.02a9.061,9.061,0,0,1-1.52,1.99c-.57-.15-.63-.32-1.25-.18a.8.8,0,0,0-.52.41.722.722,0,0,0-.07.42.656.656,0,0,0,.37.56.79.79,0,0,0,.38.09,1.586,1.586,0,0,0,1.21-.6A14.684,14.684,0,0,0,10.99,9.3a16.043,16.043,0,0,0,.56,1.91c.28.77.85.88,1.65.76a4.83,4.83,0,0,0,1.28-.43l.12-.46a1.965,1.965,0,0,1-.46.12,3.708,3.708,0,0,1-.47.03.979.979,0,0,1-.61-.17,1.882,1.882,0,0,1-.67-1c-.27-.89-.28-1.06-.48-1.86A8.9,8.9,0,0,1,13.45,6.16Z" />
    <path class="light-blue" d="M3.647,14.646,5.293,13H0V12H5.293L3.647,10.354l.707-.708,2.5,2.5v.708l-2.5,2.5Z" />
  </g>
</svg>
