<svg xmlns="http://www.w3.org/2000/svg" viewBox="0 0 16 16">
  <defs>
    <style>.canvas{fill: none; opacity: 0;}.light-defaultgrey-10{fill: #212121; opacity: 0.1;}</style>
  </defs>
  <title>IconLightSnapToGrid</title>
  <g id="canvas">
    <path class="canvas" d="M16,16H0V0H16Z" />
  </g>
  <g id="level-1">
    <path class="light-defaultgrey-10" d="M7.5,8.5a2,2,0,1,1-2-2A2,2,0,0,1,7.5,8.5Z" />
    <path d="M15,8H7.949A2.505,2.505,0,0,0,6,6.051V1H5V6.051A2.505,2.505,0,0,0,3.051,8H0V9H3.051A2.505,2.505,0,0,0,5,10.949V16H6V10.949A2.505,2.505,0,0,0,7.949,9H15ZM5.5,10A1.5,1.5,0,1,1,7,8.5,1.5,1.5,0,0,1,5.5,10Z" />
  </g>
</svg>
