<svg xmlns="http://www.w3.org/2000/svg" viewBox="0 0 16 16">
  <defs>
    <style>.canvas{fill: none; opacity: 0;}.light-defaultgrey-10{fill: #212121; opacity: 0.1;}.light-defaultgrey{fill: #212121; opacity: 1;}.cls-1{opacity:0.75;}</style>
  </defs>
  <title>IconLightSoftwareDefinitionModel</title>
  <g id="canvas">
    <path class="canvas" d="M16,0V16H0V0Z" />
  </g>
  <g id="level-1">
    <path class="light-defaultgrey-10" d="M10.5,10.5h4v3h-4Z" />
    <path class="light-defaultgrey-10" d="M10.5,2.5h4v3h-4Z" />
    <path class="light-defaultgrey-10" d="M1.5,2.5h4v3h-4Z" />
    <path class="light-defaultgrey" d="M5.5,1h-4L1,1.5v4l.5.5h4L6,5.5v-4ZM5,5H2V3H5Z" />
    <path class="light-defaultgrey" d="M14.5,1h-4l-.5.5v4l.5.5h4l.5-.5v-4ZM14,5H11V3h3Z" />
    <path class="light-defaultgrey" d="M14.5,9h-4l-.5.5v4l.5.5h4l.5-.5v-4ZM14,13H11V11h3Z" />
    <g class="cls-1">
      <path class="light-defaultgrey" d="M10,4H6V3h4Zm0,7H4V6H3v5.5l.5.5H10Z" />
    </g>
  </g>
</svg>
