<svg xmlns="http://www.w3.org/2000/svg" viewBox="0 0 16 16">
  <defs>
    <style>.canvas{fill: none; opacity: 0;}.light-defaultgrey-10{fill: #212121; opacity: 0.1;}.light-defaultgrey{fill: #212121; opacity: 1;}.light-yellow-10{fill: #996f00; opacity: 0.1;}.light-yellow{fill: #996f00; opacity: 1;}.light-blue{fill: #005dba; opacity: 1;}</style>
  </defs>
  <title>IconLightSolutionFolderSwitch</title>
  <g id="canvas" class="canvas">
    <path class="canvas" d="M16,16H0V0H16Z" />
  </g>
  <g id="level-1">
    <path class="light-defaultgrey-10" d="M7.5,9.5v5h-6v-5Z" />
    <path class="light-defaultgrey" d="M7.5,9h-6L1,9.5v5l.5.5h6l.5-.5v-5ZM7,14H2V12H7Zm0-3H2V10H7Z" />
    <path class="light-yellow-10" d="M14.5,2.5v4h-6v-5h2.25l1,1Z" />
    <path class="light-yellow" d="M14.5,2H11.957L11.1,1.146,10.75,1H8.5L8,1.5v5l.5.5h6l.5-.5v-4ZM14,6H9V2h1.543l.853.854L11.75,3H14Z" />
    <path class="light-blue" d="M6.854,3.146v.708l-2,2-.708-.708L5.293,4H2V7H1V3.5L1.5,3H5.293L4.146,1.854l.708-.708Z" />
    <path class="light-blue" d="M15,9v3.5l-.5.5H10.707l1.147,1.146-.708.708-2-2v-.708l2-2,.708.708L10.707,12H14V9Z" />
  </g>
</svg>
