<svg xmlns="http://www.w3.org/2000/svg" viewBox="0 0 16 16">
  <defs>
    <style>.canvas{fill: none; opacity: 0;}.light-blue-10{fill: #005dba; opacity: 0.1;}.light-blue{fill: #005dba; opacity: 1;}.cls-1{opacity:0.25;}.cls-2{opacity:0.75;}</style>
  </defs>
  <title>IconLightSortByType</title>
  <g id="canvas">
    <path class="canvas" d="M16,16H0V0H16Z" />
  </g>
  <g id="level-1">
    <g class="cls-1">
      <path class="light-blue-10" d="M11,6.5v3H7.5V6h3Z" />
      <path class="light-blue" d="M11,9v1H7.5L7,9.5V6H8V9Z" />
    </g>
    <g class="cls-2">
      <path class="light-blue-10" d="M15.5,2.5v7H11v-3L10.5,6h-3V2.5Z" />
      <path class="light-blue" d="M16,2.5v7l-.5.5H11V9h4V3H8V6H7V2.5L7.5,2h8Z" />
    </g>
    <path class="light-blue" d="M11,6.5v7l-.5.5H7.1l.664-.663L7.431,13H10V7H3v.064H2V6.5L2.5,6h8Z" />
    <path class="light-blue-10" d="M10.5,6.5v7H7.6l.164-.163L5.646,11.216,5,11.864v-4.8H2.5V6.5Z" />
    <path class="light-blue" d="M3.854,15.837H3.146l-2.5-2.5.708-.707L3,14.274V7.983H4v6.3L5.646,12.63l.708.707Z" />
  </g>
</svg>
