<svg xmlns="http://www.w3.org/2000/svg" viewBox="0 0 16 16">
  <defs>
    <style>.canvas{fill: none; opacity: 0;}.light-defaultgrey{fill: #212121; opacity: 1;}.light-blue{fill: #005dba; opacity: 1;}</style>
  </defs>
  <title>SortByNamespace</title>
  <g id="canvas">
    <path class="canvas" d="M16,16H0V0H16Z" />
  </g>
  <g id="level-1">
    <path class="light-defaultgrey" d="M15.03,7.6c-.64-.06-.95-.53-.95-1.44V4.13a2.228,2.228,0,0,0-.5-1.59A2.078,2.078,0,0,0,12.1,2H12v.91h.09a1.369,1.369,0,0,1,.44.09.607.607,0,0,1,.29.21,1.186,1.186,0,0,1,.18.41,2.865,2.865,0,0,1,.07.65V6.23c0,.95.31,1.56.89,1.75a1.815,1.815,0,0,0-.89,1.84v1.89a3.06,3.06,0,0,1-.07.67,1.085,1.085,0,0,1-.17.42.773.773,0,0,1-.29.22,1.4,1.4,0,0,1-.45.08H12V14h.1a2.078,2.078,0,0,0,1.48-.54,2.2,2.2,0,0,0,.5-1.58v-2c0-.93.31-1.41.95-1.48l.09-.01V7.61ZM7.93,6.23V4.27a1.8,1.8,0,0,1,.23-1.03.95.95,0,0,1,.75-.33L9,2.9V2H8.9a2.04,2.04,0,0,0-1.48.55,2.2,2.2,0,0,0-.5,1.58V5.5l.85.85-1.9,1.9v.14l.09.01a.9.9,0,0,1,.71.41,1.86,1.86,0,0,1,.25,1.07v2a2.2,2.2,0,0,0,.5,1.58A2.078,2.078,0,0,0,8.9,14H9v-.9H8.9a1.442,1.442,0,0,1-.46-.09.672.672,0,0,1-.29-.24,1,1,0,0,1-.16-.42,2.962,2.962,0,0,1-.06-.64V9.82c0-.98-.31-1.61-.88-1.8C7.64,7.76,7.93,7.16,7.93,6.23Z" />
    <path class="light-blue" d="M.645,6.354l.707-.708L3,7.3V1H4V7.291L5.645,5.646l.707.708-2.5,2.5H3.145Z" />
  </g>
</svg>
