<svg xmlns="http://www.w3.org/2000/svg" viewBox="0 0 16 16">
  <defs>
    <style>.canvas{fill: none; opacity: 0;}.light-defaultgrey-10{fill: #212121; opacity: 0.1;}.light-defaultgrey{fill: #212121; opacity: 1;}.light-lightblue-10{fill: #0077a0; opacity: 0.1;}.light-lightblue{fill: #0077a0; opacity: 1;}</style>
  </defs>
  <title>IconLightSourceBrowserDatabase</title>
  <g id="canvas" class="canvas">
    <path class="canvas" d="M16,16H0V0H16Z" />
  </g>
  <g id="level-1">
    <path class="light-defaultgrey-10" d="M8.5,15.5h-2v-2h2Zm-6,0H.5v-2h2Zm3-7h-2v-2h2Z" />
    <path class="light-defaultgrey" d="M8,11.5V13H7V12H2v1H1V11.5l.5-.5H4V9H5v2H7.5ZM8.5,13h-2l-.5.5v2l.5.5h2l.5-.5v-2ZM8,15H7V14H8ZM2.5,13H.5l-.5.5v2l.5.5h2l.5-.5v-2ZM2,15H1V14H2ZM5.5,6h-2L3,6.5v2l.5.5h2L6,8.5v-2ZM5,8H4V7H5Z" />
    <path class="light-lightblue-10" d="M14.5,3v8c0,.828-1.791,1.5-4,1.5a10.14,10.14,0,0,1-1.157-.071L9,12.086v-1L7.914,10H7V6.086l-.5-.5V3c0-.828,1.791-1.5,4-1.5S14.5,2.172,14.5,3Z" />
    <path class="light-lightblue" d="M6,2.969V5.086l1,1V4.3A7.9,7.9,0,0,0,10.5,5,7.913,7.913,0,0,0,14,4.3V11c0,.29-1.227,1-3.5,1A9.3,9.3,0,0,1,9,11.885v.2l.891.891c.2.011.4.023.609.023,2.236,0,4.5-.687,4.5-2V2.969C15,.344,6,.344,6,2.969Zm8,.046C14,3.3,12.773,4,10.5,4S7,3.3,7,3.015v-.03C7,2.7,8.227,2,10.5,2s3.5.7,3.5.985Z" />
  </g>
</svg>
