<svg xmlns="http://www.w3.org/2000/svg" viewBox="0 0 16 16">
  <defs>
    <style>.canvas{fill: none; opacity: 0;}.light-defaultgrey-10{fill: #212121; opacity: 0.1;}.light-defaultgrey{fill: #212121; opacity: 1;}.cls-1{opacity:0.75;}</style>
  </defs>
  <title>IconLightSpaceDown</title>
  <g id="canvas">
    <path class="canvas" d="M16,0V16H0V0Z" />
  </g>
  <g id="level-1">
    <path class="light-defaultgrey-10" d="M12.5,9.5v2H2.5v-2Zm0-5v2H2.5v-2Z" />
    <path class="light-defaultgrey" d="M12.5,4H2.5L2,4.5v2l.5.5h10l.5-.5v-2ZM12,6H3V5h9ZM2.5,9,2,9.5v2l.5.5h10l.5-.5v-2L12.5,9ZM12,11H3V10h9Z" />
    <g class="cls-1">
      <path class="light-defaultgrey" d="M7,14V12H8v2ZM7,9V7H8V9ZM7,4V2H8V4Z" />
    </g>
  </g>
</svg>
