<svg xmlns="http://www.w3.org/2000/svg" viewBox="0 0 16 16">
  <defs>
    <style>.canvas{fill: none; opacity: 0;}.light-defaultgrey{fill: #212121; opacity: 1;}.light-green{fill: #1f801f; opacity: 1;}</style>
  </defs>
  <title>SpellCheck</title>
  <g id="canvas">
    <path class="canvas" d="M16,16H0V0H16Z" />
  </g>
  <g id="level-1">
    <path class="light-defaultgrey" d="M8,4a1.987,1.987,0,0,0-1,.277V2H6V8H7V7.723A2,2,0,1,0,8,4ZM8,7A1,1,0,1,1,9,6,1,1,0,0,1,8,7ZM4,4v.277A2,2,0,1,0,4,7.723V8H5V4ZM3,7A1,1,0,1,1,4,6,1,1,0,0,1,3,7Zm10.994.414a2,2,0,1,1,0-2.828l-.707.707a1,1,0,1,0,0,1.414Z" />
    <path class="light-green" d="M12.854,9.854l-5,5H7.146l-3-3,.708-.708L7.5,13.793l4.646-4.647Z" />
  </g>
</svg>
