<svg xmlns="http://www.w3.org/2000/svg" viewBox="0 0 16 16">
  <defs>
    <style>.canvas{fill: none; opacity: 0;}.light-defaultgrey-10{fill: #212121; opacity: 0.1;}.light-defaultgrey{fill: #212121; opacity: 1;}</style>
  </defs>
  <title>IconLightSpherePreview</title>
  <g id="canvas">
    <path class="canvas" d="M16,0V16H0V0Z" />
  </g>
  <g id="level-1">
    <path class="light-defaultgrey-10" d="M14.5,8A6.5,6.5,0,1,1,8,1.5,6.5,6.5,0,0,1,14.5,8Z" />
    <path class="light-defaultgrey" d="M8,1a7,7,0,1,0,7,7A7.008,7.008,0,0,0,8,1ZM2,8A6.006,6.006,0,0,1,8,2c.105,0,.209,0,.313.008C8.713,2.424,10,4.068,10,8a15.494,15.494,0,0,1-.11,1.89A15.494,15.494,0,0,1,8,10C4.068,10,2.424,8.713,2.008,8.313,2,8.209,2,8.105,2,8Zm6.314,5.992C8.21,14,8.105,14,8,14A6.009,6.009,0,0,1,2.255,9.73,11.223,11.223,0,0,0,8,11a17.087,17.087,0,0,0,1.719-.084A6.3,6.3,0,0,1,8.314,13.992Zm1.416-.247a9.051,9.051,0,0,0,1.038-2.977A9.051,9.051,0,0,0,13.745,9.73,6.022,6.022,0,0,1,9.73,13.745Zm1.186-4.026A17.087,17.087,0,0,0,11,8,11.223,11.223,0,0,0,9.73,2.255,6.009,6.009,0,0,1,14,8c0,.105,0,.209-.008.313A6.3,6.3,0,0,1,10.916,9.719Z" />
  </g>
</svg>
