<svg xmlns="http://www.w3.org/2000/svg" viewBox="0 0 16 16">
  <defs>
    <style>.canvas{fill: none; opacity: 0;}.light-defaultgrey-10{fill: #212121; opacity: 0.1;}.light-defaultgrey{fill: #212121; opacity: 1;}</style>
  </defs>
  <title>IconLightSplashScreen</title>
  <g id="canvas">
    <path class="canvas" d="M16,16H0V0H16Z" />
  </g>
  <g id="level-1">
    <path class="light-defaultgrey-10" d="M14.5,13.5H.5V3.5h14Z" />
    <path class="light-defaultgrey" d="M14.5,14H.5L0,13.5V3.5L.5,3h14l.5.5v10ZM1,13H14V4H1Z" />
    <path class="light-defaultgrey-10" d="M5.5,8.5h-3v-3h3Z" />
    <path class="light-defaultgrey" d="M5.5,9h-3L2,8.5v-3L2.5,5h3l.5.5v3ZM3,8H5V6H3Z" />
    <path class="light-defaultgrey" d="M11,7H7V6h4Zm2,1H7V9h6Z" />
    <path class="light-defaultgrey" d="M3,12H2V11H3Zm3,0H4V11H6Zm4,0H7V11h3Z" />
  </g>
</svg>
