<svg xmlns="http://www.w3.org/2000/svg" viewBox="0 0 16 16">
  <defs>
    <style>.canvas{fill: none; opacity: 0;}.light-defaultgrey-10{fill: #212121; opacity: 0.1;}.light-defaultgrey{fill: #212121; opacity: 1;}.cls-1{opacity:0.75;}</style>
  </defs>
  <title>IconLightSplitApplication</title>
  <g id="canvas">
    <path class="canvas" d="M16,16H0V0H16Z" />
  </g>
  <g id="level-1">
    <g class="cls-1">
      <path class="light-defaultgrey-10" d="M1.5,5V9H8v4h6.5V5Z" />
      <path class="light-defaultgrey" d="M14.5,5H1.5L1,5.5V9H2V6H14v7H8v1h6.5l.5-.5v-8Z" />
    </g>
    <path class="light-defaultgrey-10" d="M2,3V5H14V3Z" />
    <path class="light-defaultgrey" d="M14.5,2H1.5L1,2.5v3l.5.5h13l.5-.5v-3ZM2,5V3H14V5Z" />
    <path class="light-defaultgrey" d="M0,14H4v1H0Zm0-1H4V12H0Zm5,2H7V14H5Zm0-2H7V12H5ZM0,11H4V10H0Zm5-1v1H7V10Z" />
  </g>
</svg>
