<svg xmlns="http://www.w3.org/2000/svg" viewBox="0 0 16 16">
  <defs>
    <style>.canvas{fill: none; opacity: 0;}.light-defaultgrey-10{fill: #212121; opacity: 0.1;}.light-defaultgrey{fill: #212121; opacity: 1;}</style>
  </defs>
  <title>SplitDocument</title>
  <g id="canvas">
    <path class="canvas" d="M16,16H0V0H16Z" />
  </g>
  <g id="level-1">
    <path class="light-defaultgrey-10" d="M10.5,1.5h-8V10H9v4.5h4.5V4.5Z" />
    <path class="light-defaultgrey" d="M13.85,4.15l-3-3L10.5,1h-8L2,1.5V10H3V2h7V5h3v9H9v1h4.5l.5-.5V4.5Z" />
    <path class="light-defaultgrey" d="M6,15H8v1H6ZM0,16H5V15H0Zm6-2H8V13H6ZM0,14H5V13H0Zm6-2H8V11H6ZM0,12H5V11H0Z" />
  </g>
</svg>
