<svg xmlns="http://www.w3.org/2000/svg" viewBox="0 0 16 16">
  <defs>
    <style>.canvas{fill: none; opacity: 0;}.light-defaultgrey-10{fill: #212121; opacity: 0.1;}.light-blue{fill: #005dba; opacity: 1;}.light-defaultgrey{fill: #212121; opacity: 1;}</style>
  </defs>
  <title>IconLightSplit</title>
  <g id="canvas">
    <path class="canvas" d="M16,0V16H0V0Z" />
  </g>
  <g id="level-1">
    <path class="light-defaultgrey-10" d="M14.5,9.5v5h-5V11.622L11.622,9.5Z" />
    <path class="light-defaultgrey-10" d="M14.5.5v5H11.622L9.5,3.378V.5Z" />
    <path class="light-defaultgrey-10" d="M6.5,9v1.5H.5v-6h6V6H4V9Z" />
    <path class="light-blue" d="M8.647,9.646,10.293,8H5V7h5.293L8.647,5.354l.707-.708,2.5,2.5v.708l-2.5,2.5Z" />
    <path class="light-defaultgrey" d="M7,9v1.5l-.5.5H.5L0,10.5v-6L.5,4h6l.5.5V6H6V5H1v5H6V9Z" />
    <path class="light-defaultgrey" d="M15,9.5v5l-.5.5h-5L9,14.5V11.414l.354.354L10,11.122V14h4V10H11.122l1-1H14.5Z" />
    <path class="light-defaultgrey" d="M15,.5v5l-.5.5H12.122l-1-1H14V1H10V3.878l-.646-.646L9,3.586V.5L9.5,0h5Z" />
  </g>
</svg>
