<svg xmlns="http://www.w3.org/2000/svg" viewBox="0 0 16 16">
  <defs>
    <style>.canvas{fill: none; opacity: 0;}.light-defaultgrey-10{fill: #212121; opacity: 0.1;}.light-defaultgrey{fill: #212121; opacity: 1;}</style>
  </defs>
  <title>IconLightSplitPageItem</title>
  <g id="canvas">
    <path class="canvas" d="M16,0V16H0V0Z" />
  </g>
  <g id="level-1">
    <path class="light-defaultgrey-10" d="M10.5,7.5h4v2h-4Z" />
    <path class="light-defaultgrey-10" d="M10.5,11.5h4v2h-4Z" />
    <path class="light-defaultgrey-10" d="M10.5,3.5h4v2h-4Z" />
    <path class="light-defaultgrey" d="M14.5,3h-4l-.5.5v2l.5.5h4l.5-.5v-2ZM14,5H11V4h3Z" />
    <path class="light-defaultgrey" d="M14.5,7h-4l-.5.5v2l.5.5h4l.5-.5v-2ZM14,9H11V8h3Z" />
    <path class="light-defaultgrey" d="M14.5,11h-4l-.5.5v2l.5.5h4l.5-.5v-2ZM14,13H11V12h3Z" />
    <path class="light-defaultgrey" d="M8,5H1V4H8Z" />
    <path class="light-defaultgrey" d="M8,9H1V8H8Z" />
    <path class="light-defaultgrey" d="M8,13H1V12H8Z" />
  </g>
</svg>
