<svg xmlns="http://www.w3.org/2000/svg" viewBox="0 0 16 16">
  <defs>
    <style>.canvas{fill: none; opacity: 0;}.light-defaultgrey-10{fill: #212121; opacity: 0.1;}.light-lightblue-10{fill: #0077a0; opacity: 0.1;}.light-lightblue{fill: #0077a0; opacity: 1;}.light-defaultgrey{fill: #212121; opacity: 1;}.cls-1{opacity:0.75;}</style>
  </defs>
  <title>IconLightSplineAreaChart</title>
  <g id="canvas">
    <path class="canvas" d="M16,16H0V0H16Z" />
  </g>
  <g id="level-1">
    <path class="light-defaultgrey-10" d="M15,12v2.5H1.5v-9L7,11l3.5-3.5Z" />
    <path class="light-lightblue-10" d="M15,3v9L10.5,7.5,7,11,4,8,9.5,2.5l3,3Z" />
    <path class="light-lightblue" d="M12.5,4.79,9.85,2.15h-.7l-5.5,5.5.71.71L9.5,3.21l2.65,2.64h.7L15,3.71V2.29Z" />
    <path class="light-defaultgrey" d="M15,11.293v1.414l-4.5-4.5L7.354,11.354H6.646L2,6.707V5.293l5,5,3.146-3.147h.708Z" />
    <g class="cls-1">
      <path class="light-defaultgrey" d="M15,14v1H1.5L1,14.5V1H2V14Z" />
    </g>
  </g>
</svg>
