<svg xmlns="http://www.w3.org/2000/svg" viewBox="0 0 16 16">
  <defs>
    <style>.canvas{fill: none; opacity: 0;}.light-defaultgrey{fill: #212121; opacity: 1;}.light-lightblue-10{fill: #0077a0; opacity: 0.1;}.light-lightblue{fill: #0077a0; opacity: 1;}</style>
  </defs>
  <title>IconLightSQLDatabase</title>
  <g id="canvas" class="canvas">
    <path class="canvas" d="M16,16H0V0H16Z" />
  </g>
  <g id="level-1">
    <path class="light-defaultgrey" d="M0,14.788v-.837a2.007,2.007,0,0,0,2.032.271.564.564,0,0,0,.252-.5.54.54,0,0,0-.084-.3,1.444,1.444,0,0,0-.588-.438,6.37,6.37,0,0,1-.9-.472,1.514,1.514,0,0,1-.623-.678,1.28,1.28,0,0,1,.064-1.088A1.878,1.878,0,0,1,1.808,10a2.661,2.661,0,0,1,1.121.175v.8a1.788,1.788,0,0,0-1.073-.3,1.1,1.1,0,0,0-.913.348.5.5,0,0,0-.089.3.587.587,0,0,0,.269.5,4.147,4.147,0,0,0,.76.4c.659.342,1.258.754,1.258,1.494,0,.985-.861,1.349-1.842,1.349A3.237,3.237,0,0,1,0,14.788Zm6.057.277a2.282,2.282,0,0,1-2.334-2.474A2.345,2.345,0,0,1,6.139,10a2.271,2.271,0,0,1,2.293,2.472,2.552,2.552,0,0,1-.926,2.146l1.422,1.026H7.69l-.875-.681A2.833,2.833,0,0,1,6.06,15.065ZM6.1,10.714a1.388,1.388,0,0,0-1.094.5A2.011,2.011,0,0,0,4.58,12.54a2.045,2.045,0,0,0,.41,1.314,1.355,1.355,0,0,0,1.073.5c1.018,0,1.518-.772,1.518-1.8S7.123,10.714,6.1,10.714Zm5.947,4.269H9.331v-4.9h.814V14.3h1.9Z" />
    <path class="light-lightblue-10" d="M4.5,9V3c0-.828,1.791-1.5,4-1.5s4,.672,4,1.5v8c0,.472-.592.887-1.5,1.162V9Z" />
    <path class="light-lightblue" d="M5,9V4.3A7.9,7.9,0,0,0,8.5,5,7.913,7.913,0,0,0,12,4.3V11c0,.153-.348.42-1,.64v1.043c1.158-.322,2-.885,2-1.683V2.969c0-2.625-9-2.625-9,0V9ZM5,2.985C5,2.7,6.227,2,8.5,2s3.5.7,3.5.985v.03C12,3.3,10.773,4,8.5,4S5,3.3,5,3.015Z" />
  </g>
</svg>
