<svg xmlns="http://www.w3.org/2000/svg" viewBox="0 0 16 16">
  <defs>
    <style>.canvas{fill: none; opacity: 0;}.light-defaultgrey{fill: #212121; opacity: 1;}.cls-1{opacity:0.75;}</style>
  </defs>
  <title>IconLightSSlash</title>
  <g id="canvas">
    <path class="canvas" d="M16,16H0V0H16Z" />
  </g>
  <g id="level-1">
    <g class="cls-1">
      <path class="light-defaultgrey" d="M12.765,3.266l-10,10-.53-.532,10-10Z" />
    </g>
    <path class="light-defaultgrey" d="M5.5,6.927a2.268,2.268,0,0,1-.442-.667A2.146,2.146,0,0,1,4.9,5.393a2.005,2.005,0,0,1,.276-1.066A2.342,2.342,0,0,1,5.9,3.58a3.361,3.361,0,0,1,1.03-.438A4.889,4.889,0,0,1,8.112,3a4.711,4.711,0,0,1,1.992.311V3.8l-.617.618A3.638,3.638,0,0,0,8.2,4.2a3.47,3.47,0,0,0-.641.061,1.928,1.928,0,0,0-.571.2,1.238,1.238,0,0,0-.409.359.879.879,0,0,0-.158.529,1,1,0,0,0,.121.5,1.3,1.3,0,0,0,.356.389,3.591,3.591,0,0,0,.481.29L6.343,7.566c-.056-.034-.12-.068-.174-.1A3.645,3.645,0,0,1,5.5,6.927Zm4.8,1.8a2.507,2.507,0,0,0-.486-.7A3.825,3.825,0,0,0,9.4,7.688l-.99.99a1.6,1.6,0,0,1,.4.4.962.962,0,0,1,.148.537,1,1,0,0,1-.447.882,2.442,2.442,0,0,1-1.356.3,3.33,3.33,0,0,1-.571-.054c-.066-.012-.131-.034-.2-.049L5.379,11.713l.006,0c.2.059.409.111.632.155s.441.074.652.1A5.109,5.109,0,0,0,7.207,12a5.813,5.813,0,0,0,1.245-.128,3.193,3.193,0,0,0,1.042-.413,2.157,2.157,0,0,0,.719-.74A2.178,2.178,0,0,0,10.48,9.6,2.047,2.047,0,0,0,10.3,8.724Z" />
  </g>
</svg>
