<svg xmlns="http://www.w3.org/2000/svg" viewBox="0 0 16 16">
  <defs>
    <style>.canvas{fill: none; opacity: 0;}.light-defaultgrey{fill: #212121; opacity: 1;}.light-defaultgrey-10{fill: #212121; opacity: 0.1;}.light-lightblue-10{fill: #0077a0; opacity: 0.1;}.light-lightblue{fill: #0077a0; opacity: 1;}.cls-1{opacity:0.75;}</style>
  </defs>
  <title>IconLightStackedAreaChart</title>
  <g id="canvas">
    <path class="canvas" d="M16,16H0V0H16Z" />
  </g>
  <g id="level-1">
    <g class="cls-1">
      <path class="light-defaultgrey" d="M15,14v1H1.5L1,14.5V1H2V14Z" />
    </g>
    <path class="light-defaultgrey-10" d="M14.5,7.5v5H3.5V6.25l2-1L9,7l2.5-2.5Z" />
    <path class="light-defaultgrey" d="M14.854,7.146l-3-3h-.708L8.9,6.392,5.724,4.8H5.276l-2,1L3,6.25V12.5l.5.5h11l.5-.5v-5ZM14,12H4V6.559l1.5-.75L8.776,7.447l.578-.093L11.5,5.207l2.5,2.5Z" />
    <path class="light-lightblue-10" d="M14.5,11.5v1H3.5v-2h4l4-2Z" />
    <path class="light-lightblue" d="M14.854,11.146l-3-3-.578-.093L7.382,10H3.5l-.5.5v2l.5.5h11l.5-.5v-1ZM14,12H4V11H7.5l.224-.053L11.4,9.108l2.6,2.6Z" />
  </g>
</svg>
