<svg xmlns="http://www.w3.org/2000/svg" viewBox="0 0 16 16">
  <defs>
    <style>.canvas{fill: none; opacity: 0;}.light-defaultgrey{fill: #212121; opacity: 1;}.light-lightblue-10{fill: #0077a0; opacity: 0.1;}.light-lightblue{fill: #0077a0; opacity: 1;}.light-defaultgrey-10{fill: #212121; opacity: 0.1;}.cls-1{opacity:0.75;}</style>
  </defs>
  <title>IconLightStackedBarDashLineChart</title>
  <g id="canvas">
    <path class="canvas" d="M16,16H0V0H16Z" />
  </g>
  <g id="level-1">
    <g class="cls-1">
      <path class="light-defaultgrey" d="M15,14v1H1.5L1,14.5V1H2V14Z" />
    </g>
    <path class="light-lightblue-10" d="M8.5,6.5v2h-5v-2Z" />
    <path class="light-lightblue" d="M8.5,6h-5L3,6.5v2l.5.5h5L9,8.5v-2ZM8,8H4V7H8Z" />
    <path class="light-lightblue-10" d="M12.5,6.5v2h-2v-2Z" />
    <path class="light-lightblue" d="M12.5,6h-2l-.5.5v2l.5.5h2l.5-.5v-2ZM12,8H11V7h1Z" />
    <path class="light-defaultgrey" d="M15,2V3H14V2ZM14,4V5h1V4Zm0,2V7h1V6Zm0,2V9h1V8Zm0,2v1h1V10Zm1,2H14v1h1Z" />
    <path class="light-defaultgrey-10" d="M7.5,2.5v2h-4v-2Z" />
    <path class="light-defaultgrey" d="M7.5,2h-4L3,2.5v2l.5.5h4L8,4.5v-2ZM7,4H4V3H7Z" />
    <path class="light-defaultgrey-10" d="M11.5,2.5v2h-2v-2Z" />
    <path class="light-defaultgrey" d="M11.5,2h-2L9,2.5v2l.5.5h2l.5-.5v-2ZM11,4H10V3h1Z" />
    <path class="light-defaultgrey-10" d="M12.5,10.5v2h-9v-2Z" />
    <path class="light-defaultgrey" d="M12.5,10h-9l-.5.5v2l.5.5h9l.5-.5v-2ZM12,12H4V11h8Z" />
  </g>
</svg>
