<svg xmlns="http://www.w3.org/2000/svg" viewBox="0 0 16 16">
  <defs>
    <style>.canvas{fill: none; opacity: 0;}.light-defaultgrey{fill: #212121; opacity: 1;}.light-defaultgrey-10{fill: #212121; opacity: 0.1;}.light-lightblue-10{fill: #0077a0; opacity: 0.1;}.light-lightblue{fill: #0077a0; opacity: 1;}.cls-1{opacity:0.75;}</style>
  </defs>
  <title>IconLightStackedColumnDashLineChart</title>
  <g id="canvas">
    <path class="canvas" d="M16,16H0V0H16Z" />
  </g>
  <g id="level-1">
    <g class="cls-1">
      <path class="light-defaultgrey" d="M15,14v1H1.5L1,14.5V1H2V14Z" />
    </g>
    <path class="light-defaultgrey" d="M3,1H4V2H3ZM5,2H6V1H5ZM7,2H8V1H7ZM9,2h1V1H9Zm2,0h1V1H11Zm2-1V2h1V1Z" />
    <path class="light-defaultgrey-10" d="M3.5,4.5h2v8h-2Z" />
    <path class="light-defaultgrey" d="M3,4.5v8l.5.5h2l.5-.5v-8L5.5,4h-2ZM5,5v7H4V5Z" />
    <path class="light-defaultgrey-10" d="M11.5,8.5h2v4h-2Z" />
    <path class="light-defaultgrey" d="M11,8.5v4l.5.5h2l.5-.5v-4L13.5,8h-2ZM13,9v3H12V9Z" />
    <path class="light-defaultgrey-10" d="M11.5,4.5h2v2h-2Z" />
    <path class="light-defaultgrey" d="M11,4.5v2l.5.5h2l.5-.5v-2L13.5,4h-2ZM13,5V6H12V5Z" />
    <path class="light-lightblue-10" d="M7.5,7.5h2v5h-2Z" />
    <path class="light-lightblue" d="M7,7.5v5l.5.5h2l.5-.5v-5L9.5,7h-2ZM9,8v4H8V8Z" />
    <path class="light-lightblue-10" d="M7.5,3.5h2v2h-2Z" />
    <path class="light-lightblue" d="M7,3.5v2l.5.5h2l.5-.5v-2L9.5,3h-2ZM9,4V5H8V4Z" />
  </g>
</svg>
