<svg xmlns="http://www.w3.org/2000/svg" viewBox="0 0 16 16">
  <defs>
    <style>.canvas{fill: none; opacity: 0;}.light-defaultgrey{fill: #212121; opacity: 1;}.light-defaultgrey-10{fill: #212121; opacity: 0.1;}.light-green{fill: #1f801f; opacity: 1;}.cls-1{opacity:0.75;}</style>
  </defs>
  <title>IconLightStartHierarchy</title>
  <g id="canvas">
    <path class="canvas" d="M16,0V16H0V0Z" />
  </g>
  <g id="level-1">
    <g class="cls-1">
      <path class="light-defaultgrey" d="M13,7.5v2H12V8H5V9.5H4v-2L4.5,7H8V5.5H9V7h3.5Z" />
    </g>
    <path class="light-defaultgrey-10" d="M14.5,9.5v4h-4v-4Zm-12,4h4v-4h-4Zm8-12h-4V2.56l.5.29L9.02,4,7.27,5l-.77.44V5.5h4Z" />
    <path class="light-defaultgrey" d="M14.5,9h-4l-.5.5v4l.5.5h4l.5-.5v-4ZM14,13H11V10h3ZM2.5,9,2,9.5v4l.5.5h4l.5-.5v-4L6.5,9ZM6,13H3V10H6ZM6.5,2.56,6,2.28V1.5L6.5,1h4l.5.5v4l-.5.5h-4l-.36-.36.36-.2L7.27,5H10V2H7v.85Z" />
    <path class="light-green" d="M0,0,7,4,0,8Z" />
  </g>
</svg>
