<svg xmlns="http://www.w3.org/2000/svg" viewBox="0 0 16 16">
  <defs>
    <style>.canvas{fill: none; opacity: 0;}.light-blue-10{fill: #005dba; opacity: 0.1;}.light-blue{fill: #005dba; opacity: 1;}.light-green{fill: #1f801f; opacity: 1;}</style>
  </defs>
  <title>StartWebSite</title>
  <g id="canvas">
    <path class="canvas" d="M16,16H0V0H16Z" />
  </g>
  <g id="level-1">
    <path class="light-blue-10" d="M12.6,3.4A6.509,6.509,0,0,0,8,1.5,6.351,6.351,0,0,0,5.52,2l.56.32.07.04.88.5L9.02,4,7.27,5,4.61,6.52,2,8v.01l-.49.28a6.533,6.533,0,0,0,.11.98,6.506,6.506,0,0,0,8.87,4.74A6.512,6.512,0,0,0,12.6,3.4Z" />
    <path class="light-blue" d="M12.95,3.05A7,7,0,0,0,4.97,1.69L5.52,2l.56.32a.694.694,0,0,1,.13-.05l-.06.09.88.5a8.049,8.049,0,0,1,.6-.84C7.75,2.01,7.87,2,8,2s.25.01.37.02A9.327,9.327,0,0,1,10,5H7.27L4.61,6.52A10.177,10.177,0,0,0,4.7,10H2.35A5.873,5.873,0,0,1,2,8.01l-.49.28-.49.27a7.5,7.5,0,0,0,.11.81A7,7,0,1,0,12.95,3.05ZM8,14c-.13,0-.25-.01-.37-.02A9.525,9.525,0,0,1,6,11h4.01a9.525,9.525,0,0,1-1.63,2.98C8.25,13.99,8.13,14,8,14Zm3.05-3h2.14a6.067,6.067,0,0,1-3.4,2.73A10.733,10.733,0,0,0,11.05,11Zm.25-1a10.354,10.354,0,0,0,0-4h2.35a5.85,5.85,0,0,1,0,4ZM9.79,2.27A6.067,6.067,0,0,1,13.19,5H11.05A10.577,10.577,0,0,0,9.79,2.27ZM5.72,6h4.56a9.648,9.648,0,0,1,.22,2,9.648,9.648,0,0,1-.22,2H5.72A9.648,9.648,0,0,1,5.5,8,9.648,9.648,0,0,1,5.72,6Zm-.77,5a10.256,10.256,0,0,0,1.26,2.73A6.067,6.067,0,0,1,2.81,11Z" />
    <path class="light-green" d="M0,0,7,4,0,8Z" />
  </g>
</svg>
