<svg xmlns="http://www.w3.org/2000/svg" viewBox="0 0 16 16">
  <defs>
    <style>.canvas{fill: none; opacity: 0;}.light-defaultgrey{fill: #212121; opacity: 1;}.light-defaultgrey-10{fill: #212121; opacity: 0.1;}.cls-1{opacity:0.75;}</style>
  </defs>
  <title>IconLightStash</title>
  <g id="canvas" class="canvas">
    <path class="canvas" d="M16,16H0V0H16Z" />
  </g>
  <g id="level-1">
    <g class="cls-1">
      <path class="light-defaultgrey" d="M13.5,16H1.5L1,15.5V9H2v6H13V9h1v6.5Z" />
    </g>
    <path class="light-defaultgrey-10" d="M10.5,7.5a3,3,0,1,1-3-3A3,3,0,0,1,10.5,7.5Z" />
    <path class="light-defaultgrey" d="M11,7.5A3.494,3.494,0,0,0,8,4.051V2H7V4.051a3.483,3.483,0,0,0,0,6.9V13H8V10.949A3.494,3.494,0,0,0,11,7.5ZM7.5,10A2.5,2.5,0,1,1,10,7.5,2.5,2.5,0,0,1,7.5,10Z" />
  </g>
</svg>
