<svg xmlns="http://www.w3.org/2000/svg" viewBox="0 0 16 16">
  <defs>
    <style>.canvas{fill: none; opacity: 0;}.white{fill: #ffffff; opacity: 1;}</style>
  </defs>
  <title>StatusBarBuild8</title>
  <g id="canvas">
    <path class="canvas" d="M16,16H0V0H16Z" />
  </g>
  <g id="level-1">
    <path class="white" d="M15,7v7.5l-.5.5H1.5L1,14.5V7H2v7H14V7ZM11.354,9.357l-2.5,2.5H8.146l-2.5-2.5.708-.707L8,10.3V6H9V10.3L10.646,8.65ZM6,4H7V5H6ZM3,5H4V4H3Zm2,8H6V12H5ZM5,7H6V6H5ZM3,11H4V10H3Zm9-5V7h1V6Zm0,6h1V11H12Zm-2,1h1V12H10Zm0-8h1V4H10Zm2-3H11V3h1ZM7,3H8V2H7Z" />
  </g>
</svg>
