<svg xmlns="http://www.w3.org/2000/svg" viewBox="0 0 16 16">
  <defs>
    <style>.canvas{fill: none; opacity: 0;}.white{fill: #ffffff; opacity: 1;}</style>
  </defs>
  <title>StatusBarPrint1</title>
  <g id="canvas">
    <path class="canvas" d="M16,16H0V0H16Z" />
  </g>
  <g id="level-1">
    <path class="white" d="M11.5,10h-7l-.5.5v4l.5.5h7l.5-.5v-4ZM11,14H5V11h6ZM12,1.5V6H11V2H5V6H4V1.5L4.5,1h7ZM10,6H6V3h4Zm5,1.5v5l-.5.5H12V12h2V7.5a.5.5,0,0,0-.5-.5H2.5a.5.5,0,0,0-.5.5V12H4v1H1.5L1,12.5v-5A1.5,1.5,0,0,1,2.5,6h11A1.5,1.5,0,0,1,15,7.5ZM4,8V9H3V8Z" />
  </g>
</svg>
