<svg xmlns="http://www.w3.org/2000/svg" viewBox="0 0 16 16">
  <defs>
    <style>.canvas{fill: none; opacity: 0;}.white{fill: #ffffff; opacity: 1;}</style>
  </defs>
  <title>StatusBarPrint2</title>
  <g id="canvas">
    <path class="canvas" d="M16,16H0V0H16Z" />
  </g>
  <g id="level-1">
    <path class="white" d="M3,8H4V9H3Zm12-.5v5l-.5.5H12v1.5l-.5.5h-7L4,14.5V13H1.5L1,12.5v-5A1.5,1.5,0,0,1,2.5,6H4V1.5L4.5,1h7l.5.5V6h1.5A1.5,1.5,0,0,1,15,7.5ZM5,6H6V3h4V6h1V2H5Zm6,5H5v3h6Zm3-3.5a.5.5,0,0,0-.5-.5H2.5a.5.5,0,0,0-.5.5V12H4V10.5l.5-.5h7l.5.5V12h2Z" />
  </g>
</svg>
