<svg xmlns="http://www.w3.org/2000/svg" viewBox="0 0 16 16">
  <defs>
    <style>.canvas{fill: none; opacity: 0;}.light-red{fill: #c50b17; opacity: 1;}.white{fill: #ffffff; opacity: 1;}.light-yellow{fill: #996f00; opacity: 1;}</style>
  </defs>
  <title>StatusErrorNew</title>
  <g id="canvas">
    <path class="canvas" d="M16,16H0V0H16Z" />
  </g>
  <g id="level-1">
    <path class="light-red" d="M7.5,1a6.5,6.5,0,0,0,0,13c.17,0,.34-.01.5-.02V12.5a4.47,4.47,0,0,1,.99-2.81,3.866,3.866,0,0,1,.7-.7A4.47,4.47,0,0,1,12.5,8h1.48c.01-.16.02-.33.02-.5A6.513,6.513,0,0,0,7.5,1Z" />
    <path class="white" d="M10.6,5.1l-.7-.7L7.5,6.79,5.1,4.4l-.7.7L6.79,7.5,4.4,9.9l.7.7L7.5,8.21,8.99,9.69a3.866,3.866,0,0,1,.7-.7L8.21,7.5Z" />
    <path class="light-yellow" d="M13,11l-.505.5L12,11V9h1ZM10.379,9.672l-.707.707,1.414,1.414.7,0,0-.711ZM9,12v1h2l.5-.495L11,12Zm.672,2.621.707.707,1.414-1.414,0-.7-.711,0ZM12,16h1V14l-.495-.5L12,14Zm2.621-.672.707-.707-1.414-1.414-.7,0,0,.711ZM16,13V12H14l-.5.495L14,13Zm-.672-2.621-.707-.707-1.414,1.414,0,.7.711,0Z" />
  </g>
</svg>
