<svg xmlns="http://www.w3.org/2000/svg" viewBox="0 0 12 12">
  <defs>
    <style>.canvas{fill: none; opacity: 0;}.light-blue{fill: #005dba; opacity: 1;}.white{fill: #ffffff; opacity: 1;}</style>
  </defs>
  <title>StatusHelp.12.12</title>
  <title>StatusHelp.12.12</title>
  <g id="canvas">
    <path class="canvas" d="M12,12H0V0H12Z" />
  </g>
  <g id="level-1">
    <path class="light-blue" d="M6,11a5,5,0,1,1,5-5A5.005,5.005,0,0,1,6,11Z" />
    <path class="white" d="M6.675,8.5A.675.675,0,1,1,6,7.826.675.675,0,0,1,6.675,8.5Z" />
    <path class="white" d="M8.115,3.981A1.886,1.886,0,0,0,7.5,2.586,2.21,2.21,0,0,0,5.086,2.2a1.924,1.924,0,0,0-1.2,1.68h.9a1.086,1.086,0,0,1,.308-.66,1.258,1.258,0,0,1,.94-.381,1.229,1.229,0,0,1,.831.344,1.109,1.109,0,0,1,.346.8.692.692,0,0,1-.143.487,3.876,3.876,0,0,1-.7.724,2.484,2.484,0,0,0-.421.415,2.113,2.113,0,0,0-.29.488,1.592,1.592,0,0,0-.113.618V7h.9A2.244,2.244,0,0,1,6.5,6.421a.813.813,0,0,1,.248-.393c.117-.113.235-.221.349-.325C7.664,5.182,8.115,4.771,8.115,3.981Z" />
  </g>
</svg>
