<svg xmlns="http://www.w3.org/2000/svg" viewBox="0 0 16 16">
  <defs>
    <style>.canvas{fill: none; opacity: 0;}.white{fill: #ffffff; opacity: 1;}</style>
  </defs>
  <title>StatusBarDeploy4</title>
  <g id="canvas">
    <path class="canvas" d="M16,16H0V0H16Z" />
  </g>
  <g id="level-1">
    <path class="white" d="M5.447,11,5,11.447v2.106L5.447,14H7.553L8,13.553V11.447L7.553,11ZM7,13.024H6V12H7ZM6.447,6,6,6.447V8.553L6.447,9H8.553L9,8.553V6.447L8.553,6ZM8,8H7V7H8Zm4.553-1H10.447L10,7.447V9.553l.447.447h2.106L13,9.553V7.447ZM12,9H11V8h1ZM9,5V4.271L7.745,3H3v8h.75v1H2.5L2,11.5v-9L2.5,2H8l.354.146,1.5,1.5L10,4V5Z" />
  </g>
</svg>
