<svg xmlns="http://www.w3.org/2000/svg" viewBox="0 0 16 16">
  <defs>
    <style>.canvas{fill: none; opacity: 0;}.white{fill: #ffffff; opacity: 1;}</style>
  </defs>
  <title>StatusBarDeploy3</title>
  <g id="canvas">
    <path class="canvas" d="M16,16H0V0H16Z" />
  </g>
  <g id="level-1">
    <path class="white" d="M5.125,9.625l-.5.5v1.75l.5.5h1.75l.5-.5v-1.75l-.5-.5Zm1.25,1.75h-.75v-.75h.75ZM9,9.375h1V11.5l-.5.5H8.375V11H9Zm1.875-3.75H9.125l-.5.5v1.75l.5.5h1.75l.5-.5V6.125Zm-.5,1.75h-.75v-.75h.75ZM9,4.271,7.745,3H3v8h.625v1H2.5L2,11.5v-9L2.5,2H8l.354.146,1.5,1.5L10,4v.625H9ZM5.125,5.625l-.5.5v1.75l.5.5h1.75l.5-.5V6.125l-.5-.5Zm1.25,1.75h-.75v-.75h.75Z" />
  </g>
</svg>
