<svg xmlns="http://www.w3.org/2000/svg" viewBox="0 0 16 16">
  <defs>
    <style>.canvas{fill: none; opacity: 0;}.white{fill: #ffffff; opacity: 1;}</style>
  </defs>
  <title>StatusBarSearch4</title>
  <g id="canvas">
    <path class="canvas" d="M16,16H0V0H16Z" />
  </g>
  <g id="level-1">
    <path class="white" d="M5.28,6.78,5,6.5v-5L5.5,1H7.556a4.027,4.027,0,0,0-.922,1H6V6h.076ZM15.5,1h-3l-.025.025A4.016,4.016,0,0,1,13.366,2H15V8H13V6.762a4,4,0,0,1-1,.825V8.5l.5.5h3l.5-.5v-7ZM10,7.143a2.982,2.982,0,0,1-1.7-.528L4.85,10l-.7-.714L7.592,5.914A2.964,2.964,0,0,1,7,4.143a3,3,0,1,1,3,3Zm2-3a2,2,0,1,0-2,2A2,2,0,0,0,12,4.143Z" />
  </g>
</svg>
