<svg xmlns="http://www.w3.org/2000/svg" viewBox="0 0 16 16">
  <defs>
    <style>.canvas{fill: none; opacity: 0;}.light-defaultgrey-10{fill: #212121; opacity: 0.1;}.light-defaultgrey{fill: #212121; opacity: 1;}.light-blue{fill: #005dba; opacity: 1;}.cls-1{opacity:0.75;}</style>
  </defs>
  <title>IconLightState</title>
  <g id="canvas">
    <path class="canvas" d="M16,16H0V0H16Z" />
  </g>
  <g id="level-1">
    <g class="cls-1">
      <path class="light-defaultgrey-10" d="M1.5,5V6.15A2.784,2.784,0,0,1,2,6.04,2.737,2.737,0,0,1,2.5,6a3.5,3.5,0,0,1,2.16,6.25l.75.75H14.5V5Z" />
      <path class="light-defaultgrey" d="M14.5,5H1.5L1,5.5v.85a2.374,2.374,0,0,1,.5-.2A2.784,2.784,0,0,1,2,6.04V6H14v7H5.41l1.01,1H14.5l.5-.5v-8Z" />
    </g>
    <path class="light-defaultgrey-10" d="M2,3V5H14V3Z" />
    <path class="light-defaultgrey" d="M14.5,2H1.5L1,2.5v3l.5.5h13l.5-.5v-3ZM2,5V3H14V5Z" />
    <path class="light-blue" d="M3,14.293V11.95a2.5,2.5,0,1,0-1,0v2.343L.854,13.146l-.708.708,2,2h.708l2-2-.708-.708ZM1,9.5A1.5,1.5,0,1,1,2.5,11,1.5,1.5,0,0,1,1,9.5Z" />
  </g>
</svg>
