<svg xmlns="http://www.w3.org/2000/svg" viewBox="0 0 16 16">
  <defs>
    <style>.canvas{fill: none; opacity: 0;}.light-defaultgrey-10{fill: #212121; opacity: 0.1;}.light-defaultgrey{fill: #212121; opacity: 1;}</style>
  </defs>
  <title>IconLightStatusNoOutline</title>
  <g id="canvas" class="canvas">
    <path class="canvas" d="M16,16H0V0H16Z" />
  </g>
  <g id="level-1">
    <path class="light-defaultgrey-10" d="M13.5,7.5a6,6,0,1,1-6-6A6,6,0,0,1,13.5,7.5Z" />
    <path class="light-defaultgrey" d="M7.5,1A6.5,6.5,0,1,0,14,7.5,6.508,6.508,0,0,0,7.5,1Zm0,12A5.5,5.5,0,1,1,13,7.5,5.506,5.506,0,0,1,7.5,13Z" />
    <path class="light-defaultgrey" d="M11.724,11.017a5.621,5.621,0,0,1-.707.707L3.276,3.983a5.621,5.621,0,0,1,.707-.707Z" />
  </g>
</svg>
