<svg xmlns="http://www.w3.org/2000/svg" viewBox="0 0 16 16">
  <defs>
    <style>.canvas{fill: none; opacity: 0;}.white{fill: #ffffff; opacity: 1;}</style>
  </defs>
  <title>StatusBarTest1</title>
  <g id="canvas">
    <path class="canvas" d="M16,16H0V0H16Z" />
  </g>
  <g id="level-1">
    <path class="white" d="M13.944,12.7,10,6.519V2h1V1H5V2H6V6.519L2.059,12.693A1.5,1.5,0,0,0,3.324,15h9.352a1.5,1.5,0,0,0,1.268-2.3Zm-.83,1.042a.483.483,0,0,1-.438.259H3.324a.5.5,0,0,1-.422-.77L7,6.811V2H9V6.811l4.1,6.426A.485.485,0,0,1,13.114,13.741Z" />
  </g>
</svg>
