<svg xmlns="http://www.w3.org/2000/svg" viewBox="0 0 16 16">
  <defs>
    <style>.canvas{fill: none; opacity: 0;}.white{fill: #ffffff; opacity: 1;}</style>
  </defs>
  <title>StatusBarDeploy7</title>
  <g id="canvas">
    <path class="canvas" d="M16,16H0V0H16Z" />
  </g>
  <g id="level-1">
    <path class="white" d="M7.5,8l.5.5v4l-.5.5H6V12H7V9H4v1H3V8.5L3.5,8Zm5-3h-4L8,5.5V7.086l1,1V6h3V9H9v1h3.5l.5-.5v-4Zm-8,6,.5.5v4l-.5.5H.5L0,15.5v-4L.5,11ZM4,12H1v3H4ZM3,3H7.745l.987,1H10l-.146-.354-1.5-1.5L8,2H2.5L2,2.5V8.086l1-1Z" />
  </g>
</svg>
