<svg xmlns="http://www.w3.org/2000/svg" viewBox="0 0 16 16">
  <defs>
    <style>.canvas{fill: none; opacity: 0;}.white{fill: #ffffff; opacity: 1;}</style>
  </defs>
  <title>StatusBarBuild7</title>
  <g id="canvas">
    <path class="canvas" d="M16,16H0V0H16Z" />
  </g>
  <g id="level-1">
    <path class="white" d="M10,12V11h1v1ZM8,4V8.3L6.354,6.65l-.708.707,2.5,2.5h.708l2.5-2.5-.708-.707L9,8.3V4Zm3-1H10V4h1Zm1-2H11V2h1Zm1,4H12V6h1Zm-1,5h1V9H12ZM6,5H5V6H6ZM8,1H7V2H8ZM3.99,8H3V9h.99ZM14,7v7H2V7H1v7.5l.5.5h13l.5-.5V7ZM4,3H3V4H4ZM7,3H6V4H7ZM6,11H5v1H6Z" />
  </g>
</svg>
