<svg xmlns="http://www.w3.org/2000/svg" viewBox="0 0 13 13">
  <defs>
    <style>.canvas{fill: none; opacity: 0;}.light-red-10{fill: #c50b17; opacity: 0.1;}.light-red{fill: #c50b17; opacity: 1;}</style>
  </defs>
  <title>StatusNo.13.13</title>
  <title>IconLightStatusNo.13.13</title>
  <g id="canvas">
    <path class="canvas" d="M13,13H0V0H13Z" />
  </g>
  <g id="level-1">
    <path class="light-red-10" d="M11.5,6.5a5,5,0,1,1-5-5A5,5,0,0,1,11.5,6.5Z" />
    <path class="light-red" d="M6.5,1A5.5,5.5,0,1,0,12,6.5,5.506,5.506,0,0,0,6.5,1ZM2,6.5A4.455,4.455,0,0,1,3,3.707L9.293,10A4.453,4.453,0,0,1,6.5,11,4.505,4.505,0,0,1,2,6.5Zm8,2.793L3.707,3A4.455,4.455,0,0,1,6.5,2,4.505,4.505,0,0,1,11,6.5,4.455,4.455,0,0,1,10,9.293Z" />
  </g>
</svg>
