<svg xmlns="http://www.w3.org/2000/svg" viewBox="0 0 16 16">
  <defs>
    <style>.canvas{fill: none; opacity: 0;}.white{fill: #ffffff; opacity: 1;}</style>
  </defs>
  <title>StatusBarSearch6</title>
  <g id="canvas">
    <path class="canvas" d="M16,16H0V0H16Z" />
  </g>
  <g id="level-1">
    <path class="white" d="M12,5.142V1.5l.5-.5h3l.5.5V6.382a4,4,0,0,0-1-.826V2H13V5A3.939,3.939,0,0,0,12,5.142Zm-1,.414V1.5L10.5,1h-5L5,1.5v5l.5.5H9.556A4.014,4.014,0,0,1,11,5.556ZM6,2h4V6H6ZM7.85,14.857l3.455-3.385a3.078,3.078,0,1,0-.713-.7L7.15,14.143ZM13,11a2,2,0,1,1,2-2A2,2,0,0,1,13,11Z" />
  </g>
</svg>
