<svg xmlns="http://www.w3.org/2000/svg" viewBox="0 0 15 15">
  <defs>
    <style>.canvas{fill: none; opacity: 0;}.light-defaultgrey-10{fill: #212121; opacity: 0.1;}.light-defaultgrey{fill: #212121; opacity: 1;}</style>
  </defs>
  <title>StatusNoNoColor.15.15</title>
  <title>IconLightStatusNoNoColor.15.15</title>
  <g id="canvas">
    <path class="canvas" d="M15,15H0V0H15Z" />
  </g>
  <g id="level-1">
    <path class="light-defaultgrey-10" d="M13.5,7.5a6,6,0,1,1-6-6A6,6,0,0,1,13.5,7.5Z" />
    <path class="light-defaultgrey" d="M7.5,1A6.5,6.5,0,1,0,14,7.5,6.508,6.508,0,0,0,7.5,1ZM2,7.5A5.472,5.472,0,0,1,3.276,3.983l7.741,7.741A5.5,5.5,0,0,1,2,7.5Zm9.724,3.517L3.983,3.276a5.5,5.5,0,0,1,7.741,7.741Z" />
  </g>
</svg>
