<svg xmlns="http://www.w3.org/2000/svg" viewBox="0 0 13 13">
  <defs>
    <style>.canvas{fill: none; opacity: 0;}.light-blue{fill: #005dba; opacity: 1;}.white{fill: #ffffff; opacity: 1;}</style>
  </defs>
  <title>StatusHelp.13.13</title>
  <title>StatusHelp.13.13</title>
  <g id="canvas">
    <path class="canvas" d="M13,13H0V0H13Z" />
  </g>
  <g id="level-1">
    <path class="light-blue" d="M6.512,12a5.5,5.5,0,1,1,5.5-5.5A5.505,5.505,0,0,1,6.512,12Z" />
    <path class="white" d="M7.249,9.509a.743.743,0,1,1-.743-.742A.743.743,0,0,1,7.249,9.509ZM8.754,4.531a1.988,1.988,0,0,0-.649-1.467,2.325,2.325,0,0,0-2.536-.408A2.026,2.026,0,0,0,4.306,4.422h.949a1.137,1.137,0,0,1,.324-.694,1.322,1.322,0,0,1,.988-.4,1.289,1.289,0,0,1,.873.361,1.164,1.164,0,0,1,.364.842.724.724,0,0,1-.15.512,4.085,4.085,0,0,1-.735.761,2.659,2.659,0,0,0-.443.436,2.234,2.234,0,0,0-.3.513,1.657,1.657,0,0,0-.119.65v.3h.941A2.34,2.34,0,0,1,7.051,7.1a.851.851,0,0,1,.26-.414c.123-.118.247-.231.367-.341C8.279,5.794,8.754,5.362,8.754,4.531Z" />
  </g>
</svg>
