<svg xmlns="http://www.w3.org/2000/svg" viewBox="0 0 18 18">
  <defs>
    <style>.canvas{fill: none; opacity: 0;}.light-blue{fill: #005dba; opacity: 1;}.white{fill: #ffffff; opacity: 1;}</style>
  </defs>
  <title>StatusHelp.18.18</title>
  <title>StatusHelp.18.18</title>
  <g id="canvas">
    <path class="canvas" d="M18,18.079H-.079V0H18Z" />
  </g>
  <g id="level-1">
    <path class="light-blue" d="M8.961,16.874A7.835,7.835,0,1,1,16.8,9.039,7.844,7.844,0,0,1,8.961,16.874Z" />
    <path class="white" d="M10,13.5a1,1,0,1,1-1-1A1,1,0,0,1,10,13.5Z" />
    <path class="white" d="M12.164,6.48a2.833,2.833,0,0,0-.924-2.09,3.311,3.311,0,0,0-3.612-.581,2.883,2.883,0,0,0-1.8,2.515H7.181a1.618,1.618,0,0,1,.461-.988,1.888,1.888,0,0,1,1.407-.571,1.838,1.838,0,0,1,1.244.516,1.656,1.656,0,0,1,.518,1.2,1.031,1.031,0,0,1-.213.728A5.821,5.821,0,0,1,9.551,8.293a3.726,3.726,0,0,0-.631.621,3.177,3.177,0,0,0-.433.731,2.363,2.363,0,0,0-.17.925V11H9.658a3.357,3.357,0,0,1,.08-.867,1.215,1.215,0,0,1,.372-.589c.174-.169.351-.33.522-.486C11.488,8.278,12.164,7.663,12.164,6.48Z" />
  </g>
</svg>
