<svg xmlns="http://www.w3.org/2000/svg" viewBox="0 0 16 16">
  <defs>
    <style>.canvas{fill: none; opacity: 0;}.white{fill: #ffffff; opacity: 1;}</style>
  </defs>
  <title>StatusBarTest2</title>
  <g id="canvas">
    <path class="canvas" d="M16,16H0V0H16Z" />
  </g>
  <g id="level-1">
    <path class="white" d="M14,12.808c-.019-.035-.029-.074-.051-.109L10,6.519V2h1V1H5V2H6V6.519L4.9,8.236h0L2.06,12.693l.286-.448-.287.448c-.023.037-.033.078-.053.115A1.488,1.488,0,0,0,3.324,15h9.352A1.489,1.489,0,0,0,14,12.808Zm-10.74,0L6.919,6.94,7,6.667V2H9V6.667l.081.273,3.813,5.868Z" />
  </g>
</svg>
