<svg xmlns="http://www.w3.org/2000/svg" viewBox="0 0 10 10">
  <defs>
    <style>.canvas{fill: none; opacity: 0;}.light-blue{fill: #005dba; opacity: 1;}.white{fill: #ffffff; opacity: 1;}</style>
  </defs>
  <title>StatusHelp.10.10</title>
  <title>StatusHelp.10.10</title>
  <g id="canvas">
    <path class="canvas" d="M10,10H0V0H10Z" />
  </g>
  <g id="level-1">
    <path class="light-blue" d="M5,9A4,4,0,1,1,9,5,4,4,0,0,1,5,9Z" />
    <path class="white" d="M5.625,7.5A.625.625,0,1,1,5,6.875.625.625,0,0,1,5.625,7.5Z" />
    <path class="white" d="M6.212,2.658a1.534,1.534,0,0,1,.5,1.137c0,.775-.546,1.116-1.085,1.638a.543.543,0,0,0-.167.264,1.55,1.55,0,0,0-.033.508H4.571V5.9A1.29,1.29,0,0,1,4.665,5.4,1.692,1.692,0,0,1,4.9,5c.3-.373.426-.315.863-.879A.457.457,0,0,0,5.857,3.8.833.833,0,0,0,5,2.991a.831.831,0,0,0-.857.8H3.286A1.731,1.731,0,0,1,6.212,2.658Z" />
  </g>
</svg>
