<svg xmlns="http://www.w3.org/2000/svg" viewBox="0 0 10 10">
  <defs>
    <style>.canvas{fill: none; opacity: 0;}.light-blue-10{fill: #005dba; opacity: 0.1;}.light-blue{fill: #005dba; opacity: 1;}</style>
  </defs>
  <title>StatusInformationOutline.10.10</title>
  <title>StatusInformationOutline.10.10</title>
  <g id="canvas">
    <path class="canvas" d="M10,10H0V0H10Z" />
  </g>
  <g id="level-1">
    <path class="light-blue-10" d="M8,5A3.5,3.5,0,1,1,4.5,1.5,3.5,3.5,0,0,1,8,5Z" />
    <path class="light-blue" d="M4.5,9a4,4,0,1,1,4-4A4,4,0,0,1,4.5,9Zm0-7a3,3,0,1,0,3,3A3,3,0,0,0,4.5,2Z" />
    <path class="light-blue" d="M4,5H5V7H4Zm.5-2.125a.625.625,0,1,0,.625.625A.625.625,0,0,0,4.5,2.875Z" />
  </g>
</svg>
