<svg xmlns="http://www.w3.org/2000/svg" viewBox="0 0 16 16">
  <defs>
    <style>.canvas{fill: none; opacity: 0;}.light-defaultgrey-10{fill: #212121; opacity: 0.1;}.light-defaultgrey{fill: #212121; opacity: 1;}</style>
  </defs>
  <title>IconLightStencilTest</title>
  <g id="canvas">
    <path class="canvas" d="M16,0V16H0V0Z" />
  </g>
  <g id="level-1">
    <path class="light-defaultgrey-10" d="M7.5,1.5v5h-5v-5Z" />
    <path class="light-defaultgrey" d="M7.5,1h-5L2,1.5v5l.5.5h5L8,6.5v-5ZM7,6H3V2H7Z" />
    <path class="light-defaultgrey-10" d="M4.5,9.5v3h-3v-3Z" />
    <path class="light-defaultgrey" d="M4.5,9h-3L1,9.5v3l.5.5h3l.5-.5v-3ZM4,12H2V10H4Z" />
    <path class="light-defaultgrey-10" d="M12.5,12.5v2h-2v-2Z" />
    <path class="light-defaultgrey" d="M12.5,12h-2l-.5.5v2l.5.5h2l.5-.5v-2ZM12,14H11V13h1Z" />
    <path class="light-defaultgrey-10" d="M14.5,6.5v2h-2v-2Z" />
    <path class="light-defaultgrey" d="M14.5,6h-2l-.5.5v2l.5.5h2l.5-.5v-2ZM14,8H13V7h1Z" />
    <path class="light-defaultgrey" d="M8,10v2H6V10Z" />
    <path class="light-defaultgrey" d="M12,3V5H10V3Z" />
  </g>
</svg>
