<svg xmlns="http://www.w3.org/2000/svg" viewBox="0 0 16 16">
  <defs>
    <style>.canvas{fill: none; opacity: 0;}.light-red{fill: #c50b17; opacity: 1;}.light-defaultgrey-10{fill: #212121; opacity: 0.1;}.light-defaultgrey{fill: #212121; opacity: 1;}.light-yellow-10{fill: #996f00; opacity: 0.1;}.light-yellow{fill: #996f00; opacity: 1;}.white{fill: #ffffff; opacity: 1;}.cls-1{opacity:0.75;}</style>
  </defs>
  <title>IconLightStopQuery</title>
  <g id="canvas" class="canvas">
    <path class="canvas" d="M16,16H0V0H16Z" />
  </g>
  <g id="level-1">
    <path class="light-red" d="M4.018,8A4,4,0,1,1,8,3.982,4,4,0,0,1,4.018,8Z" />
    <g class="cls-1">
      <path class="light-defaultgrey-10" d="M14.5,1.5v10H13v-7L12.5,4H9a4.946,4.946,0,0,0-.694-2.5Z" />
      <path class="light-defaultgrey-10" d="M12.5,11.5v3H1.5V8.306a4.929,4.929,0,0,0,2,.644V11.5Z" />
      <path class="light-defaultgrey" d="M13,4.5v10l-.5.5H1.5L1,14.5V7.977a4.935,4.935,0,0,0,1,.6V14H12V6H8.578A4.979,4.979,0,0,0,9,4h3.5Z" />
      <path class="light-defaultgrey" d="M15,1.5v10l-.5.5H13V11h1V3H8.9a4.942,4.942,0,0,0-.922-2H14.5Z" />
    </g>
    <path class="light-yellow-10" d="M12.5,5.5v6h-9V8.95c.167.016.329.05.5.05A4.985,4.985,0,0,0,8.746,5.5Z" />
    <path class="light-yellow" d="M13,5.5v6l-.5.5h-9L3,11.5V8.9A4.988,4.988,0,0,0,4,9v2h8V6H8.578A4.968,4.968,0,0,0,8.9,5h3.6Z" />
    <path class="light-yellow" d="M11,8V9H5V8.9A4.949,4.949,0,0,0,6.973,8Z" />
    <path class="white" d="M2.493,2.507l3-.014.014,3-3,.014Z" />
  </g>
</svg>
