<svg xmlns="http://www.w3.org/2000/svg" viewBox="0 0 16 16">
  <defs>
    <style>.canvas{fill: none; opacity: 0;}.light-defaultgrey-10{fill: #212121; opacity: 0.1;}.light-defaultgrey{fill: #212121; opacity: 1;}.cls-1{opacity:0.75;}</style>
  </defs>
  <title>IconLightStoredProcedureScript</title>
  <g id="canvas">
    <path class="canvas" d="M16,16H0V0H16Z" />
  </g>
  <g id="level-1">
    <g class="cls-1">
      <path class="light-defaultgrey-10" d="M1.5,5V8.32A3.78,3.78,0,0,1,2,7.76a2.793,2.793,0,0,1,1-.58A2.718,2.718,0,0,1,3.99,7H8a2.772,2.772,0,0,1,1,.18A2.869,2.869,0,0,1,10.22,8a2.948,2.948,0,0,1,.77,2v.91L10.9,11l-.99,1H7.99v1H14.5V5Z" />
      <path class="light-defaultgrey" d="M14.5,5H1.5L1,5.5V9.85a2.993,2.993,0,0,1,.5-1.53A3.78,3.78,0,0,1,2,7.76V6H14v7H7.99v1H14.5l.5-.5v-8Z" />
    </g>
    <path class="light-defaultgrey-10" d="M2,3V5H14V3Z" />
    <path class="light-defaultgrey" d="M14.5,2H1.5L1,2.5v3l.5.5h13l.5-.5v-3ZM2,5V3H14V5Z" />
    <path class="light-defaultgrey" d="M10.9,11l-.99,1H13V11Zm-.08-2a3,3,0,0,1,.17,1H12V9ZM9,7v.18A2.869,2.869,0,0,1,10.22,8H11V7Z" />
    <path class="light-defaultgrey-10" d="M2.991,14a1.984,1.984,0,0,0,.269,1H2a1,1,0,0,1-1-1Zm0-4v3h.5l.5.5V14a1,1,0,0,0,2,0V10a1.978,1.978,0,0,1,.278-1H3.991A1,1,0,0,0,2.991,10Zm5-1a1,1,0,0,0-1,1h2A1,1,0,0,0,7.991,9Z" />
    <path class="light-defaultgrey" d="M7.991,8h-4a2,2,0,0,0-2,2v3H.5l-.5.5V14a1.978,1.978,0,0,0,.278,1,1.992,1.992,0,0,0,1.715,1h3a2,2,0,0,0,2-2V11h2.5l.5-.5V10A2,2,0,0,0,7.991,8ZM2,15a1,1,0,0,1-1-1H2.991a1.984,1.984,0,0,0,.269,1Zm3.991-5v4a1,1,0,0,1-2,0v-.5l-.5-.5h-.5V10a1,1,0,0,1,1-1H6.269A1.978,1.978,0,0,0,5.991,10Zm3,0h-2a1,1,0,0,1,2,0Z" />
  </g>
</svg>
