<svg xmlns="http://www.w3.org/2000/svg" viewBox="0 0 16 16">
  <defs>
    <style>.canvas{fill: none; opacity: 0;}.light-defaultgrey-10{fill: #212121; opacity: 0.1;}.light-defaultgrey{fill: #212121; opacity: 1;}.light-lightblue-10{fill: #0077a0; opacity: 0.1;}.light-lightblue{fill: #0077a0; opacity: 1;}.cls-1{opacity:0.75;}</style>
  </defs>
  <title>IconLightStoredPackage</title>
  <g id="canvas" class="canvas">
    <path class="canvas" d="M16,16H0V0H16Z" />
  </g>
  <g id="level-1">
    <g class="cls-1">
      <path class="light-defaultgrey-10" d="M5,14.5H.5v-9h5l2,2V11h-2l-.5.5Z" />
      <path class="light-defaultgrey" d="M5,15H.5L0,14.5v-9L.5,5h5l.354.146,2,2L8,7.5V11H7V8H4.993V6H1v8H5Z" />
    </g>
    <path class="light-defaultgrey" d="M3,10H2V9H3ZM5,9H4v1H5ZM3,11H2v1H3Z" />
    <path class="light-lightblue-10" d="M14.5,3v8c0,.764-1.53,1.388-3.5,1.481V11.086L9.914,10H9V7.3L8.7,6.58l-2.2-2.2V3c0-.828,1.791-1.5,4-1.5S14.5,2.172,14.5,3Z" />
    <path class="light-lightblue" d="M6,2.969V4.125l.42.174.58.58V4.3A7.9,7.9,0,0,0,10.5,5,7.913,7.913,0,0,0,14,4.3V11c0,.267-1.055.885-3,.981v1c2.061-.1,4-.766,4-1.981V2.969C15,.344,6,.344,6,2.969Zm8,.046C14,3.3,12.773,4,10.5,4S7,3.3,7,3.015v-.03C7,2.7,8.227,2,10.5,2s3.5.7,3.5.985Z" />
    <path class="light-defaultgrey-10" d="M9.5,11.5v2h-2v2h-2v-4Z" />
    <path class="light-defaultgrey" d="M7.5,16h-2L5,15.5v-4l.5-.5h4l.5.5v2l-.5.5H8v1.5ZM6,15H7V14H6Zm2-2H9V12H8ZM6,13H7V12H6Z" />
  </g>
</svg>
