<svg xmlns="http://www.w3.org/2000/svg" viewBox="0 0 16 16">
  <defs>
    <style>.canvas{fill: none; opacity: 0;}.light-defaultgrey-10{fill: #212121; opacity: 0.1;}.light-defaultgrey{fill: #212121; opacity: 1;}.cls-1{opacity:0.75;}</style>
  </defs>
  <title>IconLightStoredProcedureChecked</title>
  <g id="canvas">
    <path class="canvas" d="M16,16H0V0H16Z" />
  </g>
  <g id="level-1">
    <g class="cls-1">
      <path class="light-defaultgrey-10" d="M1.5,5V7H7.91L8,7.09l1,1V13h5.5V5Z" />
      <path class="light-defaultgrey" d="M14.5,5H1.5L1,5.5V7H2V6H14v7H9v1h5.5l.5-.5v-8Z" />
    </g>
    <path class="light-defaultgrey-10" d="M2,3V5H14V3Z" />
    <path class="light-defaultgrey" d="M14.5,2H1.5L1,2.5v3l.5.5h13l.5-.5v-3ZM2,5V3H14V5Z" />
    <path class="light-defaultgrey" d="M9,11v1h4V11ZM9,9v1h3V9ZM9,7V8h2V7Z" />
    <path class="light-defaultgrey-10" d="M.5,8.5h7v7H.5Z" />
    <path class="light-defaultgrey" d="M2.763,13.944,1.348,12.53l.707-.707,1.061,1.061,2.829-2.828.707.707L3.47,13.944ZM7.5,8H.5L0,8.5v7l.5.5h7l.5-.5v-7ZM7,15H1V9H7Z" />
  </g>
</svg>
