<svg xmlns="http://www.w3.org/2000/svg" viewBox="0 0 16 16">
  <defs>
    <style>.canvas{fill: none; opacity: 0;}.light-defaultgrey-10{fill: #212121; opacity: 0.1;}.light-defaultgrey{fill: #212121; opacity: 1;}.cls-1{opacity:0.75;}</style>
  </defs>
  <title>IconLightStoryboardFile</title>
  <g id="canvas" class="canvas">
    <path class="canvas" d="M16,16H0V0H16Z" />
  </g>
  <g id="level-1">
    <g class="cls-1">
      <path class="light-defaultgrey-10" d="M10.5,1.5h-8V8h.41A1.014,1.014,0,0,1,3,7.87,2.943,2.943,0,0,1,5.5,6.5a3.034,3.034,0,0,1,1.24.27l2.1-2.08,4.02,4.04v1.53L9.15,14l-.31.31L8.53,14,6.74,12.23a3.034,3.034,0,0,1-1.24.27A2.974,2.974,0,0,1,3,11.15,1.3,1.3,0,0,1,2.9,11H2.5v3.5h11V4.5Z" />
      <path class="light-defaultgrey" d="M13.85,4.15l-3-3L10.5,1h-8L2,1.5V8h.91A1.014,1.014,0,0,1,3,7.87V2h7V5h3v9H9.15l-.31.31L8.53,14H3V11.15A1.3,1.3,0,0,1,2.9,11H2v3.5l.5.5h11l.5-.5V4.5Z" />
    </g>
    <path class="light-defaultgrey" d="M11.857,9.146,8.835,6.1l-.709.705L10.3,9H7.424A1.99,1.99,0,0,0,3.567,9H1v1H3.566a1.991,1.991,0,0,0,3.859,0H10.3l-2.178,2.2.711.705,3.022-3.046ZM5.5,10.5a1,1,0,0,1-1-.978V9.477a1,1,0,1,1,1,1.022Z" />
  </g>
</svg>
