<svg xmlns="http://www.w3.org/2000/svg" viewBox="0 0 16 16">
  <defs>
    <style>.canvas{fill: none; opacity: 0;}.light-defaultgrey-10{fill: #212121; opacity: 0.1;}.light-defaultgrey{fill: #212121; opacity: 1;}.light-blue-10{fill: #005dba; opacity: 0.1;}.light-blue{fill: #005dba; opacity: 1;}.cls-1{opacity:0.75;}</style>
  </defs>
  <title>IconLightStoreVirtualMachine</title>
  <g id="canvas" class="canvas">
    <path class="canvas" d="M16,0V16H0V0Z" />
  </g>
  <g id="level-1">
    <path class="light-defaultgrey-10" d="M13,10.5H12v2l-.5.5h-6L5,12.5v-2H4l-2,4H15Z" />
    <path class="light-defaultgrey" d="M13.45,10.28,13,10H12v1h.69l1.5,3H2.81l1.5-3H5V10H4l-.45.28-2,4L2,15H15l.45-.72Z" />
    <path class="light-defaultgrey-10" d="M10.5,1.5H8.62l.08.08L8.88,2,9,2.3V7.91L7.91,9H5.5v3.5h6V2.5A1,1,0,0,0,10.5,1.5Z" />
    <path class="light-defaultgrey" d="M10.5,1H8.12l.5.5.08.08L8.88,2H10.5a.5.5,0,0,1,.5.5V12H6V9H5v3.5l.5.5h6l.5-.5V2.5A1.5,1.5,0,0,0,10.5,1Z" />
    <g class="cls-1">
      <path class="light-defaultgrey" d="M7,10v1h3V10ZM8.91,8l-1,1H10V8ZM9,4V5h1V4Z" />
    </g>
    <path class="light-blue-10" d="M.5.5h5l2,2v5H.5Z" />
    <path class="light-blue" d="M7.854,2.146l-2-2L5.5,0H.5L0,.5v7L.5,8h7L8,7.5v-5ZM4,1V3H3V1ZM7,7H1V1H2V3.5l.5.5h2L5,3.5V1h.293L7,2.707Z" />
  </g>
</svg>
