<svg xmlns="http://www.w3.org/2000/svg" viewBox="0 0 16 16">
  <defs>
    <style>.canvas{fill: none; opacity: 0;}.light-defaultgrey-10{fill: #212121; opacity: 0.1;}.light-defaultgrey{fill: #212121; opacity: 1;}.light-blue{fill: #005dba; opacity: 1;}</style>
  </defs>
  <title>StreamingSyncing</title>
  <g id="canvas">
    <path class="canvas" d="M16,0V16H0V0Z" />
  </g>
  <g id="level-1">
    <path class="light-defaultgrey-10" d="M9.5,8A1.5,1.5,0,1,1,8,6.5,1.5,1.5,0,0,1,9.5,8Z" />
    <path class="light-defaultgrey" d="M10.831,5.171l.707-.707A4.986,4.986,0,0,1,13,8.043,4.527,4.527,0,0,0,12.5,8a4.41,4.41,0,0,0-.5.045A3.988,3.988,0,0,0,10.831,5.171ZM15,8h1a7.976,7.976,0,0,0-2.343-5.657h0l-.707.707A6.973,6.973,0,0,1,15,8ZM4.462,4.464a5.008,5.008,0,0,0,0,7.072l.707-.707a4.007,4.007,0,0,1,0-5.658ZM3.05,3.05l-.707-.707h0a8,8,0,0,0,0,11.314l.707-.707h0A7,7,0,0,1,3.05,3.05ZM7.967,10a2,2,0,1,1,2-2,1.971,1.971,0,0,1-.269.984,4.469,4.469,0,0,0-.734.74A1.978,1.978,0,0,1,7.967,10Zm0-1a1,1,0,1,0-1-1A1,1,0,0,0,7.967,9Z" />
    <path class="light-blue" d="M14.965,12.917l.987.166A3.494,3.494,0,0,1,10,14.941V16H9V13h3v1H10.5a2.5,2.5,0,0,0,4.465-1.083ZM15,9v1.059a3.494,3.494,0,0,0-5.952,1.858l.987.166A2.5,2.5,0,0,1,14.5,11H13v1h3V9Z" />
  </g>
</svg>
