<svg xmlns="http://www.w3.org/2000/svg" viewBox="0 0 16 16">
  <defs>
    <style>.canvas{fill: none; opacity: 0;}.light-defaultgrey{fill: #212121; opacity: 1;}.cls-1{opacity:0.75;}</style>
  </defs>
  <title>IconLightStrikeThrough</title>
  <g id="canvas" class="canvas">
    <path class="canvas" d="M16,16H0V0H16Z" />
  </g>
  <g id="level-1">
    <g class="cls-1">
      <path class="light-defaultgrey" d="M4.06,6.164A4.121,4.121,0,0,0,1.8,6.787V7.878a3.272,3.272,0,0,1,2.168-.819q1.37,0,1.371,1.7l-1.994.278q-2.194.307-2.2,2.17a1.822,1.822,0,0,0,.563,1.4,2.187,2.187,0,0,0,1.555.526,2.231,2.231,0,0,0,2.046-1.2H5.34v1.039H6.405V8.645Q6.405,6.164,4.06,6.164Zm1.28,4.1a1.981,1.981,0,0,1-.517,1.406,1.71,1.71,0,0,1-1.308.555,1.342,1.342,0,0,1-.926-.309,1.015,1.015,0,0,1-.348-.795,1.054,1.054,0,0,1,.378-.931,2.6,2.6,0,0,1,1.116-.368L5.34,9.605ZM13.8,7.057a2.439,2.439,0,0,0-2-.893A2.515,2.515,0,0,0,9.5,7.489H9.474V3.125H8.411v9.844H9.474v-.961H9.5a2.184,2.184,0,0,0,1.992,1.117,2.7,2.7,0,0,0,2.222-1,4.13,4.13,0,0,0,.811-2.673A3.684,3.684,0,0,0,13.8,7.057Zm-.916,4.432a1.782,1.782,0,0,1-1.515.74,1.774,1.774,0,0,1-1.361-.575,1.977,1.977,0,0,1-.537-1.4V9.327a2.378,2.378,0,0,1,.566-1.621,1.89,1.89,0,0,1,1.494-.647,1.7,1.7,0,0,1,1.389.631,2.679,2.679,0,0,1,.513,1.74A3.4,3.4,0,0,1,12.887,11.489Z" />
    </g>
    <path class="light-defaultgrey" d="M16,10H0V9H16Z" />
  </g>
</svg>
