<svg xmlns="http://www.w3.org/2000/svg" viewBox="0 0 16 16">
  <defs>
    <style>.canvas{fill: none; opacity: 0;}.light-defaultgrey-10{fill: #212121; opacity: 0.1;}.light-blue{fill: #005dba; opacity: 1;}.light-defaultgrey{fill: #212121; opacity: 1;}</style>
  </defs>
  <title>IconLightStrongHierarchy</title>
  <g id="canvas">
    <path class="canvas" d="M16,0V16H0V0Z" />
  </g>
  <g id="level-1">
    <path class="light-defaultgrey-10" d="M1.5,14.5h6v-3h-6Z" />
    <path class="light-defaultgrey-10" d="M9.5,14.5h6v-3h-6Z" />
    <path class="light-defaultgrey-10" d="M5.5,4.5h6v-3h-6Z" />
    <path class="light-blue" d="M8,6.707,6.854,7.854l-.708-.708,2-2h.708l2,2-.708.708L9,6.707V11H8Z" />
    <path class="light-defaultgrey" d="M11.5,5h-6L5,4.5v-3L5.5,1h6l.5.5v3ZM6,4h5V2H6Z" />
    <path class="light-defaultgrey" d="M15.5,15h-6L9,14.5v-3l.5-.5h6l.5.5v3ZM10,14h5V12H10Z" />
    <path class="light-defaultgrey" d="M7.5,15h-6L1,14.5v-3l.5-.5h6l.5.5v3ZM2,14H7V12H2Z" />
  </g>
</svg>
