<svg xmlns="http://www.w3.org/2000/svg" viewBox="0 0 16 16">
  <defs>
    <style>.canvas{fill: none; opacity: 0;}.light-defaultgrey{fill: #212121; opacity: 1;}.light-defaultgrey-10{fill: #212121; opacity: 0.1;}.light-blue-10{fill: #005dba; opacity: 0.1;}.light-blue{fill: #005dba; opacity: 1;}.cls-1{opacity:0.75;}</style>
  </defs>
  <title>IconLightStructureCollection</title>
  <g id="canvas" class="canvas">
    <path class="canvas" d="M16,16H0V0H16ZM0,0H16V16H0Z" />
  </g>
  <g id="level-1">
    <g class="cls-1">
      <path class="light-defaultgrey" d="M15,1.5v11l-.5.5H13V12h1V2H4V3H3V1.5L3.5,1h11Z" />
      <path class="light-defaultgrey-10" d="M13,12V3.75L12.25,3H4V2H14V12Z" />
    </g>
    <path class="light-defaultgrey-10" d="M12,14H2V4H12Z" />
    <path class="light-defaultgrey" d="M12.5,3H1.5L1,3.5v11l.5.5h11l.5-.5V3.5ZM12,14H2V4H12Z" />
    <path class="light-blue-10" d="M5.5,9.5v2h-2v-2Zm5,0v2h-2v-2Z" />
    <path class="light-blue" d="M10.5,9h-2L8,9.5v2l.5.5h2l.5-.5v-2ZM10,11H9V10h1ZM3.5,9,3,9.5v2l.5.5h2l.5-.5v-2L5.5,9ZM5,11H4V10H5Z" />
    <path class="light-blue-10" d="M10.5,5.5v2h-7v-2Z" />
    <path class="light-blue" d="M10.5,5h-7L3,5.5v2l.5.5h7l.5-.5v-2ZM10,7H4V6h6Z" />
  </g>
</svg>
