<svg xmlns="http://www.w3.org/2000/svg" viewBox="0 0 16 16">
  <defs>
    <style>.canvas{fill: none; opacity: 0;}.light-defaultgrey-10{fill: #212121; opacity: 0.1;}.light-defaultgrey{fill: #212121; opacity: 1;}.cls-1{opacity:0.75;}</style>
  </defs>
  <title>IconLightSubReport</title>
  <g id="canvas" class="canvas">
    <path class="canvas" d="M16.023,16h-16V0h16Z" />
  </g>
  <g id="level-1">
    <path class="light-defaultgrey-10" d="M9.5,3.5v7H.5V.5h6Z" />
    <g class="cls-1">
      <path class="light-defaultgrey-10" d="M15.5,5.5v10H4.5V12H9.914L11,10.914V3.3l-.3-.727L10.626,2.5H12.5Z" />
      <path class="light-defaultgrey" d="M16,5.5v10l-.5.5H4.5L4,15.5V12H5v3H15V6H12V3H10.876L10.7,2.577,10.126,2H12.5l.354.146,3,3ZM10.5,14l.5-.5v-2l-.293-.293L9.914,12H9v1.5l.5.5Zm3.5-.5v-4L13.5,9h-1l-.5.5v4l.5.5h1Z" />
    </g>
    <path class="light-defaultgrey" d="M9.854,3.142l-3-3L6.5,0H.5L0,.5v10l.5.5h9l.5-.5v-7ZM9,10H1V1H6V4H9ZM4.5,6l.5.5v2L4.5,9h-1L3,8.5v-2L3.5,6ZM6,5.5,6.5,5h1l.5.5v3L7.5,9h-1L6,8.5ZM2,2H5V3H2ZM4,5H2V4H4Z" />
  </g>
</svg>
