<svg xmlns="http://www.w3.org/2000/svg" viewBox="0 0 16 16">
  <defs>
    <style>.canvas{fill: none; opacity: 0;}.light-defaultgrey-10{fill: #212121; opacity: 0.1;}.light-defaultgrey{fill: #212121; opacity: 1;}.cls-1{opacity:0.75;}</style>
  </defs>
  <title>IconLightSubReportParamater</title>
  <g id="canvas">
    <path class="canvas" d="M16,16H0V0H16Z" />
  </g>
  <g id="level-1">
    <g class="cls-1">
      <path class="light-defaultgrey-10" d="M15.5,5.5v10H7.279v-.55a3.025,3.025,0,0,0,1.093-.868A3.784,3.784,0,0,0,9.166,12h.748L11,10.914V3.3l-.3-.727L10.626,2.5H12.5Z" />
      <path class="light-defaultgrey" d="M16,5.5v10l-.5.5H7.279V15H15V6H12V3H10.876L10.7,2.577,10.126,2H12.5l.354.146,3,3ZM10.5,14l.5-.5v-2l-.293-.293L9.914,12H9.166c-.014.146-.031.29-.057.429A3.507,3.507,0,0,1,9,12.9v.6l.5.5Zm3.5-.5v-4L13.5,9h-1l-.5.5v4l.5.5h1Z" />
    </g>
    <path class="light-defaultgrey" d="M2,2H5V3H2ZM2,5H4V4H2ZM6.5,5,6,5.5V7.25a4.719,4.719,0,0,1,1.751.976c.095.084.163.182.249.271v-3L7.5,5ZM5,7.043V6.5L4.5,6h-1L3,6.5v.642a5.7,5.7,0,0,1,1.282-.156A6.175,6.175,0,0,1,5,7.043Zm4.854-3.9-3-3L6.5,0H.5L0,.5V9.2A5,5,0,0,1,.6,8.46,4.742,4.742,0,0,1,1,8.131V1H6V4H9v6H8.928a4.49,4.49,0,0,1,.219,1H9.5l.5-.5v-7Z" />
    <path class="light-defaultgrey-10" d="M9.5,3.5v7H9.083A4.145,4.145,0,0,0,7.751,8.226a5.047,5.047,0,0,0-3.469-1.24A4.978,4.978,0,0,0,.6,8.46c-.039.039-.066.086-.1.126V.5h6Z" />
    <path class="light-defaultgrey" d="M4.844,13.134H4.819a1.361,1.361,0,0,1-1.377,1.05,1.294,1.294,0,0,1-1.054-.491,2.028,2.028,0,0,1-.4-1.321,2.94,2.94,0,0,1,.55-1.826,1.727,1.727,0,0,1,1.447-.728,1.042,1.042,0,0,1,.611.188.846.846,0,0,1,.346.452h.015q.015-.136.073-.562H5.84q-.229,2.578-.23,2.627,0,.967.5.967a.88.88,0,0,0,.762-.539,2.841,2.841,0,0,0,.3-1.4A2.781,2.781,0,0,0,6.36,9.479a3.1,3.1,0,0,0-2.268-.8,3.03,3.03,0,0,0-2.3.971,3.413,3.413,0,0,0-.913,2.432A3.15,3.15,0,0,0,1.753,14.4a3.187,3.187,0,0,0,2.368.884,4.608,4.608,0,0,0,2.007-.4v.752A5.517,5.517,0,0,1,3.994,16a3.963,3.963,0,0,1-2.9-1.074A3.758,3.758,0,0,1,0,12.113,4.046,4.046,0,0,1,1.162,9.149,4,4,0,0,1,4.131,7.973a4.067,4.067,0,0,1,2.805.986,3.277,3.277,0,0,1,1.111,2.573,2.934,2.934,0,0,1-.6,1.907,1.83,1.83,0,0,1-1.472.745Q4.849,14.184,4.844,13.134Zm-.777-2.622a.989.989,0,0,0-.866.527,2.436,2.436,0,0,0-.33,1.314,1.39,1.39,0,0,0,.222.832.7.7,0,0,0,.594.3.946.946,0,0,0,.849-.554,2.972,2.972,0,0,0,.313-1.467Q4.849,10.512,4.067,10.512Z" />
  </g>
</svg>
