<svg xmlns="http://www.w3.org/2000/svg" viewBox="0 0 16 16">
  <defs>
    <style>.canvas{fill: none; opacity: 0;}.light-defaultgrey-10{fill: #212121; opacity: 0.1;}.light-defaultgrey{fill: #212121; opacity: 1;}.light-blue{fill: #005dba; opacity: 1;}</style>
  </defs>
  <title>SubtractMember</title>
  <g id="canvas">
    <path class="canvas" d="M16,16H0V0H16Z" />
  </g>
  <g id="level-1">
    <path class="light-defaultgrey-10" d="M9,12.5A4.5,4.5,0,1,1,13.5,8,4.5,4.5,0,0,1,9,12.5Z" />
    <path class="light-defaultgrey" d="M9,13a5,5,0,1,1,5-5A5.006,5.006,0,0,1,9,13ZM9,4a4,4,0,1,0,4,4A4,4,0,0,0,9,4ZM8.5,8A1.5,1.5,0,1,1,10,6.5,1.5,1.5,0,0,1,8.5,8Zm0-2a.5.5,0,1,0,.5.5A.5.5,0,0,0,8.5,6Z" />
    <path class="light-blue" d="M6,2H0V1H6Z" />
  </g>
</svg>
