<svg xmlns="http://www.w3.org/2000/svg" viewBox="0 0 16 16">
  <defs>
    <style>.canvas{fill: none; opacity: 0;}.light-defaultgrey-10{fill: #212121; opacity: 0.1;}.light-defaultgrey{fill: #212121; opacity: 1;}.cls-1{opacity:0.75;}</style>
  </defs>
  <title>IconLightSummaryView</title>
  <g id="canvas" class="canvas">
    <path class="canvas" d="M16,16H0V0H16Z" />
  </g>
  <g id="level-1">
    <g class="cls-1">
      <path class="light-defaultgrey-10" d="M13.5,4.5v9H10.447A5.943,5.943,0,0,0,11,11,5.978,5.978,0,0,0,3.5,5.2V1.5h7Z" />
      <path class="light-defaultgrey" d="M14,4.5v9l-.5.5H10.188a5.934,5.934,0,0,0,.462-1H13V5H10V2H4V5.09a5.969,5.969,0,0,0-1,.26V1.5L3.5,1h7l.354.146,3,3Z" />
      <path class="light-defaultgrey" d="M10.95,10a5.47,5.47,0,0,1,.09,1H12V10Zm-.74-2a5.079,5.079,0,0,1,.47,1H12V8ZM8.33,6A6.074,6.074,0,0,1,9.48,7H12V6ZM5,4V5H9V4Z" />
    </g>
    <path class="light-defaultgrey-10" d="M9.5,11A4.5,4.5,0,1,1,5,6.5,4.5,4.5,0,0,1,9.5,11Z" />
    <path class="light-defaultgrey" d="M5,6a5,5,0,1,0,4,8H9v0A5,5,0,0,0,5,6Zm0,9A4,4,0,0,1,3,7.537V13l1,1H7.643A3.984,3.984,0,0,1,5,15Zm3.874-3H5V7a3.98,3.98,0,0,1,2,.537V9H8.463A3.98,3.98,0,0,1,9,11,4.024,4.024,0,0,1,8.874,12Z" />
  </g>
</svg>
