<svg xmlns="http://www.w3.org/2000/svg" viewBox="0 0 16 16">
  <defs>
    <style>.canvas{fill: none; opacity: 0;}.light-defaultgrey-10{fill: #212121; opacity: 0.1;}.light-defaultgrey{fill: #212121; opacity: 1;}.light-blue-10{fill: #005dba; opacity: 0.1;}.light-blue{fill: #005dba; opacity: 1;}.cls-1{opacity:0.75;}</style>
  </defs>
  <title>SwitchToPreview</title>
  <g id="canvas">
    <path class="canvas" d="M16,16H0V0H16Z" />
  </g>
  <g id="level-1">
    <g class="cls-1">
      <path class="light-defaultgrey-10" d="M5.336,14.5H2.5v-.551A3.939,3.939,0,0,0,3,14a3.972,3.972,0,0,0,1.519-.3ZM10.5,1.5h-8V6.051A3.939,3.939,0,0,1,3,6a4,4,0,0,1,4,4,3.924,3.924,0,0,1-.34,1.6l2.962,2.9H13.5V4.5Z" />
      <path class="light-defaultgrey" d="M14,4.5v10l-.5.5H10.132L9.111,14H13V5H10V2H3V6a3.939,3.939,0,0,0-1,.142V1.5L2.5,1h8l.354.146,3,3ZM4.826,14H3a3.939,3.939,0,0,1-1-.142V14.5l.5.5H5.846Z" />
      <path class="light-defaultgrey" d="M7,10.5l.5-.5h1l.5.5v2l-.5.5H8.091L7,11.932ZM11.5,8h-1l-.5.5v4l.5.5h1l.5-.5v-4ZM9,4H4V5H9ZM4,6.142V6H7V7H5.618A3.977,3.977,0,0,0,4,6.142Z" />
    </g>
    <path class="light-blue-10" d="M.5,10A2.5,2.5,0,1,1,3,12.5,2.5,2.5,0,0,1,.5,10Z" />
    <path class="light-blue" d="M8.85,15.143,5.408,11.771A2.964,2.964,0,0,0,6,10a3.007,3.007,0,1,0-1.3,2.472L8.15,15.857ZM1,10a2,2,0,1,1,2,2A2,2,0,0,1,1,10Z" />
  </g>
</svg>
