<svg xmlns="http://www.w3.org/2000/svg" viewBox="0 0 16 16">
  <defs>
    <style>.canvas{fill: none; opacity: 0;}.light-defaultgrey-10{fill: #212121; opacity: 0.1;}.light-blue-10{fill: #005dba; opacity: 0.1;}.light-blue{fill: #005dba; opacity: 1;}.light-defaultgrey{fill: #212121; opacity: 1;}.light-red{fill: #c50b17; opacity: 1;}.white{fill: #ffffff; opacity: 1;}</style>
  </defs>
  <title>IconLightSymmetricKeyError</title>
  <g id="canvas">
    <path class="canvas" d="M16,16H0V0H16Z" />
  </g>
  <g id="level-1">
    <path class="light-defaultgrey-10" d="M7.1,12.97a3,3,0,1,1,.182-2.552A4.943,4.943,0,0,0,7,12,5,5,0,0,0,7.1,12.97Z" />
    <path class="light-blue-10" d="M7.316,2.5H13.5l1,1-2,2-1-1-1,1-1-1-1,1-1-1H7.316a3,3,0,1,1,0-2Z" />
    <path class="light-blue" d="M3.5,2.75a.75.75,0,1,1-.75.75A.75.75,0,0,1,3.5,2.75ZM4.5,0A3.5,3.5,0,0,1,7.649,2H13.5l.354.146,1,1v.708l-2,2h-.708L11.5,5.207l-.646.647h-.708L9.5,5.207l-.646.647H8.146l-.622-.623A3.493,3.493,0,1,1,4.5,0Zm0,6A2.494,2.494,0,0,0,6.882,4.218H7.925l.575.575.646-.647h.708l.646.647.646-.647h.708l.646.647L13.793,3.5l-.5-.5H6.949A2.5,2.5,0,1,0,4.5,6Z" />
    <path class="light-defaultgrey" d="M3.5,10.75a.75.75,0,1,1-.75.75A.75.75,0,0,1,3.5,10.75Zm3.522,1.468h-.14A2.477,2.477,0,1,1,6.949,11H7.1a4.918,4.918,0,0,1,.432-1.2,3.5,3.5,0,1,0-.25,3.8A4.971,4.971,0,0,1,7.022,12.218Z" />
    <path class="light-red" d="M12,8a4,4,0,1,0,4,4A4,4,0,0,0,12,8Z" />
    <path class="white" d="M12.707,12l1.147,1.146-.708.708L12,12.707l-1.146,1.147-.708-.708L11.293,12l-1.147-1.146.708-.708L12,11.293l1.146-1.147.708.708Z" />
  </g>
</svg>
