<svg xmlns="http://www.w3.org/2000/svg" viewBox="0 0 16 16">
  <defs>
    <style>.canvas{fill: none; opacity: 0;}.light-defaultgrey-10{fill: #212121; opacity: 0.1;}.light-blue-10{fill: #005dba; opacity: 0.1;}.light-blue{fill: #005dba; opacity: 1;}.light-defaultgrey{fill: #212121; opacity: 1;}.light-yellow{fill: #996f00; opacity: 1;}.white{fill: #ffffff; opacity: 1;}</style>
  </defs>
  <title>IconLightSymmetricKeyWarning</title>
  <g id="canvas">
    <path class="canvas" d="M16,16H0V0H16Z" />
  </g>
  <g id="level-1">
    <path class="light-defaultgrey-10" d="M4.5,14.5a3,3,0,1,1,2.816-4H8.542l-1.1,2H7.316A2.99,2.99,0,0,1,4.5,14.5Z" />
    <path class="light-blue-10" d="M7.316,2.5H13.5l1,1-2,2-1-1-1,1-1-1-1,1-1-1H7.316a3,3,0,1,1,0-2Z" />
    <path class="light-blue" d="M3.5,2.75a.75.75,0,1,1-.75.75A.75.75,0,0,1,3.5,2.75ZM1,3.5A3.489,3.489,0,0,0,7.524,5.231l.622.623h.708L9.5,5.207l.646.647h.708l.646-.647.646.647h.708l2-2V3.146l-1-1L13.5,2H7.649A3.492,3.492,0,0,0,1,3.5Zm1,0A2.5,2.5,0,0,1,6.949,3h6.344l.5.5L12.5,4.793l-.646-.647h-.708l-.646.647-.646-.647H9.146L8.5,4.793l-.575-.575H6.882A2.493,2.493,0,0,1,2,3.5Z" />
    <path class="light-defaultgrey" d="M3.5,10.75a.75.75,0,1,1-.75.75A.75.75,0,0,1,3.5,10.75Zm2.87,3.691A3.422,3.422,0,0,1,4.5,15a3.5,3.5,0,1,1,3.149-5H8.817l-.551,1H6.949a2.526,2.526,0,1,0-.067,1.218H7.6Z" />
    <path class="light-yellow" d="M15.5,16h-8l-.439-.739,4-7.261h.878l4,7.261Z" />
    <path class="white" d="M12,13H11V10h1Zm.25,1.5a.75.75,0,1,1-.75-.75A.75.75,0,0,1,12.25,14.5Z" />
  </g>
</svg>
