<svg xmlns="http://www.w3.org/2000/svg" viewBox="0 0 16 16">
  <defs>
    <style>.canvas{fill: none; opacity: 0;}.light-blue-10{fill: #005dba; opacity: 0.1;}.light-defaultgrey-10{fill: #212121; opacity: 0.1;}.light-blue{fill: #005dba; opacity: 1;}.light-defaultgrey{fill: #212121; opacity: 1;}</style>
  </defs>
  <title>IconLightSymmetricKey</title>
  <g id="canvas">
    <path class="canvas" d="M16,16H0V0H16Z" />
  </g>
  <g id="level-1">
    <path class="light-blue-10" d="M7.316,2.5H13.5l1,1-2,2-1-1-1,1-1-1-1,1-1-1H7.316a3,3,0,1,1,0-2Z" />
    <path class="light-defaultgrey-10" d="M7.316,10.5H13.5l1,1-2,2-1-1-1,1-1-1-1,1-1-1H7.316a3,3,0,1,1,0-2Z" />
    <path class="light-blue" d="M3.5,2.75a.75.75,0,1,1-.75.75A.75.75,0,0,1,3.5,2.75ZM4.5,0A3.5,3.5,0,0,1,7.649,2H13.5l.354.146,1,1v.708l-2,2h-.708L11.5,5.207l-.646.647h-.708L9.5,5.207l-.646.647H8.146l-.622-.623A3.493,3.493,0,1,1,4.5,0Zm0,6A2.494,2.494,0,0,0,6.882,4.218H7.925l.575.575.646-.647h.708l.646.647.646-.647h.708l.646.647L13.793,3.5l-.5-.5H6.949A2.5,2.5,0,1,0,4.5,6Z" />
    <path class="light-defaultgrey" d="M3.5,10.75a.75.75,0,1,1-.75.75A.75.75,0,0,1,3.5,10.75ZM4.5,8a3.5,3.5,0,0,1,3.149,2H13.5l.354.146,1,1v.708l-2,2h-.708l-.646-.647-.646.647h-.708L9.5,13.207l-.646.647H8.146l-.622-.623A3.493,3.493,0,1,1,4.5,8Zm0,6a2.494,2.494,0,0,0,2.382-1.782H7.925l.575.575.646-.647h.708l.646.647.646-.647h.708l.646.647L13.793,11.5l-.5-.5H6.949A2.5,2.5,0,1,0,4.5,14Z" />
  </g>
</svg>
