<svg xmlns="http://www.w3.org/2000/svg" viewBox="0 0 16 16">
  <defs>
    <style>.canvas{fill: none; opacity: 0;}.light-lightblue-10{fill: #0077a0; opacity: 0.1;}.light-lightblue{fill: #0077a0; opacity: 1;}.light-blue{fill: #005dba; opacity: 1;}</style>
  </defs>
  <title>SyncDatabase</title>
  <g id="canvas">
    <path class="canvas" d="M16,16H0V0H16Z" />
  </g>
  <g id="level-1">
    <path class="light-lightblue-10" d="M14.5,4.97V13c0,.828-1.791,1.5-4,1.5s-4-.672-4-1.5V8H8V4.994H6.5V4.97c0-.828,1.791-1.5,4-1.5S14.5,4.142,14.5,4.97Z" />
    <path class="light-lightblue" d="M15,4.97V13c0,1.313-2.264,2-4.5,2S6,14.313,6,13V8H7v5c0,.29,1.227,1,3.5,1s3.5-.71,3.5-1V6.261a7.863,7.863,0,0,1-3.5.709A9.33,9.33,0,0,1,8,6.639V5.61a7.876,7.876,0,0,0,2.5.36c2.273,0,3.5-.71,3.5-1s-1.227-1-3.5-1S7,4.68,7,4.97c0,.007.01.017.011.024H6.127l1.605-1.6C10.344,2.556,15,3.078,15,4.97Z" />
    <path class="light-blue" d="M7,7H1.707L2.854,8.146l-.708.708-2-2V6.146l2-2,.708.708L1.713,5.994H7ZM4.146,4.146l.708.708,2-2V2.146l-2-2L4.146.854l1.141,1.14H0V3H5.293Z" />
  </g>
</svg>
