<svg xmlns="http://www.w3.org/2000/svg" viewBox="0 0 16 16">
  <defs>
    <style>.canvas{fill: none; opacity: 0;}.light-defaultgrey-10{fill: #212121; opacity: 0.1;}.light-defaultgrey{fill: #212121; opacity: 1;}.light-yellow{fill: #996f00; opacity: 1;}.white{fill: #ffffff; opacity: 1;}</style>
  </defs>
  <title>IconLightSynonymWarning</title>
  <g id="canvas">
    <path class="canvas" d="M16,16H0V0H16Z" />
  </g>
  <g id="level-1">
    <path class="light-defaultgrey-10" d="M.5,9.5v5H6.34l.27-.5L8,11.49l.5-.91V9.5Z" />
    <path class="light-defaultgrey" d="M8.5,8H.5L0,8.5v6l.5.5H6.06l.28-.5.27-.5H1V10H8v1.49l.5-.91L9,9.67V8.5Z" />
    <path class="light-defaultgrey-10" d="M7.5,1.5v5h8v-5Z" />
    <path class="light-defaultgrey" d="M15.5,0h-8L7,.5v6l.5.5h8l.5-.5V.5ZM15,6H8V2h7Z" />
    <path class="light-yellow" d="M15.5,16h-8l-.439-.739,4-7.261h.878l4,7.261Z" />
    <path class="white" d="M12,13H11V10h1Zm.25,1.5a.75.75,0,1,1-.75-.75A.75.75,0,0,1,12.25,14.5Z" />
  </g>
</svg>
