<svg xmlns="http://www.w3.org/2000/svg" viewBox="0 0 16 16">
  <defs>
    <style>.canvas{fill: none; opacity: 0;}.light-defaultgrey-10{fill: #212121; opacity: 0.1;}.light-defaultgrey{fill: #212121; opacity: 1;}.light-yellow{fill: #996f00; opacity: 1;}.white{fill: #ffffff; opacity: 1;}</style>
  </defs>
  <title>IconLightTableWarning</title>
  <g id="canvas" class="canvas">
    <path class="canvas" d="M16,16H0V0H16Z" />
  </g>
  <g id="level-1">
    <path class="light-defaultgrey-10" d="M6.889,13.5H1.5V2.5h12V8.76L12.53,7H10.47Z" />
    <path class="light-defaultgrey" d="M7.165,13H6V11H8.266l.551-1H6V8H9V9.668L10.47,7H10V5h3V7h-.47L14,9.668V2.5L13.5,2H1.5L1,2.5v11l.5.5H6.614ZM9,7H6V5H9ZM5,13H2V11H5Zm0-3H2V8H5ZM5,7H2V5H5ZM2,4V3H13V4H2Z" />
    <path class="light-yellow" d="M15.5,16h-8l-.439-.739,4-7.261h.878l4,7.261Z" />
    <path class="white" d="M12,13H11V10h1Zm.25,1.5a.75.75,0,1,1-.75-.75A.75.75,0,0,1,12.25,14.5Z" />
  </g>
</svg>
