<svg xmlns="http://www.w3.org/2000/svg" viewBox="0 0 16 16">
  <defs>
    <style>.canvas{fill: none; opacity: 0;}.light-defaultgrey-10{fill: #212121; opacity: 0.1;}.light-defaultgrey{fill: #212121; opacity: 1;}</style>
  </defs>
  <title>IconLightTabletSettings</title>
  <g id="canvas" class="canvas">
    <path class="canvas" d="M16,0V16H0V0Z" />
  </g>
  <g id="level-1">
    <path class="light-defaultgrey-10" d="M1.5,2.5V8.47A4.4,4.4,0,0,1,2,8.26,4.379,4.379,0,0,1,3.5,8a4.473,4.473,0,0,1,3.74,2,4.07,4.07,0,0,1,.5,1,4.16,4.16,0,0,1,.23,1,4.07,4.07,0,0,1,.03.5h6.5V2.5Z" />
    <path class="light-defaultgrey" d="M7.24,10a4.07,4.07,0,0,1,.5,1H9V10ZM14.5,2H1.5L1,2.5V8.76a3.6,3.6,0,0,1,.5-.29A4.4,4.4,0,0,1,2,8.26V3H14v9H7.97a4.182,4.182,0,0,1,0,1H14.5l.5-.5V2.5ZM9,10H7.24a4.07,4.07,0,0,1,.5,1H9ZM7.24,10a4.07,4.07,0,0,1,.5,1H9V10Z" />
    <path class="light-defaultgrey" d="M1.051,13a2.473,2.473,0,0,0,.365.876l-.745.745.707.707.745-.745A2.469,2.469,0,0,0,3,14.949V16H4V14.949a2.469,2.469,0,0,0,.877-.366l.745.745.707-.707-.745-.745A2.473,2.473,0,0,0,5.949,13H7V12H5.949a2.473,2.473,0,0,0-.365-.876l.745-.745-.707-.707-.745.745A2.469,2.469,0,0,0,4,10.051V9H3v1.051a2.469,2.469,0,0,0-.877.366l-.745-.745-.707.707.745.745A2.473,2.473,0,0,0,1.051,12H0v1ZM2,12.5A1.5,1.5,0,1,1,3.5,14,1.5,1.5,0,0,1,2,12.5Z" />
  </g>
</svg>
