<svg xmlns="http://www.w3.org/2000/svg" viewBox="0 0 16 16">
  <defs>
    <style>.canvas{fill: none; opacity: 0;}.light-defaultgrey-10{fill: #212121; opacity: 0.1;}.light-defaultgrey{fill: #212121; opacity: 1;}</style>
  </defs>
  <title>IconLightTableMissing</title>
  <g id="canvas" class="canvas">
    <path class="canvas" d="M16,16H0V0H16Z" />
  </g>
  <g id="level-1">
    <path class="light-defaultgrey-10" d="M10.379,13.5H1.5V2.5h12v7.879l-.5.5L10.854,8.732,8.732,10.854,10.879,13Z" />
    <path class="light-defaultgrey" d="M10.879,13H10v-.879l-1-1V13H6V11H8.879l-.147-.146L10,9.586V8h3v2h-.879l.879.879,1-1V2.5L13.5,2H1.5L1,2.5v11l.5.5H9.879ZM9,10H6V8H9ZM9,7H6V5H9Zm4,0H10V5h3ZM5,13H2V11H5Zm0-3H2V8H5ZM5,7H2V5H5ZM2,4V3H13V4H2Z" />
    <path class="light-defaultgrey" d="M13.707,13l2.147,2.146-.708.708L13,13.707l-2.146,2.147-.708-.708L12.293,13l-2.147-2.146.708-.708L13,12.293l2.146-2.147.708.708Z" />
  </g>
</svg>
