<svg xmlns="http://www.w3.org/2000/svg" viewBox="0 0 16 16">
  <defs>
    <style>.canvas{fill: none; opacity: 0;}.light-defaultgrey{fill: #212121; opacity: 1;}.light-defaultgrey-10{fill: #212121; opacity: 0.1;}.light-red{fill: #c50b17; opacity: 1;}.white{fill: #ffffff; opacity: 1;}.cls-1{opacity:0.75;}</style>
  </defs>
  <title>IconLightTableGroupError</title>
  <g id="canvas" class="canvas">
    <path class="canvas" d="M16,16H0V0H16Z" />
  </g>
  <g id="level-1">
    <g class="cls-1">
      <path class="light-defaultgrey" d="M2,2V1.5L2.5,1h12l.5.5V8.023a4.935,4.935,0,0,0-1-.6V2Z" />
    </g>
    <path class="light-defaultgrey-10" d="M7.694,14.5H.5V3.5h12V7.05C12.333,7.034,12.171,7,12,7a5,5,0,0,0-5,5A4.946,4.946,0,0,0,7.694,14.5Z" />
    <path class="light-defaultgrey" d="M7.422,14H5V12H7a4.988,4.988,0,0,1,.1-1H5V9H8v.027A5,5,0,0,1,9.027,8H9V6h3V7a4.988,4.988,0,0,1,1,.1V3.5L12.5,3H.5L0,3.5v11l.5.5H8.023A4.935,4.935,0,0,1,7.422,14ZM8,8H5V6H8ZM4,14H1V12H4Zm0-3H1V9H4ZM4,8H1V6H4ZM1,5V4H12V5H1Z" />
    <path class="light-red" d="M12,8a4,4,0,1,0,4,4A4,4,0,0,0,12,8Z" />
    <path class="white" d="M12.707,12l1.147,1.146-.708.708L12,12.707l-1.146,1.147-.708-.708L11.293,12l-1.147-1.146.708-.708L12,11.293l1.146-1.147.708.708Z" />
  </g>
</svg>
