<svg xmlns="http://www.w3.org/2000/svg" viewBox="0 0 16 16">
  <defs>
    <style>.canvas{fill: none; opacity: 0;}.light-defaultgrey-10{fill: #212121; opacity: 0.1;}.light-defaultgrey{fill: #212121; opacity: 1;}.light-lightblue-10{fill: #0077a0; opacity: 0.1;}.light-lightblue{fill: #0077a0; opacity: 1;}.light-blue{fill: #005dba; opacity: 1;}</style>
  </defs>
  <title>IconLightTableAdapter</title>
  <g id="canvas" class="canvas">
    <path class="canvas" d="M16,16H0V0H16Z" />
  </g>
  <g id="level-1">
    <path class="light-defaultgrey-10" d="M9.5,9.5h6v5h-6Z" />
    <path class="light-defaultgrey" d="M9,9.5v5l.5.5h6l.5-.5v-5L15.5,9h-6ZM12,11v1H10V11Zm3,1H13V11h2Zm-2,2V13h2v1Zm-3,0V13h2v1Z" />
    <path class="light-lightblue-10" d="M3.5,14.5c-1.654,0-3-.673-3-1.5V10c0-.827,1.346-1.5,3-1.5s3,.673,3,1.5v3C6.5,13.827,5.154,14.5,3.5,14.5Z" />
    <path class="light-lightblue" d="M3.5,8C1.505,8,0,8.859,0,10v3c0,1.141,1.505,2,3.5,2S7,14.141,7,13V10C7,8.859,5.5,8,3.5,8Zm0,1C5.026,9,6,9.592,6,10s-.974,1-2.5,1S1,10.408,1,10,1.974,9,3.5,9Zm0,5C1.974,14,1,13.408,1,13V11.426A5.108,5.108,0,0,0,3.5,12,5.108,5.108,0,0,0,6,11.426V13C6,13.408,5.026,14,3.5,14Z" />
    <path class="light-blue" d="M15,3V6.5l-.5.5H11V6h2.39A5.485,5.485,0,0,0,3.61,6H6V7H2.5L2,6.5V3H3V5.069a6.463,6.463,0,0,1,11,0V3Z" />
  </g>
</svg>
