<svg xmlns="http://www.w3.org/2000/svg" viewBox="0 0 16 16">
  <defs>
    <style>.canvas{fill: none; opacity: 0;}.light-defaultgrey-10{fill: #212121; opacity: 0.1;}.light-defaultgrey{fill: #212121; opacity: 1;}.light-red{fill: #c50b17; opacity: 1;}.white{fill: #ffffff; opacity: 1;}</style>
  </defs>
  <title>IconLightTableError</title>
  <g id="canvas" class="canvas">
    <path class="canvas" d="M16,16H0V0H16Z" />
  </g>
  <g id="level-1">
    <path class="light-defaultgrey-10" d="M7.254,13.5H1.5V2.5h12V7.254A4.936,4.936,0,0,0,7.254,13.5Z" />
    <path class="light-defaultgrey" d="M7.1,13H6V11H7.1a4.968,4.968,0,0,1,.321-1H6V8H9v.023A4.956,4.956,0,0,1,12,7H10V5h3V7H12a4.979,4.979,0,0,1,2,.422V2.5L13.5,2H1.5L1,2.5v11l.5.5H7.422A4.968,4.968,0,0,1,7.1,13ZM9,7H6V5H9ZM5,13H2V11H5Zm0-3H2V8H5ZM5,7H2V5H5ZM2,4V3H13V4H2Z" />
    <path class="light-red" d="M12,8a4,4,0,1,0,4,4A4,4,0,0,0,12,8Z" />
    <path class="white" d="M12.707,12l1.147,1.146-.708.708L12,12.707l-1.146,1.147-.708-.708L11.293,12l-1.147-1.146.708-.708L12,11.293l1.146-1.147.708.708Z" />
  </g>
</svg>
