<svg xmlns="http://www.w3.org/2000/svg" viewBox="0 0 16 16">
  <defs>
    <style>.canvas{fill: none; opacity: 0;}.light-defaultgrey-10{fill: #212121; opacity: 0.1;}.light-defaultgrey{fill: #212121; opacity: 1;}.light-red{fill: #c50b17; opacity: 1;}.white{fill: #ffffff; opacity: 1;}.cls-1{opacity:0.75;}</style>
  </defs>
  <title>TargetFileError</title>
  <g id="canvas">
    <path class="canvas" d="M16,16H0V0H16Z" />
  </g>
  <g id="level-1">
    <g class="cls-1">
      <path class="light-defaultgrey-10" d="M6.676,11A3.471,3.471,0,0,0,5,9.305V8H2.5V1.5h8l3,3V7.255A4.942,4.942,0,0,0,12,7a5.009,5.009,0,0,0-4.9,4Zm.748,3H6.645a3.442,3.442,0,0,1-.3.5H7.7A4.925,4.925,0,0,1,7.424,14Z" />
      <path class="light-defaultgrey" d="M10,2H3V8H2V1.5L2.5,1h8l.354.146,3,3L14,4.5V7.424A4.91,4.91,0,0,0,13,7.1V5H10ZM7.424,14H6.645a3.511,3.511,0,0,1-.739,1h2.12A4.967,4.967,0,0,1,7.424,14Z" />
    </g>
    <path class="light-defaultgrey" d="M5.953,12A2.5,2.5,0,0,0,4,10.018V9H3v1.018A2.5,2.5,0,0,0,1.047,12H0v1H1.06A2.5,2.5,0,0,0,3,14.917V16H4V14.917A2.5,2.5,0,0,0,5.94,13H7V12ZM3.5,13.968A1.5,1.5,0,0,1,3.193,11h.614A1.5,1.5,0,0,1,3.5,13.968Z" />
    <path class="light-red" d="M12,8a4,4,0,1,0,4,4A4,4,0,0,0,12,8Z" />
    <path class="white" d="M12.707,12l1.147,1.146-.708.708L12,12.707l-1.146,1.147-.708-.708L11.293,12l-1.147-1.146.708-.708L12,11.293l1.146-1.147.708.708Z" />
  </g>
</svg>
