<svg xmlns="http://www.w3.org/2000/svg" viewBox="0 0 16 16">
  <defs>
    <style>.canvas{fill: none; opacity: 0;}.light-defaultgrey-10{fill: #212121; opacity: 0.1;}.light-defaultgrey{fill: #212121; opacity: 1;}.cls-1{opacity:0.75;}</style>
  </defs>
  <title>TargetFile</title>
  <g id="canvas">
    <path class="canvas" d="M16,16H0V0H16Z" />
  </g>
  <g id="level-1">
    <g class="cls-1">
      <path class="light-defaultgrey-10" d="M13.5,4.5v10H6.346a3.442,3.442,0,0,0,.3-.5H8V11H6.676A3.471,3.471,0,0,0,5,9.305V8H2.5V1.5h8Z" />
      <path class="light-defaultgrey" d="M10.854,1.146,10.5,1h-8L2,1.5V8H3V2h7V5h3v9H6.645a3.511,3.511,0,0,1-.739,1H13.5l.5-.5V4.5l-.146-.354Z" />
    </g>
    <path class="light-defaultgrey" d="M5.953,12A2.5,2.5,0,0,0,4,10.018V9H3v1.018A2.5,2.5,0,0,0,1.047,12H0v1H1.06A2.5,2.5,0,0,0,3,14.917V16H4V14.917A2.5,2.5,0,0,0,5.94,13H7V12ZM3.5,13.968A1.5,1.5,0,0,1,3.193,11h.614A1.5,1.5,0,0,1,3.5,13.968Z" />
  </g>
</svg>
