<svg xmlns="http://www.w3.org/2000/svg" viewBox="0 0 16 16">
  <defs>
    <style>.canvas{fill: none; opacity: 0;}.light-defaultgrey{fill: #212121; opacity: 1;}.light-defaultgrey-10{fill: #212121; opacity: 0.1;}.light-yellow{fill: #996f00; opacity: 1;}.white{fill: #ffffff; opacity: 1;}.cls-1{opacity:0.75;}</style>
  </defs>
  <title>TargetFileWarning</title>
  <g id="canvas">
    <path class="canvas" d="M16,16H0V0H16Z" />
  </g>
  <g id="level-1">
    <g class="cls-1">
      <path class="light-defaultgrey" d="M10,2H3V8H2V1.5L2.5,1h8l.354.146,3,3L14,4.5V9.668L13,7.853V5H10Z" />
      <path class="light-defaultgrey-10" d="M5,9.305V8H2.5V1.5h8l3,3V8.723L12.53,7H10.47L8,11.484V11H6.676A3.471,3.471,0,0,0,5,9.305Z" />
    </g>
    <path class="light-defaultgrey" d="M5.953,12A2.5,2.5,0,0,0,4,10.018V9H3v1.018A2.5,2.5,0,0,0,1.047,12H0v1H1.06A2.5,2.5,0,0,0,3,14.917V16H4V14.917A2.5,2.5,0,0,0,5.94,13H7V12ZM3.5,13.968A1.5,1.5,0,0,1,3.193,11h.614A1.5,1.5,0,0,1,3.5,13.968Z" />
    <path class="light-yellow" d="M15.5,16h-8l-.439-.739,4-7.261h.878l4,7.261Z" />
    <path class="white" d="M12,13H11V10h1Zm.25,1.5a.75.75,0,1,1-.75-.75A.75.75,0,0,1,12.25,14.5Z" />
  </g>
</svg>
