<svg xmlns="http://www.w3.org/2000/svg" viewBox="0 0 16 16">
  <defs>
    <style>.canvas{fill: none; opacity: 0;}.light-defaultgrey-10{fill: #212121; opacity: 0.1;}.light-defaultgrey{fill: #212121; opacity: 1;}.cls-1{opacity:0.75;}</style>
  </defs>
  <title>IconLightTaskContentType</title>
  <g id="canvas">
    <path class="canvas" d="M16,0V16H0V0Z" />
  </g>
  <g id="level-1">
    <path class="light-defaultgrey-10" d="M6.5,15.5H.5v-7H5L6.5,10Z" />
    <g class="cls-1">
      <path class="light-defaultgrey-10" d="M13.5,3.5v11H8V9.8L7.7,9.08,5.92,7.3,5.2,7H3.5V3.5Z" />
      <path class="light-defaultgrey" d="M14,3.5v11l-.5.5H8V14h5V4H4V7H3V3.5L3.5,3h10Z" />
    </g>
    <path class="light-defaultgrey" d="M10.5,2a2,2,0,0,0-4,0H5V4h7V2Zm-2-1a1,1,0,1,1-1,1A1,1,0,0,1,8.5,1Z" />
    <path class="light-defaultgrey" d="M6.854,9.646l-1.5-1.5L5,8H.5L0,8.5v7l.5.5h6l.5-.5V10ZM1,15V9H4v2H6v4Z" />
  </g>
</svg>
