<svg xmlns="http://www.w3.org/2000/svg" viewBox="0 0 16 16">
  <defs>
    <style>.canvas{fill: none; opacity: 0;}.light-defaultgrey-10{fill: #212121; opacity: 0.1;}.light-defaultgrey{fill: #212121; opacity: 1;}.cls-1{opacity:0.75;}</style>
  </defs>
  <title>IconLightTaskListId</title>
  <g id="canvas">
    <path class="canvas" d="M16,16H0V0H16Z" />
  </g>
  <g id="level-1">
    <g class="cls-1">
      <path class="light-defaultgrey-10" d="M3.5,3.5V10h.87A3.989,3.989,0,0,1,11,13a3.657,3.657,0,0,1-.13,1,2.946,2.946,0,0,1-.17.5h2.8V3.5Z" />
      <path class="light-defaultgrey" d="M13.5,3H3.5L3,3.5V10H4V4h9V14H10.87a2.946,2.946,0,0,1-.17.5,2.879,2.879,0,0,1-.24.5H13.5l.5-.5V3.5Z" />
    </g>
    <path class="light-defaultgrey" d="M10.5,2a2,2,0,0,0-4,0H5V4h7V2Zm-3,0a1,1,0,1,1,1,1A1,1,0,0,1,7.5,2Z" />
    <path class="light-defaultgrey-10" d="M9.5,13a2.493,2.493,0,0,1-4.893.684L3.475,14l-.5-.5-1,.5-1.5-1.5,1-1H5.011A2.493,2.493,0,0,1,9.5,13Z" />
    <path class="light-defaultgrey" d="M8,13a.5.5,0,1,1-.5-.5A.5.5,0,0,1,8,13Zm2,0a2.992,2.992,0,0,1-5.7,1.288l-.693.193-.488-.127-.245-.246-.678.339-.577-.093-1.5-1.5v-.708l1-1L1.476,11h3.3A2.962,2.962,0,0,1,7,10,3,3,0,0,1,10,13Zm-8.817-.5.891.892.678-.339.577.093.293.294.85-.237.615.343A2,2,0,1,0,7,11a1.979,1.979,0,0,0-1.589.8l-.4.2H1.683Z" />
  </g>
</svg>
