<svg xmlns="http://www.w3.org/2000/svg" viewBox="0 0 16 16">
  <defs>
    <style>.canvas{fill: none; opacity: 0;}.light-defaultgrey{fill: #212121; opacity: 1;}.light-defaultgrey-10{fill: #212121; opacity: 0.1;}.light-yellow{fill: #996f00; opacity: 1;}.cls-1{opacity:0.75;}</style>
  </defs>
  <title>IconLightTaxi</title>
  <g id="canvas">
    <path class="canvas" d="M16,0V16H0V0Z" />
  </g>
  <g id="level-1">
    <g class="cls-1">
      <path class="light-defaultgrey" d="M4.375,10A.875.875,0,1,1,3.5,9.125.875.875,0,0,1,4.375,10ZM12.5,9.125a.875.875,0,1,0,.875.875A.875.875,0,0,0,12.5,9.125Z" />
      <path class="light-defaultgrey" d="M1,13H3v1.5a.5.5,0,0,1-.5.5h-1a.5.5,0,0,1-.5-.5Zm12,0v1.5a.5.5,0,0,0,.5.5h1a.5.5,0,0,0,.5-.5V13Z" />
      <path class="light-defaultgrey" d="M1.854,6.146l1,1-.708.708L1.293,7H1V6h.5ZM14.5,6l-.354.146-1,1,.708.708L14.707,7H15V6Z" />
      <path class="light-defaultgrey-10" d="M11.5,4.5h-7l.862-1.724A.5.5,0,0,1,5.809,2.5h4.382a.5.5,0,0,1,.447.276Z" />
      <path class="light-defaultgrey" d="M11.5,5h-7l-.447-.724.861-1.723A1,1,0,0,1,5.809,2h4.382a1,1,0,0,1,.894.552l.862,1.724ZM5.309,4h5.382l-.5-1H5.809Z" />
    </g>
    <path class="light-yellow" d="M12,11.75V13H11V11.926L10.26,11H5.74L5,11.926V13H4V11.75l.109-.312,1-1.25L5.5,10h5l.391.188,1,1.25Z" />
    <path class="light-defaultgrey-10" d="M14.5,9.5v4H1.5v-4l1-2h11Z" />
    <path class="light-yellow" d="M14.947,9.276l-1-2L13.5,7H2.5l-.447.276-1,2L1,9.5v4l.5.5h13l.5-.5v-4ZM14,13H2V9.618L2.809,8H13.191L14,9.618Z" />
    <path class="light-defaultgrey-10" d="M13.5,7.5H2.5L4,4.5h8Z" />
    <path class="light-yellow" d="M12.447,4.276,12,4H4l-.447.276-1.5,3L2.5,8h11l.447-.724ZM3.309,7l1-2h7.382l1,2Z" />
  </g>
</svg>
