<svg xmlns="http://www.w3.org/2000/svg" viewBox="0 0 16 16">
  <defs>
    <style>.canvas{fill: none; opacity: 0;}.light-defaultgrey-10{fill: #212121; opacity: 0.1;}.light-defaultgrey{fill: #212121; opacity: 1;}.cls-1{opacity:0.75;}</style>
  </defs>
  <title>Team</title>
  <g id="canvas" class="canvas">
    <path class="canvas" d="M16,16H0V0H16Z" />
  </g>
  <g id="level-1">
    <path class="light-defaultgrey-10" d="M5,11.5A2.25,2.25,0,1,1,7.25,9.25,2.25,2.25,0,0,1,5,11.5Zm0,0A3.5,3.5,0,0,0,1.5,15h7A3.5,3.5,0,0,0,5,11.5Z" />
    <path class="light-defaultgrey" d="M6.7,11.394a2.75,2.75,0,1,0-3.4,0A4,4,0,0,0,1,15H2a3,3,0,0,1,6,0H9A4,4,0,0,0,6.7,11.394ZM3.25,9.25A1.75,1.75,0,1,1,5,11,1.752,1.752,0,0,1,3.25,9.25Z" />
    <g class="cls-1">
      <path class="light-defaultgrey-10" d="M13.5,9.5A3.5,3.5,0,0,0,6.86,7.97a2.355,2.355,0,0,1,.39,1.28,2.09,2.09,0,0,1-.01.25ZM10,1.5a2.25,2.25,0,1,0,2.25,2.25A2.253,2.253,0,0,0,10,1.5Z" />
      <path class="light-defaultgrey" d="M11.7,5.894a2.75,2.75,0,1,0-3.4,0A4.036,4.036,0,0,0,6.354,7.87a2.746,2.746,0,0,1,.809.7A2.991,2.991,0,0,1,13,9.5h1A4,4,0,0,0,11.7,5.894ZM10,5.5a1.75,1.75,0,1,1,1.75-1.75A1.752,1.752,0,0,1,10,5.5Z" />
    </g>
  </g>
</svg>
