<svg xmlns="http://www.w3.org/2000/svg" viewBox="0 0 16 16">
  <defs>
    <style>.canvas{fill: none; opacity: 0;}.light-defaultgrey{fill: #212121; opacity: 1;}.light-defaultgrey-10{fill: #212121; opacity: 0.1;}.cls-1{opacity:0.75;}</style>
  </defs>
  <title>IconLightTeamProjectCollection</title>
  <g id="canvas">
    <path class="canvas" d="M0,0H16V16H0Z" />
  </g>
  <g id="level-1">
    <g class="cls-1">
      <path class="light-defaultgrey" d="M15,1.5v10l-.5.5H13V11h1V2H5V3H4V1.5L4.5,1h10Z" />
      <path class="light-defaultgrey-10" d="M13,11V3.75L12.25,3H5V2h9v9Z" />
    </g>
    <path class="light-defaultgrey" d="M13,3.5v10l-.5.5H11V13h1V4H3V9a2.97,2.97,0,0,0-1,.189V3.5L2.5,3h10Z" />
    <path class="light-defaultgrey-10" d="M12,4v9H11a3.974,3.974,0,0,0-1.226-2.863A2.95,2.95,0,0,0,10,9,3,3,0,0,0,4,9c0,.057,0,.112,0,.168A2.982,2.982,0,0,0,3.021,9L3,9V4Z" />
    <path class="light-defaultgrey-10" d="M8.547,9.047A1.547,1.547,0,1,1,7,7.5,1.547,1.547,0,0,1,8.547,9.047Zm-3.94,2.846A1.607,1.607,0,1,1,3,10.286,1.607,1.607,0,0,1,4.607,11.893ZM5.5,16a2.5,2.5,0,0,0-5,0Zm4-3a2.5,2.5,0,0,0-5,0Z" />
    <path class="light-defaultgrey" d="M8.438,10.384a2,2,0,1,0-2.876,0,3.031,3.031,0,0,0-.794.663,1.993,1.993,0,1,0-3.191,2.329A2.988,2.988,0,0,0,0,16H1a2,2,0,0,1,4,0H6a2.988,2.988,0,0,0-1.547-2.608,1.925,1.925,0,0,0,.295-.4c.111-.2.432-.809.432-.809A2,2,0,0,1,9,13h1A2.989,2.989,0,0,0,8.438,10.384ZM3.021,13a1,1,0,1,1,1-1A1,1,0,0,1,3.021,13ZM7,10A1,1,0,1,1,8,9,1,1,0,0,1,7,10Z" />
  </g>
</svg>
