<svg xmlns="http://www.w3.org/2000/svg" viewBox="0 0 16 16">
  <defs>
    <style>.canvas{fill: none; opacity: 0;}.light-defaultgrey{fill: #212121; opacity: 1;}.light-defaultgrey-10{fill: #212121; opacity: 0.1;}.light-red{fill: #c50b17; opacity: 1;}.white{fill: #ffffff; opacity: 1;}.cls-1{opacity:0.75;}</style>
  </defs>
  <title>IconLightTeamProjectCollectionOffline</title>
  <g id="canvas">
    <path class="canvas" d="M0,0H16V16H0Z" />
  </g>
  <g id="level-1">
    <g class="cls-1">
      <path class="light-defaultgrey" d="M14,2H5V3H4V1.5L4.5,1h10l.5.5V8.026a4.967,4.967,0,0,0-1-.6Z" />
      <path class="light-defaultgrey-10" d="M12.25,3H5V2h9V7.424A4.91,4.91,0,0,0,13,7.1V3.75Z" />
    </g>
    <path class="light-defaultgrey" d="M13,3.5V7.1A5,5,0,0,0,12,7V4H3V9a2.97,2.97,0,0,0-1,.189V3.5L2.5,3h10Z" />
    <path class="light-defaultgrey-10" d="M7,10.5a2.464,2.464,0,0,0-.387.039A1.544,1.544,0,1,1,8.441,8.5a4.985,4.985,0,0,0-1.193,2.029C7.165,10.517,7.085,10.5,7,10.5ZM4.5,13H7.1A5,5,0,0,1,7,12a4.944,4.944,0,0,1,.233-1.43A1.483,1.483,0,0,1,7,10.594a1.545,1.545,0,0,1-.387-.055A2.494,2.494,0,0,0,4.5,13Zm.107-1.107A1.607,1.607,0,1,0,3,13.5,1.606,1.606,0,0,0,4.607,11.893ZM3,13.5A2.5,2.5,0,0,0,.5,16h5A2.5,2.5,0,0,0,3,13.5Z" />
    <path class="light-defaultgrey" d="M4.453,13.392a1.925,1.925,0,0,0,.295-.4c.111-.2.432-.809.432-.809A2,2,0,0,1,7,11c.034,0,.066.008.1.01a4.946,4.946,0,0,1,.411-1.171A.969.969,0,0,1,7,10,1,1,0,1,1,8,9c0,.015-.008.027-.008.041a5.042,5.042,0,0,1,.825-.865,2,2,0,1,0-3.255,2.208,3.031,3.031,0,0,0-.794.663,1.993,1.993,0,1,0-3.191,2.329A2.988,2.988,0,0,0,0,16H1a2,2,0,0,1,4,0H6A2.988,2.988,0,0,0,4.453,13.392ZM3.021,13a1,1,0,1,1,1-1A1,1,0,0,1,3.021,13Z" />
    <path class="light-red" d="M12,8a4,4,0,1,0,4,4A4,4,0,0,0,12,8Z" />
    <path class="white" d="M12.707,12l1.147,1.146-.708.708L12,12.707l-1.146,1.147-.708-.708L11.293,12l-1.147-1.146.708-.708L12,11.293l1.146-1.147.708.708Z" />
    <path class="light-defaultgrey-10" d="M12,4V7a4.941,4.941,0,0,0-2.354.616A2.99,2.99,0,0,0,4,9c0,.057,0,.112,0,.168A2.982,2.982,0,0,0,3.021,9L3,9V4Z" />
  </g>
</svg>
