<svg xmlns="http://www.w3.org/2000/svg" viewBox="0 0 16 16">
  <defs>
    <style>.canvas{fill: none; opacity: 0;}.light-yellow{fill: #996f00; opacity: 1;}.light-yellow-10{fill: #996f00; opacity: 0.1;}.light-defaultgrey-10{fill: #212121; opacity: 0.1;}.light-defaultgrey{fill: #212121; opacity: 1;}</style>
  </defs>
  <title>IconLightTeamProjectRepositoryFolder</title>
  <g id="canvas">
    <path class="canvas" d="M16,16H0V0H16Z" />
  </g>
  <g id="level-1">
    <path class="light-yellow" d="M15,3.5v9l-.5.5H11a3.935,3.935,0,0,0-.145-1H14V4H8.5l-.354-.146L7.293,3H2V9.191A3.006,3.006,0,0,0,1,9.8V2.5L1.5,2h6l.354.146L8.707,3H14.5Z" />
    <path class="light-yellow-10" d="M14.5,3.5v9H10.948a3.965,3.965,0,0,0-1.174-2.363A2.95,2.95,0,0,0,10,9,3,3,0,0,0,4,9c0,.057,0,.112,0,.168a2.932,2.932,0,0,0-2.5.261V2.5h6l1,1Z" />
    <path class="light-yellow" d="M15,3.5v9l-.5.5H11a3.935,3.935,0,0,0-.145-1H14V4H8.682l-.853.854L7.475,5H2V9.191A3.006,3.006,0,0,0,1,9.8V4.5L1.5,4H7.268l.854-.854L8.475,3H14.5Z" />
    <path class="light-defaultgrey-10" d="M8.547,9.047A1.547,1.547,0,1,1,7,7.5,1.547,1.547,0,0,1,8.547,9.047Zm-3.94,2.846A1.607,1.607,0,1,1,3,10.286,1.607,1.607,0,0,1,4.607,11.893ZM5.5,16a2.5,2.5,0,0,0-5,0Zm4-3a2.5,2.5,0,0,0-5,0Z" />
    <path class="light-defaultgrey" d="M8.438,10.384a2,2,0,1,0-2.876,0,3.031,3.031,0,0,0-.794.663,1.993,1.993,0,1,0-3.191,2.329A2.988,2.988,0,0,0,0,16H1a2,2,0,0,1,4,0H6a2.988,2.988,0,0,0-1.547-2.608,1.925,1.925,0,0,0,.295-.4c.111-.2.432-.809.432-.809A2,2,0,0,1,9,13h1A2.989,2.989,0,0,0,8.438,10.384ZM3.021,13a1,1,0,1,1,1-1A1,1,0,0,1,3.021,13ZM7,10A1,1,0,1,1,8,9,1,1,0,0,1,7,10Z" />
  </g>
</svg>
