<svg xmlns="http://www.w3.org/2000/svg" viewBox="0 0 16 16">
  <defs>
    <style>.canvas{fill: none; opacity: 0;}.light-defaultgrey-10{fill: #212121; opacity: 0.1;}.light-defaultgrey{fill: #212121; opacity: 1;}.cls-1{opacity:0.75;}</style>
  </defs>
  <title>IconLightTeamFoundationServer</title>
  <g id="canvas">
    <path class="canvas" d="M16,16H0V0H16Z" />
  </g>
  <g id="level-1">
    <path class="light-defaultgrey-10" d="M14.5,2.5v10H10.948a3.972,3.972,0,0,0-1.173-2.363A2.977,2.977,0,0,0,8.5,6.417V2.5a1,1,0,0,1,1-1h4A1,1,0,0,1,14.5,2.5Z" />
    <path class="light-defaultgrey" d="M15,2.5v10l-.5.5H11a3.935,3.935,0,0,0-.145-1H14V2.5a.5.5,0,0,0-.5-.5h-4a.5.5,0,0,0-.5.5V6.78a2.989,2.989,0,0,0-1-.6V2.5A1.5,1.5,0,0,1,9.5,1h4A1.5,1.5,0,0,1,15,2.5Z" />
    <path class="light-defaultgrey-10" d="M8.547,9.047A1.547,1.547,0,1,1,7,7.5,1.547,1.547,0,0,1,8.547,9.047Zm-3.94,2.846A1.607,1.607,0,1,1,3,10.286,1.607,1.607,0,0,1,4.607,11.893ZM5.5,16a2.5,2.5,0,0,0-5,0Zm4-3a2.5,2.5,0,0,0-5,0Z" />
    <path class="light-defaultgrey" d="M8.438,10.384a2,2,0,1,0-2.876,0,3.031,3.031,0,0,0-.794.663,1.993,1.993,0,1,0-3.191,2.329A2.988,2.988,0,0,0,0,16H1a2,2,0,0,1,4,0H6a2.988,2.988,0,0,0-1.547-2.608,1.925,1.925,0,0,0,.295-.4c.111-.2.432-.809.432-.809A2,2,0,0,1,9,13h1A2.989,2.989,0,0,0,8.438,10.384ZM3.021,13a1,1,0,1,1,1-1A1,1,0,0,1,3.021,13ZM7,10A1,1,0,1,1,8,9,1,1,0,0,1,7,10Z" />
    <g class="cls-1">
      <path class="light-defaultgrey" d="M10,8h3V9H10Zm0,2.4a4.022,4.022,0,0,1,.434.6H13V10H10ZM10,4V5h3V4Z" />
    </g>
  </g>
</svg>
