<svg xmlns="http://www.w3.org/2000/svg" viewBox="0 0 16 16">
  <defs>
    <style>.canvas{fill: none; opacity: 0;}.light-defaultgrey{fill: #212121; opacity: 1;}.light-defaultgrey-10{fill: #212121; opacity: 0.1;}.cls-1{opacity:0.75;}</style>
  </defs>
  <title>IconLightTemplateSealed</title>
  <g id="canvas" class="canvas">
    <path class="canvas" d="M16,16H0V0H16Z" />
  </g>
  <g id="level-1">
    <g class="cls-1">
      <path class="light-defaultgrey" d="M1.207,5.354,2.853,7l-.707.707-2-2V5l2-2,.707.707Z" />
      <path class="light-defaultgrey" d="M12.854,5.707V5l-2-2-.707.707,1.646,1.647L10.147,7l.707.707Z" />
    </g>
    <path class="light-defaultgrey" d="M10,1V2H7V9H6V2H3V1Z" />
    <path class="light-defaultgrey-10" d="M12.5,9.5a3,3,0,1,1-3,3A3,3,0,0,1,12.5,9.5Z" />
    <path class="light-defaultgrey" d="M9,12.5A3.5,3.5,0,1,0,12.5,9,3.5,3.5,0,0,0,9,12.5Zm6,0a2.486,2.486,0,0,1-.416,1.377l-3.461-3.461A2.5,2.5,0,0,1,15,12.5Zm-5,0a2.486,2.486,0,0,1,.416-1.377l3.461,3.461A2.5,2.5,0,0,1,10,12.5Z" />
  </g>
</svg>
