<svg xmlns="http://www.w3.org/2000/svg" viewBox="0 0 16 16">
  <defs>
    <style>.canvas{fill: none; opacity: 0;}.light-defaultgrey-10{fill: #212121; opacity: 0.1;}.light-defaultgrey{fill: #212121; opacity: 1;}.cls-1{opacity:0.75;}</style>
  </defs>
  <title>TerminalReadOnly</title>
  <g id="canvas">
    <path class="canvas" d="M16,16H0V0H16Z" />
  </g>
  <g id="level-1">
    <g class="cls-1">
      <path class="light-defaultgrey-10" d="M7.049,13.5H1.5V5h13V9.691A4.95,4.95,0,0,0,7.049,13.5Z" />
      <path class="light-defaultgrey" d="M7,14H1.5L1,13.5v-9l.5.5H2v8H7.1A5.033,5.033,0,0,0,7,14Zm8-3.976V4.5l-.5.5H14V9.424A5,5,0,0,1,15,10.024Z" />
    </g>
    <path class="light-defaultgrey-10" d="M14.5,1.5v3H1.5v-3Z" />
    <path class="light-defaultgrey" d="M14.5,1H1.5L1,1.5v3l.5.5h13l.5-.5v-3ZM14,4H2V2H14Z" />
    <path class="light-defaultgrey" d="M3.854,6.146l2,2v.708l-2,2-.708-.708L4.793,8.5,3.146,6.854Zm4.61,4.319A4.98,4.98,0,0,1,9,10.024V10H6v1H8.024A4.96,4.96,0,0,1,8.464,10.465Z" />
    <path class="light-defaultgrey" d="M13.06,12.939A1.5,1.5,0,1,1,12,12.5,1.5,1.5,0,0,1,13.06,12.939Zm1.766-1.766,0,0A4,4,0,0,0,8,14H9a3,3,0,0,1,6,0h1A4,4,0,0,0,14.826,11.173Z" />
  </g>
</svg>
