<svg xmlns="http://www.w3.org/2000/svg" viewBox="0 0 16 16">
  <defs>
    <style>.canvas{fill: none; opacity: 0;}.light-defaultgrey-10{fill: #212121; opacity: 0.1;}.light-defaultgrey{fill: #212121; opacity: 1;}.light-blue{fill: #005dba; opacity: 1;}.cls-1{opacity:0.75;}</style>
  </defs>
  <title>IconLightTermExtraction</title>
  <g id="canvas" class="canvas">
    <path class="canvas" d="M16,16H0V0H16Z" />
  </g>
  <g id="level-1">
    <g class="cls-1">
      <path class="light-defaultgrey-10" d="M13.35,12.76l-2.11-2.11.65-.65H8V7h3.89l-.65-.65L12.59,5l.7-.71L10.5,1.5h-8v13h11V12.61Z" />
      <path class="light-defaultgrey" d="M13.5,12.61l-.15.15L13,12.41V14H3V2h7V5h2.59l.7-.71.35-.35L10.85,1.15,10.5,1h-8L2,1.5v13l.5.5h11l.5-.5V12.11Z" />
    </g>
    <path class="light-blue" d="M13.35,5.65l-.7.7L14.29,8H9V9h5.29l-1.64,1.65.7.7,2.5-2.5v-.7Z" />
    <path class="light-defaultgrey" d="M8,8V9H4V8ZM7,6H4V7H7ZM4,11H7V10H4Z" />
  </g>
</svg>
