<svg xmlns="http://www.w3.org/2000/svg" viewBox="0 0 16 16">
  <defs>
    <style>.canvas{fill: none; opacity: 0;}.light-yellow-10{fill: #996f00; opacity: 0.1;}.light-yellow{fill: #996f00; opacity: 1;}.light-teal-10{fill: #006758; opacity: 0.1;}.light-defaultgrey-10{fill: #212121; opacity: 0.1;}.light-defaultgrey{fill: #212121; opacity: 1;}.light-teal{fill: #006758; opacity: 1;}</style>
  </defs>
  <title>TestSuite</title>
  <g id="canvas">
    <path class="canvas" d="M16,16H0V0H16Z" />
  </g>
  <g id="level-1">
    <path class="light-yellow-10" d="M8.5,3.5l-1-1h-6V7H7v3H6v1.07l.58.93.31.5H14.5v-9Z" />
    <path class="light-yellow" d="M14.5,3H8.71l-.86-.85L7.5,2h-6L1,2.5V7H2V5H7.48l.35-.15L8.68,4H14v8H6.58l.31.5.32.5H14.5l.5-.5v-9ZM7.27,4H2V3H7.29l.49.49Z" />
    <path class="light-teal-10" d="M6.579,14.735a.5.5,0,0,1-.424.765H.959a.5.5,0,0,1-.424-.765L1.307,13.5h4.5Z" />
    <path class="light-defaultgrey-10" d="M1.557,13l.937-1.5v-3h2v3L5.432,13Z" />
    <path class="light-defaultgrey" d="M2,9H1V8H6V9H5v2.356L6.028,13H4.849L4,11.644V9H3v2.644L2.153,13H.974L2,11.356Z" />
    <path class="light-teal" d="M5.883,16H1.12a1.12,1.12,0,0,1-.95-1.714L.974,13H6.028l.8,1.287A1.12,1.12,0,0,1,5.883,16ZM1.529,14l-.511.816a.114.114,0,0,0,0,.122A.116.116,0,0,0,1.12,15H5.883a.12.12,0,0,0,.1-.183L5.474,14Z" />
  </g>
</svg>
