<svg xmlns="http://www.w3.org/2000/svg" viewBox="0 0 16 16">
  <defs>
    <style>.canvas{fill: none; opacity: 0;}.light-blue{fill: #005dba; opacity: 1;}.light-defaultgrey-10{fill: #212121; opacity: 0.1;}.light-defaultgrey{fill: #212121; opacity: 1;}</style>
  </defs>
  <title>TestNotCoveredStale</title>
  <g id="canvas">
    <path class="canvas" d="M16,16H0V0H16Z" />
  </g>
  <g id="level-1">
    <path class="light-blue" d="M3,7V8H9a4.941,4.941,0,0,1,3-1Z" />
    <path class="light-defaultgrey-10" d="M15.5,12A3.5,3.5,0,1,1,12,8.5,3.5,3.5,0,0,1,15.5,12Z" />
    <path class="light-defaultgrey" d="M12,16a4,4,0,1,1,4-4A4,4,0,0,1,12,16Zm0-7a3,3,0,1,0,3,3A3,3,0,0,0,12,9Zm1.5,4H12l-.5-.5V10h1v2h1Z" />
  </g>
</svg>
