<svg xmlns="http://www.w3.org/2000/svg" viewBox="0 0 16 16">
  <defs>
    <style>.canvas{fill: none; opacity: 0;}.light-defaultgrey-10{fill: #212121; opacity: 0.1;}.light-defaultgrey{fill: #212121; opacity: 1;}.light-teal-10{fill: #006758; opacity: 0.1;}.light-teal{fill: #006758; opacity: 1;}.cls-1{opacity:0.75;}</style>
  </defs>
  <title>TestController</title>
  <g id="canvas">
    <path class="canvas" d="M16,16H0V0H16Z" />
    <path class="canvas" d="M16,16H0V0H16Z" />
  </g>
  <g id="level-1">
    <g class="cls-1">
      <path class="light-defaultgrey-10" d="M12,5.5v2h3.5v-2Zm-8.5,0V7H7V5.5Zm5-5V4h2V.5Z" />
      <path class="light-defaultgrey" d="M3.5,5,3,5.5V7H4V6H7V5Zm7-5h-2L8,.5V4H9V1h1V4h1V.5Zm5,5H12V6h3V7H12V8h3.5l.5-.5v-2Z" />
    </g>
    <path class="light-defaultgrey-10" d="M7.5,4.5v4h4v-4Z" />
    <path class="light-defaultgrey" d="M11.5,4h-4L7,4.5v4l.5.5h4l.5-.5v-4ZM11,8H8V5h3Z" />
    <path class="light-teal-10" d="M6.576,14.734a.5.5,0,0,1-.423.765H.959a.5.5,0,0,1-.424-.765L1.306,13.5h4.5Z" />
    <path class="light-teal" d="M5.88,16H1.119A1.119,1.119,0,0,1,.17,14.285L.974,13H6.026l.8,1.286A1.119,1.119,0,0,1,5.88,16ZM1.528,14l-.511.816a.115.115,0,0,0,0,.122.113.113,0,0,0,.1.062H5.88a.115.115,0,0,0,.105-.062.112.112,0,0,0,0-.121L5.472,14Z" />
    <path class="light-defaultgrey-10" d="M1.556,13l.938-1.5v-3h2v3L5.43,13Z" />
    <path class="light-defaultgrey" d="M2,9H1V8H6V9H5v2.357L6.026,13H4.847L4,11.644V9H3v2.643L2.152,13H.974L2,11.357Z" />
  </g>
</svg>
