<svg xmlns="http://www.w3.org/2000/svg" viewBox="0 0 16 16">
  <defs>
    <style>.canvas{fill: none; opacity: 0;}.light-defaultgrey-10{fill: #212121; opacity: 0.1;}.light-defaultgrey{fill: #212121; opacity: 1;}.light-yellow-10{fill: #996f00; opacity: 0.1;}.light-yellow{fill: #996f00; opacity: 1;}</style>
  </defs>
  <title>IconLightTestPlans</title>
  <g id="canvas">
    <path class="canvas" d="M16,16H0V0H16Z" />
  </g>
  <g id="level-1">
    <path class="light-defaultgrey-10" d="M7.5,15.5h-6v-8h6Z" />
    <path class="light-defaultgrey" d="M6,10H3V9H6ZM8,7.5v8l-.5.5h-6L1,15.5V15H0V14H1V13H0V12H1V11H0V10H1V9H0V8H1V7.5L1.5,7h6ZM7,8H2v7H7Z" />
    <path class="light-yellow-10" d="M14.5,3.5v9H9V7.086L7.914,6H1.5V2.5h6l1,1Z" />
    <path class="light-yellow" d="M14.5,3H8.707l-.853-.854L7.5,2h-6L1,2.5V6H2V5H7.475l.354-.146L8.682,4H14v8H9v1h5.5l.5-.5v-9ZM7.268,4H2V3H7.293l.488.488Z" />
  </g>
</svg>
