<svg xmlns="http://www.w3.org/2000/svg" viewBox="0 0 16 16">
  <defs>
    <style>.canvas{fill: none; opacity: 0;}.light-green{fill: #1f801f; opacity: 1;}.white{fill: #ffffff; opacity: 1;}.light-defaultgrey{fill: #212121; opacity: 1;}</style>
  </defs>
  <title>TestRunProperty</title>
  <g id="canvas">
    <path class="canvas" d="M16,16H0V0H16Z" />
  </g>
  <g id="level-1">
    <path class="light-green" d="M8.5,1A6.517,6.517,0,0,0,2.16,6.08a4.022,4.022,0,0,1,.85-.09,3.683,3.683,0,0,1,.66.06A3.891,3.891,0,0,1,5.82,7.16,3.891,3.891,0,0,1,6.93,9.31a3.937,3.937,0,0,1-.08,1.71l2.86,2.86A6.5,6.5,0,0,0,8.5,1Z" />
    <path class="white" d="M7,4.5v6l4.5-3Z" />
    <path class="light-defaultgrey" d="M.042,10.5A2.994,2.994,0,0,1,.3,8.705L2.286,10.7,3.7,9.282l-2-1.991a2.983,2.983,0,0,1,3.988,3.983L9,14.586v.707L8.3,16H7.59L4.278,12.688A2.98,2.98,0,0,1,.042,10.5Z" />
  </g>
</svg>
