<svg xmlns="http://www.w3.org/2000/svg" viewBox="0 0 16 16">
  <defs>
    <style>.canvas{fill: none; opacity: 0;}.light-defaultgrey-10{fill: #212121; opacity: 0.1;}.light-defaultgrey{fill: #212121; opacity: 1;}</style>
  </defs>
  <title>TestMethodExcluded</title>
  <g id="canvas">
    <path class="canvas" d="M16,16H0V0H16Z" />
  </g>
  <g id="level-1">
    <path class="light-defaultgrey-10" d="M3.32,14.5a1,1,0,0,1-.834-1.546L6.461,6.73,6.5,6.6V1.5h3V6.6l.039.132,3.982,6.231A.984.984,0,0,1,13.535,14a.954.954,0,0,1-.855.5Z" />
    <path class="light-defaultgrey" d="M13.94,12.7l-1.51-2.46-.01-.01L10,6.52V2h1V1H5V2H6V6.52L3.58,10.23l-.01.01L2.06,12.69A1.5,1.5,0,0,0,3.32,15h9.36a1.479,1.479,0,0,0,1.31-.78A1.458,1.458,0,0,0,13.94,12.7Zm-.83,1.04a.477.477,0,0,1-.43.26H3.32a.5.5,0,0,1-.41-.78L6.92,6.94,7,6.67V2H9V6.67l.08.27,4.02,6.29A.479.479,0,0,1,13.11,13.74Z" />
  </g>
</svg>
