<svg xmlns="http://www.w3.org/2000/svg" viewBox="0 0 16 16">
  <defs>
    <style>.canvas{fill: none; opacity: 0;}.light-teal-10{fill: #006758; opacity: 0.1;}.light-teal{fill: #006758; opacity: 1;}.light-defaultgrey-10{fill: #212121; opacity: 0.1;}.light-defaultgrey{fill: #212121; opacity: 1;}</style>
  </defs>
  <title>TestProperty</title>
  <g id="canvas">
    <path class="canvas" d="M16,16H0V0H16Z" />
  </g>
  <g id="level-1">
    <path class="light-teal-10" d="M13.52,12.96,12,10.5H6.95a2.951,2.951,0,0,1-.1.5v.02L10,14.17v.33h2.68A1,1,0,0,0,13.52,12.96Z" />
    <path class="light-teal" d="M13.94,12.7l-1.51-2.46-.01-.01L12,10H6.99a2.81,2.81,0,0,1-.04.5,2.951,2.951,0,0,1-.1.5h4.87l1.38,2.23a.507.507,0,0,1-.42.77H9.83l.17.17V15h2.68a1.479,1.479,0,0,0,1.31-.78A1.458,1.458,0,0,0,13.94,12.7Z" />
    <path class="light-defaultgrey-10" d="M9.67,6.67V1.5h-3V6.67l-.55.84a3,3,0,0,1,.23.3,3.819,3.819,0,0,1,.58,1.5,4.02,4.02,0,0,1,.06.69h4.86Z" />
    <path class="light-defaultgrey" d="M10,6.52V2h1V1H5V2H6V6.52l-.33.5c.05.05.1.09.15.14a3.269,3.269,0,0,1,.3.35,3,3,0,0,1,.23.3l.57-.87L7,6.67V2H9V6.67l.08.27,2,3.06H12l.42.23Z" />
    <path class="light-defaultgrey" d="M.042,10.5A2.994,2.994,0,0,1,.3,8.705L2.286,10.7,3.7,9.282l-2-1.991a2.983,2.983,0,0,1,3.988,3.983L9,14.586v.707L8.3,16H7.59L4.278,12.688A2.98,2.98,0,0,1,.042,10.5Z" />
    <path class="light-defaultgrey" d="M.042,10.5A2.994,2.994,0,0,1,.3,8.705L2.286,10.7,3.7,9.282l-2-1.991a2.983,2.983,0,0,1,3.988,3.983L9,14.586v.707L8.3,16H7.59L4.278,12.688A2.98,2.98,0,0,1,.042,10.5Z" />
  </g>
</svg>
