<svg xmlns="http://www.w3.org/2000/svg" viewBox="0 0 16 16">
  <defs>
    <style>.canvas{fill: none; opacity: 0;}.light-defaultgrey-10{fill: #212121; opacity: 0.1;}.light-defaultgrey{fill: #212121; opacity: 1;}.light-teal-10{fill: #006758; opacity: 0.1;}.light-teal{fill: #006758; opacity: 1;}</style>
  </defs>
  <title>IconLightTestPlanProperty</title>
  <g id="canvas">
    <path class="canvas" d="M16,16H0V0H16Z" />
  </g>
  <g id="level-1">
    <path class="light-defaultgrey-10" d="M6.95,10.537l.55-.861V5.509h3V9.676l.851,1.333h-4.5A3.99,3.99,0,0,0,6.95,10.537Z" />
    <path class="light-defaultgrey" d="M12.091,11.24l-.421-.231h-.913l-.679-1.063L10,9.676V6.009H8V9.676l-.078.27-.679,1.063h-.39A3.945,3.945,0,0,0,6.97,9.577L7,9.53V6.009H6v-1h6v1H11V9.53Z" />
    <path class="light-teal-10" d="M11.76,14.509H10v-.337L7.34,11.509h4.33l.933,1.462A1,1,0,0,1,11.76,14.509Z" />
    <path class="light-teal" d="M13.076,14.23a1.48,1.48,0,0,1-1.315.779H10v-.837l-.163-.163h1.92a.5.5,0,0,0,.421-.769L11.4,12.009H7.841l-.99-.989,0-.011H11.67l.422.231.933,1.462A1.482,1.482,0,0,1,13.076,14.23Z" />
    <path class="light-defaultgrey" d="M.042,10.5A2.994,2.994,0,0,1,.3,8.705L2.286,10.7,3.7,9.282l-2-1.991a2.983,2.983,0,0,1,3.988,3.983L9,14.586v.707L8.3,16H7.59L4.278,12.688A2.98,2.98,0,0,1,.042,10.5Z" />
    <path class="light-defaultgrey-10" d="M15.5,0V8H12V7h1V4H9.5V0Z" />
    <path class="light-defaultgrey" d="M16,.5v8l-.5.5H12V8h3V1H10V4H8V3H9V2H8V1H9V.5L9.5,0h6ZM14,3H11V2h3Z" />
  </g>
</svg>
