<svg xmlns="http://www.w3.org/2000/svg" viewBox="0 0 16 16">
  <defs>
    <style>.canvas{fill: none; opacity: 0;}.light-defaultgrey-10{fill: #212121; opacity: 0.1;}.light-defaultgrey{fill: #212121; opacity: 1;}.light-blue{fill: #005dba; opacity: 1;}.light-yellow{fill: #996f00; opacity: 1;}.cls-1{opacity:0.75;}</style>
  </defs>
  <title>TextAndImage</title>
  <g id="canvas">
    <path class="canvas" d="M16,16H0V0H16Z" />
  </g>
  <g id="level-1">
    <path class="light-defaultgrey-10" d="M15.5,2.5v11H.5V2.5Z" />
    <g class="cls-1">
      <path class="light-defaultgrey" d="M9.5,4h-7L2,4.5v7l.5.5h7l.5-.5v-7ZM9,11H3V5H9Z" />
    </g>
    <path class="light-blue" d="M7.3,9,9,10.36V11H8.164l-1.189-.887-.751.334-.478,0L3.986,9.03,3,9.754V8.513L3.7,8l.608.012,1.75,1.4L6.776,9Z" />
    <path class="light-yellow" d="M6.648,7a1,1,0,1,1,1,1A1,1,0,0,1,6.648,7Z" />
    <path class="light-defaultgrey" d="M14,6H11V5h3Zm0,1H11V8h3Zm0,2H11v1h3Z" />
    <path class="light-defaultgrey" d="M15.5,2H.5L0,2.5v11l.5.5h15l.5-.5V2.5ZM15,13H1V3H15Z" />
  </g>
</svg>
