<svg xmlns="http://www.w3.org/2000/svg" viewBox="0 0 16 16">
  <defs>
    <style>.canvas{fill: none; opacity: 0;}.light-defaultgrey{fill: #212121; opacity: 1;}.light-defaultgrey-10{fill: #212121; opacity: 0.1;}.cls-1{opacity:0.75;}</style>
  </defs>
  <title>IconLightThumbnailListView</title>
  <g id="canvas" class="canvas">
    <path class="canvas" d="M16,16H0V0H16Z" />
  </g>
  <g id="level-1">
    <g class="cls-1">
      <path class="light-defaultgrey" d="M7,12h5v1H7Zm0-2v1h8V10Z" />
      <path class="light-defaultgrey" d="M7,4h5V5H7ZM7,2V3h8V2Z" />
    </g>
    <path class="light-defaultgrey-10" d="M5.5,1.5v4h-4v-4Zm0,8v4h-4v-4Z" />
    <path class="light-defaultgrey" d="M5.5,1h-4L1,1.5v4l.5.5h4L6,5.5v-4ZM5,5H2V2H5Zm.5,4h-4L1,9.5v4l.5.5h4l.5-.5v-4ZM5,13H2V10H5Z" />
  </g>
</svg>
