<svg xmlns="http://www.w3.org/2000/svg" viewBox="0 0 16 16">
  <defs>
    <style>.canvas{fill: none; opacity: 0;}.light-defaultgrey-10{fill: #212121; opacity: 0.1;}.light-defaultgrey{fill: #212121; opacity: 1;}.light-blue{fill: #005dba; opacity: 1;}</style>
  </defs>
  <title>IconLightTimePicker</title>
  <g id="canvas">
    <path class="canvas" d="M16,16H0V0H16Z" />
  </g>
  <g id="level-1">
    <path class="light-defaultgrey-10" d="M11,13.763A6.5,6.5,0,1,1,14.5,8a6.539,6.539,0,0,1-.128,1.284L11,5.238Z" />
    <path class="light-defaultgrey" d="M11,8V9H7.5L7,8.5V4H8V8Z" />
    <path class="light-defaultgrey" d="M11,14.315a7.045,7.045,0,1,1,3.767-4.556l-.822-.988A6.123,6.123,0,0,0,14,8a6.019,6.019,0,1,0-3,5.188Z" />
    <path class="light-blue" d="M14.278,12.7l.789,2.167-.94.342-.821-2.256L12,14V8l4,4.8Z" />
  </g>
</svg>
