<svg xmlns="http://www.w3.org/2000/svg" viewBox="0 0 16 16">
  <defs>
    <style>.canvas{fill: none; opacity: 0;}.light-defaultgrey-10{fill: #212121; opacity: 0.1;}.light-defaultgrey{fill: #212121; opacity: 1;}</style>
  </defs>
  <title>IconLightToggleWireframe</title>
  <g id="canvas" class="canvas">
    <path class="canvas" d="M16,16H0V0H16Z" />
  </g>
  <g id="level-1">
    <path class="light-defaultgrey-10" d="M1.5,4.5l6-3,6,3v7l-6,3-6-3Z" />
    <path class="light-defaultgrey" d="M13.724,4.053l-6-3a.5.5,0,0,0-.448,0l-6,3A.5.5,0,0,0,1,4.5v7l.276.447,6,3h.448l6-3L14,11.5v-7A.5.5,0,0,0,13.724,4.053ZM8,2.309,12.382,4.5,8,6.691Zm-1,0V6.691L2.618,4.5Zm-5,3,5,2.5v.382l-5,2.5Zm5,4v4.382L2.618,11.5Zm1,4.382V9.309L12.382,11.5Zm5-3-5-2.5V7.809l5-2.5Z" />
  </g>
</svg>
