<svg xmlns="http://www.w3.org/2000/svg" viewBox="0 0 16 16">
  <defs>
    <style>.canvas{fill: none; opacity: 0;}.light-defaultgrey-10{fill: #212121; opacity: 0.1;}.light-defaultgrey{fill: #212121; opacity: 1;}.cls-1{opacity:0.75;}</style>
  </defs>
  <title>ToggleGuides</title>
  <g id="canvas" class="canvas">
    <path class="canvas" d="M16,16H0V0H16Z" />
  </g>
  <g id="level-1">
    <path class="light-defaultgrey-10" d="M14.5,2V14.5H2V2Z" />
    <path class="light-defaultgrey" d="M15,2V14.5l-.5.5H2V14H14V2Z" />
    <g class="cls-1">
      <path class="light-defaultgrey" d="M3,5H2V4H3ZM7,5H6V4H7ZM9,5H8V4H9Zm2,0H10V4h1Zm2,0H12V4h1ZM5,3H4V2H5ZM5,5H4V4H5ZM5,7H4V6H5ZM5,9H4V8H5Zm0,2H4V10H5Zm0,2H4V12H5Z" />
    </g>
  </g>
</svg>
