<svg xmlns="http://www.w3.org/2000/svg" viewBox="0 0 16 16">
  <defs>
    <style>.canvas{fill: none; opacity: 0;}.light-defaultgrey{fill: #212121; opacity: 1;}.light-defaultgrey-10{fill: #212121; opacity: 0.1;}</style>
  </defs>
  <title>IconLightToggleWorld</title>
  <g id="canvas" class="canvas">
    <path class="canvas" d="M16,16H0V0H16Z" />
  </g>
  <g id="level-1">
    <path class="light-defaultgrey" d="M14.859,13.146v.708L12.915,15.8l-.707-.707L13.3,14H2.5L2,13.5V2.712L.915,3.8.208,3.09,2.152,1.146h.707L4.8,3.09,4.1,3.8,3,2.7V13H13.3l-1.091-1.091.707-.707Z" />
    <path class="light-defaultgrey-10" d="M14.5,3.927V8.666l-4,2-4-2V3.927l4-2.332Z" />
    <path class="light-defaultgrey" d="M6,3.909V8.648l.276.447,4,2h.448l4-2L15,8.648V3.909l-.248-.432-4-2.333h-.5l-4,2.333Zm7.719.123L10.5,5.641,7.281,4.032,10.5,2.155ZM14,8.339l-3,1.5V6.51l3-1.5ZM7,5.01l3,1.5V9.839l-3-1.5Z" />
  </g>
</svg>
