<svg xmlns="http://www.w3.org/2000/svg" viewBox="0 0 16 16">
  <defs>
    <style>.canvas{fill: none; opacity: 0;}.light-defaultgrey-10{fill: #212121; opacity: 0.1;}.light-defaultgrey{fill: #212121; opacity: 1;}</style>
  </defs>
  <title>IconLightTouchableDevice</title>
  <g id="canvas" class="canvas">
    <path class="canvas" d="M16,0V16H0V0Z" />
  </g>
  <g id="level-1">
    <path class="light-defaultgrey-10" d="M14.41,14.41c-1.741,1.741-3.753.849-7.91,1.09a1,1,0,0,1,0-2H9.09L8,12.41c-2.892-3.288-5.434-4.4-4.21-5.62,1.119-1.119,2.248,1.1,3.6,2.18L9,7.82c1.094-.729,2.182-1.94,3.13-.95C12.889,7.753,17.677,11.143,14.41,14.41Z" />
    <path class="light-defaultgrey-10" d="M.5.5v13H4.22a1.343,1.343,0,0,1,.13-.27A1.882,1.882,0,0,1,4.51,13a2.442,2.442,0,0,1,1.11-.84L2.73,9.27a2.5,2.5,0,0,1,0-3.54,2.574,2.574,0,0,1,3.54,0L7.55,7.01,8,6.69l.5-.36V.5Z" />
    <path class="light-defaultgrey" d="M5,3H4V2H5ZM8.5,0H.5L0,.5v13l.5.5H4.06a1.72,1.72,0,0,1,.16-.5,1.343,1.343,0,0,1,.13-.27A1.882,1.882,0,0,1,4.51,13H1V1H8V6.69l.5-.36L9,5.97V.5ZM3,12H5.46l-1-1H3Z" />
    <path class="light-defaultgrey" d="M14.763,8.786,12.491,6.525a1.755,1.755,0,0,0-2.262-.2L7.442,8.315,5.563,6.437a1.541,1.541,0,0,0-2.126,0,1.506,1.506,0,0,0,0,2.127L7.883,13H6.5A1.514,1.514,0,0,0,5,14.5,1.5,1.5,0,0,0,6.5,16h5.28A4.22,4.22,0,0,0,16,11.78,4.2,4.2,0,0,0,14.763,8.786Zm-.706,5.271A3.246,3.246,0,0,1,11.78,15H6.5a.5.5,0,0,1-.5-.5.513.513,0,0,1,.5-.5H9.09l.353-.854-5.3-5.29a.51.51,0,0,1,0-.712.518.518,0,0,1,.712,0l2.18,2.179,0,0,1.321,1.32.707-.707-.9-.9L10.8,7.146a.844.844,0,0,1,.981.079l2.28,2.269A3.21,3.21,0,0,1,15,11.78,3.246,3.246,0,0,1,14.057,14.057Z" />
  </g>
</svg>
