<svg xmlns="http://www.w3.org/2000/svg" viewBox="0 0 16 16">
  <defs>
    <style>.canvas{fill: none; opacity: 0;}.light-defaultgrey-10{fill: #212121; opacity: 0.1;}.light-defaultgrey{fill: #212121; opacity: 1;}.light-red-10{fill: #c50b17; opacity: 0.1;}.light-red{fill: #c50b17; opacity: 1;}</style>
  </defs>
  <title>TransactionNode</title>
  <g id="canvas">
    <path class="canvas" d="M16,16H0V0H16Z" />
  </g>
  <g id="level-1">
    <path class="light-defaultgrey-10" d="M14.5,3.5v9H1.5v-9Z" />
    <path class="light-defaultgrey" d="M10,5v6l3.5-3Z" />
    <path class="light-red-10" d="M5.56,5.5A4.478,4.478,0,0,1,3.5,6v4.5h5v-5Z" />
    <path class="light-red" d="M7,8A1,1,0,1,1,6,7,1,1,0,0,1,7,8ZM9,5.5v5l-.5.5h-5L3,10.5v-5L3.5,5h5ZM8,8a1.984,1.984,0,0,0-.343-1.116,2.023,2.023,0,0,0-.88-.726,1.99,1.99,0,0,0-1.554,0,2.023,2.023,0,0,0-.88.726,1.987,1.987,0,0,0,0,2.232,2.023,2.023,0,0,0,.88.726,1.99,1.99,0,0,0,1.554,0,2.023,2.023,0,0,0,.88-.726A1.987,1.987,0,0,0,8,8Z" />
    <path class="light-defaultgrey" d="M14.5,3H1.5L1,3.5v9l.5.5h13l.5-.5v-9ZM14,12H2V4H14Z" />
  </g>
</svg>
