<svg xmlns="http://www.w3.org/2000/svg" viewBox="0 0 16 16">
  <defs>
    <style>.canvas{fill: none; opacity: 0;}.light-defaultgrey-10{fill: #212121; opacity: 0.1;}.light-blue{fill: #005dba; opacity: 1;}.light-defaultgrey{fill: #212121; opacity: 1;}</style>
  </defs>
  <title>IconLightTransform</title>
  <g id="canvas">
    <path class="canvas" d="M16,0V16H0V0Z" />
  </g>
  <g id="level-1">
    <path class="light-defaultgrey-10" d="M14.5,1.5v7h-7v-7Z" />
    <path class="light-blue" d="M1,6V3.5L1.5,3H4.293L3.146,1.854l.708-.708,2,2v.708l-2,2-.708-.708L4.293,4H2V6Z" />
    <path class="light-defaultgrey" d="M9,10v4.5l-.5.5h-7L1,14.5v-7L1.5,7H6V8.91L7.09,10Z" />
    <path class="light-defaultgrey" d="M14.5,9h-7L7,8.5v-7L7.5,1h7l.5.5v7ZM8,8h6V2H8Z" />
  </g>
</svg>
