<svg xmlns="http://www.w3.org/2000/svg" viewBox="0 0 16 16">
  <defs>
    <style>.canvas{fill: none; opacity: 0;}.light-defaultgrey-10{fill: #212121; opacity: 0.1;}.light-defaultgrey{fill: #212121; opacity: 1;}.cls-1{opacity:0.75;}</style>
  </defs>
  <title>IconLightTransactionScope</title>
  <g id="canvas" class="canvas">
    <path class="canvas" d="M16,16H0V0H16Z" />
  </g>
  <g id="level-1">
    <g class="cls-1">
      <path class="light-defaultgrey-10" d="M4.5,12.5v-8h7v8Z" />
      <path class="light-defaultgrey" d="M4.5,13h7l.5-.5v-8L11.5,4h-7L4,4.5v8ZM5,5h6v7H5Z" />
    </g>
    <path class="light-defaultgrey" d="M13,10h1v4.5l-.5.5H9V14h4ZM3,14V10H2v4.5l.5.5H7V14ZM13.5,2H9V3h4V7h1V2.5ZM2,2.5V7H3V3H7V2H2.5Z" />
  </g>
</svg>
