<svg xmlns="http://www.w3.org/2000/svg" viewBox="0 0 16 16">
  <defs>
    <style>.canvas{fill: none; opacity: 0;}.light-defaultgrey-10{fill: #212121; opacity: 0.1;}.light-defaultgrey{fill: #212121; opacity: 1;}</style>
  </defs>
  <title>IconLightTransactionalComponent</title>
  <g id="canvas">
    <path class="canvas" d="M16,0V16H0V0Z" />
  </g>
  <g id="level-1">
    <path class="light-defaultgrey-10" d="M5.5,12.5a2,2,0,1,1-2-2A2,2,0,0,1,5.5,12.5Z" />
    <path class="light-defaultgrey-10" d="M13.5,12.5a2,2,0,1,1-2-2A2,2,0,0,1,13.5,12.5Z" />
    <path class="light-defaultgrey-10" d="M9.5,3.5a2,2,0,1,1-2-2A2,2,0,0,1,9.5,3.5Z" />
    <path class="light-defaultgrey" d="M11.5,10a2.5,2.5,0,0,0-.537.061L8.95,5.53a2.5,2.5,0,1,0-2.9,0L4.037,10.061A2.5,2.5,0,1,0,5.95,13h3.1a2.5,2.5,0,1,0,2.45-3Zm-4-8A1.5,1.5,0,1,1,6,3.5,1.5,1.5,0,0,1,7.5,2Zm-4,12A1.5,1.5,0,1,1,5,12.5,1.5,1.5,0,0,1,3.5,14Zm5.55-2H5.95a2.5,2.5,0,0,0-1-1.53L6.963,5.939a2.394,2.394,0,0,0,1.074,0L10.05,10.47A2.5,2.5,0,0,0,9.05,12Zm2.45,2A1.5,1.5,0,1,1,13,12.5,1.5,1.5,0,0,1,11.5,14Z" />
  </g>
</svg>
