<svg xmlns="http://www.w3.org/2000/svg" viewBox="0 0 16 16">
  <defs>
    <style>.canvas{fill: none; opacity: 0;}.light-defaultgrey-10{fill: #212121; opacity: 0.1;}.light-defaultgrey{fill: #212121; opacity: 1;}.light-blue{fill: #005dba; opacity: 1;}.cls-1{opacity:0.75;}</style>
  </defs>
  <title>IconLightTransferJob</title>
  <g id="canvas" class="canvas">
    <path class="canvas" d="M16,16H0V0H16Z" />
  </g>
  <g id="level-1">
    <path class="light-defaultgrey-10" d="M2.5,2.5v2h11v-2Z" />
    <g class="cls-1">
      <path class="light-defaultgrey-10" d="M2.5,5V8.29a3.333,3.333,0,0,1,.5.25,4.013,4.013,0,0,1,2,3.34l.15-.15.77.77H13.5V5Z" />
      <path class="light-defaultgrey" d="M13.5,4H2.5L2,4.5V8.13a4.162,4.162,0,0,1,.5.16,3.333,3.333,0,0,1,.5.25V5H13v7H5.42l1,1H13.5l.5-.5v-8Z" />
    </g>
    <path class="light-defaultgrey" d="M9,8V6h2V8Z" />
    <path class="light-blue" d="M3.854,15.854H3.146l-2-2,.708-.708L3,14.293V12a2,2,0,0,0-2-2H0V9H1a3,3,0,0,1,3,3v2.293l1.146-1.147.708.708Z" />
    <path class="light-defaultgrey" d="M13.5,2H2.5L2,2.5v2l.5.5h11l.5-.5v-2ZM13,4H3V3H13Z" />
    <path class="light-defaultgrey" d="M9,11V9h2v2Z" />
    <path class="light-defaultgrey" d="M7.5,10h-2L5,9.5v-2L5.5,7h2l.5.5v2ZM6,9H7V8H6Z" />
    <path class="light-defaultgrey" d="M7.5,10h-2L5,9.5v-2L5.5,7h2l.5.5v2ZM6,9H7V8H6Z" />
  </g>
</svg>
