<svg xmlns="http://www.w3.org/2000/svg" viewBox="0 0 16 16">
  <defs>
    <style>.canvas{fill: none; opacity: 0;}.light-defaultgrey-10{fill: #212121; opacity: 0.1;}.light-defaultgrey{fill: #212121; opacity: 1;}</style>
  </defs>
  <title>IconLightTransformRelative</title>
  <g id="canvas">
    <path class="canvas" d="M16,0V16H0V0Z" />
  </g>
  <g id="level-1">
    <path class="light-defaultgrey-10" d="M14.5,1.5v5h-2v6h-6v2h-5v-5h2v-6h6v-2Z" />
    <path class="light-defaultgrey" d="M14.5,1h-5L9,1.5V3H3.5L3,3.5V9H1.5L1,9.5v5l.5.5h5l.5-.5V13h5.5l.5-.5V7h1.5l.5-.5v-5ZM6,14H2V10H3v2.5l.5.5H6Zm0-2H4V10H6Zm6,0H7V9.5L6.5,9H4V4H9V6.5l.5.5H12Zm0-6H10V4h2Zm2,0H13V3.5L12.5,3H10V2h4Z" />
  </g>
</svg>
