<svg xmlns="http://www.w3.org/2000/svg" viewBox="0 0 16 16">
  <defs>
    <style>.canvas{fill: none; opacity: 0;}.light-defaultgrey-10{fill: #212121; opacity: 0.1;}.light-defaultgrey{fill: #212121; opacity: 1;}.light-lightblue-10{fill: #0077a0; opacity: 0.1;}.light-lightblue{fill: #0077a0; opacity: 1;}.light-blue{fill: #005dba; opacity: 1;}</style>
  </defs>
  <title>TransferDatabaseObject</title>
  <g id="canvas">
    <path class="canvas" d="M16,16H0V0H16Z" />
  </g>
  <g id="level-1">
    <path class="light-defaultgrey-10" d="M2.5,1.5V7a2.737,2.737,0,0,1,.5.04A3.446,3.446,0,0,1,5,8.06a3.21,3.21,0,0,1,.5.65A3.419,3.419,0,0,1,6,10.5v.91l.68-.68L8.8,12.85,8.65,13l-.5.5H14.5V1.5Z" />
    <path class="light-defaultgrey" d="M14.5,1H2.5L2,1.5V7h.5a2.737,2.737,0,0,1,.5.04V2H14V13H8.65l-1,1H14.5l.5-.5V1.5Z" />
    <path class="light-lightblue-10" d="M8.5,3.5c-1.65,0-3,.67-3,1.5V8.71A3.419,3.419,0,0,1,6,10.5v.33a3.131,3.131,0,0,0,.36.22l.32-.32.65.65a5.457,5.457,0,0,0,1.17.12c1.65,0,3-.67,3-1.5V5C11.5,4.17,10.15,3.5,8.5,3.5Z" />
    <path class="light-lightblue" d="M8.5,3C6.5,3,5,3.86,5,5V8.06a3.21,3.21,0,0,1,.5.65A3.419,3.419,0,0,1,6,10.5v.91l.68-.68,1.24,1.24A5.49,5.49,0,0,0,8.5,12c2,0,3.5-.86,3.5-2V5C12,3.86,10.5,3,8.5,3Zm0,1c1.53,0,2.5.59,2.5,1s-.97,1-2.5,1S6,5.41,6,5,6.97,4,8.5,4ZM6,10V6.43A5.22,5.22,0,0,0,8.5,7,5.22,5.22,0,0,0,11,6.43V10c0,.41-.97,1-2.5,1S6,10.41,6,10Z" />
    <path class="light-blue" d="M7.385,12.851l-2.5,2.5H4.178l-2.5-2.5.707-.707L4,13.758V10.5A1.5,1.5,0,0,0,2.5,9H0V8H2.5A2.5,2.5,0,0,1,5,10.5v3.322l1.678-1.678Z" />
  </g>
</svg>
