<svg xmlns="http://www.w3.org/2000/svg" viewBox="0 0 16 16">
  <defs>
    <style>.canvas{fill: none; opacity: 0;}.light-defaultgrey-10{fill: #212121; opacity: 0.1;}.light-defaultgrey{fill: #212121; opacity: 1;}.cls-1{opacity:0.75;}</style>
  </defs>
  <title>IconLightTrash</title>
  <g id="canvas">
    <path class="canvas" d="M16,16H0V0H16Z" />
  </g>
  <g id="level-1">
    <path class="light-defaultgrey-10" d="M12.5,3.5v11H2.5V3.5Z" />
    <g class="cls-1">
      <path class="light-defaultgrey" d="M10,12H9V6h1ZM8,12H7V6H8ZM6,12H5V6H6Z" />
    </g>
    <path class="light-defaultgrey" d="M14,3H10V2.5A1.5,1.5,0,0,0,8.5,1h-2A1.5,1.5,0,0,0,5,2.5V3H1V4H2V14.5l.5.5h10l.5-.5V4h1ZM6,2.5A.5.5,0,0,1,6.5,2h2a.5.5,0,0,1,.5.5V3H6ZM12,14H3V4h9Z" />
  </g>
</svg>
