<svg xmlns="http://www.w3.org/2000/svg" viewBox="0 0 16 16">
  <defs>
    <style>.canvas{fill: none; opacity: 0;}.light-blue-10{fill: #005dba; opacity: 0.1;}.light-defaultgrey-10{fill: #212121; opacity: 0.1;}.light-blue{fill: #005dba; opacity: 1;}.light-defaultgrey{fill: #212121; opacity: 1;}</style>
  </defs>
  <title>IconLightTreemap</title>
  <g id="canvas">
    <path class="canvas" d="M16,0V16H0V0Z" />
  </g>
  <g id="level-1">
    <path class="light-blue-10" d="M10.5,10.5h3v-3h-3Z" />
    <path class="light-defaultgrey-10" d="M10.5,5.5h3v-3h-3Z" />
    <path class="light-blue-10" d="M1.5,5.5h7v-3h-7Z" />
    <path class="light-blue" d="M8.5,6h-7L1,5.5v-3L1.5,2h7l.5.5v3ZM2,5H8V3H2Z" />
    <path class="light-defaultgrey" d="M13.5,6h-3L10,5.5v-3l.5-.5h3l.5.5v3ZM11,5h2V3H11Z" />
    <path class="light-defaultgrey-10" d="M1.5,10.5h7v-3h-7Z" />
    <path class="light-defaultgrey" d="M8.5,11h-7L1,10.5v-3L1.5,7h7l.5.5v3ZM2,10H8V8H2Z" />
    <path class="light-defaultgrey" d="M14,13H10V12h4ZM9,12H5v1H9ZM4,12H1v1H4Z" />
    <path class="light-blue" d="M13.5,11h-3l-.5-.5v-3l.5-.5h3l.5.5v3ZM11,10h2V8H11Z" />
  </g>
</svg>
