<svg xmlns="http://www.w3.org/2000/svg" viewBox="0 0 16 16">
  <defs>
    <style>.canvas{fill: none; opacity: 0;}.light-defaultgrey{fill: #212121; opacity: 1;}.light-green{fill: #1f801f; opacity: 1;}.white{fill: #ffffff; opacity: 1;}</style>
  </defs>
  <title>IconLightTriggerActionListActive</title>
  <g id="canvas" class="canvas">
    <path class="canvas" d="M16,16H0V0H16Z" />
  </g>
  <g id="level-1">
    <path class="light-defaultgrey" d="M14,4H2V3H14Zm0,2H2V7H14ZM7,12H2v1H7.1A4.988,4.988,0,0,1,7,12ZM8.023,9H2v1H7.422A4.935,4.935,0,0,1,8.023,9Z" />
    <path class="light-green" d="M16,12a4,4,0,1,1-4-4A4,4,0,0,1,16,12Z" />
    <path class="white" d="M14.208,11.171l-2.365,2.365-.711,0L9.792,12.16l.715-.7.987,1.011L13.5,10.464Z" />
  </g>
</svg>
