<svg xmlns="http://www.w3.org/2000/svg" viewBox="0 0 16 16">
  <defs>
    <style>.canvas{fill: none; opacity: 0;}.light-defaultgrey-10{fill: #212121; opacity: 0.1;}.light-defaultgrey{fill: #212121; opacity: 1;}.light-yellow{fill: #996f00; opacity: 1;}</style>
  </defs>
  <title>IconLightTriggerScript</title>
  <g id="canvas" class="canvas">
    <path class="canvas" d="M16,16H0V0H16Z" />
  </g>
  <g id="level-1">
    <path class="light-defaultgrey-10" d="M14.5,5V6.293l-.207.207H11.5V12A1.5,1.5,0,0,1,10,13.5H5.517L7.7,11H5.3L7.44,8H4.5V5A1.5,1.5,0,0,1,6,3.5h7A1.5,1.5,0,0,1,14.5,5Z" />
    <path class="light-defaultgrey" d="M13,3H6A2,2,0,0,0,4,5V8H5V5A1,1,0,0,1,6,4h5.278A1.978,1.978,0,0,0,11,5v7a1,1,0,0,1-2,0v-.5L8.5,11H7.7l-.875,1H8a1.984,1.984,0,0,0,.269,1H5.954l-.875,1H10a2,2,0,0,0,2-2V7h2.5l.5-.5V5A2,2,0,0,0,13,3Zm1,3H12V5a1,1,0,0,1,2,0Z" />
    <path class="light-yellow" d="M5.5,12,2,16H1l1.5-3H.5l2-4h3L3.363,12Z" />
  </g>
</svg>
