<svg xmlns="http://www.w3.org/2000/svg" viewBox="0 0 16 16">
  <defs>
    <style>.canvas{fill: none; opacity: 0;}.light-defaultgrey-10{fill: #212121; opacity: 0.1;}.light-defaultgrey{fill: #212121; opacity: 1;}.light-yellow{fill: #996f00; opacity: 1;}.light-red{fill: #c50b17; opacity: 1;}.white{fill: #ffffff; opacity: 1;}.cls-1{opacity:0.75;}</style>
  </defs>
  <title>IconLightTriggerError</title>
  <g id="canvas" class="canvas">
    <path class="canvas" d="M16,16H0V0H16Z" />
  </g>
  <g id="level-1">
    <g class="cls-1">
      <path class="light-defaultgrey-10" d="M7.1,13H.5V4.5h13V7.255A4.942,4.942,0,0,0,12,7a5,5,0,0,0-4.9,6Z" />
      <path class="light-defaultgrey" d="M1,5v7H3.382l-.5,1H.5L0,12.5v-8L.5,4h13l.5.5V7.424A4.91,4.91,0,0,0,13,7.1V5H1Z" />
    </g>
    <path class="light-defaultgrey-10" d="M13,2V4H1V2Z" />
    <path class="light-defaultgrey" d="M13.5,5H.5L0,4.5v-3L.5,1h13l.5.5v3ZM1,4H13V2H1Z" />
    <path class="light-yellow" d="M7.293,10.38,5,13H4l1.5-3h-2l2-4h3L6.363,9H8.026A4.928,4.928,0,0,0,7.293,10.38Z" />
    <path class="light-red" d="M12,8a4,4,0,1,0,4,4A4,4,0,0,0,12,8Z" />
    <path class="white" d="M12.707,12l1.147,1.146-.708.708L12,12.707l-1.146,1.147-.708-.708L11.293,12l-1.147-1.146.708-.708L12,11.293l1.146-1.147.708.708Z" />
  </g>
</svg>
