<svg xmlns="http://www.w3.org/2000/svg" viewBox="0 0 16 16">
  <defs>
    <style>.canvas{fill: none; opacity: 0;}.light-defaultgrey-10{fill: #212121; opacity: 0.1;}.light-defaultgrey{fill: #212121; opacity: 1;}.light-yellow{fill: #996f00; opacity: 1;}.cls-1{opacity:0.75;}</style>
  </defs>
  <title>IconLightTriggerDisabled</title>
  <g id="canvas" class="canvas">
    <path class="canvas" d="M16,16H0V0H16Z" />
  </g>
  <g id="level-1">
    <g class="cls-1">
      <path class="light-defaultgrey-10" d="M14.5,13.5H10V14H4.5v-.5h-3V3h13Z" />
      <path class="light-defaultgrey" d="M5.017,9.729,1,5.712V4.3L5.488,8.787ZM10.712,6l-4-4H5.3l4,4ZM1,13.5l.5.5H2.691L1,12.309ZM6.823,6.117,2.707,2H1.5l-.1.1L6.352,7.06ZM5.487,12.791,4.7,12H3.882l.271-.543L1,8.3V9.718l4.015,4.015Zm3.289.7L9.288,14H10.7L9.436,12.735ZM14.5,2H13.309L15,3.691V2.5ZM9.3,2,15,7.7V6.283L10.717,2Zm1.83,5.835L15,11.7V10.288L11.722,7.009Zm-.488,3.518L13.292,14H14.5l.1-.1-3.3-3.3Z" />
      <path class="light-defaultgrey" d="M14.5,2H1.5L1,2.5v11l.5.5H4.882l.5-1H2V6H14v7H9.2l-.875,1H14.5l.5-.5V2.5ZM2,5V3H14V5Z" />
    </g>
    <path class="light-yellow" d="M10.5,10,7,14H6l1.5-3h-2l2-4h3L8.363,10Z" />
  </g>
</svg>
