<svg xmlns="http://www.w3.org/2000/svg" viewBox="0 0 16 16">
  <defs>
    <style>.canvas{fill: none; opacity: 0;}.light-defaultgrey-10{fill: #212121; opacity: 0.1;}.light-defaultgrey{fill: #212121; opacity: 1;}.light-blue{fill: #005dba; opacity: 1;}</style>
  </defs>
  <title>IconLightTryCatch</title>
  <g id="canvas" class="canvas">
    <path class="canvas" d="M16,16H0V0H16Z" />
  </g>
  <g id="level-1">
    <path class="light-defaultgrey-10" d="M15.5,5.5v9H1.5v-9H6.379L7.732,6.854H9.268L10.621,5.5Z" />
    <path class="light-defaultgrey-10" d="M11.5,7.5v5h-6v-5Z" />
    <path class="light-defaultgrey" d="M16,5.5v9l-.5.5H1.5L1,14.5v-9L1.5,5H5.879l1,1H2v8H15V6H10.121l1-1H15.5Z" />
    <path class="light-blue" d="M6.354,2.647,8,4.293V0H9V4.293l1.643-1.646.707.707-2.5,2.5H8.147l-2.5-2.5Z" />
    <path class="light-defaultgrey" d="M11.5,7h-6L5,7.5v5l.5.5h6l.5-.5v-5ZM11,12H6V8h5Z" />
  </g>
</svg>
