<svg xmlns="http://www.w3.org/2000/svg" viewBox="0 0 16 16">
  <defs>
    <style>.canvas{fill: none; opacity: 0;}.light-defaultgrey-10{fill: #212121; opacity: 0.1;}.light-defaultgrey{fill: #212121; opacity: 1;}.light-blue{fill: #005dba; opacity: 1;}.cls-1{opacity:0.75;}</style>
  </defs>
  <title>TSProjectNode</title>
  <g id="canvas">
    <path class="canvas" d="M16,16H0V0H16Z" />
  </g>
  <g id="level-1">
    <g class="cls-1">
      <path class="light-defaultgrey-10" d="M15.5,2.5v11H.5V2.5Z" />
      <path class="light-defaultgrey" d="M15.5,2H.5L0,2.5v11l.5.5h15l.5-.5V2.5ZM15,13H1V3H15Z" />
    </g>
    <path class="light-blue" d="M7.626,6.064H5.971V11H4.661V6.064H3.014V5H7.626Zm.959,4.612V9.382a2.477,2.477,0,0,0,1.6.59,1.838,1.838,0,0,0,.431-.044,1.009,1.009,0,0,0,.307-.124.527.527,0,0,0,.184-.186.457.457,0,0,0,.061-.232.508.508,0,0,0-.1-.3,1.058,1.058,0,0,0-.265-.247,2.805,2.805,0,0,0-.4-.218c-.153-.07-.319-.142-.5-.214a2.546,2.546,0,0,1-1.014-.692,1.515,1.515,0,0,1-.334-.987,1.574,1.574,0,0,1,.182-.779,1.552,1.552,0,0,1,.5-.536,2.2,2.2,0,0,1,.726-.31,3.739,3.739,0,0,1,.874-.1,5.175,5.175,0,0,1,.8.055,3.1,3.1,0,0,1,.646.168V6.432a1.992,1.992,0,0,0-.318-.178,2.489,2.489,0,0,0-.354-.127,2.656,2.656,0,0,0-.7-.1,1.812,1.812,0,0,0-.4.042,1.041,1.041,0,0,0-.307.119.6.6,0,0,0-.194.185.432.432,0,0,0-.069.24.462.462,0,0,0,.077.261.885.885,0,0,0,.218.219,2.318,2.318,0,0,0,.344.2q.2.1.457.2a5.055,5.055,0,0,1,.625.31,2.195,2.195,0,0,1,.476.37,1.452,1.452,0,0,1,.3.471,1.672,1.672,0,0,1,.105.617,1.652,1.652,0,0,1-.184.816,1.5,1.5,0,0,1-.5.534,2.166,2.166,0,0,1-.735.293,4.26,4.26,0,0,1-.884.089,4.908,4.908,0,0,1-.908-.081A2.735,2.735,0,0,1,8.585,10.676Z" />
  </g>
</svg>
