<svg xmlns="http://www.w3.org/2000/svg" viewBox="0 0 16 16">
  <defs>
    <style>.canvas{fill: none; opacity: 0;}.light-lightblue-10{fill: #0077a0; opacity: 0.1;}.light-lightblue{fill: #0077a0; opacity: 1;}.light-blue{fill: #005dba; opacity: 1;}</style>
  </defs>
  <title>IconLightTwoWayDataBinding</title>
  <g id="canvas" class="canvas">
    <path class="canvas" d="M16,16H0V0H16Z" />
  </g>
  <g id="level-1">
    <path class="light-lightblue-10" d="M14.5,3v8c0,.828-1.791,1.5-4,1.5a9.392,9.392,0,0,1-2.109-.23L6.5,10.379V3c0-.828,1.791-1.5,4-1.5S14.5,2.172,14.5,3Z" />
    <path class="light-lightblue" d="M6,2.969v6.91l1,1V4.3A7.9,7.9,0,0,0,10.5,5,7.913,7.913,0,0,0,14,4.3V11c0,.29-1.227,1-3.5,1a7.112,7.112,0,0,1-2.893-.514l1.247,1.246v.14A10.422,10.422,0,0,0,10.5,13c2.236,0,4.5-.687,4.5-2V2.969C15,.344,6,.344,6,2.969Zm8,.046C14,3.3,12.773,4,10.5,4S7,3.3,7,3.015v-.03C7,2.7,8.227,2,10.5,2s3.5.7,3.5.985Z" />
    <path class="light-blue" d="M7.854,13.146v.708l-2,2-.708-.708L6.293,14H1.707l1.147,1.146-.708.708-2-2v-.708l2-2,.708.708L1.707,13H6.293L5.146,11.854l.708-.708Z" />
  </g>
</svg>
