<svg xmlns="http://www.w3.org/2000/svg" viewBox="0 0 16 16">
  <defs>
    <style>.canvas{fill: none; opacity: 0;}.light-defaultgrey{fill: #212121; opacity: 1;}.light-defaultgrey-10{fill: #212121; opacity: 0.1;}.light-green{fill: #1f801f; opacity: 1;}.cls-1{opacity:0.75;}</style>
  </defs>
  <title>IconLightTXMergeJoin</title>
  <g id="canvas" class="canvas">
    <path class="canvas" d="M16,0V16H0V0Z" />
  </g>
  <g id="level-1">
    <g class="cls-1">
      <path class="light-defaultgrey" d="M12.5,10v1A4.2,4.2,0,0,1,9,9.438V12.5H8v-6H9A3.411,3.411,0,0,0,12.5,10Z" />
    </g>
    <path class="light-defaultgrey-10" d="M14,9a1.5,1.5,0,1,0,1.5,1.5A1.5,1.5,0,0,0,14,9ZM8.5,12.5A1.5,1.5,0,1,0,10,14,1.5,1.5,0,0,0,8.5,12.5Zm0-9a1.386,1.386,0,0,0-.5.09V5H7A1.5,1.5,0,1,0,8.5,3.5Z" />
    <path class="light-defaultgrey" d="M14,8.5a2,2,0,1,0,2,2A2.006,2.006,0,0,0,14,8.5Zm0,3a1,1,0,1,1,1-1A1,1,0,0,1,14,11.5ZM8.5,12a2,2,0,1,0,2,2A2.006,2.006,0,0,0,8.5,12Zm0,3a1,1,0,1,1,1-1A1,1,0,0,1,8.5,15Zm0-12a1.679,1.679,0,0,0-.5.07V4.14A.966.966,0,0,1,8.5,4a1,1,0,1,1-1,1h-1a2,2,0,1,0,2-2Z" />
    <path class="light-green" d="M7,4H4V7H3V4H0V3H3V0H4V3H7Z" />
  </g>
</svg>
