<svg xmlns="http://www.w3.org/2000/svg" viewBox="0 0 16 16">
  <defs>
    <style>.canvas{fill: none; opacity: 0;}.light-defaultgrey-10{fill: #212121; opacity: 0.1;}.light-defaultgrey{fill: #212121; opacity: 1;}</style>
  </defs>
  <title>IconLightTxPrecentageSampling</title>
  <g id="canvas" class="canvas">
    <path class="canvas" d="M16,16H0V0H16Z" />
  </g>
  <g id="level-1">
    <path class="light-defaultgrey-10" d="M14.5,2.5v12H6v-4L5.5,10h-3V2.5Z" />
    <path class="light-defaultgrey" d="M1.162,13.516a1.121,1.121,0,0,1-.843-.332A1.233,1.233,0,0,1,0,12.291a1.357,1.357,0,0,1,.34-.971,1.194,1.194,0,0,1,.907-.358,1.109,1.109,0,0,1,.85.325A1.278,1.278,0,0,1,2.4,12.2a1.334,1.334,0,0,1-.339.961A1.19,1.19,0,0,1,1.162,13.516ZM4.741,11.03l-3.193,4.9H.714L3.9,11.03Zm-3.513.533q-.5,0-.5.695c0,.437.159.656.475.656s.485-.228.485-.684S1.534,11.563,1.228,11.563ZM4.214,16a1.113,1.113,0,0,1-.842-.332,1.231,1.231,0,0,1-.32-.892,1.35,1.35,0,0,1,.341-.97,1.187,1.187,0,0,1,.907-.359,1.117,1.117,0,0,1,.851.321,1.27,1.27,0,0,1,.3.91,1.342,1.342,0,0,1-.339.963A1.174,1.174,0,0,1,4.214,16Zm.055-1.951c-.331,0-.5.23-.5.693,0,.438.162.656.482.656s.486-.227.486-.683a.807.807,0,0,0-.131-.492A.4.4,0,0,0,4.269,14.049Z" />
    <path class="light-defaultgrey" d="M14.5,2H2.5L2,2.5V10H3V7H6v3H5.5l.5.5V15h8.5l.5-.5V2.5ZM6,6H3V3H6Zm8,8H7V11h7Zm0-4H7V7h7Zm0-4H7V3h7Z" />
  </g>
</svg>
