<svg xmlns="http://www.w3.org/2000/svg" viewBox="0 0 16 16">
  <defs>
    <style>.canvas{fill: none; opacity: 0;}.light-defaultgrey-10{fill: #212121; opacity: 0.1;}.light-defaultgrey{fill: #212121; opacity: 1;}</style>
  </defs>
  <title>IconLightTxRowSampling</title>
  <g id="canvas" class="canvas">
    <path class="canvas" d="M16,16H0V0H16Z" />
  </g>
  <g id="level-1">
    <path class="light-defaultgrey-10" d="M14.5,1.5v12H7v-4L6.5,9h-4V1.5Z" />
    <path class="light-defaultgrey" d="M1.941,16a1.722,1.722,0,0,1-1.083-.273,1.192,1.192,0,0,1-.338-.974v-.82c0-.42-.173-.629-.52-.629v-.629q.521,0,.52-.654v-.762a1.244,1.244,0,0,1,.334-.989,1.665,1.665,0,0,1,1.087-.286v.64c-.364,0-.546.2-.546.594v.728c0,.547-.176.893-.527,1.035V13c.351.142.527.491.527,1.05v.7a.7.7,0,0,0,.127.476.548.548,0,0,0,.419.139Zm4.436-2.7c-.348,0-.523.213-.523.638v.789a1.236,1.236,0,0,1-.333,1A1.709,1.709,0,0,1,4.439,16v-.64a.552.552,0,0,0,.417-.137.679.679,0,0,0,.13-.47v-.729c0-.545.174-.884.524-1.021v-.014q-.525-.216-.524-1.07v-.7c0-.4-.182-.594-.547-.594v-.64a1.652,1.652,0,0,1,1.081.286,1.223,1.223,0,0,1,.334.975v.783c0,.431.175.647.523.647Z" />
    <path class="light-defaultgrey" d="M14.5,1H2.5L2,1.5V9H3V6H6V9h.5l.5.5V10h7v3H7v1h7.5l.5-.5V1.5ZM6,5H3V2H6Zm8,4H7V6h7Zm0-4H7V2h7Z" />
  </g>
</svg>
