<svg xmlns="http://www.w3.org/2000/svg" viewBox="0 0 16 16">
  <defs>
    <style>.canvas{fill: none; opacity: 0;}.light-defaultgrey-10{fill: #212121; opacity: 0.1;}.light-defaultgrey{fill: #212121; opacity: 1;}.light-blue-10{fill: #005dba; opacity: 0.1;}.light-blue{fill: #005dba; opacity: 1;}.cls-1{opacity:0.75;}</style>
  </defs>
  <title>IconLightTypeDefinitionProtected</title>
  <g id="canvas" class="canvas">
    <path class="canvas" d="M16,16H0V0H16Z" />
  </g>
  <g id="level-1">
    <g class="cls-1">
      <path class="light-defaultgrey-10" d="M15,2V9.573h-.851L13.106,7.459H10.967L10,9.416,10.013,7.5l-.5-.5H8V2Z" />
      <path class="light-defaultgrey" d="M15.5,1h-8L7,1.5V7H8V2h7V9.573h.724l.235.457L16,9.573V1.5ZM9,4h5V3H9ZM9,6h5V5H9Z" />
    </g>
    <path class="light-blue-10" d="M8.613,13.593l-.156.907H1.5v-7h8V9.635l-1.912.278-.659,2.036Z" />
    <path class="light-blue" d="M8.543,14l-.172,1H1.5L1,14.5v-7L1.5,7h8l.5.5V9.416l-.078.157L9,9.707V8H2v6Z" />
    <path class="light-defaultgrey-10" d="M13.844,13.07l.426,2.488-2.234-1.175L9.8,15.558l.427-2.488L8.42,11.308l2.5-.363,1.118-2.264,1.117,2.264,2.5.363Z" />
    <path class="light-defaultgrey" d="M16,11.666l-.276-.853-2.239-.326-1-2.028h-.9l-1,2.028-2.238.326-.277.853L9.69,13.244l-.382,2.229.725.527,2-1.053,2,1.053.726-.527-.383-2.229Zm-2.394,2.978-1.337-.7H11.8l-1.339.7.256-1.49-.145-.443L9.494,11.656l1.5-.217.376-.273.67-1.356.669,1.356.376.273,1.5.217L13.5,12.711l-.144.443Z" />
  </g>
</svg>
