<svg xmlns="http://www.w3.org/2000/svg" viewBox="0 0 16 16">
  <defs>
    <style>.canvas{fill: none; opacity: 0;}.light-defaultgrey-10{fill: #212121; opacity: 0.1;}.light-defaultgrey{fill: #212121; opacity: 1;}.light-blue-10{fill: #005dba; opacity: 0.1;}.light-blue{fill: #005dba; opacity: 1;}.cls-1{opacity:0.75;}</style>
  </defs>
  <title>IconLightTypeDefinitionSealed</title>
  <g id="canvas" class="canvas">
    <path class="canvas" d="M16,16H0V0H16Z" />
  </g>
  <g id="level-1">
    <g class="cls-1">
      <path class="light-defaultgrey-10" d="M9.5,7h-2V1.5h8V9.168A4.461,4.461,0,0,0,10,8.76V7.5Z" />
      <path class="light-defaultgrey" d="M9,5h5V6H9ZM9,4h5V3H9Zm6.5-3h-8L7,1.5V7H8V2h7V8.762a4.5,4.5,0,0,1,1,.944V1.5Z" />
    </g>
    <path class="light-blue-10" d="M8.467,14.5H1.5v-7h8V9.151A4.555,4.555,0,0,0,8,12.5,4.99,4.99,0,0,0,8.467,14.5Z" />
    <path class="light-blue" d="M8.276,14a4.493,4.493,0,0,0,.486,1H1.5L1,14.5v-7L1.5,7h8l.5.5V8.762a4.5,4.5,0,0,0-1,.944V8H2v6Z" />
    <path class="light-defaultgrey-10" d="M12.5,9.5a3,3,0,1,1-3,3A3,3,0,0,1,12.5,9.5Z" />
    <path class="light-defaultgrey" d="M9,12.5A3.5,3.5,0,1,0,12.5,9,3.5,3.5,0,0,0,9,12.5Zm6,0a2.486,2.486,0,0,1-.416,1.377l-3.461-3.461A2.5,2.5,0,0,1,15,12.5Zm-5,0a2.486,2.486,0,0,1,.416-1.377l3.461,3.461A2.5,2.5,0,0,1,10,12.5Z" />
  </g>
</svg>
