<svg xmlns="http://www.w3.org/2000/svg" viewBox="0 0 16 16">
  <defs>
    <style>.canvas{fill: none; opacity: 0;}.light-defaultgrey-10{fill: #212121; opacity: 0.1;}.light-defaultgrey{fill: #212121; opacity: 1;}.light-blue-10{fill: #005dba; opacity: 0.1;}.light-blue{fill: #005dba; opacity: 1;}.cls-1{opacity:0.75;}</style>
  </defs>
  <title>IconLightTypeDefinitionShortcut</title>
  <g id="canvas" class="canvas">
    <path class="canvas" d="M16,16H0V0H16Z" />
  </g>
  <g id="level-1">
    <g class="cls-1">
      <path class="light-defaultgrey-10" d="M7.5,7V1.5h8V7Z" />
      <path class="light-defaultgrey" d="M14,3V4H9V3ZM9,6h5V5H9Zm7-4.5V7.086L15.914,7H15V2H8V7H7V1.5L7.5,1h8Z" />
    </g>
    <path class="light-blue-10" d="M7,8v6H1.5V7.5H7.543Z" />
    <path class="light-blue" d="M7,14v1H1.5L1,14.5v-7L1.5,7H8.086L7,8H2v6Z" />
    <path class="light-defaultgrey-10" d="M15.5,8.5v7h-7v-7Z" />
    <path class="light-defaultgrey" d="M15.5,8h-7L8,8.5v7l.5.5h7l.5-.5v-7ZM15,15H9V9h6Zm-1-4.5V14H13V11.707l-2.646,2.647-.708-.708L12.293,11H10V10h3.5Z" />
  </g>
</svg>
