<svg xmlns="http://www.w3.org/2000/svg" viewBox="0 0 16 16">
  <defs>
    <style>.canvas{fill: none; opacity: 0;}.light-defaultgrey-10{fill: #212121; opacity: 0.1;}.light-defaultgrey{fill: #212121; opacity: 1;}.light-blue-10{fill: #005dba; opacity: 0.1;}.light-blue{fill: #005dba; opacity: 1;}.cls-1{opacity:0.75;}</style>
  </defs>
  <title>TypeDefinitionPublic</title>
  <g id="canvas">
    <path class="canvas" d="M16,16H0V0H16Z" />
  </g>
  <g id="level-1">
    <g class="cls-1">
      <path class="light-defaultgrey-10" d="M15.5,1.5v9H10v-3L9.5,7h-2V1.5Z" />
      <path class="light-defaultgrey" d="M16,1.5v9l-.5.5H10V10h5V2H8V7H7V1.5L7.5,1h8ZM14,3V4H9V3ZM9,6h5V5H9Zm.5,2H14V7H9.5Z" />
    </g>
    <path class="light-blue-10" d="M9.5,7.5v7h-8v-7Z" />
    <path class="light-blue" d="M9.5,7h-8L1,7.5v7l.5.5h8l.5-.5v-7ZM9,14H2V8H9Z" />
  </g>
</svg>
