<svg xmlns="http://www.w3.org/2000/svg" viewBox="0 0 16 16">
  <defs>
    <style>.canvas{fill: none; opacity: 0;}.light-defaultgrey-10{fill: #212121; opacity: 0.1;}.light-defaultgrey{fill: #212121; opacity: 1;}.light-blue-10{fill: #005dba; opacity: 0.1;}.light-blue{fill: #005dba; opacity: 1;}.cls-1{opacity:0.75;}</style>
  </defs>
  <title>IconLightTypeDefinitionPrivate</title>
  <g id="canvas" class="canvas">
    <path class="canvas" d="M16,16H0V0H16Z" />
  </g>
  <g id="level-1">
    <g class="cls-1">
      <path class="light-defaultgrey-10" d="M10,10V7.5L9.5,7h-2V1.5h8V8.348A3,3,0,0,0,10,10Z" />
      <path class="light-defaultgrey" d="M9,6h5V5H9Zm6.5-5h-8L7,1.5V7H8V2h7V7.78A2.985,2.985,0,0,1,16,10V1.5ZM9,4h5V3H9Z" />
    </g>
    <path class="light-blue-10" d="M9.5,7.5v3.084l-.5.5V14.5H1.5v-7Z" />
    <path class="light-blue" d="M9,14v1H1.5L1,14.5v-7L1.5,7h8l.5.5v2.586l-1,1V8H2v6Z" />
    <path class="light-defaultgrey-10" d="M15.5,11.5v4h-5v-4Z" />
    <path class="light-defaultgrey" d="M15.5,11H15V10a2,2,0,0,0-4,0v1h-.5l-.5.5v4l.5.5h5l.5-.5v-4ZM12,10a1,1,0,0,1,2,0v1H12Zm3,5H11V12h4Z" />
  </g>
</svg>
