<svg xmlns="http://www.w3.org/2000/svg" viewBox="0 0 16 16">
  <defs>
    <style>.canvas{fill: none; opacity: 0;}.light-defaultgrey{fill: #212121; opacity: 1;}.white{fill: #ffffff; opacity: 1;}.light-blue{fill: #005dba; opacity: 1;}.light-yellow{fill: #996f00; opacity: 1;}</style>
  </defs>
  <title>IconLightUacShield</title>
  <g id="canvas">
    <path class="canvas" d="M16,16H0V0H16Z" />
  </g>
  <g id="level-1">
    <path class="light-defaultgrey" d="M8.3,15.953l-.055.016H7.8l-.054-.016C1.629,14.2.721,7.37,1.093,4l.06-.534L8.021.031l6.868,3.437L14.948,4C15.321,7.37,14.413,14.2,8.3,15.953Z" />
    <path class="white" d="M13.838,7.583c-.05.326-.112.658-.19,1H8.521v6.308a2.013,2.013,0,0,1-.5.172,1.531,1.531,0,0,1-.5-.172V8.583H2.394c-.078-.342-.141-.674-.19-1H7.521V1.315l.5-.252.5.252V7.583Z" />
    <path class="light-blue" d="M13.648,8.583a8.189,8.189,0,0,1-5.127,6.291V8.583ZM8.521,14.875h0c-.169.061-.321.137-.5.189C8.2,15.011,8.352,14.936,8.521,14.875ZM7.516,1.317,2.07,4.062a15.31,15.31,0,0,0,.137,3.521H7.521V3.094h0ZM2.205,7.589h0V7.583h0Z" />
    <path class="light-yellow" d="M7.521,14.874c.169.061.32.137.5.189-.179-.052-.331-.112-.5-.172ZM2.394,8.583a8.186,8.186,0,0,0,5.127,6.291V8.583ZM13.972,4.062,8.516,1.312h.005V7.583h5.314A15.31,15.31,0,0,0,13.972,4.062Z" />
  </g>
</svg>
