<svg xmlns="http://www.w3.org/2000/svg" viewBox="0 0 16 16">
  <defs>
    <style>.canvas{fill: none; opacity: 0;}.light-defaultgrey-10{fill: #212121; opacity: 0.1;}.light-defaultgrey{fill: #212121; opacity: 1;}.light-blue{fill: #005dba; opacity: 1;}.cls-1{opacity:0.75;}</style>
  </defs>
  <title>UndoCheckedOutItem</title>
  <g id="canvas">
    <path class="canvas" d="M16,16H0V0H16Z" />
  </g>
  <g id="level-1">
    <path class="light-defaultgrey-10" d="M8.46,2.5A2.81,2.81,0,0,1,8.5,3a3.708,3.708,0,0,1-.13,1,3.636,3.636,0,0,1-.41,1,3.87,3.87,0,0,1-.63.83l-.67.67H14.5v-4Z" />
    <path class="light-defaultgrey" d="M14.5,2H8.37a2.193,2.193,0,0,1,.09.5A2.81,2.81,0,0,1,8.5,3H14V6H7.16l-1,1H14.5l.5-.5v-4Z" />
    <g class="cls-1">
      <path class="light-defaultgrey" d="M8.37,4a3.636,3.636,0,0,1-.41,1H13V4Z" />
    </g>
    <path class="light-blue" d="M10.65,11.65,9,13.29V8H8v5.29L6.35,11.65l-.7.7,2.5,2.5h.7l2.5-2.5Z" />
    <path class="light-blue" d="M6.621.879a3,3,0,0,0-4.242,0L1,2.257V0H0V3.5L.5,4H4V3H1.672L3.086,1.586h0A2,2,0,0,1,5.914,4.414L1.672,8.657l.707.707L6.621,5.121h0A3,3,0,0,0,6.621.879Z" />
  </g>
</svg>
