<svg xmlns="http://www.w3.org/2000/svg" viewBox="0 0 16 16">
  <defs>
    <style>.canvas{fill: none; opacity: 0;}.light-defaultgrey-10{fill: #212121; opacity: 0.1;}.light-defaultgrey{fill: #212121; opacity: 1;}.light-blue-10{fill: #005dba; opacity: 0.1;}.light-blue{fill: #005dba; opacity: 1;}.light-defaultgrey-25{fill: #212121; opacity: 0.25;}.cls-1{opacity:0.5;}</style>
  </defs>
  <title>IconLightUngroup</title>
  <g id="canvas">
    <path class="canvas" d="M16,0V16H0V0Z" />
  </g>
  <g id="level-1">
    <path class="light-defaultgrey-10" d="M13.5,7.5v5h-1v1h-5v-1h-1v-3h-3v-1h-1v-5h1v-1h5v1h1v3h3v1Z" />
    <path class="light-defaultgrey" d="M7.5,13H12v1H7.5Zm1-11H4V3H8.5ZM2,8.5H3V4H2Zm11-1V12h1V7.5Zm-3-4H9V6H6.5L6,6.5V9H3.5v1H6v2.5H7V7h5.5V6H10Z" />
    <path class="light-blue-10" d="M1.5,1.5h2v2h-2Zm11,13h2v-2h-2Zm-11-4h2v-2h-2Zm7-7h2v-2h-2Zm4,2v2h2v-2Zm-7,9h2v-2h-2Z" />
    <path class="light-blue" d="M1.5,1,1,1.5v2l.5.5h2L4,3.5v-2L3.5,1ZM3,3H2V2H3Zm9.5,9-.5.5v2l.5.5h2l.5-.5v-2l-.5-.5ZM14,14H13V13h1ZM1.5,8,1,8.5v2l.5.5h2l.5-.5v-2L3.5,8ZM3,10H2V9H3ZM8.5,1,8,1.5v2l.5.5h2l.5-.5v-2L10.5,1ZM10,3H9V2h1Zm4.5,2h-2l-.5.5v2l.5.5h2l.5-.5v-2ZM14,7H13V6h1ZM5.5,12l-.5.5v2l.5.5h2l.5-.5v-2L7.5,12ZM7,14H6V13H7Z" />
    <g class="cls-1">
      <path class="light-blue" d="M10.5,11h-2L8,10.5v-2L8.5,8h2l.5.5v2ZM9,10h1V9H9Z" />
    </g>
    <path class="light-defaultgrey-25" d="M7,9H8v1H7ZM9,7V8h1V7Z" />
  </g>
</svg>
