<svg xmlns="http://www.w3.org/2000/svg" viewBox="0 0 16 16">
  <defs>
    <style>.canvas{fill: none; opacity: 0;}.light-red{fill: #c50b17; opacity: 1;}.light-defaultgrey-10{fill: #212121; opacity: 0.1;}.light-defaultgrey{fill: #212121; opacity: 1;}</style>
  </defs>
  <title>IconLightUninstall</title>
  <g id="canvas" class="canvas">
    <path class="canvas" d="M16,16H0V0H16Z" />
  </g>
  <g id="level-1">
    <path class="light-red" d="M12.293,13l-2.147-2.146.708-.708L13,12.293l2.146-2.147.708.708L13.707,13l2.147,2.146-.708.708L13,13.707l-2.146,2.147-.708-.708Z" />
    <path class="light-defaultgrey-10" d="M14.5,2.5v6h-6v6h-6V2.5Z" />
    <path class="light-defaultgrey" d="M14.5,2H2.5L2,2.5v12l.5.5h6l.5-.5V9h5.5l.5-.5v-6ZM3,3H8V8H3ZM8,14H3V9H8Zm6-6H9V3h5Z" />
  </g>
</svg>
