<svg xmlns="http://www.w3.org/2000/svg" viewBox="0 0 16 16">
  <defs>
    <style>.canvas{fill: none; opacity: 0;}.light-defaultgrey-10{fill: #212121; opacity: 0.1;}.light-defaultgrey{fill: #212121; opacity: 1;}.light-blue{fill: #005dba; opacity: 1;}.cls-1{opacity:0.75;}</style>
  </defs>
  <title>IconLightUnionSealed</title>
  <g id="canvas" class="canvas">
    <path class="canvas" d="M16,16H0V0H16Z" />
  </g>
  <g id="level-1">
    <g class="cls-1">
      <path class="light-defaultgrey-10" d="M8.051,12H1.5V5.5h4v-3H13V8.051A4.342,4.342,0,0,0,12.5,8,4.455,4.455,0,0,0,9.706,9H9v.706A4.445,4.445,0,0,0,8.051,12Z" />
      <path class="light-defaultgrey" d="M8,12.5a4.342,4.342,0,0,1,.051-.5H2V6H5V9.5l.5.5H8.762A4.53,4.53,0,0,1,10,8.762V5.5L9.5,5H6V3h7V8.051a4.485,4.485,0,0,1,1,.225V2.5L13.5,2h-8L5,2.5V5H1.5L1,5.5v7l.5.5H8.051A4.342,4.342,0,0,1,8,12.5ZM6,6H9V9H6Z" />
    </g>
    <path class="light-blue" d="M8.762,10H5.5L5,9.5V5H9.5l.5.5V8.762A4.53,4.53,0,0,0,8.762,10Z" />
    <path class="light-defaultgrey-10" d="M12.5,9.5a3,3,0,1,1-3,3A3,3,0,0,1,12.5,9.5Z" />
    <path class="light-defaultgrey" d="M9,12.5A3.5,3.5,0,1,0,12.5,9,3.5,3.5,0,0,0,9,12.5Zm6,0a2.486,2.486,0,0,1-.416,1.377l-3.461-3.461A2.5,2.5,0,0,1,15,12.5Zm-5,0a2.486,2.486,0,0,1,.416-1.377l3.461,3.461A2.5,2.5,0,0,1,10,12.5Z" />
  </g>
</svg>
