<svg xmlns="http://www.w3.org/2000/svg" viewBox="0 0 16 16">
  <defs>
    <style>.canvas{fill: none; opacity: 0;}.light-defaultgrey-10{fill: #212121; opacity: 0.1;}.light-defaultgrey{fill: #212121; opacity: 1;}.light-blue{fill: #005dba; opacity: 1;}.cls-1{opacity:0.75;}</style>
  </defs>
  <title>IconLightUnionProtected</title>
  <g id="canvas" class="canvas">
    <path class="canvas" d="M16,16H0V0H16Z" />
  </g>
  <g id="level-1">
    <g class="cls-1">
      <path class="light-defaultgrey-10" d="M6.982,12H1.5V5.5h4v-3H13V7.459H10.966L10.205,9H9v.707l-1.412.205-.659,2.036Z" />
      <path class="light-defaultgrey" d="M6.982,12H2V6H5V9.5l.5.5H7.559l.029-.088,2.334-.339L10.205,9H10V5.5L9.5,5H6V3h7V7.459h.106L14,9.271V2.5L13.5,2h-8L5,2.5V5H1.5L1,5.5v7l.5.5H8.008ZM6,6H9V9H6Z" />
    </g>
    <path class="light-blue" d="M7.559,10H5.5L5,9.5V5H9.5l.5.5V9.415l-.078.158-2.334.339Z" />
    <path class="light-defaultgrey-10" d="M13.844,13.07l.426,2.488-2.234-1.175L9.8,15.558l.427-2.488L8.42,11.308l2.5-.363,1.118-2.264,1.117,2.264,2.5.363Z" />
    <path class="light-defaultgrey" d="M16,11.666l-.276-.853-2.239-.326-1-2.028h-.9l-1,2.028-2.238.326-.277.853L9.69,13.244l-.382,2.229.725.527,2-1.053,2,1.053.726-.527-.383-2.229Zm-2.394,2.978-1.337-.7H11.8l-1.339.7.256-1.49-.145-.443L9.494,11.656l1.5-.217.376-.273.67-1.356.669,1.356.376.273,1.5.217L13.5,12.711l-.144.443Z" />
  </g>
</svg>
