<svg xmlns="http://www.w3.org/2000/svg" viewBox="0 0 16 16">
  <defs>
    <style>.canvas{fill: none; opacity: 0;}.light-defaultgrey{fill: #212121; opacity: 1;}.light-defaultgrey-10{fill: #212121; opacity: 0.1;}.cls-1{opacity:0.75;}</style>
  </defs>
  <title>IconLightUniversalPlatform</title>
  <g id="canvas" class="canvas">
    <path class="canvas" d="M16,16H0V0H16Z" />
  </g>
  <g id="level-1">
    <g class="cls-1">
      <path class="light-defaultgrey" d="M12,13v1H6V13c2,0,2-.6,2-1h2C10,12.35,10,13,12,13Z" />
    </g>
    <path class="light-defaultgrey-10" d="M15.5,2.5v9H6V8.086L4.914,7H2.5V2.5Z" />
    <path class="light-defaultgrey" d="M16,2.5v9l-.5.5H6V11h9V3H3V7H2V2.5L2.5,2h13Z" />
    <path class="light-defaultgrey-10" d="M4.5,8.5v7H.5v-7Z" />
    <path class="light-defaultgrey" d="M4.5,8H.5L0,8.5v7l.5.5h4l.5-.5v-7ZM4,15H1V9H4ZM3,13v1H2V13Z" />
  </g>
</svg>
