<svg xmlns="http://www.w3.org/2000/svg" viewBox="0 0 16 16">
  <defs>
    <style>.canvas{fill: none; opacity: 0;}.light-defaultgrey-10{fill: #212121; opacity: 0.1;}.light-defaultgrey{fill: #212121; opacity: 1;}.light-blue{fill: #005dba; opacity: 1;}.cls-1{opacity:0.75;}</style>
  </defs>
  <title>IconLightUnloadSolution</title>
  <g id="canvas" class="canvas">
    <path class="canvas" d="M16,16H0V0H16Z" />
  </g>
  <g id="level-1">
    <path class="light-defaultgrey-10" d="M14.5,2.5v3H1.5v-3Z" />
    <g class="cls-1">
      <path class="light-defaultgrey-10" d="M14.5,6v7.5H9.75l-.5.5H5.75l-.5-.5H1.5V6Z" />
      <path class="light-defaultgrey" d="M6.129,14H1.5L1,13.5v-8l.5.5H2v7H5.129ZM14.5,6H14v7H9.871l-1,1H14.5l.5-.5v-8Z" />
    </g>
    <path class="light-defaultgrey" d="M14.5,2H1.5L1,2.5v3l.5.5h13l.5-.5v-3ZM14,5H2V3H14Z" />
    <path class="light-blue" d="M10.354,11.1l-2.5,2.5H7.146l-2.5-2.5.708-.708L7,12.043V7H8v5.043L9.646,10.4Z" />
  </g>
</svg>
