<svg xmlns="http://www.w3.org/2000/svg" viewBox="0 0 16 16">
  <defs>
    <style>.canvas{fill: none; opacity: 0;}.light-defaultgrey-10{fill: #212121; opacity: 0.1;}.light-defaultgrey{fill: #212121; opacity: 1;}.light-blue{fill: #005dba; opacity: 1;}</style>
  </defs>
  <title>IconLightUnshelvePendingChanges</title>
  <g id="canvas" class="canvas">
    <path class="canvas" d="M16,16H0V0H16Z" />
  </g>
  <g id="level-1">
    <path class="light-defaultgrey-10" d="M0,7.5v-6L.5,1h14l.5.5v6l-.5.5H.5Z" />
    <path class="light-defaultgrey" d="M5,2H4V1H5ZM7,1H6V2H7ZM3,1H2V2H3ZM1,3H0V4H1ZM1,6V5H0V6ZM11,1H10V2h1Zm4,2H14V4h1ZM13,1H12V2h1Zm2,4H14V6h1ZM9,1H8V2H9ZM8,8H9V7H8ZM6,8H7V7H6Zm4,0h1V7H10ZM2,8H3V7H2ZM13,7H12V8h1ZM4,8H5V7H4ZM14.5,8l.5-.5V7H14V8ZM15,1.5,14.5,1H14V2h1ZM.5,1,0,1.5V2H1V1ZM0,7.5.5,8H1V7H0Z" />
    <path class="light-blue" d="M5.354,12.647,7,14.293V9H8v5.293l1.646-1.646.708.707-2.5,2.5H7.146l-2.5-2.5Z" />
  </g>
</svg>
