<svg xmlns="http://www.w3.org/2000/svg" viewBox="0 0 16 16">
  <defs>
    <style>.canvas{fill: none; opacity: 0;}.light-lightblue-10{fill: #0077a0; opacity: 0.1;}.light-lightblue{fill: #0077a0; opacity: 1;}.light-blue{fill: #005dba; opacity: 1;}</style>
  </defs>
  <title>IconLightUpdateDatabase</title>
  <g id="canvas" class="canvas">
    <path class="canvas" d="M16,16H0V0H16Z" />
  </g>
  <g id="level-1">
    <path class="light-lightblue-10" d="M14.5,5v8c0,.828-1.791,1.5-4,1.5s-4-.672-4-1.5V8H8V5H7.74a4.479,4.479,0,0,0,.246-1.158A8.784,8.784,0,0,1,10.5,3.5C12.709,3.5,14.5,4.172,14.5,5Z" />
    <path class="light-lightblue" d="M15,4.969V13c0,1.313-2.264,2-4.5,2S6,14.313,6,13V8H7v5c0,.29,1.227,1,3.5,1s3.5-.71,3.5-1V6.3a7.913,7.913,0,0,1-3.5.7A9.378,9.378,0,0,1,8,6.671V5.645A7.985,7.985,0,0,0,10.5,6c2.273,0,3.5-.7,3.5-.985v-.03C14,4.7,12.773,4,10.5,4a7.9,7.9,0,0,0-2.589.381A4.4,4.4,0,0,0,8,3.5c0-.065,0-.129,0-.193C10.647,2.591,15,3.142,15,4.969Z" />
    <path class="light-blue" d="M5.949,6H7V7H4.5L4,6.5V4H5V5.5A2.5,2.5,0,0,0,3.917,1.034L4.083.048A3.5,3.5,0,0,1,5.949,6ZM1,3.5a2.505,2.505,0,0,1,1-2V3H3V.5L2.5,0H0V1H1.051A3.5,3.5,0,0,0,2.917,6.952l.166-.986A2.49,2.49,0,0,1,1,3.5Z" />
  </g>
</svg>
