<svg xmlns="http://www.w3.org/2000/svg" viewBox="0 0 16 16">
  <defs>
    <style>.canvas{fill: none; opacity: 0;}.light-defaultgrey-10{fill: #212121; opacity: 0.1;}.light-defaultgrey{fill: #212121; opacity: 1;}.light-blue{fill: #005dba; opacity: 1;}</style>
  </defs>
  <title>UpdateScript</title>
  <g id="canvas">
    <path class="canvas" d="M16,16H0V0H16Z" />
  </g>
  <g id="level-1">
    <path class="light-defaultgrey-10" d="M13,4a1,1,0,0,0-1,1V6h2V5A1,1,0,0,0,13,4ZM7.96,4a4.255,4.255,0,0,1-.22,1H8V8H5v3H8.5l.5.5V12a1,1,0,0,0,2,0V5a2,2,0,0,1,.28-1ZM8,12H3a1,1,0,0,0,1,1H8.27A2,2,0,0,1,8,12Z" />
    <path class="light-defaultgrey" d="M13,3H7.97A4.193,4.193,0,0,1,8,3.5a2.737,2.737,0,0,1-.04.5h3.32A2,2,0,0,0,11,5v7a1,1,0,0,1-2,0v-.5L8.5,11H5V8H4v3H2.5l-.5.5V12a2.029,2.029,0,0,0,1.99,2H10a2.006,2.006,0,0,0,2-2V7h2.5l.5-.5V5A2.006,2.006,0,0,0,13,3ZM4,13a1,1,0,0,1-1-1H8a2,2,0,0,0,.27,1ZM14,6H12V5a1,1,0,0,1,2,0Z" />
    <path class="light-blue" d="M5.941,6H7V7H4V4H5V5.5A2.5,2.5,0,0,0,3.917,1.035L4.083.048A3.494,3.494,0,0,1,5.941,6ZM1,3.5a2.505,2.505,0,0,1,1-2V3H3V0H0V1H1.059A3.494,3.494,0,0,0,2.917,6.952l.166-.987A2.489,2.489,0,0,1,1,3.5Z" />
  </g>
</svg>
