<svg xmlns="http://www.w3.org/2000/svg" viewBox="0 0 16 16">
  <defs>
    <style>.canvas{fill: none; opacity: 0;}.light-lightblue-10{fill: #0077a0; opacity: 0.1;}.light-lightblue{fill: #0077a0; opacity: 1;}.light-blue{fill: #005dba; opacity: 1;}</style>
  </defs>
  <title>IconLightUploadDatabase</title>
  <g id="canvas" class="canvas">
    <path class="canvas" d="M16,16H0V0H16Z" />
  </g>
  <g id="level-1">
    <path class="light-lightblue-10" d="M15.5,5v8c0,.828-1.791,1.5-4,1.5s-4-.672-4-1.5V5c0-.828,1.791-1.5,4-1.5S15.5,4.172,15.5,5Z" />
    <path class="light-lightblue" d="M7,4.969V13c0,1.313,2.264,2,4.5,2s4.5-.687,4.5-2V4.969C16,2.344,7,2.344,7,4.969Zm1,.016C8,4.7,9.227,4,11.5,4s3.5.7,3.5.985v.03C15,5.3,13.773,6,11.5,6S8,5.3,8,5.015ZM11.5,14C9.227,14,8,13.29,8,13V6.3A7.9,7.9,0,0,0,11.5,7,7.913,7.913,0,0,0,15,6.3V13C15,13.29,13.773,14,11.5,14Z" />
    <path class="light-blue" d="M5.646,3.353,4,1.707V7H3V1.707L1.354,3.353.646,2.646l2.5-2.5h.708l2.5,2.5Z" />
  </g>
</svg>
