<svg xmlns="http://www.w3.org/2000/svg" viewBox="0 0 16 16">
  <defs>
    <style>.canvas{fill: none; opacity: 0;}.light-defaultgrey{fill: #212121; opacity: 1;}.light-blue{fill: #005dba; opacity: 1;}</style>
  </defs>
  <title>IconLightUploadParameter</title>
  <g id="canvas">
    <path class="canvas" d="M16,16H0V0H16Z" />
  </g>
  <g id="level-1">
    <path class="light-defaultgrey" d="M3,13H4v1H2.5L2,13.5,2,8H3ZM15.5,6H14V7h1v6H14v1h1.5l.5-.5v-7Zm-3.611.959A3.277,3.277,0,0,1,13,9.532a2.934,2.934,0,0,1-.6,1.907,1.83,1.83,0,0,1-1.472.745q-1.123,0-1.128-1.05H9.772A1.36,1.36,0,0,1,8.4,12.184a1.3,1.3,0,0,1-1.055-.491,2.028,2.028,0,0,1-.4-1.321,2.947,2.947,0,0,1,.55-1.826,1.727,1.727,0,0,1,1.447-.728,1.04,1.04,0,0,1,.611.188.853.853,0,0,1,.347.452h.014q.015-.136.073-.562h.811q-.229,2.579-.23,2.627,0,.967.5.967a.879.879,0,0,0,.762-.539,2.841,2.841,0,0,0,.3-1.4,2.781,2.781,0,0,0-.818-2.073,3.1,3.1,0,0,0-2.268-.8,3.03,3.03,0,0,0-2.3.971,3.413,3.413,0,0,0-.913,2.432A3.15,3.15,0,0,0,6.706,12.4a3.188,3.188,0,0,0,2.368.884,4.608,4.608,0,0,0,2.007-.4v.752A5.517,5.517,0,0,1,8.947,14a3.964,3.964,0,0,1-2.895-1.074,3.758,3.758,0,0,1-1.1-2.813A4.046,4.046,0,0,1,6.115,7.149,4,4,0,0,1,9.084,5.973,4.067,4.067,0,0,1,11.889,6.959ZM9.8,9.469q0-.957-.781-.957a.991.991,0,0,0-.867.527,2.436,2.436,0,0,0-.33,1.314,1.39,1.39,0,0,0,.222.832.7.7,0,0,0,.594.3.945.945,0,0,0,.849-.554A2.972,2.972,0,0,0,9.8,9.469Z" />
    <path class="light-blue" d="M3.145.146h.707l2.5,2.5-.707.707L4,1.709V7H3V1.705L1.352,3.353.645,2.646Z" />
  </g>
</svg>
