<svg xmlns="http://www.w3.org/2000/svg" viewBox="0 0 16 16">
  <defs>
    <style>.canvas{fill: none; opacity: 0;}.light-defaultgrey-10{fill: #212121; opacity: 0.1;}.light-defaultgrey{fill: #212121; opacity: 1;}.cls-1{opacity:0.75;}</style>
  </defs>
  <title>UserFeedback</title>
  <g id="canvas">
    <path class="canvas" d="M16,16H0V0H16Z" />
  </g>
  <g id="level-1">
    <path class="light-defaultgrey-10" d="M10.5,15h-9a4.5,4.5,0,0,1,9,0Zm-2-7A2.5,2.5,0,1,0,6,10.5,2.5,2.5,0,0,0,8.5,8Z" />
    <path class="light-defaultgrey" d="M7.835,10.359a3,3,0,1,0-3.664,0A5,5,0,0,0,1,15H2a4,4,0,0,1,8,0h1A5,5,0,0,0,7.835,10.359Zm0,0a3,3,0,1,0-3.664,0A5,5,0,0,0,1,15H2a4,4,0,0,1,8,0h1A5,5,0,0,0,7.835,10.359ZM6,10A2,2,0,1,1,8,8,2,2,0,0,1,6,10Zm0,0A2,2,0,1,1,8,8,2,2,0,0,1,6,10Z" />
    <g class="cls-1">
      <path class="light-defaultgrey" d="M15,1.5v6l-.146.354-3,3L11,10.5V8H9a2.966,2.966,0,0,0-.184-1H11.5l.5.5V9.293l2-2V2H5V5.185a2.994,2.994,0,0,0-1,.6V1.5L4.5,1h10Z" />
      <path class="light-defaultgrey-10" d="M14.5,1.5v6l-3,3v-3H8.952A3,3,0,0,0,6,5a2.961,2.961,0,0,0-1.5.419V1.5Z" />
    </g>
  </g>
</svg>
