<svg xmlns="http://www.w3.org/2000/svg" viewBox="0 0 16 16">
  <defs>
    <style>.canvas{fill: none; opacity: 0;}.light-defaultgrey-10{fill: #212121; opacity: 0.1;}.light-defaultgrey{fill: #212121; opacity: 1;}.light-darkblue{fill: #313c9e; opacity: 1;}.light-blue{fill: #005dba; opacity: 1;}</style>
  </defs>
  <title>IconLightUserWizard</title>
  <g id="canvas">
    <path class="canvas" d="M16,16H0V0H16Z" />
  </g>
  <g id="level-1">
    <path class="light-defaultgrey-10" d="M10,4.5a3,3,0,1,1-3,3A3,3,0,0,1,10,4.5ZM5.5,15a4.5,4.5,0,0,1,9,0Z" />
    <path class="light-defaultgrey" d="M11.957,10.4A3.5,3.5,0,0,0,10,4a3.378,3.378,0,0,0-.451.046,1.479,1.479,0,0,1-.755.425l-.785.157a3.4,3.4,0,0,0-.365.3l-.173.864A1.5,1.5,0,0,1,6.563,6.88,3.43,3.43,0,0,0,6.5,7.5a3.5,3.5,0,0,0,1.543,2.9A5.007,5.007,0,0,0,5,15H6a4,4,0,0,1,8,0h1A5.007,5.007,0,0,0,11.957,10.4ZM10,10a2.5,2.5,0,1,1,2.5-2.5A2.5,2.5,0,0,1,10,10Z" />
    <path class="light-darkblue" d="M9,3a.5.5,0,0,1-.4.49l-1.313.263a.678.678,0,0,0-.532.532L6.49,5.6a.5.5,0,0,1-.98,0L5.247,4.285a.678.678,0,0,0-.532-.532L3.4,3.49a.5.5,0,0,1,0-.98l1.313-.263a.678.678,0,0,0,.532-.532L5.51.4a.5.5,0,0,1,.98,0l.263,1.313a.678.678,0,0,0,.532.532L8.6,2.51A.5.5,0,0,1,9,3Z" />
    <path class="light-blue" d="M4,6a.5.5,0,0,1-.4.49l-.788.157a.212.212,0,0,0-.163.165L2.49,7.6a.5.5,0,0,1-.98,0L1.353,6.81a.212.212,0,0,0-.165-.163L.4,6.49a.5.5,0,0,1,0-.98l.788-.157a.212.212,0,0,0,.163-.165L1.51,4.4a.5.5,0,0,1,.98,0l.157.788a.212.212,0,0,0,.165.163L3.6,5.51A.5.5,0,0,1,4,6Z" />
  </g>
</svg>
