<svg xmlns="http://www.w3.org/2000/svg" viewBox="0 0 16 16">
  <defs>
    <style>.canvas{fill: none; opacity: 0;}.light-defaultgrey-10{fill: #212121; opacity: 0.1;}.light-defaultgrey{fill: #212121; opacity: 1;}.light-red{fill: #c50b17; opacity: 1;}.white{fill: #ffffff; opacity: 1;}</style>
  </defs>
  <title>IconLightUserError</title>
  <g id="canvas">
    <path class="canvas" d="M16,16H0V0H16Z" />
  </g>
  <g id="level-1">
    <path class="light-defaultgrey-10" d="M6,1.5a3,3,0,1,1-3,3A3,3,0,0,1,6,1.5Z" />
    <path class="light-defaultgrey-10" d="M7,12H1.5A4.487,4.487,0,0,1,8.611,8.347,4.969,4.969,0,0,0,7,12Z" />
    <path class="light-defaultgrey" d="M9.005,8.021A5.062,5.062,0,0,0,7.957,7.4a3.5,3.5,0,1,0-3.914,0A5.007,5.007,0,0,0,1,12H2A3.994,3.994,0,0,1,8.266,8.709,5.073,5.073,0,0,1,9.005,8.021ZM6,7A2.5,2.5,0,1,1,8.5,4.5,2.5,2.5,0,0,1,6,7Z" />
    <path class="light-red" d="M12,8a4,4,0,1,0,4,4A4,4,0,0,0,12,8Z" />
    <path class="white" d="M12.707,12l1.147,1.146-.708.708L12,12.707l-1.146,1.147-.708-.708L11.293,12l-1.147-1.146.708-.708L12,11.293l1.146-1.147.708.708Z" />
  </g>
</svg>
