<svg xmlns="http://www.w3.org/2000/svg" viewBox="0 0 16 16">
  <defs>
    <style>.canvas{fill: none; opacity: 0;}.light-defaultgrey-10{fill: #212121; opacity: 0.1;}.light-defaultgrey{fill: #212121; opacity: 1;}</style>
  </defs>
  <title>UserProjectTemplate</title>
  <g id="canvas">
    <path class="canvas" d="M16,16H0V0H16Z" />
  </g>
  <g id="level-1">
    <path class="light-defaultgrey-10" d="M14.5,1H2.5L2,1.5V7h.13A3.708,3.708,0,0,1,4,6.5a3.751,3.751,0,0,1,3.75,3.75A3.536,3.536,0,0,1,7.3,12h7.2l.5-.5V1.5Z" />
    <path class="light-defaultgrey" d="M8,11H9v1H8Zm2,1h1V11H10ZM6,2H7V1H6ZM8,4H9V3H8ZM6,4H7V3H6ZM2,1.5V2H3V1H2.5ZM2,6H3V5H2ZM2,4H3V3H2ZM4,4H5V3H4ZM4,2H5V1H4ZM8,2H9V1H8Zm6,6h1V7H14Zm0-2h1V5H14Zm0-2h1V3H14Zm0,6h1V9H14Zm.5-9H14V2h1V1.5ZM14,12h.5l.5-.5V11H14ZM10,2h1V1H10Zm2,10h1V11H12Zm0-8h1V3H12Zm0-2h1V1H12ZM10,4h1V3H10Z" />
    <path class="light-defaultgrey-10" d="M6.25,10.25A2.25,2.25,0,1,1,4,8,2.25,2.25,0,0,1,6.25,10.25ZM7.5,16a3.5,3.5,0,0,0-7,0Z" />
    <path class="light-defaultgrey" d="M2.25,10.25A1.75,1.75,0,1,1,4,12,1.752,1.752,0,0,1,2.25,10.25ZM5.7,12.394a2.75,2.75,0,1,0-3.4,0A4,4,0,0,0,0,16H1a3,3,0,0,1,6,0H8A4,4,0,0,0,5.7,12.394Z" />
  </g>
</svg>
