<svg xmlns="http://www.w3.org/2000/svg" viewBox="0 0 16 16">
  <defs>
    <style>.canvas{fill: none; opacity: 0;}.light-defaultgrey-10{fill: #212121; opacity: 0.1;}.light-defaultgrey{fill: #212121; opacity: 1;}.light-yellow{fill: #996f00; opacity: 1;}.white{fill: #ffffff; opacity: 1;}</style>
  </defs>
  <title>IconLightUserWarning</title>
  <g id="canvas">
    <path class="canvas" d="M16,16H0V0H16Z" />
  </g>
  <g id="level-1">
    <path class="light-defaultgrey-10" d="M6,1.5a3,3,0,1,1-3,3A3,3,0,0,1,6,1.5Z" />
    <path class="light-defaultgrey-10" d="M7.716,12H1.5A4.484,4.484,0,0,1,9.354,9.026Z" />
    <path class="light-defaultgrey" d="M9.094,9.5l.518-.939A5.02,5.02,0,0,0,7.957,7.4a3.5,3.5,0,1,0-3.914,0A5.007,5.007,0,0,0,1,12H2A3.982,3.982,0,0,1,9.094,9.5ZM3.5,4.5A2.5,2.5,0,1,1,6,7,2.5,2.5,0,0,1,3.5,4.5Z" />
    <path class="light-yellow" d="M15.5,16h-8l-.439-.739,4-7.261h.878l4,7.261Z" />
    <path class="white" d="M12,13H11V10h1Zm.25,1.5a.75.75,0,1,1-.75-.75A.75.75,0,0,1,12.25,14.5Z" />
  </g>
</svg>
