<svg xmlns="http://www.w3.org/2000/svg" viewBox="0 0 16 16">
  <defs>
    <style>.canvas{fill: none; opacity: 0;}.light-defaultgrey-10{fill: #212121; opacity: 0.1;}.light-defaultgrey{fill: #212121; opacity: 1;}.light-lightblue-10{fill: #0077a0; opacity: 0.1;}.light-lightblue{fill: #0077a0; opacity: 1;}</style>
  </defs>
  <title>IconLightUserDataType</title>
  <g id="canvas" class="canvas">
    <path class="canvas" d="M16,16H0V0H16Z" />
  </g>
  <g id="level-1">
    <path class="light-defaultgrey-10" d="M11,1.5a3,3,0,1,1-3,3A3,3,0,0,1,11,1.5ZM8.381,8.354A4.486,4.486,0,0,1,15.5,12H9V9.813A2.087,2.087,0,0,0,8.381,8.354Z" />
    <path class="light-defaultgrey" d="M12.957,7.4a3.5,3.5,0,1,0-3.914,0A5.014,5.014,0,0,0,8,8.018a2.6,2.6,0,0,1,.691.727A3.988,3.988,0,0,1,15,12h1A5.007,5.007,0,0,0,12.957,7.4ZM11,7a2.5,2.5,0,1,1,2.5-2.5A2.5,2.5,0,0,1,11,7Z" />
    <path class="light-lightblue-10" d="M4,8.5C2.314,8.5.5,9,.5,10.086v3.828C.5,15,2.314,15.5,4,15.5s3.5-.5,3.5-1.586V10.086C7.5,9,5.686,8.5,4,8.5Z" />
    <path class="light-lightblue" d="M4,8C2.073,8,0,8.567,0,9.813v4.375C0,15.433,2.073,16,4,16s4-.567,4-1.812V9.813C8,8.567,5.927,8,4,8ZM4,9c1.969,0,3,.6,3,.813s-1.031.812-3,.812-3-.6-3-.812S2.031,9,4,9Zm0,6c-1.969,0-3-.6-3-.812V11.051a7.2,7.2,0,0,0,3,.574,7.2,7.2,0,0,0,3-.574v3.137C7,14.4,5.969,15,4,15Z" />
  </g>
</svg>
