<svg xmlns="http://www.w3.org/2000/svg" viewBox="0 0 16 16">
  <defs>
    <style>.canvas{fill: none; opacity: 0;}.light-defaultgrey-10{fill: #212121; opacity: 0.1;}.light-defaultgrey{fill: #212121; opacity: 1;}.white{fill: #ffffff; opacity: 1;}.light-yellow{fill: #996f00; opacity: 1;}.cls-1{opacity:0.75;}</style>
  </defs>
  <title>IconLightUserDefinedDataTypeWarning</title>
  <g id="canvas" class="canvas">
    <path class="canvas" d="M16,16H0V0H16Z" />
  </g>
  <g id="level-1">
    <g class="cls-1">
      <path class="light-defaultgrey-10" d="M6.339,14.5H3.5V1.5h8l3,3v6.076L12.53,7H10.47Z" />
      <path class="light-defaultgrey" d="M6.063,15H3.5L3,14.5V1.5L3.5,1h8l.354.146,3,3L15,4.5v6.984L14,9.668V5H11V2H4V14H6.614Z" />
    </g>
    <path class="light-defaultgrey" d="M8,3v7H0V3Z" />
    <path class="white" d="M2.5,9.037a1.346,1.346,0,0,1-1.174-.614A3.131,3.131,0,0,1,.9,6.648a3.466,3.466,0,0,1,.44-1.929,1.431,1.431,0,0,1,1.268-.655Q4.2,4.064,4.2,6.531A3.254,3.254,0,0,1,3.748,8.4,1.442,1.442,0,0,1,2.5,9.037Zm.077-4.353q-.876,0-.877,1.93,0,1.8.859,1.806T3.4,6.584Q3.4,4.685,2.572,4.684Zm3.946-.6V9H5.739V5.034a2.458,2.458,0,0,1-.454.256,3.713,3.713,0,0,1-.555.186V4.812c.129-.042.255-.087.376-.134s.239-.1.357-.157.236-.124.356-.2.242-.152.371-.244Z" />
    <path class="light-yellow" d="M15.5,16h-8l-.439-.739,4-7.261h.878l4,7.261Z" />
    <path class="white" d="M12,13H11V10h1Zm.25,1.5a.75.75,0,1,1-.75-.75A.75.75,0,0,1,12.25,14.5Z" />
  </g>
</svg>
