<svg xmlns="http://www.w3.org/2000/svg" viewBox="0 0 16 16">
  <defs>
    <style>.canvas{fill: none; opacity: 0;}.light-defaultgrey-10{fill: #212121; opacity: 0.1;}.light-defaultgrey{fill: #212121; opacity: 1;}.cls-1{opacity:0.75;}</style>
  </defs>
  <title>IconLightUserTask</title>
  <g id="canvas">
    <path class="canvas" d="M16,16H0V0H16Z" />
  </g>
  <g id="level-1">
    <g class="cls-1">
      <path class="light-defaultgrey-10" d="M14.5,4.5v9H8.313a5.03,5.03,0,0,0-1.107-1.318A3.7,3.7,0,0,0,6.5,7.476V4.5Z" />
      <path class="light-defaultgrey" d="M15,4.5v9l-.5.5H8.569a5.091,5.091,0,0,0-.587-1H14V5H7V8.023A3.765,3.765,0,0,0,6,7.09V4.5L6.5,4h8Z" />
    </g>
    <path class="light-defaultgrey" d="M12.5,3a2,2,0,0,0-4,0H7V5h7V3Zm-2-1a1,1,0,1,1-1,1A1,1,0,0,1,10.5,2Z" />
    <path class="light-defaultgrey-10" d="M6.25,10.25A2.25,2.25,0,1,1,4,8,2.25,2.25,0,0,1,6.25,10.25ZM7.5,16a3.5,3.5,0,0,0-7,0Z" />
    <path class="light-defaultgrey" d="M2.25,10.25A1.75,1.75,0,1,1,4,12,1.752,1.752,0,0,1,2.25,10.25ZM5.7,12.394a2.75,2.75,0,1,0-3.4,0A4,4,0,0,0,0,16H1a3,3,0,0,1,6,0H8A4,4,0,0,0,5.7,12.394Z" />
  </g>
</svg>
