<svg xmlns="http://www.w3.org/2000/svg" viewBox="0 0 16 16">
  <defs>
    <style>.canvas{fill: none; opacity: 0;}.light-lightblue-10{fill: #0077a0; opacity: 0.1;}.light-lightblue{fill: #0077a0; opacity: 1;}.light-defaultgrey-10{fill: #212121; opacity: 0.1;}.light-defaultgrey{fill: #212121; opacity: 1;}.light-yellow{fill: #996f00; opacity: 1;}.white{fill: #ffffff; opacity: 1;}</style>
  </defs>
  <title>IconLightUserDefinedTypeWarning</title>
  <g id="canvas" class="canvas">
    <path class="canvas" d="M16,16H0V0H16Z" />
  </g>
  <g id="level-1">
    <path class="light-lightblue-10" d="M8.5,1.47c-2.209,0-4,.672-4,1.5V6.533A3.757,3.757,0,0,1,7.75,10.25a3.707,3.707,0,0,1-.1.864,2.339,2.339,0,0,1,.191.662L10.47,7H12.5V2.97C12.5,2.142,10.709,1.47,8.5,1.47Z" />
    <path class="light-lightblue" d="M4,2.97V6.5a3.708,3.708,0,0,1,1,.136V4.261a7.863,7.863,0,0,0,3.5.709A7.863,7.863,0,0,0,12,4.261V7h.53l.47.853V2.97C13,.343,4,.343,4,2.97Zm4.5,1c-2.273,0-3.5-.71-3.5-1s1.227-1,3.5-1,3.5.71,3.5,1S10.773,3.97,8.5,3.97Z" />
    <path class="light-defaultgrey-10" d="M4,12.5a2.25,2.25,0,1,1,2.25-2.25A2.25,2.25,0,0,1,4,12.5ZM6.336,16H.5a3.5,3.5,0,0,1,6.223-2.2l-.815,1.479Z" />
    <path class="light-defaultgrey" d="M6.458,14.283l.518-.94A4.065,4.065,0,0,0,5.7,12.394a2.75,2.75,0,1,0-3.4,0A4,4,0,0,0,0,16H1a3,3,0,0,1,5.458-1.717ZM4,12a1.75,1.75,0,1,1,1.75-1.75A1.752,1.752,0,0,1,4,12Z" />
    <path class="light-yellow" d="M15.5,16h-8l-.439-.739,4-7.261h.878l4,7.261Z" />
    <path class="white" d="M12,13H11V10h1Zm.25,1.5a.75.75,0,1,1-.75-.75A.75.75,0,0,1,12.25,14.5Z" />
  </g>
</svg>
