<svg xmlns="http://www.w3.org/2000/svg" viewBox="0 0 16 16">
  <defs>
    <style>.canvas{fill: none; opacity: 0;}.light-defaultgrey-10{fill: #212121; opacity: 0.1;}.light-defaultgrey{fill: #212121; opacity: 1;}</style>
  </defs>
  <title>UserItemTemplate</title>
  <g id="canvas">
    <path class="canvas" d="M16,16H0V0H16Z" />
  </g>
  <g id="level-1">
    <path class="light-defaultgrey-10" d="M14.5,1H2.5L2,1.5V7h.13A3.708,3.708,0,0,1,4,6.5a3.751,3.751,0,0,1,3.75,3.75A3.536,3.536,0,0,1,7.3,12h7.2l.5-.5V1.5Z" />
    <path class="light-defaultgrey" d="M12,1V2h1V1ZM8,1V2H9V1Zm4,10v1h1V11Zm2,0v1h.5l.5-.5V11ZM10,1V2h1V1Zm4.5,0H14V2h1V1.5ZM14,3V4h1V3Zm0,4V8h1V7Zm0-2V6h1V5Zm0,4v1h1V9ZM6,3V4H7V3ZM2.5,1,2,1.5V2H3V1ZM4,1V2H5V1ZM6,1V2H7V1ZM2,5V6H3V5ZM2,3V4H3V3ZM6,7v.08A3.475,3.475,0,0,1,6.99,8H7V7ZM4,5V6H5V5Zm6,0V6h1V5Zm0,6v1h1V11ZM8,5V6H9V5Zm0,6v1H9V11Zm4-6V6h1V5ZM6,5V6H7V5Z" />
    <path class="light-defaultgrey-10" d="M6.25,10.25A2.25,2.25,0,1,1,4,8,2.25,2.25,0,0,1,6.25,10.25ZM7.5,16a3.5,3.5,0,0,0-7,0Z" />
    <path class="light-defaultgrey" d="M2.25,10.25A1.75,1.75,0,1,1,4,12,1.752,1.752,0,0,1,2.25,10.25ZM5.7,12.394a2.75,2.75,0,1,0-3.4,0A4,4,0,0,0,0,16H1a3,3,0,0,1,6,0H8A4,4,0,0,0,5.7,12.394Z" />
  </g>
</svg>
