<svg xmlns="http://www.w3.org/2000/svg" viewBox="0 0 16 16">
  <defs>
    <style>.canvas{fill: none; opacity: 0;}.light-defaultgrey-10{fill: #212121; opacity: 0.1;}.light-defaultgrey{fill: #212121; opacity: 1;}.light-green{fill: #1f801f; opacity: 1;}</style>
  </defs>
  <title>IconLightValidateTestStep</title>
  <g id="canvas">
    <path class="canvas" d="M16,16H0V0H16Z" />
  </g>
  <g id="level-1">
    <path class="light-defaultgrey-10" d="M14,4V9.878l-3.5,3.5L7.854,10.731,5.732,12.854,5.878,13H1.993V9.979H5.114L6,9.264V6.979H8.831l1.174-.948V4Z" />
    <path class="light-defaultgrey" d="M6.878,14H1.484L1,13.5v-4L1.493,9H5V6.5L5.5,6H9.005V3.518l.5-.5H14.5l.5.5v5.36l-1,1V4H10V6.5L9.505,7H6V9.5l-.5.5H1.993v3H5.878Z" />
    <path class="light-green" d="M15.854,10.854l-5,5h-.708l-3-3,.708-.708L10.5,14.793l4.646-4.647Z" />
  </g>
</svg>
