<svg xmlns="http://www.w3.org/2000/svg" viewBox="0 0 16 16">
  <defs>
    <style>.canvas{fill: none; opacity: 0;}.light-defaultgrey{fill: #212121; opacity: 1;}</style>
  </defs>
  <title>IconLightVariableProperty</title>
  <g id="canvas">
    <path class="canvas" d="M16,16H0V0H16Z" />
  </g>
  <g id="level-1">
    <path class="light-defaultgrey" d="M11.91,8.2c.2.8.21.97.48,1.86a1.882,1.882,0,0,0,.67,1,.979.979,0,0,0,.61.17,3.708,3.708,0,0,0,.47-.03,1.965,1.965,0,0,0,.46-.12l-.12.46a4.83,4.83,0,0,1-1.28.43c-.8.12-1.37.01-1.65-.76a16.043,16.043,0,0,1-.56-1.91,14.684,14.684,0,0,1-1.55,2.11,1.586,1.586,0,0,1-1.21.6.751.751,0,0,1-.53-.19.773.773,0,0,1-.15-.88.8.8,0,0,1,.52-.41c.62-.14.68.03,1.25.18a9.061,9.061,0,0,0,1.52-1.99c-.06-.27-.08-.35-.25-1.02a10.007,10.007,0,0,0-.36-1.16,1.857,1.857,0,0,0-.2-.45,1.186,1.186,0,0,0-.21-.28c-.13-.11-.29-.2-1.11-.18-.63.01-2.19.03-2.19.03l-.4,1.85a3.269,3.269,0,0,0-.3-.35,3.989,3.989,0,0,0-.8-.62c.06-.28.12-.57.19-.88H3.84l.15-.64H5.34a6.43,6.43,0,0,1,.52-1.74A3.463,3.463,0,0,1,9.37,1.04a1.04,1.04,0,0,1,.67.38.662.662,0,0,1,.11.41.85.85,0,0,1-.17.54.646.646,0,0,1-.53.23c-.63,0-.78-.47-1.11-1.02a.789.789,0,0,0-.52.22,2.757,2.757,0,0,0-.7,1.22,10.5,10.5,0,0,0-.37,1.46,4.665,4.665,0,0,0-.1.54c1.89-.03,2.3-.09,3.4-.15a1.209,1.209,0,0,1,.57.11,1.336,1.336,0,0,1,.65.75,14.98,14.98,0,0,1,.5,1.87v.05c.66-1.05,1.49-2.78,2.78-2.81.93-.03,1.09,1.48-.2,1.51a2.841,2.841,0,0,1-.9-.19A8.9,8.9,0,0,0,11.91,8.2Z" />
    <path class="light-defaultgrey" d="M.042,10.5A2.994,2.994,0,0,1,.3,8.705L2.286,10.7,3.7,9.282l-2-1.991a2.983,2.983,0,0,1,3.988,3.983L9,14.586v.707L8.3,16H7.59L4.278,12.688A2.98,2.98,0,0,1,.042,10.5Z" />
  </g>
</svg>
