<svg xmlns="http://www.w3.org/2000/svg" viewBox="0 0 16 16">
  <defs>
    <style>.canvas{fill: none; opacity: 0;}.light-defaultgrey-10{fill: #212121; opacity: 0.1;}.light-defaultgrey{fill: #212121; opacity: 1;}.light-blue-10{fill: #005dba; opacity: 0.1;}.light-blue{fill: #005dba; opacity: 1;}.cls-1{opacity:0.75;}</style>
  </defs>
  <title>IconLightVBAApplication</title>
  <g id="canvas">
    <path class="canvas" d="M16,16H0V0H16Z" />
  </g>
  <g id="level-1">
    <g class="cls-1">
      <path class="light-defaultgrey-10" d="M1.5,5V8.11L2,7.84l1.01-.55h.98L7.46,9.18l.54.91V13h6.5V5Z" />
      <path class="light-defaultgrey" d="M14.5,5H1.5L1,5.5V8.38l1-.54V6H14v7H8v1h6.5l.5-.5v-8Z" />
    </g>
    <path class="light-defaultgrey-10" d="M2,3V5H14V3Z" />
    <path class="light-defaultgrey" d="M14.5,2H1.5L1,2.5v3l.5.5h13l.5-.5v-3ZM2,5V3H14V5Z" />
    <path class="light-blue-10" d="M6.5,10.31v3.819l-3,1.363-3-1.363V10.31l3-1.636Z" />
    <path class="light-blue" d="M6.739,9.924l-3-1.636H3.261l-3,1.636L0,10.363v3.819l.293.455,3,1.363h.414l3-1.363L7,14.182V10.363ZM3,14.768,1,13.86V11.14l2,.909Zm.5-3.59-1.881-.855L3.5,9.3l1.881,1.027ZM6,13.86l-2,.908V12.049l2-.909Z" />
  </g>
</svg>
