<svg xmlns="http://www.w3.org/2000/svg" viewBox="0 0 16 16">
  <defs>
    <style>.canvas{fill: none; opacity: 0;}.light-defaultgrey{fill: #212121; opacity: 1;}.light-blue-10{fill: #005dba; opacity: 0.1;}.light-defaultgrey-10{fill: #212121; opacity: 0.1;}.light-blue{fill: #005dba; opacity: 1;}</style>
  </defs>
  <title>IconLightVBBDCModel</title>
  <g id="canvas" class="canvas">
    <path class="canvas" d="M16,16H0V0H16Z" />
  </g>
  <g id="level-1">
    <path class="light-defaultgrey" d="M4,3.97V6H5V5.261a7.863,7.863,0,0,0,3.5.709A7.863,7.863,0,0,0,12,5.261V12c0,.29-1.227,1-3.5,1-.177,0-.336-.011-.5-.019v1c.166.009.332.019.5.019,2.236,0,4.5-.686,4.5-2V3.97C13,1.343,4,1.343,4,3.97Zm4.5,1c-2.273,0-3.5-.71-3.5-1s1.227-1,3.5-1,3.5.71,3.5,1S10.773,4.97,8.5,4.97Z" />
    <path class="light-blue-10" d="M.3,15.5v-8H6.7v8Z" />
    <path class="light-defaultgrey-10" d="M12.5,4v8c0,.829-1.791,1.5-4,1.5-.17,0-.5-.012-.5-.012v-6.4L6.914,6H4.5V4c0-.828,1.791-1.5,4-1.5S12.5,3.172,12.5,4Z" />
    <path class="light-blue" d="M5,12H4V11H5ZM5,9H4v1H5ZM3,9H2v1H3Zm0,2H2v1H3ZM7,7.5V16H0V7.5L.5,7h6ZM6,8H1v7H3V13H4v2H6Z" />
  </g>
</svg>
