<svg xmlns="http://www.w3.org/2000/svg" viewBox="0 0 16 16">
  <defs>
    <style>.canvas{fill: none; opacity: 0;}.light-defaultgrey-10{fill: #212121; opacity: 0.1;}.light-defaultgrey{fill: #212121; opacity: 1;}.light-blue-10{fill: #005dba; opacity: 0.1;}.light-blue{fill: #005dba; opacity: 1;}</style>
  </defs>
  <title>IconLightVBDatabaseLibrary</title>
  <g id="canvas" class="canvas">
    <path class="canvas" d="M16,16H0V0H16Z" />
  </g>
  <g id="level-1">
    <path class="light-defaultgrey-10" d="M1.5,7.157V1.6h2V7.027C3.335,7.016,3.174,7,3,7A7.034,7.034,0,0,0,1.5,7.157Z" />
    <path class="light-defaultgrey-10" d="M14.389,12.108l-1.931.518L9.611,2l1.931-.518Z" />
    <path class="light-defaultgrey" d="M1,7.3V1.6l.5-.5h2l.5.5V7.07A7.534,7.534,0,0,0,3,7V2.1H2V7.07A5.759,5.759,0,0,0,1,7.3Z" />
    <path class="light-defaultgrey" d="M12.025,1.354,11.412,1,9.48,1.518l-.353.613,2.848,10.625.613.353,1.932-.517.353-.613Zm.787,10.66-2.589-9.66.965-.258,2.589,9.659Z" />
    <path class="light-blue-10" d="M5.5,9.5v5c0,.552-1.119,1-2.5,1s-2.5-.448-2.5-1v-5c0-.552,1.119-1,2.5-1S5.5,8.948,5.5,9.5Z" />
    <path class="light-defaultgrey-10" d="M7.5,1.6v11H7V9.5A2.253,2.253,0,0,0,5.5,7.489h0V1.6Z" />
    <path class="light-defaultgrey" d="M8,1.6v11l-.5.5H7V2.1H6V7.769a3.47,3.47,0,0,0-.438-.249L5.524,7.5A4.362,4.362,0,0,0,5,7.3H5V1.6l.5-.5h2Z" />
    <path class="light-blue" d="M3,8C1.555,8,0,8.47,0,9.5v5C0,15.53,1.555,16,3,16s3-.47,3-1.5v-5C6,8.47,4.445,8,3,8ZM3,9a3.052,3.052,0,0,1,1.987.5A3.052,3.052,0,0,1,3,10a3.35,3.35,0,0,1-2-.47V9.522A2.862,2.862,0,0,1,3,9Zm0,6a3.024,3.024,0,0,1-2-.5V10.651A5.41,5.41,0,0,0,3,11a5.419,5.419,0,0,0,2-.349l0,3.823A2.836,2.836,0,0,1,3,15Z" />
  </g>
</svg>
