<svg xmlns="http://www.w3.org/2000/svg" viewBox="0 0 16 16">
  <defs>
    <style>.canvas{fill: none; opacity: 0;}.light-defaultgrey{fill: #212121; opacity: 1;}.light-defaultgrey-10{fill: #212121; opacity: 0.1;}.light-blue{fill: #005dba; opacity: 1;}</style>
  </defs>
  <title>VBDeploymentModule</title>
  <g id="canvas" class="canvas">
    <path class="canvas" d="M16,16H0V0H16Z" />
  </g>
  <g id="level-1">
    <path class="light-defaultgrey" d="M8,14H2.5L2,13.5V1.5L2.5,1h7l.354.146,3,3L13,4.5V8H12V5H9V2H3V13H8Z" />
    <path class="light-defaultgrey" d="M7,6H9V8H7ZM4,11H6V9H4ZM4,8H6V6H4Z" />
    <path class="light-defaultgrey-10" d="M8,14H2.5V1.5h7L13,5V8H8Z" />
    <path class="light-blue" d="M12,12H9V9h3Zm0,4H9V13h3Zm4-4H13V9h3Z" />
  </g>
</svg>
