<svg xmlns="http://www.w3.org/2000/svg" viewBox="0 0 16 16">
  <defs>
    <style>.canvas{fill: none; opacity: 0;}.light-defaultgrey-10{fill: #212121; opacity: 0.1;}.light-defaultgrey{fill: #212121; opacity: 1;}.light-blue{fill: #005dba; opacity: 1;}.cls-1{opacity:0.75;}</style>
  </defs>
  <title>IconLightVBInterfaceCollection</title>
  <g id="canvas" class="canvas">
    <path class="canvas" d="M16,16H0V0H16Z" />
  </g>
  <g id="level-1">
    <g class="cls-1">
      <path class="light-defaultgrey-10" d="M13,12V3.5L12.5,3H4V2H14V12Z" />
      <path class="light-defaultgrey" d="M15,1.5v11l-.5.5H13V12h1V2H4V3H3V1.5L3.5,1h11Z" />
    </g>
    <path class="light-defaultgrey-10" d="M12,14H2V4H12Z" />
    <path class="light-defaultgrey" d="M12.5,3H1.5L1,3.5v11l.5.5h11l.5-.5V3.5ZM12,14H2V4H12Z" />
    <path class="light-blue" d="M9,7A2,2,0,0,0,7.117,8.353H5.293a1.232,1.232,0,0,0-1.043-.6A1.25,1.25,0,1,0,5.4,9.474H7.063A2,2,0,1,0,9,7Zm0,3a1,1,0,1,1,1-1A1,1,0,0,1,9,10Z" />
  </g>
</svg>
