<svg xmlns="http://www.w3.org/2000/svg" viewBox="0 0 16 16">
  <defs>
    <style>.canvas{fill: none; opacity: 0;}.light-defaultgrey-10{fill: #212121; opacity: 0.1;}.light-defaultgrey{fill: #212121; opacity: 1;}.light-blue-10{fill: #005dba; opacity: 0.1;}.light-blue{fill: #005dba; opacity: 1;}.cls-1{opacity:0.75;}</style>
  </defs>
  <title>IconLightVBPhoneTest</title>
  <g id="canvas" class="canvas">
    <path class="canvas" d="M16,16H0V0H16Z" />
  </g>
  <g id="level-1">
    <path class="light-defaultgrey-10" d="M13.5,1.5V15H6.986a1.1,1.1,0,0,0-.154-.713L6.028,13,5,11.356V9H6V8H5V7h.5V1.5Z" />
    <path class="light-defaultgrey" d="M14,1.5v13l-.5.5H7.983a2.087,2.087,0,0,0-.192-1H13V2H6V7H5V1.5L5.5,1h8ZM11,13H8V12h3ZM10,4H9V3h1Z" />
    <g class="cls-1">
      <path class="light-blue-10" d="M2.5,8.5h2v3l1.25,2H1.25l1.25-2Z" />
      <path class="light-blue" d="M2,9H1V8H6V9H5v2.356L6.028,13H4.849L4,11.644V9H3v2.644L2.153,13H.974L2,11.356Z" />
    </g>
    <path class="light-blue-10" d="M1.5,13.5h4l1,1.5-.5.5H1L.5,15Z" />
    <path class="light-blue" d="M5.883,16H1.12a1.12,1.12,0,0,1-.95-1.714L.974,13H6.028l.8,1.287A1.12,1.12,0,0,1,5.883,16ZM1.529,14l-.511.816a.114.114,0,0,0,0,.122A.116.116,0,0,0,1.12,15H5.883a.12.12,0,0,0,.1-.183L5.474,14Z" />
  </g>
</svg>
