<svg xmlns="http://www.w3.org/2000/svg" viewBox="0 0 16 16">
  <defs>
    <style>.canvas{fill: none; opacity: 0;}.light-defaultgrey-10{fill: #212121; opacity: 0.1;}.light-defaultgrey{fill: #212121; opacity: 1;}.light-blue-10{fill: #005dba; opacity: 0.1;}.light-blue{fill: #005dba; opacity: 1;}</style>
  </defs>
  <title>IconLightVBPhoneHub</title>
  <g id="canvas" class="canvas">
    <path class="canvas" d="M16,16H0V0H16Z" />
  </g>
  <g id="level-1">
    <path class="light-defaultgrey-10" d="M14.5.5V13H9V8.086L7.914,7H6.5V.5Z" />
    <path class="light-defaultgrey" d="M9,14V13h5V1H7V7H6V.5L6.5,0h8l.5.5v13l-.5.5M11,3H10V2h1Zm1,9H9V11h3Z" />
    <path class="light-blue-10" d="M7.5,15.5H.5v-7h7Z" />
    <path class="light-blue" d="M7.5,8H.5L0,8.5v7l.5.5h7l.5-.5v-7ZM7,15H1V10H7Z" />
    <path class="light-blue" d="M3,12H2V11H3Zm0,1H2v1H3Zm3-2H4v1H6Zm0,2H4v1H6Z" />
  </g>
</svg>
