<svg xmlns="http://www.w3.org/2000/svg" viewBox="0 0 16 16">
  <defs>
    <style>.canvas{fill: none; opacity: 0;}.light-defaultgrey-10{fill: #212121; opacity: 0.1;}.light-defaultgrey{fill: #212121; opacity: 1;}.light-blue{fill: #005dba; opacity: 1;}.cls-1{opacity:0.75;}</style>
  </defs>
  <title>VBProjectNode</title>
  <g id="canvas" class="canvas">
    <path class="canvas" d="M16,16H0V0H16Z" />
  </g>
  <g id="level-1">
    <g class="cls-1">
      <path class="light-defaultgrey-10" d="M14.5,2.5v11H1.5V2.5Z" />
      <path class="light-defaultgrey" d="M14.5,2H1.5L1,2.5v11l.5.5h13l.5-.5V2.5ZM14,13H2V3H14Z" />
    </g>
    <path class="light-blue" d="M8.193,5,6.038,11H4.925L2.808,5H3.9L5.377,9.552a2.837,2.837,0,0,1,.108.507H5.5a2.728,2.728,0,0,1,.121-.515L7.138,5Z" />
    <path class="light-blue" d="M13.063,9.276a1.511,1.511,0,0,1-.607,1.247A2.4,2.4,0,0,1,10.925,11H9V5h1.9a2.245,2.245,0,0,1,1.378.381,1.183,1.183,0,0,1,.509.991,1.411,1.411,0,0,1-.289.887,1.558,1.558,0,0,1-.8.536v.017a1.56,1.56,0,0,1,.989.458A1.394,1.394,0,0,1,13.063,9.276ZM9.992,7.506h.644a1.239,1.239,0,0,0,.814-.244.854.854,0,0,0,.295-.693q0-.769-1.03-.77H9.992ZM12,9.238q0-.933-1.293-.933H9.992v1.9h.849a1.3,1.3,0,0,0,.86-.257A.882.882,0,0,0,12,9.238Z" />
  </g>
</svg>
