<svg xmlns="http://www.w3.org/2000/svg" viewBox="0 0 16 16">
  <defs>
    <style>.canvas{fill: none; opacity: 0;}.light-defaultgrey-10{fill: #212121; opacity: 0.1;}.light-defaultgrey{fill: #212121; opacity: 1;}.light-blue{fill: #005dba; opacity: 1;}</style>
  </defs>
  <title>IconLightVBRazorFile</title>
  <g id="canvas" class="canvas">
    <path class="canvas" d="M16,16H0V0H16Z" />
  </g>
  <g id="level-1">
    <path class="light-defaultgrey-10" d="M13.5,4.5v10H2.5V1.5h8Z" />
    <path class="light-defaultgrey" d="M13.854,4.146l-3-3L10.5,1h-8L2,1.5v13l.5.5h11l.5-.5V4.5ZM3,14V2h7V5h3v9Z" />
    <path class="light-blue" d="M10.936,5.986A4.072,4.072,0,0,0,8.131,5,3.992,3.992,0,0,0,5.162,6.177,4.043,4.043,0,0,0,4,9.141a3.756,3.756,0,0,0,1.1,2.812,3.963,3.963,0,0,0,2.895,1.074,5.5,5.5,0,0,0,2.134-.361v-.752a4.608,4.608,0,0,1-2.007.4,3.19,3.19,0,0,1-2.368-.883,3.154,3.154,0,0,1-.879-2.325,3.411,3.411,0,0,1,.913-2.431A3.028,3.028,0,0,1,8.092,5.7a3.1,3.1,0,0,1,2.268.8,2.781,2.781,0,0,1,.818,2.073,2.841,2.841,0,0,1-.3,1.4.881.881,0,0,1-.762.54q-.5,0-.5-.967,0-.05.23-2.627H9.029q-.058.424-.073.561H8.941A.844.844,0,0,0,8.6,7.034a1.035,1.035,0,0,0-.611-.188,1.726,1.726,0,0,0-1.447.727A2.94,2.94,0,0,0,5.987,9.4a2.026,2.026,0,0,0,.4,1.321,1.294,1.294,0,0,0,1.054.491,1.36,1.36,0,0,0,1.377-1.05h.025q0,1.05,1.128,1.05a1.83,1.83,0,0,0,1.472-.745,2.932,2.932,0,0,0,.6-1.906A3.278,3.278,0,0,0,10.936,5.986Zm-2.4,3.977a.947.947,0,0,1-.849.555.7.7,0,0,1-.594-.306,1.388,1.388,0,0,1-.222-.832A2.436,2.436,0,0,1,7.2,8.066a.989.989,0,0,1,.866-.527q.781,0,.782.957A2.969,2.969,0,0,1,8.536,9.963Z" />
  </g>
</svg>
