<svg xmlns="http://www.w3.org/2000/svg" viewBox="0 0 16 16">
  <defs>
    <style>.canvas{fill: none; opacity: 0;}.light-blue{fill: #005dba; opacity: 1;}.light-blue-10{fill: #005dba; opacity: 0.1;}.cls-1{opacity:0.75;}</style>
  </defs>
  <title>IconLightVBSiteDefinition</title>
  <g id="canvas" class="canvas">
    <path class="canvas" d="M16,16H0V0H16Z" />
  </g>
  <g id="level-1">
    <g class="cls-1">
      <path class="light-blue" d="M9,11v1H6V11H7V7H8v4Z" />
    </g>
    <path class="light-blue-10" d="M10.5,2,9,.5H5.5v6h5Zm4,8L13,8.5H9.5v6h5Zm-9,0L4,8.5H.5v6h5Z" />
    <path class="light-blue" d="M10.854,1.646l-1.5-1.5L9,0H5.5L5,.5v6l.5.5h5l.5-.5V2ZM10,6H6V1H8V3h2Zm4.854,3.646-1.5-1.5L13,8H9.5L9,8.5v6l.5.5h5l.5-.5V10ZM14,14H10V9h2v2h2ZM5.854,9.646l-1.5-1.5L4,8H.5L0,8.5v6l.5.5h5l.5-.5V10ZM5,14H1V9H3v2H5Z" />
  </g>
</svg>
