<svg xmlns="http://www.w3.org/2000/svg" viewBox="0 0 16 16">
  <defs>
    <style>.canvas{fill: none; opacity: 0;}.light-blue-10{fill: #005dba; opacity: 0.1;}.light-blue{fill: #005dba; opacity: 1;}.cls-1{opacity:0.75;}</style>
  </defs>
  <title>IconLightVBSilverlightTest</title>
  <g id="canvas" class="canvas">
    <path class="canvas" d="M16,16H0V0H16Z" />
  </g>
  <g id="level-1">
    <path class="light-blue-10" d="M14.6,10.451,13.67,8.989H8.33L8.2,9.2c-.149-.156-.3-.3-.366-.355l-.852,1.349A1.5,1.5,0,0,0,8.242,12.5H9.33l.133-.511h4.3A1,1,0,0,0,14.6,10.451ZM9.58,11.52v0" />
    <path class="light-blue" d="M15.076,11.71a1.48,1.48,0,0,1-1.315.779H9.328l.252-.969-.014-.031h4.195a.5.5,0,0,0,.421-.77L13.4,9.489H8.6L8.535,9.6a5.68,5.68,0,0,0-.706-.753l.079-.125.422-.23h5.34l.422.23.933,1.462A1.484,1.484,0,0,1,15.076,11.71Z" />
    <g class="cls-1">
      <path class="light-blue-10" d="M8.649,8.489,9.5,7.156V2.989h3V7.156l.851,1.333Z" />
      <path class="light-blue" d="M9,3.489H8v-1h6v1H13v3.52l1.091,1.71-.421-.23h-.913l-.679-1.064L12,7.156V3.489H10V7.156l-.078.269L9.243,8.489H8.33l-.421.23L9,7.009Z" />
    </g>
    <path class="light-blue-10" d="M3.443,15.494c-1.784-.351-2.93-1.113-2.93-1.955,0-2.568,1.767-4.657,3.939-4.657a3.953,3.953,0,0,1,3.559,2.663l-.063.243L3.637,15.442Z" />
    <path class="light-blue" d="M8.516,11.489h0l-.011-.023A4.462,4.462,0,0,0,4.439,8.376C1.992,8.376,0,10.689,0,13.532,0,14.662,1.321,15.607,3.448,16l.414-.11,4.516-3.829.146-.555ZM7.005,10.98c-.224-.028-.45-.054-.681-.069a1.072,1.072,0,0,1,.188-.085A.609.609,0,0,1,7.005,10.98Zm-2.566-1.6a2.985,2.985,0,0,1,1.671.532A3.153,3.153,0,0,0,4.766,10.92a8.35,8.35,0,0,0-3.442.852A3.467,3.467,0,0,1,4.439,9.376Zm-.4,2.613a8.668,8.668,0,0,0-.6,1.356,6.16,6.16,0,0,0-.755-1.063A8.2,8.2,0,0,1,4.041,11.989ZM1,13.532c0-.261.25-.562.711-.834a4.666,4.666,0,0,1,1.258,2.166C1.677,14.515,1,13.961,1,13.532Zm3.216.746a7.584,7.584,0,0,1,1.055-2.385c.083,0,.158-.01.243-.01a10.774,10.774,0,0,1,1.419.092Z" />
  </g>
</svg>
