<svg xmlns="http://www.w3.org/2000/svg" viewBox="0 0 16 16">
  <defs>
    <style>.canvas{fill: none; opacity: 0;}.light-blue-10{fill: #005dba; opacity: 0.1;}.light-blue{fill: #005dba; opacity: 1;}.light-defaultgrey{fill: #212121; opacity: 1;}</style>
  </defs>
  <title>IconLightVBSilverlightWebSite</title>
  <g id="canvas" class="canvas">
    <path class="canvas" d="M16,16H0V0H16Z" />
  </g>
  <g id="level-1">
    <path class="light-blue-10" d="M3.443,15.494c-1.784-.351-2.93-1.113-2.93-1.955,0-2.568,1.767-4.657,3.939-4.657a3.953,3.953,0,0,1,3.559,2.663l-.063.243L3.637,15.442Z" />
    <path class="light-blue" d="M8.516,11.489h0l-.011-.023A4.462,4.462,0,0,0,4.439,8.376C1.992,8.376,0,10.689,0,13.532,0,14.662,1.321,15.607,3.448,16l.414-.11,4.516-3.829.146-.555ZM7.005,10.98c-.224-.028-.45-.054-.681-.069a1.072,1.072,0,0,1,.188-.085A.609.609,0,0,1,7.005,10.98Zm-2.566-1.6a2.985,2.985,0,0,1,1.671.532A3.153,3.153,0,0,0,4.766,10.92a8.35,8.35,0,0,0-3.442.852A3.467,3.467,0,0,1,4.439,9.376Zm-.4,2.613a8.668,8.668,0,0,0-.6,1.356,6.16,6.16,0,0,0-.755-1.063A8.2,8.2,0,0,1,4.041,11.989ZM1,13.532c0-.261.25-.562.711-.834a4.666,4.666,0,0,1,1.258,2.166C1.677,14.515,1,13.961,1,13.532Zm3.216.746a7.584,7.584,0,0,1,1.055-2.385c.083,0,.158-.01.243-.01a10.774,10.774,0,0,1,1.419.092Z" />
    <path class="light-blue-10" d="M14.5,6a4.491,4.491,0,0,1-5.381,4.411A5.536,5.536,0,0,0,5.8,7.584,4.494,4.494,0,1,1,14.5,6Z" />
    <path class="light-defaultgrey" d="M10,1A5.006,5.006,0,0,0,5,6a4.954,4.954,0,0,0,.237,1.442A4.982,4.982,0,0,1,6.818,8h.957a7.249,7.249,0,0,0,.4,1.075,6.142,6.142,0,0,1,1.185,1.861A4.946,4.946,0,0,0,10,11,5,5,0,0,0,10,1Zm3.444,3H12.225a7.486,7.486,0,0,0-.712-1.7A4.011,4.011,0,0,1,13.444,4ZM9.891,2.011C9.928,2.01,9.963,2,10,2s.072.01.11.011A6.54,6.54,0,0,1,11.168,4H8.832A6.5,6.5,0,0,1,9.891,2.011ZM7.574,7H6.142A3.939,3.939,0,0,1,6,6a3.939,3.939,0,0,1,.142-1H7.574A7.583,7.583,0,0,0,7.5,6,7.583,7.583,0,0,0,7.574,7Zm.2-3H6.556A4.011,4.011,0,0,1,8.487,2.3,7.486,7.486,0,0,0,7.775,4Zm2.332,5.989c-.036,0-.07.011-.107.011s-.072-.01-.109-.011A6.5,6.5,0,0,1,8.832,8h2.336A6.5,6.5,0,0,1,10.107,9.989ZM11.412,7H8.588A6.419,6.419,0,0,1,8.5,6a6.419,6.419,0,0,1,.088-1h2.824A6.419,6.419,0,0,1,11.5,6,6.419,6.419,0,0,1,11.412,7Zm.1,2.7A7.534,7.534,0,0,0,12.226,8h1.218A4.011,4.011,0,0,1,11.513,9.7ZM12.426,7A7.583,7.583,0,0,0,12.5,6a7.583,7.583,0,0,0-.074-1h1.432A3.939,3.939,0,0,1,14,6a3.939,3.939,0,0,1-.142,1Z" />
  </g>
</svg>
