<svg xmlns="http://www.w3.org/2000/svg" viewBox="0 0 16 16">
  <defs>
    <style>.canvas{fill: none; opacity: 0;}.light-blue-10{fill: #005dba; opacity: 0.1;}.light-blue{fill: #005dba; opacity: 1;}.light-defaultgrey-10{fill: #212121; opacity: 0.1;}.light-defaultgrey{fill: #212121; opacity: 1;}.cls-1{opacity:0.75;}</style>
  </defs>
  <title>IconLightVBTestApplication</title>
  <g id="canvas" class="canvas">
    <path class="canvas" d="M16,16H0V0H16Z" />
  </g>
  <g id="level-1">
    <g class="cls-1">
      <path class="light-blue-10" d="M2.528,8.5h2v3l1.25,2h-4.5l1.25-2Z" />
      <path class="light-blue" d="M2.03,9h-1V8h5V9h-1v2.356L6.056,13H4.878L4.03,11.644V9h-1v2.644L2.182,13H1L2.03,11.356Z" />
    </g>
    <path class="light-blue-10" d="M1.528,13.5h4l1,1.5-.5.5h-5l-.5-.5Z" />
    <path class="light-blue" d="M5.911,16H1.148A1.12,1.12,0,0,1,.2,14.286L1,13H6.056l.8,1.287A1.12,1.12,0,0,1,5.911,16ZM1.557,14l-.511.816a.118.118,0,0,0,0,.122.116.116,0,0,0,.1.062H5.911a.116.116,0,0,0,.105-.062.112.112,0,0,0,0-.121L5.5,14Z" />
    <g class="cls-1">
      <path class="light-defaultgrey-10" d="M14.5,5v8H7.236l-.257-.412L6.03,11.069V10h1V7H1.5V5Z" />
      <path class="light-defaultgrey" d="M15,5.5v8l-.5.5H7.86l-.15-.24v0L7.236,13H14V6H2V7H1V5.5L1.5,5h13Z" />
    </g>
    <path class="light-defaultgrey-10" d="M14,3V5H2V3Z" />
    <path class="light-defaultgrey" d="M14.5,6H1.5L1,5.5v-3L1.5,2h13l.5.5v3ZM2,5H14V3H2Z" />
  </g>
</svg>
