<svg xmlns="http://www.w3.org/2000/svg" viewBox="0 0 16 16">
  <defs>
    <style>.canvas{fill: none; opacity: 0;}.light-blue-10{fill: #005dba; opacity: 0.1;}.light-blue{fill: #005dba; opacity: 1;}.cls-1{opacity:0.75;}</style>
  </defs>
  <title>IconLightVBTest</title>
  <g id="canvas" class="canvas">
    <path class="canvas" d="M16,16H0V0H16Z" />
  </g>
  <g id="level-1">
    <g class="cls-1">
      <path class="light-blue-10" d="M4.326,10,6.5,6.667V1.5h3V6.667L11.674,10Z" />
      <path class="light-blue" d="M6,6.519V2H5V1h6V2H10V6.519l2.419,3.708,0,0L12,10h-.923l-2-3.06L9,6.667V2H7V6.667l-.081.273-2,3.06H4l-.416.232,0,0Z" />
    </g>
    <path class="light-blue-10" d="M12.675,14.5H3.325a1,1,0,0,1-.843-1.538L4,10.5h8l1.518,2.462A1,1,0,0,1,12.675,14.5Z" />
    <path class="light-blue" d="M12.676,15H3.324A1.5,1.5,0,0,1,2.06,12.693l1.514-2.456L4,10h8l.426.237L13.944,12.7A1.5,1.5,0,0,1,12.676,15Zm-8.4-4L2.907,13.225A.5.5,0,0,0,3.324,14h9.352a.5.5,0,0,0,.421-.77L11.721,11Z" />
  </g>
</svg>
