<svg xmlns="http://www.w3.org/2000/svg" viewBox="0 0 16 16">
  <defs>
    <style>.canvas{fill: none; opacity: 0;}.light-defaultgrey-10{fill: #212121; opacity: 0.1;}.light-defaultgrey{fill: #212121; opacity: 1;}.light-blue{fill: #005dba; opacity: 1;}</style>
  </defs>
  <title>IconLightVBWorkflowAssociationForm</title>
  <g id="canvas" class="canvas">
    <path class="canvas" d="M16,16H0V0H16Z" />
  </g>
  <g id="level-1">
    <path class="light-defaultgrey-10" d="M13.5,4.5V15H7.242c.054-.081.106-.163.155-.248l.5-.865L6.366,13h.548L8,11.914V8H5v.263A4.443,4.443,0,0,0,3.5,8,4.488,4.488,0,0,0,2,8.257V6H4V4H6V1.5h4.5Z" />
    <path class="light-defaultgrey" d="M14,4.5v10l-.5.5H7.23c.056-.083.117-.161.167-.248L7.832,14H13V5H10V2H6V1h4.5l.354.146,3,3ZM2,8.276a4.485,4.485,0,0,1,1-.225V6H2Z" />
    <path class="light-blue" d="M3.5,9A3.5,3.5,0,0,1,6,10.06V9H7v2.5l-.5.5H4V11H5.5a2.5,2.5,0,1,0,.167,2.75l.865.5A3.5,3.5,0,1,1,3.5,9Z" />
    <path class="light-blue" d="M5,3H3V5H2V3H0V2H2V0H3V2H5Z" />
  </g>
</svg>
