<svg xmlns="http://www.w3.org/2000/svg" viewBox="0 0 16 16">
  <defs>
    <style>.canvas{fill: none; opacity: 0;}.light-blue{fill: #005dba; opacity: 1;}</style>
  </defs>
  <title>IconLightVBWorkflowManagerActivity</title>
  <g id="canvas" class="canvas">
    <path class="canvas" d="M16,16H0V0H16Z" />
  </g>
  <g id="level-1">
    <path class="light-blue" d="M15,2.5v4l-.5.5h-4V6h2.707A5.751,5.751,0,0,0,8,2.02v-1a6.769,6.769,0,0,1,6,4.19V2.5ZM3.058,4.472l-.729-.728A6.717,6.717,0,0,0,1.044,7H2.055A5.693,5.693,0,0,1,3.058,4.472ZM7,2.07V1.046A6.717,6.717,0,0,0,2.985,2.985L3.7,3.7A5.693,5.693,0,0,1,7,2.07ZM2.793,10H5.5V9h-4L1,9.5v4H2V10.791a6.769,6.769,0,0,0,6,4.19v-1A5.751,5.751,0,0,1,2.793,10Zm10.149,1.528.729.728A6.717,6.717,0,0,0,14.956,9H13.945A5.693,5.693,0,0,1,12.942,11.528ZM9,13.93v1.024a6.717,6.717,0,0,0,4.015-1.939L12.3,12.3A5.693,5.693,0,0,1,9,13.93Z" />
  </g>
</svg>
