<svg xmlns="http://www.w3.org/2000/svg" viewBox="0 0 16 16">
  <defs>
    <style>.canvas{fill: none; opacity: 0;}.light-defaultgrey-10{fill: #212121; opacity: 0.1;}.light-defaultgrey{fill: #212121; opacity: 1;}.light-blue{fill: #005dba; opacity: 1;}</style>
  </defs>
  <title>IconLightVBWPFUserControl</title>
  <g id="canvas" class="canvas">
    <path class="canvas" d="M16,16H0V0H16Z" />
  </g>
  <g id="level-1">
    <path class="light-defaultgrey-10" d="M10,6.5A2.5,2.5,0,1,1,12.5,4,2.5,2.5,0,0,1,10,6.5Zm0,0A4.5,4.5,0,0,0,5.62,10H5.114A4.918,4.918,0,0,0,5,11h9.5A4.5,4.5,0,0,0,10,6.5Z" />
    <path class="light-defaultgrey" d="M11.832,6.359a3,3,0,1,0-3.664,0A5.006,5.006,0,0,0,5.114,10H6.142A3.992,3.992,0,0,1,14,11h1A5,5,0,0,0,11.832,6.359ZM10,6a2,2,0,1,1,2-2A2,2,0,0,1,10,6Z" />
    <path class="light-blue" d="M7,12v3H4V12Zm3.828,1.854v-.708L8.707,11.025,8,11.732,9.768,13.5,8,15.268l.707.707ZM.172,13.146v.708l2.121,2.121L3,15.268,1.232,13.5,3,11.732l-.707-.707Z" />
  </g>
</svg>
