<svg xmlns="http://www.w3.org/2000/svg" viewBox="0 0 16 16">
  <defs>
    <style>.canvas{fill: none; opacity: 0;}.light-defaultgrey-10{fill: #212121; opacity: 0.1;}.light-defaultgrey{fill: #212121; opacity: 1;}.light-blue{fill: #005dba; opacity: 1;}</style>
  </defs>
  <title>IconLightVBWPFWebSite</title>
  <g id="canvas" class="canvas">
    <path class="canvas" d="M16,16H0V0H16Z" />
  </g>
  <g id="level-1">
    <path class="light-defaultgrey-10" d="M15,8a6.982,6.982,0,0,1-2.877,5.648c-.094.068-.2.122-.294.184l-.065-1.123L8.645,9.59,7.316,11H3.682L2.293,9.611l-.577.577-.491-.509c-.025-.1-.067-.2-.088-.3A7,7,0,1,1,15,8Z" />
    <path class="light-defaultgrey" d="M8,1A6.954,6.954,0,0,0,1.079,9a6.862,6.862,0,0,0,.388,1.437l.791-.79A6.145,6.145,0,0,1,2.089,9,5.784,5.784,0,0,1,2,8a5.976,5.976,0,0,1,.35-2H4.7a10.2,10.2,0,0,0,0,4H2.682l1,1H7.316l.942-1H5.722c-.071-.33-.126-.664-.164-1A8.757,8.757,0,0,1,5.5,8a9.487,9.487,0,0,1,.222-2h4.556A9.487,9.487,0,0,1,10.5,8a8.757,8.757,0,0,1-.058,1c-.038.336-.093.67-.164,1H9.055l1.724,1.724c.092-.241.2-.476.274-.724h2.135a6.084,6.084,0,0,1-1.449,1.684l.025.025.064,1.115A6.976,6.976,0,0,0,8,1ZM4.946,5H2.812A6.049,6.049,0,0,1,3.9,3.667c.12-.113.226-.24.355-.344a5.96,5.96,0,0,1,1.8-.984c.054-.019.1-.049.157-.066A10.517,10.517,0,0,0,4.946,5ZM6,5a9.526,9.526,0,0,1,.87-1.875,9.451,9.451,0,0,1,.763-1.106C7.752,2.011,7.874,2,8,2s.248.011.372.019a9.451,9.451,0,0,1,.763,1.106A9.526,9.526,0,0,1,10.005,5ZM9.79,2.273c.055.017.1.047.157.066a5.96,5.96,0,0,1,1.8.984c.129.1.235.231.355.344A6.049,6.049,0,0,1,13.188,5H11.054A10.517,10.517,0,0,0,9.79,2.273ZM13.911,9a6.17,6.17,0,0,1-.261,1H11.3a10.2,10.2,0,0,0,0-4H13.65A5.976,5.976,0,0,1,14,8,5.784,5.784,0,0,1,13.911,9Z" />
    <path class="light-blue" d="M7,12v3H4V12Zm3.828,1.854-.041-.708L8.666,11.025,8,11.732,9.768,13.5,8,15.268l.707.707ZM.172,13.146v.708l2.121,2.121L3,15.268,1.232,13.5,3,11.732l-.707-.707Z" />
  </g>
</svg>
