<svg xmlns="http://www.w3.org/2000/svg" viewBox="0 0 16 16">
  <defs>
    <style>.canvas{fill: none; opacity: 0;}.light-defaultgrey-10{fill: #212121; opacity: 0.1;}.light-defaultgrey{fill: #212121; opacity: 1;}.cls-1{opacity:0.75;}</style>
  </defs>
  <title>IconLightVersionInformation</title>
  <g id="canvas">
    <path class="canvas" d="M16,16H0V0H16Z" />
  </g>
  <g id="level-1">
    <g class="cls-1">
      <path class="light-defaultgrey-10" d="M14.5,2.5v11H.5V2.5Z" />
      <path class="light-defaultgrey" d="M14.5,2H.5L0,2.5v11l.5.5h14l.5-.5V2.5ZM14,13H1V3H14Z" />
    </g>
    <path class="light-defaultgrey" d="M5.162,4.788v5.931H4.224V5.937a2.977,2.977,0,0,1-.548.31,4.565,4.565,0,0,1-.67.224v-.8c.156-.051.308-.1.453-.162s.289-.12.431-.19.285-.149.429-.234.293-.186.447-.3Zm1.845,6.02a.576.576,0,0,1-.412-.16.5.5,0,0,1-.17-.382.514.514,0,0,1,.17-.388.574.574,0,0,1,.412-.162.589.589,0,0,1,.419.162.513.513,0,0,1,.172.388.5.5,0,0,1-.172.382A.591.591,0,0,1,7.007,10.808Zm3.237.008a1.618,1.618,0,0,1-1.414-.74,3.778,3.778,0,0,1-.508-2.14,4.192,4.192,0,0,1,.53-2.327,1.732,1.732,0,0,1,1.529-.788q1.914,0,1.914,2.973a3.918,3.918,0,0,1-.54,2.248A1.739,1.739,0,0,1,10.244,10.816Zm.093-5.247q-1.056,0-1.056,2.326,0,2.178,1.036,2.177,1.018,0,1.019-2.213Q11.336,5.57,10.337,5.569Z" />
  </g>
</svg>
