<svg xmlns="http://www.w3.org/2000/svg" viewBox="0 0 16 16">
  <defs>
    <style>.canvas{fill: none; opacity: 0;}.light-defaultgrey-10{fill: #212121; opacity: 0.1;}.light-red-10{fill: #c50b17; opacity: 0.1;}.light-red{fill: #c50b17; opacity: 1;}.light-defaultgrey{fill: #212121; opacity: 1;}</style>
  </defs>
  <title>IconLightVideoRecording</title>
  <g id="canvas" class="canvas">
    <path class="canvas" d="M16,16H0V0H16Z" />
  </g>
  <g id="level-1">
    <path class="light-defaultgrey-10" d="M14.5,6.5v6H4.5V7H5.914l.5-.5Z" />
    <path class="light-red-10" d="M5.5,5.5H.5V.5h5Z" />
    <path class="light-red" d="M4,3A1,1,0,1,1,3,2,1,1,0,0,1,4,3Z" />
    <path class="light-red" d="M5.5,0H.5L0,.5v5L.5,6h5L6,5.5V.5ZM3,5A2,2,0,1,1,5,3,2,2,0,0,1,3,5Z" />
    <path class="light-defaultgrey" d="M15,6.5v6l-.5.5H10v1h2v1H7V14H9V13H4.5L4,12.5V7H5v5h9V7H5.914l1-1H14.5Z" />
  </g>
</svg>
