<svg xmlns="http://www.w3.org/2000/svg" viewBox="0 0 16 16">
  <defs>
    <style>.canvas{fill: none; opacity: 0;}.light-defaultgrey-10{fill: #212121; opacity: 0.1;}.light-defaultgrey{fill: #212121; opacity: 1;}.light-blue-10{fill: #005dba; opacity: 0.1;}.light-defaultgrey-25{fill: #212121; opacity: 0.25;}.light-blue{fill: #005dba; opacity: 1;}.cls-1{opacity:0.75;}</style>
  </defs>
  <title>IconLightViewRight</title>
  <g id="canvas">
    <path class="canvas" d="M16,0V16H0V0Z" />
  </g>
  <g id="level-1">
    <g class="cls-1">
      <path class="light-defaultgrey-10" d="M13.5,4.82,8,8v6.35L2.5,11.18V4.82L8,1.65Z" />
      <path class="light-defaultgrey" d="M14,4.82l-.25-.43L8.25,1.22h-.5L2.25,4.39,2,4.82v6.36l.25.43,5.5,3.17h.5L8,14.35V8l5.5-3.18ZM8.5,2.51l4,2.31-4,2.31ZM7,8,3,10.31V5.69ZM3.5,4.82l4-2.31V7.13Zm4,8.67-4-2.31,4-2.31Z" />
    </g>
    <path class="light-blue-10" d="M13.5,4.825v6.35L8,14.351V8Z" />
    <path class="light-defaultgrey-25" d="M13.75,10.742l-.5.866L7.75,8.433l.5-.866Z" />
    <path class="light-blue" d="M8.25,14.784l-.75-.433V8l.25-.433,5.5-3.175.75.433v6.35l-.25.433Zm.25-6.5v5.2l4.5-2.6v-5.2Z" />
  </g>
</svg>
