<svg xmlns="http://www.w3.org/2000/svg" viewBox="0 0 16 16">
  <defs>
    <style>.canvas{fill: none; opacity: 0;}.light-blue-10{fill: #005dba; opacity: 0.1;}.light-blue{fill: #005dba; opacity: 1;}.white{fill: #ffffff; opacity: 1;}</style>
  </defs>
  <title>ViewRemoteSite</title>
  <g id="canvas">
    <path class="canvas" d="M16,16H0V0H16Z" />
  </g>
  <g id="level-1">
    <path class="light-blue-10" d="M12.6,3.4A6.505,6.505,0,0,0,1.62,9.27a6.5,6.5,0,0,0,5.11,5.11,4.9,4.9,0,0,0,.93.1,4.757,4.757,0,0,1-.46-1.09A4.917,4.917,0,0,1,7,12a4.712,4.712,0,0,1,.1-1,5.532,5.532,0,0,1,.31-1,5.075,5.075,0,0,1,3.05-2.76,4.7,4.7,0,0,1,.99-.2A3.313,3.313,0,0,1,12,7a4.989,4.989,0,0,1,1.97.4,4.065,4.065,0,0,1,.51.26A6.424,6.424,0,0,0,12.6,3.4Z" />
    <path class="light-blue" d="M12.95,3.05A7,7,0,1,0,6.63,14.87,7.062,7.062,0,0,0,8,15a4.653,4.653,0,0,1-.34-.52,4.757,4.757,0,0,1-.46-1.09A9.085,9.085,0,0,1,6,11H7.1a5.532,5.532,0,0,1,.31-1H5.72A9.648,9.648,0,0,1,5.5,8a9.648,9.648,0,0,1,.22-2h4.56a8.617,8.617,0,0,1,.18,1.24,4.7,4.7,0,0,1,.99-.2A8.98,8.98,0,0,0,11.3,6h2.35a6.056,6.056,0,0,1,.32,1.4,4.065,4.065,0,0,1,.51.26A4.653,4.653,0,0,1,15,8,7.019,7.019,0,0,0,12.95,3.05ZM4.7,10H2.35a5.889,5.889,0,0,1,0-4H4.7A10.354,10.354,0,0,0,4.7,10Zm1.51,3.73A6.067,6.067,0,0,1,2.81,11H4.95A10.256,10.256,0,0,0,6.21,13.73ZM4.95,5H2.81a6.067,6.067,0,0,1,3.4-2.73A10.4,10.4,0,0,0,4.95,5ZM6,5A9.525,9.525,0,0,1,7.63,2.02C7.75,2.01,7.87,2,8,2s.25.01.37.02A9.327,9.327,0,0,1,10,5Zm5.05,0A10.577,10.577,0,0,0,9.79,2.27,6.067,6.067,0,0,1,13.19,5Z" />
    <path class="light-blue" d="M12,8a4,4,0,1,0,4,4A4,4,0,0,0,12,8Z" />
    <path class="white" d="M11.854,13.354l-1.5,1.5-.708-.708L10.793,13,9.646,11.854l.708-.708,1.5,1.5Zm2.5-1.208-.708.708-1.5-1.5v-.708l1.5-1.5.708.708L13.207,11Z" />
  </g>
</svg>
