<svg xmlns="http://www.w3.org/2000/svg" viewBox="0 0 16 16">
  <defs>
    <style>.canvas{fill: none; opacity: 0;}.light-defaultgrey-10{fill: #212121; opacity: 0.1;}.light-defaultgrey{fill: #212121; opacity: 1;}.light-blue-10{fill: #005dba; opacity: 0.1;}.light-defaultgrey-25{fill: #212121; opacity: 0.25;}.light-blue{fill: #005dba; opacity: 1;}.cls-1{opacity:0.75;}</style>
  </defs>
  <title>IconLightViewBottom</title>
  <g id="canvas">
    <path class="canvas" d="M16,0V16H0V0Z" />
  </g>
  <g id="level-1">
    <g class="cls-1">
      <path class="light-defaultgrey-10" d="M13.5,4.82v6.36l-.5-.29L8.5,8.29,8,8l-.5.29L3,10.89l-.5.29V4.82L8,1.65Z" />
      <path class="light-defaultgrey" d="M13.75,4.39,8.25,1.22h-.5L2.25,4.39,2,4.82v6.36l.25.43.25-.43.5-.29V5.69l4.5,2.6L8,8l.5.29L13,5.69v5.2l.5.29.25.43.25-.43V4.82ZM7.5,7.13l-4-2.31,4-2.31Zm1,0V2.51l4,2.31Z" />
    </g>
    <path class="light-blue-10" d="M13.5,11.175,8,14.351,2.5,11.175,8,8Z" />
    <path class="light-defaultgrey-25" d="M8.5,8v6.351h-1V8Z" />
    <path class="light-blue" d="M8.25,14.784h-.5l-5.5-3.176v-.866l5.5-3.175h.5l5.5,3.175v.866ZM3.5,11.175l4.5,2.6,4.5-2.6L8,8.577Z" />
  </g>
</svg>
