<svg xmlns="http://www.w3.org/2000/svg" viewBox="0 0 16 16">
  <defs>
    <style>.canvas{fill: none; opacity: 0;}.light-defaultgrey-10{fill: #212121; opacity: 0.1;}.light-defaultgrey{fill: #212121; opacity: 1;}.light-blue-10{fill: #005dba; opacity: 0.1;}.light-defaultgrey-25{fill: #212121; opacity: 0.25;}.light-blue{fill: #005dba; opacity: 1;}.cls-1{opacity:0.75;}</style>
  </defs>
  <title>IconLightViewLeft</title>
  <g id="canvas">
    <path class="canvas" d="M16,0V16H0V0Z" />
  </g>
  <g id="level-1">
    <g class="cls-1">
      <path class="light-defaultgrey-10" d="M13.5,4.82v6.36L8,14.35,2.5,11.18,8,8V1.65Z" />
      <path class="light-defaultgrey" d="M2,11.18l.25.43,5.5,3.17h.5l5.5-3.17.25-.43V4.82l-.25-.43L8.25,1.22h-.5L8,1.65V8L2.5,11.18Zm5.5,2.31-4-2.31,4-2.31ZM9,8l4-2.31v4.62Zm3.5,3.18-4,2.31V8.87Zm-4-8.67,4,2.31-4,2.31Z" />
    </g>
    <path class="light-blue-10" d="M8,1.649V8L2.5,11.175V4.825Z" />
    <path class="light-defaultgrey-25" d="M8.25,7.567l-.5.866L2.25,5.258l.5-.866Z" />
    <path class="light-blue" d="M2.75,11.608,2,11.175V4.825l.25-.433,5.5-3.176.75.433V8l-.25.433ZM3,5.113v5.2l4.5-2.6v-5.2Z" />
  </g>
</svg>
