<svg xmlns="http://www.w3.org/2000/svg" viewBox="0 0 16 16">
  <defs>
    <style>.canvas{fill: none; opacity: 0;}.light-defaultgrey-10{fill: #212121; opacity: 0.1;}.light-defaultgrey{fill: #212121; opacity: 1;}.light-green{fill: #1f801f; opacity: 1;}.white{fill: #ffffff; opacity: 1;}.cls-1{opacity:0.75;}</style>
  </defs>
  <title>IconLightVirtualMachineOK</title>
  <g id="canvas" class="canvas">
    <path class="canvas" d="M16,0V16H0V0Z" />
  </g>
  <g id="level-1">
    <path class="light-defaultgrey-10" d="M7.42,14a5.556,5.556,0,0,1-.32-1H4.5L4,12.5v-2H3l-2,4H7.68C7.59,14.34,7.5,14.17,7.42,14Z" />
    <path class="light-defaultgrey" d="M7.68,14.5c-.09-.16-.18-.33-.26-.5H1.81l1.5-3H4V10H3l-.45.28-2,4L1,15H8.02A3.387,3.387,0,0,1,7.68,14.5Z" />
    <path class="light-defaultgrey-10" d="M9.5,1.5h-4a1,1,0,0,0-1,1v10H7.03A4.07,4.07,0,0,1,7,12v-.02A4.591,4.591,0,0,1,7.1,11a4.575,4.575,0,0,1,.89-2,4.694,4.694,0,0,1,.99-1A5.009,5.009,0,0,1,10,7.39c.16-.07.33-.13.5-.19V2.5A1,1,0,0,0,9.5,1.5Z" />
    <path class="light-defaultgrey" d="M9.5,1h-4A1.5,1.5,0,0,0,4,2.5v10l.5.5H7.1a4.293,4.293,0,0,1-.07-.5A4.07,4.07,0,0,1,7,12H5V2.5A.5.5,0,0,1,5.5,2h4a.5.5,0,0,1,.5.5V7.39c.16-.07.33-.13.5-.19.17-.04.33-.09.5-.12V2.5A1.5,1.5,0,0,0,9.5,1Z" />
    <g class="cls-1">
      <path class="light-defaultgrey" d="M6,10v1H7.1a4.816,4.816,0,0,1,.3-1ZM6,8V9H7.99a4.694,4.694,0,0,1,.99-1ZM6,4V5H9V4Z" />
    </g>
    <path class="light-green" d="M16,11.979a4,4,0,1,1-4-4A4,4,0,0,1,16,11.979Z" />
    <path class="white" d="M14.208,11.15l-2.365,2.364-.711,0-1.34-1.372.715-.7.987,1.011L13.5,10.443Z" />
  </g>
</svg>
