<svg xmlns="http://www.w3.org/2000/svg" viewBox="0 0 16 16">
  <defs>
    <style>.canvas{fill: none; opacity: 0;}.light-defaultgrey-10{fill: #212121; opacity: 0.1;}.light-defaultgrey{fill: #212121; opacity: 1;}.cls-1{opacity:0.75;}</style>
  </defs>
  <title>IconLightVirtualMachineLibrary</title>
  <g id="canvas" class="canvas">
    <path class="canvas" d="M16,0V16H0V0Z" />
  </g>
  <g id="level-1">
    <path class="light-defaultgrey-10" d="M13,10.5H12v2l-.5.5h-.98l.33,1,.17.5H15Z" />
    <path class="light-defaultgrey" d="M13.45,10.28,13,10H12v1h.69l1.5,3H10.85l.17.5.1.31-.1.19H15l.45-.72Z" />
    <path class="light-defaultgrey-10" d="M10.5,1.5h-4a1,1,0,0,0-1,1V6.23L6,6.06l.94-.31,1.38.68L8.84,8l.34,1,.33,1,.34,1,.33,1,.17.5H11.5V2.5A1,1,0,0,0,10.5,1.5Z" />
    <path class="light-defaultgrey" d="M10.5,1h-4A1.5,1.5,0,0,0,5,2.5V6.08l.23.24.27-.09L6,6.06V2.5A.5.5,0,0,1,6.5,2h4a.5.5,0,0,1,.5.5V12h-.82l.17.5.17.5h.98l.5-.5V2.5A1.5,1.5,0,0,0,10.5,1Z" />
    <path class="light-defaultgrey-10" d="M9.559,14.891l-1.9.635L5.124,7.939l1.9-.634ZM4.5,15.5H.5v-8h4Z" />
    <g class="cls-1">
      <path class="light-defaultgrey" d="M9.51,10l.34,1H10V10ZM8.84,8l.34,1H10V8ZM7,4V5h3V4Z" />
    </g>
    <path class="light-defaultgrey" d="M7.5,7.146,6.862,6.83l-1.9.635h0L4.5,7H.5L0,7.5v8l.5.5h4l.5-.5V9.145l2.188,6.539L7.821,16l1.9-.635.315-.632ZM2,15H1V8H2Zm2,0H3V8H4Zm3.978-.107L5.757,8.255l.948-.318,2.221,6.639Z" />
  </g>
</svg>
