<svg xmlns="http://www.w3.org/2000/svg" viewBox="0 0 16 16">
  <defs>
    <style>.canvas{fill: none; opacity: 0;}.light-defaultgrey-10{fill: #212121; opacity: 0.1;}.light-defaultgrey{fill: #212121; opacity: 1;}</style>
  </defs>
  <title>IconLightVisibleBorders</title>
  <g id="canvas">
    <path class="canvas" d="M16,0V16H0V0Z" />
  </g>
  <g id="level-1">
    <path class="light-defaultgrey-10" d="M15,1.5v12l-.5.5H.5L0,13.5V1.5L.5,1h14Z" />
    <path class="light-defaultgrey" d="M14,13h1v.5l-.5.5H14Zm-4,1h1V13H10ZM4,14H5V13H4Zm8,0h1V13H12ZM8,14H9V13H8ZM6,14H7V13H6ZM2,14H3V13H2Zm-2-.5.5.5H1V13H0ZM0,6H1V5H0ZM0,4H1V3H0ZM0,8H1V7H0Zm0,4H1V11H0Zm0-2H1V9H0ZM0,1.5V2H1V1H.5ZM9,1H8V2H9Zm2,0H10V2h1ZM7,1H6V2H7ZM5,1H4V2H5Zm7,1h1V1H12ZM3,1H2V2H3ZM14.5,1H14V2h1V1.5ZM14,10h1V9H14Zm0-4h1V5H14Zm0-2h1V3H14Zm0,8h1V11H14Zm0-4h1V7H14ZM2,6H13V3H2Zm0,6H13V9H2ZM3,7H2V8H3ZM4,7V8H5V7ZM6,7V8H7V7ZM8,7V8H9V7Zm2,0V8h1V7Zm2,1h1V7H12Z" />
  </g>
</svg>
