<svg xmlns="http://www.w3.org/2000/svg" viewBox="0 0 16 16">
  <defs>
    <style>.canvas{fill: none; opacity: 0;}.light-defaultgrey{fill: #212121; opacity: 1;}.light-red{fill: #c50b17; opacity: 1;}.white{fill: #ffffff; opacity: 1;}</style>
  </defs>
  <title>VisualAidsDisabled</title>
  <g id="canvas">
    <path class="canvas" d="M16,16H0V0H16Z" />
  </g>
  <g id="level-1">
    <path class="light-defaultgrey" d="M2,4V5H3V4ZM2,6V7H3V6Zm0,4v1H3V10ZM2,8V9H3V8ZM8,2V3H9V2Zm2,0V3h1V2ZM2.5,2,2,2.5V3H3V2ZM4,2V3H5V2ZM6,2V3H7V2Zm6.9.39L2,13.29l.71.71L13.61,3.1ZM13,5V7.1a5.532,5.532,0,0,1,1,.31V5ZM5,13v1H7.41a5.532,5.532,0,0,1-.31-1Z" />
    <path class="light-red" d="M12,8a4,4,0,1,0,4,4A4,4,0,0,0,12,8Z" />
    <path class="white" d="M14,12.5H10v-1h4Z" />
  </g>
</svg>
