<svg xmlns="http://www.w3.org/2000/svg" viewBox="0 0 16 16">
  <defs>
    <style>.canvas{fill: none; opacity: 0;}.light-defaultgrey-10{fill: #212121; opacity: 0.1;}.light-defaultgrey{fill: #212121; opacity: 1;}.light-blue-10{fill: #005dba; opacity: 0.1;}.light-blue{fill: #005dba; opacity: 1;}.cls-1{opacity:0.75;}</style>
  </defs>
  <title>VisualStudioToolsAboutBox</title>
  <g id="canvas">
    <path class="canvas" d="M16,16H0V0H16Z" />
  </g>
  <g id="level-1">
    <g class="cls-1">
      <path class="light-defaultgrey-10" d="M1.5,5v5H2v.37l.83-.45L6,12.03V10H9v3h5.5V5Z" />
      <path class="light-defaultgrey" d="M14.5,5H1.5L1,5.5V10H2V6H14v7H9v1h5.5l.5-.5v-8Z" />
    </g>
    <path class="light-defaultgrey-10" d="M14,3V5H2V3Z" />
    <path class="light-defaultgrey" d="M14.5,6H1.5L1,5.5v-3L1.5,2h13l.5.5v3ZM2,5H14V3H2Z" />
    <path class="light-blue-10" d="M5.5,13.5l-3,2v-4Z" />
    <path class="light-blue" d="M2,11.5v4l.777.416,3-2v-.832l-3-2Zm1,.935L4.6,13.5,3,14.565ZM0,11H1v5H0Zm7,0v5H8V11Z" />
    <path class="light-defaultgrey" d="M9,7V8H3V7Z" />
  </g>
</svg>
