<svg xmlns="http://www.w3.org/2000/svg" viewBox="0 0 16 16">
  <defs>
    <style>.canvas{fill: none; opacity: 0;}.light-defaultgrey-10{fill: #212121; opacity: 0.1;}.light-defaultgrey{fill: #212121; opacity: 1;}.cls-1{opacity:0.75;}</style>
  </defs>
  <title>IconLightVocabularyFile</title>
  <g id="canvas">
    <path class="canvas" d="M16,16H0V0H16Z" />
  </g>
  <g id="level-1">
    <g class="cls-1">
      <path class="light-defaultgrey-10" d="M13.5,4.5v10H2.5V1.5h8Z" />
      <path class="light-defaultgrey" d="M13.854,4.146l-3-3L10.5,1h-8L2,1.5v13l.5.5h11l.5-.5V4.5ZM3,14V2h7V5h3v9Z" />
    </g>
    <path class="light-defaultgrey" d="M9.5,10a1.481,1.481,0,0,0-.75.208V8H8v5h.75v-.208A1.481,1.481,0,0,0,9.5,13a1.5,1.5,0,0,0,0-3Zm0,2.25a.75.75,0,1,1,.75-.75A.75.75,0,0,1,9.5,12.25ZM6.25,10v.208A1.481,1.481,0,0,0,5.5,10a1.5,1.5,0,0,0,0,3,1.481,1.481,0,0,0,.75-.208V13H7V10ZM5.5,12.25a.75.75,0,1,1,.75-.75A.75.75,0,0,1,5.5,12.25Z" />
  </g>
</svg>
