<svg xmlns="http://www.w3.org/2000/svg" viewBox="0 0 16 16">
  <defs>
    <style>.canvas{fill: none; opacity: 0;}.light-blue{fill: #005dba; opacity: 1;}.light-lightblue-10{fill: #0077a0; opacity: 0.1;}.light-lightblue{fill: #0077a0; opacity: 1;}</style>
  </defs>
  <title>WCFData</title>
  <g id="canvas">
    <path class="canvas" d="M16,16H0V0H16Z" />
  </g>
  <g id="level-1">
    <path class="light-blue" d="M15.35,7.15v.7l-2,2-.7-.7L13.79,8H9.75V7h4.04L12.65,5.85l.7-.7ZM9.5,3.97V5.2L12,2.71V4h1V1.5L12.5,1H10V2h1.29L9.48,3.82A.772.772,0,0,1,9.5,3.97ZM12,12.29,9.5,9.8v1.4L11.29,13H10v1h2.5l.5-.5V11H12Z" />
    <path class="light-lightblue-10" d="M9.5,3.97V12c0,.828-1.791,1.5-4,1.5s-4-.672-4-1.5V3.97c0-.828,1.791-1.5,4-1.5S9.5,3.142,9.5,3.97Z" />
    <path class="light-lightblue" d="M10,3.97c0-2.627-9-2.627-9,0H1V12c0,1.313,2.264,2,4.5,2s4.5-.687,4.5-2V3.97Zm-4.5-1c2.273,0,3.5.71,3.5,1s-1.227,1-3.5,1S2,4.26,2,3.97,3.227,2.97,5.5,2.97ZM9,12c0,.29-1.227,1-3.5,1S2,12.29,2,12V5.261H2a7.863,7.863,0,0,0,3.5.709A7.863,7.863,0,0,0,9,5.261H9Z" />
  </g>
</svg>
