<svg xmlns="http://www.w3.org/2000/svg" viewBox="0 0 16 16">
  <defs>
    <style>.canvas{fill: none; opacity: 0;}.light-defaultgrey-10{fill: #212121; opacity: 0.1;}.light-defaultgrey{fill: #212121; opacity: 1;}.light-blue-10{fill: #005dba; opacity: 0.1;}.light-blue{fill: #005dba; opacity: 1;}</style>
  </defs>
  <title>IconLightWebAdmin</title>
  <g id="canvas">
    <path class="canvas" d="M16,16H0V0H16Z" />
  </g>
  <g id="level-1">
    <path class="light-defaultgrey-10" d="M6.25,10.25A2.25,2.25,0,1,1,4,8,2.25,2.25,0,0,1,6.25,10.25ZM7.5,16a3.5,3.5,0,0,0-7,0Z" />
    <path class="light-defaultgrey" d="M2.25,10.25A1.75,1.75,0,1,1,4,12,1.752,1.752,0,0,1,2.25,10.25ZM5.7,12.394a2.75,2.75,0,1,0-3.4,0A4,4,0,0,0,0,16H1a3,3,0,0,1,6,0H8A4,4,0,0,0,5.7,12.394Z" />
    <path class="light-blue-10" d="M14.5,6A4.5,4.5,0,0,1,10,10.5a4.455,4.455,0,0,1-2.29-.646A3.74,3.74,0,0,0,5.587,6.865,4.563,4.563,0,0,1,5.5,6a4.5,4.5,0,0,1,9,0Z" />
    <path class="light-blue" d="M10,1A5.006,5.006,0,0,0,5,6a5,5,0,0,0,.068.674A3.742,3.742,0,0,1,6.981,8h.794a7.486,7.486,0,0,0,.712,1.7,3.84,3.84,0,0,1-.922-.553A3.714,3.714,0,0,1,7.75,10.25c0,.062-.01.122-.013.183A4.929,4.929,0,0,0,10,11,5,5,0,0,0,10,1Zm3.444,3H12.225a7.486,7.486,0,0,0-.712-1.7A4.011,4.011,0,0,1,13.444,4ZM9.891,2.011C9.928,2.01,9.963,2,10,2s.072.01.11.011A6.54,6.54,0,0,1,11.168,4H8.832A6.5,6.5,0,0,1,9.891,2.011ZM7.574,7H6.142A3.939,3.939,0,0,1,6,6a3.939,3.939,0,0,1,.142-1H7.574A7.583,7.583,0,0,0,7.5,6,7.583,7.583,0,0,0,7.574,7Zm.2-3H6.556A4.011,4.011,0,0,1,8.487,2.3,7.486,7.486,0,0,0,7.775,4Zm2.332,5.989c-.036,0-.07.011-.107.011s-.072-.01-.109-.011A6.5,6.5,0,0,1,8.832,8h2.336A6.5,6.5,0,0,1,10.107,9.989ZM11.412,7H8.588A6.419,6.419,0,0,1,8.5,6a6.419,6.419,0,0,1,.088-1h2.824A6.419,6.419,0,0,1,11.5,6,6.419,6.419,0,0,1,11.412,7Zm.1,2.7A7.534,7.534,0,0,0,12.226,8h1.218A4.011,4.011,0,0,1,11.513,9.7ZM12.426,7A7.583,7.583,0,0,0,12.5,6a7.583,7.583,0,0,0-.074-1h1.432A3.939,3.939,0,0,1,14,6a3.939,3.939,0,0,1-.142,1Z" />
  </g>
</svg>
