<svg xmlns="http://www.w3.org/2000/svg" viewBox="0 0 16 16">
  <defs>
    <style>.canvas{fill: none; opacity: 0;}.light-blue-10{fill: #005dba; opacity: 0.1;}.light-blue{fill: #005dba; opacity: 1;}.light-defaultgrey-10{fill: #212121; opacity: 0.1;}.light-defaultgrey{fill: #212121; opacity: 1;}.cls-1{fill:none;}</style>
  </defs>
  <title>IconLightWebAPI</title>
  <g id="canvas">
    <path class="cls-1" d="M16,16H0V0H16Z" />
    <path class="canvas" d="M16,16H0V0H16Z" />
  </g>
  <g id="level-1">
    <path class="light-blue-10" d="M14.5,8a6.42,6.42,0,0,1-5.542,6.413A2.963,2.963,0,0,0,9,14a3,3,0,0,0-3-3H2.243a6.381,6.381,0,0,1-.618-1.732A6.5,6.5,0,1,1,14.5,8Z" />
    <path class="light-blue" d="M12.947,3.053A6.989,6.989,0,0,0,1.705,11.03C2.134,10.987.767,11,10.01,11A9.467,9.467,0,0,1,8.9,13.27,3.535,3.535,0,0,1,9,14a3.054,3.054,0,0,1-.165.941A6.988,6.988,0,0,0,12.947,3.053ZM13.188,5H11.053A10.489,10.489,0,0,0,9.789,2.273,6.02,6.02,0,0,1,13.188,5ZM8.373,2.019A9.478,9.478,0,0,1,10.005,5H6A9.479,9.479,0,0,1,7.628,2.019,3.637,3.637,0,0,1,8.373,2.019ZM4.7,10H2.35a5.9,5.9,0,0,1,0-4H4.7A10.2,10.2,0,0,0,4.7,10Zm.246-5H2.812a6.025,6.025,0,0,1,3.4-2.727A10.522,10.522,0,0,0,4.946,5Zm.776,5a9.179,9.179,0,0,1,0-4h4.556a9.18,9.18,0,0,1,0,4Zm4.067,3.727A10.489,10.489,0,0,0,11.053,11h2.135A6.02,6.02,0,0,1,9.789,13.727ZM13.65,10H11.3a10.2,10.2,0,0,0,0-4h2.35A5.885,5.885,0,0,1,13.65,10Z" />
    <path class="light-defaultgrey-10" d="M7.5,14A1.5,1.5,0,1,1,6,12.5,1.5,1.5,0,0,1,7.5,14Z" />
    <path class="light-defaultgrey" d="M6,12a2,2,0,0,0-1.91,1.44H2.326a1.236,1.236,0,0,0-1.076-.652,1.25,1.25,0,1,0,1.126,1.774H4.09A2,2,0,1,0,6,12Zm0,3a1,1,0,1,1,1-1A1,1,0,0,1,6,15Z" />
  </g>
</svg>
