<svg xmlns="http://www.w3.org/2000/svg" viewBox="0 0 16 16">
  <defs>
    <style>.canvas{fill: none; opacity: 0;}.light-defaultgrey{fill: #212121; opacity: 1;}.light-blue-10{fill: #005dba; opacity: 0.1;}.light-blue{fill: #005dba; opacity: 1;}.cls-1{opacity:0.75;}</style>
  </defs>
  <title>IconLightWebBrowser</title>
  <g id="canvas" class="canvas">
    <path class="canvas" d="M16,16H0V0H16Z" />
  </g>
  <g id="level-1">
    <g class="cls-1">
      <path class="light-defaultgrey" d="M7.354,9.354l-5.5,5.5-.708-.708,5.5-5.5Z" />
    </g>
    <path class="light-blue-10" d="M14.5,6A4.5,4.5,0,1,1,10,1.5,4.5,4.5,0,0,1,14.5,6Z" />
    <path class="light-blue" d="M10,1a5,5,0,1,0,5,5A5.006,5.006,0,0,0,10,1Zm3.444,3H12.225a7.486,7.486,0,0,0-.712-1.7A4.011,4.011,0,0,1,13.444,4ZM14,6a3.939,3.939,0,0,1-.142,1H12.426A7.583,7.583,0,0,0,12.5,6a7.583,7.583,0,0,0-.074-1h1.432A3.939,3.939,0,0,1,14,6Zm-4,4c-.037,0-.072-.01-.109-.011A6.5,6.5,0,0,1,8.832,8h2.336a6.5,6.5,0,0,1-1.061,1.989C10.071,9.99,10.037,10,10,10Zm1.412-3H8.588A6.419,6.419,0,0,1,8.5,6a6.419,6.419,0,0,1,.088-1h2.824A6.419,6.419,0,0,1,11.5,6,6.419,6.419,0,0,1,11.412,7Zm-.244-3H8.832A6.5,6.5,0,0,1,9.891,2.011C9.928,2.01,9.963,2,10,2s.072.01.11.011A6.54,6.54,0,0,1,11.168,4ZM8.487,2.3A7.486,7.486,0,0,0,7.775,4H6.556A4.011,4.011,0,0,1,8.487,2.3ZM7.574,7H6.142A3.939,3.939,0,0,1,6,6a3.939,3.939,0,0,1,.142-1H7.574A7.583,7.583,0,0,0,7.5,6,7.583,7.583,0,0,0,7.574,7ZM6.556,8H7.775a7.486,7.486,0,0,0,.712,1.7A4.011,4.011,0,0,1,6.556,8Zm4.957,1.7A7.534,7.534,0,0,0,12.226,8h1.218A4.011,4.011,0,0,1,11.513,9.7Z" />
  </g>
</svg>
