<svg xmlns="http://www.w3.org/2000/svg" viewBox="0 0 16 16">
  <defs>
    <style>.canvas{fill: none; opacity: 0;}.light-blue-10{fill: #005dba; opacity: 0.1;}.light-blue{fill: #005dba; opacity: 1;}</style>
  </defs>
  <title>WebContract</title>
  <g id="canvas">
    <path class="canvas" d="M16,16H0V0H16Z" />
  </g>
  <g id="level-1">
    <path class="light-blue-10" d="M15.5,11A4.5,4.5,0,1,1,11,6.5,4.5,4.5,0,0,1,15.5,11Z" />
    <path class="light-blue" d="M11,6a5,5,0,1,0,5,5A5.006,5.006,0,0,0,11,6Zm3.444,3H13.225a7.486,7.486,0,0,0-.712-1.7A4.011,4.011,0,0,1,14.444,9ZM15,11a3.939,3.939,0,0,1-.142,1H13.426a7.583,7.583,0,0,0,.074-1,7.583,7.583,0,0,0-.074-1h1.432A3.939,3.939,0,0,1,15,11Zm-4,4c-.037,0-.072-.01-.109-.011A6.5,6.5,0,0,1,9.832,13h2.336a6.5,6.5,0,0,1-1.061,1.989C11.071,14.99,11.037,15,11,15Zm1.412-3H9.588A6.419,6.419,0,0,1,9.5,11a6.419,6.419,0,0,1,.088-1h2.824a6.419,6.419,0,0,1,.088,1A6.419,6.419,0,0,1,12.412,12Zm-.244-3H9.832a6.5,6.5,0,0,1,1.059-1.989C10.928,7.01,10.963,7,11,7s.072.01.11.011A6.54,6.54,0,0,1,12.168,9ZM9.487,7.3A7.486,7.486,0,0,0,8.775,9H7.556A4.011,4.011,0,0,1,9.487,7.3ZM8.574,12H7.142a3.592,3.592,0,0,1,0-2H8.574A7.583,7.583,0,0,0,8.5,11,7.583,7.583,0,0,0,8.574,12ZM7.556,13H8.775a7.486,7.486,0,0,0,.712,1.7A4.011,4.011,0,0,1,7.556,13Zm4.957,1.7a7.534,7.534,0,0,0,.713-1.7h1.218A4.011,4.011,0,0,1,12.513,14.7Z" />
    <path class="light-blue-10" d="M5.5,3.5a2,2,0,1,1-2-2A2,2,0,0,1,5.5,3.5Z" />
    <path class="light-blue" d="M8.1,7.4,5.585,4.878a2.5,2.5,0,1,0-.707.707L7.4,8.1ZM2,3.5A1.5,1.5,0,1,1,3.5,5,1.5,1.5,0,0,1,2,3.5Z" />
  </g>
</svg>
