<svg xmlns="http://www.w3.org/2000/svg" viewBox="0 0 16 16">
  <defs>
    <style>.canvas{fill: none; opacity: 0;}.light-blue-10{fill: #005dba; opacity: 0.1;}.light-blue{fill: #005dba; opacity: 1;}</style>
  </defs>
  <title>IconLightWebCustomControl</title>
  <g id="canvas">
    <path class="canvas" d="M16,16H0V0H16Z" />
  </g>
  <g id="level-1">
    <path class="light-blue-10" d="M9.5,6A4.5,4.5,0,1,1,5,1.5,4.5,4.5,0,0,1,9.5,6Z" />
    <path class="light-blue" d="M5,1a5,5,0,1,0,5,5A5.006,5.006,0,0,0,5,1ZM8.444,4H7.225a7.486,7.486,0,0,0-.712-1.7A4.011,4.011,0,0,1,8.444,4ZM9,6a3.939,3.939,0,0,1-.142,1H7.426A7.583,7.583,0,0,0,7.5,6a7.583,7.583,0,0,0-.074-1H8.858A3.939,3.939,0,0,1,9,6ZM5,10c-.037,0-.072-.01-.109-.011A6.5,6.5,0,0,1,3.832,8H6.168A6.5,6.5,0,0,1,5.107,9.989C5.071,9.99,5.037,10,5,10ZM6.412,7H3.588A6.419,6.419,0,0,1,3.5,6a6.419,6.419,0,0,1,.088-1H6.412A6.419,6.419,0,0,1,6.5,6,6.419,6.419,0,0,1,6.412,7ZM6.168,4H3.832A6.5,6.5,0,0,1,4.891,2.011C4.928,2.01,4.963,2,5,2s.072.01.11.011A6.54,6.54,0,0,1,6.168,4ZM3.487,2.3A7.486,7.486,0,0,0,2.775,4H1.556A4.011,4.011,0,0,1,3.487,2.3ZM2.574,7H1.142A3.939,3.939,0,0,1,1,6a3.939,3.939,0,0,1,.142-1H2.574A7.583,7.583,0,0,0,2.5,6,7.583,7.583,0,0,0,2.574,7ZM1.556,8H2.775a7.486,7.486,0,0,0,.712,1.7A4.011,4.011,0,0,1,1.556,8ZM6.513,9.7A7.534,7.534,0,0,0,7.226,8H8.444A4.011,4.011,0,0,1,6.513,9.7Z" />
    <path class="light-blue-10" d="M15.192,7.808,9.635,13.365,8.153,11.847l5.539-5.539a1.059,1.059,0,0,1,1.5,0A1.062,1.062,0,0,1,15.192,7.808Z" />
    <path class="light-blue" d="M15.543,5.957a1.562,1.562,0,0,0-2.2,0l-5.25,5.25L6.511,14.453l.675.674L10.181,13.5l5.365-5.336A1.562,1.562,0,0,0,15.543,5.957Zm-.7,1.5-5.2,5.2-.783-.8,5.19-5.189a.56.56,0,0,1,.792.793Z" />
  </g>
</svg>
