<svg xmlns="http://www.w3.org/2000/svg" viewBox="0 0 16 16">
  <defs>
    <style>.canvas{fill: none; opacity: 0;}.light-blue-10{fill: #005dba; opacity: 0.1;}.light-blue{fill: #005dba; opacity: 1;}.light-defaultgrey-10{fill: #212121; opacity: 0.1;}.light-defaultgrey{fill: #212121; opacity: 1;}</style>
  </defs>
  <title>WebCustomASCXControl</title>
  <g id="canvas">
    <path class="canvas" d="M16,16H0V0H16Z" />
  </g>
  <g id="level-1">
    <path class="light-blue-10" d="M8.505,11.5a4,4,0,1,1-4-4A4,4,0,0,1,8.505,11.5Z" />
    <path class="light-blue" d="M8.641,9.748a4.491,4.491,0,1,0-2.388,5.885A4.473,4.473,0,0,0,8.641,9.748ZM3.646,9.24a3.464,3.464,0,0,1,.265-.718,2.073,2.073,0,0,1,.422-.57.214.214,0,0,1,.335.008,3.118,3.118,0,0,1,.687,1.3A7,7,0,0,1,5.519,10H3.482C3.524,9.758,3.578,9.506,3.646,9.24ZM.914,11h1.6c0,.454-.023.629,0,1H.914A4.071,4.071,0,0,1,.914,11Zm.3,2H2.6a6.533,6.533,0,0,0,.508,1.842A3.6,3.6,0,0,1,1.211,12.994ZM2.788,9.053c-.079.317-.141.632-.188.944H1.211A3.608,3.608,0,0,1,3.123,8.148,4.159,4.159,0,0,0,2.788,9.053Zm2.239,5.526a1.306,1.306,0,0,1-.39.492.216.216,0,0,1-.132.046.321.321,0,0,1-.18-.078,1.459,1.459,0,0,1-.32-.382,4.14,4.14,0,0,1-.523-1.663H5.5A5.879,5.879,0,0,1,5.027,14.579Zm.6-3.083c-.013.221,0,.281-.015.5H3.388c-.009-.158-.007-.25-.007-.5.01-.157.007-.253.007-.5H5.613A3.683,3.683,0,0,1,5.628,11.5ZM7.8,10H6.4a6.506,6.506,0,0,0-.546-1.865A3.7,3.7,0,0,1,7.8,10ZM5.863,14.852a7.291,7.291,0,0,0,.53-1.858H7.8A3.592,3.592,0,0,1,5.863,14.852ZM8.1,12H6.487c.01-.313.008-.506.008-1H8.1A4.072,4.072,0,0,1,8.1,12Z" />
    <path class="light-defaultgrey-10" d="M10,7.5a3,3,0,1,1,3-3A3,3,0,0,1,10,7.5ZM14.5,12A4.494,4.494,0,0,0,10,7.5a4.612,4.612,0,0,0-1.49.25,2.786,2.786,0,0,1,.35.42,5.178,5.178,0,0,1,.7,1.18A5.322,5.322,0,0,1,9.97,12Z" />
    <path class="light-defaultgrey" d="M11.96,7.4A3.5,3.5,0,1,0,6.5,4.5a3.453,3.453,0,0,0,.9,2.33c0,.01,0,.01.01.02a4.764,4.764,0,0,1,1.1.9,2.786,2.786,0,0,1,.35.42A3.932,3.932,0,0,1,10,8a4,4,0,0,1,4,4h1A5.015,5.015,0,0,0,11.96,7.4ZM10,2A2.5,2.5,0,1,1,7.5,4.5,2.5,2.5,0,0,1,10,2Z" />
  </g>
</svg>
