<svg xmlns="http://www.w3.org/2000/svg" viewBox="0 0 16 16">
  <defs>
    <style>.canvas{fill: none; opacity: 0;}.light-blue-10{fill: #005dba; opacity: 0.1;}.light-blue{fill: #005dba; opacity: 1;}</style>
  </defs>
  <title>IconLightWebDestination</title>
  <g id="canvas">
    <path class="canvas" d="M16,16H0V0H16Z" />
  </g>
  <g id="level-1">
    <path class="light-blue-10" d="M10,14.5A4.5,4.5,0,1,1,14.5,10,4.5,4.5,0,0,1,10,14.5Z" />
    <path class="light-blue" d="M15,10a5,5,0,1,0-5,5A5.006,5.006,0,0,0,15,10Zm-3.487,3.7a7.486,7.486,0,0,0,.712-1.7h1.219A4.011,4.011,0,0,1,11.513,13.7ZM13.858,11H12.426a7.583,7.583,0,0,0,.074-1,7.583,7.583,0,0,0-.074-1h1.432a3.592,3.592,0,0,1,0,2ZM10.107,6.011A6.5,6.5,0,0,1,11.168,8H8.832A6.5,6.5,0,0,1,9.891,6.011C9.928,6.01,9.963,6,10,6S10.071,6.01,10.107,6.011ZM11.5,10a6.419,6.419,0,0,1-.088,1H8.588A6.419,6.419,0,0,1,8.5,10a6.419,6.419,0,0,1,.088-1h2.824A6.419,6.419,0,0,1,11.5,10Zm-1.39,3.989c-.038,0-.072.011-.11.011s-.072-.01-.109-.011A6.5,6.5,0,0,1,8.832,12h2.336A6.54,6.54,0,0,1,10.11,13.989ZM6.556,12H7.775a7.486,7.486,0,0,0,.712,1.7A4.011,4.011,0,0,1,6.556,12ZM7.5,10a7.583,7.583,0,0,0,.074,1H6.142a3.592,3.592,0,0,1,0-2H7.574A7.583,7.583,0,0,0,7.5,10Zm.987-3.7A7.486,7.486,0,0,0,7.775,8H6.556A4.011,4.011,0,0,1,8.487,6.3ZM13.444,8H12.226a7.534,7.534,0,0,0-.713-1.7A4.011,4.011,0,0,1,13.444,8Z" />
    <path class="light-blue" d="M4.6,6.1,3.9,5.4,5.3,4H0V3H5.291L3.9,1.6,4.6.9l2.25,2.25v.708Z" />
  </g>
</svg>
