<svg xmlns="http://www.w3.org/2000/svg" viewBox="0 0 16 16">
  <defs>
    <style>.canvas{fill: none; opacity: 0;}.light-blue-10{fill: #005dba; opacity: 0.1;}.light-blue{fill: #005dba; opacity: 1;}.light-defaultgrey-10{fill: #212121; opacity: 0.1;}.light-defaultgrey{fill: #212121; opacity: 1;}.cls-1{opacity:0.75;}</style>
  </defs>
  <title>IconLightWebFile</title>
  <g id="canvas">
    <path class="canvas" d="M16,16H0V0H16Z" />
  </g>
  <g id="level-1">
    <path class="light-blue-10" d="M8.5,11.5a4,4,0,1,1-4-4A4,4,0,0,1,8.5,11.5Z" />
    <path class="light-blue" d="M8.636,9.752a4.49,4.49,0,1,0-2.388,5.885A4.472,4.472,0,0,0,8.636,9.752ZM3.641,9.245a3.444,3.444,0,0,1,.266-.718,2.028,2.028,0,0,1,.421-.57.214.214,0,0,1,.336.008,3.131,3.131,0,0,1,.687,1.3A7.556,7.556,0,0,1,5.515,10H3.478C3.519,9.762,3.574,9.51,3.641,9.245ZM.91,11h1.6c0,.453-.023.628,0,1H.91A4.023,4.023,0,0,1,.91,11Zm.3,2H2.6A6.532,6.532,0,0,0,3.1,14.841,3.6,3.6,0,0,1,1.206,13ZM2.783,9.057c-.078.318-.14.632-.187.945H1.206a3.611,3.611,0,0,1,1.913-1.85A4.181,4.181,0,0,0,2.783,9.057Zm2.24,5.526a1.316,1.316,0,0,1-.39.492.22.22,0,0,1-.133.047.334.334,0,0,1-.18-.078A1.443,1.443,0,0,1,4,14.661,4.124,4.124,0,0,1,3.478,13H5.5A5.87,5.87,0,0,1,5.023,14.583Zm.6-3.083c-.014.222,0,.281-.016.5H3.384c-.01-.159-.008-.25-.008-.5.01-.157.008-.252.008-.5H5.608A3.636,3.636,0,0,1,5.624,11.5ZM7.794,10H6.4A6.546,6.546,0,0,0,5.85,8.136,3.7,3.7,0,0,1,7.794,10ZM5.858,14.856A7.3,7.3,0,0,0,6.389,13h1.4A3.592,3.592,0,0,1,5.858,14.856ZM8.09,12H6.482c.01-.314.008-.506.008-1h1.6A3.976,3.976,0,0,1,8.09,12Z" />
    <g class="cls-1">
      <path class="light-defaultgrey-10" d="M14.5,4.5v9H9.609a5.4,5.4,0,0,0-.054-4.146A5.52,5.52,0,0,0,4.505,6h0V1.5h7Z" />
      <path class="light-defaultgrey" d="M15,4.5v9l-.5.5H9.383a5.554,5.554,0,0,0,.4-1H14V5H11V2H5V6.037C4.836,6.022,4.673,6,4.505,6s-.336.036-.5.051V1.5L4.5,1h7l.354.146,3,3Z" />
    </g>
  </g>
</svg>
