<svg xmlns="http://www.w3.org/2000/svg" viewBox="0 0 16 16">
  <defs>
    <style>.canvas{fill: none; opacity: 0;}.light-blue-10{fill: #005dba; opacity: 0.1;}.light-blue{fill: #005dba; opacity: 1;}.light-defaultgrey-10{fill: #212121; opacity: 0.1;}.light-defaultgrey{fill: #212121; opacity: 1;}.light-lightblue-10{fill: #0077a0; opacity: 0.1;}.light-teal{fill: #006758; opacity: 1;}.cls-1{opacity:0.75;}</style>
  </defs>
  <title>IconLightWebLog</title>
  <g id="canvas">
    <path class="canvas" d="M16,16H0V0H16Z" />
  </g>
  <g id="level-1">
    <path class="light-blue-10" d="M8.5,11.5a4,4,0,1,1-4-4A4,4,0,0,1,8.5,11.5Z" />
    <path class="light-blue" d="M8.636,9.752a4.49,4.49,0,1,0-2.388,5.885A4.472,4.472,0,0,0,8.636,9.752ZM3.641,9.245a3.444,3.444,0,0,1,.266-.718,2.028,2.028,0,0,1,.421-.57.214.214,0,0,1,.336.008,3.131,3.131,0,0,1,.687,1.3A7.556,7.556,0,0,1,5.515,10H3.478C3.519,9.762,3.574,9.51,3.641,9.245ZM.91,11h1.6c0,.453-.023.628,0,1H.91A4.023,4.023,0,0,1,.91,11Zm.3,2H2.6A6.532,6.532,0,0,0,3.1,14.841,3.6,3.6,0,0,1,1.206,13ZM2.783,9.057c-.078.318-.14.632-.187.945H1.206a3.611,3.611,0,0,1,1.913-1.85A4.181,4.181,0,0,0,2.783,9.057Zm2.24,5.526a1.316,1.316,0,0,1-.39.492.22.22,0,0,1-.133.047.334.334,0,0,1-.18-.078A1.443,1.443,0,0,1,4,14.661,4.124,4.124,0,0,1,3.478,13H5.5A5.87,5.87,0,0,1,5.023,14.583Zm.6-3.083c-.014.222,0,.281-.016.5H3.384c-.01-.159-.008-.25-.008-.5.01-.157.008-.252.008-.5H5.608A3.636,3.636,0,0,1,5.624,11.5ZM7.794,10H6.4A6.546,6.546,0,0,0,5.85,8.136,3.7,3.7,0,0,1,7.794,10ZM5.858,14.856A7.3,7.3,0,0,0,6.389,13h1.4A3.592,3.592,0,0,1,5.858,14.856ZM8.09,12H6.482c.01-.314.008-.506.008-1h1.6A3.976,3.976,0,0,1,8.09,12Z" />
    <path class="light-defaultgrey-10" d="M14.5,1.5v13H9.09a5.436,5.436,0,0,0,.465-5.146A5.52,5.52,0,0,0,4.505,6a5.437,5.437,0,0,0-1,.1V1.5Z" />
    <path class="light-defaultgrey" d="M4,4V6H3V4ZM14.5,1H3.5L3,1.5V3H4V2H14V14H9.383a5.618,5.618,0,0,1-.667,1H14.5l.5-.5V1.5ZM3,6.241a5.3,5.3,0,0,1,1-.19A5.3,5.3,0,0,0,3,6.241Z" />
    <g class="cls-1">
      <path class="light-defaultgrey" d="M2,6.641V6H4.505a5.377,5.377,0,0,0-2.15.445C2.229,6.5,2.121,6.579,2,6.641ZM5,3H2V4H5Z" />
    </g>
    <g class="cls-1">
      <path class="light-lightblue-10" d="M12.5,5.5h-6v-2h6Z" />
      <path class="light-teal" d="M12.5,3h-6L6,3.5v2l.5.5h6l.5-.5v-2ZM12,5H7V4h5Z" />
    </g>
  </g>
</svg>
