<svg xmlns="http://www.w3.org/2000/svg" viewBox="0 0 16 16">
  <defs>
    <style>.canvas{fill: none; opacity: 0;}.light-blue-10{fill: #005dba; opacity: 0.1;}.light-blue{fill: #005dba; opacity: 1;}.light-purple-10{fill: #6936aa; opacity: 0.1;}.light-purple{fill: #6936aa; opacity: 1;}</style>
  </defs>
  <title>IconLightWebMethodAction</title>
  <g id="canvas">
    <path class="canvas" d="M16,16H0V0H16Z" />
  </g>
  <g id="level-1">
    <path class="light-blue-10" d="M8.5,11.5a4,4,0,1,1-4-4A4,4,0,0,1,8.5,11.5Z" />
    <path class="light-blue" d="M8.636,9.752a4.49,4.49,0,1,0-2.388,5.885A4.472,4.472,0,0,0,8.636,9.752ZM3.641,9.245a3.444,3.444,0,0,1,.266-.718,2.028,2.028,0,0,1,.421-.57.214.214,0,0,1,.336.008,3.131,3.131,0,0,1,.687,1.3A7.556,7.556,0,0,1,5.515,10H3.478C3.519,9.762,3.574,9.51,3.641,9.245ZM.91,11h1.6c0,.453-.023.628,0,1H.91A4.023,4.023,0,0,1,.91,11Zm.3,2H2.6A6.532,6.532,0,0,0,3.1,14.841,3.6,3.6,0,0,1,1.206,13ZM2.783,9.057c-.078.318-.14.632-.187.945H1.206a3.611,3.611,0,0,1,1.913-1.85A4.181,4.181,0,0,0,2.783,9.057Zm2.24,5.526a1.316,1.316,0,0,1-.39.492.22.22,0,0,1-.133.047.334.334,0,0,1-.18-.078A1.443,1.443,0,0,1,4,14.661,4.124,4.124,0,0,1,3.478,13H5.5A5.87,5.87,0,0,1,5.023,14.583Zm.6-3.083c-.014.222,0,.281-.016.5H3.384c-.01-.159-.008-.25-.008-.5.01-.157.008-.252.008-.5H5.608A3.636,3.636,0,0,1,5.624,11.5ZM7.794,10H6.4A6.546,6.546,0,0,0,5.85,8.136,3.7,3.7,0,0,1,7.794,10ZM5.858,14.856A7.3,7.3,0,0,0,6.389,13h1.4A3.592,3.592,0,0,1,5.858,14.856ZM8.09,12H6.482c.01-.314.008-.506.008-1h1.6A3.976,3.976,0,0,1,8.09,12Z" />
    <path class="light-blue" d="M1.146,3.854l.708-.708L3,4.293V1.5L3.5,1H6V2H4V4.293L5.146,3.146l.708.708-2,2H3.146Z" />
    <path class="light-blue" d="M15,10v2.5l-.5.5H11.707l1.147,1.146-.708.708-2-2v-.708l2-2,.708.708L11.707,12H14V10Z" />
    <path class="light-purple-10" d="M15.5,2.765V7.5l-4,2L8.892,8.2A5.51,5.51,0,0,0,7.5,6.894V2.765l4-2.333Z" />
    <path class="light-purple" d="M15.752,2.333,11.752,0h-.5l-4,2.333L7,2.765v3.84A5.515,5.515,0,0,1,9.4,9.013l1.875.938h.448l4-2L16,7.5V2.765ZM11,8.694l-3-1.5V3.865l3,1.5Zm.5-4.2L8.281,2.888,11.5,1.011l3.219,1.877Zm3.5,2.7-3,1.5V5.365l3-1.5Z" />
  </g>
</svg>
