<svg xmlns="http://www.w3.org/2000/svg" viewBox="0 0 16 16">
  <defs>
    <style>.canvas{fill: none; opacity: 0;}.light-defaultgrey-10{fill: #212121; opacity: 0.1;}.light-defaultgrey{fill: #212121; opacity: 1;}.light-blue-10{fill: #005dba; opacity: 0.1;}.light-blue{fill: #005dba; opacity: 1;}</style>
  </defs>
  <title>IconLightWebPart</title>
  <g id="canvas">
    <path class="canvas" d="M16,16H0V0H16Z" />
  </g>
  <g id="level-1">
    <path class="light-defaultgrey-10" d="M7.5,15.5H.5v-5h7Z" />
    <path class="light-defaultgrey" d="M4,14H2V12H4Zm2-2H5v2H6Z" />
    <path class="light-defaultgrey" d="M7.5,16H.5L0,15.5v-5L.5,10h7l.5.5v5ZM1,15H7V11H1Z" />
    <path class="light-blue-10" d="M14.5,8A6.415,6.415,0,0,1,9,14.406v-4.32L7.914,9H1.592A6.493,6.493,0,1,1,14.5,8Z" />
    <path class="light-blue" d="M12.947,3.053A6.979,6.979,0,0,0,1.089,9h1A5.835,5.835,0,0,1,2.35,6H4.7a10.209,10.209,0,0,0-.149,3H5.557A9.546,9.546,0,0,1,5.5,8a9.472,9.472,0,0,1,.222-2h4.556a9.12,9.12,0,0,1,0,4H8.914L9,10.086V11h1.01A9.486,9.486,0,0,1,9,13.105v1.807A6.983,6.983,0,0,0,12.947,3.053ZM4.946,5H2.812a6.025,6.025,0,0,1,3.4-2.727A10.522,10.522,0,0,0,4.946,5ZM6,5A9.479,9.479,0,0,1,7.628,2.019C7.752,2.011,7.874,2,8,2s.249.011.373.019A9.478,9.478,0,0,1,10.005,5ZM9.789,2.273A6.02,6.02,0,0,1,13.188,5H11.053A10.489,10.489,0,0,0,9.789,2.273Zm0,11.454A10.489,10.489,0,0,0,11.053,11h2.135A6.024,6.024,0,0,1,9.789,13.727ZM13.65,10H11.3a10.2,10.2,0,0,0,0-4h2.35A5.885,5.885,0,0,1,13.65,10Z" />
  </g>
</svg>
