<svg xmlns="http://www.w3.org/2000/svg" viewBox="0 0 16 16">
  <defs>
    <style>.canvas{fill: none; opacity: 0;}.light-defaultgrey{fill: #212121; opacity: 1;}.light-defaultgrey-10{fill: #212121; opacity: 0.1;}</style>
  </defs>
  <title>IconLightWebPartManager</title>
  <g id="canvas">
    <path class="canvas" d="M16,16H0V0H16Z" />
  </g>
  <g id="level-1">
    <path class="light-defaultgrey" d="M8,3H7V2H8Zm5,4h1V6H13ZM9,3h1V2H9Zm4.5-1H13V3h1V2.5ZM13,5h1V4H13Zm0,4h1V8H13ZM11,3h1V2H11ZM8,14H9V13H8ZM2,10H3V9H2Zm4,4H7V13H6Zm-4-.5.5.5H3V13H2ZM2,12H3V11H2ZM2,8H3V7H2Zm2,6H5V13H4Z" />
    <path class="light-defaultgrey-10" d="M4.5,4.5h-2v-2h2Z" />
    <path class="light-defaultgrey" d="M4.5,5h-2L2,4.5v-2L2.5,2h2l.5.5v2ZM3,4H4V3H3Z" />
    <path class="light-defaultgrey" d="M5.038,8.5a2.994,2.994,0,0,1,.253-1.795L7.282,8.7,8.7,7.282l-2-1.991a2.983,2.983,0,0,1,3.988,3.983L14,12.586v.707L13.293,14h-.707L9.274,10.688A2.98,2.98,0,0,1,5.038,8.5Z" />
  </g>
</svg>
