<svg xmlns="http://www.w3.org/2000/svg" viewBox="0 0 16 16">
  <defs>
    <style>.canvas{fill: none; opacity: 0;}.light-defaultgrey{fill: #212121; opacity: 1;}.light-blue-10{fill: #005dba; opacity: 0.1;}.light-blue{fill: #005dba; opacity: 1;}</style>
  </defs>
  <title>WebProperty</title>
  <g id="canvas">
    <path class="canvas" d="M16,16H0V0H16Z" />
  </g>
  <g id="level-1">
    <path class="light-defaultgrey" d="M.042,10.5A2.994,2.994,0,0,1,.3,8.705L2.286,10.7,3.7,9.282l-2-1.991a2.983,2.983,0,0,1,3.988,3.983L9,14.586v.707L8.3,16H7.59L4.278,12.688A2.98,2.98,0,0,1,.042,10.5Z" />
    <path class="light-blue-10" d="M14.5,8a6.5,6.5,0,0,1-4.013,6.005c-.159.066-.325.109-.488.162L6.852,11.021A3.96,3.96,0,0,0,7,10,4,4,0,0,0,3,6a3.961,3.961,0,0,0-1.237.215A6.479,6.479,0,0,1,2,5.513,6.5,6.5,0,0,1,14.5,8Z" />
    <path class="light-blue" d="M12.947,3.053a6.963,6.963,0,0,0-11.765,3.4,3.964,3.964,0,0,1,1.15-.389c.008-.022.01-.045.018-.067H4.7c-.024.12-.034.242-.054.363a3.946,3.946,0,0,1,.918.591A9.63,9.63,0,0,1,5.722,6h4.556a9.12,9.12,0,0,1,0,4H7a3.927,3.927,0,0,1-.143,1H10.01a9.465,9.465,0,0,1-1.034,2.144L10,14.172v.518a7.013,7.013,0,0,0,.675-.223A6.995,6.995,0,0,0,12.947,3.053ZM4.946,5H2.812a6.025,6.025,0,0,1,3.4-2.727A10.522,10.522,0,0,0,4.946,5ZM6,5A9.479,9.479,0,0,1,7.628,2.019C7.752,2.011,7.874,2,8,2s.249.011.373.019A9.478,9.478,0,0,1,10.005,5ZM9.789,2.273A6.02,6.02,0,0,1,13.188,5H11.053A10.489,10.489,0,0,0,9.789,2.273Zm0,11.454A10.489,10.489,0,0,0,11.053,11h2.135A6.02,6.02,0,0,1,9.789,13.727ZM13.65,10H11.3a10.2,10.2,0,0,0,0-4h2.35A5.885,5.885,0,0,1,13.65,10Z" />
  </g>
</svg>
