<svg xmlns="http://www.w3.org/2000/svg" viewBox="0 0 16 16">
  <defs>
    <style>.canvas{fill: none; opacity: 0;}.light-defaultgrey-10{fill: #212121; opacity: 0.1;}.light-defaultgrey{fill: #212121; opacity: 1;}.light-blue-10{fill: #005dba; opacity: 0.1;}.light-blue{fill: #005dba; opacity: 1;}</style>
  </defs>
  <title>WebScript</title>
  <g id="canvas">
    <path class="canvas" d="M16,16H0V0H16Z" />
  </g>
  <g id="level-1">
    <path class="light-defaultgrey-10" d="M14,2a1,1,0,0,0-1,1V4h2V3A1,1,0,0,0,14,2ZM7,2A1,1,0,0,0,6,3V5.09A5.99,5.99,0,0,1,11,11a1,1,0,0,0,1-1V3a2,2,0,0,1,.28-1Z" />
    <path class="light-defaultgrey" d="M14,1H7A2.006,2.006,0,0,0,5,3V5a5.47,5.47,0,0,1,1,.09V3A1,1,0,0,1,7,2h5.28A2,2,0,0,0,12,3v7a1,1,0,0,1-1,1,5.47,5.47,0,0,1-.09,1H11a2.006,2.006,0,0,0,2-2V5h2.5l.5-.5V3A2.006,2.006,0,0,0,14,1Zm1,3H13V3a1,1,0,0,1,2,0Z" />
    <path class="light-blue-10" d="M9.5,11A4.5,4.5,0,1,1,5,6.5,4.5,4.5,0,0,1,9.5,11Z" />
    <path class="light-blue" d="M5,6a5,5,0,1,0,5,5A5.006,5.006,0,0,0,5,6ZM8.444,9H7.225a7.486,7.486,0,0,0-.712-1.7A4.011,4.011,0,0,1,8.444,9ZM9,11a3.939,3.939,0,0,1-.142,1H7.426A7.583,7.583,0,0,0,7.5,11a7.583,7.583,0,0,0-.074-1H8.858A3.939,3.939,0,0,1,9,11ZM5,15c-.037,0-.072-.01-.109-.011A6.5,6.5,0,0,1,3.832,13H6.168a6.5,6.5,0,0,1-1.061,1.989C5.071,14.99,5.037,15,5,15Zm1.412-3H3.588A6.419,6.419,0,0,1,3.5,11a6.419,6.419,0,0,1,.088-1H6.412A6.419,6.419,0,0,1,6.5,11,6.419,6.419,0,0,1,6.412,12ZM6.168,9H3.832A6.5,6.5,0,0,1,4.891,7.011C4.928,7.01,4.963,7,5,7s.072.01.11.011A6.54,6.54,0,0,1,6.168,9ZM3.487,7.3A7.486,7.486,0,0,0,2.775,9H1.556A4.011,4.011,0,0,1,3.487,7.3ZM2.574,12H1.142a3.592,3.592,0,0,1,0-2H2.574A7.583,7.583,0,0,0,2.5,11,7.583,7.583,0,0,0,2.574,12ZM1.556,13H2.775a7.486,7.486,0,0,0,.712,1.7A4.011,4.011,0,0,1,1.556,13Zm4.957,1.7A7.534,7.534,0,0,0,7.226,13H8.444A4.011,4.011,0,0,1,6.513,14.7Z" />
  </g>
</svg>
