<svg xmlns="http://www.w3.org/2000/svg" viewBox="0 0 16 16">
  <defs>
    <style>.canvas{fill: none; opacity: 0;}.light-teal-10{fill: #006758; opacity: 0.1;}.light-defaultgrey-10{fill: #212121; opacity: 0.1;}.light-defaultgrey{fill: #212121; opacity: 1;}.light-teal{fill: #006758; opacity: 1;}.light-blue-10{fill: #005dba; opacity: 0.1;}.light-blue{fill: #005dba; opacity: 1;}</style>
  </defs>
  <title>IconLightWebTest</title>
  <g id="canvas">
    <path class="canvas" d="M16,16H0V0H16Z" />
  </g>
  <g id="level-1">
    <path class="light-teal-10" d="M10.6,13.962A1,1,0,0,1,9.76,15.5H4.24A1,1,0,0,1,3.4,13.962L4.33,12.5H9.67Z" />
    <path class="light-defaultgrey-10" d="M4.649,12,5.5,10.667V6.5h3v4.167L9.351,12Z" />
    <path class="light-defaultgrey" d="M5,7H4V6h6V7H9v3.521l1.091,1.709L9.67,12H8.757l-.679-1.063L8,10.667V7H6v3.667l-.078.27L5.243,12H4.33l-.421.23L5,10.521Z" />
    <path class="light-teal" d="M9.761,16H4.239a1.5,1.5,0,0,1-1.264-2.307l.933-1.463L4.33,12H9.67l.422.23.933,1.462A1.5,1.5,0,0,1,9.761,16ZM4.6,13l-.786,1.231A.5.5,0,0,0,4.239,15H9.761a.5.5,0,0,0,.421-.77L9.4,13Z" />
    <path class="light-blue-10" d="M15.5,6a4.494,4.494,0,0,1-5.384,4.411L10,10.229V8h1V5H6.62A4.5,4.5,0,0,1,15.5,6Z" />
    <path class="light-blue" d="M11,1A5.009,5.009,0,0,0,6.1,5h6.311A6.419,6.419,0,0,1,12.5,6a6.419,6.419,0,0,1-.088,1H11V8h1.168a6.5,6.5,0,0,1-1.061,1.989c-.036,0-.07.011-.107.011s-.072-.01-.109-.011A6.539,6.539,0,0,1,10,8.4v1.834l.458.716A4.829,4.829,0,0,0,11,11,5,5,0,0,0,11,1ZM8.775,4H7.556A4.011,4.011,0,0,1,9.487,2.3,7.486,7.486,0,0,0,8.775,4ZM9.832,4a6.5,6.5,0,0,1,1.059-1.989C10.928,2.01,10.963,2,11,2s.072.01.11.011A6.54,6.54,0,0,1,12.168,4Zm4.612,0H13.225a7.486,7.486,0,0,0-.712-1.7A4.011,4.011,0,0,1,14.444,4ZM12.513,9.7A7.534,7.534,0,0,0,13.226,8h1.218A4.011,4.011,0,0,1,12.513,9.7ZM13.426,7A7.583,7.583,0,0,0,13.5,6a7.583,7.583,0,0,0-.074-1h1.432A3.939,3.939,0,0,1,15,6a3.939,3.939,0,0,1-.142,1Z" />
  </g>
</svg>
