<svg xmlns="http://www.w3.org/2000/svg" viewBox="0 0 16 16">
  <defs>
    <style>.canvas{fill: none; opacity: 0;}.light-defaultgrey-10{fill: #212121; opacity: 0.1;}.light-defaultgrey{fill: #212121; opacity: 1;}</style>
  </defs>
  <title>IconLightWF</title>
  <g id="canvas">
    <path class="canvas" d="M16,16H0V0H16Z" />
  </g>
  <g id="level-1">
    <path class="light-defaultgrey-10" d="M.5,12.5h4v2H.5Zm10,0h4v2h-4Z" />
    <path class="light-defaultgrey-10" d="M10.5,8.5a3,3,0,1,1-3-3A3,3,0,0,1,10.5,8.5Z" />
    <path class="light-defaultgrey-10" d="M5.5,1.5h4v2h-4Z" />
    <path class="light-defaultgrey" d="M14.5,12H13V8.5L12.5,8H10.95A3.483,3.483,0,0,0,8,5.05V4H9.5l.5-.5v-2L9.5,1h-4L5,1.5v2l.5.5H7V5.05A3.483,3.483,0,0,0,4.05,8H2.5L2,8.5V12H.5l-.5.5v2l.5.5h4l.5-.5v-2L4.5,12H3V9H4.05a3.484,3.484,0,0,0,6.9,0H12v3H10.5l-.5.5v2l.5.5h4l.5-.5v-2ZM4,13v1H1V13ZM6,3V2H9V3Zm1.5,8A2.5,2.5,0,1,1,10,8.5,2.5,2.5,0,0,1,7.5,11ZM14,14H11V13h3Z" />
  </g>
</svg>
