<svg xmlns="http://www.w3.org/2000/svg" viewBox="0 0 16 16">
  <defs>
    <style>.canvas{fill: none; opacity: 0;}.light-defaultgrey-10{fill: #212121; opacity: 0.1;}.light-defaultgrey{fill: #212121; opacity: 1;}.cls-1{opacity:0.75;}</style>
  </defs>
  <title>Win32Application</title>
  <g id="canvas">
    <path class="canvas" d="M16,16H0V0H16Z" />
  </g>
  <g id="level-1">
    <g class="cls-1">
      <path class="light-defaultgrey-10" d="M14.5,4.5v9H1.5v-9Z" />
      <path class="light-defaultgrey" d="M14.5,4H1.5L1,4.5v9l.5.5h13l.5-.5v-9ZM14,13H2V5H14Z" />
    </g>
    <path class="light-defaultgrey" d="M14.5,5H1.5L1,4.5v-3L1.5,1h13l.5.5v3ZM2,4H14V2H2Z" />
    <path class="light-defaultgrey-10" d="M14.5,1.5v3H1.5v-3Z" />
    <path class="light-defaultgrey-10" d="M4.707,11.5,4.5,11.293V7.707L4.707,7.5H7.5V6.707L7.707,6.5h3.586l.207.207v3.586l-.207.207H8.5v.793l-.207.207Z" />
    <path class="light-defaultgrey" d="M4,7.5v4l.5.5h4l.5-.5V11h2.5l.5-.5v-4L11.5,6h-4L7,6.5V7H4.5ZM9,10V8h2v2ZM5,9H8v2H5Z" />
  </g>
</svg>
