<svg xmlns="http://www.w3.org/2000/svg" viewBox="0 0 16 16">
  <defs>
    <style>.canvas{fill: none; opacity: 0;}.light-defaultgrey-10{fill: #212121; opacity: 0.1;}.light-defaultgrey{fill: #212121; opacity: 1;}.light-teal{fill: #006758; opacity: 1;}.light-teal-10{fill: #006758; opacity: 0.1;}.cls-1{opacity:0.75;}</style>
  </defs>
  <title>IconLightWindowScreenshot</title>
  <g id="canvas">
    <path class="canvas" d="M16,16H0V0H16Z" />
  </g>
  <g id="level-1">
    <g class="cls-1">
      <path class="light-defaultgrey-10" d="M1.5,5V7H2.88l.7-.7L4.3,6H7.7l.72.3.7.7h2.79l.5.5h.09v.09l.5.5V13h1.5V5Z" />
      <path class="light-defaultgrey" d="M14.5,5H1.5L1,5.5V7H2V6H14v7H13v1h1.5l.5-.5v-8Z" />
    </g>
    <path class="light-defaultgrey-10" d="M2,3V5H14V3Z" />
    <path class="light-defaultgrey" d="M14.5,2H1.5L1,2.5v3l.5.5h13l.5-.5v-3ZM2,5V3H14V5Z" />
    <path class="light-defaultgrey-10" d="M11.5,15.5H.5v-7H3.744l.756-1h3l1,1h3Z" />
    <path class="light-defaultgrey" d="M11.5,16H.5L0,15.5v-7L.5,8H3.293l.853-.854L4.5,7h3l.354.146L8.707,8H11.5l.5.5v7ZM1,15H11V9H8.5l-.354-.146L7.293,8H4.707l-.853.854L3.5,9H1Z" />
    <path class="light-teal" d="M3,11H2V10H3Z" />
    <path class="light-teal-10" d="M8,12a2,2,0,1,1-2-2A2,2,0,0,1,8,12Z" />
    <path class="light-teal" d="M6,14.5A2.5,2.5,0,1,1,8.5,12,2.5,2.5,0,0,1,6,14.5Zm0-4A1.5,1.5,0,1,0,7.5,12,1.5,1.5,0,0,0,6,10.5Z" />
  </g>
</svg>
