<svg xmlns="http://www.w3.org/2000/svg" viewBox="0 0 16 16">
  <defs>
    <style>.canvas{fill: none; opacity: 0;}.light-defaultgrey-10{fill: #212121; opacity: 0.1;}.light-defaultgrey{fill: #212121; opacity: 1;}</style>
  </defs>
  <title>WindowsFormLibrary</title>
  <g id="canvas">
    <path class="canvas" d="M16,0V16H0V0Z" />
  </g>
  <g id="level-1">
    <path class="light-defaultgrey-10" d="M.5,9.5h8v6H.5Z" />
    <path class="light-defaultgrey" d="M8.5,9H.5L0,9.5v6l.5.5h8l.5-.5v-6ZM8,15H1V11H8Z" />
    <path class="light-defaultgrey-10" d="M12.54,2.38l-1.93.52,2.85,10.62L15.39,13Z" />
    <path class="light-defaultgrey-10" d="M2.5,2.5V8h2V2.5Z" />
    <path class="light-defaultgrey-10" d="M6.5,2.5V8h2V2.5Z" />
    <path class="light-defaultgrey" d="M13.03,2.25l-.62-.35-1.93.51-.35.62,2.84,10.62.62.35,1.93-.51.35-.62Zm.78,10.66L11.22,3.25l.97-.26,2.59,9.66Z" />
    <path class="light-defaultgrey" d="M4.5,2h-2L2,2.5V8H3V3H4V8H5V2.5Z" />
    <path class="light-defaultgrey" d="M8.5,2h-2L6,2.5V8H7V3H8V8h.91L9,8.09V2.5Z" />
  </g>
</svg>
