<svg xmlns="http://www.w3.org/2000/svg" viewBox="0 0 16 16">
  <defs>
    <style>.canvas{fill: none; opacity: 0;}.light-defaultgrey{fill: #212121; opacity: 1;}.light-defaultgrey-10{fill: #212121; opacity: 0.1;}.light-defaultgrey-25{fill: #212121; opacity: 0.25;}</style>
  </defs>
  <title>IconLightWireframeView</title>
  <g id="canvas">
    <path class="canvas" d="M16,16H0V0H16Z" />
  </g>
  <g id="level-1">
    <path class="light-defaultgrey" d="M7.5,16C4.851,16,2,15.374,2,14V3H3V14c.076.27,1.576,1,4.5,1s4.424-.73,4.5-1.008V3h1V14C13,15.374,10.149,16,7.5,16Z" />
    <path class="light-defaultgrey" d="M8,15H7V4H8ZM5,4H4V15H5Zm6,0H10V15h1Z" />
    <path class="light-defaultgrey" d="M7.5,5C4.851,5,2,4.374,2,3S4.851,1,7.5,1,13,1.626,13,3,10.149,5,7.5,5Zm0-3C4.576,2,3.076,2.73,3,3.008,3.076,3.27,4.576,4,7.5,4c2.9,0,4.4-.717,4.5-1C11.9,2.717,10.4,2,7.5,2Z" />
    <path class="light-defaultgrey-10" d="M3,3.009v0C3.08,2.728,4.579,2,7.5,2c2.9,0,4.4.717,4.5,1-.1.283-1.6,1-4.5,1C4.579,4,3.08,3.272,3,3.009Z" />
    <path class="light-defaultgrey-25" d="M12,4.214A11.051,11.051,0,0,1,7.5,5,11.051,11.051,0,0,1,3,4.214V14c.076.27,1.576,1,4.5,1s4.424-.73,4.5-1.008Z" />
  </g>
</svg>
