<svg xmlns="http://www.w3.org/2000/svg" viewBox="0 0 16 16">
  <defs>
    <style>.canvas{fill: none; opacity: 0;}.light-defaultgrey-10{fill: #212121; opacity: 0.1;}.light-defaultgrey{fill: #212121; opacity: 1;}.cls-1{opacity:0.75;}</style>
  </defs>
  <title>IconLightWorkerServiceFile</title>
  <g id="canvas">
    <path class="canvas" d="M16,16H0V0H16Z" />
  </g>
  <g id="level-1">
    <g class="cls-1">
      <path class="light-defaultgrey-10" d="M14.5,3.5v10H3.5V11H6V8H5V7H6V4H3.5V.5h8Z" />
      <path class="light-defaultgrey" d="M15,4.5v10l-.5.5H3.5L3,14.5V12H4v2H14V5H11V2H4V5H3V1.5L3.5,1h8l.354.146,3,3Z" />
    </g>
    <path class="light-defaultgrey" d="M5,6V7H2V6ZM4,8H0V9H4ZM2,11H5V10H2Z" />
  </g>
</svg>
