<svg xmlns="http://www.w3.org/2000/svg" viewBox="0 0 16 16">
  <defs>
    <style>.canvas{fill: none; opacity: 0;}.light-blue-10{fill: #005dba; opacity: 0.1;}.light-blue{fill: #005dba; opacity: 1;}.light-defaultgrey-10{fill: #212121; opacity: 0.1;}.light-defaultgrey{fill: #212121; opacity: 1;}</style>
  </defs>
  <title>IconLightWorkAsSomeoneElse</title>
  <g id="canvas">
    <path class="canvas" d="M16,16H0V0H16Z" />
  </g>
  <g id="level-1">
    <path class="light-blue-10" d="M6,11.5A2.25,2.25,0,1,1,8.25,9.25,2.25,2.25,0,0,1,6,11.5Zm0,0A3.5,3.5,0,0,0,2.5,15h7A3.5,3.5,0,0,0,6,11.5Z" />
    <path class="light-blue" d="M7.7,11.394a2.75,2.75,0,1,0-3.4,0A4,4,0,0,0,2,15H3a3,3,0,0,1,6,0h1A4,4,0,0,0,7.7,11.394ZM4.25,9.25A1.75,1.75,0,1,1,6,11,1.752,1.752,0,0,1,4.25,9.25Z" />
    <path class="light-defaultgrey-10" d="M8.809,6.791A3.434,3.434,0,0,1,11,6a3.5,3.5,0,0,1,3.5,3.5H9.733c0-.083.017-.166.017-.25A3.72,3.72,0,0,0,8.809,6.791ZM11,6A2.25,2.25,0,1,0,8.75,3.75,2.25,2.25,0,0,0,11,6Z" />
    <path class="light-defaultgrey" d="M12.7,5.894a2.75,2.75,0,1,0-3.4,0,3.9,3.9,0,0,0-.845.544,3.7,3.7,0,0,1,.679.762A2.9,2.9,0,0,1,11,6.5a3,3,0,0,1,3,3h1A4,4,0,0,0,12.7,5.894ZM11,5.5a1.75,1.75,0,1,1,1.75-1.75A1.752,1.752,0,0,1,11,5.5Z" />
  </g>
</svg>
