<svg xmlns="http://www.w3.org/2000/svg" viewBox="0 0 16 16">
  <defs>
    <style>.canvas{fill: none; opacity: 0;}.light-defaultgrey-10{fill: #212121; opacity: 0.1;}.light-defaultgrey{fill: #212121; opacity: 1;}.light-yellow-10{fill: #996f00; opacity: 0.1;}.light-green{fill: #1f801f; opacity: 1;}.light-yellow{fill: #996f00; opacity: 1;}.cls-1{opacity:0.75;}</style>
  </defs>
  <title>IconLightWorkItemQuery</title>
  <g id="canvas">
    <path class="canvas" d="M16,0V16H0V0Z" />
  </g>
  <g id="level-1">
    <g class="cls-1">
      <path class="light-defaultgrey-10" d="M9.5,12.5h-3v3H.5v-4h3v-3h6Z" />
      <path class="light-defaultgrey-10" d="M9.58,6H6.5V3.5h7.914L12.54,5.374,11.373,4.208Zm3.728,2.849H11.772L11,8.076V12.5h3.5V7.656Z" />
      <path class="light-defaultgrey" d="M9.5,7h-6L3,7.5V10H.5l-.5.5v5l.5.5h6l.5-.5V13H9.5l.5-.5v-5ZM6,15H1V12H3v.5l.5.5H6Zm0-3H4V11H6Zm3,0H7V10.5L6.5,10H4V9H9Z" />
      <path class="light-defaultgrey" d="M15,7.156V12.5l-.5.5H10.914L11,12.914V12h3V8.156Zm-.293-3.949L14.5,3h-8L6,3.5V6H7V4h6.914Z" />
    </g>
    <path class="light-yellow-10" d="M6.5,10.5v2h-3v-2Z" />
    <path class="light-defaultgrey" d="M14,3.914V2H12.5a2,2,0,0,0-4,0H7V4h6.914ZM10.5,3a1,1,0,1,1,1-1A1,1,0,0,1,10.5,3Z" />
    <path class="light-green" d="M15.871,4.871,12.894,7.849h-.707L10.666,6.328l.707-.707L12.54,6.788l2.624-2.624Z" />
    <path class="light-yellow" d="M7,12.5v-2L6.5,10h-3l-.5.5v2l.5.5h3ZM4,11H6v1H4Z" />
  </g>
</svg>
