<svg xmlns="http://www.w3.org/2000/svg" viewBox="0 0 16 16">
  <defs>
    <style>.canvas{fill: none; opacity: 0;}.light-blue{fill: #005dba; opacity: 1;}.light-defaultgrey-10{fill: #212121; opacity: 0.1;}.light-defaultgrey{fill: #212121; opacity: 1;}.light-green-10{fill: #1f801f; opacity: 0.1;}.light-green{fill: #1f801f; opacity: 1;}.cls-1{opacity:0.75;}</style>
  </defs>
  <title>IconLightWorkflowInitiationForm</title>
  <g id="canvas" class="canvas">
    <path class="canvas" d="M16,16H0V0H16Z" />
  </g>
  <g id="level-1">
    <path class="light-blue" d="M3.5,9A3.5,3.5,0,0,1,6,10.06V9H7v2.5l-.5.5H4V11H5.5a2.5,2.5,0,1,0,.167,2.75l.865.5A3.5,3.5,0,1,1,3.5,9Z" />
    <g class="cls-1">
      <path class="light-defaultgrey-10" d="M13,5v9H7.832l.065-.113L6.366,13h.548L8,11.914V8H5v.263A4.443,4.443,0,0,0,3.5,8,4.488,4.488,0,0,0,2,8.257V8L9.016,4l-3.5-2H10V5Z" />
      <path class="light-defaultgrey" d="M13.854,4.146l-3-3L10.5,1H3.766l1.75,1H10V5h3v9H7.832l-.435.752c-.05.087-.111.165-.167.248H13.5l.5-.5V4.5Z" />
    </g>
    <path class="light-green-10" d="M6,4,.5,7V1Z" />
    <path class="light-green" d="M0,0V8L7,4ZM1,1.723,4.984,4,1,6.277Z" />
  </g>
</svg>
