<svg xmlns="http://www.w3.org/2000/svg" viewBox="0 0 16 16">
  <defs>
    <style>.canvas{fill: none; opacity: 0;}.light-blue{fill: #005dba; opacity: 1;}.light-defaultgrey{fill: #212121; opacity: 1;}.light-defaultgrey-10{fill: #212121; opacity: 0.1;}.cls-1{opacity:0.75;}</style>
  </defs>
  <title>WPFFlowFile</title>
  <g id="canvas">
    <path class="canvas" d="M16,16H0V0H16Z" />
  </g>
  <g id="level-1">
    <path class="light-blue" d="M7,12v3H4V12Z" />
    <path class="light-defaultgrey" d="M10.854,13.146v.708l-2,2-.708-.708L9.793,13.5,8.146,11.854l.708-.708Zm-8.708-2-2,2v.708l2,2,.708-.708L1.207,13.5l1.647-1.646Z" />
    <g class="cls-1">
      <path class="light-defaultgrey-10" d="M13.5,4.5v10H11.621l.233-.232V12.732l-3-3L7.586,11H3.414L2.5,10.086V1.5h8Z" />
      <path class="light-defaultgrey" d="M14,4.5v10l-.5.5H11.121l.733-.732V14H13V5H10V2H3v8.586l-1-1V1.5L2.5,1h8l.354.146,3,3Z" />
    </g>
    <path class="light-blue" d="M10.854,7.146v.708l-2,2-.708-.708L9.293,8H5.5L5,7.5v-3L5.5,4H7V5H6V7H9.293L8.146,5.854l.708-.708Z" />
  </g>
</svg>
