<svg xmlns="http://www.w3.org/2000/svg" viewBox="0 0 16 16">
  <defs>
    <style>.canvas{fill: none; opacity: 0;}.light-defaultgrey-10{fill: #212121; opacity: 0.1;}.light-blue{fill: #005dba; opacity: 1;}.light-defaultgrey{fill: #212121; opacity: 1;}</style>
  </defs>
  <title>IconLightWriteBackPartition</title>
  <g id="canvas" class="canvas">
    <path class="canvas" d="M16,16H0V0H16Z" />
  </g>
  <g id="level-1">
    <path class="light-defaultgrey-10" d="M12,4.268V8.732L6.5,12.4,3.055,10.1,7.328,5.828A3.971,3.971,0,0,0,8.5,3a4,4,0,0,0-.2-1.2Z" />
    <path class="light-blue" d="M6.621.879a3,3,0,0,0-4.242,0L1,2.257V0H0V3.5L.5,4H4V3H1.672L3.086,1.586h0A2,2,0,0,1,5.914,4.414L1.672,8.657l.707.707L6.621,5.121h0A3,3,0,0,0,6.621.879Z" />
    <path class="light-defaultgrey" d="M15.777,6.185l-1.5-1h-.554L12.5,6V4.268l-.223-.416-4-2.667H8.046A3.918,3.918,0,0,1,8.451,2.5L11.1,4.268,6.5,7.334l-.406-.271-.721.721L6,8.2v3.263L3.415,9.742l-.721.721,3.529,2.352h.555L8,12v1.732l.223.416,1.5,1h.555l5.5-3.667L16,11.065V6.6ZM11.5,6.666,8.223,8.852,8,9.268V10.8l-1,.667V8.2l4.5-3Z" />
  </g>
</svg>
