<svg xmlns="http://www.w3.org/2000/svg" viewBox="0 0 16 16">
  <defs>
    <style>.canvas{fill: none; opacity: 0;}.light-defaultgrey-10{fill: #212121; opacity: 0.1;}.light-defaultgrey{fill: #212121; opacity: 1;}.light-blue-10{fill: #005dba; opacity: 0.1;}.light-blue{fill: #005dba; opacity: 1;}.cls-1{opacity:0.75;}</style>
  </defs>
  <title>IconLightWriteToHistory</title>
  <g id="canvas" class="canvas">
    <path class="canvas" d="M16,16H0V0H16Z" />
  </g>
  <g id="level-1">
    <g class="cls-1">
      <path class="light-defaultgrey-10" d="M10.5,3.5v-2h-5v2h-2v2h3v2h2v2.75l4-4V3.5Z" />
      <path class="light-defaultgrey" d="M12.89,3.47,10.53,1.11,10.25,1H5.39L5,1.39V3H3.39L3,3.39V5.5H4V4H8V6h2V8.75l1-1v-2l-.11-.28L8.53,3.11,8.25,3H6V2h4V4h2V6.75l.63-.63a2.114,2.114,0,0,1,.37-.3V3.75Z" />
    </g>
    <path class="light-defaultgrey-10" d="M6.5,7.5v-2h-5v9H5.8l.24-.5,1.22-2.51L8.5,10.25V7.5Z" />
    <path class="light-defaultgrey" d="M8.89,7.47,6.53,5.11,6.25,5H1.39L1,5.39v9.22l.39.39H5.56l.48-1H2V6H6V8H8v2.75l1-1v-2Z" />
    <path class="light-blue-10" d="M15.192,8.681,9.635,14.238,8.153,12.72l5.539-5.539a1.059,1.059,0,0,1,1.5,0A1.062,1.062,0,0,1,15.192,8.681Z" />
    <path class="light-blue" d="M15.543,6.83a1.56,1.56,0,0,0-2.2,0l-5.25,5.25L6.511,15.326,7.186,16l2.995-1.629,5.365-5.336A1.562,1.562,0,0,0,15.543,6.83Zm-.7,1.5-5.2,5.2-.783-.8,5.19-5.189a.56.56,0,0,1,.792.793Z" />
  </g>
</svg>
