<svg xmlns="http://www.w3.org/2000/svg" viewBox="0 0 16 16">
  <defs>
    <style>.canvas{fill: none; opacity: 0;}.light-blue-10{fill: #005dba; opacity: 0.1;}.light-blue{fill: #005dba; opacity: 1;}.light-defaultgrey-10{fill: #212121; opacity: 0.1;}.light-defaultgrey{fill: #212121; opacity: 1;}</style>
  </defs>
  <title>IconLightWWAProject</title>
  <g id="canvas">
    <path class="canvas" d="M16,16H0V0H16Z" />
  </g>
  <g id="level-1">
    <path class="light-blue-10" d="M10,1.5A4.5,4.5,0,0,0,5.5,6a4.714,4.714,0,0,0,.11,1h5.3L12,8.09v1.94A4.5,4.5,0,0,0,10,1.5Z" />
    <path class="light-blue" d="M10,1A5.008,5.008,0,0,0,5,6a4.712,4.712,0,0,0,.1,1H6.15A3.664,3.664,0,0,1,6,6a3.664,3.664,0,0,1,.15-1H7.58a6.29,6.29,0,0,0,0,2H8.59A6.638,6.638,0,0,1,8.5,6a6.638,6.638,0,0,1,.09-1h2.83a6.29,6.29,0,0,1,0,2h-.51L12,8.09v.59A5.438,5.438,0,0,0,12.23,8h1.22A3.982,3.982,0,0,1,12,9.46v1.13A5,5,0,0,0,10,1ZM7.78,4H6.56A4,4,0,0,1,8.49,2.3,7.649,7.649,0,0,0,7.78,4ZM8.84,4A6.368,6.368,0,0,1,9.9,2.01c.03,0,.07-.01.1-.01s.08.01.11.01A6.368,6.368,0,0,1,11.17,4Zm2.68-1.7A4,4,0,0,1,13.45,4H12.23A7.649,7.649,0,0,0,11.52,2.3ZM12.43,7a8.258,8.258,0,0,0,.07-1,8.258,8.258,0,0,0-.07-1h1.43a3.641,3.641,0,0,1,0,2Z" />
    <path class="light-defaultgrey-10" d="M9.5,8.5v7H.5v-7Z" />
    <path class="light-defaultgrey" d="M10.5,11.5,11,11V8.5L10.5,8H.5L0,8.5v7l.5.5h10l.5-.5v-2l-.5-.5H10V11.5ZM1,9H9v6H1Z" />
  </g>
</svg>
