<svg xmlns="http://www.w3.org/2000/svg" viewBox="0 0 16 16">
  <defs>
    <style>.canvas{fill: none; opacity: 0;}.light-green{fill: #1f801f; opacity: 1;}.white{fill: #ffffff; opacity: 1;}.light-defaultgrey{fill: #212121; opacity: 1;}</style>
  </defs>
  <title>IconLightXamlBindingOK</title>
  <g id="canvas" class="canvas">
    <path class="canvas" d="M16,16H0V0H16Z" />
  </g>
  <g id="level-1">
    <path class="light-green" d="M12,8A4,4,0,1,1,8,4,4,4,0,0,1,12,8Z" />
    <path class="white" d="M10.208,7.171,7.843,9.536l-.711,0L5.792,8.16l.715-.7.987,1.011L9.5,6.464Z" />
    <path class="light-defaultgrey" d="M3.9,2,4,2v.9l-.092,0a.943.943,0,0,0-.745.332,1.784,1.784,0,0,0-.229,1.025V6.23A1.741,1.741,0,0,1,2.05,8.016c.57.2.887.819.887,1.8v1.89a3.491,3.491,0,0,0,.053.646,1.072,1.072,0,0,0,.165.417.7.7,0,0,0,.289.24,1.256,1.256,0,0,0,.464.088l.1,0V14l-.1,0a2.082,2.082,0,0,1-1.479-.538,2.191,2.191,0,0,1-.5-1.577v-2a1.948,1.948,0,0,0-.249-1.079A.913.913,0,0,0,.967,8.4L.878,8.39V7.61L.966,7.6c.644-.07.958-.541.958-1.438V4.132a2.21,2.21,0,0,1,.5-1.586A2.065,2.065,0,0,1,3.9,2ZM15.034,7.6c-.64-.063-.951-.533-.951-1.438V4.132a2.209,2.209,0,0,0-.5-1.591A2.074,2.074,0,0,0,12.1,2L12,2v.9l.093,0A1.357,1.357,0,0,1,12.534,3a.681.681,0,0,1,.29.218,1.156,1.156,0,0,1,.181.408,2.779,2.779,0,0,1,.064.644V6.23c0,.95.319,1.559.892,1.754a1.8,1.8,0,0,0-.892,1.833v1.89a3.181,3.181,0,0,1-.061.675,1.069,1.069,0,0,1-.177.416.683.683,0,0,1-.29.219,1.3,1.3,0,0,1-.443.081l-.1,0V14l.1,0a2.074,2.074,0,0,0,1.478-.538,2.188,2.188,0,0,0,.5-1.577v-2c0-.929.311-1.415.951-1.485l.088-.009V7.609Z" />
  </g>
</svg>
