<svg xmlns="http://www.w3.org/2000/svg" viewBox="0 0 16 16">
  <defs>
    <style>.canvas{fill: none; opacity: 0;}.light-defaultgrey{fill: #212121; opacity: 1;}.light-defaultgrey-10{fill: #212121; opacity: 0.1;}</style>
  </defs>
  <title>IconLightXMLCommentTag</title>
  <g id="canvas" class="canvas">
    <path class="canvas" d="M16,16H0V0H16Z" />
  </g>
  <g id="level-1">
    <path class="light-defaultgrey" d="M15,15H1.5L1,14.5V2.5L1.5,2H15V3H2V14H15Z" />
    <path class="light-defaultgrey-10" d="M15,14.5H1.5V2.5H15Z" />
    <path class="light-defaultgrey" d="M8.5,12.25a.75.75,0,1,1,.75-.75A.75.75,0,0,1,8.5,12.25ZM8,5V9.5H9V5Z" />
    <path class="light-defaultgrey" d="M12,9H10V8h2Z" />
    <path class="light-defaultgrey" d="M15,9H13V8h2Z" />
    <path d="M5.584,11.777l-2-3V8.223l2-3,.832.554L4.6,8.5l1.815,2.723Z" />
  </g>
</svg>
