<svg xmlns="http://www.w3.org/2000/svg" viewBox="0 0 16 16">
  <defs>
    <style>.canvas{fill: none; opacity: 0;}.light-defaultgrey-10{fill: #212121; opacity: 0.1;}.light-defaultgrey{fill: #212121; opacity: 1;}.cls-1{opacity:0.75;}</style>
  </defs>
  <title>IconLightXMLDocumentTypeDefinitionFile</title>
  <g id="canvas" class="canvas">
    <path class="canvas" d="M16,16H0V0H16Z" />
  </g>
  <g id="level-1">
    <g class="cls-1">
      <path class="light-defaultgrey-10" d="M13.5,14.5H2.5V1.5h8l3,3Z" />
      <path class="light-defaultgrey" d="M13.854,4.146l-3-3L10.5,1h-8L2,1.5v13l.5.5h11l.5-.5V4.5ZM13,14H3V2h7V5h3Z" />
    </g>
    <path class="light-defaultgrey" d="M10.854,11.854l-.708-.708L11.793,9.5,10.146,7.854l.708-.708,2,2v.708ZM4,10V9.293l2-2L6.707,8,5.061,9.646l1.646,1.647L6,12Z" />
    <path class="light-defaultgrey" d="M8.5,13.25a.75.75,0,1,1,.75-.75A.75.75,0,0,1,8.5,13.25ZM8,6v4.5H9V6Z" />
  </g>
</svg>
