<svg xmlns="http://www.w3.org/2000/svg" viewBox="0 0 16 16">
  <defs>
    <style>.canvas{fill: none; opacity: 0;}.light-defaultgrey-10{fill: #212121; opacity: 0.1;}.light-defaultgrey{fill: #212121; opacity: 1;}.light-green{fill: #1f801f; opacity: 1;}.white{fill: #ffffff; opacity: 1;}</style>
  </defs>
  <title>XMLDescendantHighConfidence</title>
  <g id="canvas">
    <path class="canvas" d="M16,16H0V0H16Z" />
  </g>
  <g id="level-1">
    <path class="light-defaultgrey-10" d="M9.5,5.5H5.468v-2H9.5Z" />
    <path class="light-defaultgrey" d="M5.5,3,5,3.5v2l.5.5h4l.5-.5v-2L9.5,3ZM9,5H6V4H9ZM2.061,4.483l1.787,1.8-.71.705L1,4.835V4.129L3.107,2.022l.707.707ZM14,4.177v.706L11.893,6.989l-.707-.707,1.753-1.754-1.787-1.8.71-.706Z" />
    <path class="light-green" d="M16,11.979a4,4,0,1,1-4-4A4,4,0,0,1,16,11.979Z" />
    <path class="white" d="M14.208,11.15l-2.365,2.364-.711,0-1.34-1.372.715-.7.987,1.011L13.5,10.443Z" />
  </g>
</svg>
