<svg xmlns="http://www.w3.org/2000/svg" viewBox="0 0 16 16">
  <defs>
    <style>.canvas{fill: none; opacity: 0;}.light-defaultgrey-10{fill: #212121; opacity: 0.1;}.light-defaultgrey{fill: #212121; opacity: 1;}.light-blue{fill: #005dba; opacity: 1;}.white{fill: #ffffff; opacity: 1;}</style>
  </defs>
  <title>XMLDescendantLowConfidence</title>
  <g id="canvas">
    <path class="canvas" d="M16,16H0V0H16Z" />
  </g>
  <g id="level-1">
    <path class="light-defaultgrey-10" d="M9.5,5.5H5.468v-2H9.5Z" />
    <path class="light-defaultgrey" d="M9.5,3h-4L5,3.5v2l.5.5h4l.5-.5v-2ZM9,5H6V4H9Z" />
    <path class="light-defaultgrey" d="M2.061,4.483l1.787,1.8-.71.705L1,4.835V4.129L3.107,2.022l.707.707ZM14,4.177v.706L11.893,6.989l-.707-.707,1.753-1.754-1.787-1.8.71-.706Z" />
    <path class="light-blue" d="M12,16a4,4,0,1,1,4-4A4,4,0,0,1,12,16Z" />
    <path class="white" d="M12.625,14.5A.625.625,0,1,1,12,13.875.625.625,0,0,1,12.625,14.5Zm.587-4.842a1.534,1.534,0,0,1,.5,1.137c0,.775-.546,1.116-1.085,1.638a.543.543,0,0,0-.167.264,1.55,1.55,0,0,0-.033.508h-.858v-.3a1.29,1.29,0,0,1,.094-.508A1.692,1.692,0,0,1,11.9,12c.3-.373.426-.315.863-.879a.457.457,0,0,0,.094-.326.859.859,0,0,0-1.714,0h-.857A1.731,1.731,0,0,1,13.212,9.658Z" />
  </g>
</svg>
