<svg xmlns="http://www.w3.org/2000/svg" viewBox="0 0 16 16">
  <defs>
    <style>.canvas{fill: none; opacity: 0;}.light-defaultgrey-10{fill: #212121; opacity: 0.1;}.light-defaultgrey{fill: #212121; opacity: 1;}.light-green{fill: #1f801f; opacity: 1;}.white{fill: #ffffff; opacity: 1;}</style>
  </defs>
  <title>IconLightXMLElementHighConfidence</title>
  <g id="canvas" class="canvas">
    <path class="canvas" d="M16,16H0V0H16Z" />
  </g>
  <g id="level-1">
    <path class="light-defaultgrey-10" d="M12,3V6.979a5.04,5.04,0,0,0-5,5L7,12H2V3Z" />
    <path class="light-defaultgrey" d="M7,12a5.07,5.07,0,0,0,.1,1H1.5L1,12.5V2.5L1.5,2h11l.5.5V7.08a5,5,0,0,0-1-.1V3H2v9Zm3.921-4.9L8.811,5l-.7.709L9.875,7.47A5.009,5.009,0,0,1,10.923,7.1ZM5.276,5,3.106,7.179v.707L5.277,10.06l.707-.707L4.168,7.533,5.985,5.705Z" />
    <path class="light-green" d="M16,11.979a4,4,0,1,1-4-4A4,4,0,0,1,16,11.979Z" />
    <path class="white" d="M14.208,11.15l-2.365,2.364-.711,0-1.34-1.372.715-.7.987,1.011L13.5,10.443Z" />
  </g>
</svg>
