<svg xmlns="http://www.w3.org/2000/svg" viewBox="0 0 16 16">
  <defs>
    <style>.canvas{fill: none; opacity: 0;}.light-defaultgrey{fill: #212121; opacity: 1;}.cls-1{opacity:0.75;}</style>
  </defs>
  <title>IconLightXMLNamespace</title>
  <g id="canvas" class="canvas">
    <path class="canvas" d="M16,16H0V0H16Z" />
  </g>
  <g id="level-1">
    <g class="cls-1">
      <path class="light-defaultgrey" d="M13.859,6.012l-.71.705,1.788,1.8-1.754,1.754.707.707L16,8.872V8.166ZM1.092,8.473l1.788,1.8-.71.705L.032,8.824V8.118L2.139,6.012l.707.707Z" />
    </g>
    <path class="light-defaultgrey" d="M12.144,7.609V8.39l-.088.009c-.64.07-.952.556-.952,1.485v2a2.188,2.188,0,0,1-.5,1.577A2.074,2.074,0,0,1,9.126,14l-.1,0v-.9l.095,0a1.3,1.3,0,0,0,.443-.081.683.683,0,0,0,.29-.219,1.069,1.069,0,0,0,.177-.416,3.181,3.181,0,0,0,.061-.675V9.817a1.8,1.8,0,0,1,.892-1.833c-.573-.2-.892-.8-.892-1.754V4.266a2.779,2.779,0,0,0-.064-.644,1.156,1.156,0,0,0-.181-.408A.687.687,0,0,0,9.556,3a1.357,1.357,0,0,0-.438-.087l-.093,0V2l.1,0a2.074,2.074,0,0,1,1.478.538,2.209,2.209,0,0,1,.5,1.591V6.163c0,.9.312,1.375.951,1.438ZM5.405,2.546a2.21,2.21,0,0,0-.5,1.586V6.163c0,.9-.314,1.368-.959,1.438l-.087.009v.78l.088.009a.914.914,0,0,1,.709.406,1.948,1.948,0,0,1,.249,1.079v2a2.191,2.191,0,0,0,.5,1.577A2.08,2.08,0,0,0,6.884,14l.1,0v-.9l-.1,0a1.255,1.255,0,0,1-.463-.088.691.691,0,0,1-.289-.24,1.056,1.056,0,0,1-.165-.417,3.406,3.406,0,0,1-.053-.646V9.817c0-.982-.318-1.605-.888-1.8A1.741,1.741,0,0,0,5.918,6.23V4.266a1.784,1.784,0,0,1,.229-1.025.943.943,0,0,1,.745-.332l.092,0V2l-.1,0A2.063,2.063,0,0,0,5.405,2.546Z" />
  </g>
</svg>
