<svg xmlns="http://www.w3.org/2000/svg" viewBox="0 0 16 16">
  <defs>
    <style>.canvas{fill: none; opacity: 0;}.light-defaultgrey{fill: #212121; opacity: 1;}.light-defaultgrey-10{fill: #212121; opacity: 0.1;}.light-yellow{fill: #996f00; opacity: 1;}.white{fill: #ffffff; opacity: 1;}.cls-1{opacity:0.75;}</style>
  </defs>
  <title>IconLightXMLSchemaWarning</title>
  <g id="canvas" class="canvas">
    <path class="canvas" d="M16,16H0V0H16Z" />
  </g>
  <g id="level-1">
    <g class="cls-1">
      <path class="light-defaultgrey" d="M9.368,9H4v2H3V8.5L3.5,8H7V6H8V8H9.919Z" />
    </g>
    <path class="light-defaultgrey-10" d="M1.5,11.5h4v3h-4Z" />
    <path class="light-defaultgrey" d="M5.5,11h-4l-.5.5v3l.5.5h4l.5-.5v-3ZM5,14H2V12H5Z" />
    <path class="light-defaultgrey" d="M3.212,3.5,5.028,5.32l-.707.707L2.152,3.854V3.148L4.32.969l.709.705Zm9.637-.351v.709L10.661,6.031l-.7-.709L11.787,3.5,9.956,1.679,10.661.97Z" />
    <path class="light-yellow" d="M15.5,16h-8l-.439-.739,4-7.261h.878l4,7.261Z" />
    <path class="white" d="M12,13H11V10h1Zm.25,1.5a.75.75,0,1,1-.75-.75A.75.75,0,0,1,12.25,14.5Z" />
  </g>
</svg>
