<svg xmlns="http://www.w3.org/2000/svg" viewBox="0 0 16 16">
  <defs>
    <style>.canvas{fill: none; opacity: 0;}.light-defaultgrey{fill: #212121; opacity: 1;}.light-defaultgrey-10{fill: #212121; opacity: 0.1;}.cls-1{opacity:0.75;}</style>
  </defs>
  <title>IconLightxWorldFile</title>
  <g id="canvas">
    <path class="canvas" d="M16,16H0V0H16Z" />
  </g>
  <g id="level-1">
    <g class="cls-1">
      <path class="light-defaultgrey" d="M14,4.5v10l-.5.5H7.914l1-1H13V5H10V2H3V9.086l-1,1V1.5L2.5,1h8l.354.146,3,3Z" />
      <path class="light-defaultgrey-10" d="M13.5,4.5v10H8.414L9,13.914V12h.914L11,10.914V8.086L9.914,7H6.086L5,8.086V9H3.086L2.5,9.586V1.5h8Z" />
    </g>
    <path class="light-defaultgrey-10" d="M.5,15.5v-3h5v3Z" />
    <path class="light-defaultgrey" d="M10,8.5v2l-.5.5H9V9H6V8.5L6.5,8h3ZM3.5,10l-.5.5V11H7v3h.5l.5-.5v-3L7.5,10Zm2,2,.5.5v3l-.5.5H.5L0,15.5v-3L.5,12ZM5,13H1v2H5Z" />
  </g>
</svg>
