<svg xmlns="http://www.w3.org/2000/svg" viewBox="0 0 16 16">
  <defs>
    <style>.canvas{fill: none; opacity: 0;}.light-defaultgrey-10{fill: #212121; opacity: 0.1;}.light-defaultgrey{fill: #212121; opacity: 1;}.light-blue{fill: #005dba; opacity: 1;}.cls-1{opacity:0.75;}</style>
  </defs>
  <title>ZoomToWidth</title>
  <g id="canvas">
    <path class="canvas" d="M0,0H16V16H0Z" />
  </g>
  <g id="level-1">
    <g class="cls-1">
      <path class="light-defaultgrey-10" d="M13.5,7.5a6,6,0,1,1-6-6A6,6,0,0,1,13.5,7.5Z" />
      <path class="light-defaultgrey" d="M1,7.5a6.5,6.5,0,0,0,10.727,4.934l3.419,3.42.708-.708-3.42-3.419A6.5,6.5,0,1,0,1,7.5Zm1,0A5.5,5.5,0,1,1,7.5,13,5.507,5.507,0,0,1,2,7.5Z" />
    </g>
    <path class="light-blue" d="M5,5V7h5V5h1v5H10V8H5v2H4V5Z" />
  </g>
</svg>
