<svg xmlns="http://www.w3.org/2000/svg" viewBox="0 0 16 16">
  <defs>
    <style>.canvas{fill: none; opacity: 0;}.light-defaultgrey{fill: #212121; opacity: 1;}.light-defaultgrey-10{fill: #212121; opacity: 0.1;}.light-blue{fill: #005dba; opacity: 1;}.cls-1{opacity:0.75;}</style>
  </defs>
  <title>ZoomOut</title>
  <g id="canvas">
    <path class="canvas" d="M0,0H16V16H0Z" />
  </g>
  <g id="level-1">
    <g class="cls-1">
      <path class="light-defaultgrey" d="M9.646,10.354l.708-.708,5.5,5.5-.708.708Z" />
      <path class="light-defaultgrey-10" d="M11.5,6.5a5,5,0,1,1-5-5A5,5,0,0,1,11.5,6.5Z" />
      <path class="light-defaultgrey" d="M6.5,1A5.5,5.5,0,1,0,12,6.5,5.507,5.507,0,0,0,6.5,1Zm0,10A4.5,4.5,0,1,1,11,6.5,4.505,4.505,0,0,1,6.5,11Z" />
    </g>
    <path class="light-blue" d="M9,7H4V6H9Z" />
  </g>
</svg>
