<svg xmlns="http://www.w3.org/2000/svg" viewBox="0 0 16 16">
  <defs>
    <style>.canvas{fill: none; opacity: 0;}.light-defaultgrey{fill: #212121; opacity: 1;}.light-defaultgrey-10{fill: #212121; opacity: 0.1;}.light-blue{fill: #005dba; opacity: 1;}.cls-1{opacity:0.75;}</style>
  </defs>
  <title>ZoomOriginalSize</title>
  <g id="canvas">
    <path class="canvas" d="M0,0H16V16H0Z" />
  </g>
  <g id="level-1">
    <g class="cls-1">
      <path class="light-defaultgrey" d="M15.854,15.146l-.708.708-3.422-3.423a6.742,6.742,0,0,0,.707-.707Z" />
      <path class="light-defaultgrey-10" d="M13.5,7.5a6,6,0,1,1-6-6A6,6,0,0,1,13.5,7.5Z" />
      <path class="light-defaultgrey" d="M7.5,1A6.5,6.5,0,1,0,14,7.5,6.508,6.508,0,0,0,7.5,1Zm0,12A5.5,5.5,0,1,1,13,7.5,5.507,5.507,0,0,1,7.5,13Z" />
    </g>
    <path class="light-blue" d="M9.354,6.6,8.646,5.9l1.5-1.5.708.708ZM4.146,5.1l1.5,1.5L6.354,5.9l-1.5-1.5Zm4.5,4,1.5,1.5.708-.708-1.5-1.5Zm-4.5.792.708.708,1.5-1.5L5.646,8.4Z" />
  </g>
</svg>
